<?xml version="1.0" encoding="UTF-8"?>
<svg xmlns="http://www.w3.org/2000/svg" xmlns:xlink="http://www.w3.org/1999/xlink" width="1920" height="1080" viewBox="0 0 1920 1080">
<defs>
<g>
<g id="glyph-0-0">
<path d="M 0.867188 0.0507812 C 0.703125 0.0507812 0.570312 0.00390625 0.472656 -0.09375 C 0.375 -0.1875 0.324219 -0.316406 0.324219 -0.472656 C 0.324219 -0.578125 0.339844 -0.699219 0.363281 -0.832031 C 0.390625 -0.96875 0.425781 -1.105469 0.472656 -1.246094 L 1.277344 -3.679688 C 1.300781 -3.738281 1.316406 -3.796875 1.324219 -3.855469 C 1.335938 -3.914062 1.34375 -3.96875 1.34375 -4.027344 C 1.34375 -4.046875 1.332031 -4.066406 1.308594 -4.082031 C 1.285156 -4.101562 1.242188 -4.117188 1.183594 -4.132812 C 1.050781 -4.167969 0.984375 -4.199219 0.984375 -4.230469 C 0.984375 -4.25 0.992188 -4.269531 1.007812 -4.28125 C 1.023438 -4.292969 1.046875 -4.304688 1.085938 -4.320312 C 1.132812 -4.335938 1.195312 -4.355469 1.269531 -4.378906 C 1.34375 -4.402344 1.417969 -4.425781 1.496094 -4.445312 C 1.570312 -4.46875 1.640625 -4.484375 1.703125 -4.5 C 1.765625 -4.511719 1.804688 -4.515625 1.820312 -4.515625 C 1.890625 -4.515625 1.921875 -4.496094 1.921875 -4.453125 C 1.921875 -4.414062 1.921875 -4.382812 1.914062 -4.355469 C 1.90625 -4.328125 1.894531 -4.289062 1.878906 -4.242188 C 1.84375 -4.15625 1.796875 -4.03125 1.738281 -3.863281 C 1.679688 -3.695312 1.613281 -3.507812 1.542969 -3.300781 C 1.472656 -3.09375 1.402344 -2.886719 1.328125 -2.675781 C 1.257812 -2.464844 1.191406 -2.265625 1.128906 -2.082031 C 1.066406 -1.898438 1.019531 -1.753906 0.984375 -1.640625 C 0.96875 -1.597656 0.96875 -1.574219 0.988281 -1.566406 C 1.007812 -1.558594 1.03125 -1.570312 1.0625 -1.609375 C 1.3125 -1.941406 1.550781 -2.199219 1.777344 -2.375 C 2.003906 -2.554688 2.195312 -2.644531 2.351562 -2.644531 C 2.488281 -2.644531 2.601562 -2.601562 2.691406 -2.511719 C 2.78125 -2.421875 2.824219 -2.308594 2.824219 -2.171875 C 2.824219 -1.976562 2.785156 -1.773438 2.707031 -1.570312 C 2.628906 -1.363281 2.519531 -1.160156 2.386719 -0.96875 C 2.253906 -0.773438 2.101562 -0.601562 1.929688 -0.449219 C 1.757812 -0.292969 1.582031 -0.171875 1.402344 -0.0820312 C 1.222656 0.0078125 1.042969 0.0507812 0.867188 0.0507812 Z M 1.035156 -0.152344 C 1.089844 -0.152344 1.164062 -0.183594 1.253906 -0.242188 C 1.34375 -0.300781 1.4375 -0.382812 1.542969 -0.488281 C 1.648438 -0.59375 1.75 -0.710938 1.847656 -0.84375 C 1.949219 -0.980469 2.042969 -1.128906 2.128906 -1.292969 C 2.214844 -1.457031 2.28125 -1.617188 2.328125 -1.765625 C 2.378906 -1.917969 2.402344 -2.042969 2.402344 -2.148438 C 2.402344 -2.21875 2.382812 -2.28125 2.347656 -2.328125 C 2.3125 -2.378906 2.269531 -2.402344 2.21875 -2.402344 C 2.085938 -2.402344 1.933594 -2.328125 1.761719 -2.179688 C 1.59375 -2.03125 1.394531 -1.800781 1.167969 -1.496094 C 1.027344 -1.300781 0.914062 -1.117188 0.832031 -0.953125 C 0.746094 -0.785156 0.703125 -0.664062 0.703125 -0.582031 C 0.703125 -0.464844 0.734375 -0.367188 0.800781 -0.28125 C 0.867188 -0.195312 0.945312 -0.152344 1.035156 -0.152344 Z "/>
</g>
<g id="glyph-0-1">
<path d="M 0.289062 0.0898438 C 0.238281 0.0898438 0.183594 0.0742188 0.132812 0.046875 C 0.0820312 0.0195312 0.0429688 -0.015625 0.0078125 -0.0585938 C -0.0234375 -0.101562 -0.0390625 -0.144531 -0.0390625 -0.191406 C -0.0390625 -0.34375 0.0117188 -0.523438 0.113281 -0.726562 C 0.214844 -0.929688 0.359375 -1.140625 0.542969 -1.363281 C 0.726562 -1.585938 0.9375 -1.804688 1.175781 -2.011719 C 1.40625 -2.210938 1.59375 -2.363281 1.738281 -2.464844 C 1.882812 -2.5625 1.988281 -2.613281 2.058594 -2.613281 C 2.125 -2.613281 2.183594 -2.582031 2.238281 -2.523438 C 2.296875 -2.445312 2.324219 -2.410156 2.316406 -2.417969 C 2.308594 -2.425781 2.308594 -2.429688 2.3125 -2.429688 C 2.320312 -2.429688 2.328125 -2.429688 2.335938 -2.4375 C 2.34375 -2.445312 2.347656 -2.453125 2.351562 -2.464844 C 2.410156 -2.566406 2.445312 -2.628906 2.460938 -2.652344 C 2.472656 -2.671875 2.472656 -2.675781 2.460938 -2.65625 C 2.484375 -2.699219 2.511719 -2.722656 2.535156 -2.722656 C 2.574219 -2.722656 2.613281 -2.714844 2.652344 -2.703125 C 2.691406 -2.691406 2.722656 -2.671875 2.746094 -2.652344 C 2.769531 -2.628906 2.78125 -2.609375 2.78125 -2.585938 C 2.78125 -2.566406 2.765625 -2.511719 2.734375 -2.429688 L 2.019531 -0.53125 C 1.964844 -0.386719 1.992188 -0.3125 2.101562 -0.3125 C 2.179688 -0.3125 2.273438 -0.351562 2.378906 -0.425781 C 2.488281 -0.5 2.582031 -0.589844 2.664062 -0.695312 C 2.671875 -0.703125 2.683594 -0.710938 2.691406 -0.71875 C 2.703125 -0.726562 2.714844 -0.726562 2.722656 -0.726562 C 2.738281 -0.726562 2.75 -0.722656 2.757812 -0.710938 C 2.765625 -0.703125 2.765625 -0.683594 2.765625 -0.65625 C 2.765625 -0.628906 2.738281 -0.570312 2.675781 -0.480469 C 2.617188 -0.394531 2.554688 -0.320312 2.492188 -0.253906 C 2.371094 -0.144531 2.253906 -0.0585938 2.132812 0 C 2.011719 0.0585938 1.898438 0.0898438 1.796875 0.0898438 C 1.753906 0.0898438 1.710938 0.078125 1.667969 0.0507812 C 1.625 0.0273438 1.589844 -0.0078125 1.5625 -0.0429688 C 1.535156 -0.0820312 1.519531 -0.121094 1.519531 -0.160156 C 1.519531 -0.207031 1.535156 -0.253906 1.558594 -0.308594 C 1.542969 -0.269531 1.539062 -0.269531 1.554688 -0.308594 C 1.570312 -0.34375 1.597656 -0.40625 1.632812 -0.484375 C 1.667969 -0.566406 1.707031 -0.652344 1.75 -0.742188 C 1.792969 -0.832031 1.828125 -0.910156 1.859375 -0.976562 C 1.878906 -1.023438 1.890625 -1.058594 1.886719 -1.082031 C 1.886719 -1.105469 1.871094 -1.101562 1.847656 -1.074219 C 1.585938 -0.785156 1.363281 -0.554688 1.179688 -0.382812 C 0.992188 -0.210938 0.832031 -0.0898438 0.691406 -0.0195312 C 0.550781 0.0546875 0.414062 0.0898438 0.289062 0.0898438 Z M 0.644531 -0.3125 C 0.738281 -0.3125 0.878906 -0.390625 1.0625 -0.546875 C 1.25 -0.703125 1.457031 -0.917969 1.691406 -1.195312 C 1.855469 -1.382812 1.984375 -1.554688 2.078125 -1.710938 C 2.171875 -1.871094 2.21875 -1.988281 2.21875 -2.0625 C 2.21875 -2.097656 2.191406 -2.136719 2.132812 -2.183594 C 2.109375 -2.207031 2.082031 -2.222656 2.050781 -2.238281 C 2.019531 -2.25 1.996094 -2.253906 1.972656 -2.253906 C 1.898438 -2.253906 1.792969 -2.21875 1.65625 -2.140625 C 1.523438 -2.0625 1.402344 -1.972656 1.289062 -1.867188 C 1.148438 -1.730469 1.015625 -1.574219 0.886719 -1.40625 C 0.761719 -1.234375 0.65625 -1.070312 0.578125 -0.914062 C 0.5 -0.757812 0.460938 -0.628906 0.460938 -0.53125 C 0.460938 -0.464844 0.476562 -0.414062 0.511719 -0.375 C 0.546875 -0.332031 0.589844 -0.3125 0.644531 -0.3125 Z "/>
</g>
<g id="glyph-0-2">
<path d="M 0.382812 0.109375 C 0.363281 0.109375 0.339844 0.101562 0.3125 0.0859375 C 0.289062 0.0703125 0.265625 0.0507812 0.25 0.0273438 C 0.234375 0.00390625 0.222656 -0.0195312 0.222656 -0.0429688 C 0.222656 -0.09375 0.238281 -0.160156 0.265625 -0.238281 C 0.292969 -0.316406 0.328125 -0.417969 0.371094 -0.535156 L 0.957031 -2.070312 C 0.980469 -2.125 0.988281 -2.175781 0.988281 -2.222656 C 0.984375 -2.269531 0.960938 -2.292969 0.921875 -2.292969 C 0.859375 -2.292969 0.800781 -2.285156 0.746094 -2.273438 C 0.6875 -2.257812 0.644531 -2.242188 0.613281 -2.222656 C 0.585938 -2.207031 0.5625 -2.203125 0.539062 -2.214844 C 0.515625 -2.226562 0.503906 -2.246094 0.503906 -2.273438 C 0.503906 -2.308594 0.519531 -2.347656 0.550781 -2.390625 C 0.585938 -2.433594 0.628906 -2.472656 0.683594 -2.511719 C 0.734375 -2.550781 0.796875 -2.582031 0.867188 -2.605469 C 0.9375 -2.632812 1.007812 -2.644531 1.085938 -2.644531 C 1.207031 -2.644531 1.28125 -2.617188 1.3125 -2.554688 C 1.34375 -2.496094 1.347656 -2.417969 1.324219 -2.316406 C 1.300781 -2.214844 1.265625 -2.101562 1.214844 -1.972656 L 0.925781 -1.253906 C 0.910156 -1.222656 0.914062 -1.203125 0.941406 -1.195312 C 0.96875 -1.1875 0.992188 -1.191406 1.003906 -1.214844 C 1.171875 -1.507812 1.34375 -1.765625 1.515625 -1.984375 C 1.6875 -2.203125 1.851562 -2.375 2 -2.496094 C 2.148438 -2.617188 2.273438 -2.675781 2.371094 -2.675781 C 2.480469 -2.675781 2.558594 -2.644531 2.605469 -2.582031 C 2.648438 -2.519531 2.671875 -2.441406 2.671875 -2.359375 C 2.671875 -2.28125 2.65625 -2.203125 2.628906 -2.121094 C 2.601562 -2.039062 2.5625 -1.972656 2.515625 -1.921875 C 2.464844 -1.867188 2.410156 -1.839844 2.351562 -1.839844 C 2.316406 -1.839844 2.292969 -1.859375 2.273438 -1.902344 C 2.257812 -1.941406 2.25 -1.996094 2.25 -2.0625 C 2.25 -2.128906 2.242188 -2.179688 2.222656 -2.214844 C 2.207031 -2.25 2.175781 -2.269531 2.128906 -2.269531 C 2.085938 -2.269531 2.027344 -2.242188 1.957031 -2.183594 C 1.886719 -2.128906 1.800781 -2.035156 1.691406 -1.898438 C 1.644531 -1.835938 1.585938 -1.746094 1.507812 -1.636719 C 1.429688 -1.523438 1.347656 -1.402344 1.261719 -1.269531 C 1.175781 -1.132812 1.089844 -0.996094 1.003906 -0.859375 C 0.917969 -0.722656 0.84375 -0.59375 0.78125 -0.480469 C 0.664062 -0.273438 0.582031 -0.125 0.535156 -0.03125 C 0.484375 0.0625 0.433594 0.109375 0.382812 0.109375 Z "/>
</g>
<g id="glyph-0-3">
<path d="M 0.421875 0.0898438 C 0.347656 0.0898438 0.289062 0.0664062 0.242188 0.0195312 C 0.195312 -0.0273438 0.171875 -0.078125 0.171875 -0.128906 C 0.171875 -0.144531 0.171875 -0.160156 0.175781 -0.179688 C 0.179688 -0.195312 0.183594 -0.214844 0.191406 -0.230469 C 0.367188 -0.582031 0.511719 -0.917969 0.632812 -1.230469 C 0.75 -1.542969 0.859375 -1.816406 0.953125 -2.050781 C 0.96875 -2.101562 0.957031 -2.128906 0.921875 -2.128906 C 0.898438 -2.128906 0.855469 -2.117188 0.796875 -2.09375 C 0.734375 -2.070312 0.667969 -2.039062 0.601562 -2 C 0.53125 -1.960938 0.472656 -1.921875 0.421875 -1.886719 C 0.402344 -1.867188 0.378906 -1.863281 0.359375 -1.871094 C 0.335938 -1.878906 0.324219 -1.894531 0.324219 -1.917969 C 0.324219 -1.9375 0.34375 -1.96875 0.375 -2.007812 C 0.40625 -2.050781 0.449219 -2.097656 0.507812 -2.148438 C 0.566406 -2.199219 0.632812 -2.253906 0.714844 -2.308594 C 0.796875 -2.367188 0.886719 -2.425781 0.980469 -2.480469 C 1.078125 -2.539062 1.179688 -2.59375 1.285156 -2.640625 C 1.324219 -2.65625 1.359375 -2.652344 1.398438 -2.625 C 1.4375 -2.601562 1.46875 -2.570312 1.492188 -2.53125 C 1.515625 -2.492188 1.523438 -2.460938 1.515625 -2.441406 L 0.734375 -0.59375 C 0.71875 -0.558594 0.707031 -0.527344 0.699219 -0.496094 C 0.691406 -0.464844 0.691406 -0.433594 0.691406 -0.410156 C 0.691406 -0.378906 0.703125 -0.359375 0.726562 -0.347656 C 0.75 -0.335938 0.769531 -0.332031 0.792969 -0.332031 C 0.851562 -0.332031 0.921875 -0.359375 0.996094 -0.417969 C 1.074219 -0.476562 1.15625 -0.546875 1.242188 -0.628906 C 1.328125 -0.710938 1.414062 -0.792969 1.496094 -0.875 C 1.503906 -0.882812 1.511719 -0.886719 1.519531 -0.886719 C 1.527344 -0.886719 1.539062 -0.886719 1.546875 -0.878906 C 1.554688 -0.871094 1.558594 -0.863281 1.558594 -0.855469 C 1.558594 -0.789062 1.519531 -0.703125 1.4375 -0.597656 C 1.355469 -0.492188 1.253906 -0.390625 1.132812 -0.285156 C 1.011719 -0.179688 0.886719 -0.0898438 0.761719 -0.0195312 C 0.632812 0.0546875 0.519531 0.0898438 0.421875 0.0898438 Z M 1.710938 -3.277344 C 1.648438 -3.277344 1.59375 -3.304688 1.550781 -3.355469 C 1.507812 -3.40625 1.488281 -3.464844 1.488281 -3.527344 C 1.488281 -3.628906 1.523438 -3.71875 1.589844 -3.796875 C 1.660156 -3.875 1.746094 -3.917969 1.847656 -3.917969 C 1.914062 -3.917969 1.96875 -3.886719 2.007812 -3.832031 C 2.046875 -3.773438 2.0625 -3.710938 2.0625 -3.640625 C 2.0625 -3.546875 2.03125 -3.464844 1.960938 -3.390625 C 1.894531 -3.316406 1.808594 -3.277344 1.710938 -3.277344 Z "/>
</g>
<g id="glyph-0-4">
<path d="M 0.675781 0.0976562 C 0.585938 0.0976562 0.496094 0.0625 0.40625 -0.0078125 C 0.3125 -0.0742188 0.238281 -0.160156 0.179688 -0.265625 C 0.121094 -0.371094 0.0898438 -0.472656 0.0898438 -0.570312 C 0.0898438 -0.78125 0.132812 -1.007812 0.21875 -1.25 C 0.308594 -1.488281 0.429688 -1.714844 0.582031 -1.925781 C 0.734375 -2.136719 0.914062 -2.308594 1.113281 -2.445312 C 1.316406 -2.578125 1.53125 -2.644531 1.757812 -2.644531 C 1.90625 -2.644531 2.023438 -2.613281 2.105469 -2.550781 C 2.1875 -2.492188 2.230469 -2.40625 2.230469 -2.292969 C 2.230469 -2.160156 2.1875 -2.046875 2.105469 -1.949219 C 2.023438 -1.851562 1.910156 -1.765625 1.769531 -1.695312 C 1.628906 -1.625 1.472656 -1.566406 1.300781 -1.519531 C 1.128906 -1.472656 0.953125 -1.433594 0.773438 -1.398438 C 0.746094 -1.394531 0.726562 -1.390625 0.710938 -1.382812 C 0.695312 -1.375 0.6875 -1.359375 0.675781 -1.335938 C 0.648438 -1.242188 0.617188 -1.140625 0.585938 -1.027344 C 0.558594 -0.917969 0.542969 -0.8125 0.542969 -0.714844 C 0.542969 -0.566406 0.570312 -0.453125 0.628906 -0.371094 C 0.6875 -0.289062 0.769531 -0.25 0.882812 -0.25 C 1.035156 -0.25 1.164062 -0.289062 1.273438 -0.363281 C 1.378906 -0.441406 1.464844 -0.515625 1.535156 -0.59375 C 1.578125 -0.640625 1.613281 -0.664062 1.648438 -0.664062 C 1.691406 -0.664062 1.710938 -0.644531 1.710938 -0.601562 C 1.710938 -0.597656 1.710938 -0.589844 1.710938 -0.578125 C 1.710938 -0.566406 1.707031 -0.558594 1.699219 -0.550781 C 1.613281 -0.410156 1.519531 -0.289062 1.414062 -0.195312 C 1.304688 -0.0976562 1.191406 -0.0273438 1.070312 0.0234375 C 0.949219 0.0703125 0.816406 0.0976562 0.675781 0.0976562 Z M 0.816406 -1.546875 C 0.863281 -1.546875 0.945312 -1.558594 1.058594 -1.585938 C 1.171875 -1.613281 1.289062 -1.660156 1.414062 -1.722656 C 1.535156 -1.785156 1.640625 -1.859375 1.726562 -1.953125 C 1.816406 -2.042969 1.859375 -2.152344 1.859375 -2.28125 C 1.859375 -2.335938 1.84375 -2.382812 1.816406 -2.425781 C 1.785156 -2.464844 1.742188 -2.484375 1.6875 -2.484375 C 1.597656 -2.484375 1.5 -2.449219 1.394531 -2.375 C 1.292969 -2.300781 1.191406 -2.210938 1.097656 -2.105469 C 1.003906 -2 0.925781 -1.898438 0.867188 -1.800781 C 0.804688 -1.703125 0.773438 -1.632812 0.773438 -1.585938 C 0.773438 -1.558594 0.789062 -1.546875 0.816406 -1.546875 Z "/>
</g>
</g>
</defs>
<g fill="rgb(18.431373%, 16.470588%, 14.901961%)" fill-opacity="1">
<use xlink:href="#glyph-0-0" x="30" y="26.43457"/>
<use xlink:href="#glyph-0-1" x="33" y="26.43457"/>
<use xlink:href="#glyph-0-2" x="36" y="26.43457"/>
<use xlink:href="#glyph-0-2" x="38" y="26.43457"/>
<use xlink:href="#glyph-0-3" x="40" y="26.43457"/>
<use xlink:href="#glyph-0-4" x="42" y="26.43457"/>
<use xlink:href="#glyph-0-2" x="44" y="26.43457"/>
</g>
</svg>
