<?xml version="1.0" encoding="UTF-8"?>
<svg xmlns="http://www.w3.org/2000/svg" xmlns:xlink="http://www.w3.org/1999/xlink" width="1920" height="1080" viewBox="0 0 1920 1080">
<defs>
<g>
<g id="glyph-0-0">
<path d="M -0.683594 1.828125 C -0.703125 1.828125 -0.726562 1.824219 -0.75 1.816406 C -0.773438 1.808594 -0.785156 1.792969 -0.785156 1.769531 C -0.785156 1.734375 -0.761719 1.707031 -0.71875 1.683594 C -0.675781 1.660156 -0.632812 1.644531 -0.59375 1.640625 C -0.503906 1.625 -0.433594 1.601562 -0.382812 1.570312 C -0.332031 1.542969 -0.292969 1.488281 -0.261719 1.40625 L 0.972656 -2.039062 C 0.992188 -2.097656 1.003906 -2.144531 1.007812 -2.171875 C 1.011719 -2.203125 1.007812 -2.222656 0.992188 -2.234375 C 0.972656 -2.246094 0.945312 -2.246094 0.902344 -2.238281 C 0.800781 -2.21875 0.710938 -2.203125 0.636719 -2.183594 C 0.5625 -2.164062 0.480469 -2.132812 0.390625 -2.089844 C 0.355469 -2.074219 0.324219 -2.070312 0.296875 -2.078125 C 0.269531 -2.089844 0.253906 -2.109375 0.253906 -2.132812 C 0.253906 -2.167969 0.265625 -2.195312 0.285156 -2.21875 C 0.304688 -2.238281 0.324219 -2.253906 0.351562 -2.269531 C 0.417969 -2.304688 0.515625 -2.347656 0.644531 -2.410156 C 0.773438 -2.46875 0.921875 -2.519531 1.09375 -2.5625 C 1.121094 -2.570312 1.148438 -2.582031 1.167969 -2.597656 C 1.1875 -2.613281 1.199219 -2.632812 1.207031 -2.664062 C 1.265625 -2.863281 1.324219 -3.007812 1.375 -3.097656 C 1.425781 -3.1875 1.496094 -3.234375 1.589844 -3.234375 C 1.625 -3.234375 1.65625 -3.222656 1.679688 -3.203125 C 1.707031 -3.179688 1.714844 -3.148438 1.707031 -3.113281 L 1.597656 -2.742188 C 1.585938 -2.699219 1.582031 -2.667969 1.589844 -2.648438 C 1.597656 -2.628906 1.613281 -2.621094 1.628906 -2.625 C 1.683594 -2.632812 1.734375 -2.640625 1.78125 -2.644531 C 1.824219 -2.648438 1.867188 -2.652344 1.910156 -2.652344 C 2.125 -2.652344 2.289062 -2.617188 2.410156 -2.546875 C 2.53125 -2.476562 2.617188 -2.378906 2.667969 -2.257812 C 2.714844 -2.136719 2.742188 -2.003906 2.742188 -1.851562 C 2.742188 -1.648438 2.695312 -1.433594 2.601562 -1.210938 C 2.507812 -0.988281 2.378906 -0.777344 2.21875 -0.578125 C 2.058594 -0.378906 1.882812 -0.21875 1.683594 -0.0976562 C 1.484375 0.0273438 1.28125 0.0898438 1.066406 0.0898438 C 1.027344 0.0898438 0.984375 0.078125 0.9375 0.0507812 C 0.890625 0.0273438 0.847656 0 0.804688 -0.0273438 C 0.765625 -0.0507812 0.734375 -0.0585938 0.710938 -0.046875 C 0.6875 -0.0351562 0.664062 0.0078125 0.632812 0.0898438 L 0.210938 1.335938 C 0.179688 1.425781 0.191406 1.492188 0.238281 1.535156 C 0.289062 1.582031 0.367188 1.609375 0.472656 1.617188 C 0.515625 1.621094 0.558594 1.628906 0.601562 1.640625 C 0.644531 1.65625 0.664062 1.679688 0.664062 1.710938 C 0.664062 1.738281 0.644531 1.757812 0.605469 1.765625 C 0.566406 1.777344 0.527344 1.78125 0.480469 1.78125 C 0.414062 1.78125 0.347656 1.78125 0.28125 1.78125 C 0.214844 1.777344 0.148438 1.777344 0.09375 1.777344 C 0.0351562 1.777344 -0.0117188 1.777344 -0.0507812 1.78125 C -0.15625 1.796875 -0.261719 1.804688 -0.359375 1.816406 C -0.460938 1.824219 -0.570312 1.828125 -0.683594 1.828125 Z M 1.1875 -0.128906 C 1.285156 -0.128906 1.398438 -0.183594 1.519531 -0.289062 C 1.644531 -0.398438 1.761719 -0.539062 1.875 -0.710938 C 1.988281 -0.878906 2.082031 -1.0625 2.15625 -1.253906 C 2.230469 -1.445312 2.269531 -1.625 2.269531 -1.796875 C 2.269531 -2.035156 2.226562 -2.195312 2.140625 -2.28125 C 2.054688 -2.367188 1.9375 -2.410156 1.78125 -2.414062 C 1.742188 -2.414062 1.707031 -2.414062 1.667969 -2.414062 C 1.628906 -2.414062 1.585938 -2.410156 1.539062 -2.402344 L 0.953125 -0.675781 C 0.925781 -0.601562 0.914062 -0.527344 0.910156 -0.464844 C 0.910156 -0.398438 0.914062 -0.339844 0.933594 -0.292969 C 0.953125 -0.238281 0.984375 -0.195312 1.027344 -0.167969 C 1.066406 -0.140625 1.121094 -0.128906 1.1875 -0.128906 Z "/>
</g>
<g id="glyph-0-1">
<path d="M 0.359375 0.113281 C 0.335938 0.113281 0.316406 0.105469 0.300781 0.0898438 C 0.285156 0.0742188 0.269531 0.0507812 0.261719 0.0273438 C 0.253906 0 0.25 -0.0273438 0.25 -0.0507812 C 0.25 -0.113281 0.257812 -0.179688 0.273438 -0.242188 C 0.285156 -0.304688 0.308594 -0.386719 0.332031 -0.480469 L 1.234375 -3.566406 C 1.253906 -3.636719 1.277344 -3.71875 1.296875 -3.804688 C 1.316406 -3.890625 1.328125 -3.957031 1.328125 -4 C 1.328125 -4.042969 1.300781 -4.074219 1.25 -4.097656 C 1.195312 -4.117188 1.144531 -4.136719 1.09375 -4.152344 C 1.0625 -4.160156 1.035156 -4.171875 1.011719 -4.183594 C 0.988281 -4.191406 0.976562 -4.207031 0.976562 -4.222656 C 0.976562 -4.242188 0.984375 -4.257812 0.996094 -4.269531 C 1.007812 -4.285156 1.039062 -4.300781 1.085938 -4.320312 C 1.121094 -4.332031 1.167969 -4.347656 1.230469 -4.371094 C 1.292969 -4.390625 1.359375 -4.414062 1.429688 -4.4375 C 1.5 -4.460938 1.5625 -4.480469 1.621094 -4.496094 C 1.675781 -4.511719 1.714844 -4.515625 1.738281 -4.515625 C 1.757812 -4.515625 1.78125 -4.515625 1.808594 -4.511719 C 1.832031 -4.507812 1.847656 -4.488281 1.847656 -4.453125 C 1.847656 -4.417969 1.84375 -4.390625 1.835938 -4.363281 C 1.832031 -4.339844 1.824219 -4.3125 1.816406 -4.28125 L 0.945312 -1.277344 C 0.9375 -1.246094 0.9375 -1.234375 0.949219 -1.234375 C 0.960938 -1.234375 0.972656 -1.242188 0.984375 -1.257812 C 1.171875 -1.535156 1.367188 -1.78125 1.566406 -1.996094 C 1.765625 -2.210938 1.957031 -2.382812 2.132812 -2.503906 C 2.3125 -2.628906 2.464844 -2.691406 2.59375 -2.691406 C 2.734375 -2.691406 2.84375 -2.644531 2.917969 -2.550781 C 2.992188 -2.457031 3.027344 -2.347656 3.027344 -2.222656 C 3.027344 -2.007812 2.988281 -1.777344 2.910156 -1.535156 C 2.832031 -1.292969 2.726562 -1.058594 2.601562 -0.835938 C 2.472656 -0.613281 2.335938 -0.425781 2.183594 -0.269531 C 2.160156 -0.242188 2.121094 -0.210938 2.070312 -0.167969 C 2.019531 -0.128906 1.960938 -0.0898438 1.890625 -0.0507812 C 1.824219 -0.0117188 1.753906 0.0195312 1.683594 0.046875 C 1.613281 0.0742188 1.546875 0.0898438 1.488281 0.0898438 C 1.457031 0.0898438 1.421875 0.078125 1.382812 0.0507812 C 1.34375 0.0273438 1.308594 -0.0078125 1.28125 -0.0429688 C 1.253906 -0.0820312 1.238281 -0.117188 1.238281 -0.148438 C 1.238281 -0.167969 1.25 -0.195312 1.265625 -0.222656 C 1.28125 -0.253906 1.304688 -0.277344 1.328125 -0.300781 C 1.355469 -0.320312 1.378906 -0.332031 1.40625 -0.332031 C 1.445312 -0.332031 1.476562 -0.324219 1.503906 -0.308594 C 1.53125 -0.292969 1.558594 -0.277344 1.578125 -0.253906 C 1.605469 -0.234375 1.628906 -0.214844 1.65625 -0.199219 C 1.679688 -0.179688 1.710938 -0.171875 1.746094 -0.171875 C 1.816406 -0.171875 1.894531 -0.214844 1.972656 -0.300781 C 2.054688 -0.386719 2.132812 -0.5 2.207031 -0.640625 C 2.28125 -0.78125 2.347656 -0.933594 2.410156 -1.101562 C 2.46875 -1.269531 2.515625 -1.441406 2.550781 -1.609375 C 2.589844 -1.78125 2.605469 -1.9375 2.605469 -2.082031 C 2.605469 -2.179688 2.585938 -2.257812 2.546875 -2.308594 C 2.507812 -2.363281 2.445312 -2.390625 2.363281 -2.390625 C 2.269531 -2.390625 2.164062 -2.34375 2.046875 -2.253906 C 1.929688 -2.160156 1.808594 -2.039062 1.683594 -1.890625 C 1.558594 -1.742188 1.433594 -1.582031 1.316406 -1.414062 C 1.195312 -1.242188 1.089844 -1.074219 0.992188 -0.914062 C 0.894531 -0.753906 0.8125 -0.613281 0.753906 -0.5 C 0.648438 -0.292969 0.566406 -0.140625 0.515625 -0.0390625 C 0.460938 0.0625 0.410156 0.113281 0.359375 0.113281 Z "/>
</g>
<g id="glyph-0-2">
<path d="M -0.34375 1.851562 C -0.410156 1.851562 -0.472656 1.832031 -0.535156 1.785156 C -0.601562 1.742188 -0.632812 1.675781 -0.632812 1.585938 C -0.632812 1.527344 -0.621094 1.472656 -0.59375 1.425781 C -0.570312 1.378906 -0.535156 1.339844 -0.5 1.308594 C -0.460938 1.28125 -0.421875 1.265625 -0.382812 1.265625 C -0.339844 1.265625 -0.304688 1.277344 -0.273438 1.300781 C -0.246094 1.324219 -0.214844 1.347656 -0.183594 1.375 C -0.15625 1.398438 -0.125 1.421875 -0.0976562 1.441406 C -0.0664062 1.460938 -0.03125 1.46875 0.0078125 1.46875 C 0.15625 1.46875 0.3125 1.375 0.476562 1.183594 C 0.640625 0.996094 0.792969 0.757812 0.933594 0.472656 C 1.03125 0.273438 1.097656 0.0507812 1.128906 -0.1875 C 1.160156 -0.429688 1.175781 -0.695312 1.175781 -0.984375 C 1.175781 -1.300781 1.152344 -1.550781 1.109375 -1.738281 C 1.0625 -1.925781 1.011719 -2.0625 0.957031 -2.144531 C 0.898438 -2.226562 0.847656 -2.269531 0.804688 -2.269531 C 0.761719 -2.269531 0.714844 -2.242188 0.667969 -2.195312 C 0.617188 -2.144531 0.574219 -2.089844 0.535156 -2.027344 C 0.492188 -1.960938 0.464844 -1.902344 0.449219 -1.851562 C 0.445312 -1.832031 0.429688 -1.796875 0.402344 -1.746094 C 0.375 -1.695312 0.351562 -1.667969 0.324219 -1.667969 C 0.308594 -1.667969 0.296875 -1.6875 0.285156 -1.722656 C 0.273438 -1.757812 0.269531 -1.800781 0.269531 -1.847656 C 0.269531 -1.945312 0.289062 -2.039062 0.328125 -2.132812 C 0.371094 -2.226562 0.421875 -2.3125 0.488281 -2.390625 C 0.554688 -2.464844 0.625 -2.527344 0.703125 -2.574219 C 0.78125 -2.621094 0.855469 -2.644531 0.925781 -2.644531 C 1.027344 -2.644531 1.113281 -2.609375 1.183594 -2.535156 C 1.253906 -2.464844 1.3125 -2.359375 1.355469 -2.222656 C 1.414062 -2.039062 1.46875 -1.8125 1.515625 -1.542969 C 1.5625 -1.273438 1.574219 -0.925781 1.550781 -0.5 C 1.546875 -0.421875 1.554688 -0.386719 1.574219 -0.390625 C 1.59375 -0.394531 1.617188 -0.425781 1.648438 -0.480469 C 1.789062 -0.746094 1.914062 -1.058594 2.027344 -1.414062 C 2.140625 -1.765625 2.199219 -2.15625 2.199219 -2.582031 C 2.199219 -2.601562 2.214844 -2.628906 2.246094 -2.65625 C 2.277344 -2.6875 2.300781 -2.703125 2.320312 -2.703125 C 2.335938 -2.703125 2.363281 -2.691406 2.394531 -2.667969 C 2.429688 -2.644531 2.460938 -2.609375 2.488281 -2.570312 C 2.515625 -2.527344 2.53125 -2.480469 2.53125 -2.429688 C 2.53125 -2.164062 2.464844 -1.851562 2.332031 -1.496094 C 2.199219 -1.136719 2.015625 -0.757812 1.777344 -0.359375 C 1.539062 0.0429688 1.261719 0.4375 0.945312 0.832031 C 0.796875 1.015625 0.644531 1.183594 0.492188 1.339844 C 0.339844 1.496094 0.191406 1.617188 0.046875 1.710938 C -0.09375 1.804688 -0.226562 1.851562 -0.34375 1.851562 Z "/>
</g>
<g id="glyph-0-3">
<path d="M 0.167969 0.0898438 C 0.0742188 0.0898438 -0.0078125 0.0625 -0.078125 0.0078125 C -0.144531 -0.0429688 -0.179688 -0.109375 -0.179688 -0.191406 C -0.179688 -0.289062 -0.15625 -0.363281 -0.113281 -0.414062 C -0.0664062 -0.460938 -0.03125 -0.484375 0 -0.484375 C 0.03125 -0.484375 0.0625 -0.472656 0.09375 -0.449219 C 0.125 -0.425781 0.160156 -0.398438 0.199219 -0.363281 C 0.246094 -0.328125 0.296875 -0.296875 0.355469 -0.265625 C 0.414062 -0.234375 0.488281 -0.21875 0.582031 -0.21875 C 0.695312 -0.21875 0.789062 -0.257812 0.855469 -0.34375 C 0.925781 -0.425781 0.960938 -0.511719 0.964844 -0.605469 C 0.964844 -0.699219 0.949219 -0.800781 0.917969 -0.910156 C 0.886719 -1.019531 0.839844 -1.125 0.78125 -1.234375 C 0.726562 -1.335938 0.679688 -1.433594 0.640625 -1.523438 C 0.605469 -1.617188 0.585938 -1.691406 0.585938 -1.757812 C 0.585938 -1.882812 0.621094 -1.996094 0.6875 -2.105469 C 0.753906 -2.214844 0.832031 -2.308594 0.929688 -2.390625 C 1.027344 -2.472656 1.121094 -2.535156 1.214844 -2.578125 C 1.308594 -2.621094 1.382812 -2.644531 1.4375 -2.644531 C 1.492188 -2.644531 1.546875 -2.628906 1.605469 -2.597656 C 1.660156 -2.566406 1.703125 -2.527344 1.742188 -2.488281 C 1.777344 -2.449219 1.796875 -2.414062 1.796875 -2.382812 C 1.796875 -2.359375 1.78125 -2.328125 1.757812 -2.289062 C 1.730469 -2.253906 1.703125 -2.222656 1.667969 -2.191406 C 1.632812 -2.160156 1.605469 -2.148438 1.578125 -2.148438 C 1.558594 -2.148438 1.535156 -2.15625 1.515625 -2.179688 C 1.492188 -2.199219 1.46875 -2.222656 1.445312 -2.25 C 1.417969 -2.273438 1.386719 -2.296875 1.351562 -2.320312 C 1.316406 -2.339844 1.265625 -2.351562 1.207031 -2.351562 C 1.140625 -2.351562 1.078125 -2.324219 1.027344 -2.265625 C 0.976562 -2.207031 0.953125 -2.132812 0.953125 -2.039062 C 0.953125 -2.003906 0.964844 -1.949219 0.988281 -1.878906 C 1.011719 -1.804688 1.039062 -1.730469 1.070312 -1.65625 C 1.101562 -1.578125 1.132812 -1.511719 1.164062 -1.449219 C 1.210938 -1.363281 1.253906 -1.257812 1.292969 -1.128906 C 1.335938 -1 1.355469 -0.882812 1.355469 -0.785156 C 1.355469 -0.65625 1.316406 -0.539062 1.242188 -0.433594 C 1.167969 -0.328125 1.070312 -0.234375 0.953125 -0.15625 C 0.832031 -0.078125 0.703125 -0.015625 0.566406 0.0273438 C 0.425781 0.0703125 0.292969 0.0898438 0.167969 0.0898438 Z "/>
</g>
<g id="glyph-0-4">
<path d="M 0.421875 0.0898438 C 0.347656 0.0898438 0.289062 0.0664062 0.242188 0.0195312 C 0.195312 -0.0273438 0.171875 -0.078125 0.171875 -0.128906 C 0.171875 -0.144531 0.171875 -0.160156 0.175781 -0.179688 C 0.179688 -0.195312 0.183594 -0.214844 0.191406 -0.230469 C 0.367188 -0.582031 0.511719 -0.917969 0.632812 -1.230469 C 0.75 -1.542969 0.859375 -1.816406 0.953125 -2.050781 C 0.96875 -2.101562 0.957031 -2.128906 0.921875 -2.128906 C 0.898438 -2.128906 0.855469 -2.117188 0.796875 -2.09375 C 0.734375 -2.070312 0.667969 -2.039062 0.601562 -2 C 0.53125 -1.960938 0.472656 -1.921875 0.421875 -1.886719 C 0.402344 -1.867188 0.378906 -1.863281 0.359375 -1.871094 C 0.335938 -1.878906 0.324219 -1.894531 0.324219 -1.917969 C 0.324219 -1.9375 0.34375 -1.96875 0.375 -2.007812 C 0.40625 -2.050781 0.449219 -2.097656 0.507812 -2.148438 C 0.566406 -2.199219 0.632812 -2.253906 0.714844 -2.308594 C 0.796875 -2.367188 0.886719 -2.425781 0.980469 -2.480469 C 1.078125 -2.539062 1.179688 -2.59375 1.285156 -2.640625 C 1.324219 -2.65625 1.359375 -2.652344 1.398438 -2.625 C 1.4375 -2.601562 1.46875 -2.570312 1.492188 -2.53125 C 1.515625 -2.492188 1.523438 -2.460938 1.515625 -2.441406 L 0.734375 -0.59375 C 0.71875 -0.558594 0.707031 -0.527344 0.699219 -0.496094 C 0.691406 -0.464844 0.691406 -0.433594 0.691406 -0.410156 C 0.691406 -0.378906 0.703125 -0.359375 0.726562 -0.347656 C 0.75 -0.335938 0.769531 -0.332031 0.792969 -0.332031 C 0.851562 -0.332031 0.921875 -0.359375 0.996094 -0.417969 C 1.074219 -0.476562 1.15625 -0.546875 1.242188 -0.628906 C 1.328125 -0.710938 1.414062 -0.792969 1.496094 -0.875 C 1.503906 -0.882812 1.511719 -0.886719 1.519531 -0.886719 C 1.527344 -0.886719 1.539062 -0.886719 1.546875 -0.878906 C 1.554688 -0.871094 1.558594 -0.863281 1.558594 -0.855469 C 1.558594 -0.789062 1.519531 -0.703125 1.4375 -0.597656 C 1.355469 -0.492188 1.253906 -0.390625 1.132812 -0.285156 C 1.011719 -0.179688 0.886719 -0.0898438 0.761719 -0.0195312 C 0.632812 0.0546875 0.519531 0.0898438 0.421875 0.0898438 Z M 1.710938 -3.277344 C 1.648438 -3.277344 1.59375 -3.304688 1.550781 -3.355469 C 1.507812 -3.40625 1.488281 -3.464844 1.488281 -3.527344 C 1.488281 -3.628906 1.523438 -3.71875 1.589844 -3.796875 C 1.660156 -3.875 1.746094 -3.917969 1.847656 -3.917969 C 1.914062 -3.917969 1.96875 -3.886719 2.007812 -3.832031 C 2.046875 -3.773438 2.0625 -3.710938 2.0625 -3.640625 C 2.0625 -3.546875 2.03125 -3.464844 1.960938 -3.390625 C 1.894531 -3.316406 1.808594 -3.277344 1.710938 -3.277344 Z "/>
</g>
<g id="glyph-0-5">
<path d="M 0.632812 0.0976562 C 0.554688 0.0976562 0.476562 0.0664062 0.394531 0.0078125 C 0.308594 -0.046875 0.238281 -0.125 0.183594 -0.226562 C 0.125 -0.328125 0.0976562 -0.441406 0.0976562 -0.574219 C 0.101562 -0.726562 0.125 -0.898438 0.171875 -1.082031 C 0.21875 -1.269531 0.289062 -1.453125 0.378906 -1.636719 C 0.46875 -1.820312 0.578125 -1.988281 0.710938 -2.140625 C 0.847656 -2.292969 1 -2.417969 1.175781 -2.507812 C 1.351562 -2.597656 1.546875 -2.644531 1.761719 -2.644531 C 1.878906 -2.644531 1.964844 -2.625 2.027344 -2.585938 C 2.085938 -2.542969 2.113281 -2.496094 2.113281 -2.441406 C 2.113281 -2.371094 2.09375 -2.304688 2.054688 -2.234375 C 2.015625 -2.164062 1.96875 -2.128906 1.921875 -2.128906 C 1.890625 -2.128906 1.859375 -2.144531 1.835938 -2.171875 C 1.8125 -2.203125 1.792969 -2.238281 1.769531 -2.28125 C 1.746094 -2.328125 1.710938 -2.371094 1.675781 -2.410156 C 1.636719 -2.453125 1.582031 -2.472656 1.507812 -2.472656 C 1.40625 -2.472656 1.300781 -2.410156 1.1875 -2.289062 C 1.078125 -2.164062 0.972656 -2.007812 0.878906 -1.816406 C 0.78125 -1.625 0.703125 -1.421875 0.644531 -1.207031 C 0.585938 -0.996094 0.554688 -0.800781 0.554688 -0.625 C 0.554688 -0.484375 0.582031 -0.390625 0.640625 -0.339844 C 0.695312 -0.289062 0.769531 -0.261719 0.863281 -0.261719 C 1 -0.261719 1.109375 -0.289062 1.1875 -0.34375 C 1.269531 -0.394531 1.351562 -0.460938 1.429688 -0.535156 C 1.460938 -0.566406 1.484375 -0.585938 1.5 -0.601562 C 1.515625 -0.613281 1.535156 -0.621094 1.558594 -0.621094 C 1.59375 -0.621094 1.609375 -0.59375 1.609375 -0.535156 C 1.609375 -0.503906 1.582031 -0.453125 1.53125 -0.382812 C 1.476562 -0.316406 1.40625 -0.242188 1.3125 -0.167969 C 1.222656 -0.09375 1.117188 -0.03125 1 0.0195312 C 0.882812 0.0703125 0.761719 0.0976562 0.632812 0.0976562 Z "/>
</g>
<g id="glyph-0-6">
<path d="M 0.289062 0.0898438 C 0.238281 0.0898438 0.183594 0.0742188 0.132812 0.046875 C 0.0820312 0.0195312 0.0429688 -0.015625 0.0078125 -0.0585938 C -0.0234375 -0.101562 -0.0390625 -0.144531 -0.0390625 -0.191406 C -0.0390625 -0.34375 0.0117188 -0.523438 0.113281 -0.726562 C 0.214844 -0.929688 0.359375 -1.140625 0.542969 -1.363281 C 0.726562 -1.585938 0.9375 -1.804688 1.175781 -2.011719 C 1.40625 -2.210938 1.59375 -2.363281 1.738281 -2.464844 C 1.882812 -2.5625 1.988281 -2.613281 2.058594 -2.613281 C 2.125 -2.613281 2.183594 -2.582031 2.238281 -2.523438 C 2.296875 -2.445312 2.324219 -2.410156 2.316406 -2.417969 C 2.308594 -2.425781 2.308594 -2.429688 2.3125 -2.429688 C 2.320312 -2.429688 2.328125 -2.429688 2.335938 -2.4375 C 2.34375 -2.445312 2.347656 -2.453125 2.351562 -2.464844 C 2.410156 -2.566406 2.445312 -2.628906 2.460938 -2.652344 C 2.472656 -2.671875 2.472656 -2.675781 2.460938 -2.65625 C 2.484375 -2.699219 2.511719 -2.722656 2.535156 -2.722656 C 2.574219 -2.722656 2.613281 -2.714844 2.652344 -2.703125 C 2.691406 -2.691406 2.722656 -2.671875 2.746094 -2.652344 C 2.769531 -2.628906 2.78125 -2.609375 2.78125 -2.585938 C 2.78125 -2.566406 2.765625 -2.511719 2.734375 -2.429688 L 2.019531 -0.53125 C 1.964844 -0.386719 1.992188 -0.3125 2.101562 -0.3125 C 2.179688 -0.3125 2.273438 -0.351562 2.378906 -0.425781 C 2.488281 -0.5 2.582031 -0.589844 2.664062 -0.695312 C 2.671875 -0.703125 2.683594 -0.710938 2.691406 -0.71875 C 2.703125 -0.726562 2.714844 -0.726562 2.722656 -0.726562 C 2.738281 -0.726562 2.75 -0.722656 2.757812 -0.710938 C 2.765625 -0.703125 2.765625 -0.683594 2.765625 -0.65625 C 2.765625 -0.628906 2.738281 -0.570312 2.675781 -0.480469 C 2.617188 -0.394531 2.554688 -0.320312 2.492188 -0.253906 C 2.371094 -0.144531 2.253906 -0.0585938 2.132812 0 C 2.011719 0.0585938 1.898438 0.0898438 1.796875 0.0898438 C 1.753906 0.0898438 1.710938 0.078125 1.667969 0.0507812 C 1.625 0.0273438 1.589844 -0.0078125 1.5625 -0.0429688 C 1.535156 -0.0820312 1.519531 -0.121094 1.519531 -0.160156 C 1.519531 -0.207031 1.535156 -0.253906 1.558594 -0.308594 C 1.542969 -0.269531 1.539062 -0.269531 1.554688 -0.308594 C 1.570312 -0.34375 1.597656 -0.40625 1.632812 -0.484375 C 1.667969 -0.566406 1.707031 -0.652344 1.75 -0.742188 C 1.792969 -0.832031 1.828125 -0.910156 1.859375 -0.976562 C 1.878906 -1.023438 1.890625 -1.058594 1.886719 -1.082031 C 1.886719 -1.105469 1.871094 -1.101562 1.847656 -1.074219 C 1.585938 -0.785156 1.363281 -0.554688 1.179688 -0.382812 C 0.992188 -0.210938 0.832031 -0.0898438 0.691406 -0.0195312 C 0.550781 0.0546875 0.414062 0.0898438 0.289062 0.0898438 Z M 0.644531 -0.3125 C 0.738281 -0.3125 0.878906 -0.390625 1.0625 -0.546875 C 1.25 -0.703125 1.457031 -0.917969 1.691406 -1.195312 C 1.855469 -1.382812 1.984375 -1.554688 2.078125 -1.710938 C 2.171875 -1.871094 2.21875 -1.988281 2.21875 -2.0625 C 2.21875 -2.097656 2.191406 -2.136719 2.132812 -2.183594 C 2.109375 -2.207031 2.082031 -2.222656 2.050781 -2.238281 C 2.019531 -2.25 1.996094 -2.253906 1.972656 -2.253906 C 1.898438 -2.253906 1.792969 -2.21875 1.65625 -2.140625 C 1.523438 -2.0625 1.402344 -1.972656 1.289062 -1.867188 C 1.148438 -1.730469 1.015625 -1.574219 0.886719 -1.40625 C 0.761719 -1.234375 0.65625 -1.070312 0.578125 -0.914062 C 0.5 -0.757812 0.460938 -0.628906 0.460938 -0.53125 C 0.460938 -0.464844 0.476562 -0.414062 0.511719 -0.375 C 0.546875 -0.332031 0.589844 -0.3125 0.644531 -0.3125 Z "/>
</g>
<g id="glyph-0-7">
<path d="M 0.359375 0.0898438 C 0.304688 0.0898438 0.242188 0.0585938 0.171875 0 C 0.105469 -0.0585938 0.0703125 -0.125 0.0703125 -0.191406 C 0.0703125 -0.21875 0.0742188 -0.242188 0.0820312 -0.269531 L 1.296875 -3.726562 C 1.316406 -3.785156 1.335938 -3.84375 1.34375 -3.898438 C 1.355469 -3.953125 1.359375 -4.007812 1.359375 -4.0625 C 1.359375 -4.101562 1.339844 -4.136719 1.300781 -4.171875 C 1.261719 -4.207031 1.210938 -4.230469 1.148438 -4.242188 C 1.105469 -4.25 1.074219 -4.261719 1.046875 -4.277344 C 1.023438 -4.292969 1.007812 -4.308594 1.007812 -4.324219 C 1.007812 -4.339844 1.011719 -4.347656 1.011719 -4.359375 C 1.015625 -4.367188 1.019531 -4.375 1.027344 -4.382812 C 1.03125 -4.390625 1.039062 -4.394531 1.046875 -4.394531 C 1.128906 -4.417969 1.226562 -4.4375 1.34375 -4.457031 C 1.457031 -4.476562 1.5625 -4.492188 1.664062 -4.507812 C 1.765625 -4.523438 1.832031 -4.53125 1.867188 -4.53125 C 1.886719 -4.53125 1.90625 -4.523438 1.921875 -4.507812 C 1.9375 -4.492188 1.941406 -4.46875 1.941406 -4.433594 C 1.941406 -4.410156 1.9375 -4.378906 1.929688 -4.347656 C 1.921875 -4.316406 1.914062 -4.285156 1.902344 -4.253906 L 0.613281 -0.574219 C 0.601562 -0.539062 0.59375 -0.507812 0.585938 -0.476562 C 0.582031 -0.445312 0.582031 -0.414062 0.582031 -0.390625 C 0.582031 -0.320312 0.601562 -0.289062 0.644531 -0.289062 C 0.703125 -0.289062 0.777344 -0.320312 0.867188 -0.386719 C 0.953125 -0.453125 1.039062 -0.53125 1.125 -0.625 C 1.210938 -0.71875 1.277344 -0.804688 1.328125 -0.875 C 1.355469 -0.910156 1.382812 -0.941406 1.417969 -0.972656 C 1.453125 -1.003906 1.476562 -1.023438 1.496094 -1.023438 C 1.511719 -1.023438 1.523438 -1.015625 1.523438 -1 C 1.527344 -0.984375 1.527344 -0.964844 1.527344 -0.9375 C 1.527344 -0.851562 1.5 -0.765625 1.441406 -0.671875 C 1.382812 -0.578125 1.308594 -0.484375 1.214844 -0.394531 C 1.121094 -0.300781 1.019531 -0.21875 0.914062 -0.148438 C 0.808594 -0.0742188 0.703125 -0.015625 0.605469 0.0273438 C 0.507812 0.0703125 0.425781 0.0898438 0.359375 0.0898438 Z "/>
</g>
<g id="glyph-0-8">
<rect x="0" y="0" width="0" height="0" mask="url(#mask-0)"/>
</g>
<g id="glyph-0-9">
<path d="M 0.703125 1.828125 C 0.683594 1.832031 0.65625 1.828125 0.621094 1.820312 C 0.589844 1.8125 0.574219 1.796875 0.574219 1.769531 C 0.574219 1.734375 0.597656 1.707031 0.640625 1.683594 C 0.6875 1.660156 0.726562 1.644531 0.765625 1.640625 C 0.855469 1.628906 0.9375 1.597656 1.011719 1.546875 C 1.085938 1.496094 1.140625 1.429688 1.167969 1.347656 C 1.253906 1.117188 1.339844 0.890625 1.425781 0.664062 C 1.511719 0.4375 1.597656 0.210938 1.683594 -0.015625 C 1.769531 -0.242188 1.855469 -0.472656 1.941406 -0.703125 C 1.964844 -0.75 1.964844 -0.785156 1.945312 -0.816406 C 1.925781 -0.84375 1.890625 -0.828125 1.839844 -0.765625 C 1.683594 -0.589844 1.527344 -0.441406 1.375 -0.308594 C 1.222656 -0.179688 1.066406 -0.0820312 0.914062 -0.0117188 C 0.761719 0.0546875 0.605469 0.0898438 0.453125 0.0898438 C 0.316406 0.0898438 0.207031 0.0507812 0.128906 -0.0234375 C 0.046875 -0.0976562 0.0078125 -0.191406 0.0078125 -0.300781 C 0.0078125 -0.480469 0.0507812 -0.675781 0.132812 -0.886719 C 0.21875 -1.101562 0.332031 -1.3125 0.476562 -1.527344 C 0.617188 -1.738281 0.773438 -1.9375 0.945312 -2.113281 C 1.113281 -2.289062 1.296875 -2.429688 1.496094 -2.53125 C 1.695312 -2.632812 1.875 -2.683594 2.03125 -2.683594 C 2.128906 -2.683594 2.207031 -2.667969 2.265625 -2.632812 C 2.324219 -2.597656 2.367188 -2.558594 2.394531 -2.515625 C 2.429688 -2.484375 2.457031 -2.453125 2.472656 -2.421875 C 2.488281 -2.390625 2.507812 -2.375 2.53125 -2.375 C 2.578125 -2.375 2.617188 -2.410156 2.652344 -2.480469 L 2.710938 -2.601562 C 2.730469 -2.652344 2.757812 -2.6875 2.789062 -2.707031 C 2.820312 -2.726562 2.851562 -2.734375 2.882812 -2.734375 C 2.90625 -2.734375 2.925781 -2.714844 2.933594 -2.675781 C 2.941406 -2.632812 2.929688 -2.574219 2.902344 -2.492188 L 1.65625 1.273438 C 1.625 1.363281 1.625 1.429688 1.65625 1.480469 C 1.683594 1.53125 1.738281 1.5625 1.820312 1.570312 C 1.863281 1.574219 1.90625 1.585938 1.949219 1.597656 C 1.992188 1.609375 2.011719 1.632812 2.011719 1.667969 C 2.011719 1.691406 1.992188 1.710938 1.957031 1.722656 C 1.917969 1.734375 1.875 1.738281 1.828125 1.738281 C 1.6875 1.738281 1.539062 1.742188 1.390625 1.753906 C 1.238281 1.765625 1.101562 1.777344 0.976562 1.789062 C 0.855469 1.800781 0.761719 1.816406 0.703125 1.828125 Z M 0.613281 -0.140625 C 0.699219 -0.140625 0.796875 -0.171875 0.914062 -0.238281 C 1.027344 -0.304688 1.148438 -0.390625 1.269531 -0.496094 C 1.390625 -0.601562 1.503906 -0.714844 1.609375 -0.839844 C 1.714844 -0.964844 1.804688 -1.085938 1.871094 -1.203125 C 1.964844 -1.363281 2.046875 -1.527344 2.117188 -1.699219 C 2.1875 -1.871094 2.222656 -2.019531 2.222656 -2.152344 C 2.222656 -2.207031 2.214844 -2.261719 2.195312 -2.308594 C 2.175781 -2.359375 2.148438 -2.398438 2.113281 -2.429688 C 2.074219 -2.457031 2.03125 -2.472656 1.972656 -2.472656 C 1.894531 -2.472656 1.789062 -2.425781 1.664062 -2.328125 C 1.539062 -2.234375 1.40625 -2.109375 1.265625 -1.953125 C 1.125 -1.796875 0.992188 -1.625 0.867188 -1.441406 C 0.746094 -1.253906 0.644531 -1.070312 0.570312 -0.886719 C 0.492188 -0.703125 0.453125 -0.539062 0.453125 -0.390625 C 0.453125 -0.304688 0.464844 -0.242188 0.488281 -0.203125 C 0.511719 -0.160156 0.554688 -0.140625 0.613281 -0.140625 Z "/>
</g>
<g id="glyph-0-10">
<path d="M 0.429688 0.0898438 C 0.382812 0.0898438 0.332031 0.0703125 0.285156 0.0273438 C 0.234375 -0.0117188 0.199219 -0.0585938 0.171875 -0.113281 C 0.148438 -0.167969 0.140625 -0.214844 0.152344 -0.25 L 0.824219 -1.867188 C 0.855469 -1.9375 0.875 -2 0.882812 -2.050781 C 0.890625 -2.101562 0.878906 -2.128906 0.84375 -2.128906 C 0.820312 -2.128906 0.785156 -2.109375 0.738281 -2.078125 C 0.6875 -2.042969 0.632812 -2 0.570312 -1.949219 C 0.507812 -1.898438 0.449219 -1.84375 0.382812 -1.789062 C 0.375 -1.78125 0.359375 -1.777344 0.335938 -1.78125 C 0.3125 -1.785156 0.300781 -1.796875 0.300781 -1.808594 C 0.300781 -1.824219 0.304688 -1.851562 0.3125 -1.882812 C 0.320312 -1.914062 0.34375 -1.953125 0.378906 -2 C 0.484375 -2.144531 0.601562 -2.265625 0.730469 -2.363281 C 0.859375 -2.460938 0.984375 -2.539062 1.101562 -2.589844 C 1.21875 -2.644531 1.308594 -2.671875 1.367188 -2.671875 C 1.386719 -2.671875 1.414062 -2.660156 1.441406 -2.636719 C 1.46875 -2.613281 1.492188 -2.585938 1.507812 -2.550781 C 1.523438 -2.519531 1.523438 -2.488281 1.507812 -2.460938 C 1.367188 -2.171875 1.234375 -1.875 1.105469 -1.578125 C 0.976562 -1.28125 0.851562 -0.984375 0.722656 -0.695312 C 0.683594 -0.609375 0.660156 -0.53125 0.652344 -0.460938 C 0.644531 -0.386719 0.660156 -0.351562 0.703125 -0.351562 C 0.746094 -0.351562 0.808594 -0.386719 0.894531 -0.460938 C 0.980469 -0.53125 1.078125 -0.625 1.183594 -0.742188 C 1.292969 -0.855469 1.40625 -0.980469 1.527344 -1.113281 C 1.6875 -1.296875 1.84375 -1.484375 1.996094 -1.679688 C 2.148438 -1.875 2.277344 -2.054688 2.390625 -2.210938 C 2.5 -2.367188 2.574219 -2.480469 2.605469 -2.542969 C 2.628906 -2.585938 2.652344 -2.613281 2.683594 -2.625 C 2.714844 -2.636719 2.742188 -2.644531 2.765625 -2.644531 C 2.792969 -2.644531 2.816406 -2.632812 2.84375 -2.605469 C 2.867188 -2.582031 2.890625 -2.550781 2.902344 -2.515625 C 2.917969 -2.484375 2.921875 -2.453125 2.90625 -2.429688 L 2.089844 -0.550781 C 2.054688 -0.46875 2.039062 -0.40625 2.042969 -0.363281 C 2.046875 -0.320312 2.070312 -0.300781 2.109375 -0.300781 C 2.164062 -0.300781 2.238281 -0.332031 2.324219 -0.390625 C 2.414062 -0.449219 2.507812 -0.519531 2.601562 -0.597656 C 2.695312 -0.675781 2.773438 -0.746094 2.835938 -0.8125 C 2.839844 -0.816406 2.847656 -0.816406 2.855469 -0.816406 C 2.867188 -0.816406 2.882812 -0.8125 2.894531 -0.800781 C 2.90625 -0.789062 2.914062 -0.777344 2.914062 -0.761719 C 2.914062 -0.753906 2.910156 -0.742188 2.90625 -0.734375 C 2.902344 -0.726562 2.898438 -0.714844 2.890625 -0.703125 C 2.882812 -0.691406 2.875 -0.675781 2.867188 -0.65625 C 2.855469 -0.640625 2.84375 -0.621094 2.828125 -0.605469 C 2.8125 -0.585938 2.792969 -0.5625 2.773438 -0.535156 C 2.691406 -0.433594 2.597656 -0.335938 2.492188 -0.238281 C 2.386719 -0.144531 2.273438 -0.0664062 2.148438 -0.00390625 C 2.027344 0.0585938 1.898438 0.0898438 1.761719 0.0898438 C 1.707031 0.0898438 1.65625 0.0546875 1.613281 -0.0195312 C 1.570312 -0.0898438 1.558594 -0.15625 1.585938 -0.210938 C 1.644531 -0.339844 1.707031 -0.476562 1.777344 -0.621094 C 1.84375 -0.765625 1.90625 -0.898438 1.957031 -1.023438 C 2.011719 -1.144531 2.050781 -1.238281 2.070312 -1.296875 C 2.089844 -1.347656 2.089844 -1.375 2.0625 -1.378906 C 2.039062 -1.382812 2.015625 -1.375 1.992188 -1.347656 C 1.773438 -1.105469 1.574219 -0.894531 1.40625 -0.710938 C 1.234375 -0.53125 1.085938 -0.382812 0.960938 -0.265625 C 0.835938 -0.148438 0.730469 -0.0585938 0.640625 0 C 0.554688 0.0585938 0.484375 0.0898438 0.429688 0.0898438 Z "/>
</g>
<g id="glyph-0-11">
<path d="M 0.867188 0.0507812 C 0.703125 0.0507812 0.570312 0.00390625 0.472656 -0.09375 C 0.375 -0.1875 0.324219 -0.316406 0.324219 -0.472656 C 0.324219 -0.578125 0.339844 -0.699219 0.363281 -0.832031 C 0.390625 -0.96875 0.425781 -1.105469 0.472656 -1.246094 L 1.277344 -3.679688 C 1.300781 -3.738281 1.316406 -3.796875 1.324219 -3.855469 C 1.335938 -3.914062 1.34375 -3.96875 1.34375 -4.027344 C 1.34375 -4.046875 1.332031 -4.066406 1.308594 -4.082031 C 1.285156 -4.101562 1.242188 -4.117188 1.183594 -4.132812 C 1.050781 -4.167969 0.984375 -4.199219 0.984375 -4.230469 C 0.984375 -4.25 0.992188 -4.269531 1.007812 -4.28125 C 1.023438 -4.292969 1.046875 -4.304688 1.085938 -4.320312 C 1.132812 -4.335938 1.195312 -4.355469 1.269531 -4.378906 C 1.34375 -4.402344 1.417969 -4.425781 1.496094 -4.445312 C 1.570312 -4.46875 1.640625 -4.484375 1.703125 -4.5 C 1.765625 -4.511719 1.804688 -4.515625 1.820312 -4.515625 C 1.890625 -4.515625 1.921875 -4.496094 1.921875 -4.453125 C 1.921875 -4.414062 1.921875 -4.382812 1.914062 -4.355469 C 1.90625 -4.328125 1.894531 -4.289062 1.878906 -4.242188 C 1.84375 -4.15625 1.796875 -4.03125 1.738281 -3.863281 C 1.679688 -3.695312 1.613281 -3.507812 1.542969 -3.300781 C 1.472656 -3.09375 1.402344 -2.886719 1.328125 -2.675781 C 1.257812 -2.464844 1.191406 -2.265625 1.128906 -2.082031 C 1.066406 -1.898438 1.019531 -1.753906 0.984375 -1.640625 C 0.96875 -1.597656 0.96875 -1.574219 0.988281 -1.566406 C 1.007812 -1.558594 1.03125 -1.570312 1.0625 -1.609375 C 1.3125 -1.941406 1.550781 -2.199219 1.777344 -2.375 C 2.003906 -2.554688 2.195312 -2.644531 2.351562 -2.644531 C 2.488281 -2.644531 2.601562 -2.601562 2.691406 -2.511719 C 2.78125 -2.421875 2.824219 -2.308594 2.824219 -2.171875 C 2.824219 -1.976562 2.785156 -1.773438 2.707031 -1.570312 C 2.628906 -1.363281 2.519531 -1.160156 2.386719 -0.96875 C 2.253906 -0.773438 2.101562 -0.601562 1.929688 -0.449219 C 1.757812 -0.292969 1.582031 -0.171875 1.402344 -0.0820312 C 1.222656 0.0078125 1.042969 0.0507812 0.867188 0.0507812 Z M 1.035156 -0.152344 C 1.089844 -0.152344 1.164062 -0.183594 1.253906 -0.242188 C 1.34375 -0.300781 1.4375 -0.382812 1.542969 -0.488281 C 1.648438 -0.59375 1.75 -0.710938 1.847656 -0.84375 C 1.949219 -0.980469 2.042969 -1.128906 2.128906 -1.292969 C 2.214844 -1.457031 2.28125 -1.617188 2.328125 -1.765625 C 2.378906 -1.917969 2.402344 -2.042969 2.402344 -2.148438 C 2.402344 -2.21875 2.382812 -2.28125 2.347656 -2.328125 C 2.3125 -2.378906 2.269531 -2.402344 2.21875 -2.402344 C 2.085938 -2.402344 1.933594 -2.328125 1.761719 -2.179688 C 1.59375 -2.03125 1.394531 -1.800781 1.167969 -1.496094 C 1.027344 -1.300781 0.914062 -1.117188 0.832031 -0.953125 C 0.746094 -0.785156 0.703125 -0.664062 0.703125 -0.582031 C 0.703125 -0.464844 0.734375 -0.367188 0.800781 -0.28125 C 0.867188 -0.195312 0.945312 -0.152344 1.035156 -0.152344 Z "/>
</g>
<g id="glyph-0-12">
<path d="M 0.410156 0.0898438 C 0.375 0.0898438 0.335938 0.0742188 0.292969 0.046875 C 0.25 0.0195312 0.214844 -0.0117188 0.1875 -0.046875 C 0.160156 -0.0820312 0.148438 -0.117188 0.148438 -0.148438 C 0.148438 -0.21875 0.15625 -0.28125 0.175781 -0.332031 C 0.195312 -0.382812 0.214844 -0.441406 0.238281 -0.503906 L 0.84375 -2.210938 C 0.851562 -2.242188 0.847656 -2.261719 0.832031 -2.273438 C 0.816406 -2.28125 0.800781 -2.289062 0.78125 -2.289062 L 0.523438 -2.300781 C 0.46875 -2.304688 0.4375 -2.316406 0.425781 -2.335938 C 0.414062 -2.355469 0.410156 -2.371094 0.410156 -2.390625 C 0.410156 -2.398438 0.417969 -2.414062 0.441406 -2.4375 C 0.460938 -2.460938 0.488281 -2.484375 0.519531 -2.507812 C 0.550781 -2.53125 0.585938 -2.542969 0.625 -2.542969 L 0.855469 -2.542969 C 0.902344 -2.542969 0.933594 -2.550781 0.953125 -2.566406 C 0.96875 -2.582031 0.988281 -2.609375 1.007812 -2.65625 L 1.164062 -2.972656 C 1.179688 -3.003906 1.210938 -3.042969 1.257812 -3.089844 C 1.304688 -3.132812 1.355469 -3.171875 1.402344 -3.207031 C 1.453125 -3.242188 1.488281 -3.257812 1.507812 -3.257812 C 1.542969 -3.257812 1.5625 -3.234375 1.570312 -3.1875 C 1.578125 -3.140625 1.574219 -3.097656 1.558594 -3.054688 L 1.394531 -2.625 C 1.386719 -2.597656 1.386719 -2.578125 1.402344 -2.570312 C 1.417969 -2.5625 1.441406 -2.554688 1.476562 -2.554688 C 1.5625 -2.554688 1.648438 -2.550781 1.738281 -2.535156 C 1.828125 -2.523438 1.898438 -2.511719 1.957031 -2.503906 C 2.023438 -2.492188 2.066406 -2.476562 2.078125 -2.464844 C 2.09375 -2.449219 2.101562 -2.429688 2.101562 -2.410156 C 2.101562 -2.402344 2.09375 -2.386719 2.078125 -2.367188 C 2.058594 -2.347656 2.027344 -2.335938 1.980469 -2.332031 C 1.886719 -2.328125 1.796875 -2.324219 1.710938 -2.316406 C 1.625 -2.308594 1.539062 -2.304688 1.445312 -2.300781 C 1.375 -2.296875 1.328125 -2.285156 1.300781 -2.269531 C 1.273438 -2.25 1.253906 -2.230469 1.246094 -2.203125 L 0.675781 -0.632812 C 0.660156 -0.582031 0.652344 -0.535156 0.652344 -0.5 C 0.652344 -0.460938 0.664062 -0.429688 0.6875 -0.410156 C 0.710938 -0.386719 0.746094 -0.378906 0.792969 -0.378906 C 0.851562 -0.378906 0.914062 -0.398438 0.984375 -0.441406 C 1.050781 -0.484375 1.117188 -0.53125 1.183594 -0.585938 C 1.246094 -0.644531 1.300781 -0.691406 1.34375 -0.734375 C 1.390625 -0.78125 1.429688 -0.804688 1.464844 -0.796875 C 1.496094 -0.792969 1.515625 -0.78125 1.515625 -0.753906 C 1.515625 -0.722656 1.503906 -0.691406 1.480469 -0.65625 C 1.460938 -0.621094 1.433594 -0.582031 1.398438 -0.542969 C 1.332031 -0.46875 1.261719 -0.402344 1.183594 -0.339844 C 1.109375 -0.273438 1.035156 -0.214844 0.957031 -0.164062 C 0.878906 -0.109375 0.800781 -0.0664062 0.730469 -0.0273438 C 0.660156 0.0078125 0.597656 0.0351562 0.542969 0.0585938 C 0.488281 0.078125 0.441406 0.0898438 0.410156 0.0898438 Z "/>
</g>
<g id="glyph-0-13">
<path d="M 0.371094 -1.183594 C 0.347656 -1.183594 0.332031 -1.191406 0.324219 -1.207031 C 0.3125 -1.222656 0.308594 -1.242188 0.3125 -1.257812 C 0.320312 -1.28125 0.335938 -1.3125 0.355469 -1.355469 C 0.375 -1.398438 0.398438 -1.4375 0.429688 -1.472656 C 0.460938 -1.507812 0.5 -1.527344 0.535156 -1.527344 L 5.367188 -1.527344 C 5.386719 -1.527344 5.40625 -1.515625 5.417969 -1.5 C 5.429688 -1.480469 5.429688 -1.457031 5.417969 -1.4375 C 5.382812 -1.378906 5.347656 -1.320312 5.304688 -1.265625 C 5.265625 -1.210938 5.214844 -1.183594 5.15625 -1.183594 Z "/>
</g>
<g id="glyph-0-14">
<path d="M 0.480469 0.109375 C 0.457031 0.109375 0.4375 0.0976562 0.421875 0.078125 C 0.40625 0.0546875 0.390625 0.03125 0.378906 0 C 0.367188 -0.03125 0.363281 -0.0585938 0.363281 -0.0820312 C 0.363281 -0.105469 0.378906 -0.15625 0.40625 -0.238281 C 0.433594 -0.316406 0.46875 -0.417969 0.511719 -0.535156 L 1.097656 -2.078125 C 1.121094 -2.132812 1.121094 -2.179688 1.097656 -2.21875 C 1.078125 -2.257812 1.042969 -2.273438 0.992188 -2.273438 C 0.925781 -2.273438 0.859375 -2.261719 0.789062 -2.230469 C 0.71875 -2.199219 0.632812 -2.117188 0.53125 -1.980469 C 0.511719 -1.964844 0.496094 -1.957031 0.476562 -1.957031 C 0.457031 -1.960938 0.441406 -1.976562 0.433594 -2.007812 C 0.433594 -2.03125 0.4375 -2.066406 0.449219 -2.105469 C 0.457031 -2.144531 0.46875 -2.1875 0.488281 -2.230469 C 0.507812 -2.273438 0.527344 -2.304688 0.542969 -2.324219 C 0.617188 -2.414062 0.703125 -2.488281 0.804688 -2.550781 C 0.90625 -2.609375 1.03125 -2.640625 1.175781 -2.644531 C 1.234375 -2.644531 1.292969 -2.636719 1.351562 -2.617188 C 1.410156 -2.597656 1.453125 -2.5625 1.480469 -2.511719 C 1.507812 -2.460938 1.503906 -2.390625 1.46875 -2.300781 L 1.105469 -1.355469 C 1.09375 -1.324219 1.097656 -1.308594 1.113281 -1.304688 C 1.132812 -1.300781 1.148438 -1.308594 1.164062 -1.328125 C 1.347656 -1.609375 1.523438 -1.847656 1.691406 -2.042969 C 1.859375 -2.238281 2.019531 -2.390625 2.175781 -2.492188 C 2.332031 -2.59375 2.476562 -2.644531 2.613281 -2.644531 C 2.695312 -2.644531 2.769531 -2.621094 2.832031 -2.574219 C 2.898438 -2.527344 2.945312 -2.457031 2.96875 -2.367188 C 2.992188 -2.277344 2.980469 -2.160156 2.933594 -2.027344 L 2.703125 -1.355469 C 2.691406 -1.324219 2.691406 -1.308594 2.710938 -1.304688 C 2.730469 -1.300781 2.746094 -1.308594 2.761719 -1.328125 C 2.941406 -1.621094 3.113281 -1.867188 3.289062 -2.0625 C 3.460938 -2.253906 3.628906 -2.398438 3.789062 -2.5 C 3.949219 -2.597656 4.101562 -2.644531 4.238281 -2.644531 C 4.316406 -2.644531 4.390625 -2.621094 4.453125 -2.570312 C 4.515625 -2.519531 4.558594 -2.441406 4.578125 -2.34375 C 4.597656 -2.242188 4.578125 -2.117188 4.515625 -1.96875 L 3.96875 -0.550781 C 3.90625 -0.398438 3.914062 -0.320312 4 -0.320312 C 4.050781 -0.320312 4.113281 -0.34375 4.183594 -0.390625 C 4.257812 -0.4375 4.332031 -0.492188 4.40625 -0.554688 C 4.480469 -0.621094 4.546875 -0.679688 4.601562 -0.730469 C 4.65625 -0.785156 4.691406 -0.820312 4.710938 -0.835938 C 4.714844 -0.839844 4.714844 -0.84375 4.71875 -0.84375 C 4.722656 -0.84375 4.722656 -0.84375 4.726562 -0.84375 C 4.742188 -0.84375 4.753906 -0.839844 4.761719 -0.828125 C 4.773438 -0.816406 4.78125 -0.804688 4.78125 -0.785156 C 4.78125 -0.75 4.773438 -0.714844 4.757812 -0.679688 C 4.742188 -0.644531 4.710938 -0.601562 4.664062 -0.554688 C 4.523438 -0.398438 4.367188 -0.25 4.191406 -0.113281 C 4.015625 0.0234375 3.828125 0.0898438 3.628906 0.0898438 C 3.59375 0.0898438 3.558594 0.0742188 3.523438 0.046875 C 3.488281 0.0195312 3.460938 -0.015625 3.441406 -0.0625 C 3.421875 -0.109375 3.421875 -0.15625 3.4375 -0.203125 L 4.179688 -2.113281 C 4.214844 -2.199219 4.210938 -2.265625 4.175781 -2.308594 C 4.140625 -2.351562 4.097656 -2.371094 4.050781 -2.375 C 3.984375 -2.378906 3.890625 -2.347656 3.777344 -2.273438 C 3.660156 -2.199219 3.535156 -2.074219 3.394531 -1.898438 C 3.328125 -1.816406 3.242188 -1.695312 3.128906 -1.535156 C 3.015625 -1.371094 2.898438 -1.199219 2.78125 -1.011719 C 2.664062 -0.828125 2.5625 -0.65625 2.480469 -0.5 C 2.40625 -0.363281 2.339844 -0.25 2.273438 -0.160156 C 2.210938 -0.0703125 2.152344 -0.00390625 2.101562 0.0429688 C 2.050781 0.0859375 2.007812 0.109375 1.972656 0.109375 C 1.953125 0.109375 1.933594 0.0976562 1.917969 0.078125 C 1.898438 0.0585938 1.886719 0.0390625 1.875 0.0117188 C 1.863281 -0.0117188 1.859375 -0.0390625 1.859375 -0.0625 C 1.859375 -0.0859375 1.875 -0.140625 1.902344 -0.226562 C 1.929688 -0.3125 1.964844 -0.417969 2.007812 -0.535156 L 2.601562 -2.132812 C 2.640625 -2.230469 2.632812 -2.300781 2.585938 -2.335938 C 2.539062 -2.371094 2.503906 -2.390625 2.472656 -2.394531 C 2.40625 -2.402344 2.3125 -2.371094 2.199219 -2.289062 C 2.082031 -2.210938 1.957031 -2.085938 1.816406 -1.910156 C 1.765625 -1.851562 1.699219 -1.765625 1.621094 -1.65625 C 1.546875 -1.542969 1.464844 -1.421875 1.378906 -1.289062 C 1.289062 -1.152344 1.203125 -1.015625 1.121094 -0.878906 C 1.039062 -0.742188 0.964844 -0.613281 0.902344 -0.5 C 0.789062 -0.292969 0.703125 -0.140625 0.644531 -0.0429688 C 0.585938 0.0585938 0.53125 0.109375 0.480469 0.109375 Z "/>
</g>
<g id="glyph-0-15">
<path d="M 0.675781 0.0976562 C 0.585938 0.0976562 0.496094 0.0625 0.40625 -0.0078125 C 0.3125 -0.0742188 0.238281 -0.160156 0.179688 -0.265625 C 0.121094 -0.371094 0.0898438 -0.472656 0.0898438 -0.570312 C 0.0898438 -0.78125 0.132812 -1.007812 0.21875 -1.25 C 0.308594 -1.488281 0.429688 -1.714844 0.582031 -1.925781 C 0.734375 -2.136719 0.914062 -2.308594 1.113281 -2.445312 C 1.316406 -2.578125 1.53125 -2.644531 1.757812 -2.644531 C 1.90625 -2.644531 2.023438 -2.613281 2.105469 -2.550781 C 2.1875 -2.492188 2.230469 -2.40625 2.230469 -2.292969 C 2.230469 -2.160156 2.1875 -2.046875 2.105469 -1.949219 C 2.023438 -1.851562 1.910156 -1.765625 1.769531 -1.695312 C 1.628906 -1.625 1.472656 -1.566406 1.300781 -1.519531 C 1.128906 -1.472656 0.953125 -1.433594 0.773438 -1.398438 C 0.746094 -1.394531 0.726562 -1.390625 0.710938 -1.382812 C 0.695312 -1.375 0.6875 -1.359375 0.675781 -1.335938 C 0.648438 -1.242188 0.617188 -1.140625 0.585938 -1.027344 C 0.558594 -0.917969 0.542969 -0.8125 0.542969 -0.714844 C 0.542969 -0.566406 0.570312 -0.453125 0.628906 -0.371094 C 0.6875 -0.289062 0.769531 -0.25 0.882812 -0.25 C 1.035156 -0.25 1.164062 -0.289062 1.273438 -0.363281 C 1.378906 -0.441406 1.464844 -0.515625 1.535156 -0.59375 C 1.578125 -0.640625 1.613281 -0.664062 1.648438 -0.664062 C 1.691406 -0.664062 1.710938 -0.644531 1.710938 -0.601562 C 1.710938 -0.597656 1.710938 -0.589844 1.710938 -0.578125 C 1.710938 -0.566406 1.707031 -0.558594 1.699219 -0.550781 C 1.613281 -0.410156 1.519531 -0.289062 1.414062 -0.195312 C 1.304688 -0.0976562 1.191406 -0.0273438 1.070312 0.0234375 C 0.949219 0.0703125 0.816406 0.0976562 0.675781 0.0976562 Z M 0.816406 -1.546875 C 0.863281 -1.546875 0.945312 -1.558594 1.058594 -1.585938 C 1.171875 -1.613281 1.289062 -1.660156 1.414062 -1.722656 C 1.535156 -1.785156 1.640625 -1.859375 1.726562 -1.953125 C 1.816406 -2.042969 1.859375 -2.152344 1.859375 -2.28125 C 1.859375 -2.335938 1.84375 -2.382812 1.816406 -2.425781 C 1.785156 -2.464844 1.742188 -2.484375 1.6875 -2.484375 C 1.597656 -2.484375 1.5 -2.449219 1.394531 -2.375 C 1.292969 -2.300781 1.191406 -2.210938 1.097656 -2.105469 C 1.003906 -2 0.925781 -1.898438 0.867188 -1.800781 C 0.804688 -1.703125 0.773438 -1.632812 0.773438 -1.585938 C 0.773438 -1.558594 0.789062 -1.546875 0.816406 -1.546875 Z "/>
</g>
<g id="glyph-0-16">
<path d="M -0.203125 0.824219 C -0.234375 0.824219 -0.261719 0.824219 -0.285156 0.820312 C -0.308594 0.820312 -0.320312 0.808594 -0.320312 0.785156 C -0.320312 0.765625 -0.304688 0.746094 -0.273438 0.734375 C -0.246094 0.722656 -0.207031 0.703125 -0.160156 0.675781 C -0.0351562 0.609375 0.0703125 0.535156 0.15625 0.460938 C 0.242188 0.382812 0.308594 0.300781 0.355469 0.21875 C 0.398438 0.132812 0.421875 0.046875 0.421875 -0.0390625 C 0.421875 -0.109375 0.398438 -0.164062 0.355469 -0.199219 C 0.308594 -0.234375 0.265625 -0.261719 0.21875 -0.28125 C 0.171875 -0.308594 0.125 -0.335938 0.0859375 -0.367188 C 0.046875 -0.398438 0.0273438 -0.449219 0.0273438 -0.511719 C 0.0273438 -0.582031 0.0625 -0.644531 0.136719 -0.691406 C 0.210938 -0.742188 0.292969 -0.765625 0.378906 -0.765625 C 0.492188 -0.765625 0.589844 -0.730469 0.675781 -0.65625 C 0.757812 -0.582031 0.796875 -0.46875 0.796875 -0.320312 C 0.796875 -0.164062 0.765625 -0.0117188 0.699219 0.128906 C 0.632812 0.269531 0.546875 0.390625 0.445312 0.492188 C 0.339844 0.59375 0.230469 0.675781 0.113281 0.734375 C 0 0.792969 -0.105469 0.824219 -0.203125 0.824219 Z "/>
</g>
<g id="glyph-0-17">
<path d="M 0.449219 0.0898438 C 0.324219 0.0898438 0.222656 0.046875 0.148438 -0.0390625 C 0.0703125 -0.125 0.03125 -0.234375 0.03125 -0.371094 C 0.03125 -0.53125 0.0664062 -0.714844 0.136719 -0.914062 C 0.207031 -1.113281 0.304688 -1.316406 0.425781 -1.519531 C 0.546875 -1.726562 0.683594 -1.914062 0.835938 -2.089844 C 1.003906 -2.277344 1.171875 -2.421875 1.34375 -2.527344 C 1.511719 -2.632812 1.664062 -2.683594 1.800781 -2.683594 C 1.855469 -2.683594 1.902344 -2.675781 1.9375 -2.660156 C 1.96875 -2.644531 2.046875 -2.601562 2.167969 -2.523438 C 2.257812 -2.46875 2.304688 -2.4375 2.316406 -2.429688 C 2.328125 -2.425781 2.328125 -2.421875 2.320312 -2.421875 C 2.332031 -2.421875 2.34375 -2.4375 2.351562 -2.464844 L 2.78125 -3.902344 C 2.789062 -3.929688 2.792969 -3.949219 2.796875 -3.964844 C 2.796875 -3.980469 2.800781 -3.992188 2.800781 -3.996094 C 2.804688 -4.003906 2.804688 -4.007812 2.804688 -4.015625 C 2.804688 -4.023438 2.804688 -4.027344 2.804688 -4.03125 C 2.804688 -4.078125 2.792969 -4.117188 2.765625 -4.144531 C 2.742188 -4.171875 2.695312 -4.199219 2.625 -4.222656 C 2.53125 -4.257812 2.476562 -4.277344 2.460938 -4.285156 C 2.441406 -4.289062 2.433594 -4.300781 2.433594 -4.3125 C 2.433594 -4.34375 2.453125 -4.367188 2.484375 -4.382812 C 2.519531 -4.398438 2.574219 -4.414062 2.652344 -4.429688 C 2.714844 -4.4375 2.78125 -4.445312 2.847656 -4.457031 C 2.914062 -4.46875 2.972656 -4.476562 3.027344 -4.480469 C 3.082031 -4.488281 3.132812 -4.492188 3.167969 -4.5 C 3.207031 -4.503906 3.234375 -4.503906 3.246094 -4.503906 C 3.296875 -4.503906 3.324219 -4.476562 3.324219 -4.414062 C 3.324219 -4.394531 3.320312 -4.371094 3.316406 -4.347656 C 3.3125 -4.324219 3.304688 -4.296875 3.296875 -4.269531 L 2.261719 -0.683594 C 2.253906 -0.648438 2.246094 -0.617188 2.238281 -0.585938 C 2.234375 -0.554688 2.230469 -0.519531 2.230469 -0.484375 C 2.230469 -0.390625 2.261719 -0.34375 2.320312 -0.34375 C 2.375 -0.34375 2.441406 -0.367188 2.515625 -0.40625 C 2.59375 -0.445312 2.671875 -0.5 2.746094 -0.570312 C 2.824219 -0.636719 2.890625 -0.710938 2.945312 -0.785156 C 2.953125 -0.796875 2.960938 -0.808594 2.972656 -0.8125 C 2.980469 -0.816406 2.988281 -0.816406 2.996094 -0.816406 C 3.03125 -0.816406 3.042969 -0.800781 3.035156 -0.765625 C 3.035156 -0.71875 3.011719 -0.660156 2.964844 -0.585938 C 2.917969 -0.515625 2.855469 -0.441406 2.78125 -0.359375 C 2.703125 -0.28125 2.621094 -0.207031 2.535156 -0.140625 C 2.445312 -0.0742188 2.363281 -0.015625 2.28125 0.0273438 C 2.199219 0.0703125 2.132812 0.0898438 2.078125 0.0898438 C 2.03125 0.0898438 1.984375 0.0742188 1.941406 0.046875 C 1.898438 0.0195312 1.863281 -0.015625 1.835938 -0.0625 C 1.808594 -0.105469 1.796875 -0.152344 1.796875 -0.199219 C 1.796875 -0.21875 1.804688 -0.273438 1.820312 -0.363281 C 1.828125 -0.410156 1.84375 -0.46875 1.859375 -0.539062 C 1.875 -0.609375 1.890625 -0.679688 1.90625 -0.746094 C 1.921875 -0.8125 1.933594 -0.859375 1.9375 -0.886719 C 1.945312 -0.917969 1.945312 -0.914062 1.9375 -0.875 C 1.945312 -0.910156 1.945312 -0.933594 1.933594 -0.949219 C 1.921875 -0.964844 1.910156 -0.960938 1.898438 -0.9375 C 1.605469 -0.566406 1.347656 -0.304688 1.125 -0.148438 C 0.902344 0.0117188 0.675781 0.0898438 0.449219 0.0898438 Z M 0.683594 -0.210938 C 0.796875 -0.210938 0.925781 -0.253906 1.0625 -0.335938 C 1.199219 -0.417969 1.332031 -0.527344 1.464844 -0.667969 C 1.601562 -0.804688 1.722656 -0.957031 1.835938 -1.125 C 1.949219 -1.289062 2.039062 -1.457031 2.109375 -1.621094 C 2.175781 -1.789062 2.210938 -1.941406 2.210938 -2.082031 C 2.210938 -2.207031 2.183594 -2.304688 2.128906 -2.375 C 2.074219 -2.445312 1.992188 -2.480469 1.890625 -2.480469 C 1.792969 -2.480469 1.683594 -2.433594 1.558594 -2.339844 C 1.433594 -2.246094 1.308594 -2.121094 1.183594 -1.96875 C 1.054688 -1.816406 0.9375 -1.648438 0.828125 -1.464844 C 0.71875 -1.285156 0.632812 -1.105469 0.566406 -0.925781 C 0.5 -0.746094 0.464844 -0.589844 0.464844 -0.453125 C 0.464844 -0.359375 0.480469 -0.296875 0.515625 -0.261719 C 0.546875 -0.226562 0.601562 -0.210938 0.683594 -0.210938 Z "/>
</g>
<g id="glyph-0-18">
<path d="M 0.8125 1.851562 C 0.664062 1.851562 0.535156 1.828125 0.429688 1.78125 C 0.320312 1.734375 0.242188 1.671875 0.183594 1.59375 C 0.128906 1.515625 0.101562 1.433594 0.101562 1.347656 L 0.332031 1.046875 C 0.417969 1.242188 0.511719 1.382812 0.617188 1.464844 C 0.722656 1.542969 0.855469 1.585938 1.015625 1.585938 C 1.257812 1.585938 1.464844 1.503906 1.632812 1.34375 C 1.800781 1.179688 1.941406 0.914062 2.050781 0.550781 L 3.0625 -3.042969 C 3.160156 -3.390625 3.292969 -3.671875 3.460938 -3.886719 C 3.628906 -4.101562 3.804688 -4.261719 3.988281 -4.359375 C 4.171875 -4.460938 4.335938 -4.511719 4.484375 -4.511719 C 4.671875 -4.511719 4.820312 -4.46875 4.925781 -4.386719 C 5.03125 -4.304688 5.085938 -4.195312 5.085938 -4.0625 C 5.085938 -3.957031 5.058594 -3.875 5 -3.820312 C 4.941406 -3.765625 4.882812 -3.738281 4.824219 -3.738281 C 4.792969 -3.738281 4.765625 -3.761719 4.742188 -3.8125 C 4.714844 -3.859375 4.6875 -3.917969 4.652344 -3.988281 C 4.613281 -4.074219 4.5625 -4.136719 4.503906 -4.183594 C 4.445312 -4.226562 4.367188 -4.25 4.273438 -4.25 C 4.15625 -4.25 4.054688 -4.214844 3.96875 -4.144531 C 3.882812 -4.074219 3.804688 -3.960938 3.734375 -3.8125 C 3.664062 -3.660156 3.589844 -3.460938 3.515625 -3.214844 C 3.488281 -3.132812 3.464844 -3.054688 3.445312 -2.980469 C 3.425781 -2.90625 3.40625 -2.828125 3.378906 -2.742188 C 3.371094 -2.710938 3.363281 -2.6875 3.359375 -2.671875 C 3.351562 -2.652344 3.347656 -2.632812 3.347656 -2.613281 C 3.347656 -2.59375 3.355469 -2.578125 3.367188 -2.570312 C 3.378906 -2.5625 3.394531 -2.554688 3.410156 -2.554688 C 3.539062 -2.554688 3.664062 -2.558594 3.78125 -2.566406 C 3.898438 -2.570312 4.007812 -2.574219 4.113281 -2.574219 C 4.144531 -2.574219 4.160156 -2.550781 4.160156 -2.503906 C 4.160156 -2.488281 4.152344 -2.464844 4.136719 -2.433594 C 4.121094 -2.40625 4.101562 -2.378906 4.074219 -2.355469 C 4.046875 -2.332031 4.011719 -2.320312 3.972656 -2.320312 L 3.394531 -2.3125 C 3.351562 -2.3125 3.316406 -2.304688 3.289062 -2.289062 C 3.261719 -2.273438 3.242188 -2.25 3.234375 -2.210938 L 2.535156 0.210938 C 2.425781 0.609375 2.273438 0.933594 2.078125 1.171875 C 1.882812 1.414062 1.671875 1.585938 1.445312 1.691406 C 1.222656 1.800781 1.011719 1.851562 0.8125 1.851562 Z M -0.710938 1.851562 C -0.867188 1.851562 -0.996094 1.828125 -1.09375 1.773438 C -1.191406 1.71875 -1.238281 1.640625 -1.238281 1.535156 C -1.238281 1.46875 -1.207031 1.410156 -1.148438 1.351562 C -1.085938 1.292969 -1.03125 1.265625 -0.992188 1.265625 C -0.957031 1.265625 -0.925781 1.285156 -0.894531 1.320312 C -0.863281 1.355469 -0.828125 1.398438 -0.785156 1.445312 C -0.746094 1.488281 -0.703125 1.523438 -0.648438 1.550781 C -0.59375 1.582031 -0.53125 1.597656 -0.453125 1.597656 C -0.371094 1.597656 -0.300781 1.574219 -0.242188 1.527344 C -0.183594 1.480469 -0.125 1.394531 -0.0664062 1.273438 C -0.0078125 1.148438 0.0546875 0.96875 0.121094 0.734375 L 0.976562 -2.167969 C 1.003906 -2.242188 0.972656 -2.28125 0.886719 -2.28125 L 0.492188 -2.273438 C 0.460938 -2.273438 0.441406 -2.28125 0.429688 -2.296875 C 0.414062 -2.3125 0.410156 -2.332031 0.410156 -2.351562 C 0.410156 -2.386719 0.421875 -2.421875 0.449219 -2.457031 C 0.472656 -2.492188 0.5 -2.511719 0.53125 -2.515625 L 0.976562 -2.542969 C 1.007812 -2.546875 1.03125 -2.5625 1.054688 -2.585938 C 1.074219 -2.609375 1.089844 -2.636719 1.097656 -2.671875 L 1.125 -2.765625 C 1.214844 -3.070312 1.328125 -3.324219 1.46875 -3.535156 C 1.609375 -3.746094 1.761719 -3.917969 1.925781 -4.042969 C 2.089844 -4.171875 2.253906 -4.265625 2.414062 -4.324219 C 2.578125 -4.378906 2.722656 -4.410156 2.855469 -4.410156 C 3.003906 -4.410156 3.132812 -4.386719 3.238281 -4.339844 C 3.34375 -4.292969 3.425781 -4.230469 3.480469 -4.152344 C 3.535156 -4.078125 3.566406 -3.992188 3.566406 -3.902344 L 3.335938 -3.605469 C 3.253906 -3.800781 3.160156 -3.9375 3.054688 -4.019531 C 2.949219 -4.101562 2.8125 -4.140625 2.652344 -4.140625 C 2.410156 -4.140625 2.203125 -4.058594 2.035156 -3.898438 C 1.867188 -3.734375 1.726562 -3.472656 1.617188 -3.105469 C 1.566406 -2.933594 1.53125 -2.816406 1.511719 -2.753906 C 1.492188 -2.691406 1.480469 -2.652344 1.480469 -2.644531 C 1.476562 -2.636719 1.476562 -2.625 1.476562 -2.613281 C 1.476562 -2.59375 1.480469 -2.578125 1.496094 -2.570312 C 1.507812 -2.5625 1.523438 -2.554688 1.539062 -2.554688 L 3.144531 -2.574219 C 3.171875 -2.574219 3.1875 -2.550781 3.1875 -2.503906 C 3.1875 -2.488281 3.179688 -2.464844 3.167969 -2.433594 C 3.152344 -2.40625 3.128906 -2.378906 3.101562 -2.355469 C 3.074219 -2.332031 3.042969 -2.320312 3.003906 -2.320312 L 1.519531 -2.3125 C 1.476562 -2.3125 1.441406 -2.304688 1.414062 -2.289062 C 1.386719 -2.273438 1.371094 -2.25 1.359375 -2.210938 L 0.53125 0.703125 C 0.488281 0.875 0.417969 1.027344 0.316406 1.167969 C 0.214844 1.308594 0.101562 1.429688 -0.0234375 1.535156 C -0.148438 1.636719 -0.273438 1.714844 -0.394531 1.769531 C -0.515625 1.824219 -0.621094 1.851562 -0.710938 1.851562 Z "/>
</g>
<g id="glyph-0-19">
<path d="M 0.382812 0.109375 C 0.363281 0.109375 0.339844 0.101562 0.3125 0.0859375 C 0.289062 0.0703125 0.265625 0.0507812 0.25 0.0273438 C 0.234375 0.00390625 0.222656 -0.0195312 0.222656 -0.0429688 C 0.222656 -0.09375 0.238281 -0.160156 0.265625 -0.238281 C 0.292969 -0.316406 0.328125 -0.417969 0.371094 -0.535156 L 0.957031 -2.070312 C 0.980469 -2.125 0.988281 -2.175781 0.988281 -2.222656 C 0.984375 -2.269531 0.960938 -2.292969 0.921875 -2.292969 C 0.859375 -2.292969 0.800781 -2.285156 0.746094 -2.273438 C 0.6875 -2.257812 0.644531 -2.242188 0.613281 -2.222656 C 0.585938 -2.207031 0.5625 -2.203125 0.539062 -2.214844 C 0.515625 -2.226562 0.503906 -2.246094 0.503906 -2.273438 C 0.503906 -2.308594 0.519531 -2.347656 0.550781 -2.390625 C 0.585938 -2.433594 0.628906 -2.472656 0.683594 -2.511719 C 0.734375 -2.550781 0.796875 -2.582031 0.867188 -2.605469 C 0.9375 -2.632812 1.007812 -2.644531 1.085938 -2.644531 C 1.207031 -2.644531 1.28125 -2.617188 1.3125 -2.554688 C 1.34375 -2.496094 1.347656 -2.417969 1.324219 -2.316406 C 1.300781 -2.214844 1.265625 -2.101562 1.214844 -1.972656 L 0.925781 -1.253906 C 0.910156 -1.222656 0.914062 -1.203125 0.941406 -1.195312 C 0.96875 -1.1875 0.992188 -1.191406 1.003906 -1.214844 C 1.171875 -1.507812 1.34375 -1.765625 1.515625 -1.984375 C 1.6875 -2.203125 1.851562 -2.375 2 -2.496094 C 2.148438 -2.617188 2.273438 -2.675781 2.371094 -2.675781 C 2.480469 -2.675781 2.558594 -2.644531 2.605469 -2.582031 C 2.648438 -2.519531 2.671875 -2.441406 2.671875 -2.359375 C 2.671875 -2.28125 2.65625 -2.203125 2.628906 -2.121094 C 2.601562 -2.039062 2.5625 -1.972656 2.515625 -1.921875 C 2.464844 -1.867188 2.410156 -1.839844 2.351562 -1.839844 C 2.316406 -1.839844 2.292969 -1.859375 2.273438 -1.902344 C 2.257812 -1.941406 2.25 -1.996094 2.25 -2.0625 C 2.25 -2.128906 2.242188 -2.179688 2.222656 -2.214844 C 2.207031 -2.25 2.175781 -2.269531 2.128906 -2.269531 C 2.085938 -2.269531 2.027344 -2.242188 1.957031 -2.183594 C 1.886719 -2.128906 1.800781 -2.035156 1.691406 -1.898438 C 1.644531 -1.835938 1.585938 -1.746094 1.507812 -1.636719 C 1.429688 -1.523438 1.347656 -1.402344 1.261719 -1.269531 C 1.175781 -1.132812 1.089844 -0.996094 1.003906 -0.859375 C 0.917969 -0.722656 0.84375 -0.59375 0.78125 -0.480469 C 0.664062 -0.273438 0.582031 -0.125 0.535156 -0.03125 C 0.484375 0.0625 0.433594 0.109375 0.382812 0.109375 Z "/>
</g>
<g id="glyph-0-20">
<path d="M 0.402344 0.101562 C 0.375 0.101562 0.351562 0.09375 0.328125 0.0742188 C 0.304688 0.0546875 0.285156 0.03125 0.269531 0.00390625 C 0.25 -0.0234375 0.238281 -0.0546875 0.234375 -0.0898438 C 0.226562 -0.125 0.230469 -0.152344 0.242188 -0.179688 L 0.984375 -1.992188 C 1.0625 -2.179688 1.066406 -2.273438 0.996094 -2.273438 C 0.953125 -2.273438 0.910156 -2.269531 0.863281 -2.257812 C 0.816406 -2.246094 0.765625 -2.222656 0.710938 -2.179688 C 0.65625 -2.136719 0.59375 -2.070312 0.523438 -1.980469 C 0.507812 -1.964844 0.488281 -1.957031 0.46875 -1.957031 C 0.449219 -1.960938 0.4375 -1.976562 0.429688 -2.007812 C 0.429688 -2.03125 0.4375 -2.066406 0.449219 -2.105469 C 0.464844 -2.144531 0.484375 -2.1875 0.503906 -2.226562 C 0.527344 -2.265625 0.546875 -2.300781 0.5625 -2.324219 C 0.625 -2.421875 0.710938 -2.5 0.820312 -2.554688 C 0.929688 -2.609375 1.054688 -2.640625 1.203125 -2.644531 C 1.25 -2.644531 1.289062 -2.632812 1.328125 -2.609375 C 1.367188 -2.585938 1.394531 -2.554688 1.414062 -2.511719 C 1.433594 -2.46875 1.433594 -2.421875 1.414062 -2.371094 L 0.992188 -1.285156 C 0.976562 -1.253906 0.980469 -1.238281 1 -1.234375 C 1.019531 -1.230469 1.035156 -1.238281 1.046875 -1.257812 C 1.222656 -1.554688 1.402344 -1.808594 1.582031 -2.015625 C 1.761719 -2.222656 1.9375 -2.378906 2.101562 -2.484375 C 2.269531 -2.589844 2.414062 -2.644531 2.542969 -2.644531 C 2.632812 -2.644531 2.710938 -2.613281 2.777344 -2.550781 C 2.84375 -2.492188 2.886719 -2.40625 2.902344 -2.304688 C 2.921875 -2.199219 2.902344 -2.078125 2.84375 -1.941406 L 2.253906 -0.550781 C 2.191406 -0.398438 2.203125 -0.320312 2.289062 -0.320312 C 2.339844 -0.320312 2.402344 -0.339844 2.476562 -0.378906 C 2.550781 -0.414062 2.625 -0.460938 2.703125 -0.515625 C 2.78125 -0.566406 2.847656 -0.617188 2.902344 -0.660156 C 2.960938 -0.707031 3 -0.738281 3.015625 -0.753906 C 3.019531 -0.757812 3.023438 -0.761719 3.027344 -0.761719 C 3.027344 -0.761719 3.03125 -0.761719 3.035156 -0.761719 C 3.046875 -0.761719 3.058594 -0.753906 3.070312 -0.746094 C 3.082031 -0.734375 3.085938 -0.71875 3.085938 -0.703125 C 3.085938 -0.667969 3.078125 -0.640625 3.0625 -0.613281 C 2.949219 -0.480469 2.832031 -0.363281 2.707031 -0.253906 C 2.582031 -0.148438 2.449219 -0.0664062 2.316406 -0.00390625 C 2.183594 0.0585938 2.046875 0.0898438 1.910156 0.0898438 C 1.871094 0.0898438 1.832031 0.0742188 1.796875 0.046875 C 1.757812 0.0195312 1.726562 -0.015625 1.710938 -0.0585938 C 1.691406 -0.101562 1.691406 -0.144531 1.710938 -0.191406 C 1.835938 -0.476562 1.960938 -0.761719 2.085938 -1.042969 C 2.210938 -1.328125 2.332031 -1.613281 2.441406 -1.898438 C 2.507812 -2.074219 2.53125 -2.195312 2.511719 -2.265625 C 2.488281 -2.335938 2.449219 -2.371094 2.390625 -2.375 C 2.34375 -2.378906 2.289062 -2.367188 2.222656 -2.328125 C 2.160156 -2.292969 2.085938 -2.238281 2.007812 -2.164062 C 1.925781 -2.089844 1.839844 -1.992188 1.746094 -1.878906 C 1.695312 -1.820312 1.625 -1.726562 1.539062 -1.601562 C 1.453125 -1.476562 1.359375 -1.332031 1.253906 -1.167969 C 1.144531 -1.003906 1.035156 -0.828125 0.921875 -0.640625 C 0.808594 -0.457031 0.703125 -0.273438 0.601562 -0.0976562 C 0.5625 -0.0273438 0.527344 0.0234375 0.5 0.0546875 C 0.46875 0.0859375 0.4375 0.101562 0.402344 0.101562 Z "/>
</g>
</g>
<image id="source-13" x="0" y="0" width="0" height="0"/>
<mask id="mask-0">
<use xlink:href="#source-13"/>
</mask>
</defs>
<g fill="rgb(18.431373%, 16.470588%, 14.901961%)" fill-opacity="1">
<use xlink:href="#glyph-0-0" x="30" y="26.43457"/>
<use xlink:href="#glyph-0-1" x="33" y="26.43457"/>
<use xlink:href="#glyph-0-2" x="36" y="26.43457"/>
<use xlink:href="#glyph-0-3" x="39" y="26.43457"/>
<use xlink:href="#glyph-0-4" x="41" y="26.43457"/>
<use xlink:href="#glyph-0-5" x="43" y="26.43457"/>
<use xlink:href="#glyph-0-6" x="45" y="26.43457"/>
<use xlink:href="#glyph-0-7" x="48" y="26.43457"/>
<use xlink:href="#glyph-0-8" x="50" y="26.43457"/>
<use xlink:href="#glyph-0-9" x="51" y="26.43457"/>
<use xlink:href="#glyph-0-10" x="54" y="26.43457"/>
<use xlink:href="#glyph-0-11" x="57" y="26.43457"/>
<use xlink:href="#glyph-0-4" x="60" y="26.43457"/>
<use xlink:href="#glyph-0-12" x="62" y="26.43457"/>
<use xlink:href="#glyph-0-3" x="64" y="26.43457"/>
<use xlink:href="#glyph-0-8" x="66" y="26.43457"/>
<use xlink:href="#glyph-0-13" x="67" y="26.43457"/>
<use xlink:href="#glyph-0-8" x="73" y="26.43457"/>
<use xlink:href="#glyph-0-3" x="74" y="26.43457"/>
<use xlink:href="#glyph-0-6" x="76" y="26.43457"/>
<use xlink:href="#glyph-0-14" x="79" y="26.43457"/>
<use xlink:href="#glyph-0-15" x="84" y="26.43457"/>
<use xlink:href="#glyph-0-8" x="86" y="26.43457"/>
<use xlink:href="#glyph-0-14" x="87" y="26.43457"/>
<use xlink:href="#glyph-0-6" x="92" y="26.43457"/>
<use xlink:href="#glyph-0-12" x="95" y="26.43457"/>
<use xlink:href="#glyph-0-1" x="97" y="26.43457"/>
<use xlink:href="#glyph-0-16" x="100" y="26.43457"/>
<use xlink:href="#glyph-0-8" x="101" y="26.43457"/>
<use xlink:href="#glyph-0-17" x="102" y="26.43457"/>
<use xlink:href="#glyph-0-4" x="105" y="26.43457"/>
<use xlink:href="#glyph-0-18" x="107" y="26.43457"/>
<use xlink:href="#glyph-0-15" x="111" y="26.43457"/>
<use xlink:href="#glyph-0-19" x="113" y="26.43457"/>
<use xlink:href="#glyph-0-15" x="115" y="26.43457"/>
<use xlink:href="#glyph-0-20" x="117" y="26.43457"/>
<use xlink:href="#glyph-0-12" x="120" y="26.43457"/>
<use xlink:href="#glyph-0-8" x="122" y="26.43457"/>
<use xlink:href="#glyph-0-0" x="123" y="26.43457"/>
<use xlink:href="#glyph-0-1" x="126" y="26.43457"/>
<use xlink:href="#glyph-0-2" x="129" y="26.43457"/>
<use xlink:href="#glyph-0-3" x="132" y="26.43457"/>
<use xlink:href="#glyph-0-4" x="134" y="26.43457"/>
<use xlink:href="#glyph-0-5" x="136" y="26.43457"/>
<use xlink:href="#glyph-0-3" x="138" y="26.43457"/>
</g>
</svg>
