<?xml version="1.0" encoding="UTF-8"?>
<svg xmlns="http://www.w3.org/2000/svg" xmlns:xlink="http://www.w3.org/1999/xlink" width="1920" height="1080" viewBox="0 0 1920 1080">
<defs>
<g>
<g id="glyph-0-0">
<path d="M 0.0117188 0 L 1.609375 -3.5 L 1.976562 -3.5 L 3.574219 0 L 3.183594 0 L 1.714844 -3.285156 L 1.863281 -3.285156 L 0.394531 0 Z M 0.640625 -0.933594 L 0.75 -1.234375 L 2.785156 -1.234375 L 2.894531 -0.933594 Z "/>
</g>
<g id="glyph-0-1">
<rect x="0" y="0" width="0" height="0" mask="url(#mask-0)"/>
</g>
<g id="glyph-0-2">
<path d="M 1.539062 0.0234375 C 1.289062 0.0234375 1.066406 -0.03125 0.867188 -0.144531 C 0.667969 -0.257812 0.511719 -0.414062 0.398438 -0.613281 C 0.285156 -0.8125 0.230469 -1.046875 0.230469 -1.316406 C 0.230469 -1.578125 0.285156 -1.8125 0.398438 -2.011719 C 0.511719 -2.214844 0.667969 -2.371094 0.867188 -2.484375 C 1.066406 -2.59375 1.289062 -2.648438 1.539062 -2.648438 C 1.773438 -2.648438 1.980469 -2.597656 2.164062 -2.496094 C 2.34375 -2.390625 2.488281 -2.242188 2.59375 -2.042969 C 2.703125 -1.84375 2.753906 -1.601562 2.753906 -1.316406 C 2.753906 -1.027344 2.699219 -0.785156 2.59375 -0.585938 C 2.484375 -0.386719 2.339844 -0.238281 2.15625 -0.132812 C 1.976562 -0.0273438 1.769531 0.0234375 1.539062 0.0234375 Z M 1.566406 -0.289062 C 1.753906 -0.289062 1.917969 -0.332031 2.066406 -0.417969 C 2.214844 -0.503906 2.332031 -0.621094 2.417969 -0.777344 C 2.503906 -0.933594 2.546875 -1.113281 2.546875 -1.316406 C 2.546875 -1.519531 2.503906 -1.695312 2.417969 -1.851562 C 2.332031 -2.003906 2.214844 -2.125 2.066406 -2.210938 C 1.917969 -2.296875 1.75 -2.339844 1.566406 -2.339844 C 1.382812 -2.339844 1.214844 -2.296875 1.070312 -2.210938 C 0.921875 -2.125 0.808594 -2.003906 0.71875 -1.851562 C 0.632812 -1.695312 0.589844 -1.519531 0.589844 -1.316406 C 0.589844 -1.113281 0.632812 -0.933594 0.71875 -0.777344 C 0.804688 -0.621094 0.921875 -0.503906 1.070312 -0.417969 C 1.214844 -0.332031 1.382812 -0.289062 1.566406 -0.289062 Z M 2.539062 0.96875 L 2.539062 -0.78125 L 2.589844 -1.308594 L 2.554688 -1.835938 L 2.554688 -2.625 L 2.894531 -2.625 L 2.894531 0.96875 Z "/>
</g>
<g id="glyph-0-3">
<path d="M 1.578125 0.0234375 C 1.355469 0.0234375 1.160156 -0.015625 0.996094 -0.101562 C 0.828125 -0.183594 0.699219 -0.308594 0.609375 -0.476562 C 0.515625 -0.640625 0.46875 -0.851562 0.46875 -1.101562 L 0.46875 -2.625 L 0.824219 -2.625 L 0.824219 -1.140625 C 0.824219 -0.859375 0.894531 -0.648438 1.03125 -0.507812 C 1.171875 -0.367188 1.363281 -0.296875 1.613281 -0.296875 C 1.796875 -0.296875 1.957031 -0.332031 2.09375 -0.40625 C 2.226562 -0.480469 2.332031 -0.589844 2.402344 -0.734375 C 2.472656 -0.878906 2.511719 -1.050781 2.511719 -1.25 L 2.511719 -2.625 L 2.863281 -2.625 L 2.863281 0 L 2.523438 0 L 2.523438 -0.71875 L 2.578125 -0.589844 C 2.496094 -0.398438 2.367188 -0.246094 2.191406 -0.136719 C 2.015625 -0.0273438 1.8125 0.0234375 1.578125 0.0234375 Z "/>
</g>
<g id="glyph-0-4">
<path d="M 1.851562 0.0234375 C 1.621094 0.0234375 1.414062 -0.0273438 1.230469 -0.132812 C 1.046875 -0.238281 0.902344 -0.390625 0.796875 -0.589844 C 0.6875 -0.789062 0.636719 -1.03125 0.636719 -1.316406 C 0.636719 -1.601562 0.6875 -1.84375 0.796875 -2.042969 C 0.90625 -2.242188 1.050781 -2.390625 1.234375 -2.496094 C 1.417969 -2.597656 1.625 -2.648438 1.851562 -2.648438 C 2.101562 -2.648438 2.324219 -2.59375 2.523438 -2.484375 C 2.722656 -2.371094 2.875 -2.214844 2.988281 -2.015625 C 3.101562 -1.816406 3.160156 -1.582031 3.160156 -1.316406 C 3.160156 -1.050781 3.101562 -0.820312 2.988281 -0.617188 C 2.875 -0.414062 2.722656 -0.257812 2.523438 -0.144531 C 2.324219 -0.03125 2.101562 0.0234375 1.851562 0.0234375 Z M 0.496094 0 L 0.496094 -3.710938 L 0.851562 -3.710938 L 0.851562 -1.851562 L 0.800781 -1.320312 L 0.835938 -0.789062 L 0.835938 0 Z M 1.824219 -0.289062 C 2.011719 -0.289062 2.179688 -0.332031 2.324219 -0.417969 C 2.472656 -0.503906 2.589844 -0.621094 2.675781 -0.777344 C 2.761719 -0.933594 2.804688 -1.113281 2.804688 -1.316406 C 2.804688 -1.523438 2.761719 -1.703125 2.675781 -1.855469 C 2.589844 -2.007812 2.472656 -2.128906 2.324219 -2.210938 C 2.179688 -2.296875 2.011719 -2.339844 1.824219 -2.339844 C 1.636719 -2.339844 1.472656 -2.296875 1.324219 -2.210938 C 1.175781 -2.128906 1.058594 -2.007812 0.972656 -1.855469 C 0.886719 -1.703125 0.84375 -1.523438 0.84375 -1.316406 C 0.84375 -1.113281 0.886719 -0.933594 0.972656 -0.777344 C 1.058594 -0.621094 1.175781 -0.503906 1.324219 -0.417969 C 1.472656 -0.332031 1.636719 -0.289062 1.824219 -0.289062 Z "/>
</g>
<g id="glyph-0-5">
<path d="M 0.496094 0 L 0.496094 -2.625 L 0.851562 -2.625 L 0.851562 0 Z M 0.675781 -3.203125 C 0.601562 -3.203125 0.539062 -3.230469 0.488281 -3.28125 C 0.4375 -3.332031 0.414062 -3.390625 0.414062 -3.460938 C 0.414062 -3.53125 0.441406 -3.589844 0.488281 -3.636719 C 0.539062 -3.6875 0.601562 -3.710938 0.675781 -3.710938 C 0.75 -3.710938 0.808594 -3.6875 0.859375 -3.640625 C 0.910156 -3.59375 0.933594 -3.535156 0.933594 -3.464844 C 0.933594 -3.390625 0.910156 -3.328125 0.863281 -3.28125 C 0.8125 -3.230469 0.75 -3.203125 0.675781 -3.203125 Z "/>
</g>
<g id="glyph-0-6">
<path d="M 1.324219 0.0234375 C 1.078125 0.0234375 0.886719 -0.0429688 0.753906 -0.175781 C 0.621094 -0.308594 0.554688 -0.496094 0.554688 -0.738281 L 0.554688 -3.203125 L 0.910156 -3.203125 L 0.910156 -0.761719 C 0.910156 -0.605469 0.949219 -0.488281 1.027344 -0.40625 C 1.105469 -0.320312 1.21875 -0.28125 1.363281 -0.28125 C 1.519531 -0.28125 1.652344 -0.324219 1.753906 -0.414062 L 1.878906 -0.160156 C 1.808594 -0.0976562 1.726562 -0.0507812 1.628906 -0.0195312 C 1.53125 0.0117188 1.429688 0.0234375 1.324219 0.0234375 Z M 0.0859375 -2.328125 L 0.0859375 -2.625 L 1.710938 -2.625 L 1.710938 -2.328125 Z "/>
</g>
<g id="glyph-0-7">
<path d="M 0.496094 0 L 0.496094 -3.710938 L 0.851562 -3.710938 L 0.851562 -1.90625 L 0.78125 -2.039062 C 0.863281 -2.230469 0.996094 -2.378906 1.179688 -2.488281 C 1.363281 -2.597656 1.582031 -2.648438 1.835938 -2.648438 C 2.046875 -2.648438 2.234375 -2.609375 2.398438 -2.527344 C 2.558594 -2.445312 2.6875 -2.320312 2.777344 -2.15625 C 2.867188 -1.988281 2.914062 -1.777344 2.914062 -1.523438 L 2.914062 0 L 2.558594 0 L 2.558594 -1.488281 C 2.558594 -1.765625 2.492188 -1.976562 2.351562 -2.117188 C 2.214844 -2.257812 2.019531 -2.328125 1.769531 -2.328125 C 1.582031 -2.328125 1.421875 -2.292969 1.28125 -2.21875 C 1.144531 -2.144531 1.039062 -2.035156 0.960938 -1.890625 C 0.886719 -1.75 0.851562 -1.578125 0.851562 -1.378906 L 0.851562 0 Z "/>
</g>
<g id="glyph-0-8">
<path d="M 2.140625 0 L 2.140625 -0.578125 L 2.125 -0.675781 L 2.125 -1.644531 C 2.125 -1.867188 2.0625 -2.039062 1.9375 -2.160156 C 1.8125 -2.28125 1.625 -2.339844 1.378906 -2.339844 C 1.210938 -2.339844 1.046875 -2.3125 0.894531 -2.253906 C 0.742188 -2.199219 0.613281 -2.125 0.503906 -2.03125 L 0.34375 -2.296875 C 0.476562 -2.410156 0.636719 -2.496094 0.824219 -2.558594 C 1.011719 -2.621094 1.207031 -2.648438 1.414062 -2.648438 C 1.753906 -2.648438 2.015625 -2.566406 2.203125 -2.398438 C 2.386719 -2.230469 2.480469 -1.972656 2.480469 -1.628906 L 2.480469 0 Z M 1.234375 0.0234375 C 1.039062 0.0234375 0.867188 -0.0078125 0.722656 -0.0742188 C 0.578125 -0.136719 0.464844 -0.226562 0.390625 -0.34375 C 0.3125 -0.457031 0.273438 -0.589844 0.273438 -0.738281 C 0.273438 -0.875 0.308594 -1 0.371094 -1.113281 C 0.4375 -1.222656 0.542969 -1.3125 0.691406 -1.382812 C 0.839844 -1.449219 1.039062 -1.484375 1.289062 -1.484375 L 2.195312 -1.484375 L 2.195312 -1.21875 L 1.300781 -1.21875 C 1.046875 -1.21875 0.871094 -1.175781 0.773438 -1.085938 C 0.675781 -0.996094 0.625 -0.882812 0.625 -0.75 C 0.625 -0.601562 0.683594 -0.480469 0.800781 -0.390625 C 0.917969 -0.300781 1.078125 -0.253906 1.289062 -0.253906 C 1.488281 -0.253906 1.664062 -0.300781 1.808594 -0.390625 C 1.953125 -0.484375 2.058594 -0.617188 2.125 -0.789062 L 2.203125 -0.546875 C 2.136719 -0.371094 2.023438 -0.234375 1.859375 -0.128906 C 1.691406 -0.0273438 1.484375 0.0234375 1.234375 0.0234375 Z "/>
</g>
<g id="glyph-0-9">
<path d="M 1.199219 0.0234375 C 0.984375 0.0234375 0.777344 -0.00390625 0.585938 -0.0664062 C 0.390625 -0.128906 0.238281 -0.207031 0.128906 -0.300781 L 0.289062 -0.578125 C 0.394531 -0.5 0.535156 -0.429688 0.699219 -0.371094 C 0.867188 -0.3125 1.042969 -0.285156 1.226562 -0.285156 C 1.476562 -0.285156 1.65625 -0.324219 1.765625 -0.402344 C 1.875 -0.480469 1.929688 -0.585938 1.929688 -0.714844 C 1.929688 -0.8125 1.898438 -0.886719 1.835938 -0.941406 C 1.773438 -0.996094 1.695312 -1.039062 1.59375 -1.066406 C 1.496094 -1.09375 1.382812 -1.121094 1.261719 -1.140625 C 1.136719 -1.160156 1.015625 -1.183594 0.890625 -1.210938 C 0.769531 -1.238281 0.660156 -1.277344 0.558594 -1.328125 C 0.460938 -1.378906 0.378906 -1.449219 0.316406 -1.539062 C 0.253906 -1.628906 0.226562 -1.75 0.226562 -1.898438 C 0.226562 -2.042969 0.265625 -2.171875 0.34375 -2.285156 C 0.425781 -2.398438 0.542969 -2.488281 0.699219 -2.550781 C 0.851562 -2.617188 1.042969 -2.648438 1.265625 -2.648438 C 1.433594 -2.648438 1.605469 -2.628906 1.773438 -2.582031 C 1.945312 -2.539062 2.085938 -2.476562 2.195312 -2.40625 L 2.039062 -2.121094 C 1.921875 -2.199219 1.796875 -2.257812 1.664062 -2.292969 C 1.53125 -2.328125 1.398438 -2.34375 1.265625 -2.34375 C 1.027344 -2.34375 0.855469 -2.304688 0.742188 -2.222656 C 0.628906 -2.140625 0.574219 -2.035156 0.574219 -1.910156 C 0.574219 -1.808594 0.605469 -1.730469 0.667969 -1.675781 C 0.730469 -1.617188 0.8125 -1.574219 0.914062 -1.542969 C 1.015625 -1.511719 1.125 -1.484375 1.246094 -1.464844 C 1.367188 -1.445312 1.492188 -1.421875 1.613281 -1.390625 C 1.734375 -1.363281 1.847656 -1.324219 1.949219 -1.277344 C 2.050781 -1.230469 2.128906 -1.160156 2.191406 -1.074219 C 2.253906 -0.984375 2.285156 -0.867188 2.285156 -0.726562 C 2.285156 -0.570312 2.242188 -0.4375 2.15625 -0.328125 C 2.070312 -0.214844 1.949219 -0.128906 1.789062 -0.0664062 C 1.625 -0.00390625 1.429688 0.0234375 1.199219 0.0234375 Z "/>
</g>
<g id="glyph-0-10">
<path d="M 0.199219 -0.921875 L 0.199219 -1.179688 L 2.054688 -3.5 L 2.453125 -3.5 L 0.613281 -1.179688 L 0.421875 -1.238281 L 3.234375 -1.238281 L 3.234375 -0.921875 Z M 2.175781 0 L 2.175781 -0.921875 L 2.183594 -1.238281 L 2.183594 -2.050781 L 2.535156 -2.050781 L 2.535156 0 Z "/>
</g>
<g id="glyph-0-11">
<path d="M 0.496094 0 L 0.496094 -2.625 L 0.835938 -2.625 L 0.835938 -1.910156 L 0.800781 -2.035156 C 0.875 -2.234375 0.996094 -2.386719 1.171875 -2.492188 C 1.34375 -2.597656 1.558594 -2.648438 1.816406 -2.648438 L 1.816406 -2.304688 C 1.800781 -2.304688 1.789062 -2.304688 1.773438 -2.308594 C 1.761719 -2.308594 1.75 -2.308594 1.734375 -2.308594 C 1.457031 -2.308594 1.242188 -2.226562 1.085938 -2.058594 C 0.929688 -1.890625 0.851562 -1.648438 0.851562 -1.339844 L 0.851562 0 Z "/>
</g>
<g id="glyph-0-12">
<path d="M 1.609375 0.0234375 C 1.335938 0.0234375 1.097656 -0.03125 0.890625 -0.148438 C 0.683594 -0.261719 0.523438 -0.421875 0.40625 -0.621094 C 0.289062 -0.824219 0.230469 -1.054688 0.230469 -1.316406 C 0.230469 -1.574219 0.285156 -1.804688 0.398438 -2.003906 C 0.507812 -2.203125 0.664062 -2.363281 0.859375 -2.476562 C 1.054688 -2.59375 1.273438 -2.648438 1.515625 -2.648438 C 1.761719 -2.648438 1.980469 -2.59375 2.171875 -2.484375 C 2.363281 -2.371094 2.515625 -2.214844 2.625 -2.011719 C 2.734375 -1.8125 2.789062 -1.578125 2.789062 -1.316406 C 2.789062 -1.296875 2.789062 -1.28125 2.789062 -1.261719 C 2.785156 -1.242188 2.785156 -1.226562 2.785156 -1.203125 L 0.5 -1.203125 L 0.5 -1.46875 L 2.59375 -1.46875 L 2.453125 -1.363281 C 2.453125 -1.554688 2.414062 -1.722656 2.332031 -1.871094 C 2.25 -2.019531 2.140625 -2.136719 2 -2.21875 C 1.859375 -2.304688 1.699219 -2.34375 1.515625 -2.34375 C 1.335938 -2.34375 1.171875 -2.304688 1.03125 -2.21875 C 0.886719 -2.136719 0.773438 -2.019531 0.695312 -1.871094 C 0.613281 -1.71875 0.574219 -1.546875 0.574219 -1.355469 L 0.574219 -1.300781 C 0.574219 -1.101562 0.621094 -0.925781 0.707031 -0.773438 C 0.796875 -0.621094 0.917969 -0.503906 1.078125 -0.417969 C 1.234375 -0.332031 1.417969 -0.289062 1.621094 -0.289062 C 1.78125 -0.289062 1.929688 -0.316406 2.066406 -0.375 C 2.207031 -0.433594 2.324219 -0.519531 2.425781 -0.636719 L 2.625 -0.40625 C 2.507812 -0.265625 2.363281 -0.160156 2.1875 -0.0859375 C 2.011719 -0.0117188 1.820312 0.0234375 1.609375 0.0234375 Z "/>
</g>
<g id="glyph-0-13">
<path d="M 0.496094 0 L 0.496094 -3.710938 L 0.851562 -3.710938 L 0.851562 0 Z "/>
</g>
<g id="glyph-0-14">
<path d="M 1.851562 0.0234375 C 1.625 0.0234375 1.417969 -0.0273438 1.234375 -0.132812 C 1.050781 -0.238281 0.90625 -0.390625 0.796875 -0.585938 C 0.6875 -0.785156 0.636719 -1.027344 0.636719 -1.316406 C 0.636719 -1.601562 0.6875 -1.84375 0.796875 -2.042969 C 0.902344 -2.242188 1.046875 -2.390625 1.230469 -2.496094 C 1.414062 -2.597656 1.621094 -2.648438 1.851562 -2.648438 C 2.101562 -2.648438 2.324219 -2.59375 2.523438 -2.484375 C 2.722656 -2.371094 2.875 -2.214844 2.988281 -2.011719 C 3.101562 -1.8125 3.160156 -1.578125 3.160156 -1.316406 C 3.160156 -1.046875 3.101562 -0.816406 2.988281 -0.613281 C 2.875 -0.414062 2.722656 -0.257812 2.523438 -0.144531 C 2.324219 -0.03125 2.101562 0.0234375 1.851562 0.0234375 Z M 0.496094 0.96875 L 0.496094 -2.625 L 0.835938 -2.625 L 0.835938 -1.835938 L 0.800781 -1.308594 L 0.851562 -0.78125 L 0.851562 0.96875 Z M 1.824219 -0.289062 C 2.011719 -0.289062 2.179688 -0.332031 2.324219 -0.417969 C 2.472656 -0.503906 2.589844 -0.621094 2.675781 -0.777344 C 2.761719 -0.933594 2.804688 -1.113281 2.804688 -1.316406 C 2.804688 -1.519531 2.761719 -1.695312 2.675781 -1.851562 C 2.589844 -2.003906 2.472656 -2.125 2.324219 -2.210938 C 2.179688 -2.296875 2.011719 -2.339844 1.824219 -2.339844 C 1.636719 -2.339844 1.472656 -2.296875 1.324219 -2.210938 C 1.175781 -2.125 1.058594 -2.003906 0.972656 -1.851562 C 0.886719 -1.695312 0.84375 -1.519531 0.84375 -1.316406 C 0.84375 -1.113281 0.886719 -0.933594 0.972656 -0.777344 C 1.058594 -0.621094 1.175781 -0.503906 1.324219 -0.417969 C 1.472656 -0.332031 1.636719 -0.289062 1.824219 -0.289062 Z "/>
</g>
<g id="glyph-0-15">
<path d="M 0.496094 0 L 0.496094 -2.625 L 0.835938 -2.625 L 0.835938 -1.914062 L 0.78125 -2.039062 C 0.859375 -2.230469 0.988281 -2.378906 1.167969 -2.488281 C 1.347656 -2.597656 1.558594 -2.648438 1.800781 -2.648438 C 2.058594 -2.648438 2.273438 -2.585938 2.453125 -2.457031 C 2.632812 -2.328125 2.75 -2.136719 2.804688 -1.878906 L 2.664062 -1.933594 C 2.742188 -2.148438 2.878906 -2.320312 3.074219 -2.453125 C 3.269531 -2.585938 3.5 -2.648438 3.773438 -2.648438 C 3.988281 -2.648438 4.175781 -2.609375 4.332031 -2.527344 C 4.492188 -2.445312 4.613281 -2.320312 4.703125 -2.15625 C 4.792969 -1.988281 4.835938 -1.777344 4.835938 -1.523438 L 4.835938 0 L 4.480469 0 L 4.480469 -1.488281 C 4.480469 -1.765625 4.414062 -1.976562 4.28125 -2.117188 C 4.152344 -2.257812 3.964844 -2.328125 3.726562 -2.328125 C 3.546875 -2.328125 3.390625 -2.292969 3.257812 -2.21875 C 3.125 -2.144531 3.023438 -2.035156 2.953125 -1.890625 C 2.882812 -1.75 2.84375 -1.578125 2.84375 -1.378906 L 2.84375 0 L 2.488281 0 L 2.488281 -1.488281 C 2.488281 -1.765625 2.421875 -1.976562 2.289062 -2.117188 C 2.15625 -2.257812 1.96875 -2.328125 1.730469 -2.328125 C 1.554688 -2.328125 1.398438 -2.292969 1.265625 -2.21875 C 1.132812 -2.144531 1.027344 -2.035156 0.957031 -1.890625 C 0.886719 -1.75 0.851562 -1.578125 0.851562 -1.378906 L 0.851562 0 Z "/>
</g>
<g id="glyph-0-16">
<path d="M 0.53125 0.0234375 C 0.457031 0.0234375 0.394531 0 0.34375 -0.0546875 C 0.292969 -0.109375 0.265625 -0.171875 0.265625 -0.25 C 0.265625 -0.328125 0.289062 -0.394531 0.34375 -0.445312 C 0.394531 -0.496094 0.457031 -0.519531 0.53125 -0.519531 C 0.605469 -0.519531 0.664062 -0.496094 0.71875 -0.445312 C 0.769531 -0.394531 0.796875 -0.328125 0.796875 -0.25 C 0.796875 -0.171875 0.769531 -0.109375 0.71875 -0.0546875 C 0.667969 0 0.601562 0.0234375 0.53125 0.0234375 Z "/>
</g>
<g id="glyph-0-17">
<path d="M 0.570312 0 L 0.570312 -3.5 L 0.875 -3.5 L 3.289062 -0.460938 L 3.128906 -0.460938 L 3.128906 -3.5 L 3.496094 -3.5 L 3.496094 0 L 3.191406 0 L 0.78125 -3.039062 L 0.941406 -3.039062 L 0.941406 0 Z "/>
</g>
<g id="glyph-0-18">
<path d="M 1.566406 0.0234375 C 1.3125 0.0234375 1.085938 -0.03125 0.882812 -0.148438 C 0.679688 -0.261719 0.523438 -0.421875 0.40625 -0.621094 C 0.289062 -0.824219 0.230469 -1.054688 0.230469 -1.316406 C 0.230469 -1.578125 0.289062 -1.808594 0.40625 -2.011719 C 0.523438 -2.210938 0.679688 -2.367188 0.878906 -2.480469 C 1.078125 -2.59375 1.308594 -2.648438 1.566406 -2.648438 C 1.824219 -2.648438 2.054688 -2.59375 2.257812 -2.480469 C 2.460938 -2.367188 2.617188 -2.210938 2.734375 -2.011719 C 2.847656 -1.8125 2.90625 -1.578125 2.90625 -1.316406 C 2.90625 -1.054688 2.847656 -0.824219 2.734375 -0.621094 C 2.617188 -0.421875 2.457031 -0.261719 2.253906 -0.148438 C 2.050781 -0.03125 1.820312 0.0234375 1.566406 0.0234375 Z M 1.566406 -0.289062 C 1.753906 -0.289062 1.921875 -0.332031 2.070312 -0.417969 C 2.214844 -0.503906 2.332031 -0.621094 2.417969 -0.777344 C 2.503906 -0.933594 2.546875 -1.113281 2.546875 -1.316406 C 2.546875 -1.523438 2.503906 -1.703125 2.417969 -1.855469 C 2.332031 -2.007812 2.214844 -2.128906 2.070312 -2.210938 C 1.921875 -2.296875 1.757812 -2.339844 1.570312 -2.339844 C 1.382812 -2.339844 1.214844 -2.296875 1.070312 -2.210938 C 0.921875 -2.128906 0.808594 -2.007812 0.71875 -1.855469 C 0.632812 -1.703125 0.589844 -1.523438 0.589844 -1.316406 C 0.589844 -1.113281 0.632812 -0.933594 0.71875 -0.777344 C 0.804688 -0.621094 0.921875 -0.503906 1.070312 -0.417969 C 1.214844 -0.332031 1.382812 -0.289062 1.566406 -0.289062 Z "/>
</g>
<g id="glyph-0-19">
<path d="M 0.210938 0 L 0.210938 -0.234375 L 1.960938 -2.449219 L 2.035156 -2.328125 L 0.238281 -2.328125 L 0.238281 -2.625 L 2.316406 -2.625 L 2.316406 -2.394531 L 0.570312 -0.175781 L 0.480469 -0.296875 L 2.351562 -0.296875 L 2.351562 0 Z "/>
</g>
<g id="glyph-0-20">
<path d="M 0.496094 0 L 0.496094 -2.625 L 0.835938 -2.625 L 0.835938 -1.90625 L 0.78125 -2.039062 C 0.863281 -2.230469 0.996094 -2.378906 1.179688 -2.488281 C 1.363281 -2.597656 1.582031 -2.648438 1.835938 -2.648438 C 2.046875 -2.648438 2.234375 -2.609375 2.398438 -2.527344 C 2.558594 -2.445312 2.6875 -2.320312 2.777344 -2.15625 C 2.867188 -1.988281 2.914062 -1.777344 2.914062 -1.523438 L 2.914062 0 L 2.558594 0 L 2.558594 -1.488281 C 2.558594 -1.765625 2.492188 -1.976562 2.351562 -2.117188 C 2.214844 -2.257812 2.019531 -2.328125 1.769531 -2.328125 C 1.582031 -2.328125 1.421875 -2.292969 1.28125 -2.21875 C 1.144531 -2.144531 1.039062 -2.035156 0.960938 -1.890625 C 0.886719 -1.75 0.851562 -1.578125 0.851562 -1.378906 L 0.851562 0 Z "/>
</g>
<g id="glyph-0-21">
<path d="M 1.171875 0 L 0.00390625 -2.625 L 0.375 -2.625 L 1.445312 -0.191406 L 1.269531 -0.191406 L 2.355469 -2.625 L 2.703125 -2.625 L 1.535156 0 Z "/>
</g>
<g id="glyph-0-22">
<path d="M 0.871094 0 L 0.871094 -3.351562 L 1.03125 -3.179688 L 0.046875 -3.179688 L 0.046875 -3.5 L 1.230469 -3.5 L 1.230469 0 Z "/>
</g>
<g id="glyph-0-23">
<path d="M 2.105469 0.03125 C 1.839844 0.03125 1.59375 -0.015625 1.367188 -0.101562 C 1.140625 -0.191406 0.949219 -0.316406 0.78125 -0.476562 C 0.617188 -0.636719 0.488281 -0.824219 0.398438 -1.039062 C 0.304688 -1.257812 0.261719 -1.492188 0.261719 -1.75 C 0.261719 -2.007812 0.304688 -2.242188 0.398438 -2.460938 C 0.488281 -2.675781 0.617188 -2.863281 0.785156 -3.023438 C 0.953125 -3.183594 1.148438 -3.308594 1.371094 -3.398438 C 1.597656 -3.484375 1.84375 -3.53125 2.109375 -3.53125 C 2.375 -3.53125 2.621094 -3.488281 2.84375 -3.40625 C 3.066406 -3.320312 3.253906 -3.195312 3.410156 -3.023438 L 3.179688 -2.789062 C 3.035156 -2.9375 2.871094 -3.042969 2.695312 -3.105469 C 2.519531 -3.167969 2.328125 -3.199219 2.125 -3.199219 C 1.910156 -3.199219 1.710938 -3.164062 1.527344 -3.09375 C 1.347656 -3.019531 1.1875 -2.917969 1.050781 -2.789062 C 0.917969 -2.65625 0.8125 -2.503906 0.738281 -2.328125 C 0.664062 -2.152344 0.625 -1.960938 0.625 -1.75 C 0.625 -1.542969 0.664062 -1.351562 0.738281 -1.175781 C 0.8125 -1 0.917969 -0.84375 1.050781 -0.710938 C 1.1875 -0.582031 1.347656 -0.480469 1.527344 -0.40625 C 1.710938 -0.335938 1.90625 -0.300781 2.121094 -0.300781 C 2.320312 -0.300781 2.507812 -0.328125 2.6875 -0.390625 C 2.867188 -0.449219 3.03125 -0.550781 3.179688 -0.695312 L 3.390625 -0.414062 C 3.222656 -0.269531 3.027344 -0.15625 2.804688 -0.0820312 C 2.582031 -0.0078125 2.347656 0.03125 2.105469 0.03125 Z M 3.390625 -0.414062 L 3.035156 -0.460938 L 3.035156 -1.75 L 3.390625 -1.75 Z "/>
</g>
<g id="glyph-0-24">
<path d="M 0.195312 0 L 0.195312 -0.253906 L 1.648438 -1.679688 C 1.78125 -1.808594 1.882812 -1.925781 1.949219 -2.023438 C 2.015625 -2.121094 2.0625 -2.214844 2.085938 -2.300781 C 2.109375 -2.386719 2.121094 -2.46875 2.121094 -2.546875 C 2.121094 -2.75 2.050781 -2.910156 1.914062 -3.023438 C 1.773438 -3.140625 1.570312 -3.199219 1.300781 -3.199219 C 1.09375 -3.199219 0.910156 -3.167969 0.753906 -3.105469 C 0.59375 -3.042969 0.457031 -2.941406 0.34375 -2.808594 L 0.0898438 -3.03125 C 0.226562 -3.191406 0.402344 -3.3125 0.613281 -3.398438 C 0.828125 -3.484375 1.066406 -3.53125 1.328125 -3.53125 C 1.566406 -3.53125 1.773438 -3.492188 1.945312 -3.417969 C 2.117188 -3.34375 2.253906 -3.234375 2.347656 -3.089844 C 2.441406 -2.945312 2.488281 -2.777344 2.488281 -2.585938 C 2.488281 -2.472656 2.472656 -2.359375 2.441406 -2.25 C 2.410156 -2.140625 2.355469 -2.023438 2.273438 -1.902344 C 2.191406 -1.78125 2.070312 -1.644531 1.914062 -1.488281 L 0.578125 -0.179688 L 0.480469 -0.320312 L 2.648438 -0.320312 L 2.648438 0 Z "/>
</g>
<g id="glyph-0-25">
<path d="M 1.363281 0 L 0.183594 -3.5 L 0.566406 -3.5 L 1.671875 -0.203125 L 1.480469 -0.203125 L 2.621094 -3.5 L 2.960938 -3.5 L 4.085938 -0.203125 L 3.90625 -0.203125 L 5.019531 -3.5 L 5.375 -3.5 L 4.195312 0 L 3.804688 0 L 2.730469 -3.125 L 2.828125 -3.125 L 1.75 0 Z "/>
</g>
<g id="glyph-0-26">
<path d="M 0.515625 0.996094 C 0.390625 0.996094 0.273438 0.976562 0.164062 0.933594 C 0.0507812 0.894531 -0.046875 0.835938 -0.125 0.753906 L 0.0390625 0.488281 C 0.105469 0.554688 0.179688 0.601562 0.257812 0.636719 C 0.335938 0.671875 0.421875 0.691406 0.519531 0.691406 C 0.636719 0.691406 0.738281 0.65625 0.824219 0.59375 C 0.90625 0.527344 0.988281 0.414062 1.066406 0.25 L 1.234375 -0.136719 L 1.273438 -0.191406 L 2.355469 -2.625 L 2.703125 -2.625 L 1.390625 0.316406 C 1.316406 0.484375 1.234375 0.621094 1.148438 0.71875 C 1.058594 0.820312 0.964844 0.890625 0.859375 0.933594 C 0.757812 0.972656 0.640625 0.996094 0.515625 0.996094 Z M 1.214844 0.0742188 L 0.00390625 -2.625 L 0.375 -2.625 L 1.445312 -0.214844 Z "/>
</g>
<g id="glyph-0-27">
<path d="M 1.175781 -1.050781 C 1.175781 -1.191406 1.199219 -1.308594 1.242188 -1.410156 C 1.289062 -1.511719 1.34375 -1.597656 1.414062 -1.675781 C 1.480469 -1.75 1.554688 -1.824219 1.632812 -1.890625 C 1.710938 -1.957031 1.785156 -2.023438 1.855469 -2.09375 C 1.925781 -2.160156 1.980469 -2.234375 2.023438 -2.316406 C 2.066406 -2.398438 2.089844 -2.496094 2.089844 -2.605469 C 2.089844 -2.785156 2.019531 -2.933594 1.878906 -3.046875 C 1.738281 -3.160156 1.542969 -3.214844 1.285156 -3.214844 C 1.070312 -3.214844 0.886719 -3.179688 0.730469 -3.113281 C 0.574219 -3.042969 0.441406 -2.941406 0.328125 -2.808594 L 0.0664062 -3.011719 C 0.199219 -3.175781 0.371094 -3.304688 0.578125 -3.394531 C 0.789062 -3.484375 1.035156 -3.53125 1.308594 -3.53125 C 1.542969 -3.53125 1.746094 -3.496094 1.917969 -3.425781 C 2.089844 -3.355469 2.222656 -3.253906 2.316406 -3.125 C 2.414062 -2.996094 2.460938 -2.839844 2.460938 -2.660156 C 2.460938 -2.515625 2.4375 -2.394531 2.390625 -2.292969 C 2.347656 -2.191406 2.289062 -2.101562 2.222656 -2.023438 C 2.152344 -1.945312 2.082031 -1.871094 2.003906 -1.800781 C 1.925781 -1.734375 1.851562 -1.664062 1.78125 -1.59375 C 1.710938 -1.523438 1.652344 -1.445312 1.609375 -1.359375 C 1.566406 -1.273438 1.546875 -1.171875 1.546875 -1.050781 Z M 1.359375 0.0234375 C 1.289062 0.0234375 1.230469 0 1.175781 -0.0507812 C 1.125 -0.105469 1.101562 -0.164062 1.101562 -0.234375 C 1.101562 -0.308594 1.125 -0.371094 1.175781 -0.417969 C 1.230469 -0.464844 1.289062 -0.488281 1.359375 -0.488281 C 1.4375 -0.488281 1.5 -0.464844 1.550781 -0.417969 C 1.601562 -0.371094 1.625 -0.308594 1.625 -0.234375 C 1.625 -0.164062 1.601562 -0.105469 1.550781 -0.0507812 C 1.5 0 1.4375 0.0234375 1.359375 0.0234375 Z "/>
</g>
</g>
<image id="source-6" x="0" y="0" width="0" height="0"/>
<mask id="mask-0">
<use xlink:href="#source-6"/>
</mask>
</defs>
<g fill="rgb(18.431373%, 16.470588%, 14.901961%)" fill-opacity="1">
<use xlink:href="#glyph-0-0" x="30" y="24.839844"/>
<use xlink:href="#glyph-0-1" x="34" y="24.839844"/>
<use xlink:href="#glyph-0-2" x="35" y="24.839844"/>
<use xlink:href="#glyph-0-3" x="38" y="24.839844"/>
<use xlink:href="#glyph-0-4" x="41" y="24.839844"/>
<use xlink:href="#glyph-0-5" x="44" y="24.839844"/>
<use xlink:href="#glyph-0-6" x="45" y="24.839844"/>
<use xlink:href="#glyph-0-1" x="47" y="24.839844"/>
<use xlink:href="#glyph-0-7" x="48" y="24.839844"/>
<use xlink:href="#glyph-0-8" x="51" y="24.839844"/>
<use xlink:href="#glyph-0-9" x="54" y="24.839844"/>
<use xlink:href="#glyph-0-1" x="56" y="24.839844"/>
<use xlink:href="#glyph-0-10" x="57" y="24.839844"/>
<use xlink:href="#glyph-0-1" x="60" y="24.839844"/>
<use xlink:href="#glyph-0-11" x="61" y="24.839844"/>
<use xlink:href="#glyph-0-12" x="63" y="24.839844"/>
<use xlink:href="#glyph-0-8" x="66" y="24.839844"/>
<use xlink:href="#glyph-0-13" x="69" y="24.839844"/>
<use xlink:href="#glyph-0-1" x="70" y="24.839844"/>
<use xlink:href="#glyph-0-14" x="71" y="24.839844"/>
<use xlink:href="#glyph-0-8" x="74" y="24.839844"/>
<use xlink:href="#glyph-0-11" x="77" y="24.839844"/>
<use xlink:href="#glyph-0-8" x="79" y="24.839844"/>
<use xlink:href="#glyph-0-15" x="82" y="24.839844"/>
<use xlink:href="#glyph-0-12" x="87" y="24.839844"/>
<use xlink:href="#glyph-0-6" x="90" y="24.839844"/>
<use xlink:href="#glyph-0-12" x="92" y="24.839844"/>
<use xlink:href="#glyph-0-11" x="95" y="24.839844"/>
<use xlink:href="#glyph-0-9" x="97" y="24.839844"/>
<use xlink:href="#glyph-0-16" x="99" y="24.839844"/>
<use xlink:href="#glyph-0-1" x="100" y="24.839844"/>
</g>
<g fill="rgb(18.431373%, 16.470588%, 14.901961%)" fill-opacity="1">
<use xlink:href="#glyph-0-17" x="30" y="33.464844"/>
<use xlink:href="#glyph-0-18" x="34" y="33.464844"/>
<use xlink:href="#glyph-0-11" x="37" y="33.464844"/>
<use xlink:href="#glyph-0-15" x="39" y="33.464844"/>
<use xlink:href="#glyph-0-8" x="44" y="33.464844"/>
<use xlink:href="#glyph-0-13" x="47" y="33.464844"/>
<use xlink:href="#glyph-0-5" x="48" y="33.464844"/>
<use xlink:href="#glyph-0-19" x="49" y="33.464844"/>
<use xlink:href="#glyph-0-8" x="52" y="33.464844"/>
<use xlink:href="#glyph-0-6" x="55" y="33.464844"/>
<use xlink:href="#glyph-0-5" x="57" y="33.464844"/>
<use xlink:href="#glyph-0-18" x="58" y="33.464844"/>
<use xlink:href="#glyph-0-20" x="61" y="33.464844"/>
<use xlink:href="#glyph-0-1" x="64" y="33.464844"/>
<use xlink:href="#glyph-0-11" x="65" y="33.464844"/>
<use xlink:href="#glyph-0-12" x="67" y="33.464844"/>
<use xlink:href="#glyph-0-15" x="70" y="33.464844"/>
<use xlink:href="#glyph-0-18" x="75" y="33.464844"/>
<use xlink:href="#glyph-0-21" x="78" y="33.464844"/>
<use xlink:href="#glyph-0-12" x="81" y="33.464844"/>
<use xlink:href="#glyph-0-9" x="84" y="33.464844"/>
<use xlink:href="#glyph-0-1" x="86" y="33.464844"/>
<use xlink:href="#glyph-0-22" x="87" y="33.464844"/>
<use xlink:href="#glyph-0-16" x="89" y="33.464844"/>
<use xlink:href="#glyph-0-1" x="90" y="33.464844"/>
<use xlink:href="#glyph-0-23" x="91" y="33.464844"/>
<use xlink:href="#glyph-0-13" x="95" y="33.464844"/>
<use xlink:href="#glyph-0-18" x="96" y="33.464844"/>
<use xlink:href="#glyph-0-4" x="99" y="33.464844"/>
<use xlink:href="#glyph-0-8" x="102" y="33.464844"/>
<use xlink:href="#glyph-0-13" x="105" y="33.464844"/>
<use xlink:href="#glyph-0-1" x="106" y="33.464844"/>
<use xlink:href="#glyph-0-14" x="107" y="33.464844"/>
<use xlink:href="#glyph-0-7" x="110" y="33.464844"/>
<use xlink:href="#glyph-0-8" x="113" y="33.464844"/>
<use xlink:href="#glyph-0-9" x="116" y="33.464844"/>
<use xlink:href="#glyph-0-12" x="118" y="33.464844"/>
<use xlink:href="#glyph-0-1" x="121" y="33.464844"/>
<use xlink:href="#glyph-0-11" x="122" y="33.464844"/>
<use xlink:href="#glyph-0-12" x="124" y="33.464844"/>
<use xlink:href="#glyph-0-15" x="127" y="33.464844"/>
<use xlink:href="#glyph-0-18" x="132" y="33.464844"/>
<use xlink:href="#glyph-0-21" x="135" y="33.464844"/>
<use xlink:href="#glyph-0-12" x="138" y="33.464844"/>
<use xlink:href="#glyph-0-9" x="141" y="33.464844"/>
<use xlink:href="#glyph-0-1" x="143" y="33.464844"/>
<use xlink:href="#glyph-0-22" x="144" y="33.464844"/>
<use xlink:href="#glyph-0-16" x="146" y="33.464844"/>
<use xlink:href="#glyph-0-1" x="147" y="33.464844"/>
</g>
<g fill="rgb(18.431373%, 16.470588%, 14.901961%)" fill-opacity="1">
<use xlink:href="#glyph-0-24" x="30" y="42.089844"/>
<use xlink:href="#glyph-0-1" x="33" y="42.089844"/>
<use xlink:href="#glyph-0-11" x="34" y="42.089844"/>
<use xlink:href="#glyph-0-12" x="36" y="42.089844"/>
<use xlink:href="#glyph-0-15" x="39" y="42.089844"/>
<use xlink:href="#glyph-0-8" x="44" y="42.089844"/>
<use xlink:href="#glyph-0-5" x="47" y="42.089844"/>
<use xlink:href="#glyph-0-20" x="48" y="42.089844"/>
<use xlink:href="#glyph-0-16" x="51" y="42.089844"/>
<use xlink:href="#glyph-0-1" x="52" y="42.089844"/>
<use xlink:href="#glyph-0-25" x="53" y="42.089844"/>
<use xlink:href="#glyph-0-7" x="58" y="42.089844"/>
<use xlink:href="#glyph-0-26" x="61" y="42.089844"/>
<use xlink:href="#glyph-0-1" x="64" y="42.089844"/>
<use xlink:href="#glyph-0-8" x="65" y="42.089844"/>
<use xlink:href="#glyph-0-1" x="68" y="42.089844"/>
<use xlink:href="#glyph-0-9" x="69" y="42.089844"/>
<use xlink:href="#glyph-0-14" x="71" y="42.089844"/>
<use xlink:href="#glyph-0-7" x="74" y="42.089844"/>
<use xlink:href="#glyph-0-12" x="77" y="42.089844"/>
<use xlink:href="#glyph-0-11" x="80" y="42.089844"/>
<use xlink:href="#glyph-0-12" x="82" y="42.089844"/>
<use xlink:href="#glyph-0-27" x="85" y="42.089844"/>
</g>
</svg>
