<?xml version="1.0" encoding="UTF-8"?>
<svg xmlns="http://www.w3.org/2000/svg" xmlns:xlink="http://www.w3.org/1999/xlink" width="1920" height="1080" viewBox="0 0 1920 1080">
<defs>
<g>
<g id="glyph-0-0">
<path d="M 1.066406 0.0234375 C 0.875 0.0234375 0.691406 -0.00390625 0.519531 -0.0585938 C 0.347656 -0.113281 0.214844 -0.183594 0.117188 -0.265625 L 0.257812 -0.515625 C 0.351562 -0.445312 0.472656 -0.382812 0.621094 -0.332031 C 0.769531 -0.28125 0.925781 -0.253906 1.089844 -0.253906 C 1.3125 -0.253906 1.472656 -0.289062 1.570312 -0.359375 C 1.667969 -0.429688 1.714844 -0.519531 1.714844 -0.636719 C 1.714844 -0.722656 1.6875 -0.789062 1.632812 -0.835938 C 1.578125 -0.886719 1.507812 -0.921875 1.417969 -0.949219 C 1.328125 -0.972656 1.230469 -0.996094 1.121094 -1.011719 C 1.011719 -1.03125 0.902344 -1.050781 0.792969 -1.074219 C 0.683594 -1.097656 0.585938 -1.132812 0.496094 -1.179688 C 0.410156 -1.226562 0.335938 -1.289062 0.28125 -1.367188 C 0.226562 -1.449219 0.199219 -1.554688 0.199219 -1.6875 C 0.199219 -1.816406 0.234375 -1.929688 0.308594 -2.03125 C 0.378906 -2.132812 0.480469 -2.210938 0.621094 -2.269531 C 0.757812 -2.328125 0.925781 -2.355469 1.125 -2.355469 C 1.277344 -2.355469 1.425781 -2.335938 1.578125 -2.296875 C 1.730469 -2.257812 1.851562 -2.203125 1.949219 -2.136719 L 1.8125 -1.882812 C 1.710938 -1.953125 1.597656 -2.007812 1.480469 -2.039062 C 1.363281 -2.070312 1.242188 -2.085938 1.125 -2.085938 C 0.914062 -2.085938 0.757812 -2.046875 0.660156 -1.976562 C 0.5625 -1.902344 0.511719 -1.808594 0.511719 -1.699219 C 0.511719 -1.609375 0.539062 -1.539062 0.59375 -1.488281 C 0.648438 -1.4375 0.722656 -1.398438 0.8125 -1.371094 C 0.902344 -1.34375 1 -1.320312 1.109375 -1.300781 C 1.21875 -1.285156 1.324219 -1.261719 1.433594 -1.238281 C 1.542969 -1.210938 1.640625 -1.179688 1.730469 -1.136719 C 1.820312 -1.09375 1.894531 -1.03125 1.949219 -0.953125 C 2.003906 -0.875 2.03125 -0.773438 2.03125 -0.644531 C 2.03125 -0.507812 1.992188 -0.390625 1.917969 -0.292969 C 1.84375 -0.191406 1.734375 -0.113281 1.589844 -0.0585938 C 1.445312 -0.00390625 1.269531 0.0234375 1.066406 0.0234375 Z "/>
</g>
<g id="glyph-0-1">
<path d="M 1.390625 0.0234375 C 1.164062 0.0234375 0.964844 -0.0273438 0.785156 -0.132812 C 0.605469 -0.234375 0.464844 -0.375 0.359375 -0.554688 C 0.257812 -0.734375 0.203125 -0.9375 0.203125 -1.167969 C 0.203125 -1.402344 0.257812 -1.609375 0.359375 -1.785156 C 0.464844 -1.964844 0.605469 -2.105469 0.78125 -2.203125 C 0.960938 -2.304688 1.164062 -2.355469 1.390625 -2.355469 C 1.621094 -2.355469 1.828125 -2.304688 2.007812 -2.203125 C 2.1875 -2.101562 2.328125 -1.964844 2.429688 -1.785156 C 2.53125 -1.609375 2.582031 -1.402344 2.582031 -1.167969 C 2.582031 -0.9375 2.53125 -0.734375 2.429688 -0.554688 C 2.328125 -0.375 2.183594 -0.234375 2.003906 -0.132812 C 1.824219 -0.03125 1.621094 0.0234375 1.390625 0.0234375 Z M 1.390625 -0.257812 C 1.558594 -0.257812 1.710938 -0.296875 1.839844 -0.371094 C 1.96875 -0.445312 2.074219 -0.554688 2.148438 -0.691406 C 2.222656 -0.828125 2.261719 -0.988281 2.261719 -1.167969 C 2.261719 -1.351562 2.222656 -1.511719 2.148438 -1.648438 C 2.074219 -1.785156 1.96875 -1.890625 1.839844 -1.964844 C 1.710938 -2.042969 1.5625 -2.078125 1.394531 -2.078125 C 1.230469 -2.078125 1.082031 -2.042969 0.949219 -1.964844 C 0.820312 -1.890625 0.71875 -1.785156 0.640625 -1.648438 C 0.5625 -1.511719 0.523438 -1.351562 0.523438 -1.167969 C 0.523438 -0.988281 0.5625 -0.828125 0.640625 -0.691406 C 0.71875 -0.554688 0.820312 -0.445312 0.949219 -0.371094 C 1.082031 -0.296875 1.226562 -0.257812 1.390625 -0.257812 Z "/>
</g>
<g id="glyph-0-2">
<path d="M 0.441406 0 L 0.441406 -3.296875 L 0.753906 -3.296875 L 0.753906 0 Z "/>
</g>
<g id="glyph-0-3">
<path d="M 0.441406 0 L 0.441406 -2.332031 L 0.753906 -2.332031 L 0.753906 0 Z M 0.601562 -2.847656 C 0.535156 -2.847656 0.480469 -2.871094 0.433594 -2.914062 C 0.390625 -2.960938 0.367188 -3.011719 0.367188 -3.074219 C 0.367188 -3.136719 0.390625 -3.191406 0.433594 -3.234375 C 0.480469 -3.277344 0.535156 -3.296875 0.601562 -3.296875 C 0.664062 -3.296875 0.71875 -3.277344 0.765625 -3.234375 C 0.808594 -3.195312 0.832031 -3.140625 0.832031 -3.078125 C 0.832031 -3.015625 0.808594 -2.960938 0.765625 -2.914062 C 0.722656 -2.871094 0.667969 -2.847656 0.601562 -2.847656 Z "/>
</g>
<g id="glyph-0-4">
<path d="M 1.367188 0.0234375 C 1.144531 0.0234375 0.949219 -0.0273438 0.769531 -0.128906 C 0.59375 -0.230469 0.457031 -0.371094 0.355469 -0.550781 C 0.253906 -0.730469 0.203125 -0.933594 0.203125 -1.167969 C 0.203125 -1.40625 0.253906 -1.613281 0.355469 -1.792969 C 0.457031 -1.96875 0.59375 -2.105469 0.769531 -2.207031 C 0.945312 -2.304688 1.148438 -2.355469 1.367188 -2.355469 C 1.574219 -2.355469 1.757812 -2.308594 1.917969 -2.21875 C 2.078125 -2.125 2.207031 -1.992188 2.304688 -1.816406 C 2.402344 -1.640625 2.449219 -1.421875 2.449219 -1.167969 C 2.449219 -0.917969 2.402344 -0.703125 2.304688 -0.523438 C 2.210938 -0.347656 2.082031 -0.210938 1.921875 -0.117188 C 1.761719 -0.0234375 1.578125 0.0234375 1.367188 0.0234375 Z M 1.390625 -0.257812 C 1.558594 -0.257812 1.707031 -0.296875 1.835938 -0.371094 C 1.96875 -0.445312 2.074219 -0.554688 2.148438 -0.691406 C 2.222656 -0.828125 2.261719 -0.988281 2.261719 -1.167969 C 2.261719 -1.351562 2.222656 -1.511719 2.148438 -1.648438 C 2.074219 -1.785156 1.96875 -1.890625 1.835938 -1.964844 C 1.707031 -2.042969 1.558594 -2.078125 1.390625 -2.078125 C 1.226562 -2.078125 1.082031 -2.042969 0.949219 -1.964844 C 0.820312 -1.890625 0.71875 -1.785156 0.640625 -1.648438 C 0.5625 -1.511719 0.523438 -1.351562 0.523438 -1.167969 C 0.523438 -0.988281 0.5625 -0.828125 0.640625 -0.691406 C 0.71875 -0.554688 0.820312 -0.445312 0.949219 -0.371094 C 1.082031 -0.296875 1.226562 -0.257812 1.390625 -0.257812 Z M 2.269531 0 L 2.269531 -0.703125 L 2.300781 -1.171875 L 2.257812 -1.644531 L 2.257812 -3.296875 L 2.574219 -3.296875 L 2.574219 0 Z "/>
</g>
<g id="glyph-0-5">
<rect x="0" y="0" width="0" height="0" mask="url(#mask-0)"/>
</g>
<g id="glyph-1-0">
<path d="M 1.371094 0.0820312 C 1.238281 -0.164062 1.132812 -0.339844 1.0625 -0.457031 L 0.945312 -0.636719 L 0.859375 -0.769531 C 0.667969 -1.0625 0.472656 -1.308594 0.265625 -1.5 C 0.382812 -1.597656 0.492188 -1.644531 0.59375 -1.644531 C 0.71875 -1.644531 0.828125 -1.597656 0.925781 -1.507812 C 1.023438 -1.417969 1.144531 -1.242188 1.292969 -0.988281 C 1.460938 -1.53125 1.675781 -2.050781 1.933594 -2.539062 C 2.078125 -2.804688 2.203125 -2.984375 2.316406 -3.074219 C 2.429688 -3.167969 2.578125 -3.214844 2.761719 -3.214844 C 2.859375 -3.214844 2.980469 -3.199219 3.128906 -3.167969 C 2.757812 -2.867188 2.457031 -2.511719 2.234375 -2.101562 C 2.011719 -1.6875 1.722656 -0.960938 1.371094 0.0820312 Z "/>
</g>
</g>
<image id="source-152" x="0" y="0" width="0" height="0"/>
<mask id="mask-0">
<use xlink:href="#source-152"/>
</mask>
</defs>
<g fill="rgb(74.901961%, 20%, 22.352941%)" fill-opacity="1">
<use xlink:href="#glyph-0-0" x="30" y="24.301758"/>
<use xlink:href="#glyph-0-1" x="32" y="24.301758"/>
<use xlink:href="#glyph-0-2" x="35" y="24.301758"/>
<use xlink:href="#glyph-0-3" x="36" y="24.301758"/>
<use xlink:href="#glyph-0-4" x="37" y="24.301758"/>
<use xlink:href="#glyph-0-5" x="40" y="24.301758"/>
</g>
<g fill="rgb(74.901961%, 20%, 22.352941%)" fill-opacity="1">
<use xlink:href="#glyph-1-0" x="41" y="24.301758"/>
</g>
</svg>
