<?xml version="1.0" encoding="UTF-8"?>
<svg xmlns="http://www.w3.org/2000/svg" xmlns:xlink="http://www.w3.org/1999/xlink" width="1920" height="1080" viewBox="0 0 1920 1080">
<defs>
<g>
<g id="glyph-0-0">
<path d="M 0.214844 -0.292969 L 1.75 -2.433594 L 0.214844 -2.433594 L 0.214844 -2.722656 L 2.121094 -2.722656 L 2.121094 -2.429688 L 0.574219 -0.289062 L 2.121094 -0.289062 L 2.121094 0 L 0.214844 0 Z "/>
</g>
<g id="glyph-0-1">
<path d="M 0.390625 -2.695312 C 0.488281 -2.71875 0.59375 -2.734375 0.707031 -2.742188 C 0.820312 -2.75 0.933594 -2.753906 1.046875 -2.753906 C 1.164062 -2.753906 1.285156 -2.742188 1.410156 -2.71875 C 1.535156 -2.695312 1.644531 -2.652344 1.746094 -2.589844 C 1.847656 -2.527344 1.929688 -2.441406 1.992188 -2.332031 C 2.054688 -2.222656 2.089844 -2.085938 2.089844 -1.917969 C 2.089844 -1.75 2.058594 -1.613281 2 -1.496094 C 1.941406 -1.382812 1.859375 -1.289062 1.761719 -1.21875 C 1.664062 -1.148438 1.550781 -1.097656 1.421875 -1.066406 C 1.296875 -1.035156 1.164062 -1.019531 1.03125 -1.019531 C 1.019531 -1.019531 0.996094 -1.019531 0.964844 -1.019531 C 0.9375 -1.019531 0.90625 -1.019531 0.875 -1.019531 C 0.839844 -1.023438 0.808594 -1.023438 0.777344 -1.027344 C 0.746094 -1.03125 0.726562 -1.03125 0.710938 -1.035156 L 0.710938 0 L 0.390625 0 Z M 1.054688 -2.472656 C 0.988281 -2.472656 0.921875 -2.472656 0.859375 -2.46875 C 0.796875 -2.46875 0.75 -2.460938 0.710938 -2.449219 L 0.710938 -1.324219 C 0.722656 -1.316406 0.746094 -1.3125 0.773438 -1.3125 C 0.800781 -1.3125 0.832031 -1.308594 0.863281 -1.308594 C 0.894531 -1.308594 0.925781 -1.308594 0.953125 -1.308594 C 0.980469 -1.308594 1.003906 -1.308594 1.015625 -1.308594 C 1.101562 -1.308594 1.191406 -1.316406 1.277344 -1.332031 C 1.363281 -1.347656 1.441406 -1.378906 1.511719 -1.421875 C 1.582031 -1.46875 1.640625 -1.53125 1.683594 -1.609375 C 1.726562 -1.691406 1.746094 -1.792969 1.746094 -1.917969 C 1.746094 -2.023438 1.726562 -2.113281 1.6875 -2.183594 C 1.644531 -2.253906 1.59375 -2.3125 1.527344 -2.355469 C 1.460938 -2.398438 1.386719 -2.429688 1.304688 -2.445312 C 1.21875 -2.464844 1.136719 -2.472656 1.054688 -2.472656 Z "/>
</g>
<g id="glyph-0-2">
<path d="M 0.417969 -2.722656 L 2.015625 -2.722656 L 2.015625 -2.433594 L 0.738281 -2.433594 L 0.738281 -1.542969 L 1.917969 -1.542969 L 1.917969 -1.257812 L 0.738281 -1.257812 L 0.738281 -0.289062 L 2.035156 -0.289062 L 2.035156 0 L 0.417969 0 Z "/>
</g>
</g>
</defs>
<g fill="rgb(12.156863%, 43.529412%, 36.078431%)" fill-opacity="1">
<use xlink:href="#glyph-0-0" x="30" y="23.442383"/>
<use xlink:href="#glyph-0-1" x="32" y="23.442383"/>
<use xlink:href="#glyph-0-2" x="34" y="23.442383"/>
</g>
</svg>
