<?xml version="1.0" encoding="UTF-8"?>
<svg xmlns="http://www.w3.org/2000/svg" xmlns:xlink="http://www.w3.org/1999/xlink" width="1280" height="720" viewBox="0 0 1280 720">
<defs>
<g>
<g id="glyph-0-0">
<path d="M 1.066406 0.0742188 C 0.882812 0.0742188 0.722656 0.03125 0.585938 -0.0585938 C 0.449219 -0.148438 0.339844 -0.277344 0.265625 -0.441406 C 0.1875 -0.605469 0.148438 -0.796875 0.148438 -1.015625 C 0.148438 -1.207031 0.195312 -1.382812 0.28125 -1.542969 C 0.371094 -1.699219 0.488281 -1.828125 0.636719 -1.925781 C 0.78125 -2.023438 0.941406 -2.070312 1.113281 -2.070312 C 1.246094 -2.070312 1.367188 -2.042969 1.46875 -1.988281 C 1.574219 -1.9375 1.652344 -1.863281 1.710938 -1.765625 C 1.769531 -1.671875 1.800781 -1.5625 1.800781 -1.441406 C 1.800781 -1.335938 1.75 -1.285156 1.648438 -1.285156 L 0.59375 -1.285156 C 0.546875 -1.285156 0.515625 -1.273438 0.496094 -1.246094 C 0.480469 -1.222656 0.46875 -1.171875 0.46875 -1.101562 C 0.46875 -0.941406 0.503906 -0.792969 0.574219 -0.664062 C 0.644531 -0.53125 0.738281 -0.425781 0.855469 -0.347656 C 0.972656 -0.269531 1.101562 -0.230469 1.238281 -0.230469 C 1.339844 -0.230469 1.429688 -0.25 1.511719 -0.289062 C 1.59375 -0.328125 1.667969 -0.382812 1.730469 -0.453125 C 1.742188 -0.472656 1.753906 -0.484375 1.761719 -0.488281 C 1.765625 -0.492188 1.773438 -0.496094 1.785156 -0.496094 C 1.8125 -0.496094 1.824219 -0.476562 1.824219 -0.445312 C 1.824219 -0.382812 1.796875 -0.3125 1.734375 -0.234375 C 1.683594 -0.171875 1.625 -0.117188 1.554688 -0.0703125 C 1.484375 -0.0234375 1.410156 0.0117188 1.324219 0.0390625 C 1.242188 0.0625 1.15625 0.0742188 1.066406 0.0742188 Z M 0.605469 -1.441406 L 1.058594 -1.441406 C 1.140625 -1.441406 1.207031 -1.441406 1.265625 -1.445312 C 1.320312 -1.449219 1.375 -1.453125 1.429688 -1.464844 C 1.445312 -1.46875 1.457031 -1.480469 1.460938 -1.496094 C 1.46875 -1.515625 1.46875 -1.542969 1.46875 -1.574219 C 1.46875 -1.671875 1.425781 -1.753906 1.34375 -1.824219 C 1.257812 -1.890625 1.15625 -1.925781 1.039062 -1.925781 C 0.964844 -1.925781 0.886719 -1.902344 0.808594 -1.859375 C 0.734375 -1.8125 0.671875 -1.757812 0.621094 -1.691406 C 0.570312 -1.625 0.546875 -1.558594 0.546875 -1.488281 C 0.546875 -1.457031 0.566406 -1.441406 0.605469 -1.441406 Z "/>
</g>
<g id="glyph-0-1">
<path d="M 0.210938 -2.835938 C 0.195312 -2.835938 0.183594 -2.84375 0.175781 -2.859375 C 0.164062 -2.875 0.160156 -2.890625 0.160156 -2.898438 C 0.160156 -2.914062 0.164062 -2.941406 0.175781 -2.988281 C 0.183594 -3.035156 0.207031 -3.058594 0.238281 -3.058594 L 1.671875 -3.058594 C 1.683594 -3.058594 1.695312 -3.050781 1.703125 -3.035156 C 1.710938 -3.019531 1.714844 -3.003906 1.714844 -2.996094 C 1.714844 -2.960938 1.707031 -2.925781 1.691406 -2.890625 C 1.671875 -2.855469 1.648438 -2.835938 1.609375 -2.835938 Z "/>
</g>
<g id="glyph-0-2">
<rect x="0" y="0" width="0" height="0" mask="url(#mask-0)"/>
</g>
<g id="glyph-0-3">
<path d="M 1.183594 1.070312 C 1.152344 1.070312 1.125 1.058594 1.101562 1.035156 C 1.03125 0.964844 0.953125 0.863281 0.871094 0.734375 C 0.789062 0.605469 0.710938 0.457031 0.628906 0.289062 C 0.550781 0.121094 0.476562 -0.0546875 0.414062 -0.242188 C 0.347656 -0.429688 0.296875 -0.621094 0.257812 -0.808594 C 0.21875 -0.996094 0.199219 -1.175781 0.199219 -1.34375 C 0.199219 -1.558594 0.226562 -1.773438 0.285156 -1.984375 C 0.339844 -2.199219 0.414062 -2.402344 0.503906 -2.59375 C 0.59375 -2.785156 0.691406 -2.957031 0.792969 -3.109375 C 0.894531 -3.261719 0.988281 -3.378906 1.078125 -3.46875 C 1.097656 -3.484375 1.117188 -3.5 1.140625 -3.511719 C 1.167969 -3.519531 1.191406 -3.523438 1.214844 -3.523438 C 1.230469 -3.523438 1.253906 -3.515625 1.28125 -3.503906 C 1.308594 -3.488281 1.324219 -3.46875 1.324219 -3.445312 C 1.324219 -3.441406 1.320312 -3.433594 1.308594 -3.421875 C 1.300781 -3.40625 1.289062 -3.390625 1.28125 -3.378906 C 1.269531 -3.363281 1.261719 -3.351562 1.261719 -3.351562 C 1.160156 -3.234375 1.058594 -3.078125 0.960938 -2.878906 C 0.859375 -2.683594 0.777344 -2.460938 0.710938 -2.207031 C 0.648438 -1.957031 0.613281 -1.6875 0.613281 -1.40625 C 0.613281 -1.191406 0.632812 -0.972656 0.671875 -0.742188 C 0.707031 -0.515625 0.753906 -0.292969 0.816406 -0.0820312 C 0.875 0.128906 0.941406 0.316406 1.015625 0.484375 C 1.09375 0.648438 1.167969 0.773438 1.246094 0.863281 C 1.25 0.867188 1.253906 0.875 1.265625 0.890625 C 1.277344 0.902344 1.289062 0.917969 1.300781 0.933594 C 1.3125 0.949219 1.320312 0.957031 1.320312 0.960938 C 1.320312 0.992188 1.304688 1.019531 1.277344 1.039062 C 1.25 1.058594 1.21875 1.070312 1.183594 1.070312 Z "/>
</g>
<g id="glyph-0-4">
<path d="M 0.300781 0.0234375 C 0.257812 0.0234375 0.222656 0.0195312 0.195312 0.0117188 C 0.167969 0.00390625 0.15625 -0.0117188 0.15625 -0.03125 C 0.15625 -0.0703125 0.210938 -0.101562 0.320312 -0.121094 C 0.445312 -0.144531 0.535156 -0.183594 0.582031 -0.238281 C 0.628906 -0.292969 0.65625 -0.382812 0.65625 -0.503906 L 0.65625 -2.753906 C 0.65625 -2.871094 0.628906 -2.953125 0.582031 -3.003906 C 0.535156 -3.050781 0.445312 -3.085938 0.320312 -3.109375 C 0.210938 -3.128906 0.15625 -3.164062 0.15625 -3.210938 C 0.15625 -3.230469 0.167969 -3.246094 0.195312 -3.253906 C 0.222656 -3.261719 0.257812 -3.265625 0.300781 -3.265625 C 0.390625 -3.265625 0.460938 -3.265625 0.515625 -3.261719 C 0.570312 -3.261719 0.625 -3.257812 0.675781 -3.257812 C 0.726562 -3.257812 0.785156 -3.253906 0.859375 -3.253906 C 0.921875 -3.253906 0.972656 -3.253906 1.011719 -3.257812 C 1.050781 -3.257812 1.09375 -3.261719 1.140625 -3.261719 C 1.1875 -3.265625 1.253906 -3.265625 1.34375 -3.265625 C 1.386719 -3.265625 1.421875 -3.261719 1.449219 -3.253906 C 1.476562 -3.246094 1.488281 -3.230469 1.488281 -3.210938 C 1.488281 -3.1875 1.476562 -3.167969 1.449219 -3.148438 C 1.421875 -3.132812 1.382812 -3.121094 1.324219 -3.109375 C 1.203125 -3.085938 1.125 -3.046875 1.097656 -2.988281 C 1.070312 -2.929688 1.054688 -2.851562 1.054688 -2.753906 L 1.054688 -1.820312 C 1.054688 -1.808594 1.054688 -1.789062 1.058594 -1.761719 C 1.058594 -1.738281 1.066406 -1.726562 1.078125 -1.726562 C 1.097656 -1.726562 1.121094 -1.734375 1.148438 -1.753906 C 1.175781 -1.773438 1.199219 -1.796875 1.214844 -1.816406 L 2.214844 -2.835938 C 2.242188 -2.863281 2.261719 -2.886719 2.273438 -2.914062 C 2.285156 -2.9375 2.289062 -2.960938 2.289062 -2.984375 C 2.289062 -3.042969 2.257812 -3.082031 2.195312 -3.101562 C 2.136719 -3.117188 2.097656 -3.132812 2.074219 -3.144531 C 2.050781 -3.15625 2.039062 -3.175781 2.039062 -3.199219 C 2.039062 -3.21875 2.054688 -3.234375 2.078125 -3.242188 C 2.105469 -3.25 2.140625 -3.253906 2.183594 -3.253906 L 2.453125 -3.253906 C 2.550781 -3.253906 2.660156 -3.257812 2.773438 -3.261719 C 2.890625 -3.265625 2.996094 -3.265625 3.09375 -3.269531 C 3.1875 -3.273438 3.246094 -3.273438 3.265625 -3.273438 C 3.296875 -3.273438 3.324219 -3.269531 3.34375 -3.261719 C 3.363281 -3.25 3.375 -3.238281 3.375 -3.21875 C 3.375 -3.195312 3.363281 -3.175781 3.335938 -3.160156 C 3.308594 -3.144531 3.265625 -3.128906 3.210938 -3.121094 C 3.085938 -3.097656 2.957031 -3.058594 2.824219 -3.011719 C 2.691406 -2.960938 2.566406 -2.886719 2.449219 -2.789062 C 2.328125 -2.691406 2.21875 -2.59375 2.117188 -2.496094 C 2.015625 -2.402344 1.914062 -2.304688 1.816406 -2.203125 C 1.714844 -2.101562 1.605469 -1.984375 1.488281 -1.855469 C 1.46875 -1.835938 1.476562 -1.804688 1.515625 -1.765625 L 2.726562 -0.476562 C 2.800781 -0.394531 2.859375 -0.332031 2.902344 -0.289062 C 2.949219 -0.246094 2.996094 -0.210938 3.050781 -0.1875 C 3.105469 -0.164062 3.183594 -0.140625 3.273438 -0.121094 C 3.332031 -0.105469 3.375 -0.09375 3.398438 -0.0820312 C 3.425781 -0.0703125 3.441406 -0.0546875 3.441406 -0.03125 C 3.441406 -0.0117188 3.425781 0.00390625 3.398438 0.0117188 C 3.371094 0.0195312 3.339844 0.0234375 3.296875 0.0234375 C 3.199219 0.0234375 3.113281 0.0234375 3.046875 0.015625 C 2.976562 0.0117188 2.90625 0.0078125 2.839844 0.00390625 C 2.773438 0 2.691406 0 2.601562 0 C 2.539062 0 2.480469 0 2.433594 0.00390625 C 2.386719 0.00390625 2.308594 0.00390625 2.195312 0.00390625 C 2.152344 0.00390625 2.117188 0 2.089844 -0.0078125 C 2.0625 -0.015625 2.050781 -0.03125 2.050781 -0.0507812 C 2.050781 -0.0859375 2.09375 -0.113281 2.183594 -0.136719 C 2.277344 -0.160156 2.324219 -0.191406 2.324219 -0.234375 C 2.324219 -0.253906 2.316406 -0.273438 2.300781 -0.296875 C 2.285156 -0.316406 2.269531 -0.335938 2.25 -0.359375 L 1.191406 -1.53125 C 1.171875 -1.550781 1.148438 -1.570312 1.128906 -1.585938 C 1.105469 -1.605469 1.089844 -1.613281 1.074219 -1.613281 C 1.0625 -1.613281 1.054688 -1.601562 1.054688 -1.574219 C 1.054688 -1.546875 1.054688 -1.527344 1.054688 -1.511719 C 1.054688 -1.355469 1.058594 -1.203125 1.0625 -1.0625 C 1.066406 -0.921875 1.074219 -0.75 1.078125 -0.550781 C 1.082031 -0.480469 1.09375 -0.414062 1.113281 -0.355469 C 1.132812 -0.296875 1.164062 -0.246094 1.207031 -0.203125 C 1.253906 -0.164062 1.316406 -0.136719 1.398438 -0.121094 C 1.457031 -0.109375 1.5 -0.0976562 1.523438 -0.0859375 C 1.550781 -0.0703125 1.566406 -0.0546875 1.566406 -0.03125 C 1.566406 -0.0117188 1.550781 0.00390625 1.523438 0.0117188 C 1.496094 0.0195312 1.464844 0.0234375 1.421875 0.0234375 C 1.332031 0.0234375 1.261719 0.0234375 1.210938 0.015625 C 1.164062 0.0078125 1.121094 0.00390625 1.082031 -0.00390625 C 1.042969 -0.0078125 0.992188 -0.0117188 0.929688 -0.0117188 C 0.851562 -0.0117188 0.777344 -0.0078125 0.71875 -0.00390625 C 0.65625 0.00390625 0.59375 0.0078125 0.53125 0.015625 C 0.46875 0.0234375 0.390625 0.0234375 0.300781 0.0234375 Z "/>
</g>
<g id="glyph-0-5">
<path d="M 0.320312 -1.570312 C 0.304688 -1.570312 0.289062 -1.578125 0.273438 -1.589844 C 0.257812 -1.601562 0.25 -1.617188 0.25 -1.628906 C 0.25 -1.644531 0.253906 -1.671875 0.261719 -1.699219 C 0.269531 -1.730469 0.285156 -1.757812 0.300781 -1.78125 C 0.316406 -1.808594 0.339844 -1.820312 0.371094 -1.820312 L 2.511719 -1.820312 C 2.527344 -1.820312 2.542969 -1.816406 2.558594 -1.804688 C 2.574219 -1.792969 2.578125 -1.78125 2.578125 -1.765625 C 2.578125 -1.730469 2.5625 -1.691406 2.53125 -1.640625 C 2.496094 -1.59375 2.460938 -1.570312 2.421875 -1.570312 Z M 0.320312 -0.714844 C 0.304688 -0.714844 0.289062 -0.722656 0.273438 -0.734375 C 0.257812 -0.75 0.25 -0.761719 0.25 -0.773438 C 0.25 -0.792969 0.253906 -0.816406 0.261719 -0.84375 C 0.269531 -0.875 0.285156 -0.902344 0.300781 -0.925781 C 0.316406 -0.953125 0.339844 -0.964844 0.371094 -0.964844 L 2.511719 -0.964844 C 2.527344 -0.964844 2.542969 -0.960938 2.558594 -0.949219 C 2.574219 -0.941406 2.578125 -0.925781 2.578125 -0.910156 C 2.578125 -0.867188 2.5625 -0.824219 2.53125 -0.78125 C 2.496094 -0.738281 2.460938 -0.714844 2.421875 -0.714844 Z "/>
</g>
<g id="glyph-0-6">
<path d="M 0.535156 0.015625 C 0.511719 0.015625 0.492188 0.0078125 0.480469 -0.00390625 C 0.46875 -0.0195312 0.460938 -0.03125 0.460938 -0.046875 C 0.460938 -0.0742188 0.484375 -0.0976562 0.535156 -0.109375 C 0.660156 -0.144531 0.765625 -0.175781 0.847656 -0.203125 C 0.929688 -0.230469 0.988281 -0.269531 1.027344 -0.324219 C 1.066406 -0.375 1.085938 -0.449219 1.085938 -0.546875 L 1.085938 -2.453125 C 1.085938 -2.519531 1.066406 -2.566406 1.023438 -2.601562 C 0.984375 -2.632812 0.933594 -2.65625 0.871094 -2.671875 C 0.808594 -2.683594 0.738281 -2.691406 0.664062 -2.695312 C 0.632812 -2.699219 0.601562 -2.707031 0.574219 -2.71875 C 0.546875 -2.734375 0.535156 -2.753906 0.535156 -2.78125 C 0.535156 -2.804688 0.546875 -2.824219 0.574219 -2.839844 C 0.597656 -2.855469 0.625 -2.867188 0.660156 -2.871094 C 0.808594 -2.894531 0.945312 -2.921875 1.0625 -2.957031 C 1.179688 -2.992188 1.296875 -3.066406 1.410156 -3.179688 C 1.414062 -3.183594 1.417969 -3.183594 1.421875 -3.183594 C 1.425781 -3.183594 1.433594 -3.183594 1.433594 -3.183594 C 1.453125 -3.183594 1.464844 -3.179688 1.480469 -3.171875 C 1.492188 -3.164062 1.5 -3.152344 1.496094 -3.140625 C 1.488281 -3.089844 1.484375 -3.035156 1.480469 -2.976562 C 1.476562 -2.917969 1.476562 -2.855469 1.476562 -2.785156 L 1.476562 -0.484375 C 1.476562 -0.402344 1.492188 -0.339844 1.523438 -0.296875 C 1.554688 -0.253906 1.609375 -0.21875 1.683594 -0.191406 C 1.761719 -0.167969 1.867188 -0.136719 2.003906 -0.105469 C 2.023438 -0.101562 2.042969 -0.09375 2.0625 -0.0820312 C 2.082031 -0.0703125 2.089844 -0.0585938 2.089844 -0.0390625 C 2.089844 -0.00390625 2.066406 0.015625 2.019531 0.015625 C 1.925781 0.015625 1.839844 0.0117188 1.761719 0.0078125 C 1.683594 0.00390625 1.609375 0 1.53125 -0.00390625 C 1.457031 -0.0078125 1.375 -0.0117188 1.285156 -0.0117188 C 1.195312 -0.0117188 1.109375 -0.0078125 1.03125 -0.00390625 C 0.949219 0 0.871094 0.00390625 0.789062 0.0078125 C 0.710938 0.0117188 0.625 0.015625 0.535156 0.015625 Z "/>
</g>
<g id="glyph-0-7">
<path d="M 0.574219 0.0703125 C 0.5 0.0703125 0.4375 0.0429688 0.382812 -0.0117188 C 0.328125 -0.0664062 0.300781 -0.132812 0.300781 -0.203125 C 0.300781 -0.28125 0.328125 -0.347656 0.382812 -0.398438 C 0.4375 -0.453125 0.5 -0.480469 0.574219 -0.480469 C 0.652344 -0.480469 0.714844 -0.453125 0.769531 -0.398438 C 0.824219 -0.347656 0.851562 -0.28125 0.851562 -0.203125 C 0.851562 -0.132812 0.824219 -0.0664062 0.769531 -0.0117188 C 0.714844 0.0429688 0.652344 0.0703125 0.574219 0.0703125 Z "/>
</g>
<g id="glyph-0-8">
<path d="M 1.210938 0.0703125 C 1.058594 0.0703125 0.914062 0.0390625 0.777344 -0.0273438 C 0.640625 -0.09375 0.535156 -0.183594 0.449219 -0.300781 C 0.367188 -0.417969 0.324219 -0.550781 0.324219 -0.703125 C 0.324219 -0.851562 0.363281 -0.976562 0.441406 -1.078125 C 0.515625 -1.183594 0.609375 -1.269531 0.710938 -1.335938 C 0.816406 -1.40625 0.910156 -1.464844 0.996094 -1.511719 C 1.019531 -1.523438 1.027344 -1.535156 1.019531 -1.539062 C 1.011719 -1.546875 1 -1.558594 0.980469 -1.574219 C 0.878906 -1.660156 0.785156 -1.746094 0.699219 -1.824219 C 0.609375 -1.902344 0.539062 -1.988281 0.484375 -2.085938 C 0.429688 -2.183594 0.398438 -2.304688 0.398438 -2.445312 C 0.398438 -2.574219 0.445312 -2.691406 0.535156 -2.800781 C 0.625 -2.90625 0.738281 -2.992188 0.878906 -3.054688 C 1.019531 -3.117188 1.164062 -3.148438 1.308594 -3.148438 C 1.441406 -3.148438 1.570312 -3.121094 1.691406 -3.066406 C 1.8125 -3.011719 1.914062 -2.933594 1.988281 -2.835938 C 2.066406 -2.734375 2.105469 -2.617188 2.105469 -2.480469 C 2.105469 -2.359375 2.074219 -2.261719 2.015625 -2.1875 C 1.957031 -2.113281 1.898438 -2.050781 1.839844 -2 C 1.792969 -1.960938 1.75 -1.925781 1.714844 -1.898438 C 1.679688 -1.871094 1.632812 -1.832031 1.574219 -1.789062 C 1.53125 -1.757812 1.511719 -1.738281 1.511719 -1.726562 C 1.511719 -1.714844 1.523438 -1.703125 1.550781 -1.683594 C 1.675781 -1.597656 1.789062 -1.511719 1.886719 -1.429688 C 1.980469 -1.347656 2.058594 -1.257812 2.113281 -1.160156 C 2.167969 -1.0625 2.195312 -0.949219 2.195312 -0.820312 C 2.195312 -0.648438 2.148438 -0.492188 2.050781 -0.359375 C 1.953125 -0.226562 1.828125 -0.121094 1.679688 -0.046875 C 1.53125 0.03125 1.375 0.0703125 1.210938 0.0703125 Z M 1.28125 -0.0742188 C 1.425781 -0.0742188 1.550781 -0.128906 1.648438 -0.238281 C 1.746094 -0.347656 1.796875 -0.472656 1.796875 -0.621094 C 1.796875 -0.722656 1.765625 -0.820312 1.707031 -0.914062 C 1.648438 -1.007812 1.574219 -1.097656 1.484375 -1.175781 C 1.394531 -1.257812 1.300781 -1.332031 1.203125 -1.398438 C 1.183594 -1.417969 1.167969 -1.429688 1.152344 -1.4375 C 1.136719 -1.445312 1.121094 -1.449219 1.105469 -1.449219 C 1.09375 -1.449219 1.070312 -1.441406 1.046875 -1.421875 C 0.9375 -1.332031 0.859375 -1.246094 0.804688 -1.15625 C 0.75 -1.070312 0.726562 -0.945312 0.726562 -0.785156 C 0.726562 -0.667969 0.746094 -0.554688 0.789062 -0.449219 C 0.832031 -0.339844 0.898438 -0.25 0.980469 -0.179688 C 1.0625 -0.109375 1.164062 -0.0742188 1.28125 -0.0742188 Z M 1.441406 -1.789062 C 1.558594 -1.886719 1.632812 -1.992188 1.667969 -2.109375 C 1.703125 -2.226562 1.71875 -2.363281 1.71875 -2.515625 C 1.71875 -2.65625 1.683594 -2.777344 1.613281 -2.878906 C 1.542969 -2.980469 1.433594 -3.03125 1.285156 -3.03125 C 1.207031 -3.03125 1.132812 -3.007812 1.054688 -2.964844 C 0.976562 -2.921875 0.914062 -2.863281 0.863281 -2.789062 C 0.8125 -2.714844 0.785156 -2.636719 0.785156 -2.546875 C 0.785156 -2.417969 0.808594 -2.316406 0.859375 -2.246094 C 0.90625 -2.171875 0.972656 -2.105469 1.0625 -2.042969 C 1.152344 -1.980469 1.253906 -1.902344 1.371094 -1.804688 C 1.378906 -1.796875 1.390625 -1.792969 1.40625 -1.789062 C 1.417969 -1.78125 1.429688 -1.785156 1.441406 -1.789062 Z "/>
</g>
<g id="glyph-0-9">
<path d="M 0.546875 0.191406 C 0.507812 0.191406 0.46875 0.1875 0.425781 0.175781 C 0.382812 0.167969 0.359375 0.152344 0.359375 0.128906 C 0.359375 0.101562 0.382812 0.0820312 0.425781 0.0625 C 0.472656 0.0429688 0.511719 0.0351562 0.539062 0.0351562 C 0.804688 0.0351562 1.019531 -0.0117188 1.191406 -0.109375 C 1.363281 -0.203125 1.492188 -0.320312 1.578125 -0.464844 C 1.664062 -0.609375 1.703125 -0.75 1.703125 -0.894531 C 1.703125 -1.023438 1.667969 -1.140625 1.589844 -1.238281 C 1.511719 -1.339844 1.386719 -1.433594 1.210938 -1.515625 C 1.035156 -1.597656 0.800781 -1.679688 0.503906 -1.753906 C 0.460938 -1.792969 0.429688 -1.828125 0.414062 -1.863281 C 0.394531 -1.902344 0.386719 -1.941406 0.386719 -1.984375 C 0.386719 -2.03125 0.394531 -2.089844 0.414062 -2.15625 C 0.429688 -2.222656 0.453125 -2.292969 0.480469 -2.367188 C 0.507812 -2.441406 0.535156 -2.515625 0.558594 -2.589844 C 0.585938 -2.664062 0.609375 -2.726562 0.625 -2.78125 C 0.640625 -2.832031 0.667969 -2.871094 0.699219 -2.898438 C 0.734375 -2.925781 0.777344 -2.945312 0.828125 -2.960938 C 0.90625 -2.980469 0.984375 -3 1.066406 -3.015625 C 1.144531 -3.03125 1.226562 -3.046875 1.316406 -3.0625 C 1.402344 -3.078125 1.492188 -3.089844 1.582031 -3.101562 C 1.675781 -3.113281 1.769531 -3.125 1.863281 -3.136719 C 1.890625 -3.140625 1.910156 -3.128906 1.921875 -3.113281 C 1.933594 -3.09375 1.933594 -3.074219 1.921875 -3.050781 C 1.90625 -3.023438 1.890625 -2.996094 1.878906 -2.96875 C 1.863281 -2.941406 1.847656 -2.910156 1.835938 -2.886719 C 1.8125 -2.835938 1.785156 -2.796875 1.757812 -2.773438 C 1.730469 -2.746094 1.691406 -2.730469 1.648438 -2.726562 C 1.585938 -2.71875 1.511719 -2.710938 1.429688 -2.703125 C 1.347656 -2.695312 1.261719 -2.6875 1.179688 -2.675781 C 1.097656 -2.667969 1.019531 -2.660156 0.949219 -2.65625 C 0.878906 -2.648438 0.828125 -2.640625 0.789062 -2.636719 C 0.765625 -2.632812 0.738281 -2.601562 0.703125 -2.546875 C 0.671875 -2.492188 0.640625 -2.433594 0.613281 -2.371094 C 0.585938 -2.308594 0.574219 -2.265625 0.570312 -2.238281 C 0.566406 -2.214844 0.570312 -2.195312 0.578125 -2.179688 C 0.585938 -2.164062 0.605469 -2.152344 0.636719 -2.144531 C 0.820312 -2.089844 0.992188 -2.039062 1.144531 -1.984375 C 1.296875 -1.929688 1.433594 -1.871094 1.546875 -1.808594 C 1.730469 -1.710938 1.871094 -1.597656 1.960938 -1.46875 C 2.054688 -1.335938 2.101562 -1.167969 2.101562 -0.964844 C 2.101562 -0.78125 2.046875 -0.609375 1.933594 -0.449219 C 1.824219 -0.289062 1.675781 -0.15625 1.488281 -0.0507812 C 1.398438 0 1.304688 0.0429688 1.203125 0.078125 C 1.105469 0.113281 1 0.140625 0.890625 0.160156 C 0.78125 0.179688 0.664062 0.191406 0.546875 0.191406 Z "/>
</g>
<g id="glyph-0-10">
<path d="M 1.589844 0.0585938 C 1.5625 0.0585938 1.546875 0.046875 1.535156 0.0234375 C 1.523438 -0.0117188 1.503906 -0.0625 1.484375 -0.121094 C 1.464844 -0.183594 1.445312 -0.238281 1.429688 -0.28125 L 0.515625 -2.734375 C 0.480469 -2.828125 0.4375 -2.90625 0.378906 -2.96875 C 0.324219 -3.03125 0.25 -3.078125 0.164062 -3.101562 C 0.113281 -3.117188 0.0703125 -3.132812 0.0429688 -3.148438 C 0.015625 -3.167969 0 -3.1875 0 -3.210938 C 0 -3.230469 0.0117188 -3.246094 0.0390625 -3.253906 C 0.0664062 -3.261719 0.101562 -3.265625 0.144531 -3.265625 C 0.199219 -3.265625 0.257812 -3.261719 0.324219 -3.261719 C 0.386719 -3.257812 0.457031 -3.253906 0.53125 -3.253906 C 0.605469 -3.25 0.679688 -3.25 0.753906 -3.25 C 0.820312 -3.25 0.886719 -3.25 0.953125 -3.253906 C 1.019531 -3.253906 1.078125 -3.253906 1.132812 -3.257812 C 1.1875 -3.257812 1.230469 -3.261719 1.265625 -3.261719 C 1.308594 -3.261719 1.34375 -3.253906 1.371094 -3.246094 C 1.398438 -3.238281 1.410156 -3.226562 1.410156 -3.203125 C 1.410156 -3.179688 1.398438 -3.160156 1.371094 -3.140625 C 1.34375 -3.125 1.300781 -3.113281 1.246094 -3.105469 C 1.152344 -3.09375 1.074219 -3.074219 1.011719 -3.042969 C 0.949219 -3.011719 0.921875 -2.964844 0.921875 -2.910156 C 0.921875 -2.851562 0.925781 -2.804688 0.941406 -2.761719 C 0.957031 -2.71875 0.96875 -2.6875 0.976562 -2.664062 L 1.695312 -0.765625 C 1.703125 -0.75 1.710938 -0.742188 1.71875 -0.738281 C 1.730469 -0.734375 1.738281 -0.746094 1.75 -0.769531 L 2.433594 -2.570312 C 2.5 -2.746094 2.503906 -2.875 2.449219 -2.957031 C 2.390625 -3.039062 2.308594 -3.085938 2.199219 -3.101562 C 2.148438 -3.105469 2.109375 -3.121094 2.078125 -3.136719 C 2.050781 -3.15625 2.035156 -3.175781 2.035156 -3.199219 C 2.035156 -3.21875 2.046875 -3.234375 2.074219 -3.242188 C 2.101562 -3.25 2.136719 -3.253906 2.179688 -3.253906 C 2.222656 -3.253906 2.273438 -3.253906 2.324219 -3.253906 C 2.378906 -3.253906 2.433594 -3.253906 2.492188 -3.253906 C 2.550781 -3.25 2.613281 -3.25 2.675781 -3.25 C 2.773438 -3.25 2.875 -3.253906 2.984375 -3.257812 C 3.09375 -3.261719 3.183594 -3.265625 3.246094 -3.265625 C 3.289062 -3.265625 3.324219 -3.261719 3.351562 -3.253906 C 3.378906 -3.246094 3.390625 -3.230469 3.390625 -3.210938 C 3.390625 -3.1875 3.375 -3.167969 3.351562 -3.152344 C 3.324219 -3.136719 3.28125 -3.125 3.226562 -3.109375 C 3.101562 -3.082031 3 -3.027344 2.914062 -2.941406 C 2.832031 -2.855469 2.773438 -2.765625 2.734375 -2.675781 L 1.796875 -0.394531 C 1.789062 -0.378906 1.777344 -0.34375 1.757812 -0.292969 C 1.738281 -0.242188 1.71875 -0.183594 1.699219 -0.125 C 1.679688 -0.0664062 1.660156 -0.015625 1.640625 0.0234375 C 1.636719 0.0351562 1.628906 0.0429688 1.621094 0.0507812 C 1.609375 0.0585938 1.601562 0.0585938 1.589844 0.0585938 Z "/>
</g>
<g id="glyph-0-11">
<path d="M 0.390625 1.070312 C 0.355469 1.070312 0.324219 1.058594 0.296875 1.039062 C 0.269531 1.019531 0.253906 0.992188 0.253906 0.960938 C 0.253906 0.957031 0.261719 0.949219 0.273438 0.933594 C 0.285156 0.917969 0.296875 0.902344 0.308594 0.890625 C 0.324219 0.875 0.328125 0.867188 0.328125 0.863281 C 0.40625 0.773438 0.484375 0.648438 0.558594 0.484375 C 0.632812 0.316406 0.699219 0.128906 0.761719 -0.0820312 C 0.820312 -0.292969 0.867188 -0.515625 0.90625 -0.742188 C 0.941406 -0.972656 0.960938 -1.191406 0.960938 -1.40625 C 0.960938 -1.6875 0.925781 -1.957031 0.863281 -2.207031 C 0.796875 -2.460938 0.714844 -2.683594 0.617188 -2.878906 C 0.519531 -3.078125 0.417969 -3.234375 0.316406 -3.351562 C 0.3125 -3.355469 0.304688 -3.363281 0.296875 -3.378906 C 0.285156 -3.394531 0.273438 -3.40625 0.265625 -3.421875 C 0.253906 -3.433594 0.25 -3.441406 0.25 -3.445312 C 0.25 -3.46875 0.265625 -3.488281 0.292969 -3.503906 C 0.320312 -3.519531 0.34375 -3.523438 0.359375 -3.523438 C 0.386719 -3.523438 0.414062 -3.519531 0.4375 -3.511719 C 0.460938 -3.5 0.480469 -3.488281 0.496094 -3.46875 C 0.585938 -3.378906 0.679688 -3.257812 0.78125 -3.109375 C 0.882812 -2.957031 0.980469 -2.785156 1.070312 -2.59375 C 1.160156 -2.402344 1.234375 -2.199219 1.289062 -1.984375 C 1.347656 -1.769531 1.375 -1.558594 1.375 -1.34375 C 1.375 -1.175781 1.355469 -0.996094 1.316406 -0.808594 C 1.277344 -0.621094 1.226562 -0.429688 1.164062 -0.242188 C 1.097656 -0.0546875 1.023438 0.125 0.945312 0.289062 C 0.863281 0.457031 0.785156 0.605469 0.703125 0.734375 C 0.621094 0.863281 0.546875 0.964844 0.476562 1.035156 C 0.453125 1.058594 0.421875 1.070312 0.390625 1.070312 Z "/>
</g>
</g>
<image id="source-181" x="0" y="0" width="0" height="0"/>
<mask id="mask-0">
<use xlink:href="#source-181"/>
</mask>
</defs>
<g fill="rgb(0%, 0%, 0%)" fill-opacity="1">
<use xlink:href="#glyph-0-0" x="30" y="25.035156"/>
<use xlink:href="#glyph-0-1" x="32" y="25.035156"/>
<use xlink:href="#glyph-0-2" x="34" y="25.035156"/>
<use xlink:href="#glyph-0-2" x="35" y="25.035156"/>
<use xlink:href="#glyph-0-3" x="36" y="25.035156"/>
<use xlink:href="#glyph-0-4" x="38" y="25.035156"/>
<use xlink:href="#glyph-0-2" x="41" y="25.035156"/>
<use xlink:href="#glyph-0-5" x="42" y="25.035156"/>
<use xlink:href="#glyph-0-2" x="45" y="25.035156"/>
<use xlink:href="#glyph-0-6" x="46" y="25.035156"/>
<use xlink:href="#glyph-0-7" x="48" y="25.035156"/>
<use xlink:href="#glyph-0-8" x="49" y="25.035156"/>
<use xlink:href="#glyph-0-9" x="51" y="25.035156"/>
<use xlink:href="#glyph-0-2" x="53" y="25.035156"/>
<use xlink:href="#glyph-0-0" x="54" y="25.035156"/>
<use xlink:href="#glyph-0-10" x="56" y="25.035156"/>
<use xlink:href="#glyph-0-11" x="59" y="25.035156"/>
</g>
</svg>
