<?xml version="1.0" encoding="UTF-8"?>
<svg xmlns="http://www.w3.org/2000/svg" xmlns:xlink="http://www.w3.org/1999/xlink" width="1920" height="1080" viewBox="0 0 1920 1080">
<defs>
<g>
<g id="glyph-0-0">
<path d="M 0.335938 -1.171875 C 0.335938 -1.195312 0.335938 -1.222656 0.332031 -1.257812 C 0.332031 -1.292969 0.332031 -1.328125 0.328125 -1.367188 C 0.324219 -1.402344 0.324219 -1.441406 0.320312 -1.476562 C 0.316406 -1.511719 0.3125 -1.542969 0.308594 -1.570312 L 0.0664062 -1.570312 L 0.0664062 -1.804688 L 0.546875 -1.804688 L 0.582031 -1.511719 L 0.597656 -1.511719 C 0.621094 -1.554688 0.65625 -1.59375 0.695312 -1.632812 C 0.734375 -1.671875 0.78125 -1.710938 0.835938 -1.742188 C 0.886719 -1.773438 0.945312 -1.800781 1.011719 -1.820312 C 1.074219 -1.839844 1.144531 -1.847656 1.214844 -1.847656 C 1.328125 -1.847656 1.425781 -1.835938 1.511719 -1.8125 C 1.597656 -1.789062 1.667969 -1.746094 1.722656 -1.683594 C 1.78125 -1.621094 1.824219 -1.539062 1.851562 -1.433594 C 1.878906 -1.328125 1.894531 -1.199219 1.894531 -1.035156 L 1.894531 0 L 1.613281 0 L 1.613281 -0.980469 C 1.613281 -1.179688 1.582031 -1.332031 1.515625 -1.433594 C 1.449219 -1.535156 1.332031 -1.585938 1.164062 -1.585938 C 1.101562 -1.585938 1.039062 -1.574219 0.980469 -1.546875 C 0.921875 -1.523438 0.867188 -1.488281 0.820312 -1.449219 C 0.773438 -1.40625 0.730469 -1.359375 0.691406 -1.304688 C 0.65625 -1.25 0.628906 -1.195312 0.613281 -1.132812 L 0.613281 0 L 0.335938 0 Z "/>
</g>
<g id="glyph-0-1">
<path d="M 0.246094 -1.648438 L 1.921875 -1.648438 L 1.921875 -1.390625 L 0.246094 -1.390625 Z M 0.246094 -1.058594 L 1.921875 -1.058594 L 1.921875 -0.796875 L 0.246094 -0.796875 Z "/>
</g>
<g id="glyph-0-2">
<path d="M 1.804688 -1.886719 C 1.804688 -1.667969 1.699219 -1.421875 1.492188 -1.148438 C 1.28125 -0.875 0.988281 -0.578125 0.613281 -0.261719 L 1.882812 -0.261719 L 1.882812 0 L 0.28125 0 L 0.28125 -0.261719 C 0.328125 -0.304688 0.390625 -0.359375 0.46875 -0.429688 C 0.546875 -0.5 0.632812 -0.578125 0.726562 -0.664062 C 0.816406 -0.75 0.910156 -0.839844 1.003906 -0.9375 C 1.101562 -1.035156 1.1875 -1.136719 1.261719 -1.242188 C 1.339844 -1.34375 1.402344 -1.449219 1.453125 -1.550781 C 1.5 -1.65625 1.523438 -1.753906 1.523438 -1.851562 C 1.523438 -1.996094 1.484375 -2.109375 1.410156 -2.191406 C 1.335938 -2.277344 1.21875 -2.316406 1.070312 -2.316406 C 0.9375 -2.316406 0.828125 -2.304688 0.738281 -2.273438 C 0.652344 -2.246094 0.570312 -2.203125 0.5 -2.148438 L 0.375 -2.347656 C 0.484375 -2.425781 0.597656 -2.480469 0.71875 -2.515625 C 0.839844 -2.550781 0.976562 -2.570312 1.121094 -2.570312 C 1.347656 -2.570312 1.515625 -2.507812 1.632812 -2.386719 C 1.746094 -2.265625 1.804688 -2.097656 1.804688 -1.886719 Z "/>
</g>
</g>
</defs>
<g fill="rgb(12.156863%, 43.529412%, 36.078431%)" fill-opacity="1">
<use xlink:href="#glyph-0-0" x="30" y="23.195312"/>
<use xlink:href="#glyph-0-1" x="32" y="23.195312"/>
<use xlink:href="#glyph-0-2" x="34" y="23.195312"/>
</g>
</svg>
