<?xml version="1.0" encoding="UTF-8"?>
<svg xmlns="http://www.w3.org/2000/svg" xmlns:xlink="http://www.w3.org/1999/xlink" width="1920" height="1080" viewBox="0 0 1920 1080">
<defs>
<g>
<g id="glyph-0-0">
<path d="M 1.453125 -2.917969 L 2.128906 -2.917969 L 2.128906 -0.710938 C 2.128906 -0.6875 2.128906 -0.65625 2.132812 -0.617188 C 2.136719 -0.582031 2.140625 -0.542969 2.144531 -0.5 C 2.148438 -0.457031 2.152344 -0.417969 2.160156 -0.378906 C 2.164062 -0.335938 2.167969 -0.300781 2.175781 -0.269531 L 2.453125 -0.269531 L 2.453125 0 L 1.898438 0 L 1.859375 -0.320312 L 1.84375 -0.320312 C 1.78125 -0.214844 1.691406 -0.128906 1.570312 -0.0546875 C 1.449219 0.015625 1.308594 0.0507812 1.148438 0.0507812 C 0.835938 0.0507812 0.605469 -0.0390625 0.457031 -0.214844 C 0.308594 -0.390625 0.234375 -0.664062 0.234375 -1.039062 C 0.234375 -1.214844 0.257812 -1.367188 0.308594 -1.503906 C 0.359375 -1.636719 0.429688 -1.75 0.523438 -1.839844 C 0.617188 -1.929688 0.726562 -2 0.859375 -2.046875 C 0.988281 -2.09375 1.136719 -2.117188 1.296875 -2.117188 C 1.355469 -2.117188 1.40625 -2.117188 1.453125 -2.113281 C 1.5 -2.109375 1.539062 -2.105469 1.578125 -2.101562 C 1.617188 -2.09375 1.65625 -2.085938 1.691406 -2.078125 C 1.726562 -2.066406 1.761719 -2.058594 1.804688 -2.046875 L 1.804688 -2.636719 L 1.453125 -2.636719 Z M 1.203125 -0.230469 C 1.375 -0.230469 1.507812 -0.273438 1.605469 -0.359375 C 1.703125 -0.449219 1.769531 -0.578125 1.804688 -0.753906 L 1.804688 -1.722656 C 1.742188 -1.761719 1.675781 -1.792969 1.597656 -1.8125 C 1.523438 -1.832031 1.421875 -1.84375 1.296875 -1.84375 C 1.074219 -1.84375 0.898438 -1.777344 0.769531 -1.648438 C 0.644531 -1.519531 0.578125 -1.316406 0.578125 -1.039062 C 0.578125 -0.925781 0.589844 -0.816406 0.609375 -0.71875 C 0.632812 -0.621094 0.667969 -0.535156 0.714844 -0.460938 C 0.761719 -0.390625 0.828125 -0.332031 0.910156 -0.292969 C 0.988281 -0.25 1.085938 -0.230469 1.203125 -0.230469 Z "/>
</g>
<g id="glyph-0-1">
<path d="M 0.4375 0 L 0.4375 -0.277344 L 1.164062 -0.277344 L 1.164062 -1.804688 L 0.4375 -1.804688 L 0.4375 -2.082031 L 1.496094 -2.082031 L 1.496094 -0.277344 L 2.203125 -0.277344 L 2.203125 0 Z M 1.050781 -2.675781 C 1.050781 -2.75 1.074219 -2.816406 1.125 -2.867188 C 1.175781 -2.921875 1.238281 -2.949219 1.316406 -2.949219 C 1.398438 -2.949219 1.464844 -2.921875 1.519531 -2.867188 C 1.574219 -2.8125 1.601562 -2.75 1.601562 -2.675781 C 1.601562 -2.601562 1.574219 -2.542969 1.519531 -2.492188 C 1.464844 -2.441406 1.398438 -2.417969 1.316406 -2.417969 C 1.238281 -2.417969 1.175781 -2.441406 1.125 -2.492188 C 1.074219 -2.542969 1.050781 -2.601562 1.050781 -2.675781 Z "/>
</g>
<g id="glyph-0-2">
<path d="M 0.449219 -1.921875 C 0.570312 -1.992188 0.703125 -2.039062 0.855469 -2.070312 C 1.003906 -2.101562 1.152344 -2.117188 1.296875 -2.117188 C 1.4375 -2.117188 1.554688 -2.09375 1.644531 -2.050781 C 1.734375 -2.007812 1.804688 -1.949219 1.855469 -1.878906 C 1.90625 -1.808594 1.941406 -1.726562 1.960938 -1.636719 C 1.980469 -1.546875 1.988281 -1.453125 1.988281 -1.363281 C 1.988281 -1.257812 1.984375 -1.144531 1.980469 -1.023438 C 1.972656 -0.90625 1.96875 -0.785156 1.96875 -0.667969 C 1.96875 -0.527344 1.976562 -0.394531 1.992188 -0.269531 L 2.269531 -0.269531 L 2.269531 0 L 1.71875 0 L 1.679688 -0.3125 L 1.660156 -0.3125 C 1.640625 -0.289062 1.617188 -0.253906 1.582031 -0.214844 C 1.550781 -0.175781 1.507812 -0.140625 1.453125 -0.101562 C 1.398438 -0.0625 1.332031 -0.03125 1.253906 -0.00390625 C 1.175781 0.0234375 1.085938 0.0390625 0.980469 0.0390625 C 0.773438 0.0390625 0.609375 -0.015625 0.492188 -0.121094 C 0.371094 -0.226562 0.3125 -0.371094 0.3125 -0.554688 C 0.3125 -0.695312 0.34375 -0.8125 0.40625 -0.910156 C 0.46875 -1.003906 0.558594 -1.074219 0.675781 -1.125 C 0.792969 -1.175781 0.933594 -1.203125 1.097656 -1.210938 C 1.261719 -1.21875 1.449219 -1.210938 1.652344 -1.179688 C 1.667969 -1.308594 1.671875 -1.414062 1.660156 -1.496094 C 1.652344 -1.582031 1.628906 -1.648438 1.59375 -1.699219 C 1.558594 -1.75 1.511719 -1.785156 1.449219 -1.804688 C 1.386719 -1.828125 1.308594 -1.835938 1.214844 -1.835938 C 1.089844 -1.835938 0.972656 -1.820312 0.859375 -1.785156 C 0.746094 -1.75 0.644531 -1.714844 0.554688 -1.679688 Z M 1.0625 -0.242188 C 1.140625 -0.242188 1.210938 -0.253906 1.277344 -0.277344 C 1.34375 -0.304688 1.402344 -0.335938 1.453125 -0.375 C 1.503906 -0.414062 1.546875 -0.457031 1.578125 -0.503906 C 1.613281 -0.546875 1.636719 -0.589844 1.652344 -0.632812 L 1.652344 -0.925781 C 1.507812 -0.949219 1.375 -0.960938 1.253906 -0.960938 C 1.132812 -0.960938 1.027344 -0.949219 0.9375 -0.921875 C 0.847656 -0.894531 0.777344 -0.855469 0.730469 -0.800781 C 0.679688 -0.746094 0.652344 -0.671875 0.652344 -0.582031 C 0.652344 -0.492188 0.683594 -0.410156 0.746094 -0.34375 C 0.808594 -0.277344 0.914062 -0.242188 1.0625 -0.242188 Z "/>
</g>
<g id="glyph-0-3">
<path d="M 1.089844 0 L 1.089844 -1.386719 C 1.089844 -1.445312 1.089844 -1.503906 1.085938 -1.554688 C 1.082031 -1.609375 1.070312 -1.660156 1.054688 -1.703125 C 1.039062 -1.746094 1.019531 -1.78125 0.988281 -1.804688 C 0.960938 -1.828125 0.921875 -1.84375 0.875 -1.84375 C 0.78125 -1.84375 0.699219 -1.804688 0.636719 -1.726562 C 0.570312 -1.648438 0.519531 -1.550781 0.488281 -1.433594 L 0.488281 0 L 0.171875 0 L 0.171875 -2.082031 L 0.386719 -2.082031 L 0.449219 -1.828125 L 0.464844 -1.828125 C 0.492188 -1.871094 0.523438 -1.910156 0.546875 -1.949219 C 0.574219 -1.984375 0.605469 -2.019531 0.640625 -2.046875 C 0.675781 -2.074219 0.714844 -2.09375 0.761719 -2.109375 C 0.808594 -2.125 0.871094 -2.132812 0.941406 -2.132812 C 0.984375 -2.132812 1.027344 -2.128906 1.070312 -2.113281 C 1.113281 -2.101562 1.15625 -2.082031 1.195312 -2.054688 C 1.230469 -2.03125 1.265625 -1.996094 1.292969 -1.949219 C 1.320312 -1.90625 1.335938 -1.851562 1.347656 -1.789062 C 1.410156 -1.894531 1.480469 -1.980469 1.558594 -2.042969 C 1.640625 -2.101562 1.75 -2.132812 1.886719 -2.132812 C 1.980469 -2.132812 2.054688 -2.117188 2.109375 -2.085938 C 2.167969 -2.054688 2.210938 -2.011719 2.242188 -1.957031 C 2.273438 -1.898438 2.296875 -1.832031 2.3125 -1.753906 C 2.324219 -1.671875 2.328125 -1.585938 2.328125 -1.488281 L 2.328125 0 L 2.011719 0 L 2.011719 -1.417969 C 2.011719 -1.476562 2.011719 -1.53125 2.003906 -1.582031 C 2 -1.632812 1.988281 -1.679688 1.972656 -1.71875 C 1.957031 -1.757812 1.9375 -1.785156 1.910156 -1.808594 C 1.882812 -1.832031 1.847656 -1.84375 1.804688 -1.84375 C 1.707031 -1.84375 1.625 -1.804688 1.558594 -1.726562 C 1.492188 -1.648438 1.441406 -1.535156 1.410156 -1.390625 L 1.410156 0 Z "/>
</g>
<g id="glyph-0-4">
<path d="M 2.203125 -0.261719 C 2.152344 -0.21875 2.09375 -0.175781 2.027344 -0.136719 C 1.960938 -0.0976562 1.886719 -0.0664062 1.804688 -0.0390625 C 1.722656 -0.0117188 1.640625 0.0117188 1.550781 0.0273438 C 1.464844 0.0429688 1.375 0.0507812 1.289062 0.0507812 C 1.121094 0.0507812 0.972656 0.0234375 0.847656 -0.0273438 C 0.71875 -0.078125 0.609375 -0.152344 0.523438 -0.246094 C 0.4375 -0.34375 0.375 -0.457031 0.328125 -0.589844 C 0.285156 -0.722656 0.261719 -0.875 0.261719 -1.042969 C 0.261719 -1.21875 0.285156 -1.371094 0.335938 -1.507812 C 0.382812 -1.644531 0.453125 -1.757812 0.546875 -1.851562 C 0.636719 -1.941406 0.75 -2.011719 0.878906 -2.0625 C 1.007812 -2.109375 1.15625 -2.132812 1.316406 -2.132812 C 1.433594 -2.132812 1.546875 -2.117188 1.664062 -2.085938 C 1.777344 -2.054688 1.878906 -2 1.964844 -1.914062 C 2.050781 -1.828125 2.121094 -1.714844 2.167969 -1.566406 C 2.214844 -1.417969 2.230469 -1.222656 2.21875 -0.988281 L 0.605469 -0.988281 C 0.605469 -0.738281 0.671875 -0.550781 0.804688 -0.425781 C 0.941406 -0.304688 1.121094 -0.242188 1.347656 -0.242188 C 1.421875 -0.242188 1.496094 -0.25 1.570312 -0.269531 C 1.644531 -0.285156 1.710938 -0.308594 1.78125 -0.332031 C 1.847656 -0.359375 1.90625 -0.386719 1.957031 -0.417969 C 2.007812 -0.449219 2.046875 -0.476562 2.074219 -0.5 Z M 1.324219 -1.859375 C 1.234375 -1.859375 1.148438 -1.847656 1.066406 -1.828125 C 0.984375 -1.808594 0.910156 -1.777344 0.847656 -1.730469 C 0.785156 -1.683594 0.734375 -1.625 0.695312 -1.550781 C 0.652344 -1.476562 0.628906 -1.386719 0.617188 -1.277344 L 1.914062 -1.277344 C 1.898438 -1.460938 1.839844 -1.605469 1.734375 -1.707031 C 1.632812 -1.808594 1.496094 -1.859375 1.324219 -1.859375 Z "/>
</g>
<g id="glyph-0-5">
<path d="M 0.128906 -2.082031 L 0.625 -2.082031 L 0.625 -2.496094 L 0.949219 -2.585938 L 0.949219 -2.082031 L 2.0625 -2.082031 L 2.0625 -1.804688 L 0.949219 -1.804688 L 0.949219 -0.820312 C 0.949219 -0.617188 1 -0.46875 1.097656 -0.371094 C 1.195312 -0.273438 1.335938 -0.226562 1.519531 -0.226562 C 1.644531 -0.226562 1.753906 -0.25 1.847656 -0.296875 C 1.941406 -0.34375 2.023438 -0.394531 2.101562 -0.449219 L 2.207031 -0.203125 C 2.109375 -0.125 1.996094 -0.0625 1.859375 -0.015625 C 1.726562 0.03125 1.585938 0.0546875 1.445312 0.0546875 C 1.335938 0.0546875 1.230469 0.0390625 1.132812 0.0078125 C 1.035156 -0.0234375 0.945312 -0.0742188 0.871094 -0.140625 C 0.796875 -0.207031 0.734375 -0.292969 0.691406 -0.398438 C 0.648438 -0.503906 0.625 -0.625 0.625 -0.769531 L 0.625 -1.804688 L 0.128906 -1.804688 Z "/>
</g>
<g id="glyph-0-6">
<path d="M 0.273438 0 L 0.273438 -0.277344 L 0.835938 -0.277344 L 0.835938 -1.804688 L 0.273438 -1.804688 L 0.273438 -2.082031 L 1.054688 -2.082031 L 1.121094 -1.8125 L 1.140625 -1.8125 C 1.234375 -1.898438 1.339844 -1.972656 1.457031 -2.035156 C 1.574219 -2.09375 1.714844 -2.125 1.875 -2.125 C 1.96875 -2.125 2.046875 -2.105469 2.101562 -2.070312 C 2.160156 -2.035156 2.203125 -1.980469 2.234375 -1.914062 C 2.265625 -1.84375 2.289062 -1.757812 2.300781 -1.660156 C 2.3125 -1.5625 2.316406 -1.449219 2.316406 -1.324219 L 2.023438 -1.320312 C 2.023438 -1.5 2.007812 -1.628906 1.972656 -1.710938 C 1.9375 -1.796875 1.875 -1.835938 1.785156 -1.835938 C 1.699219 -1.835938 1.621094 -1.824219 1.550781 -1.800781 C 1.480469 -1.773438 1.421875 -1.746094 1.367188 -1.707031 C 1.316406 -1.671875 1.273438 -1.636719 1.238281 -1.601562 C 1.203125 -1.566406 1.175781 -1.535156 1.160156 -1.507812 L 1.160156 -0.277344 L 1.957031 -0.277344 L 1.957031 0 Z "/>
</g>
<g id="glyph-0-7">
<rect x="0" y="0" width="0" height="0" mask="url(#mask-0)"/>
</g>
<g id="glyph-0-8">
<path d="M 0.285156 -1.90625 L 2.21875 -1.90625 L 2.21875 -1.605469 L 0.285156 -1.605469 Z M 0.285156 -1.222656 L 2.21875 -1.222656 L 2.21875 -0.921875 L 0.285156 -0.921875 Z "/>
</g>
<g id="glyph-0-9">
<path d="M 0.527344 -0.300781 L 1.183594 -0.300781 L 1.183594 -2.492188 L 0.515625 -2.023438 L 0.355469 -2.261719 L 1.269531 -2.917969 L 1.503906 -2.917969 L 1.503906 -0.300781 L 2.144531 -0.300781 L 2.144531 0 L 0.527344 0 Z "/>
</g>
<g id="glyph-0-10">
<path d="M 2.417969 -0.910156 L 1.855469 -0.910156 L 1.855469 0 L 1.527344 0 L 1.527344 -0.910156 L 0.183594 -0.910156 L 0.183594 -1.148438 L 1.578125 -2.917969 L 1.855469 -2.917969 L 1.855469 -1.183594 L 2.417969 -1.183594 Z M 1.527344 -2.394531 L 0.566406 -1.183594 L 1.527344 -1.183594 Z "/>
</g>
<g id="glyph-0-11">
<path d="M 0.386719 -1.355469 C 0.386719 -1.378906 0.386719 -1.410156 0.386719 -1.453125 C 0.382812 -1.492188 0.382812 -1.535156 0.378906 -1.578125 C 0.375 -1.621094 0.371094 -1.664062 0.367188 -1.703125 C 0.363281 -1.746094 0.359375 -1.78125 0.355469 -1.8125 L 0.0742188 -1.8125 L 0.0742188 -2.082031 L 0.632812 -2.082031 L 0.671875 -1.746094 L 0.691406 -1.746094 C 0.71875 -1.792969 0.757812 -1.839844 0.800781 -1.886719 C 0.847656 -1.933594 0.902344 -1.972656 0.960938 -2.011719 C 1.023438 -2.046875 1.089844 -2.078125 1.167969 -2.101562 C 1.242188 -2.121094 1.320312 -2.132812 1.402344 -2.132812 C 1.53125 -2.132812 1.644531 -2.121094 1.742188 -2.09375 C 1.84375 -2.066406 1.925781 -2.015625 1.988281 -1.945312 C 2.054688 -1.875 2.105469 -1.777344 2.136719 -1.65625 C 2.171875 -1.535156 2.1875 -1.382812 2.1875 -1.195312 L 2.1875 0 L 1.863281 0 L 1.863281 -1.132812 C 1.863281 -1.363281 1.824219 -1.539062 1.75 -1.652344 C 1.675781 -1.769531 1.539062 -1.828125 1.339844 -1.828125 C 1.269531 -1.828125 1.199219 -1.816406 1.132812 -1.785156 C 1.0625 -1.757812 1 -1.71875 0.945312 -1.671875 C 0.890625 -1.625 0.839844 -1.570312 0.800781 -1.507812 C 0.757812 -1.445312 0.726562 -1.378906 0.707031 -1.308594 L 0.707031 0 L 0.386719 0 Z "/>
</g>
</g>
<image id="source-6" x="0" y="0" width="0" height="0"/>
<mask id="mask-0">
<use xlink:href="#source-6"/>
</mask>
</defs>
<g fill="rgb(18.431373%, 16.470588%, 14.901961%)" fill-opacity="1">
<use xlink:href="#glyph-0-0" x="30" y="23.6875"/>
<use xlink:href="#glyph-0-1" x="33" y="23.6875"/>
<use xlink:href="#glyph-0-2" x="36" y="23.6875"/>
<use xlink:href="#glyph-0-3" x="39" y="23.6875"/>
<use xlink:href="#glyph-0-4" x="42" y="23.6875"/>
<use xlink:href="#glyph-0-5" x="45" y="23.6875"/>
<use xlink:href="#glyph-0-4" x="48" y="23.6875"/>
<use xlink:href="#glyph-0-6" x="51" y="23.6875"/>
<use xlink:href="#glyph-0-7" x="54" y="23.6875"/>
<use xlink:href="#glyph-0-8" x="57" y="23.6875"/>
<use xlink:href="#glyph-0-7" x="60" y="23.6875"/>
<use xlink:href="#glyph-0-9" x="63" y="23.6875"/>
<use xlink:href="#glyph-0-10" x="66" y="23.6875"/>
<use xlink:href="#glyph-0-7" x="69" y="23.6875"/>
<use xlink:href="#glyph-0-11" x="72" y="23.6875"/>
<use xlink:href="#glyph-0-3" x="75" y="23.6875"/>
</g>
</svg>
