<?xml version="1.0" encoding="UTF-8"?>
<svg xmlns="http://www.w3.org/2000/svg" xmlns:xlink="http://www.w3.org/1999/xlink" width="1920" height="1080" viewBox="0 0 1920 1080">
<defs>
<g>
<g id="glyph-0-0">
<path d="M 0.554688 1.023438 L 0.554688 -3.914062 L 1.023438 -3.914062 L 1.023438 1.023438 Z "/>
</g>
<g id="glyph-0-1">
<path d="M 1.3125 -0.691406 L 1.3125 -3.003906 L 1.757812 -3.003906 L 1.757812 -0.691406 Z M 0.355469 -1.636719 L 0.355469 -2.054688 L 2.71875 -2.054688 L 2.71875 -1.636719 Z "/>
</g>
<g id="glyph-0-2">
<path d="M 0.0703125 0 L 1.605469 -2.09375 L 1.605469 -1.6875 L 0.152344 -3.695312 L 0.753906 -3.695312 L 1.90625 -2.117188 L 1.667969 -2.109375 L 2.8125 -3.695312 L 3.386719 -3.695312 L 1.949219 -1.71875 L 1.949219 -2.101562 L 3.484375 0 L 2.875 0 L 1.652344 -1.683594 L 1.882812 -1.683594 L 0.675781 0 Z "/>
</g>
<g id="glyph-0-3">
<path d="M 0.355469 -0.6875 L 0.355469 -1.125 L 2.550781 -1.96875 L 2.550781 -1.726562 L 0.355469 -2.570312 L 0.355469 -3.007812 L 2.71875 -2.074219 L 2.71875 -1.621094 Z "/>
</g>
</g>
</defs>
<g fill="rgb(100%, 100%, 100%)" fill-opacity="1">
<use xlink:href="#glyph-0-0" x="30" y="25.108398"/>
<use xlink:href="#glyph-0-1" x="32" y="25.108398"/>
<use xlink:href="#glyph-0-2" x="35" y="25.108398"/>
<use xlink:href="#glyph-0-3" x="39" y="25.108398"/>
</g>
</svg>
