<?xml version="1.0" encoding="UTF-8"?>
<svg xmlns="http://www.w3.org/2000/svg" xmlns:xlink="http://www.w3.org/1999/xlink" width="1920" height="1080" viewBox="0 0 1920 1080">
<defs>
<g>
<g id="glyph-0-0">
<path d="M 2.351562 -0.28125 C 2.296875 -0.234375 2.234375 -0.1875 2.164062 -0.148438 C 2.089844 -0.105469 2.011719 -0.0703125 1.925781 -0.0390625 C 1.839844 -0.0117188 1.75 0.0117188 1.65625 0.0273438 C 1.5625 0.0429688 1.46875 0.0546875 1.375 0.0546875 C 1.195312 0.0546875 1.039062 0.0273438 0.902344 -0.0273438 C 0.765625 -0.0820312 0.652344 -0.164062 0.558594 -0.265625 C 0.46875 -0.367188 0.398438 -0.488281 0.351562 -0.632812 C 0.304688 -0.773438 0.28125 -0.933594 0.28125 -1.109375 C 0.28125 -1.296875 0.304688 -1.464844 0.359375 -1.609375 C 0.410156 -1.753906 0.484375 -1.875 0.582031 -1.972656 C 0.679688 -2.070312 0.796875 -2.144531 0.9375 -2.199219 C 1.078125 -2.25 1.234375 -2.277344 1.40625 -2.277344 C 1.53125 -2.277344 1.652344 -2.257812 1.773438 -2.226562 C 1.894531 -2.195312 2.003906 -2.132812 2.09375 -2.042969 C 2.1875 -1.953125 2.261719 -1.828125 2.3125 -1.667969 C 2.363281 -1.511719 2.378906 -1.304688 2.363281 -1.054688 L 0.644531 -1.054688 C 0.644531 -0.785156 0.714844 -0.585938 0.859375 -0.457031 C 1.003906 -0.324219 1.195312 -0.257812 1.433594 -0.257812 C 1.515625 -0.257812 1.59375 -0.265625 1.671875 -0.285156 C 1.75 -0.304688 1.828125 -0.328125 1.898438 -0.355469 C 1.96875 -0.382812 2.03125 -0.410156 2.085938 -0.445312 C 2.140625 -0.476562 2.183594 -0.507812 2.214844 -0.535156 Z M 1.414062 -1.980469 C 1.316406 -1.980469 1.222656 -1.972656 1.136719 -1.949219 C 1.046875 -1.929688 0.972656 -1.894531 0.90625 -1.847656 C 0.839844 -1.796875 0.78125 -1.734375 0.738281 -1.65625 C 0.695312 -1.578125 0.667969 -1.480469 0.65625 -1.363281 L 2.039062 -1.363281 C 2.023438 -1.558594 1.960938 -1.710938 1.851562 -1.820312 C 1.738281 -1.929688 1.59375 -1.980469 1.414062 -1.980469 Z "/>
</g>
<g id="glyph-0-1">
<path d="M 0.527344 -3.109375 L 1.265625 -3.109375 L 1.265625 -0.746094 C 1.265625 -0.566406 1.296875 -0.4375 1.359375 -0.363281 C 1.417969 -0.289062 1.507812 -0.253906 1.625 -0.253906 C 1.710938 -0.253906 1.789062 -0.269531 1.863281 -0.296875 C 1.941406 -0.328125 2.023438 -0.378906 2.117188 -0.449219 L 2.277344 -0.203125 C 2.230469 -0.164062 2.175781 -0.125 2.121094 -0.09375 C 2.0625 -0.0625 2.007812 -0.0351562 1.945312 -0.0117188 C 1.886719 0.0117188 1.828125 0.0273438 1.769531 0.0390625 C 1.710938 0.0507812 1.65625 0.0585938 1.605469 0.0585938 C 1.496094 0.0585938 1.398438 0.0429688 1.3125 0.015625 C 1.226562 -0.0117188 1.152344 -0.0585938 1.09375 -0.121094 C 1.039062 -0.183594 0.992188 -0.265625 0.964844 -0.367188 C 0.933594 -0.46875 0.921875 -0.59375 0.921875 -0.746094 L 0.921875 -2.8125 L 0.527344 -2.8125 Z "/>
</g>
<g id="glyph-0-2">
<path d="M 1.949219 -1.878906 C 1.882812 -1.902344 1.808594 -1.921875 1.730469 -1.941406 C 1.652344 -1.957031 1.574219 -1.964844 1.496094 -1.964844 C 1.207031 -1.964844 0.992188 -1.894531 0.847656 -1.761719 C 0.707031 -1.625 0.636719 -1.40625 0.636719 -1.109375 C 0.636719 -0.980469 0.65625 -0.863281 0.699219 -0.761719 C 0.738281 -0.660156 0.796875 -0.574219 0.875 -0.503906 C 0.953125 -0.433594 1.046875 -0.375 1.152344 -0.335938 C 1.261719 -0.296875 1.378906 -0.28125 1.511719 -0.28125 C 1.652344 -0.28125 1.785156 -0.304688 1.917969 -0.351562 C 2.050781 -0.398438 2.160156 -0.460938 2.25 -0.539062 L 2.40625 -0.28125 C 2.363281 -0.246094 2.3125 -0.207031 2.25 -0.167969 C 2.1875 -0.128906 2.113281 -0.09375 2.035156 -0.0585938 C 1.953125 -0.0273438 1.863281 0 1.761719 0.0234375 C 1.664062 0.0429688 1.554688 0.0546875 1.441406 0.0546875 C 1.246094 0.0546875 1.078125 0.0273438 0.929688 -0.0273438 C 0.785156 -0.0820312 0.664062 -0.164062 0.5625 -0.265625 C 0.464844 -0.367188 0.394531 -0.488281 0.34375 -0.632812 C 0.292969 -0.777344 0.265625 -0.9375 0.265625 -1.109375 C 0.265625 -1.296875 0.292969 -1.464844 0.34375 -1.609375 C 0.394531 -1.753906 0.472656 -1.875 0.570312 -1.972656 C 0.667969 -2.070312 0.785156 -2.144531 0.925781 -2.199219 C 1.0625 -2.25 1.21875 -2.277344 1.390625 -2.277344 C 1.609375 -2.277344 1.789062 -2.257812 1.925781 -2.21875 C 2.0625 -2.179688 2.179688 -2.136719 2.277344 -2.089844 L 2.269531 -2.074219 L 2.269531 -1.457031 L 1.949219 -1.457031 Z "/>
</g>
<g id="glyph-0-3">
<path d="M 0.136719 -2.222656 L 0.667969 -2.222656 L 0.667969 -2.664062 L 1.011719 -2.761719 L 1.011719 -2.222656 L 2.199219 -2.222656 L 2.199219 -1.925781 L 1.011719 -1.925781 L 1.011719 -0.875 C 1.011719 -0.660156 1.066406 -0.5 1.171875 -0.394531 C 1.277344 -0.292969 1.425781 -0.238281 1.621094 -0.238281 C 1.753906 -0.238281 1.871094 -0.265625 1.972656 -0.316406 C 2.070312 -0.367188 2.160156 -0.421875 2.238281 -0.480469 L 2.355469 -0.21875 C 2.25 -0.136719 2.128906 -0.0664062 1.984375 -0.0195312 C 1.839844 0.03125 1.691406 0.0585938 1.542969 0.0585938 C 1.425781 0.0585938 1.3125 0.0390625 1.207031 0.0078125 C 1.101562 -0.0273438 1.007812 -0.078125 0.929688 -0.152344 C 0.847656 -0.222656 0.785156 -0.3125 0.738281 -0.425781 C 0.691406 -0.535156 0.667969 -0.667969 0.667969 -0.820312 L 0.667969 -1.925781 L 0.136719 -1.925781 Z "/>
</g>
<g id="glyph-0-4">
<path d="M 0.292969 0 L 0.292969 -0.296875 L 0.894531 -0.296875 L 0.894531 -1.925781 L 0.292969 -1.925781 L 0.292969 -2.222656 L 1.125 -2.222656 L 1.195312 -1.933594 L 1.21875 -1.933594 C 1.320312 -2.023438 1.429688 -2.105469 1.554688 -2.167969 C 1.679688 -2.234375 1.828125 -2.265625 2 -2.265625 C 2.101562 -2.265625 2.179688 -2.246094 2.242188 -2.207031 C 2.304688 -2.167969 2.351562 -2.113281 2.382812 -2.039062 C 2.417969 -1.964844 2.441406 -1.875 2.453125 -1.769531 C 2.464844 -1.664062 2.472656 -1.546875 2.472656 -1.414062 L 2.160156 -1.410156 C 2.160156 -1.597656 2.140625 -1.738281 2.105469 -1.828125 C 2.066406 -1.914062 2 -1.960938 1.902344 -1.960938 C 1.808594 -1.960938 1.726562 -1.945312 1.652344 -1.921875 C 1.578125 -1.894531 1.515625 -1.859375 1.460938 -1.820312 C 1.40625 -1.78125 1.359375 -1.746094 1.320312 -1.707031 C 1.28125 -1.667969 1.253906 -1.636719 1.234375 -1.609375 L 1.234375 -0.296875 L 2.089844 -0.296875 L 2.089844 0 Z "/>
</g>
<g id="glyph-0-5">
<path d="M 0.253906 -1.109375 C 0.253906 -1.46875 0.347656 -1.753906 0.535156 -1.960938 C 0.71875 -2.171875 0.988281 -2.277344 1.332031 -2.277344 C 1.519531 -2.277344 1.679688 -2.246094 1.816406 -2.183594 C 1.949219 -2.125 2.0625 -2.042969 2.152344 -1.9375 C 2.242188 -1.832031 2.304688 -1.710938 2.347656 -1.570312 C 2.390625 -1.425781 2.414062 -1.273438 2.414062 -1.109375 C 2.414062 -0.933594 2.390625 -0.773438 2.34375 -0.628906 C 2.296875 -0.484375 2.226562 -0.363281 2.132812 -0.261719 C 2.042969 -0.160156 1.929688 -0.0820312 1.792969 -0.0273438 C 1.660156 0.0273438 1.503906 0.0546875 1.332031 0.0546875 C 1.148438 0.0546875 0.988281 0.0234375 0.851562 -0.0390625 C 0.714844 -0.0976562 0.605469 -0.179688 0.515625 -0.285156 C 0.425781 -0.386719 0.359375 -0.511719 0.316406 -0.652344 C 0.273438 -0.796875 0.253906 -0.949219 0.253906 -1.109375 Z M 0.621094 -1.109375 C 0.621094 -1.007812 0.636719 -0.902344 0.660156 -0.800781 C 0.683594 -0.695312 0.726562 -0.601562 0.78125 -0.519531 C 0.839844 -0.4375 0.910156 -0.371094 1.003906 -0.320312 C 1.09375 -0.269531 1.203125 -0.246094 1.332031 -0.246094 C 1.570312 -0.246094 1.75 -0.316406 1.867188 -0.464844 C 1.988281 -0.609375 2.050781 -0.828125 2.050781 -1.109375 C 2.050781 -1.21875 2.035156 -1.320312 2.011719 -1.425781 C 1.984375 -1.527344 1.945312 -1.621094 1.886719 -1.703125 C 1.828125 -1.785156 1.753906 -1.851562 1.664062 -1.902344 C 1.574219 -1.953125 1.464844 -1.976562 1.332031 -1.976562 C 1.097656 -1.976562 0.917969 -1.90625 0.800781 -1.761719 C 0.683594 -1.617188 0.621094 -1.398438 0.621094 -1.109375 Z "/>
</g>
<g id="glyph-0-6">
<path d="M 0.414062 -1.445312 C 0.414062 -1.472656 0.414062 -1.507812 0.410156 -1.550781 C 0.410156 -1.59375 0.40625 -1.636719 0.40625 -1.683594 C 0.402344 -1.730469 0.398438 -1.773438 0.394531 -1.816406 C 0.390625 -1.863281 0.382812 -1.902344 0.378906 -1.933594 L 0.078125 -1.933594 L 0.078125 -2.222656 L 0.675781 -2.222656 L 0.714844 -1.863281 L 0.738281 -1.863281 C 0.765625 -1.914062 0.808594 -1.960938 0.855469 -2.011719 C 0.90625 -2.058594 0.960938 -2.105469 1.027344 -2.144531 C 1.09375 -2.183594 1.164062 -2.214844 1.246094 -2.238281 C 1.324219 -2.261719 1.410156 -2.277344 1.496094 -2.277344 C 1.632812 -2.277344 1.753906 -2.261719 1.859375 -2.230469 C 1.964844 -2.203125 2.050781 -2.148438 2.121094 -2.074219 C 2.191406 -1.996094 2.246094 -1.894531 2.28125 -1.765625 C 2.316406 -1.636719 2.332031 -1.472656 2.332031 -1.277344 L 2.332031 0 L 1.988281 0 L 1.988281 -1.207031 C 1.988281 -1.453125 1.945312 -1.640625 1.867188 -1.765625 C 1.785156 -1.890625 1.640625 -1.949219 1.429688 -1.949219 C 1.355469 -1.949219 1.277344 -1.933594 1.207031 -1.90625 C 1.132812 -1.875 1.066406 -1.832031 1.007812 -1.78125 C 0.949219 -1.730469 0.898438 -1.671875 0.851562 -1.605469 C 0.808594 -1.539062 0.777344 -1.46875 0.753906 -1.394531 L 0.753906 0 L 0.414062 0 Z "/>
</g>
</g>
</defs>
<g fill="rgb(12.156863%, 43.529412%, 36.078431%)" fill-opacity="1">
<use xlink:href="#glyph-0-0" x="30" y="23.933594"/>
<use xlink:href="#glyph-0-1" x="33" y="23.933594"/>
<use xlink:href="#glyph-0-0" x="36" y="23.933594"/>
<use xlink:href="#glyph-0-2" x="39" y="23.933594"/>
<use xlink:href="#glyph-0-3" x="42" y="23.933594"/>
<use xlink:href="#glyph-0-4" x="45" y="23.933594"/>
<use xlink:href="#glyph-0-5" x="48" y="23.933594"/>
<use xlink:href="#glyph-0-6" x="51" y="23.933594"/>
</g>
</svg>
