<svg role="img" aria-labelledby="t-harmonic-oscillator d-harmonic-oscillator" viewBox="0 0 560 400" xmlns="http://www.w3.org/2000/svg">
  <title id="t-harmonic-oscillator">Quantum harmonic oscillator: equally spaced energy levels and the Gaussian ground state</title>
  <desc id="d-harmonic-oscillator">A parabolic potential supports energy levels equally spaced by h-bar omega, beginning at the zero-point energy one-half h-bar omega. The ground state is a single Gaussian bump centred in the well.</desc>
  <metadata><provenance>CANDIDATE · CAJAL PALETTE · QM VOL 1</provenance></metadata>
  <rect x="0" y="0" width="560" height="400" fill="#FFFFFF"/>
  <text x="28" y="30" font-family="'EB Garamond','Garamond',Georgia,serif" font-size="16" fill="#2a1a0e">The Quantum Harmonic Oscillator</text>
  <rect x="40" y="46" width="490" height="304" fill="#F5F5F5" stroke="#D4D4D4" stroke-width="1"/>
  <!-- parabola V(x) -->
  <polyline points="150.0,76.3 154.3,85.8 158.7,94.9 163.0,103.6 167.3,112.1 171.7,120.2 176.0,128.1 180.3,135.6 184.7,142.7 189.0,149.6 193.3,156.2 197.7,162.4 202.0,168.3 206.3,173.9 210.7,179.1 215.0,184.1 219.3,188.7 223.7,193.0 228.0,197.0 232.3,200.7 236.7,204.0 241.0,207.1 245.3,209.8 249.7,212.2 254.0,214.3 258.3,216.0 262.7,217.4 267.0,218.6 271.3,219.4 275.7,219.8 280.0,220.0 284.3,219.8 288.7,219.4 293.0,218.6 297.3,217.4 301.7,216.0 306.0,214.3 310.3,212.2 314.7,209.8 319.0,207.1 323.3,204.0 327.7,200.7 332.0,197.0 336.3,193.0 340.7,188.7 345.0,184.1 349.3,179.1 353.7,173.9 358.0,168.3 362.3,162.4 366.7,156.2 371.0,149.6 375.3,142.7 379.7,135.6 384.0,128.1 388.3,120.2 392.7,112.1 397.0,103.6 401.3,94.9 405.7,85.8 410.0,76.3" fill="none" stroke="#2a1a0e" stroke-width="2"/>
  <!-- equally spaced levels inside parabola -->
  <line x1="262" y1="218" x2="298" y2="218" stroke="#2a1a0e" stroke-width="1.5"/>
  <line x1="240" y1="190" x2="320" y2="190" stroke="#2a1a0e" stroke-width="1.5"/>
  <line x1="222" y1="162" x2="338" y2="162" stroke="#2a1a0e" stroke-width="1.5"/>
  <line x1="206" y1="134" x2="354" y2="134" stroke="#2a1a0e" stroke-width="1.5"/>
  <line x1="192" y1="106" x2="368" y2="106" stroke="#2a1a0e" stroke-width="1.5"/>
  <text x="420" y="222" font-family="'JetBrains Mono','Fira Code','Courier New',monospace" font-size="11" fill="#545454">E₀ = ½ℏω</text>
  <text x="420" y="194" font-family="'JetBrains Mono','Fira Code','Courier New',monospace" font-size="11" fill="#545454">E₁ = 3⁄2 ℏω</text>
  <text x="420" y="166" font-family="'JetBrains Mono','Fira Code','Courier New',monospace" font-size="11" fill="#545454">E₂</text>
  <text x="420" y="138" font-family="'JetBrains Mono','Fira Code','Courier New',monospace" font-size="11" fill="#545454">E₃</text>
  <!-- spacing bracket -->
  <line x1="200" y1="218" x2="200" y2="190" stroke="#545454" stroke-width="1"/>
  <text x="120" y="208" font-family="'JetBrains Mono','Fira Code','Courier New',monospace" font-size="11" fill="#545454">ΔE = ℏω</text>
  <!-- ground state Gaussian sitting on E0 baseline (shifted to y~300 region for clarity) RED must-look -->
  <polyline points="140.0,300.0 147.0,300.0 154.0,300.0 161.0,300.0 168.0,300.0 175.0,300.0 178.5,299.9 182.0,299.9 185.5,299.8 189.0,299.7 192.5,299.6 196.0,299.4 199.5,299.1 203.0,298.7 206.5,298.2 210.0,297.6 213.5,296.7 217.0,295.6 220.5,294.2 224.0,292.6 227.5,290.5 231.0,288.1 234.5,285.3 238.0,282.1 241.5,278.6 245.0,274.8 248.5,270.8 252.0,266.6 255.5,262.5 259.0,258.5 262.5,254.8 266.0,251.5 269.5,248.7 273.0,246.7 276.5,245.4 280.0,245.0 283.5,245.4 287.0,246.7 290.5,248.7 294.0,251.5 297.5,254.8 301.0,258.5 304.5,262.5 308.0,266.6 311.5,270.8 315.0,274.8 318.5,278.6 322.0,282.1 325.5,285.3 329.0,288.1 332.5,290.5 336.0,292.6 339.5,294.2 343.0,295.6 346.5,296.7 350.0,297.6 353.5,298.2 357.0,298.7 360.5,299.1 364.0,299.4 367.5,299.6 371.0,299.7 374.5,299.8 378.0,299.9 381.5,299.9 385.0,300.0 392.0,300.0 399.0,300.0 406.0,300.0 413.0,300.0 420.0,300.0" fill="none" stroke="#C8102E" stroke-width="2.2"/>
  <text x="280" y="332" font-family="'JetBrains Mono','Fira Code','Courier New',monospace" font-size="11" fill="#C8102E" text-anchor="middle">ground state ψ₀(x) — a Gaussian</text>
  
</svg>
