<?xml version="1.0" encoding="utf-8" standalone="no"?>
<!DOCTYPE svg PUBLIC "-//W3C//DTD SVG 1.1//EN"
  "http://www.w3.org/Graphics/SVG/1.1/DTD/svg11.dtd">
<svg xmlns:xlink="http://www.w3.org/1999/xlink" width="460.8pt" height="446.4pt" viewBox="0 0 460.8 446.4" xmlns="http://www.w3.org/2000/svg" version="1.1">
 <metadata>
  <rdf:RDF xmlns:dc="http://purl.org/dc/elements/1.1/" xmlns:cc="http://creativecommons.org/ns#" xmlns:rdf="http://www.w3.org/1999/02/22-rdf-syntax-ns#">
   <cc:Work>
    <dc:type rdf:resource="http://purl.org/dc/dcmitype/StillImage"/>
    <dc:date>2026-06-04T06:13:27.818572</dc:date>
    <dc:format>image/svg+xml</dc:format>
    <dc:creator>
     <cc:Agent>
      <dc:title>Matplotlib v3.10.8, https://matplotlib.org/</dc:title>
     </cc:Agent>
    </dc:creator>
   </cc:Work>
  </rdf:RDF>
 </metadata>
 <defs>
  <style type="text/css">*{stroke-linejoin: round; stroke-linecap: butt}</style>
 </defs>
 <g id="figure_1">
  <g id="patch_1">
   <path d="M 0 446.4 
L 460.8 446.4 
L 460.8 0 
L 0 0 
z
" style="fill: #ffffff"/>
  </g>
  <g id="axes_1">
   <g id="patch_2">
    <path d="M 56.594 143.49676 
L 448.92 143.49676 
L 448.92 30.912 
L 56.594 30.912 
z
" style="fill: #ffffff"/>
   </g>
   <g id="matplotlib.axis_1">
    <g id="xtick_1">
     <g id="line2d_1">
      <defs>
       <path id="m882a0d25c5" d="M 0 0 
L 0 3.5 
" style="stroke: #000000; stroke-width: 0.8"/>
      </defs>
      <g>
       <use xlink:href="#m882a0d25c5" x="74.427" y="143.49676" style="stroke: #000000; stroke-width: 0.8"/>
      </g>
     </g>
    </g>
    <g id="xtick_2">
     <g id="line2d_2">
      <g>
       <use xlink:href="#m882a0d25c5" x="133.870333" y="143.49676" style="stroke: #000000; stroke-width: 0.8"/>
      </g>
     </g>
    </g>
    <g id="xtick_3">
     <g id="line2d_3">
      <g>
       <use xlink:href="#m882a0d25c5" x="193.313667" y="143.49676" style="stroke: #000000; stroke-width: 0.8"/>
      </g>
     </g>
    </g>
    <g id="xtick_4">
     <g id="line2d_4">
      <g>
       <use xlink:href="#m882a0d25c5" x="252.757" y="143.49676" style="stroke: #000000; stroke-width: 0.8"/>
      </g>
     </g>
    </g>
    <g id="xtick_5">
     <g id="line2d_5">
      <g>
       <use xlink:href="#m882a0d25c5" x="312.200333" y="143.49676" style="stroke: #000000; stroke-width: 0.8"/>
      </g>
     </g>
    </g>
    <g id="xtick_6">
     <g id="line2d_6">
      <g>
       <use xlink:href="#m882a0d25c5" x="371.643667" y="143.49676" style="stroke: #000000; stroke-width: 0.8"/>
      </g>
     </g>
    </g>
    <g id="xtick_7">
     <g id="line2d_7">
      <g>
       <use xlink:href="#m882a0d25c5" x="431.087" y="143.49676" style="stroke: #000000; stroke-width: 0.8"/>
      </g>
     </g>
    </g>
   </g>
   <g id="matplotlib.axis_2">
    <g id="ytick_1">
     <g id="line2d_8">
      <defs>
       <path id="m3bb097b88b" d="M 0 0 
L -3.5 0 
" style="stroke: #000000; stroke-width: 0.8"/>
      </defs>
      <g>
       <use xlink:href="#m3bb097b88b" x="56.594" y="117.904379" style="stroke: #000000; stroke-width: 0.8"/>
      </g>
     </g>
     <g id="text_1">
      <!-- −0.5 -->
      <g transform="translate(22.882906 122.08352) scale(0.11 -0.11)">
       <defs>
        <path id="DejaVuSans-2212" d="M 678 2272 
L 4684 2272 
L 4684 1741 
L 678 1741 
L 678 2272 
z
" transform="scale(0.015625)"/>
        <path id="DejaVuSans-30" d="M 2034 4250 
Q 1547 4250 1301 3770 
Q 1056 3291 1056 2328 
Q 1056 1369 1301 889 
Q 1547 409 2034 409 
Q 2525 409 2770 889 
Q 3016 1369 3016 2328 
Q 3016 3291 2770 3770 
Q 2525 4250 2034 4250 
z
M 2034 4750 
Q 2819 4750 3233 4129 
Q 3647 3509 3647 2328 
Q 3647 1150 3233 529 
Q 2819 -91 2034 -91 
Q 1250 -91 836 529 
Q 422 1150 422 2328 
Q 422 3509 836 4129 
Q 1250 4750 2034 4750 
z
" transform="scale(0.015625)"/>
        <path id="DejaVuSans-2e" d="M 684 794 
L 1344 794 
L 1344 0 
L 684 0 
L 684 794 
z
" transform="scale(0.015625)"/>
        <path id="DejaVuSans-35" d="M 691 4666 
L 3169 4666 
L 3169 4134 
L 1269 4134 
L 1269 2991 
Q 1406 3038 1543 3061 
Q 1681 3084 1819 3084 
Q 2600 3084 3056 2656 
Q 3513 2228 3513 1497 
Q 3513 744 3044 326 
Q 2575 -91 1722 -91 
Q 1428 -91 1123 -41 
Q 819 9 494 109 
L 494 744 
Q 775 591 1075 516 
Q 1375 441 1709 441 
Q 2250 441 2565 725 
Q 2881 1009 2881 1497 
Q 2881 1984 2565 2268 
Q 2250 2553 1709 2553 
Q 1456 2553 1204 2497 
Q 953 2441 691 2322 
L 691 4666 
z
" transform="scale(0.015625)"/>
       </defs>
       <use xlink:href="#DejaVuSans-2212"/>
       <use xlink:href="#DejaVuSans-30" transform="translate(83.789062 0)"/>
       <use xlink:href="#DejaVuSans-2e" transform="translate(147.412109 0)"/>
       <use xlink:href="#DejaVuSans-35" transform="translate(179.199219 0)"/>
      </g>
     </g>
    </g>
    <g id="ytick_2">
     <g id="line2d_9">
      <g>
       <use xlink:href="#m3bb097b88b" x="56.594" y="90.609713" style="stroke: #000000; stroke-width: 0.8"/>
      </g>
     </g>
     <g id="text_2">
      <!-- 0.0 -->
      <g transform="translate(32.100563 94.788854) scale(0.11 -0.11)">
       <use xlink:href="#DejaVuSans-30"/>
       <use xlink:href="#DejaVuSans-2e" transform="translate(63.623047 0)"/>
       <use xlink:href="#DejaVuSans-30" transform="translate(95.410156 0)"/>
      </g>
     </g>
    </g>
    <g id="ytick_3">
     <g id="line2d_10">
      <g>
       <use xlink:href="#m3bb097b88b" x="56.594" y="63.315048" style="stroke: #000000; stroke-width: 0.8"/>
      </g>
     </g>
     <g id="text_3">
      <!-- 0.5 -->
      <g transform="translate(32.100563 67.494188) scale(0.11 -0.11)">
       <use xlink:href="#DejaVuSans-30"/>
       <use xlink:href="#DejaVuSans-2e" transform="translate(63.623047 0)"/>
       <use xlink:href="#DejaVuSans-35" transform="translate(95.410156 0)"/>
      </g>
     </g>
    </g>
    <g id="ytick_4">
     <g id="line2d_11">
      <g>
       <use xlink:href="#m3bb097b88b" x="56.594" y="36.020382" style="stroke: #000000; stroke-width: 0.8"/>
      </g>
     </g>
     <g id="text_4">
      <!-- 1.0 -->
      <g transform="translate(32.100563 40.199523) scale(0.11 -0.11)">
       <defs>
        <path id="DejaVuSans-31" d="M 794 531 
L 1825 531 
L 1825 4091 
L 703 3866 
L 703 4441 
L 1819 4666 
L 2450 4666 
L 2450 531 
L 3481 531 
L 3481 0 
L 794 0 
L 794 531 
z
" transform="scale(0.015625)"/>
       </defs>
       <use xlink:href="#DejaVuSans-31"/>
       <use xlink:href="#DejaVuSans-2e" transform="translate(63.623047 0)"/>
       <use xlink:href="#DejaVuSans-30" transform="translate(95.410156 0)"/>
      </g>
     </g>
    </g>
    <g id="text_5">
     <!-- Re $\psi$ -->
     <g transform="translate(16.572906 99.79938) rotate(-90) scale(0.11 -0.11)">
      <defs>
       <path id="DejaVuSans-52" d="M 2841 2188 
Q 3044 2119 3236 1894 
Q 3428 1669 3622 1275 
L 4263 0 
L 3584 0 
L 2988 1197 
Q 2756 1666 2539 1819 
Q 2322 1972 1947 1972 
L 1259 1972 
L 1259 0 
L 628 0 
L 628 4666 
L 2053 4666 
Q 2853 4666 3247 4331 
Q 3641 3997 3641 3322 
Q 3641 2881 3436 2590 
Q 3231 2300 2841 2188 
z
M 1259 4147 
L 1259 2491 
L 2053 2491 
Q 2509 2491 2742 2702 
Q 2975 2913 2975 3322 
Q 2975 3731 2742 3939 
Q 2509 4147 2053 4147 
L 1259 4147 
z
" transform="scale(0.015625)"/>
       <path id="DejaVuSans-65" d="M 3597 1894 
L 3597 1613 
L 953 1613 
Q 991 1019 1311 708 
Q 1631 397 2203 397 
Q 2534 397 2845 478 
Q 3156 559 3463 722 
L 3463 178 
Q 3153 47 2828 -22 
Q 2503 -91 2169 -91 
Q 1331 -91 842 396 
Q 353 884 353 1716 
Q 353 2575 817 3079 
Q 1281 3584 2069 3584 
Q 2775 3584 3186 3129 
Q 3597 2675 3597 1894 
z
M 3022 2063 
Q 3016 2534 2758 2815 
Q 2500 3097 2075 3097 
Q 1594 3097 1305 2825 
Q 1016 2553 972 2059 
L 3022 2063 
z
" transform="scale(0.015625)"/>
       <path id="DejaVuSans-20" transform="scale(0.015625)"/>
       <path id="DejaVuSans-Oblique-3c8" d="M 1591 -78 
Q 891 38 616 341 
Q 278 713 425 1472 
L 819 3500 
L 1400 3500 
L 1009 1494 
Q 900 922 1119 684 
Q 1313 478 1691 434 
L 2284 3500 
L 2856 3500 
L 2263 438 
Q 2681 481 2928 688 
Q 3247 950 3353 1497 
L 3741 3500 
L 4322 3500 
L 3928 1475 
Q 3775 688 3300 344 
Q 2872 34 2163 -75 
L 1919 -1331 
L 1347 -1331 
L 1591 -78 
z
" transform="scale(0.015625)"/>
      </defs>
      <use xlink:href="#DejaVuSans-52" transform="translate(0 0.09375)"/>
      <use xlink:href="#DejaVuSans-65" transform="translate(69.482422 0.09375)"/>
      <use xlink:href="#DejaVuSans-20" transform="translate(131.005859 0.09375)"/>
      <use xlink:href="#DejaVuSans-Oblique-3c8" transform="translate(162.792969 0.09375)"/>
     </g>
    </g>
   </g>
   <g id="line2d_12">
    <path d="M 74.427 90.209276 
L 79.425238 90.442479 
L 84.423476 90.89076 
L 92.277851 91.868739 
L 97.276089 92.393992 
L 100.846259 92.549401 
L 103.702395 92.464997 
L 106.558532 92.149816 
L 109.057651 91.665007 
L 111.913787 90.870034 
L 114.769923 89.843285 
L 118.69711 88.16635 
L 124.409382 85.699216 
L 126.908502 84.858425 
L 129.050604 84.368372 
L 130.835689 84.171646 
L 132.620774 84.202877 
L 134.405859 84.489675 
L 136.190944 85.052256 
L 137.976029 85.90168 
L 139.761114 87.03829 
L 141.546199 88.450467 
L 143.688301 90.473484 
L 146.18742 93.198544 
L 150.114608 97.903877 
L 153.327761 101.645693 
L 155.469863 103.812151 
L 157.254948 105.282338 
L 158.683016 106.175138 
L 160.111084 106.770503 
L 161.182135 106.999152 
L 162.253186 107.025683 
L 163.324237 106.838562 
L 164.395288 106.428687 
L 165.466339 105.78964 
L 166.53739 104.91793 
L 167.608441 103.813187 
L 169.03651 101.983231 
L 170.464578 99.760942 
L 172.249663 96.474136 
L 174.034748 92.695522 
L 176.533867 86.780554 
L 184.031224 68.398973 
L 185.816309 64.840951 
L 187.244377 62.468027 
L 188.315428 61.017075 
L 189.386479 59.881909 
L 190.457531 59.089687 
L 191.171565 58.763801 
L 191.885599 58.606755 
L 192.599633 58.623583 
L 193.313667 58.818376 
L 194.027701 59.194238 
L 194.741735 59.753242 
L 195.812786 60.937035 
L 196.883837 62.533634 
L 197.954888 64.53606 
L 199.382956 67.814326 
L 200.811024 71.744381 
L 202.596109 77.474139 
L 204.738211 85.329099 
L 207.594347 96.877163 
L 212.235569 115.832854 
L 214.377671 123.567453 
L 215.805739 128.047469 
L 217.233807 131.844932 
L 218.304858 134.180165 
L 219.375909 136.031605 
L 220.44696 137.36565 
L 221.160994 137.953824 
L 221.875028 138.293367 
L 222.589062 138.37927 
L 223.303096 138.207982 
L 224.01713 137.777444 
L 224.731164 137.087121 
L 225.445198 136.138021 
L 226.516249 134.235195 
L 227.5873 131.771446 
L 228.658351 128.769731 
L 230.086419 123.984395 
L 231.514487 118.389883 
L 233.299573 110.432857 
L 235.441675 99.81989 
L 243.653066 57.877603 
L 245.438151 50.555565 
L 246.866219 45.610742 
L 247.93727 42.512144 
L 249.008321 39.982534 
L 250.079372 38.055387 
L 250.793406 37.118273 
L 251.50744 36.465969 
L 252.221474 36.102325 
L 252.935509 36.029489 
L 253.649543 36.24789 
L 254.363577 36.756239 
L 255.077611 37.551535 
L 255.791645 38.629085 
L 256.862696 40.760291 
L 257.933747 43.483662 
L 259.004798 46.763181 
L 260.432866 51.925212 
L 262.217951 59.473306 
L 264.360053 69.771265 
L 267.573206 86.62858 
L 271.500393 107.002919 
L 273.642495 116.877643 
L 275.427581 123.984395 
L 276.855649 128.769731 
L 277.9267 131.771446 
L 278.997751 134.235195 
L 280.068802 136.138021 
L 280.782836 137.087121 
L 281.49687 137.777444 
L 282.210904 138.207982 
L 282.924938 138.37927 
L 283.638972 138.293367 
L 284.353006 137.953824 
L 285.06704 137.36565 
L 285.781074 136.535258 
L 286.852125 134.85285 
L 287.923176 132.67478 
L 288.994227 130.038548 
L 290.422295 125.885548 
L 292.20738 119.831298 
L 294.349482 111.628725 
L 298.27667 95.394836 
L 301.132806 83.958583 
L 303.274908 76.262057 
L 305.059993 70.703972 
L 306.488061 66.931535 
L 307.916129 63.824162 
L 308.98718 61.955879 
L 310.058231 60.496391 
L 311.129282 59.450759 
L 311.843316 58.98352 
L 312.55735 58.698516 
L 313.271384 58.593157 
L 313.985418 58.663837 
L 314.699452 58.905989 
L 315.770504 59.578492 
L 316.841555 60.602186 
L 317.912606 61.951104 
L 319.340674 64.204388 
L 320.768742 66.906047 
L 322.553827 70.785279 
L 325.052946 76.842406 
L 331.122235 91.889445 
L 333.264337 96.474136 
L 335.049422 99.760942 
L 336.47749 101.983231 
L 337.905559 103.813187 
L 339.333627 105.23444 
L 340.404678 106.028397 
L 341.475729 106.590516 
L 342.54678 106.92529 
L 343.617831 107.040056 
L 344.688882 106.94476 
L 345.759933 106.651679 
L 347.188001 105.978254 
L 348.616069 105.017489 
L 350.401154 103.4779 
L 352.543256 101.252239 
L 355.399392 97.903877 
L 360.397631 91.990555 
L 362.89675 89.420426 
L 365.038852 87.571168 
L 366.823937 86.322233 
L 368.609022 85.35733 
L 370.394107 84.680771 
L 372.179192 84.285611 
L 373.964277 84.155094 
L 375.749362 84.264346 
L 377.534447 84.582218 
L 379.67655 85.188826 
L 382.532686 86.271224 
L 387.887941 88.643231 
L 391.815128 90.252514 
L 394.671264 91.197365 
L 397.5274 91.897211 
L 400.383537 92.338257 
L 403.239673 92.533781 
L 406.452826 92.502758 
L 410.022996 92.235987 
L 415.735268 91.547541 
L 423.232626 90.673598 
L 428.230864 90.316173 
L 431.087 90.209276 
L 431.087 90.209276 
" clip-path="url(#pa1d55d80b2)" style="fill: none; stroke: #e69f00; stroke-width: 1.8; stroke-linecap: square"/>
   </g>
   <g id="line2d_13">
    <path d="M 56.594 90.609713 
L 448.92 90.609713 
" clip-path="url(#pa1d55d80b2)" style="fill: none; stroke: #999999; stroke-width: 0.6; stroke-linecap: square"/>
   </g>
   <g id="line2d_14">
    <path d="M 252.757 143.49676 
L 252.757 30.912 
" clip-path="url(#pa1d55d80b2)" style="fill: none; stroke-dasharray: 0.7,1.155; stroke-dashoffset: 0; stroke: #999999; stroke-width: 0.7"/>
   </g>
   <g id="patch_3">
    <path d="M 56.594 143.49676 
L 56.594 30.912 
" style="fill: none; stroke: #000000; stroke-linejoin: miter; stroke-linecap: square"/>
   </g>
   <g id="patch_4">
    <path d="M 56.594 143.49676 
L 448.92 143.49676 
" style="fill: none; stroke: #000000; stroke-linejoin: miter; stroke-linecap: square"/>
   </g>
   <g id="text_6">
    <!-- Re $\psi$, Im $\psi$ oscillate — but $|\psi|^2$ does not -->
    <g transform="translate(134.677 24.912) scale(0.12 -0.12)">
     <defs>
      <path id="DejaVuSans-2c" d="M 750 794 
L 1409 794 
L 1409 256 
L 897 -744 
L 494 -744 
L 750 256 
L 750 794 
z
" transform="scale(0.015625)"/>
      <path id="DejaVuSans-49" d="M 628 4666 
L 1259 4666 
L 1259 0 
L 628 0 
L 628 4666 
z
" transform="scale(0.015625)"/>
      <path id="DejaVuSans-6d" d="M 3328 2828 
Q 3544 3216 3844 3400 
Q 4144 3584 4550 3584 
Q 5097 3584 5394 3201 
Q 5691 2819 5691 2113 
L 5691 0 
L 5113 0 
L 5113 2094 
Q 5113 2597 4934 2840 
Q 4756 3084 4391 3084 
Q 3944 3084 3684 2787 
Q 3425 2491 3425 1978 
L 3425 0 
L 2847 0 
L 2847 2094 
Q 2847 2600 2669 2842 
Q 2491 3084 2119 3084 
Q 1678 3084 1418 2786 
Q 1159 2488 1159 1978 
L 1159 0 
L 581 0 
L 581 3500 
L 1159 3500 
L 1159 2956 
Q 1356 3278 1631 3431 
Q 1906 3584 2284 3584 
Q 2666 3584 2933 3390 
Q 3200 3197 3328 2828 
z
" transform="scale(0.015625)"/>
      <path id="DejaVuSans-6f" d="M 1959 3097 
Q 1497 3097 1228 2736 
Q 959 2375 959 1747 
Q 959 1119 1226 758 
Q 1494 397 1959 397 
Q 2419 397 2687 759 
Q 2956 1122 2956 1747 
Q 2956 2369 2687 2733 
Q 2419 3097 1959 3097 
z
M 1959 3584 
Q 2709 3584 3137 3096 
Q 3566 2609 3566 1747 
Q 3566 888 3137 398 
Q 2709 -91 1959 -91 
Q 1206 -91 779 398 
Q 353 888 353 1747 
Q 353 2609 779 3096 
Q 1206 3584 1959 3584 
z
" transform="scale(0.015625)"/>
      <path id="DejaVuSans-73" d="M 2834 3397 
L 2834 2853 
Q 2591 2978 2328 3040 
Q 2066 3103 1784 3103 
Q 1356 3103 1142 2972 
Q 928 2841 928 2578 
Q 928 2378 1081 2264 
Q 1234 2150 1697 2047 
L 1894 2003 
Q 2506 1872 2764 1633 
Q 3022 1394 3022 966 
Q 3022 478 2636 193 
Q 2250 -91 1575 -91 
Q 1294 -91 989 -36 
Q 684 19 347 128 
L 347 722 
Q 666 556 975 473 
Q 1284 391 1588 391 
Q 1994 391 2212 530 
Q 2431 669 2431 922 
Q 2431 1156 2273 1281 
Q 2116 1406 1581 1522 
L 1381 1569 
Q 847 1681 609 1914 
Q 372 2147 372 2553 
Q 372 3047 722 3315 
Q 1072 3584 1716 3584 
Q 2034 3584 2315 3537 
Q 2597 3491 2834 3397 
z
" transform="scale(0.015625)"/>
      <path id="DejaVuSans-63" d="M 3122 3366 
L 3122 2828 
Q 2878 2963 2633 3030 
Q 2388 3097 2138 3097 
Q 1578 3097 1268 2742 
Q 959 2388 959 1747 
Q 959 1106 1268 751 
Q 1578 397 2138 397 
Q 2388 397 2633 464 
Q 2878 531 3122 666 
L 3122 134 
Q 2881 22 2623 -34 
Q 2366 -91 2075 -91 
Q 1284 -91 818 406 
Q 353 903 353 1747 
Q 353 2603 823 3093 
Q 1294 3584 2113 3584 
Q 2378 3584 2631 3529 
Q 2884 3475 3122 3366 
z
" transform="scale(0.015625)"/>
      <path id="DejaVuSans-69" d="M 603 3500 
L 1178 3500 
L 1178 0 
L 603 0 
L 603 3500 
z
M 603 4863 
L 1178 4863 
L 1178 4134 
L 603 4134 
L 603 4863 
z
" transform="scale(0.015625)"/>
      <path id="DejaVuSans-6c" d="M 603 4863 
L 1178 4863 
L 1178 0 
L 603 0 
L 603 4863 
z
" transform="scale(0.015625)"/>
      <path id="DejaVuSans-61" d="M 2194 1759 
Q 1497 1759 1228 1600 
Q 959 1441 959 1056 
Q 959 750 1161 570 
Q 1363 391 1709 391 
Q 2188 391 2477 730 
Q 2766 1069 2766 1631 
L 2766 1759 
L 2194 1759 
z
M 3341 1997 
L 3341 0 
L 2766 0 
L 2766 531 
Q 2569 213 2275 61 
Q 1981 -91 1556 -91 
Q 1019 -91 701 211 
Q 384 513 384 1019 
Q 384 1609 779 1909 
Q 1175 2209 1959 2209 
L 2766 2209 
L 2766 2266 
Q 2766 2663 2505 2880 
Q 2244 3097 1772 3097 
Q 1472 3097 1187 3025 
Q 903 2953 641 2809 
L 641 3341 
Q 956 3463 1253 3523 
Q 1550 3584 1831 3584 
Q 2591 3584 2966 3190 
Q 3341 2797 3341 1997 
z
" transform="scale(0.015625)"/>
      <path id="DejaVuSans-74" d="M 1172 4494 
L 1172 3500 
L 2356 3500 
L 2356 3053 
L 1172 3053 
L 1172 1153 
Q 1172 725 1289 603 
Q 1406 481 1766 481 
L 2356 481 
L 2356 0 
L 1766 0 
Q 1100 0 847 248 
Q 594 497 594 1153 
L 594 3053 
L 172 3053 
L 172 3500 
L 594 3500 
L 594 4494 
L 1172 4494 
z
" transform="scale(0.015625)"/>
      <path id="DejaVuSansDisplay-2014" d="M 313 1978 
L 6088 1978 
L 6088 1528 
L 313 1528 
L 313 1978 
z
" transform="scale(0.015625)"/>
      <path id="DejaVuSans-62" d="M 3116 1747 
Q 3116 2381 2855 2742 
Q 2594 3103 2138 3103 
Q 1681 3103 1420 2742 
Q 1159 2381 1159 1747 
Q 1159 1113 1420 752 
Q 1681 391 2138 391 
Q 2594 391 2855 752 
Q 3116 1113 3116 1747 
z
M 1159 2969 
Q 1341 3281 1617 3432 
Q 1894 3584 2278 3584 
Q 2916 3584 3314 3078 
Q 3713 2572 3713 1747 
Q 3713 922 3314 415 
Q 2916 -91 2278 -91 
Q 1894 -91 1617 61 
Q 1341 213 1159 525 
L 1159 0 
L 581 0 
L 581 4863 
L 1159 4863 
L 1159 2969 
z
" transform="scale(0.015625)"/>
      <path id="DejaVuSans-75" d="M 544 1381 
L 544 3500 
L 1119 3500 
L 1119 1403 
Q 1119 906 1312 657 
Q 1506 409 1894 409 
Q 2359 409 2629 706 
Q 2900 1003 2900 1516 
L 2900 3500 
L 3475 3500 
L 3475 0 
L 2900 0 
L 2900 538 
Q 2691 219 2414 64 
Q 2138 -91 1772 -91 
Q 1169 -91 856 284 
Q 544 659 544 1381 
z
M 1991 3584 
L 1991 3584 
z
" transform="scale(0.015625)"/>
      <path id="DejaVuSans-7c" d="M 1344 4891 
L 1344 -1509 
L 813 -1509 
L 813 4891 
L 1344 4891 
z
" transform="scale(0.015625)"/>
      <path id="DejaVuSans-32" d="M 1228 531 
L 3431 531 
L 3431 0 
L 469 0 
L 469 531 
Q 828 903 1448 1529 
Q 2069 2156 2228 2338 
Q 2531 2678 2651 2914 
Q 2772 3150 2772 3378 
Q 2772 3750 2511 3984 
Q 2250 4219 1831 4219 
Q 1534 4219 1204 4116 
Q 875 4013 500 3803 
L 500 4441 
Q 881 4594 1212 4672 
Q 1544 4750 1819 4750 
Q 2544 4750 2975 4387 
Q 3406 4025 3406 3419 
Q 3406 3131 3298 2873 
Q 3191 2616 2906 2266 
Q 2828 2175 2409 1742 
Q 1991 1309 1228 531 
z
" transform="scale(0.015625)"/>
      <path id="DejaVuSans-64" d="M 2906 2969 
L 2906 4863 
L 3481 4863 
L 3481 0 
L 2906 0 
L 2906 525 
Q 2725 213 2448 61 
Q 2172 -91 1784 -91 
Q 1150 -91 751 415 
Q 353 922 353 1747 
Q 353 2572 751 3078 
Q 1150 3584 1784 3584 
Q 2172 3584 2448 3432 
Q 2725 3281 2906 2969 
z
M 947 1747 
Q 947 1113 1208 752 
Q 1469 391 1925 391 
Q 2381 391 2643 752 
Q 2906 1113 2906 1747 
Q 2906 2381 2643 2742 
Q 2381 3103 1925 3103 
Q 1469 3103 1208 2742 
Q 947 2381 947 1747 
z
" transform="scale(0.015625)"/>
      <path id="DejaVuSans-6e" d="M 3513 2113 
L 3513 0 
L 2938 0 
L 2938 2094 
Q 2938 2591 2744 2837 
Q 2550 3084 2163 3084 
Q 1697 3084 1428 2787 
Q 1159 2491 1159 1978 
L 1159 0 
L 581 0 
L 581 3500 
L 1159 3500 
L 1159 2956 
Q 1366 3272 1645 3428 
Q 1925 3584 2291 3584 
Q 2894 3584 3203 3211 
Q 3513 2838 3513 2113 
z
" transform="scale(0.015625)"/>
     </defs>
     <use xlink:href="#DejaVuSans-52" transform="translate(0 0.765625)"/>
     <use xlink:href="#DejaVuSans-65" transform="translate(69.482422 0.765625)"/>
     <use xlink:href="#DejaVuSans-20" transform="translate(131.005859 0.765625)"/>
     <use xlink:href="#DejaVuSans-Oblique-3c8" transform="translate(162.792969 0.765625)"/>
     <use xlink:href="#DejaVuSans-2c" transform="translate(228.759766 0.765625)"/>
     <use xlink:href="#DejaVuSans-20" transform="translate(260.546875 0.765625)"/>
     <use xlink:href="#DejaVuSans-49" transform="translate(292.333984 0.765625)"/>
     <use xlink:href="#DejaVuSans-6d" transform="translate(318.201172 0.765625)"/>
     <use xlink:href="#DejaVuSans-20" transform="translate(415.613281 0.765625)"/>
     <use xlink:href="#DejaVuSans-Oblique-3c8" transform="translate(447.400391 0.765625)"/>
     <use xlink:href="#DejaVuSans-20" transform="translate(513.367188 0.765625)"/>
     <use xlink:href="#DejaVuSans-6f" transform="translate(545.154297 0.765625)"/>
     <use xlink:href="#DejaVuSans-73" transform="translate(606.335938 0.765625)"/>
     <use xlink:href="#DejaVuSans-63" transform="translate(658.435547 0.765625)"/>
     <use xlink:href="#DejaVuSans-69" transform="translate(713.416016 0.765625)"/>
     <use xlink:href="#DejaVuSans-6c" transform="translate(741.199219 0.765625)"/>
     <use xlink:href="#DejaVuSans-6c" transform="translate(768.982422 0.765625)"/>
     <use xlink:href="#DejaVuSans-61" transform="translate(796.765625 0.765625)"/>
     <use xlink:href="#DejaVuSans-74" transform="translate(858.044922 0.765625)"/>
     <use xlink:href="#DejaVuSans-65" transform="translate(897.253906 0.765625)"/>
     <use xlink:href="#DejaVuSans-20" transform="translate(958.777344 0.765625)"/>
     <use xlink:href="#DejaVuSansDisplay-2014" transform="translate(990.564453 0.765625)"/>
     <use xlink:href="#DejaVuSans-20" transform="translate(1090.564453 0.765625)"/>
     <use xlink:href="#DejaVuSans-62" transform="translate(1122.351562 0.765625)"/>
     <use xlink:href="#DejaVuSans-75" transform="translate(1185.828125 0.765625)"/>
     <use xlink:href="#DejaVuSans-74" transform="translate(1249.207031 0.765625)"/>
     <use xlink:href="#DejaVuSans-20" transform="translate(1288.416016 0.765625)"/>
     <use xlink:href="#DejaVuSans-7c" transform="translate(1320.203125 0.765625)"/>
     <use xlink:href="#DejaVuSans-Oblique-3c8" transform="translate(1353.894531 0.765625)"/>
     <use xlink:href="#DejaVuSans-7c" transform="translate(1419.861328 0.765625)"/>
     <use xlink:href="#DejaVuSans-32" transform="translate(1454.509766 39.046875) scale(0.7)"/>
     <use xlink:href="#DejaVuSans-20" transform="translate(1501.780273 0.765625)"/>
     <use xlink:href="#DejaVuSans-64" transform="translate(1533.567383 0.765625)"/>
     <use xlink:href="#DejaVuSans-6f" transform="translate(1597.043945 0.765625)"/>
     <use xlink:href="#DejaVuSans-65" transform="translate(1658.225586 0.765625)"/>
     <use xlink:href="#DejaVuSans-73" transform="translate(1719.749023 0.765625)"/>
     <use xlink:href="#DejaVuSans-20" transform="translate(1771.848633 0.765625)"/>
     <use xlink:href="#DejaVuSans-6e" transform="translate(1803.635742 0.765625)"/>
     <use xlink:href="#DejaVuSans-6f" transform="translate(1867.014648 0.765625)"/>
     <use xlink:href="#DejaVuSans-74" transform="translate(1928.196289 0.765625)"/>
    </g>
   </g>
  </g>
  <g id="axes_2">
   <g id="patch_5">
    <path d="M 56.594 272.70838 
L 448.92 272.70838 
L 448.92 160.12362 
L 56.594 160.12362 
z
" style="fill: #ffffff"/>
   </g>
   <g id="matplotlib.axis_3">
    <g id="xtick_8">
     <g id="line2d_15">
      <g>
       <use xlink:href="#m882a0d25c5" x="74.427" y="272.70838" style="stroke: #000000; stroke-width: 0.8"/>
      </g>
     </g>
    </g>
    <g id="xtick_9">
     <g id="line2d_16">
      <g>
       <use xlink:href="#m882a0d25c5" x="133.870333" y="272.70838" style="stroke: #000000; stroke-width: 0.8"/>
      </g>
     </g>
    </g>
    <g id="xtick_10">
     <g id="line2d_17">
      <g>
       <use xlink:href="#m882a0d25c5" x="193.313667" y="272.70838" style="stroke: #000000; stroke-width: 0.8"/>
      </g>
     </g>
    </g>
    <g id="xtick_11">
     <g id="line2d_18">
      <g>
       <use xlink:href="#m882a0d25c5" x="252.757" y="272.70838" style="stroke: #000000; stroke-width: 0.8"/>
      </g>
     </g>
    </g>
    <g id="xtick_12">
     <g id="line2d_19">
      <g>
       <use xlink:href="#m882a0d25c5" x="312.200333" y="272.70838" style="stroke: #000000; stroke-width: 0.8"/>
      </g>
     </g>
    </g>
    <g id="xtick_13">
     <g id="line2d_20">
      <g>
       <use xlink:href="#m882a0d25c5" x="371.643667" y="272.70838" style="stroke: #000000; stroke-width: 0.8"/>
      </g>
     </g>
    </g>
    <g id="xtick_14">
     <g id="line2d_21">
      <g>
       <use xlink:href="#m882a0d25c5" x="431.087" y="272.70838" style="stroke: #000000; stroke-width: 0.8"/>
      </g>
     </g>
    </g>
   </g>
   <g id="matplotlib.axis_4">
    <g id="ytick_5">
     <g id="line2d_22">
      <g>
       <use xlink:href="#m3bb097b88b" x="56.594" y="269.326282" style="stroke: #000000; stroke-width: 0.8"/>
      </g>
     </g>
     <g id="text_7">
      <!-- −1.0 -->
      <g transform="translate(22.882906 273.505422) scale(0.11 -0.11)">
       <use xlink:href="#DejaVuSans-2212"/>
       <use xlink:href="#DejaVuSans-31" transform="translate(83.789062 0)"/>
       <use xlink:href="#DejaVuSans-2e" transform="translate(147.412109 0)"/>
       <use xlink:href="#DejaVuSans-30" transform="translate(179.199219 0)"/>
      </g>
     </g>
    </g>
    <g id="ytick_6">
     <g id="line2d_23">
      <g>
       <use xlink:href="#m3bb097b88b" x="56.594" y="242.871141" style="stroke: #000000; stroke-width: 0.8"/>
      </g>
     </g>
     <g id="text_8">
      <!-- −0.5 -->
      <g transform="translate(22.882906 247.050281) scale(0.11 -0.11)">
       <use xlink:href="#DejaVuSans-2212"/>
       <use xlink:href="#DejaVuSans-30" transform="translate(83.789062 0)"/>
       <use xlink:href="#DejaVuSans-2e" transform="translate(147.412109 0)"/>
       <use xlink:href="#DejaVuSans-35" transform="translate(179.199219 0)"/>
      </g>
     </g>
    </g>
    <g id="ytick_7">
     <g id="line2d_24">
      <g>
       <use xlink:href="#m3bb097b88b" x="56.594" y="216.416" style="stroke: #000000; stroke-width: 0.8"/>
      </g>
     </g>
     <g id="text_9">
      <!-- 0.0 -->
      <g transform="translate(32.100563 220.595141) scale(0.11 -0.11)">
       <use xlink:href="#DejaVuSans-30"/>
       <use xlink:href="#DejaVuSans-2e" transform="translate(63.623047 0)"/>
       <use xlink:href="#DejaVuSans-30" transform="translate(95.410156 0)"/>
      </g>
     </g>
    </g>
    <g id="ytick_8">
     <g id="line2d_25">
      <g>
       <use xlink:href="#m3bb097b88b" x="56.594" y="189.960859" style="stroke: #000000; stroke-width: 0.8"/>
      </g>
     </g>
     <g id="text_10">
      <!-- 0.5 -->
      <g transform="translate(32.100563 194.14) scale(0.11 -0.11)">
       <use xlink:href="#DejaVuSans-30"/>
       <use xlink:href="#DejaVuSans-2e" transform="translate(63.623047 0)"/>
       <use xlink:href="#DejaVuSans-35" transform="translate(95.410156 0)"/>
      </g>
     </g>
    </g>
    <g id="ytick_9">
     <g id="line2d_26">
      <g>
       <use xlink:href="#m3bb097b88b" x="56.594" y="163.505718" style="stroke: #000000; stroke-width: 0.8"/>
      </g>
     </g>
     <g id="text_11">
      <!-- 1.0 -->
      <g transform="translate(32.100563 167.684859) scale(0.11 -0.11)">
       <use xlink:href="#DejaVuSans-31"/>
       <use xlink:href="#DejaVuSans-2e" transform="translate(63.623047 0)"/>
       <use xlink:href="#DejaVuSans-30" transform="translate(95.410156 0)"/>
      </g>
     </g>
    </g>
    <g id="text_12">
     <!-- Im $\psi$ -->
     <g transform="translate(16.572906 228.626) rotate(-90) scale(0.11 -0.11)">
      <use xlink:href="#DejaVuSans-49" transform="translate(0 0.09375)"/>
      <use xlink:href="#DejaVuSans-6d" transform="translate(25.867188 0.09375)"/>
      <use xlink:href="#DejaVuSans-20" transform="translate(123.279297 0.09375)"/>
      <use xlink:href="#DejaVuSans-Oblique-3c8" transform="translate(155.066406 0.09375)"/>
     </g>
    </g>
   </g>
   <g id="line2d_27">
    <path d="M 74.427 215.974585 
L 83.709442 215.509869 
L 87.993647 215.510613 
L 91.920834 215.732383 
L 95.491004 216.152057 
L 99.418191 216.849895 
L 104.416429 217.992546 
L 110.485719 219.358662 
L 113.341855 219.790189 
L 115.840974 219.958283 
L 117.983076 219.901762 
L 120.125178 219.629005 
L 122.26728 219.119575 
L 124.409382 218.364528 
L 126.551484 217.36884 
L 129.050604 215.931721 
L 131.90674 214.00489 
L 140.118131 208.235668 
L 142.260233 207.130516 
L 144.045318 206.481289 
L 145.473386 206.17939 
L 146.901454 206.098079 
L 148.329523 206.258733 
L 149.757591 206.678221 
L 151.185659 207.368081 
L 152.613727 208.333773 
L 154.041795 209.574041 
L 155.469863 211.080418 
L 157.254948 213.312476 
L 159.39705 216.436878 
L 161.896169 220.543555 
L 169.03651 232.652017 
L 170.821595 235.131674 
L 172.249663 236.783941 
L 173.677731 238.076575 
L 174.748782 238.776992 
L 175.819833 239.223804 
L 176.890884 239.39913 
L 177.961935 239.288089 
L 179.032986 238.879141 
L 180.104037 238.164412 
L 181.175088 237.139952 
L 182.246139 235.805973 
L 183.31719 234.167006 
L 184.745258 231.52344 
L 186.173326 228.387792 
L 187.958411 223.850181 
L 190.100514 217.664574 
L 192.95665 208.612209 
L 197.597871 193.846358 
L 199.739973 187.881709 
L 201.168041 184.464167 
L 202.596109 181.610612 
L 203.66716 179.894859 
L 204.738211 178.580261 
L 205.809262 177.695603 
L 206.523296 177.356625 
L 207.23733 177.225075 
L 207.951364 177.305486 
L 208.665398 177.601195 
L 209.379432 178.114301 
L 210.093466 178.845629 
L 211.164518 180.350392 
L 212.235569 182.337616 
L 213.30662 184.793415 
L 214.734688 188.76022 
L 216.162756 193.456009 
L 217.947841 200.217692 
L 220.089943 209.360856 
L 223.303096 224.269718 
L 226.873266 240.702279 
L 229.015368 249.544731 
L 230.800453 255.896043 
L 232.228522 260.13067 
L 233.299573 262.739912 
L 234.370624 264.819378 
L 235.441675 266.336617 
L 236.155709 267.022968 
L 236.869743 267.442419 
L 237.583777 267.590891 
L 238.297811 267.465883 
L 239.011845 267.066503 
L 239.725879 266.393482 
L 240.439913 265.449175 
L 241.510964 263.533184 
L 242.582015 261.03626 
L 243.653066 257.986422 
L 245.081134 253.122354 
L 246.509202 247.442918 
L 248.294287 239.386781 
L 250.793406 226.828517 
L 257.57673 191.76041 
L 259.361815 183.899221 
L 260.789883 178.412782 
L 262.217951 173.769574 
L 263.289002 170.900455 
L 264.360053 168.594445 
L 265.431104 166.876971 
L 266.145138 166.067911 
L 266.859172 165.531518 
L 267.573206 165.269335 
L 268.28724 165.281279 
L 269.001274 165.565652 
L 269.715308 166.119161 
L 270.429342 166.936947 
L 271.500393 168.644767 
L 272.571444 170.904771 
L 273.642495 173.682228 
L 275.070564 178.118404 
L 276.498632 183.287269 
L 278.283717 190.581608 
L 280.782836 201.848529 
L 286.495108 228.160546 
L 288.63721 236.780968 
L 290.422295 242.963128 
L 291.850363 247.119221 
L 293.278431 250.494384 
L 294.349482 252.481608 
L 295.420534 253.986371 
L 296.491585 255.001509 
L 297.205619 255.405732 
L 297.919653 255.593452 
L 298.633687 255.567389 
L 299.347721 255.331485 
L 300.061755 254.890856 
L 300.775789 254.251739 
L 301.84684 252.937141 
L 302.917891 251.221388 
L 304.345959 248.367833 
L 305.774027 244.950291 
L 307.559112 240.037197 
L 310.058231 232.338313 
L 316.484538 211.987498 
L 318.62664 206.182199 
L 320.411725 202.047965 
L 321.839793 199.27767 
L 323.267861 197.026027 
L 324.338912 195.692048 
L 325.409963 194.667588 
L 326.481014 193.952859 
L 327.552065 193.543911 
L 328.623116 193.43287 
L 329.694167 193.608196 
L 330.765218 194.055008 
L 331.836269 194.755425 
L 332.90732 195.688951 
L 334.335388 197.256739 
L 335.763456 199.139727 
L 337.548542 201.841219 
L 340.047661 206.045666 
L 345.759933 215.83436 
L 347.902035 219.030197 
L 349.68712 221.335117 
L 351.472205 223.257959 
L 352.900273 224.498227 
L 354.328341 225.463919 
L 355.756409 226.153779 
L 357.184477 226.573267 
L 358.612546 226.733921 
L 360.040614 226.65261 
L 361.468682 226.350711 
L 363.253767 225.701484 
L 365.038852 224.801364 
L 367.180954 223.472352 
L 370.394107 221.183031 
L 375.749362 217.357821 
L 378.248481 215.845421 
L 380.390584 214.773316 
L 382.532686 213.936755 
L 384.674788 213.345804 
L 386.81689 212.995914 
L 388.958992 212.870183 
L 391.458111 212.97095 
L 394.314247 213.346095 
L 397.884417 214.073223 
L 408.951945 216.512821 
L 412.522115 216.99617 
L 416.092285 217.26818 
L 420.019472 217.347767 
L 425.017711 217.205607 
L 431.087 216.857415 
L 431.087 216.857415 
" clip-path="url(#pee970ce53d)" style="fill: none; stroke-dasharray: 6.66,2.88; stroke-dashoffset: 0; stroke: #cc79a7; stroke-width: 1.8"/>
   </g>
   <g id="line2d_28">
    <path d="M 56.594 216.416 
L 448.92 216.416 
" clip-path="url(#pee970ce53d)" style="fill: none; stroke: #999999; stroke-width: 0.6; stroke-linecap: square"/>
   </g>
   <g id="line2d_29">
    <path d="M 252.757 272.70838 
L 252.757 160.12362 
" clip-path="url(#pee970ce53d)" style="fill: none; stroke-dasharray: 0.7,1.155; stroke-dashoffset: 0; stroke: #999999; stroke-width: 0.7"/>
   </g>
   <g id="patch_6">
    <path d="M 56.594 272.70838 
L 56.594 160.12362 
" style="fill: none; stroke: #000000; stroke-linejoin: miter; stroke-linecap: square"/>
   </g>
   <g id="patch_7">
    <path d="M 56.594 272.70838 
L 448.92 272.70838 
" style="fill: none; stroke: #000000; stroke-linejoin: miter; stroke-linecap: square"/>
   </g>
  </g>
  <g id="axes_3">
   <g id="patch_8">
    <path d="M 56.594 401.92 
L 448.92 401.92 
L 448.92 289.33524 
L 56.594 289.33524 
z
" style="fill: #ffffff"/>
   </g>
   <g id="FillBetweenPolyCollection_1">
    <defs>
     <path id="madb10394bf" d="M 74.427 -44.48 
L 74.427 -44.493233 
L 74.784017 -44.493718 
L 75.141034 -44.494219 
L 75.498051 -44.494739 
L 75.855068 -44.495275 
L 76.212085 -44.495831 
L 76.569102 -44.496405 
L 76.926119 -44.496999 
L 77.283136 -44.497613 
L 77.640153 -44.498249 
L 77.99717 -44.498905 
L 78.354187 -44.499584 
L 78.711204 -44.500286 
L 79.068221 -44.501011 
L 79.425238 -44.501761 
L 79.782255 -44.502536 
L 80.139272 -44.503337 
L 80.496289 -44.504164 
L 80.853306 -44.505019 
L 81.210323 -44.505903 
L 81.56734 -44.506815 
L 81.924357 -44.507758 
L 82.281374 -44.508732 
L 82.638391 -44.509738 
L 82.995408 -44.510777 
L 83.352425 -44.51185 
L 83.709442 -44.512958 
L 84.066459 -44.514102 
L 84.423476 -44.515283 
L 84.780493 -44.516503 
L 85.137511 -44.517762 
L 85.494528 -44.519061 
L 85.851545 -44.520403 
L 86.208562 -44.521787 
L 86.565579 -44.523216 
L 86.922596 -44.52469 
L 87.279613 -44.526211 
L 87.63663 -44.527781 
L 87.993647 -44.529401 
L 88.350664 -44.531071 
L 88.707681 -44.532794 
L 89.064698 -44.534572 
L 89.421715 -44.536405 
L 89.778732 -44.538296 
L 90.135749 -44.540246 
L 90.492766 -44.542256 
L 90.849783 -44.544329 
L 91.2068 -44.546466 
L 91.563817 -44.548669 
L 91.920834 -44.55094 
L 92.277851 -44.553281 
L 92.634868 -44.555694 
L 92.991885 -44.55818 
L 93.348902 -44.560742 
L 93.705919 -44.563383 
L 94.062936 -44.566103 
L 94.419953 -44.568906 
L 94.77697 -44.571793 
L 95.133987 -44.574767 
L 95.491004 -44.577831 
L 95.848021 -44.580986 
L 96.205038 -44.584236 
L 96.562055 -44.587582 
L 96.919072 -44.591028 
L 97.276089 -44.594576 
L 97.633106 -44.598228 
L 97.990123 -44.601989 
L 98.34714 -44.60586 
L 98.704157 -44.609844 
L 99.061174 -44.613945 
L 99.418191 -44.618165 
L 99.775208 -44.622508 
L 100.132225 -44.626977 
L 100.489242 -44.631575 
L 100.846259 -44.636306 
L 101.203276 -44.641173 
L 101.560293 -44.646179 
L 101.91731 -44.651329 
L 102.274327 -44.656625 
L 102.631344 -44.662072 
L 102.988361 -44.667673 
L 103.345378 -44.673433 
L 103.702395 -44.679355 
L 104.059412 -44.685443 
L 104.416429 -44.691703 
L 104.773446 -44.698137 
L 105.130463 -44.70475 
L 105.48748 -44.711548 
L 105.844497 -44.718533 
L 106.201515 -44.725712 
L 106.558532 -44.733089 
L 106.915549 -44.740668 
L 107.272566 -44.748455 
L 107.629583 -44.756454 
L 107.9866 -44.764671 
L 108.343617 -44.773112 
L 108.700634 -44.78178 
L 109.057651 -44.790683 
L 109.414668 -44.799825 
L 109.771685 -44.809213 
L 110.128702 -44.818852 
L 110.485719 -44.828748 
L 110.842736 -44.838907 
L 111.199753 -44.849335 
L 111.55677 -44.860038 
L 111.913787 -44.871024 
L 112.270804 -44.882298 
L 112.627821 -44.893868 
L 112.984838 -44.905739 
L 113.341855 -44.91792 
L 113.698872 -44.930416 
L 114.055889 -44.943236 
L 114.412906 -44.956386 
L 114.769923 -44.969874 
L 115.12694 -44.983707 
L 115.483957 -44.997894 
L 115.840974 -45.012442 
L 116.197991 -45.027359 
L 116.555008 -45.042654 
L 116.912025 -45.058334 
L 117.269042 -45.074408 
L 117.626059 -45.090885 
L 117.983076 -45.107774 
L 118.340093 -45.125082 
L 118.69711 -45.142821 
L 119.054127 -45.160997 
L 119.411144 -45.179622 
L 119.768161 -45.198704 
L 120.125178 -45.218254 
L 120.482195 -45.23828 
L 120.839212 -45.258794 
L 121.196229 -45.279805 
L 121.553246 -45.301323 
L 121.910263 -45.32336 
L 122.26728 -45.345925 
L 122.624297 -45.36903 
L 122.981314 -45.392686 
L 123.338331 -45.416903 
L 123.695348 -45.441694 
L 124.052365 -45.467069 
L 124.409382 -45.493041 
L 124.766399 -45.519622 
L 125.123416 -45.546822 
L 125.480433 -45.574656 
L 125.83745 -45.603134 
L 126.194467 -45.632271 
L 126.551484 -45.662077 
L 126.908502 -45.692568 
L 127.265519 -45.723755 
L 127.622536 -45.755652 
L 127.979553 -45.788273 
L 128.33657 -45.821632 
L 128.693587 -45.855741 
L 129.050604 -45.890616 
L 129.407621 -45.926271 
L 129.764638 -45.96272 
L 130.121655 -45.999978 
L 130.478672 -46.03806 
L 130.835689 -46.076981 
L 131.192706 -46.116756 
L 131.549723 -46.1574 
L 131.90674 -46.19893 
L 132.263757 -46.241361 
L 132.620774 -46.284709 
L 132.977791 -46.32899 
L 133.334808 -46.374222 
L 133.691825 -46.420419 
L 134.048842 -46.467601 
L 134.405859 -46.515782 
L 134.762876 -46.564981 
L 135.119893 -46.615215 
L 135.47691 -46.666502 
L 135.833927 -46.718859 
L 136.190944 -46.772304 
L 136.547961 -46.826855 
L 136.904978 -46.882532 
L 137.261995 -46.939352 
L 137.619012 -46.997334 
L 137.976029 -47.056498 
L 138.333046 -47.116861 
L 138.690063 -47.178444 
L 139.04708 -47.241266 
L 139.404097 -47.305347 
L 139.761114 -47.370707 
L 140.118131 -47.437365 
L 140.475148 -47.505341 
L 140.832165 -47.574658 
L 141.189182 -47.645333 
L 141.546199 -47.71739 
L 141.903216 -47.790848 
L 142.260233 -47.865728 
L 142.61725 -47.942052 
L 142.974267 -48.019841 
L 143.331284 -48.099117 
L 143.688301 -48.179902 
L 144.045318 -48.262217 
L 144.402335 -48.346084 
L 144.759352 -48.431526 
L 145.116369 -48.518565 
L 145.473386 -48.607223 
L 145.830403 -48.697523 
L 146.18742 -48.789488 
L 146.544437 -48.883141 
L 146.901454 -48.978505 
L 147.258471 -49.075602 
L 147.615488 -49.174456 
L 147.972506 -49.275091 
L 148.329523 -49.37753 
L 148.68654 -49.481796 
L 149.043557 -49.587913 
L 149.400574 -49.695906 
L 149.757591 -49.805798 
L 150.114608 -49.917612 
L 150.471625 -50.031374 
L 150.828642 -50.147106 
L 151.185659 -50.264835 
L 151.542676 -50.384582 
L 151.899693 -50.506374 
L 152.25671 -50.630234 
L 152.613727 -50.756188 
L 152.970744 -50.884258 
L 153.327761 -51.014471 
L 153.684778 -51.14685 
L 154.041795 -51.28142 
L 154.398812 -51.418206 
L 154.755829 -51.557232 
L 155.112846 -51.698523 
L 155.469863 -51.842104 
L 155.82688 -51.987999 
L 156.183897 -52.136233 
L 156.540914 -52.28683 
L 156.897931 -52.439815 
L 157.254948 -52.595213 
L 157.611965 -52.753047 
L 157.968982 -52.913343 
L 158.325999 -53.076125 
L 158.683016 -53.241416 
L 159.040033 -53.409242 
L 159.39705 -53.579626 
L 159.754067 -53.752592 
L 160.111084 -53.928164 
L 160.468101 -54.106366 
L 160.825118 -54.287221 
L 161.182135 -54.470754 
L 161.539152 -54.656987 
L 161.896169 -54.845943 
L 162.253186 -55.037646 
L 162.610203 -55.232119 
L 162.96722 -55.429384 
L 163.324237 -55.629464 
L 163.681254 -55.832381 
L 164.038271 -56.038156 
L 164.395288 -56.246813 
L 164.752305 -56.458373 
L 165.109322 -56.672856 
L 165.466339 -56.890285 
L 165.823356 -57.11068 
L 166.180373 -57.334061 
L 166.53739 -57.560449 
L 166.894407 -57.789865 
L 167.251424 -58.022326 
L 167.608441 -58.257854 
L 167.965458 -58.496467 
L 168.322475 -58.738184 
L 168.679492 -58.983022 
L 169.03651 -59.231001 
L 169.393527 -59.482138 
L 169.750544 -59.736449 
L 170.107561 -59.993952 
L 170.464578 -60.254664 
L 170.821595 -60.518599 
L 171.178612 -60.785774 
L 171.535629 -61.056204 
L 171.892646 -61.329903 
L 172.249663 -61.606886 
L 172.60668 -61.887166 
L 172.963697 -62.170756 
L 173.320714 -62.45767 
L 173.677731 -62.747918 
L 174.034748 -63.041514 
L 174.391765 -63.338468 
L 174.748782 -63.63879 
L 175.105799 -63.94249 
L 175.462816 -64.249579 
L 175.819833 -64.560064 
L 176.17685 -64.873954 
L 176.533867 -65.191257 
L 176.890884 -65.511979 
L 177.247901 -65.836126 
L 177.604918 -66.163705 
L 177.961935 -66.494721 
L 178.318952 -66.829177 
L 178.675969 -67.167078 
L 179.032986 -67.508426 
L 179.390003 -67.853223 
L 179.74702 -68.201472 
L 180.104037 -68.553173 
L 180.461054 -68.908325 
L 180.818071 -69.266929 
L 181.175088 -69.628983 
L 181.532105 -69.994484 
L 181.889122 -70.36343 
L 182.246139 -70.735816 
L 182.603156 -71.111639 
L 182.960173 -71.490893 
L 183.31719 -71.873571 
L 183.674207 -72.259666 
L 184.031224 -72.649171 
L 184.388241 -73.042077 
L 184.745258 -73.438373 
L 185.102275 -73.83805 
L 185.459292 -74.241096 
L 185.816309 -74.647499 
L 186.173326 -75.057246 
L 186.530343 -75.470322 
L 186.88736 -75.886712 
L 187.244377 -76.306401 
L 187.601394 -76.729372 
L 187.958411 -77.155606 
L 188.315428 -77.585085 
L 188.672445 -78.01779 
L 189.029462 -78.4537 
L 189.386479 -78.892792 
L 189.743496 -79.335045 
L 190.100514 -79.780434 
L 190.457531 -80.228936 
L 190.814548 -80.680524 
L 191.171565 -81.135172 
L 191.528582 -81.592853 
L 191.885599 -82.053537 
L 192.242616 -82.517196 
L 192.599633 -82.983798 
L 192.95665 -83.453313 
L 193.313667 -83.925707 
L 193.670684 -84.400946 
L 194.027701 -84.878996 
L 194.384718 -85.359822 
L 194.741735 -85.843386 
L 195.098752 -86.329651 
L 195.455769 -86.818578 
L 195.812786 -87.310127 
L 196.169803 -87.804257 
L 196.52682 -88.300926 
L 196.883837 -88.800092 
L 197.240854 -89.30171 
L 197.597871 -89.805735 
L 197.954888 -90.312121 
L 198.311905 -90.820821 
L 198.668922 -91.331788 
L 199.025939 -91.844971 
L 199.382956 -92.360321 
L 199.739973 -92.877786 
L 200.09699 -93.397314 
L 200.454007 -93.918853 
L 200.811024 -94.442347 
L 201.168041 -94.967742 
L 201.525058 -95.494981 
L 201.882075 -96.024008 
L 202.239092 -96.554763 
L 202.596109 -97.087189 
L 202.953126 -97.621224 
L 203.310143 -98.156807 
L 203.66716 -98.693877 
L 204.024177 -99.232371 
L 204.381194 -99.772224 
L 204.738211 -100.313372 
L 205.095228 -100.855749 
L 205.452245 -101.399288 
L 205.809262 -101.943921 
L 206.166279 -102.489581 
L 206.523296 -103.036198 
L 206.880313 -103.583701 
L 207.23733 -104.132019 
L 207.594347 -104.681081 
L 207.951364 -105.230814 
L 208.308381 -105.781145 
L 208.665398 -106.331998 
L 209.022415 -106.883299 
L 209.379432 -107.434971 
L 209.736449 -107.986939 
L 210.093466 -108.539125 
L 210.450483 -109.091451 
L 210.807501 -109.643837 
L 211.164518 -110.196205 
L 211.521535 -110.748473 
L 211.878552 -111.300562 
L 212.235569 -111.85239 
L 212.592586 -112.403875 
L 212.949603 -112.954933 
L 213.30662 -113.505483 
L 213.663637 -114.055439 
L 214.020654 -114.604717 
L 214.377671 -115.153234 
L 214.734688 -115.700902 
L 215.091705 -116.247636 
L 215.448722 -116.793351 
L 215.805739 -117.337958 
L 216.162756 -117.881372 
L 216.519773 -118.423503 
L 216.87679 -118.964265 
L 217.233807 -119.503569 
L 217.590824 -120.041327 
L 217.947841 -120.577448 
L 218.304858 -121.111845 
L 218.661875 -121.644427 
L 219.018892 -122.175106 
L 219.375909 -122.70379 
L 219.732926 -123.23039 
L 220.089943 -123.754816 
L 220.44696 -124.276977 
L 220.803977 -124.796783 
L 221.160994 -125.314143 
L 221.518011 -125.828967 
L 221.875028 -126.341163 
L 222.232045 -126.850642 
L 222.589062 -127.357312 
L 222.946079 -127.861082 
L 223.303096 -128.361864 
L 223.660113 -128.859565 
L 224.01713 -129.354096 
L 224.374147 -129.845366 
L 224.731164 -130.333286 
L 225.088181 -130.817766 
L 225.445198 -131.298716 
L 225.802215 -131.776046 
L 226.159232 -132.24967 
L 226.516249 -132.719496 
L 226.873266 -133.185438 
L 227.230283 -133.647407 
L 227.5873 -134.105315 
L 227.944317 -134.559076 
L 228.301334 -135.008603 
L 228.658351 -135.45381 
L 229.015368 -135.894612 
L 229.372385 -136.330922 
L 229.729402 -136.762657 
L 230.086419 -137.189732 
L 230.443436 -137.612065 
L 230.800453 -138.029572 
L 231.15747 -138.442172 
L 231.514487 -138.849783 
L 231.871505 -139.252325 
L 232.228522 -139.649718 
L 232.585539 -140.041883 
L 232.942556 -140.428741 
L 233.299573 -140.810215 
L 233.65659 -141.186229 
L 234.013607 -141.556707 
L 234.370624 -141.921574 
L 234.727641 -142.280757 
L 235.084658 -142.634182 
L 235.441675 -142.981777 
L 235.798692 -143.323473 
L 236.155709 -143.659198 
L 236.512726 -143.988884 
L 236.869743 -144.312464 
L 237.22676 -144.62987 
L 237.583777 -144.941037 
L 237.940794 -145.245902 
L 238.297811 -145.5444 
L 238.654828 -145.836469 
L 239.011845 -146.12205 
L 239.368862 -146.401082 
L 239.725879 -146.673507 
L 240.082896 -146.939268 
L 240.439913 -147.19831 
L 240.79693 -147.450577 
L 241.153947 -147.696017 
L 241.510964 -147.934578 
L 241.867981 -148.16621 
L 242.224998 -148.390864 
L 242.582015 -148.608492 
L 242.939032 -148.819048 
L 243.296049 -149.022488 
L 243.653066 -149.218767 
L 244.010083 -149.407845 
L 244.3671 -149.589681 
L 244.724117 -149.764236 
L 245.081134 -149.931473 
L 245.438151 -150.091356 
L 245.795168 -150.243851 
L 246.152185 -150.388925 
L 246.509202 -150.526548 
L 246.866219 -150.656688 
L 247.223236 -150.77932 
L 247.580253 -150.894415 
L 247.93727 -151.00195 
L 248.294287 -151.101901 
L 248.651304 -151.194247 
L 249.008321 -151.278968 
L 249.365338 -151.356045 
L 249.722355 -151.425462 
L 250.079372 -151.487203 
L 250.436389 -151.541257 
L 250.793406 -151.58761 
L 251.150423 -151.626253 
L 251.50744 -151.657177 
L 251.864457 -151.680376 
L 252.221474 -151.695845 
L 252.578491 -151.70358 
L 252.935509 -151.70358 
L 253.292526 -151.695845 
L 253.649543 -151.680376 
L 254.00656 -151.657177 
L 254.363577 -151.626253 
L 254.720594 -151.58761 
L 255.077611 -151.541257 
L 255.434628 -151.487203 
L 255.791645 -151.425462 
L 256.148662 -151.356045 
L 256.505679 -151.278968 
L 256.862696 -151.194247 
L 257.219713 -151.101901 
L 257.57673 -151.00195 
L 257.933747 -150.894415 
L 258.290764 -150.77932 
L 258.647781 -150.656688 
L 259.004798 -150.526548 
L 259.361815 -150.388925 
L 259.718832 -150.243851 
L 260.075849 -150.091356 
L 260.432866 -149.931473 
L 260.789883 -149.764236 
L 261.1469 -149.589681 
L 261.503917 -149.407845 
L 261.860934 -149.218767 
L 262.217951 -149.022488 
L 262.574968 -148.819048 
L 262.931985 -148.608492 
L 263.289002 -148.390864 
L 263.646019 -148.16621 
L 264.003036 -147.934578 
L 264.360053 -147.696017 
L 264.71707 -147.450577 
L 265.074087 -147.19831 
L 265.431104 -146.939268 
L 265.788121 -146.673507 
L 266.145138 -146.401082 
L 266.502155 -146.12205 
L 266.859172 -145.836469 
L 267.216189 -145.5444 
L 267.573206 -145.245902 
L 267.930223 -144.941037 
L 268.28724 -144.62987 
L 268.644257 -144.312464 
L 269.001274 -143.988884 
L 269.358291 -143.659198 
L 269.715308 -143.323473 
L 270.072325 -142.981777 
L 270.429342 -142.634182 
L 270.786359 -142.280757 
L 271.143376 -141.921574 
L 271.500393 -141.556707 
L 271.85741 -141.186229 
L 272.214427 -140.810215 
L 272.571444 -140.428741 
L 272.928461 -140.041883 
L 273.285478 -139.649718 
L 273.642495 -139.252325 
L 273.999513 -138.849783 
L 274.35653 -138.442172 
L 274.713547 -138.029572 
L 275.070564 -137.612065 
L 275.427581 -137.189732 
L 275.784598 -136.762657 
L 276.141615 -136.330922 
L 276.498632 -135.894612 
L 276.855649 -135.45381 
L 277.212666 -135.008603 
L 277.569683 -134.559076 
L 277.9267 -134.105315 
L 278.283717 -133.647407 
L 278.640734 -133.185438 
L 278.997751 -132.719496 
L 279.354768 -132.24967 
L 279.711785 -131.776046 
L 280.068802 -131.298716 
L 280.425819 -130.817766 
L 280.782836 -130.333286 
L 281.139853 -129.845366 
L 281.49687 -129.354096 
L 281.853887 -128.859565 
L 282.210904 -128.361864 
L 282.567921 -127.861082 
L 282.924938 -127.357312 
L 283.281955 -126.850642 
L 283.638972 -126.341163 
L 283.995989 -125.828967 
L 284.353006 -125.314143 
L 284.710023 -124.796783 
L 285.06704 -124.276977 
L 285.424057 -123.754816 
L 285.781074 -123.23039 
L 286.138091 -122.70379 
L 286.495108 -122.175106 
L 286.852125 -121.644427 
L 287.209142 -121.111845 
L 287.566159 -120.577448 
L 287.923176 -120.041327 
L 288.280193 -119.503569 
L 288.63721 -118.964265 
L 288.994227 -118.423503 
L 289.351244 -117.881372 
L 289.708261 -117.337958 
L 290.065278 -116.793351 
L 290.422295 -116.247636 
L 290.779312 -115.700902 
L 291.136329 -115.153234 
L 291.493346 -114.604717 
L 291.850363 -114.055439 
L 292.20738 -113.505483 
L 292.564397 -112.954933 
L 292.921414 -112.403875 
L 293.278431 -111.85239 
L 293.635448 -111.300562 
L 293.992465 -110.748473 
L 294.349482 -110.196205 
L 294.706499 -109.643837 
L 295.063517 -109.091451 
L 295.420534 -108.539125 
L 295.777551 -107.986939 
L 296.134568 -107.434971 
L 296.491585 -106.883299 
L 296.848602 -106.331998 
L 297.205619 -105.781145 
L 297.562636 -105.230814 
L 297.919653 -104.681081 
L 298.27667 -104.132019 
L 298.633687 -103.583701 
L 298.990704 -103.036198 
L 299.347721 -102.489581 
L 299.704738 -101.943921 
L 300.061755 -101.399288 
L 300.418772 -100.855749 
L 300.775789 -100.313372 
L 301.132806 -99.772224 
L 301.489823 -99.232371 
L 301.84684 -98.693877 
L 302.203857 -98.156807 
L 302.560874 -97.621224 
L 302.917891 -97.087189 
L 303.274908 -96.554763 
L 303.631925 -96.024008 
L 303.988942 -95.494981 
L 304.345959 -94.967742 
L 304.702976 -94.442347 
L 305.059993 -93.918853 
L 305.41701 -93.397314 
L 305.774027 -92.877786 
L 306.131044 -92.360321 
L 306.488061 -91.844971 
L 306.845078 -91.331788 
L 307.202095 -90.820821 
L 307.559112 -90.312121 
L 307.916129 -89.805735 
L 308.273146 -89.30171 
L 308.630163 -88.800092 
L 308.98718 -88.300926 
L 309.344197 -87.804257 
L 309.701214 -87.310127 
L 310.058231 -86.818578 
L 310.415248 -86.329651 
L 310.772265 -85.843386 
L 311.129282 -85.359822 
L 311.486299 -84.878996 
L 311.843316 -84.400946 
L 312.200333 -83.925707 
L 312.55735 -83.453313 
L 312.914367 -82.983798 
L 313.271384 -82.517196 
L 313.628401 -82.053537 
L 313.985418 -81.592853 
L 314.342435 -81.135172 
L 314.699452 -80.680524 
L 315.056469 -80.228936 
L 315.413486 -79.780434 
L 315.770504 -79.335045 
L 316.127521 -78.892792 
L 316.484538 -78.4537 
L 316.841555 -78.01779 
L 317.198572 -77.585085 
L 317.555589 -77.155606 
L 317.912606 -76.729372 
L 318.269623 -76.306401 
L 318.62664 -75.886712 
L 318.983657 -75.470322 
L 319.340674 -75.057246 
L 319.697691 -74.647499 
L 320.054708 -74.241096 
L 320.411725 -73.83805 
L 320.768742 -73.438373 
L 321.125759 -73.042077 
L 321.482776 -72.649171 
L 321.839793 -72.259666 
L 322.19681 -71.873571 
L 322.553827 -71.490893 
L 322.910844 -71.111639 
L 323.267861 -70.735816 
L 323.624878 -70.36343 
L 323.981895 -69.994484 
L 324.338912 -69.628983 
L 324.695929 -69.266929 
L 325.052946 -68.908325 
L 325.409963 -68.553173 
L 325.76698 -68.201472 
L 326.123997 -67.853223 
L 326.481014 -67.508426 
L 326.838031 -67.167078 
L 327.195048 -66.829177 
L 327.552065 -66.494721 
L 327.909082 -66.163705 
L 328.266099 -65.836126 
L 328.623116 -65.511979 
L 328.980133 -65.191257 
L 329.33715 -64.873954 
L 329.694167 -64.560064 
L 330.051184 -64.249579 
L 330.408201 -63.94249 
L 330.765218 -63.63879 
L 331.122235 -63.338468 
L 331.479252 -63.041514 
L 331.836269 -62.747918 
L 332.193286 -62.45767 
L 332.550303 -62.170756 
L 332.90732 -61.887166 
L 333.264337 -61.606886 
L 333.621354 -61.329903 
L 333.978371 -61.056204 
L 334.335388 -60.785774 
L 334.692405 -60.518599 
L 335.049422 -60.254664 
L 335.406439 -59.993952 
L 335.763456 -59.736449 
L 336.120473 -59.482138 
L 336.47749 -59.231001 
L 336.834508 -58.983022 
L 337.191525 -58.738184 
L 337.548542 -58.496467 
L 337.905559 -58.257854 
L 338.262576 -58.022326 
L 338.619593 -57.789865 
L 338.97661 -57.560449 
L 339.333627 -57.334061 
L 339.690644 -57.11068 
L 340.047661 -56.890285 
L 340.404678 -56.672856 
L 340.761695 -56.458373 
L 341.118712 -56.246813 
L 341.475729 -56.038156 
L 341.832746 -55.832381 
L 342.189763 -55.629464 
L 342.54678 -55.429384 
L 342.903797 -55.232119 
L 343.260814 -55.037646 
L 343.617831 -54.845943 
L 343.974848 -54.656987 
L 344.331865 -54.470754 
L 344.688882 -54.287221 
L 345.045899 -54.106366 
L 345.402916 -53.928164 
L 345.759933 -53.752592 
L 346.11695 -53.579626 
L 346.473967 -53.409242 
L 346.830984 -53.241416 
L 347.188001 -53.076125 
L 347.545018 -52.913343 
L 347.902035 -52.753047 
L 348.259052 -52.595213 
L 348.616069 -52.439815 
L 348.973086 -52.28683 
L 349.330103 -52.136233 
L 349.68712 -51.987999 
L 350.044137 -51.842104 
L 350.401154 -51.698523 
L 350.758171 -51.557232 
L 351.115188 -51.418206 
L 351.472205 -51.28142 
L 351.829222 -51.14685 
L 352.186239 -51.014471 
L 352.543256 -50.884258 
L 352.900273 -50.756188 
L 353.25729 -50.630234 
L 353.614307 -50.506374 
L 353.971324 -50.384582 
L 354.328341 -50.264835 
L 354.685358 -50.147106 
L 355.042375 -50.031374 
L 355.399392 -49.917612 
L 355.756409 -49.805798 
L 356.113426 -49.695906 
L 356.470443 -49.587913 
L 356.82746 -49.481796 
L 357.184477 -49.37753 
L 357.541494 -49.275091 
L 357.898512 -49.174456 
L 358.255529 -49.075602 
L 358.612546 -48.978505 
L 358.969563 -48.883141 
L 359.32658 -48.789488 
L 359.683597 -48.697523 
L 360.040614 -48.607223 
L 360.397631 -48.518565 
L 360.754648 -48.431526 
L 361.111665 -48.346084 
L 361.468682 -48.262217 
L 361.825699 -48.179902 
L 362.182716 -48.099117 
L 362.539733 -48.019841 
L 362.89675 -47.942052 
L 363.253767 -47.865728 
L 363.610784 -47.790848 
L 363.967801 -47.71739 
L 364.324818 -47.645333 
L 364.681835 -47.574658 
L 365.038852 -47.505341 
L 365.395869 -47.437365 
L 365.752886 -47.370707 
L 366.109903 -47.305347 
L 366.46692 -47.241266 
L 366.823937 -47.178444 
L 367.180954 -47.116861 
L 367.537971 -47.056498 
L 367.894988 -46.997334 
L 368.252005 -46.939352 
L 368.609022 -46.882532 
L 368.966039 -46.826855 
L 369.323056 -46.772304 
L 369.680073 -46.718859 
L 370.03709 -46.666502 
L 370.394107 -46.615215 
L 370.751124 -46.564981 
L 371.108141 -46.515782 
L 371.465158 -46.467601 
L 371.822175 -46.420419 
L 372.179192 -46.374222 
L 372.536209 -46.32899 
L 372.893226 -46.284709 
L 373.250243 -46.241361 
L 373.60726 -46.19893 
L 373.964277 -46.1574 
L 374.321294 -46.116756 
L 374.678311 -46.076981 
L 375.035328 -46.03806 
L 375.392345 -45.999978 
L 375.749362 -45.96272 
L 376.106379 -45.926271 
L 376.463396 -45.890616 
L 376.820413 -45.855741 
L 377.17743 -45.821632 
L 377.534447 -45.788273 
L 377.891464 -45.755652 
L 378.248481 -45.723755 
L 378.605498 -45.692568 
L 378.962516 -45.662077 
L 379.319533 -45.632271 
L 379.67655 -45.603134 
L 380.033567 -45.574656 
L 380.390584 -45.546822 
L 380.747601 -45.519622 
L 381.104618 -45.493041 
L 381.461635 -45.467069 
L 381.818652 -45.441694 
L 382.175669 -45.416903 
L 382.532686 -45.392686 
L 382.889703 -45.36903 
L 383.24672 -45.345925 
L 383.603737 -45.32336 
L 383.960754 -45.301323 
L 384.317771 -45.279805 
L 384.674788 -45.258794 
L 385.031805 -45.23828 
L 385.388822 -45.218254 
L 385.745839 -45.198704 
L 386.102856 -45.179622 
L 386.459873 -45.160997 
L 386.81689 -45.142821 
L 387.173907 -45.125082 
L 387.530924 -45.107774 
L 387.887941 -45.090885 
L 388.244958 -45.074408 
L 388.601975 -45.058334 
L 388.958992 -45.042654 
L 389.316009 -45.027359 
L 389.673026 -45.012442 
L 390.030043 -44.997894 
L 390.38706 -44.983707 
L 390.744077 -44.969874 
L 391.101094 -44.956386 
L 391.458111 -44.943236 
L 391.815128 -44.930416 
L 392.172145 -44.91792 
L 392.529162 -44.905739 
L 392.886179 -44.893868 
L 393.243196 -44.882298 
L 393.600213 -44.871024 
L 393.95723 -44.860038 
L 394.314247 -44.849335 
L 394.671264 -44.838907 
L 395.028281 -44.828748 
L 395.385298 -44.818852 
L 395.742315 -44.809213 
L 396.099332 -44.799825 
L 396.456349 -44.790683 
L 396.813366 -44.78178 
L 397.170383 -44.773112 
L 397.5274 -44.764671 
L 397.884417 -44.756454 
L 398.241434 -44.748455 
L 398.598451 -44.740668 
L 398.955468 -44.733089 
L 399.312485 -44.725712 
L 399.669503 -44.718533 
L 400.02652 -44.711548 
L 400.383537 -44.70475 
L 400.740554 -44.698137 
L 401.097571 -44.691703 
L 401.454588 -44.685443 
L 401.811605 -44.679355 
L 402.168622 -44.673433 
L 402.525639 -44.667673 
L 402.882656 -44.662072 
L 403.239673 -44.656625 
L 403.59669 -44.651329 
L 403.953707 -44.646179 
L 404.310724 -44.641173 
L 404.667741 -44.636306 
L 405.024758 -44.631575 
L 405.381775 -44.626977 
L 405.738792 -44.622508 
L 406.095809 -44.618165 
L 406.452826 -44.613945 
L 406.809843 -44.609844 
L 407.16686 -44.60586 
L 407.523877 -44.601989 
L 407.880894 -44.598228 
L 408.237911 -44.594576 
L 408.594928 -44.591028 
L 408.951945 -44.587582 
L 409.308962 -44.584236 
L 409.665979 -44.580986 
L 410.022996 -44.577831 
L 410.380013 -44.574767 
L 410.73703 -44.571793 
L 411.094047 -44.568906 
L 411.451064 -44.566103 
L 411.808081 -44.563383 
L 412.165098 -44.560742 
L 412.522115 -44.55818 
L 412.879132 -44.555694 
L 413.236149 -44.553281 
L 413.593166 -44.55094 
L 413.950183 -44.548669 
L 414.3072 -44.546466 
L 414.664217 -44.544329 
L 415.021234 -44.542256 
L 415.378251 -44.540246 
L 415.735268 -44.538296 
L 416.092285 -44.536405 
L 416.449302 -44.534572 
L 416.806319 -44.532794 
L 417.163336 -44.531071 
L 417.520353 -44.529401 
L 417.87737 -44.527781 
L 418.234387 -44.526211 
L 418.591404 -44.52469 
L 418.948421 -44.523216 
L 419.305438 -44.521787 
L 419.662455 -44.520403 
L 420.019472 -44.519061 
L 420.376489 -44.517762 
L 420.733507 -44.516503 
L 421.090524 -44.515283 
L 421.447541 -44.514102 
L 421.804558 -44.512958 
L 422.161575 -44.51185 
L 422.518592 -44.510777 
L 422.875609 -44.509738 
L 423.232626 -44.508732 
L 423.589643 -44.507758 
L 423.94666 -44.506815 
L 424.303677 -44.505903 
L 424.660694 -44.505019 
L 425.017711 -44.504164 
L 425.374728 -44.503337 
L 425.731745 -44.502536 
L 426.088762 -44.501761 
L 426.445779 -44.501011 
L 426.802796 -44.500286 
L 427.159813 -44.499584 
L 427.51683 -44.498905 
L 427.873847 -44.498249 
L 428.230864 -44.497613 
L 428.587881 -44.496999 
L 428.944898 -44.496405 
L 429.301915 -44.495831 
L 429.658932 -44.495275 
L 430.015949 -44.494739 
L 430.372966 -44.494219 
L 430.729983 -44.493718 
L 431.087 -44.493233 
L 431.087 -44.48 
L 431.087 -44.48 
L 430.729983 -44.48 
L 430.372966 -44.48 
L 430.015949 -44.48 
L 429.658932 -44.48 
L 429.301915 -44.48 
L 428.944898 -44.48 
L 428.587881 -44.48 
L 428.230864 -44.48 
L 427.873847 -44.48 
L 427.51683 -44.48 
L 427.159813 -44.48 
L 426.802796 -44.48 
L 426.445779 -44.48 
L 426.088762 -44.48 
L 425.731745 -44.48 
L 425.374728 -44.48 
L 425.017711 -44.48 
L 424.660694 -44.48 
L 424.303677 -44.48 
L 423.94666 -44.48 
L 423.589643 -44.48 
L 423.232626 -44.48 
L 422.875609 -44.48 
L 422.518592 -44.48 
L 422.161575 -44.48 
L 421.804558 -44.48 
L 421.447541 -44.48 
L 421.090524 -44.48 
L 420.733507 -44.48 
L 420.376489 -44.48 
L 420.019472 -44.48 
L 419.662455 -44.48 
L 419.305438 -44.48 
L 418.948421 -44.48 
L 418.591404 -44.48 
L 418.234387 -44.48 
L 417.87737 -44.48 
L 417.520353 -44.48 
L 417.163336 -44.48 
L 416.806319 -44.48 
L 416.449302 -44.48 
L 416.092285 -44.48 
L 415.735268 -44.48 
L 415.378251 -44.48 
L 415.021234 -44.48 
L 414.664217 -44.48 
L 414.3072 -44.48 
L 413.950183 -44.48 
L 413.593166 -44.48 
L 413.236149 -44.48 
L 412.879132 -44.48 
L 412.522115 -44.48 
L 412.165098 -44.48 
L 411.808081 -44.48 
L 411.451064 -44.48 
L 411.094047 -44.48 
L 410.73703 -44.48 
L 410.380013 -44.48 
L 410.022996 -44.48 
L 409.665979 -44.48 
L 409.308962 -44.48 
L 408.951945 -44.48 
L 408.594928 -44.48 
L 408.237911 -44.48 
L 407.880894 -44.48 
L 407.523877 -44.48 
L 407.16686 -44.48 
L 406.809843 -44.48 
L 406.452826 -44.48 
L 406.095809 -44.48 
L 405.738792 -44.48 
L 405.381775 -44.48 
L 405.024758 -44.48 
L 404.667741 -44.48 
L 404.310724 -44.48 
L 403.953707 -44.48 
L 403.59669 -44.48 
L 403.239673 -44.48 
L 402.882656 -44.48 
L 402.525639 -44.48 
L 402.168622 -44.48 
L 401.811605 -44.48 
L 401.454588 -44.48 
L 401.097571 -44.48 
L 400.740554 -44.48 
L 400.383537 -44.48 
L 400.02652 -44.48 
L 399.669503 -44.48 
L 399.312485 -44.48 
L 398.955468 -44.48 
L 398.598451 -44.48 
L 398.241434 -44.48 
L 397.884417 -44.48 
L 397.5274 -44.48 
L 397.170383 -44.48 
L 396.813366 -44.48 
L 396.456349 -44.48 
L 396.099332 -44.48 
L 395.742315 -44.48 
L 395.385298 -44.48 
L 395.028281 -44.48 
L 394.671264 -44.48 
L 394.314247 -44.48 
L 393.95723 -44.48 
L 393.600213 -44.48 
L 393.243196 -44.48 
L 392.886179 -44.48 
L 392.529162 -44.48 
L 392.172145 -44.48 
L 391.815128 -44.48 
L 391.458111 -44.48 
L 391.101094 -44.48 
L 390.744077 -44.48 
L 390.38706 -44.48 
L 390.030043 -44.48 
L 389.673026 -44.48 
L 389.316009 -44.48 
L 388.958992 -44.48 
L 388.601975 -44.48 
L 388.244958 -44.48 
L 387.887941 -44.48 
L 387.530924 -44.48 
L 387.173907 -44.48 
L 386.81689 -44.48 
L 386.459873 -44.48 
L 386.102856 -44.48 
L 385.745839 -44.48 
L 385.388822 -44.48 
L 385.031805 -44.48 
L 384.674788 -44.48 
L 384.317771 -44.48 
L 383.960754 -44.48 
L 383.603737 -44.48 
L 383.24672 -44.48 
L 382.889703 -44.48 
L 382.532686 -44.48 
L 382.175669 -44.48 
L 381.818652 -44.48 
L 381.461635 -44.48 
L 381.104618 -44.48 
L 380.747601 -44.48 
L 380.390584 -44.48 
L 380.033567 -44.48 
L 379.67655 -44.48 
L 379.319533 -44.48 
L 378.962516 -44.48 
L 378.605498 -44.48 
L 378.248481 -44.48 
L 377.891464 -44.48 
L 377.534447 -44.48 
L 377.17743 -44.48 
L 376.820413 -44.48 
L 376.463396 -44.48 
L 376.106379 -44.48 
L 375.749362 -44.48 
L 375.392345 -44.48 
L 375.035328 -44.48 
L 374.678311 -44.48 
L 374.321294 -44.48 
L 373.964277 -44.48 
L 373.60726 -44.48 
L 373.250243 -44.48 
L 372.893226 -44.48 
L 372.536209 -44.48 
L 372.179192 -44.48 
L 371.822175 -44.48 
L 371.465158 -44.48 
L 371.108141 -44.48 
L 370.751124 -44.48 
L 370.394107 -44.48 
L 370.03709 -44.48 
L 369.680073 -44.48 
L 369.323056 -44.48 
L 368.966039 -44.48 
L 368.609022 -44.48 
L 368.252005 -44.48 
L 367.894988 -44.48 
L 367.537971 -44.48 
L 367.180954 -44.48 
L 366.823937 -44.48 
L 366.46692 -44.48 
L 366.109903 -44.48 
L 365.752886 -44.48 
L 365.395869 -44.48 
L 365.038852 -44.48 
L 364.681835 -44.48 
L 364.324818 -44.48 
L 363.967801 -44.48 
L 363.610784 -44.48 
L 363.253767 -44.48 
L 362.89675 -44.48 
L 362.539733 -44.48 
L 362.182716 -44.48 
L 361.825699 -44.48 
L 361.468682 -44.48 
L 361.111665 -44.48 
L 360.754648 -44.48 
L 360.397631 -44.48 
L 360.040614 -44.48 
L 359.683597 -44.48 
L 359.32658 -44.48 
L 358.969563 -44.48 
L 358.612546 -44.48 
L 358.255529 -44.48 
L 357.898512 -44.48 
L 357.541494 -44.48 
L 357.184477 -44.48 
L 356.82746 -44.48 
L 356.470443 -44.48 
L 356.113426 -44.48 
L 355.756409 -44.48 
L 355.399392 -44.48 
L 355.042375 -44.48 
L 354.685358 -44.48 
L 354.328341 -44.48 
L 353.971324 -44.48 
L 353.614307 -44.48 
L 353.25729 -44.48 
L 352.900273 -44.48 
L 352.543256 -44.48 
L 352.186239 -44.48 
L 351.829222 -44.48 
L 351.472205 -44.48 
L 351.115188 -44.48 
L 350.758171 -44.48 
L 350.401154 -44.48 
L 350.044137 -44.48 
L 349.68712 -44.48 
L 349.330103 -44.48 
L 348.973086 -44.48 
L 348.616069 -44.48 
L 348.259052 -44.48 
L 347.902035 -44.48 
L 347.545018 -44.48 
L 347.188001 -44.48 
L 346.830984 -44.48 
L 346.473967 -44.48 
L 346.11695 -44.48 
L 345.759933 -44.48 
L 345.402916 -44.48 
L 345.045899 -44.48 
L 344.688882 -44.48 
L 344.331865 -44.48 
L 343.974848 -44.48 
L 343.617831 -44.48 
L 343.260814 -44.48 
L 342.903797 -44.48 
L 342.54678 -44.48 
L 342.189763 -44.48 
L 341.832746 -44.48 
L 341.475729 -44.48 
L 341.118712 -44.48 
L 340.761695 -44.48 
L 340.404678 -44.48 
L 340.047661 -44.48 
L 339.690644 -44.48 
L 339.333627 -44.48 
L 338.97661 -44.48 
L 338.619593 -44.48 
L 338.262576 -44.48 
L 337.905559 -44.48 
L 337.548542 -44.48 
L 337.191525 -44.48 
L 336.834508 -44.48 
L 336.47749 -44.48 
L 336.120473 -44.48 
L 335.763456 -44.48 
L 335.406439 -44.48 
L 335.049422 -44.48 
L 334.692405 -44.48 
L 334.335388 -44.48 
L 333.978371 -44.48 
L 333.621354 -44.48 
L 333.264337 -44.48 
L 332.90732 -44.48 
L 332.550303 -44.48 
L 332.193286 -44.48 
L 331.836269 -44.48 
L 331.479252 -44.48 
L 331.122235 -44.48 
L 330.765218 -44.48 
L 330.408201 -44.48 
L 330.051184 -44.48 
L 329.694167 -44.48 
L 329.33715 -44.48 
L 328.980133 -44.48 
L 328.623116 -44.48 
L 328.266099 -44.48 
L 327.909082 -44.48 
L 327.552065 -44.48 
L 327.195048 -44.48 
L 326.838031 -44.48 
L 326.481014 -44.48 
L 326.123997 -44.48 
L 325.76698 -44.48 
L 325.409963 -44.48 
L 325.052946 -44.48 
L 324.695929 -44.48 
L 324.338912 -44.48 
L 323.981895 -44.48 
L 323.624878 -44.48 
L 323.267861 -44.48 
L 322.910844 -44.48 
L 322.553827 -44.48 
L 322.19681 -44.48 
L 321.839793 -44.48 
L 321.482776 -44.48 
L 321.125759 -44.48 
L 320.768742 -44.48 
L 320.411725 -44.48 
L 320.054708 -44.48 
L 319.697691 -44.48 
L 319.340674 -44.48 
L 318.983657 -44.48 
L 318.62664 -44.48 
L 318.269623 -44.48 
L 317.912606 -44.48 
L 317.555589 -44.48 
L 317.198572 -44.48 
L 316.841555 -44.48 
L 316.484538 -44.48 
L 316.127521 -44.48 
L 315.770504 -44.48 
L 315.413486 -44.48 
L 315.056469 -44.48 
L 314.699452 -44.48 
L 314.342435 -44.48 
L 313.985418 -44.48 
L 313.628401 -44.48 
L 313.271384 -44.48 
L 312.914367 -44.48 
L 312.55735 -44.48 
L 312.200333 -44.48 
L 311.843316 -44.48 
L 311.486299 -44.48 
L 311.129282 -44.48 
L 310.772265 -44.48 
L 310.415248 -44.48 
L 310.058231 -44.48 
L 309.701214 -44.48 
L 309.344197 -44.48 
L 308.98718 -44.48 
L 308.630163 -44.48 
L 308.273146 -44.48 
L 307.916129 -44.48 
L 307.559112 -44.48 
L 307.202095 -44.48 
L 306.845078 -44.48 
L 306.488061 -44.48 
L 306.131044 -44.48 
L 305.774027 -44.48 
L 305.41701 -44.48 
L 305.059993 -44.48 
L 304.702976 -44.48 
L 304.345959 -44.48 
L 303.988942 -44.48 
L 303.631925 -44.48 
L 303.274908 -44.48 
L 302.917891 -44.48 
L 302.560874 -44.48 
L 302.203857 -44.48 
L 301.84684 -44.48 
L 301.489823 -44.48 
L 301.132806 -44.48 
L 300.775789 -44.48 
L 300.418772 -44.48 
L 300.061755 -44.48 
L 299.704738 -44.48 
L 299.347721 -44.48 
L 298.990704 -44.48 
L 298.633687 -44.48 
L 298.27667 -44.48 
L 297.919653 -44.48 
L 297.562636 -44.48 
L 297.205619 -44.48 
L 296.848602 -44.48 
L 296.491585 -44.48 
L 296.134568 -44.48 
L 295.777551 -44.48 
L 295.420534 -44.48 
L 295.063517 -44.48 
L 294.706499 -44.48 
L 294.349482 -44.48 
L 293.992465 -44.48 
L 293.635448 -44.48 
L 293.278431 -44.48 
L 292.921414 -44.48 
L 292.564397 -44.48 
L 292.20738 -44.48 
L 291.850363 -44.48 
L 291.493346 -44.48 
L 291.136329 -44.48 
L 290.779312 -44.48 
L 290.422295 -44.48 
L 290.065278 -44.48 
L 289.708261 -44.48 
L 289.351244 -44.48 
L 288.994227 -44.48 
L 288.63721 -44.48 
L 288.280193 -44.48 
L 287.923176 -44.48 
L 287.566159 -44.48 
L 287.209142 -44.48 
L 286.852125 -44.48 
L 286.495108 -44.48 
L 286.138091 -44.48 
L 285.781074 -44.48 
L 285.424057 -44.48 
L 285.06704 -44.48 
L 284.710023 -44.48 
L 284.353006 -44.48 
L 283.995989 -44.48 
L 283.638972 -44.48 
L 283.281955 -44.48 
L 282.924938 -44.48 
L 282.567921 -44.48 
L 282.210904 -44.48 
L 281.853887 -44.48 
L 281.49687 -44.48 
L 281.139853 -44.48 
L 280.782836 -44.48 
L 280.425819 -44.48 
L 280.068802 -44.48 
L 279.711785 -44.48 
L 279.354768 -44.48 
L 278.997751 -44.48 
L 278.640734 -44.48 
L 278.283717 -44.48 
L 277.9267 -44.48 
L 277.569683 -44.48 
L 277.212666 -44.48 
L 276.855649 -44.48 
L 276.498632 -44.48 
L 276.141615 -44.48 
L 275.784598 -44.48 
L 275.427581 -44.48 
L 275.070564 -44.48 
L 274.713547 -44.48 
L 274.35653 -44.48 
L 273.999513 -44.48 
L 273.642495 -44.48 
L 273.285478 -44.48 
L 272.928461 -44.48 
L 272.571444 -44.48 
L 272.214427 -44.48 
L 271.85741 -44.48 
L 271.500393 -44.48 
L 271.143376 -44.48 
L 270.786359 -44.48 
L 270.429342 -44.48 
L 270.072325 -44.48 
L 269.715308 -44.48 
L 269.358291 -44.48 
L 269.001274 -44.48 
L 268.644257 -44.48 
L 268.28724 -44.48 
L 267.930223 -44.48 
L 267.573206 -44.48 
L 267.216189 -44.48 
L 266.859172 -44.48 
L 266.502155 -44.48 
L 266.145138 -44.48 
L 265.788121 -44.48 
L 265.431104 -44.48 
L 265.074087 -44.48 
L 264.71707 -44.48 
L 264.360053 -44.48 
L 264.003036 -44.48 
L 263.646019 -44.48 
L 263.289002 -44.48 
L 262.931985 -44.48 
L 262.574968 -44.48 
L 262.217951 -44.48 
L 261.860934 -44.48 
L 261.503917 -44.48 
L 261.1469 -44.48 
L 260.789883 -44.48 
L 260.432866 -44.48 
L 260.075849 -44.48 
L 259.718832 -44.48 
L 259.361815 -44.48 
L 259.004798 -44.48 
L 258.647781 -44.48 
L 258.290764 -44.48 
L 257.933747 -44.48 
L 257.57673 -44.48 
L 257.219713 -44.48 
L 256.862696 -44.48 
L 256.505679 -44.48 
L 256.148662 -44.48 
L 255.791645 -44.48 
L 255.434628 -44.48 
L 255.077611 -44.48 
L 254.720594 -44.48 
L 254.363577 -44.48 
L 254.00656 -44.48 
L 253.649543 -44.48 
L 253.292526 -44.48 
L 252.935509 -44.48 
L 252.578491 -44.48 
L 252.221474 -44.48 
L 251.864457 -44.48 
L 251.50744 -44.48 
L 251.150423 -44.48 
L 250.793406 -44.48 
L 250.436389 -44.48 
L 250.079372 -44.48 
L 249.722355 -44.48 
L 249.365338 -44.48 
L 249.008321 -44.48 
L 248.651304 -44.48 
L 248.294287 -44.48 
L 247.93727 -44.48 
L 247.580253 -44.48 
L 247.223236 -44.48 
L 246.866219 -44.48 
L 246.509202 -44.48 
L 246.152185 -44.48 
L 245.795168 -44.48 
L 245.438151 -44.48 
L 245.081134 -44.48 
L 244.724117 -44.48 
L 244.3671 -44.48 
L 244.010083 -44.48 
L 243.653066 -44.48 
L 243.296049 -44.48 
L 242.939032 -44.48 
L 242.582015 -44.48 
L 242.224998 -44.48 
L 241.867981 -44.48 
L 241.510964 -44.48 
L 241.153947 -44.48 
L 240.79693 -44.48 
L 240.439913 -44.48 
L 240.082896 -44.48 
L 239.725879 -44.48 
L 239.368862 -44.48 
L 239.011845 -44.48 
L 238.654828 -44.48 
L 238.297811 -44.48 
L 237.940794 -44.48 
L 237.583777 -44.48 
L 237.22676 -44.48 
L 236.869743 -44.48 
L 236.512726 -44.48 
L 236.155709 -44.48 
L 235.798692 -44.48 
L 235.441675 -44.48 
L 235.084658 -44.48 
L 234.727641 -44.48 
L 234.370624 -44.48 
L 234.013607 -44.48 
L 233.65659 -44.48 
L 233.299573 -44.48 
L 232.942556 -44.48 
L 232.585539 -44.48 
L 232.228522 -44.48 
L 231.871505 -44.48 
L 231.514487 -44.48 
L 231.15747 -44.48 
L 230.800453 -44.48 
L 230.443436 -44.48 
L 230.086419 -44.48 
L 229.729402 -44.48 
L 229.372385 -44.48 
L 229.015368 -44.48 
L 228.658351 -44.48 
L 228.301334 -44.48 
L 227.944317 -44.48 
L 227.5873 -44.48 
L 227.230283 -44.48 
L 226.873266 -44.48 
L 226.516249 -44.48 
L 226.159232 -44.48 
L 225.802215 -44.48 
L 225.445198 -44.48 
L 225.088181 -44.48 
L 224.731164 -44.48 
L 224.374147 -44.48 
L 224.01713 -44.48 
L 223.660113 -44.48 
L 223.303096 -44.48 
L 222.946079 -44.48 
L 222.589062 -44.48 
L 222.232045 -44.48 
L 221.875028 -44.48 
L 221.518011 -44.48 
L 221.160994 -44.48 
L 220.803977 -44.48 
L 220.44696 -44.48 
L 220.089943 -44.48 
L 219.732926 -44.48 
L 219.375909 -44.48 
L 219.018892 -44.48 
L 218.661875 -44.48 
L 218.304858 -44.48 
L 217.947841 -44.48 
L 217.590824 -44.48 
L 217.233807 -44.48 
L 216.87679 -44.48 
L 216.519773 -44.48 
L 216.162756 -44.48 
L 215.805739 -44.48 
L 215.448722 -44.48 
L 215.091705 -44.48 
L 214.734688 -44.48 
L 214.377671 -44.48 
L 214.020654 -44.48 
L 213.663637 -44.48 
L 213.30662 -44.48 
L 212.949603 -44.48 
L 212.592586 -44.48 
L 212.235569 -44.48 
L 211.878552 -44.48 
L 211.521535 -44.48 
L 211.164518 -44.48 
L 210.807501 -44.48 
L 210.450483 -44.48 
L 210.093466 -44.48 
L 209.736449 -44.48 
L 209.379432 -44.48 
L 209.022415 -44.48 
L 208.665398 -44.48 
L 208.308381 -44.48 
L 207.951364 -44.48 
L 207.594347 -44.48 
L 207.23733 -44.48 
L 206.880313 -44.48 
L 206.523296 -44.48 
L 206.166279 -44.48 
L 205.809262 -44.48 
L 205.452245 -44.48 
L 205.095228 -44.48 
L 204.738211 -44.48 
L 204.381194 -44.48 
L 204.024177 -44.48 
L 203.66716 -44.48 
L 203.310143 -44.48 
L 202.953126 -44.48 
L 202.596109 -44.48 
L 202.239092 -44.48 
L 201.882075 -44.48 
L 201.525058 -44.48 
L 201.168041 -44.48 
L 200.811024 -44.48 
L 200.454007 -44.48 
L 200.09699 -44.48 
L 199.739973 -44.48 
L 199.382956 -44.48 
L 199.025939 -44.48 
L 198.668922 -44.48 
L 198.311905 -44.48 
L 197.954888 -44.48 
L 197.597871 -44.48 
L 197.240854 -44.48 
L 196.883837 -44.48 
L 196.52682 -44.48 
L 196.169803 -44.48 
L 195.812786 -44.48 
L 195.455769 -44.48 
L 195.098752 -44.48 
L 194.741735 -44.48 
L 194.384718 -44.48 
L 194.027701 -44.48 
L 193.670684 -44.48 
L 193.313667 -44.48 
L 192.95665 -44.48 
L 192.599633 -44.48 
L 192.242616 -44.48 
L 191.885599 -44.48 
L 191.528582 -44.48 
L 191.171565 -44.48 
L 190.814548 -44.48 
L 190.457531 -44.48 
L 190.100514 -44.48 
L 189.743496 -44.48 
L 189.386479 -44.48 
L 189.029462 -44.48 
L 188.672445 -44.48 
L 188.315428 -44.48 
L 187.958411 -44.48 
L 187.601394 -44.48 
L 187.244377 -44.48 
L 186.88736 -44.48 
L 186.530343 -44.48 
L 186.173326 -44.48 
L 185.816309 -44.48 
L 185.459292 -44.48 
L 185.102275 -44.48 
L 184.745258 -44.48 
L 184.388241 -44.48 
L 184.031224 -44.48 
L 183.674207 -44.48 
L 183.31719 -44.48 
L 182.960173 -44.48 
L 182.603156 -44.48 
L 182.246139 -44.48 
L 181.889122 -44.48 
L 181.532105 -44.48 
L 181.175088 -44.48 
L 180.818071 -44.48 
L 180.461054 -44.48 
L 180.104037 -44.48 
L 179.74702 -44.48 
L 179.390003 -44.48 
L 179.032986 -44.48 
L 178.675969 -44.48 
L 178.318952 -44.48 
L 177.961935 -44.48 
L 177.604918 -44.48 
L 177.247901 -44.48 
L 176.890884 -44.48 
L 176.533867 -44.48 
L 176.17685 -44.48 
L 175.819833 -44.48 
L 175.462816 -44.48 
L 175.105799 -44.48 
L 174.748782 -44.48 
L 174.391765 -44.48 
L 174.034748 -44.48 
L 173.677731 -44.48 
L 173.320714 -44.48 
L 172.963697 -44.48 
L 172.60668 -44.48 
L 172.249663 -44.48 
L 171.892646 -44.48 
L 171.535629 -44.48 
L 171.178612 -44.48 
L 170.821595 -44.48 
L 170.464578 -44.48 
L 170.107561 -44.48 
L 169.750544 -44.48 
L 169.393527 -44.48 
L 169.03651 -44.48 
L 168.679492 -44.48 
L 168.322475 -44.48 
L 167.965458 -44.48 
L 167.608441 -44.48 
L 167.251424 -44.48 
L 166.894407 -44.48 
L 166.53739 -44.48 
L 166.180373 -44.48 
L 165.823356 -44.48 
L 165.466339 -44.48 
L 165.109322 -44.48 
L 164.752305 -44.48 
L 164.395288 -44.48 
L 164.038271 -44.48 
L 163.681254 -44.48 
L 163.324237 -44.48 
L 162.96722 -44.48 
L 162.610203 -44.48 
L 162.253186 -44.48 
L 161.896169 -44.48 
L 161.539152 -44.48 
L 161.182135 -44.48 
L 160.825118 -44.48 
L 160.468101 -44.48 
L 160.111084 -44.48 
L 159.754067 -44.48 
L 159.39705 -44.48 
L 159.040033 -44.48 
L 158.683016 -44.48 
L 158.325999 -44.48 
L 157.968982 -44.48 
L 157.611965 -44.48 
L 157.254948 -44.48 
L 156.897931 -44.48 
L 156.540914 -44.48 
L 156.183897 -44.48 
L 155.82688 -44.48 
L 155.469863 -44.48 
L 155.112846 -44.48 
L 154.755829 -44.48 
L 154.398812 -44.48 
L 154.041795 -44.48 
L 153.684778 -44.48 
L 153.327761 -44.48 
L 152.970744 -44.48 
L 152.613727 -44.48 
L 152.25671 -44.48 
L 151.899693 -44.48 
L 151.542676 -44.48 
L 151.185659 -44.48 
L 150.828642 -44.48 
L 150.471625 -44.48 
L 150.114608 -44.48 
L 149.757591 -44.48 
L 149.400574 -44.48 
L 149.043557 -44.48 
L 148.68654 -44.48 
L 148.329523 -44.48 
L 147.972506 -44.48 
L 147.615488 -44.48 
L 147.258471 -44.48 
L 146.901454 -44.48 
L 146.544437 -44.48 
L 146.18742 -44.48 
L 145.830403 -44.48 
L 145.473386 -44.48 
L 145.116369 -44.48 
L 144.759352 -44.48 
L 144.402335 -44.48 
L 144.045318 -44.48 
L 143.688301 -44.48 
L 143.331284 -44.48 
L 142.974267 -44.48 
L 142.61725 -44.48 
L 142.260233 -44.48 
L 141.903216 -44.48 
L 141.546199 -44.48 
L 141.189182 -44.48 
L 140.832165 -44.48 
L 140.475148 -44.48 
L 140.118131 -44.48 
L 139.761114 -44.48 
L 139.404097 -44.48 
L 139.04708 -44.48 
L 138.690063 -44.48 
L 138.333046 -44.48 
L 137.976029 -44.48 
L 137.619012 -44.48 
L 137.261995 -44.48 
L 136.904978 -44.48 
L 136.547961 -44.48 
L 136.190944 -44.48 
L 135.833927 -44.48 
L 135.47691 -44.48 
L 135.119893 -44.48 
L 134.762876 -44.48 
L 134.405859 -44.48 
L 134.048842 -44.48 
L 133.691825 -44.48 
L 133.334808 -44.48 
L 132.977791 -44.48 
L 132.620774 -44.48 
L 132.263757 -44.48 
L 131.90674 -44.48 
L 131.549723 -44.48 
L 131.192706 -44.48 
L 130.835689 -44.48 
L 130.478672 -44.48 
L 130.121655 -44.48 
L 129.764638 -44.48 
L 129.407621 -44.48 
L 129.050604 -44.48 
L 128.693587 -44.48 
L 128.33657 -44.48 
L 127.979553 -44.48 
L 127.622536 -44.48 
L 127.265519 -44.48 
L 126.908502 -44.48 
L 126.551484 -44.48 
L 126.194467 -44.48 
L 125.83745 -44.48 
L 125.480433 -44.48 
L 125.123416 -44.48 
L 124.766399 -44.48 
L 124.409382 -44.48 
L 124.052365 -44.48 
L 123.695348 -44.48 
L 123.338331 -44.48 
L 122.981314 -44.48 
L 122.624297 -44.48 
L 122.26728 -44.48 
L 121.910263 -44.48 
L 121.553246 -44.48 
L 121.196229 -44.48 
L 120.839212 -44.48 
L 120.482195 -44.48 
L 120.125178 -44.48 
L 119.768161 -44.48 
L 119.411144 -44.48 
L 119.054127 -44.48 
L 118.69711 -44.48 
L 118.340093 -44.48 
L 117.983076 -44.48 
L 117.626059 -44.48 
L 117.269042 -44.48 
L 116.912025 -44.48 
L 116.555008 -44.48 
L 116.197991 -44.48 
L 115.840974 -44.48 
L 115.483957 -44.48 
L 115.12694 -44.48 
L 114.769923 -44.48 
L 114.412906 -44.48 
L 114.055889 -44.48 
L 113.698872 -44.48 
L 113.341855 -44.48 
L 112.984838 -44.48 
L 112.627821 -44.48 
L 112.270804 -44.48 
L 111.913787 -44.48 
L 111.55677 -44.48 
L 111.199753 -44.48 
L 110.842736 -44.48 
L 110.485719 -44.48 
L 110.128702 -44.48 
L 109.771685 -44.48 
L 109.414668 -44.48 
L 109.057651 -44.48 
L 108.700634 -44.48 
L 108.343617 -44.48 
L 107.9866 -44.48 
L 107.629583 -44.48 
L 107.272566 -44.48 
L 106.915549 -44.48 
L 106.558532 -44.48 
L 106.201515 -44.48 
L 105.844497 -44.48 
L 105.48748 -44.48 
L 105.130463 -44.48 
L 104.773446 -44.48 
L 104.416429 -44.48 
L 104.059412 -44.48 
L 103.702395 -44.48 
L 103.345378 -44.48 
L 102.988361 -44.48 
L 102.631344 -44.48 
L 102.274327 -44.48 
L 101.91731 -44.48 
L 101.560293 -44.48 
L 101.203276 -44.48 
L 100.846259 -44.48 
L 100.489242 -44.48 
L 100.132225 -44.48 
L 99.775208 -44.48 
L 99.418191 -44.48 
L 99.061174 -44.48 
L 98.704157 -44.48 
L 98.34714 -44.48 
L 97.990123 -44.48 
L 97.633106 -44.48 
L 97.276089 -44.48 
L 96.919072 -44.48 
L 96.562055 -44.48 
L 96.205038 -44.48 
L 95.848021 -44.48 
L 95.491004 -44.48 
L 95.133987 -44.48 
L 94.77697 -44.48 
L 94.419953 -44.48 
L 94.062936 -44.48 
L 93.705919 -44.48 
L 93.348902 -44.48 
L 92.991885 -44.48 
L 92.634868 -44.48 
L 92.277851 -44.48 
L 91.920834 -44.48 
L 91.563817 -44.48 
L 91.2068 -44.48 
L 90.849783 -44.48 
L 90.492766 -44.48 
L 90.135749 -44.48 
L 89.778732 -44.48 
L 89.421715 -44.48 
L 89.064698 -44.48 
L 88.707681 -44.48 
L 88.350664 -44.48 
L 87.993647 -44.48 
L 87.63663 -44.48 
L 87.279613 -44.48 
L 86.922596 -44.48 
L 86.565579 -44.48 
L 86.208562 -44.48 
L 85.851545 -44.48 
L 85.494528 -44.48 
L 85.137511 -44.48 
L 84.780493 -44.48 
L 84.423476 -44.48 
L 84.066459 -44.48 
L 83.709442 -44.48 
L 83.352425 -44.48 
L 82.995408 -44.48 
L 82.638391 -44.48 
L 82.281374 -44.48 
L 81.924357 -44.48 
L 81.56734 -44.48 
L 81.210323 -44.48 
L 80.853306 -44.48 
L 80.496289 -44.48 
L 80.139272 -44.48 
L 79.782255 -44.48 
L 79.425238 -44.48 
L 79.068221 -44.48 
L 78.711204 -44.48 
L 78.354187 -44.48 
L 77.99717 -44.48 
L 77.640153 -44.48 
L 77.283136 -44.48 
L 76.926119 -44.48 
L 76.569102 -44.48 
L 76.212085 -44.48 
L 75.855068 -44.48 
L 75.498051 -44.48 
L 75.141034 -44.48 
L 74.784017 -44.48 
L 74.427 -44.48 
z
" style="stroke: #0072b2; stroke-opacity: 0.5"/>
    </defs>
    <g clip-path="url(#pe828f245cf)">
     <use xlink:href="#madb10394bf" x="0" y="446.4" style="fill: #0072b2; fill-opacity: 0.5; stroke: #0072b2; stroke-opacity: 0.5"/>
    </g>
   </g>
   <g id="matplotlib.axis_5">
    <g id="xtick_15">
     <g id="line2d_30">
      <g>
       <use xlink:href="#m882a0d25c5" x="74.427" y="401.92" style="stroke: #000000; stroke-width: 0.8"/>
      </g>
     </g>
     <g id="text_13">
      <!-- −6 -->
      <g transform="translate(66.318797 417.278281) scale(0.11 -0.11)">
       <defs>
        <path id="DejaVuSans-36" d="M 2113 2584 
Q 1688 2584 1439 2293 
Q 1191 2003 1191 1497 
Q 1191 994 1439 701 
Q 1688 409 2113 409 
Q 2538 409 2786 701 
Q 3034 994 3034 1497 
Q 3034 2003 2786 2293 
Q 2538 2584 2113 2584 
z
M 3366 4563 
L 3366 3988 
Q 3128 4100 2886 4159 
Q 2644 4219 2406 4219 
Q 1781 4219 1451 3797 
Q 1122 3375 1075 2522 
Q 1259 2794 1537 2939 
Q 1816 3084 2150 3084 
Q 2853 3084 3261 2657 
Q 3669 2231 3669 1497 
Q 3669 778 3244 343 
Q 2819 -91 2113 -91 
Q 1303 -91 875 529 
Q 447 1150 447 2328 
Q 447 3434 972 4092 
Q 1497 4750 2381 4750 
Q 2619 4750 2861 4703 
Q 3103 4656 3366 4563 
z
" transform="scale(0.015625)"/>
       </defs>
       <use xlink:href="#DejaVuSans-2212"/>
       <use xlink:href="#DejaVuSans-36" transform="translate(83.789062 0)"/>
      </g>
     </g>
    </g>
    <g id="xtick_16">
     <g id="line2d_31">
      <g>
       <use xlink:href="#m882a0d25c5" x="133.870333" y="401.92" style="stroke: #000000; stroke-width: 0.8"/>
      </g>
     </g>
     <g id="text_14">
      <!-- −4 -->
      <g transform="translate(125.76213 417.278281) scale(0.11 -0.11)">
       <defs>
        <path id="DejaVuSans-34" d="M 2419 4116 
L 825 1625 
L 2419 1625 
L 2419 4116 
z
M 2253 4666 
L 3047 4666 
L 3047 1625 
L 3713 1625 
L 3713 1100 
L 3047 1100 
L 3047 0 
L 2419 0 
L 2419 1100 
L 313 1100 
L 313 1709 
L 2253 4666 
z
" transform="scale(0.015625)"/>
       </defs>
       <use xlink:href="#DejaVuSans-2212"/>
       <use xlink:href="#DejaVuSans-34" transform="translate(83.789062 0)"/>
      </g>
     </g>
    </g>
    <g id="xtick_17">
     <g id="line2d_32">
      <g>
       <use xlink:href="#m882a0d25c5" x="193.313667" y="401.92" style="stroke: #000000; stroke-width: 0.8"/>
      </g>
     </g>
     <g id="text_15">
      <!-- −2 -->
      <g transform="translate(185.205464 417.278281) scale(0.11 -0.11)">
       <use xlink:href="#DejaVuSans-2212"/>
       <use xlink:href="#DejaVuSans-32" transform="translate(83.789062 0)"/>
      </g>
     </g>
    </g>
    <g id="xtick_18">
     <g id="line2d_33">
      <g>
       <use xlink:href="#m882a0d25c5" x="252.757" y="401.92" style="stroke: #000000; stroke-width: 0.8"/>
      </g>
     </g>
     <g id="text_16">
      <!-- 0 -->
      <g transform="translate(249.257625 417.278281) scale(0.11 -0.11)">
       <use xlink:href="#DejaVuSans-30"/>
      </g>
     </g>
    </g>
    <g id="xtick_19">
     <g id="line2d_34">
      <g>
       <use xlink:href="#m882a0d25c5" x="312.200333" y="401.92" style="stroke: #000000; stroke-width: 0.8"/>
      </g>
     </g>
     <g id="text_17">
      <!-- 2 -->
      <g transform="translate(308.700958 417.278281) scale(0.11 -0.11)">
       <use xlink:href="#DejaVuSans-32"/>
      </g>
     </g>
    </g>
    <g id="xtick_20">
     <g id="line2d_35">
      <g>
       <use xlink:href="#m882a0d25c5" x="371.643667" y="401.92" style="stroke: #000000; stroke-width: 0.8"/>
      </g>
     </g>
     <g id="text_18">
      <!-- 4 -->
      <g transform="translate(368.144292 417.278281) scale(0.11 -0.11)">
       <use xlink:href="#DejaVuSans-34"/>
      </g>
     </g>
    </g>
    <g id="xtick_21">
     <g id="line2d_36">
      <g>
       <use xlink:href="#m882a0d25c5" x="431.087" y="401.92" style="stroke: #000000; stroke-width: 0.8"/>
      </g>
     </g>
     <g id="text_19">
      <!-- 6 -->
      <g transform="translate(427.587625 417.278281) scale(0.11 -0.11)">
       <use xlink:href="#DejaVuSans-36"/>
      </g>
     </g>
    </g>
    <g id="text_20">
     <!-- position  x  (nm) -->
     <g transform="translate(207.589969 431.924219) scale(0.11 -0.11)">
      <defs>
       <path id="DejaVuSans-70" d="M 1159 525 
L 1159 -1331 
L 581 -1331 
L 581 3500 
L 1159 3500 
L 1159 2969 
Q 1341 3281 1617 3432 
Q 1894 3584 2278 3584 
Q 2916 3584 3314 3078 
Q 3713 2572 3713 1747 
Q 3713 922 3314 415 
Q 2916 -91 2278 -91 
Q 1894 -91 1617 61 
Q 1341 213 1159 525 
z
M 3116 1747 
Q 3116 2381 2855 2742 
Q 2594 3103 2138 3103 
Q 1681 3103 1420 2742 
Q 1159 2381 1159 1747 
Q 1159 1113 1420 752 
Q 1681 391 2138 391 
Q 2594 391 2855 752 
Q 3116 1113 3116 1747 
z
" transform="scale(0.015625)"/>
       <path id="DejaVuSans-78" d="M 3513 3500 
L 2247 1797 
L 3578 0 
L 2900 0 
L 1881 1375 
L 863 0 
L 184 0 
L 1544 1831 
L 300 3500 
L 978 3500 
L 1906 2253 
L 2834 3500 
L 3513 3500 
z
" transform="scale(0.015625)"/>
       <path id="DejaVuSans-28" d="M 1984 4856 
Q 1566 4138 1362 3434 
Q 1159 2731 1159 2009 
Q 1159 1288 1364 580 
Q 1569 -128 1984 -844 
L 1484 -844 
Q 1016 -109 783 600 
Q 550 1309 550 2009 
Q 550 2706 781 3412 
Q 1013 4119 1484 4856 
L 1984 4856 
z
" transform="scale(0.015625)"/>
       <path id="DejaVuSans-29" d="M 513 4856 
L 1013 4856 
Q 1481 4119 1714 3412 
Q 1947 2706 1947 2009 
Q 1947 1309 1714 600 
Q 1481 -109 1013 -844 
L 513 -844 
Q 928 -128 1133 580 
Q 1338 1288 1338 2009 
Q 1338 2731 1133 3434 
Q 928 4138 513 4856 
z
" transform="scale(0.015625)"/>
      </defs>
      <use xlink:href="#DejaVuSans-70"/>
      <use xlink:href="#DejaVuSans-6f" transform="translate(63.476562 0)"/>
      <use xlink:href="#DejaVuSans-73" transform="translate(124.658203 0)"/>
      <use xlink:href="#DejaVuSans-69" transform="translate(176.757812 0)"/>
      <use xlink:href="#DejaVuSans-74" transform="translate(204.541016 0)"/>
      <use xlink:href="#DejaVuSans-69" transform="translate(243.75 0)"/>
      <use xlink:href="#DejaVuSans-6f" transform="translate(271.533203 0)"/>
      <use xlink:href="#DejaVuSans-6e" transform="translate(332.714844 0)"/>
      <use xlink:href="#DejaVuSans-20" transform="translate(396.09375 0)"/>
      <use xlink:href="#DejaVuSans-20" transform="translate(427.880859 0)"/>
      <use xlink:href="#DejaVuSans-78" transform="translate(459.667969 0)"/>
      <use xlink:href="#DejaVuSans-20" transform="translate(518.847656 0)"/>
      <use xlink:href="#DejaVuSans-20" transform="translate(550.634766 0)"/>
      <use xlink:href="#DejaVuSans-28" transform="translate(582.421875 0)"/>
      <use xlink:href="#DejaVuSans-6e" transform="translate(621.435547 0)"/>
      <use xlink:href="#DejaVuSans-6d" transform="translate(684.814453 0)"/>
      <use xlink:href="#DejaVuSans-29" transform="translate(782.226562 0)"/>
     </g>
    </g>
   </g>
   <g id="matplotlib.axis_6">
    <g id="ytick_10">
     <g id="line2d_37">
      <g>
       <use xlink:href="#m3bb097b88b" x="56.594" y="401.92" style="stroke: #000000; stroke-width: 0.8"/>
      </g>
     </g>
     <g id="text_21">
      <!-- 0.00 -->
      <g transform="translate(25.101813 406.099141) scale(0.11 -0.11)">
       <use xlink:href="#DejaVuSans-30"/>
       <use xlink:href="#DejaVuSans-2e" transform="translate(63.623047 0)"/>
       <use xlink:href="#DejaVuSans-30" transform="translate(95.410156 0)"/>
       <use xlink:href="#DejaVuSans-30" transform="translate(159.033203 0)"/>
      </g>
     </g>
    </g>
    <g id="ytick_11">
     <g id="line2d_38">
      <g>
       <use xlink:href="#m3bb097b88b" x="56.594" y="375.113863" style="stroke: #000000; stroke-width: 0.8"/>
      </g>
     </g>
     <g id="text_22">
      <!-- 0.25 -->
      <g transform="translate(25.101813 379.293004) scale(0.11 -0.11)">
       <use xlink:href="#DejaVuSans-30"/>
       <use xlink:href="#DejaVuSans-2e" transform="translate(63.623047 0)"/>
       <use xlink:href="#DejaVuSans-32" transform="translate(95.410156 0)"/>
       <use xlink:href="#DejaVuSans-35" transform="translate(159.033203 0)"/>
      </g>
     </g>
    </g>
    <g id="ytick_12">
     <g id="line2d_39">
      <g>
       <use xlink:href="#m3bb097b88b" x="56.594" y="348.307726" style="stroke: #000000; stroke-width: 0.8"/>
      </g>
     </g>
     <g id="text_23">
      <!-- 0.50 -->
      <g transform="translate(25.101813 352.486867) scale(0.11 -0.11)">
       <use xlink:href="#DejaVuSans-30"/>
       <use xlink:href="#DejaVuSans-2e" transform="translate(63.623047 0)"/>
       <use xlink:href="#DejaVuSans-35" transform="translate(95.410156 0)"/>
       <use xlink:href="#DejaVuSans-30" transform="translate(159.033203 0)"/>
      </g>
     </g>
    </g>
    <g id="ytick_13">
     <g id="line2d_40">
      <g>
       <use xlink:href="#m3bb097b88b" x="56.594" y="321.501589" style="stroke: #000000; stroke-width: 0.8"/>
      </g>
     </g>
     <g id="text_24">
      <!-- 0.75 -->
      <g transform="translate(25.101813 325.68073) scale(0.11 -0.11)">
       <defs>
        <path id="DejaVuSans-37" d="M 525 4666 
L 3525 4666 
L 3525 4397 
L 1831 0 
L 1172 0 
L 2766 4134 
L 525 4134 
L 525 4666 
z
" transform="scale(0.015625)"/>
       </defs>
       <use xlink:href="#DejaVuSans-30"/>
       <use xlink:href="#DejaVuSans-2e" transform="translate(63.623047 0)"/>
       <use xlink:href="#DejaVuSans-37" transform="translate(95.410156 0)"/>
       <use xlink:href="#DejaVuSans-35" transform="translate(159.033203 0)"/>
      </g>
     </g>
    </g>
    <g id="ytick_14">
     <g id="line2d_41">
      <g>
       <use xlink:href="#m3bb097b88b" x="56.594" y="294.695453" style="stroke: #000000; stroke-width: 0.8"/>
      </g>
     </g>
     <g id="text_25">
      <!-- 1.00 -->
      <g transform="translate(25.101813 298.874593) scale(0.11 -0.11)">
       <use xlink:href="#DejaVuSans-31"/>
       <use xlink:href="#DejaVuSans-2e" transform="translate(63.623047 0)"/>
       <use xlink:href="#DejaVuSans-30" transform="translate(95.410156 0)"/>
       <use xlink:href="#DejaVuSans-30" transform="translate(159.033203 0)"/>
      </g>
     </g>
    </g>
    <g id="text_26">
     <!-- $|\psi|^2$ (nm$^{-1}$) -->
     <g transform="translate(18.461813 376.42762) rotate(-90) scale(0.11 -0.11)">
      <use xlink:href="#DejaVuSans-7c" transform="translate(0 0.765625)"/>
      <use xlink:href="#DejaVuSans-Oblique-3c8" transform="translate(33.691406 0.765625)"/>
      <use xlink:href="#DejaVuSans-7c" transform="translate(99.658203 0.765625)"/>
      <use xlink:href="#DejaVuSans-32" transform="translate(134.306641 39.046875) scale(0.7)"/>
      <use xlink:href="#DejaVuSans-20" transform="translate(181.577148 0.765625)"/>
      <use xlink:href="#DejaVuSans-28" transform="translate(213.364258 0.765625)"/>
      <use xlink:href="#DejaVuSans-6e" transform="translate(252.37793 0.765625)"/>
      <use xlink:href="#DejaVuSans-6d" transform="translate(315.756836 0.765625)"/>
      <use xlink:href="#DejaVuSans-2212" transform="translate(414.125977 39.046875) scale(0.7)"/>
      <use xlink:href="#DejaVuSans-31" transform="translate(472.77832 39.046875) scale(0.7)"/>
      <use xlink:href="#DejaVuSans-29" transform="translate(520.048828 0.765625)"/>
     </g>
    </g>
   </g>
   <g id="line2d_42">
    <path d="M 74.427 401.906767 
L 100.846259 401.763694 
L 112.984838 401.494261 
L 121.553246 401.098677 
L 128.33657 400.578368 
L 134.048842 399.932399 
L 139.04708 399.158734 
L 143.688301 398.220098 
L 147.972506 397.124909 
L 151.899693 395.893626 
L 155.469863 394.557896 
L 159.040033 392.990758 
L 162.610203 391.167881 
L 165.823356 389.28932 
L 169.03651 387.168999 
L 172.249663 384.793114 
L 175.462816 382.150421 
L 178.675969 379.232922 
L 181.889122 376.03657 
L 185.459292 372.158904 
L 189.029462 367.9463 
L 192.95665 362.946687 
L 197.240854 357.09829 
L 201.882075 350.375992 
L 207.951364 341.169186 
L 220.089943 322.645184 
L 224.374147 316.554634 
L 227.944317 311.840924 
L 231.15747 307.957828 
L 234.013607 304.843293 
L 236.512726 302.411116 
L 239.011845 300.27795 
L 241.510964 298.465422 
L 243.653066 297.181233 
L 245.795168 296.156149 
L 247.93727 295.39805 
L 250.079372 294.912797 
L 251.864457 294.719624 
L 253.649543 294.719624 
L 255.434628 294.912797 
L 257.219713 295.298099 
L 259.361815 296.011075 
L 261.503917 296.992155 
L 263.646019 298.23379 
L 265.788121 299.726493 
L 268.28724 301.77013 
L 270.786359 304.119243 
L 273.642495 307.147675 
L 276.498632 310.505388 
L 279.711785 314.623954 
L 283.638972 320.058837 
L 288.280193 326.896431 
L 295.777551 338.413061 
L 303.988942 350.905019 
L 308.98718 358.099074 
L 313.271384 363.882804 
L 317.198572 368.814915 
L 320.768742 372.961627 
L 324.338912 376.771017 
L 327.909082 380.236295 
L 331.122235 383.061532 
L 334.335388 385.614226 
L 337.548542 387.903533 
L 340.761695 389.941627 
L 344.331865 391.929246 
L 347.902035 393.646953 
L 351.472205 395.11858 
L 355.399392 396.482388 
L 359.32658 397.610512 
L 363.610784 398.609152 
L 368.252005 399.460648 
L 373.60726 400.20107 
L 379.67655 400.796866 
L 386.81689 401.257179 
L 395.742315 401.590787 
L 407.880894 401.801772 
L 428.587881 401.903001 
L 431.087 401.906767 
L 431.087 401.906767 
" clip-path="url(#pe828f245cf)" style="fill: none; stroke: #0072b2; stroke-width: 1.6; stroke-linecap: square"/>
   </g>
   <g id="line2d_43">
    <path d="M 252.757 401.92 
L 252.757 289.33524 
" clip-path="url(#pe828f245cf)" style="fill: none; stroke-dasharray: 0.7,1.155; stroke-dashoffset: 0; stroke: #999999; stroke-width: 0.7"/>
   </g>
   <g id="patch_9">
    <path d="M 56.594 401.92 
L 56.594 289.33524 
" style="fill: none; stroke: #000000; stroke-linejoin: miter; stroke-linecap: square"/>
   </g>
   <g id="patch_10">
    <path d="M 56.594 401.92 
L 448.92 401.92 
" style="fill: none; stroke: #000000; stroke-linejoin: miter; stroke-linecap: square"/>
   </g>
  </g>
 </g>
 <defs>
  <clipPath id="pa1d55d80b2">
   <rect x="56.594" y="30.912" width="392.326" height="112.58476"/>
  </clipPath>
  <clipPath id="pee970ce53d">
   <rect x="56.594" y="160.12362" width="392.326" height="112.58476"/>
  </clipPath>
  <clipPath id="pe828f245cf">
   <rect x="56.594" y="289.33524" width="392.326" height="112.58476"/>
  </clipPath>
 </defs>
</svg>
