<?xml version="1.0" encoding="utf-8" standalone="no"?>
<!DOCTYPE svg PUBLIC "-//W3C//DTD SVG 1.1//EN"
  "http://www.w3.org/Graphics/SVG/1.1/DTD/svg11.dtd">
<svg xmlns:xlink="http://www.w3.org/1999/xlink" width="460.8pt" height="288pt" viewBox="0 0 460.8 288" xmlns="http://www.w3.org/2000/svg" version="1.1">
 <metadata>
  <rdf:RDF xmlns:dc="http://purl.org/dc/elements/1.1/" xmlns:cc="http://creativecommons.org/ns#" xmlns:rdf="http://www.w3.org/1999/02/22-rdf-syntax-ns#">
   <cc:Work>
    <dc:type rdf:resource="http://purl.org/dc/dcmitype/StillImage"/>
    <dc:date>2026-06-04T06:13:27.980828</dc:date>
    <dc:format>image/svg+xml</dc:format>
    <dc:creator>
     <cc:Agent>
      <dc:title>Matplotlib v3.10.8, https://matplotlib.org/</dc:title>
     </cc:Agent>
    </dc:creator>
   </cc:Work>
  </rdf:RDF>
 </metadata>
 <defs>
  <style type="text/css">*{stroke-linejoin: round; stroke-linecap: butt}</style>
 </defs>
 <g id="figure_1">
  <g id="patch_1">
   <path d="M 0 288 
L 460.8 288 
L 460.8 0 
L 0 0 
z
" style="fill: #ffffff"/>
  </g>
  <g id="axes_1">
   <g id="patch_2">
    <path d="M 55.172 240.64 
L 440.19 240.64 
L 440.19 27.96 
L 55.172 27.96 
z
" style="fill: #ffffff"/>
   </g>
   <g id="FillBetweenPolyCollection_1">
    <path d="M 61.588967 -397.4 
L 61.588967 -291.06 
L 62.347686 -234.840824 
L 63.106406 -189.373452 
L 63.865125 -151.842692 
L 64.623845 -120.337279 
L 65.382564 -93.51403 
L 66.141284 -70.401383 
L 66.900003 -50.279189 
L 67.658723 -32.602327 
L 68.417442 -16.950583 
L 69.176162 -2.994803 
L 69.934881 9.526498 
L 70.693601 20.823679 
L 71.45232 31.067883 
L 72.21104 40.399774 
L 72.969759 48.936026 
L 73.728479 56.774234 
L 74.487198 63.996658 
L 75.245918 70.67312 
L 76.004637 76.863272 
L 76.763357 82.61838 
L 77.522076 87.98275 
L 78.280796 92.994869 
L 79.039515 97.68833 
L 79.798235 102.092585 
L 80.556954 106.233566 
L 81.315674 110.134196 
L 82.074393 113.814809 
L 82.833113 117.29351 
L 83.591832 120.586471 
L 84.350552 123.70818 
L 85.109271 126.671658 
L 85.867991 129.488638 
L 86.62671 132.169722 
L 87.38543 134.724511 
L 88.144149 137.161724 
L 88.902869 139.489295 
L 89.661588 141.714459 
L 90.420308 143.843831 
L 91.179027 145.883464 
L 91.937747 147.838916 
L 92.696466 149.715291 
L 93.455186 151.517293 
L 94.213905 153.249256 
L 94.972625 154.915186 
L 95.731344 156.518789 
L 96.490064 158.063498 
L 97.248783 159.5525 
L 98.007503 160.988754 
L 98.766222 162.375015 
L 99.524942 163.713847 
L 100.283661 165.007645 
L 101.042381 166.258643 
L 101.8011 167.46893 
L 102.55982 168.640461 
L 103.318539 169.775069 
L 104.077259 170.874473 
L 104.835978 171.940285 
L 105.594698 172.974022 
L 106.353418 173.977111 
L 107.112137 174.950894 
L 107.870857 175.896637 
L 108.629576 176.815535 
L 109.388296 177.708714 
L 110.147015 178.57724 
L 110.905735 179.422118 
L 111.664454 180.244302 
L 112.423174 181.044695 
L 113.181893 181.82415 
L 113.940613 182.583479 
L 114.699332 183.323452 
L 115.458052 184.044799 
L 116.216771 184.748216 
L 116.975491 185.434361 
L 117.73421 186.103864 
L 118.49293 186.757323 
L 119.251649 187.395308 
L 120.010369 188.018362 
L 120.769088 188.627003 
L 121.527808 189.221725 
L 122.286527 189.803001 
L 123.045247 190.371281 
L 123.803966 190.926996 
L 124.562686 191.47056 
L 125.321405 192.002365 
L 126.080125 192.522789 
L 126.838844 193.032195 
L 127.597564 193.530927 
L 128.356283 194.019318 
L 129.115003 194.497687 
L 129.873722 194.966338 
L 130.632442 195.425566 
L 131.391161 195.87565 
L 132.149881 196.316863 
L 132.9086 196.749462 
L 133.66732 197.173699 
L 134.426039 197.589813 
L 135.184759 197.998036 
L 135.943478 198.398589 
L 136.702198 198.791688 
L 137.460917 199.177537 
L 138.219637 199.556336 
L 138.978356 199.928277 
L 139.737076 200.293543 
L 140.495795 200.652313 
L 141.254515 201.004759 
L 142.013234 201.351047 
L 142.771954 201.691336 
L 143.530673 202.025781 
L 144.289393 202.354531 
L 145.048112 202.677731 
L 145.806832 202.995519 
L 146.565551 203.308032 
L 147.324271 203.615398 
L 148.08299 203.917744 
L 148.84171 204.215192 
L 149.600429 204.507861 
L 150.359149 204.795863 
L 151.117868 205.079311 
L 151.876588 205.358311 
L 152.635307 205.632967 
L 153.394027 205.90338 
L 154.152746 206.169648 
L 154.911466 206.431864 
L 155.670185 206.690122 
L 156.428905 206.944509 
L 157.187624 207.195112 
L 157.946344 207.442015 
L 158.705063 207.685299 
L 159.463783 207.925043 
L 160.222502 208.161325 
L 160.981222 208.394217 
L 161.739941 208.623794 
L 162.498661 208.850125 
L 163.25738 209.073278 
L 164.0161 209.29332 
L 164.774819 209.510316 
L 165.533539 209.724328 
L 166.292258 209.935417 
L 167.050978 210.143644 
L 167.809697 210.349065 
L 168.568417 210.551737 
L 169.327136 210.751716 
L 170.085856 210.949053 
L 170.844575 211.143802 
L 171.603295 211.336013 
L 172.362014 211.525735 
L 173.120734 211.713016 
L 173.879454 211.897903 
L 174.638173 212.080441 
L 175.396893 212.260676 
L 176.155612 212.43865 
L 176.914332 212.614406 
L 177.673051 212.787984 
L 178.431771 212.959426 
L 179.19049 213.12877 
L 179.94921 213.296055 
L 180.707929 213.461317 
L 181.466649 213.624594 
L 182.225368 213.785921 
L 182.984088 213.945333 
L 183.742807 214.102863 
L 184.501527 214.258544 
L 185.260246 214.41241 
L 186.018966 214.564491 
L 186.777685 214.714819 
L 187.536405 214.863424 
L 188.295124 215.010334 
L 189.053844 215.15558 
L 189.812563 215.299188 
L 190.571283 215.441187 
L 191.330002 215.581604 
L 192.088722 215.720464 
L 192.847441 215.857794 
L 193.606161 215.993618 
L 194.36488 216.127962 
L 195.1236 216.260849 
L 195.882319 216.392303 
L 196.641039 216.522347 
L 197.399758 216.651004 
L 198.158478 216.778295 
L 198.917197 216.904242 
L 199.675917 217.028867 
L 200.434636 217.15219 
L 201.193356 217.274232 
L 201.952075 217.395011 
L 202.710795 217.514549 
L 203.469514 217.632863 
L 204.228234 217.749973 
L 204.986953 217.865897 
L 205.745673 217.980652 
L 206.504392 218.094257 
L 207.263112 218.206729 
L 208.021831 218.318083 
L 208.780551 218.428338 
L 209.53927 218.537509 
L 210.29799 218.645612 
L 211.056709 218.752663 
L 211.815429 218.858677 
L 212.574148 218.963668 
L 213.332868 219.067653 
L 214.091587 219.170644 
L 214.850307 219.272657 
L 215.609026 219.373705 
L 216.367746 219.473801 
L 217.126465 219.57296 
L 217.885185 219.671194 
L 218.643904 219.768516 
L 219.402624 219.864939 
L 220.161343 219.960475 
L 220.920063 220.055137 
L 221.678782 220.148936 
L 222.437502 220.241884 
L 223.196221 220.333992 
L 223.954941 220.425272 
L 224.71366 220.515736 
L 225.47238 220.605393 
L 226.231099 220.694255 
L 226.989819 220.782332 
L 227.748538 220.869635 
L 228.507258 220.956173 
L 229.265977 221.041957 
L 230.024697 221.126997 
L 230.783416 221.211302 
L 231.542136 221.294882 
L 232.300855 221.377745 
L 233.059575 221.459902 
L 233.818294 221.54136 
L 234.577014 221.62213 
L 235.335733 221.70222 
L 236.094453 221.781638 
L 236.853172 221.860392 
L 237.611892 221.938492 
L 238.370611 222.015944 
L 239.129331 222.092758 
L 239.888051 222.16894 
L 240.64677 222.2445 
L 241.40549 222.319443 
L 242.164209 222.393779 
L 242.922929 222.467514 
L 243.681648 222.540655 
L 244.440368 222.61321 
L 245.199087 222.685185 
L 245.957807 222.756588 
L 246.716526 222.827425 
L 247.475246 222.897704 
L 248.233965 222.96743 
L 248.992685 223.03661 
L 249.751404 223.10525 
L 250.510124 223.173357 
L 251.268843 223.240938 
L 252.027563 223.307997 
L 252.786282 223.374542 
L 253.545002 223.440577 
L 254.303721 223.506109 
L 255.062441 223.571144 
L 255.82116 223.635687 
L 256.57988 223.699743 
L 257.338599 223.763319 
L 258.097319 223.82642 
L 258.856038 223.88905 
L 259.614758 223.951215 
L 260.373477 224.012921 
L 261.132197 224.074172 
L 261.890916 224.134974 
L 262.649636 224.19533 
L 263.408355 224.255247 
L 264.167075 224.314729 
L 264.925794 224.373781 
L 265.684514 224.432407 
L 266.443233 224.490612 
L 267.201953 224.5484 
L 267.960672 224.605776 
L 268.719392 224.662745 
L 269.478111 224.71931 
L 270.236831 224.775476 
L 270.99555 224.831247 
L 271.75427 224.886627 
L 272.512989 224.941621 
L 273.271709 224.996232 
L 274.030428 225.050465 
L 274.789148 225.104323 
L 275.547867 225.157809 
L 276.306587 225.210929 
L 277.065306 225.263686 
L 277.824026 225.316083 
L 278.582745 225.368124 
L 279.341465 225.419813 
L 280.100184 225.471153 
L 280.858904 225.522148 
L 281.617623 225.572801 
L 282.376343 225.623116 
L 283.135062 225.673096 
L 283.893782 225.722745 
L 284.652501 225.772065 
L 285.411221 225.82106 
L 286.16994 225.869733 
L 286.92866 225.918088 
L 287.687379 225.966127 
L 288.446099 226.013853 
L 289.204818 226.06127 
L 289.963538 226.108381 
L 290.722257 226.155188 
L 291.480977 226.201695 
L 292.239696 226.247903 
L 292.998416 226.293817 
L 293.757135 226.339439 
L 294.515855 226.384772 
L 295.274574 226.429818 
L 296.033294 226.474581 
L 296.792013 226.519062 
L 297.550733 226.563265 
L 298.309452 226.607192 
L 299.068172 226.650846 
L 299.826891 226.694229 
L 300.585611 226.737343 
L 301.34433 226.780192 
L 302.10305 226.822778 
L 302.861769 226.865103 
L 303.620489 226.907169 
L 304.379208 226.948979 
L 305.137928 226.990535 
L 305.896647 227.03184 
L 306.655367 227.072895 
L 307.414087 227.113704 
L 308.172806 227.154268 
L 308.931526 227.194589 
L 309.690245 227.23467 
L 310.448965 227.274512 
L 311.207684 227.314119 
L 311.966404 227.353491 
L 312.725123 227.392631 
L 313.483843 227.431542 
L 314.242562 227.470224 
L 315.001282 227.508681 
L 315.760001 227.546914 
L 316.518721 227.584924 
L 317.27744 227.622715 
L 318.03616 227.660288 
L 318.794879 227.697644 
L 319.553599 227.734786 
L 320.312318 227.771715 
L 321.071038 227.808434 
L 321.829757 227.844943 
L 322.588477 227.881245 
L 323.347196 227.917342 
L 324.105916 227.953236 
L 324.864635 227.988927 
L 325.623355 228.024418 
L 326.382074 228.059711 
L 327.140794 228.094806 
L 327.899513 228.129707 
L 328.658233 228.164413 
L 329.416952 228.198928 
L 330.175672 228.233252 
L 330.934391 228.267388 
L 331.693111 228.301336 
L 332.45183 228.335098 
L 333.21055 228.368676 
L 333.969269 228.402071 
L 334.727989 228.435285 
L 335.486708 228.468319 
L 336.245428 228.501175 
L 337.004147 228.533854 
L 337.762867 228.566357 
L 338.521586 228.598687 
L 339.280306 228.630843 
L 340.039025 228.662829 
L 340.797745 228.694644 
L 341.556464 228.726291 
L 342.315184 228.757771 
L 343.073903 228.789084 
L 343.832623 228.820233 
L 344.591342 228.851219 
L 345.350062 228.882043 
L 346.108781 228.912706 
L 346.867501 228.943209 
L 347.62622 228.973555 
L 348.38494 229.003743 
L 349.143659 229.033775 
L 349.902379 229.063653 
L 350.661098 229.093377 
L 351.419818 229.122949 
L 352.178537 229.15237 
L 352.937257 229.181641 
L 353.695976 229.210763 
L 354.454696 229.239738 
L 355.213415 229.268566 
L 355.972135 229.297249 
L 356.730854 229.325787 
L 357.489574 229.354182 
L 358.248293 229.382435 
L 359.007013 229.410546 
L 359.765732 229.438518 
L 360.524452 229.466351 
L 361.283171 229.494046 
L 362.041891 229.521603 
L 362.80061 229.549025 
L 363.55933 229.576312 
L 364.318049 229.603465 
L 365.076769 229.630485 
L 365.835488 229.657373 
L 366.594208 229.68413 
L 367.352927 229.710757 
L 368.111647 229.737255 
L 368.870366 229.763625 
L 369.629086 229.789867 
L 370.387805 229.815983 
L 371.146525 229.841974 
L 371.905244 229.86784 
L 372.663964 229.893583 
L 373.422684 229.919202 
L 374.181403 229.9447 
L 374.940123 229.970077 
L 375.698842 229.995334 
L 376.457562 230.020472 
L 377.216281 230.045491 
L 377.975001 230.070392 
L 378.73372 230.095177 
L 379.49244 230.119845 
L 380.251159 230.144399 
L 381.009879 230.168838 
L 381.768598 230.193164 
L 382.527318 230.217377 
L 383.286037 230.241478 
L 384.044757 230.265467 
L 384.803476 230.289347 
L 385.562196 230.313116 
L 386.320915 230.336777 
L 387.079635 230.360329 
L 387.838354 230.383774 
L 388.597074 230.407113 
L 389.355793 230.430345 
L 390.114513 230.453472 
L 390.873232 230.476495 
L 391.631952 230.499414 
L 392.390671 230.522229 
L 393.149391 230.544943 
L 393.90811 230.567554 
L 394.66683 230.590064 
L 395.425549 230.612474 
L 396.184269 230.634785 
L 396.942988 230.656996 
L 397.701708 230.679109 
L 398.460427 230.701124 
L 399.219147 230.723042 
L 399.977866 230.744863 
L 400.736586 230.766589 
L 401.495305 230.78822 
L 402.254025 230.809755 
L 403.012744 230.831197 
L 403.771464 230.852546 
L 404.530183 230.873802 
L 405.288903 230.894966 
L 406.047622 230.916038 
L 406.806342 230.937019 
L 407.565061 230.95791 
L 408.323781 230.978712 
L 409.0825 230.999424 
L 409.84122 231.020047 
L 410.599939 231.040583 
L 411.358659 231.06103 
L 412.117378 231.081391 
L 412.876098 231.101666 
L 413.634817 231.121855 
L 414.393537 231.141958 
L 415.152256 231.161977 
L 415.910976 231.181911 
L 416.669695 231.201762 
L 417.428415 231.22153 
L 418.187134 231.241215 
L 418.945854 231.260818 
L 419.704573 231.280339 
L 420.463293 231.29978 
L 421.222012 231.319139 
L 421.980732 231.338419 
L 422.739451 231.357619 
L 423.498171 231.37674 
L 424.25689 231.395782 
L 425.01561 231.414746 
L 425.774329 231.433633 
L 426.533049 231.452442 
L 427.291768 231.471175 
L 428.050488 231.489831 
L 428.809207 231.508412 
L 429.567927 231.526917 
L 430.326646 231.545347 
L 431.085366 231.563703 
L 431.844085 231.581986 
L 432.602805 231.600194 
L 433.361524 231.61833 
L 434.120244 231.636393 
L 434.878963 231.654383 
L 435.637683 231.672302 
L 436.396402 231.69015 
L 437.155122 231.707927 
L 437.913841 231.725633 
L 438.672561 231.743269 
L 439.43128 231.760836 
L 440.19 231.778333 
L 440.19 -397.4 
L 440.19 -397.4 
L 439.43128 -397.4 
L 438.672561 -397.4 
L 437.913841 -397.4 
L 437.155122 -397.4 
L 436.396402 -397.4 
L 435.637683 -397.4 
L 434.878963 -397.4 
L 434.120244 -397.4 
L 433.361524 -397.4 
L 432.602805 -397.4 
L 431.844085 -397.4 
L 431.085366 -397.4 
L 430.326646 -397.4 
L 429.567927 -397.4 
L 428.809207 -397.4 
L 428.050488 -397.4 
L 427.291768 -397.4 
L 426.533049 -397.4 
L 425.774329 -397.4 
L 425.01561 -397.4 
L 424.25689 -397.4 
L 423.498171 -397.4 
L 422.739451 -397.4 
L 421.980732 -397.4 
L 421.222012 -397.4 
L 420.463293 -397.4 
L 419.704573 -397.4 
L 418.945854 -397.4 
L 418.187134 -397.4 
L 417.428415 -397.4 
L 416.669695 -397.4 
L 415.910976 -397.4 
L 415.152256 -397.4 
L 414.393537 -397.4 
L 413.634817 -397.4 
L 412.876098 -397.4 
L 412.117378 -397.4 
L 411.358659 -397.4 
L 410.599939 -397.4 
L 409.84122 -397.4 
L 409.0825 -397.4 
L 408.323781 -397.4 
L 407.565061 -397.4 
L 406.806342 -397.4 
L 406.047622 -397.4 
L 405.288903 -397.4 
L 404.530183 -397.4 
L 403.771464 -397.4 
L 403.012744 -397.4 
L 402.254025 -397.4 
L 401.495305 -397.4 
L 400.736586 -397.4 
L 399.977866 -397.4 
L 399.219147 -397.4 
L 398.460427 -397.4 
L 397.701708 -397.4 
L 396.942988 -397.4 
L 396.184269 -397.4 
L 395.425549 -397.4 
L 394.66683 -397.4 
L 393.90811 -397.4 
L 393.149391 -397.4 
L 392.390671 -397.4 
L 391.631952 -397.4 
L 390.873232 -397.4 
L 390.114513 -397.4 
L 389.355793 -397.4 
L 388.597074 -397.4 
L 387.838354 -397.4 
L 387.079635 -397.4 
L 386.320915 -397.4 
L 385.562196 -397.4 
L 384.803476 -397.4 
L 384.044757 -397.4 
L 383.286037 -397.4 
L 382.527318 -397.4 
L 381.768598 -397.4 
L 381.009879 -397.4 
L 380.251159 -397.4 
L 379.49244 -397.4 
L 378.73372 -397.4 
L 377.975001 -397.4 
L 377.216281 -397.4 
L 376.457562 -397.4 
L 375.698842 -397.4 
L 374.940123 -397.4 
L 374.181403 -397.4 
L 373.422684 -397.4 
L 372.663964 -397.4 
L 371.905244 -397.4 
L 371.146525 -397.4 
L 370.387805 -397.4 
L 369.629086 -397.4 
L 368.870366 -397.4 
L 368.111647 -397.4 
L 367.352927 -397.4 
L 366.594208 -397.4 
L 365.835488 -397.4 
L 365.076769 -397.4 
L 364.318049 -397.4 
L 363.55933 -397.4 
L 362.80061 -397.4 
L 362.041891 -397.4 
L 361.283171 -397.4 
L 360.524452 -397.4 
L 359.765732 -397.4 
L 359.007013 -397.4 
L 358.248293 -397.4 
L 357.489574 -397.4 
L 356.730854 -397.4 
L 355.972135 -397.4 
L 355.213415 -397.4 
L 354.454696 -397.4 
L 353.695976 -397.4 
L 352.937257 -397.4 
L 352.178537 -397.4 
L 351.419818 -397.4 
L 350.661098 -397.4 
L 349.902379 -397.4 
L 349.143659 -397.4 
L 348.38494 -397.4 
L 347.62622 -397.4 
L 346.867501 -397.4 
L 346.108781 -397.4 
L 345.350062 -397.4 
L 344.591342 -397.4 
L 343.832623 -397.4 
L 343.073903 -397.4 
L 342.315184 -397.4 
L 341.556464 -397.4 
L 340.797745 -397.4 
L 340.039025 -397.4 
L 339.280306 -397.4 
L 338.521586 -397.4 
L 337.762867 -397.4 
L 337.004147 -397.4 
L 336.245428 -397.4 
L 335.486708 -397.4 
L 334.727989 -397.4 
L 333.969269 -397.4 
L 333.21055 -397.4 
L 332.45183 -397.4 
L 331.693111 -397.4 
L 330.934391 -397.4 
L 330.175672 -397.4 
L 329.416952 -397.4 
L 328.658233 -397.4 
L 327.899513 -397.4 
L 327.140794 -397.4 
L 326.382074 -397.4 
L 325.623355 -397.4 
L 324.864635 -397.4 
L 324.105916 -397.4 
L 323.347196 -397.4 
L 322.588477 -397.4 
L 321.829757 -397.4 
L 321.071038 -397.4 
L 320.312318 -397.4 
L 319.553599 -397.4 
L 318.794879 -397.4 
L 318.03616 -397.4 
L 317.27744 -397.4 
L 316.518721 -397.4 
L 315.760001 -397.4 
L 315.001282 -397.4 
L 314.242562 -397.4 
L 313.483843 -397.4 
L 312.725123 -397.4 
L 311.966404 -397.4 
L 311.207684 -397.4 
L 310.448965 -397.4 
L 309.690245 -397.4 
L 308.931526 -397.4 
L 308.172806 -397.4 
L 307.414087 -397.4 
L 306.655367 -397.4 
L 305.896647 -397.4 
L 305.137928 -397.4 
L 304.379208 -397.4 
L 303.620489 -397.4 
L 302.861769 -397.4 
L 302.10305 -397.4 
L 301.34433 -397.4 
L 300.585611 -397.4 
L 299.826891 -397.4 
L 299.068172 -397.4 
L 298.309452 -397.4 
L 297.550733 -397.4 
L 296.792013 -397.4 
L 296.033294 -397.4 
L 295.274574 -397.4 
L 294.515855 -397.4 
L 293.757135 -397.4 
L 292.998416 -397.4 
L 292.239696 -397.4 
L 291.480977 -397.4 
L 290.722257 -397.4 
L 289.963538 -397.4 
L 289.204818 -397.4 
L 288.446099 -397.4 
L 287.687379 -397.4 
L 286.92866 -397.4 
L 286.16994 -397.4 
L 285.411221 -397.4 
L 284.652501 -397.4 
L 283.893782 -397.4 
L 283.135062 -397.4 
L 282.376343 -397.4 
L 281.617623 -397.4 
L 280.858904 -397.4 
L 280.100184 -397.4 
L 279.341465 -397.4 
L 278.582745 -397.4 
L 277.824026 -397.4 
L 277.065306 -397.4 
L 276.306587 -397.4 
L 275.547867 -397.4 
L 274.789148 -397.4 
L 274.030428 -397.4 
L 273.271709 -397.4 
L 272.512989 -397.4 
L 271.75427 -397.4 
L 270.99555 -397.4 
L 270.236831 -397.4 
L 269.478111 -397.4 
L 268.719392 -397.4 
L 267.960672 -397.4 
L 267.201953 -397.4 
L 266.443233 -397.4 
L 265.684514 -397.4 
L 264.925794 -397.4 
L 264.167075 -397.4 
L 263.408355 -397.4 
L 262.649636 -397.4 
L 261.890916 -397.4 
L 261.132197 -397.4 
L 260.373477 -397.4 
L 259.614758 -397.4 
L 258.856038 -397.4 
L 258.097319 -397.4 
L 257.338599 -397.4 
L 256.57988 -397.4 
L 255.82116 -397.4 
L 255.062441 -397.4 
L 254.303721 -397.4 
L 253.545002 -397.4 
L 252.786282 -397.4 
L 252.027563 -397.4 
L 251.268843 -397.4 
L 250.510124 -397.4 
L 249.751404 -397.4 
L 248.992685 -397.4 
L 248.233965 -397.4 
L 247.475246 -397.4 
L 246.716526 -397.4 
L 245.957807 -397.4 
L 245.199087 -397.4 
L 244.440368 -397.4 
L 243.681648 -397.4 
L 242.922929 -397.4 
L 242.164209 -397.4 
L 241.40549 -397.4 
L 240.64677 -397.4 
L 239.888051 -397.4 
L 239.129331 -397.4 
L 238.370611 -397.4 
L 237.611892 -397.4 
L 236.853172 -397.4 
L 236.094453 -397.4 
L 235.335733 -397.4 
L 234.577014 -397.4 
L 233.818294 -397.4 
L 233.059575 -397.4 
L 232.300855 -397.4 
L 231.542136 -397.4 
L 230.783416 -397.4 
L 230.024697 -397.4 
L 229.265977 -397.4 
L 228.507258 -397.4 
L 227.748538 -397.4 
L 226.989819 -397.4 
L 226.231099 -397.4 
L 225.47238 -397.4 
L 224.71366 -397.4 
L 223.954941 -397.4 
L 223.196221 -397.4 
L 222.437502 -397.4 
L 221.678782 -397.4 
L 220.920063 -397.4 
L 220.161343 -397.4 
L 219.402624 -397.4 
L 218.643904 -397.4 
L 217.885185 -397.4 
L 217.126465 -397.4 
L 216.367746 -397.4 
L 215.609026 -397.4 
L 214.850307 -397.4 
L 214.091587 -397.4 
L 213.332868 -397.4 
L 212.574148 -397.4 
L 211.815429 -397.4 
L 211.056709 -397.4 
L 210.29799 -397.4 
L 209.53927 -397.4 
L 208.780551 -397.4 
L 208.021831 -397.4 
L 207.263112 -397.4 
L 206.504392 -397.4 
L 205.745673 -397.4 
L 204.986953 -397.4 
L 204.228234 -397.4 
L 203.469514 -397.4 
L 202.710795 -397.4 
L 201.952075 -397.4 
L 201.193356 -397.4 
L 200.434636 -397.4 
L 199.675917 -397.4 
L 198.917197 -397.4 
L 198.158478 -397.4 
L 197.399758 -397.4 
L 196.641039 -397.4 
L 195.882319 -397.4 
L 195.1236 -397.4 
L 194.36488 -397.4 
L 193.606161 -397.4 
L 192.847441 -397.4 
L 192.088722 -397.4 
L 191.330002 -397.4 
L 190.571283 -397.4 
L 189.812563 -397.4 
L 189.053844 -397.4 
L 188.295124 -397.4 
L 187.536405 -397.4 
L 186.777685 -397.4 
L 186.018966 -397.4 
L 185.260246 -397.4 
L 184.501527 -397.4 
L 183.742807 -397.4 
L 182.984088 -397.4 
L 182.225368 -397.4 
L 181.466649 -397.4 
L 180.707929 -397.4 
L 179.94921 -397.4 
L 179.19049 -397.4 
L 178.431771 -397.4 
L 177.673051 -397.4 
L 176.914332 -397.4 
L 176.155612 -397.4 
L 175.396893 -397.4 
L 174.638173 -397.4 
L 173.879454 -397.4 
L 173.120734 -397.4 
L 172.362014 -397.4 
L 171.603295 -397.4 
L 170.844575 -397.4 
L 170.085856 -397.4 
L 169.327136 -397.4 
L 168.568417 -397.4 
L 167.809697 -397.4 
L 167.050978 -397.4 
L 166.292258 -397.4 
L 165.533539 -397.4 
L 164.774819 -397.4 
L 164.0161 -397.4 
L 163.25738 -397.4 
L 162.498661 -397.4 
L 161.739941 -397.4 
L 160.981222 -397.4 
L 160.222502 -397.4 
L 159.463783 -397.4 
L 158.705063 -397.4 
L 157.946344 -397.4 
L 157.187624 -397.4 
L 156.428905 -397.4 
L 155.670185 -397.4 
L 154.911466 -397.4 
L 154.152746 -397.4 
L 153.394027 -397.4 
L 152.635307 -397.4 
L 151.876588 -397.4 
L 151.117868 -397.4 
L 150.359149 -397.4 
L 149.600429 -397.4 
L 148.84171 -397.4 
L 148.08299 -397.4 
L 147.324271 -397.4 
L 146.565551 -397.4 
L 145.806832 -397.4 
L 145.048112 -397.4 
L 144.289393 -397.4 
L 143.530673 -397.4 
L 142.771954 -397.4 
L 142.013234 -397.4 
L 141.254515 -397.4 
L 140.495795 -397.4 
L 139.737076 -397.4 
L 138.978356 -397.4 
L 138.219637 -397.4 
L 137.460917 -397.4 
L 136.702198 -397.4 
L 135.943478 -397.4 
L 135.184759 -397.4 
L 134.426039 -397.4 
L 133.66732 -397.4 
L 132.9086 -397.4 
L 132.149881 -397.4 
L 131.391161 -397.4 
L 130.632442 -397.4 
L 129.873722 -397.4 
L 129.115003 -397.4 
L 128.356283 -397.4 
L 127.597564 -397.4 
L 126.838844 -397.4 
L 126.080125 -397.4 
L 125.321405 -397.4 
L 124.562686 -397.4 
L 123.803966 -397.4 
L 123.045247 -397.4 
L 122.286527 -397.4 
L 121.527808 -397.4 
L 120.769088 -397.4 
L 120.010369 -397.4 
L 119.251649 -397.4 
L 118.49293 -397.4 
L 117.73421 -397.4 
L 116.975491 -397.4 
L 116.216771 -397.4 
L 115.458052 -397.4 
L 114.699332 -397.4 
L 113.940613 -397.4 
L 113.181893 -397.4 
L 112.423174 -397.4 
L 111.664454 -397.4 
L 110.905735 -397.4 
L 110.147015 -397.4 
L 109.388296 -397.4 
L 108.629576 -397.4 
L 107.870857 -397.4 
L 107.112137 -397.4 
L 106.353418 -397.4 
L 105.594698 -397.4 
L 104.835978 -397.4 
L 104.077259 -397.4 
L 103.318539 -397.4 
L 102.55982 -397.4 
L 101.8011 -397.4 
L 101.042381 -397.4 
L 100.283661 -397.4 
L 99.524942 -397.4 
L 98.766222 -397.4 
L 98.007503 -397.4 
L 97.248783 -397.4 
L 96.490064 -397.4 
L 95.731344 -397.4 
L 94.972625 -397.4 
L 94.213905 -397.4 
L 93.455186 -397.4 
L 92.696466 -397.4 
L 91.937747 -397.4 
L 91.179027 -397.4 
L 90.420308 -397.4 
L 89.661588 -397.4 
L 88.902869 -397.4 
L 88.144149 -397.4 
L 87.38543 -397.4 
L 86.62671 -397.4 
L 85.867991 -397.4 
L 85.109271 -397.4 
L 84.350552 -397.4 
L 83.591832 -397.4 
L 82.833113 -397.4 
L 82.074393 -397.4 
L 81.315674 -397.4 
L 80.556954 -397.4 
L 79.798235 -397.4 
L 79.039515 -397.4 
L 78.280796 -397.4 
L 77.522076 -397.4 
L 76.763357 -397.4 
L 76.004637 -397.4 
L 75.245918 -397.4 
L 74.487198 -397.4 
L 73.728479 -397.4 
L 72.969759 -397.4 
L 72.21104 -397.4 
L 71.45232 -397.4 
L 70.693601 -397.4 
L 69.934881 -397.4 
L 69.176162 -397.4 
L 68.417442 -397.4 
L 67.658723 -397.4 
L 66.900003 -397.4 
L 66.141284 -397.4 
L 65.382564 -397.4 
L 64.623845 -397.4 
L 63.865125 -397.4 
L 63.106406 -397.4 
L 62.347686 -397.4 
L 61.588967 -397.4 
z
" clip-path="url(#pd8a7231523)" style="fill: #56b4e9; fill-opacity: 0.18; stroke: #56b4e9; stroke-opacity: 0.18"/>
   </g>
   <g id="matplotlib.axis_1">
    <g id="xtick_1">
     <g id="line2d_1">
      <defs>
       <path id="m2854a3c50a" d="M 0 0 
L 0 3.5 
" style="stroke: #000000; stroke-width: 0.8"/>
      </defs>
      <g>
       <use xlink:href="#m2854a3c50a" x="55.172" y="240.64" style="stroke: #000000; stroke-width: 0.8"/>
      </g>
     </g>
     <g id="text_1">
      <!-- 0.0 -->
      <g transform="translate(46.425281 255.998281) scale(0.11 -0.11)">
       <defs>
        <path id="DejaVuSans-30" d="M 2034 4250 
Q 1547 4250 1301 3770 
Q 1056 3291 1056 2328 
Q 1056 1369 1301 889 
Q 1547 409 2034 409 
Q 2525 409 2770 889 
Q 3016 1369 3016 2328 
Q 3016 3291 2770 3770 
Q 2525 4250 2034 4250 
z
M 2034 4750 
Q 2819 4750 3233 4129 
Q 3647 3509 3647 2328 
Q 3647 1150 3233 529 
Q 2819 -91 2034 -91 
Q 1250 -91 836 529 
Q 422 1150 422 2328 
Q 422 3509 836 4129 
Q 1250 4750 2034 4750 
z
" transform="scale(0.015625)"/>
        <path id="DejaVuSans-2e" d="M 684 794 
L 1344 794 
L 1344 0 
L 684 0 
L 684 794 
z
" transform="scale(0.015625)"/>
       </defs>
       <use xlink:href="#DejaVuSans-30"/>
       <use xlink:href="#DejaVuSans-2e" transform="translate(63.623047 0)"/>
       <use xlink:href="#DejaVuSans-30" transform="translate(95.410156 0)"/>
      </g>
     </g>
    </g>
    <g id="xtick_2">
     <g id="line2d_2">
      <g>
       <use xlink:href="#m2854a3c50a" x="119.341667" y="240.64" style="stroke: #000000; stroke-width: 0.8"/>
      </g>
     </g>
     <g id="text_2">
      <!-- 0.5 -->
      <g transform="translate(110.594948 255.998281) scale(0.11 -0.11)">
       <defs>
        <path id="DejaVuSans-35" d="M 691 4666 
L 3169 4666 
L 3169 4134 
L 1269 4134 
L 1269 2991 
Q 1406 3038 1543 3061 
Q 1681 3084 1819 3084 
Q 2600 3084 3056 2656 
Q 3513 2228 3513 1497 
Q 3513 744 3044 326 
Q 2575 -91 1722 -91 
Q 1428 -91 1123 -41 
Q 819 9 494 109 
L 494 744 
Q 775 591 1075 516 
Q 1375 441 1709 441 
Q 2250 441 2565 725 
Q 2881 1009 2881 1497 
Q 2881 1984 2565 2268 
Q 2250 2553 1709 2553 
Q 1456 2553 1204 2497 
Q 953 2441 691 2322 
L 691 4666 
z
" transform="scale(0.015625)"/>
       </defs>
       <use xlink:href="#DejaVuSans-30"/>
       <use xlink:href="#DejaVuSans-2e" transform="translate(63.623047 0)"/>
       <use xlink:href="#DejaVuSans-35" transform="translate(95.410156 0)"/>
      </g>
     </g>
    </g>
    <g id="xtick_3">
     <g id="line2d_3">
      <g>
       <use xlink:href="#m2854a3c50a" x="183.511333" y="240.64" style="stroke: #000000; stroke-width: 0.8"/>
      </g>
     </g>
     <g id="text_3">
      <!-- 1.0 -->
      <g transform="translate(174.764615 255.998281) scale(0.11 -0.11)">
       <defs>
        <path id="DejaVuSans-31" d="M 794 531 
L 1825 531 
L 1825 4091 
L 703 3866 
L 703 4441 
L 1819 4666 
L 2450 4666 
L 2450 531 
L 3481 531 
L 3481 0 
L 794 0 
L 794 531 
z
" transform="scale(0.015625)"/>
       </defs>
       <use xlink:href="#DejaVuSans-31"/>
       <use xlink:href="#DejaVuSans-2e" transform="translate(63.623047 0)"/>
       <use xlink:href="#DejaVuSans-30" transform="translate(95.410156 0)"/>
      </g>
     </g>
    </g>
    <g id="xtick_4">
     <g id="line2d_4">
      <g>
       <use xlink:href="#m2854a3c50a" x="247.681" y="240.64" style="stroke: #000000; stroke-width: 0.8"/>
      </g>
     </g>
     <g id="text_4">
      <!-- 1.5 -->
      <g transform="translate(238.934281 255.998281) scale(0.11 -0.11)">
       <use xlink:href="#DejaVuSans-31"/>
       <use xlink:href="#DejaVuSans-2e" transform="translate(63.623047 0)"/>
       <use xlink:href="#DejaVuSans-35" transform="translate(95.410156 0)"/>
      </g>
     </g>
    </g>
    <g id="xtick_5">
     <g id="line2d_5">
      <g>
       <use xlink:href="#m2854a3c50a" x="311.850667" y="240.64" style="stroke: #000000; stroke-width: 0.8"/>
      </g>
     </g>
     <g id="text_5">
      <!-- 2.0 -->
      <g transform="translate(303.103948 255.998281) scale(0.11 -0.11)">
       <defs>
        <path id="DejaVuSans-32" d="M 1228 531 
L 3431 531 
L 3431 0 
L 469 0 
L 469 531 
Q 828 903 1448 1529 
Q 2069 2156 2228 2338 
Q 2531 2678 2651 2914 
Q 2772 3150 2772 3378 
Q 2772 3750 2511 3984 
Q 2250 4219 1831 4219 
Q 1534 4219 1204 4116 
Q 875 4013 500 3803 
L 500 4441 
Q 881 4594 1212 4672 
Q 1544 4750 1819 4750 
Q 2544 4750 2975 4387 
Q 3406 4025 3406 3419 
Q 3406 3131 3298 2873 
Q 3191 2616 2906 2266 
Q 2828 2175 2409 1742 
Q 1991 1309 1228 531 
z
" transform="scale(0.015625)"/>
       </defs>
       <use xlink:href="#DejaVuSans-32"/>
       <use xlink:href="#DejaVuSans-2e" transform="translate(63.623047 0)"/>
       <use xlink:href="#DejaVuSans-30" transform="translate(95.410156 0)"/>
      </g>
     </g>
    </g>
    <g id="xtick_6">
     <g id="line2d_6">
      <g>
       <use xlink:href="#m2854a3c50a" x="376.020333" y="240.64" style="stroke: #000000; stroke-width: 0.8"/>
      </g>
     </g>
     <g id="text_6">
      <!-- 2.5 -->
      <g transform="translate(367.273615 255.998281) scale(0.11 -0.11)">
       <use xlink:href="#DejaVuSans-32"/>
       <use xlink:href="#DejaVuSans-2e" transform="translate(63.623047 0)"/>
       <use xlink:href="#DejaVuSans-35" transform="translate(95.410156 0)"/>
      </g>
     </g>
    </g>
    <g id="xtick_7">
     <g id="line2d_7">
      <g>
       <use xlink:href="#m2854a3c50a" x="440.19" y="240.64" style="stroke: #000000; stroke-width: 0.8"/>
      </g>
     </g>
     <g id="text_7">
      <!-- 3.0 -->
      <g transform="translate(431.443281 255.998281) scale(0.11 -0.11)">
       <defs>
        <path id="DejaVuSans-33" d="M 2597 2516 
Q 3050 2419 3304 2112 
Q 3559 1806 3559 1356 
Q 3559 666 3084 287 
Q 2609 -91 1734 -91 
Q 1441 -91 1130 -33 
Q 819 25 488 141 
L 488 750 
Q 750 597 1062 519 
Q 1375 441 1716 441 
Q 2309 441 2620 675 
Q 2931 909 2931 1356 
Q 2931 1769 2642 2001 
Q 2353 2234 1838 2234 
L 1294 2234 
L 1294 2753 
L 1863 2753 
Q 2328 2753 2575 2939 
Q 2822 3125 2822 3475 
Q 2822 3834 2567 4026 
Q 2313 4219 1838 4219 
Q 1578 4219 1281 4162 
Q 984 4106 628 3988 
L 628 4550 
Q 988 4650 1302 4700 
Q 1616 4750 1894 4750 
Q 2613 4750 3031 4423 
Q 3450 4097 3450 3541 
Q 3450 3153 3228 2886 
Q 3006 2619 2597 2516 
z
" transform="scale(0.015625)"/>
       </defs>
       <use xlink:href="#DejaVuSans-33"/>
       <use xlink:href="#DejaVuSans-2e" transform="translate(63.623047 0)"/>
       <use xlink:href="#DejaVuSans-30" transform="translate(95.410156 0)"/>
      </g>
     </g>
    </g>
    <g id="text_8">
     <!-- position spread  $\sigma_x$  (nm) -->
     <g transform="translate(179.206 270.645938) scale(0.11 -0.11)">
      <defs>
       <path id="DejaVuSans-70" d="M 1159 525 
L 1159 -1331 
L 581 -1331 
L 581 3500 
L 1159 3500 
L 1159 2969 
Q 1341 3281 1617 3432 
Q 1894 3584 2278 3584 
Q 2916 3584 3314 3078 
Q 3713 2572 3713 1747 
Q 3713 922 3314 415 
Q 2916 -91 2278 -91 
Q 1894 -91 1617 61 
Q 1341 213 1159 525 
z
M 3116 1747 
Q 3116 2381 2855 2742 
Q 2594 3103 2138 3103 
Q 1681 3103 1420 2742 
Q 1159 2381 1159 1747 
Q 1159 1113 1420 752 
Q 1681 391 2138 391 
Q 2594 391 2855 752 
Q 3116 1113 3116 1747 
z
" transform="scale(0.015625)"/>
       <path id="DejaVuSans-6f" d="M 1959 3097 
Q 1497 3097 1228 2736 
Q 959 2375 959 1747 
Q 959 1119 1226 758 
Q 1494 397 1959 397 
Q 2419 397 2687 759 
Q 2956 1122 2956 1747 
Q 2956 2369 2687 2733 
Q 2419 3097 1959 3097 
z
M 1959 3584 
Q 2709 3584 3137 3096 
Q 3566 2609 3566 1747 
Q 3566 888 3137 398 
Q 2709 -91 1959 -91 
Q 1206 -91 779 398 
Q 353 888 353 1747 
Q 353 2609 779 3096 
Q 1206 3584 1959 3584 
z
" transform="scale(0.015625)"/>
       <path id="DejaVuSans-73" d="M 2834 3397 
L 2834 2853 
Q 2591 2978 2328 3040 
Q 2066 3103 1784 3103 
Q 1356 3103 1142 2972 
Q 928 2841 928 2578 
Q 928 2378 1081 2264 
Q 1234 2150 1697 2047 
L 1894 2003 
Q 2506 1872 2764 1633 
Q 3022 1394 3022 966 
Q 3022 478 2636 193 
Q 2250 -91 1575 -91 
Q 1294 -91 989 -36 
Q 684 19 347 128 
L 347 722 
Q 666 556 975 473 
Q 1284 391 1588 391 
Q 1994 391 2212 530 
Q 2431 669 2431 922 
Q 2431 1156 2273 1281 
Q 2116 1406 1581 1522 
L 1381 1569 
Q 847 1681 609 1914 
Q 372 2147 372 2553 
Q 372 3047 722 3315 
Q 1072 3584 1716 3584 
Q 2034 3584 2315 3537 
Q 2597 3491 2834 3397 
z
" transform="scale(0.015625)"/>
       <path id="DejaVuSans-69" d="M 603 3500 
L 1178 3500 
L 1178 0 
L 603 0 
L 603 3500 
z
M 603 4863 
L 1178 4863 
L 1178 4134 
L 603 4134 
L 603 4863 
z
" transform="scale(0.015625)"/>
       <path id="DejaVuSans-74" d="M 1172 4494 
L 1172 3500 
L 2356 3500 
L 2356 3053 
L 1172 3053 
L 1172 1153 
Q 1172 725 1289 603 
Q 1406 481 1766 481 
L 2356 481 
L 2356 0 
L 1766 0 
Q 1100 0 847 248 
Q 594 497 594 1153 
L 594 3053 
L 172 3053 
L 172 3500 
L 594 3500 
L 594 4494 
L 1172 4494 
z
" transform="scale(0.015625)"/>
       <path id="DejaVuSans-6e" d="M 3513 2113 
L 3513 0 
L 2938 0 
L 2938 2094 
Q 2938 2591 2744 2837 
Q 2550 3084 2163 3084 
Q 1697 3084 1428 2787 
Q 1159 2491 1159 1978 
L 1159 0 
L 581 0 
L 581 3500 
L 1159 3500 
L 1159 2956 
Q 1366 3272 1645 3428 
Q 1925 3584 2291 3584 
Q 2894 3584 3203 3211 
Q 3513 2838 3513 2113 
z
" transform="scale(0.015625)"/>
       <path id="DejaVuSans-20" transform="scale(0.015625)"/>
       <path id="DejaVuSans-72" d="M 2631 2963 
Q 2534 3019 2420 3045 
Q 2306 3072 2169 3072 
Q 1681 3072 1420 2755 
Q 1159 2438 1159 1844 
L 1159 0 
L 581 0 
L 581 3500 
L 1159 3500 
L 1159 2956 
Q 1341 3275 1631 3429 
Q 1922 3584 2338 3584 
Q 2397 3584 2469 3576 
Q 2541 3569 2628 3553 
L 2631 2963 
z
" transform="scale(0.015625)"/>
       <path id="DejaVuSans-65" d="M 3597 1894 
L 3597 1613 
L 953 1613 
Q 991 1019 1311 708 
Q 1631 397 2203 397 
Q 2534 397 2845 478 
Q 3156 559 3463 722 
L 3463 178 
Q 3153 47 2828 -22 
Q 2503 -91 2169 -91 
Q 1331 -91 842 396 
Q 353 884 353 1716 
Q 353 2575 817 3079 
Q 1281 3584 2069 3584 
Q 2775 3584 3186 3129 
Q 3597 2675 3597 1894 
z
M 3022 2063 
Q 3016 2534 2758 2815 
Q 2500 3097 2075 3097 
Q 1594 3097 1305 2825 
Q 1016 2553 972 2059 
L 3022 2063 
z
" transform="scale(0.015625)"/>
       <path id="DejaVuSans-61" d="M 2194 1759 
Q 1497 1759 1228 1600 
Q 959 1441 959 1056 
Q 959 750 1161 570 
Q 1363 391 1709 391 
Q 2188 391 2477 730 
Q 2766 1069 2766 1631 
L 2766 1759 
L 2194 1759 
z
M 3341 1997 
L 3341 0 
L 2766 0 
L 2766 531 
Q 2569 213 2275 61 
Q 1981 -91 1556 -91 
Q 1019 -91 701 211 
Q 384 513 384 1019 
Q 384 1609 779 1909 
Q 1175 2209 1959 2209 
L 2766 2209 
L 2766 2266 
Q 2766 2663 2505 2880 
Q 2244 3097 1772 3097 
Q 1472 3097 1187 3025 
Q 903 2953 641 2809 
L 641 3341 
Q 956 3463 1253 3523 
Q 1550 3584 1831 3584 
Q 2591 3584 2966 3190 
Q 3341 2797 3341 1997 
z
" transform="scale(0.015625)"/>
       <path id="DejaVuSans-64" d="M 2906 2969 
L 2906 4863 
L 3481 4863 
L 3481 0 
L 2906 0 
L 2906 525 
Q 2725 213 2448 61 
Q 2172 -91 1784 -91 
Q 1150 -91 751 415 
Q 353 922 353 1747 
Q 353 2572 751 3078 
Q 1150 3584 1784 3584 
Q 2172 3584 2448 3432 
Q 2725 3281 2906 2969 
z
M 947 1747 
Q 947 1113 1208 752 
Q 1469 391 1925 391 
Q 2381 391 2643 752 
Q 2906 1113 2906 1747 
Q 2906 2381 2643 2742 
Q 2381 3103 1925 3103 
Q 1469 3103 1208 2742 
Q 947 2381 947 1747 
z
" transform="scale(0.015625)"/>
       <path id="DejaVuSans-Oblique-3c3" d="M 2219 3044 
Q 1744 3044 1422 2700 
Q 1081 2341 969 1747 
Q 844 1119 1044 756 
Q 1241 397 1706 397 
Q 2166 397 2503 759 
Q 2844 1122 2966 1747 
Q 3075 2319 2881 2700 
Q 2700 3044 2219 3044 
z
M 2309 3503 
L 4219 3500 
L 4106 2925 
L 3463 2925 
Q 3706 2438 3575 1747 
Q 3406 888 2884 400 
Q 2359 -91 1609 -91 
Q 856 -91 525 400 
Q 194 888 363 1747 
Q 528 2609 1050 3097 
Q 1484 3503 2309 3503 
z
" transform="scale(0.015625)"/>
       <path id="DejaVuSans-Oblique-78" d="M 3841 3500 
L 2234 1784 
L 3219 0 
L 2559 0 
L 1819 1388 
L 531 0 
L -166 0 
L 1556 1844 
L 641 3500 
L 1300 3500 
L 1972 2234 
L 3144 3500 
L 3841 3500 
z
" transform="scale(0.015625)"/>
       <path id="DejaVuSans-28" d="M 1984 4856 
Q 1566 4138 1362 3434 
Q 1159 2731 1159 2009 
Q 1159 1288 1364 580 
Q 1569 -128 1984 -844 
L 1484 -844 
Q 1016 -109 783 600 
Q 550 1309 550 2009 
Q 550 2706 781 3412 
Q 1013 4119 1484 4856 
L 1984 4856 
z
" transform="scale(0.015625)"/>
       <path id="DejaVuSans-6d" d="M 3328 2828 
Q 3544 3216 3844 3400 
Q 4144 3584 4550 3584 
Q 5097 3584 5394 3201 
Q 5691 2819 5691 2113 
L 5691 0 
L 5113 0 
L 5113 2094 
Q 5113 2597 4934 2840 
Q 4756 3084 4391 3084 
Q 3944 3084 3684 2787 
Q 3425 2491 3425 1978 
L 3425 0 
L 2847 0 
L 2847 2094 
Q 2847 2600 2669 2842 
Q 2491 3084 2119 3084 
Q 1678 3084 1418 2786 
Q 1159 2488 1159 1978 
L 1159 0 
L 581 0 
L 581 3500 
L 1159 3500 
L 1159 2956 
Q 1356 3278 1631 3431 
Q 1906 3584 2284 3584 
Q 2666 3584 2933 3390 
Q 3200 3197 3328 2828 
z
" transform="scale(0.015625)"/>
       <path id="DejaVuSans-29" d="M 513 4856 
L 1013 4856 
Q 1481 4119 1714 3412 
Q 1947 2706 1947 2009 
Q 1947 1309 1714 600 
Q 1481 -109 1013 -844 
L 513 -844 
Q 928 -128 1133 580 
Q 1338 1288 1338 2009 
Q 1338 2731 1133 3434 
Q 928 4138 513 4856 
z
" transform="scale(0.015625)"/>
      </defs>
      <use xlink:href="#DejaVuSans-70" transform="translate(0 0.015625)"/>
      <use xlink:href="#DejaVuSans-6f" transform="translate(63.476562 0.015625)"/>
      <use xlink:href="#DejaVuSans-73" transform="translate(124.658203 0.015625)"/>
      <use xlink:href="#DejaVuSans-69" transform="translate(176.757812 0.015625)"/>
      <use xlink:href="#DejaVuSans-74" transform="translate(204.541016 0.015625)"/>
      <use xlink:href="#DejaVuSans-69" transform="translate(243.75 0.015625)"/>
      <use xlink:href="#DejaVuSans-6f" transform="translate(271.533203 0.015625)"/>
      <use xlink:href="#DejaVuSans-6e" transform="translate(332.714844 0.015625)"/>
      <use xlink:href="#DejaVuSans-20" transform="translate(396.09375 0.015625)"/>
      <use xlink:href="#DejaVuSans-73" transform="translate(427.880859 0.015625)"/>
      <use xlink:href="#DejaVuSans-70" transform="translate(479.980469 0.015625)"/>
      <use xlink:href="#DejaVuSans-72" transform="translate(543.457031 0.015625)"/>
      <use xlink:href="#DejaVuSans-65" transform="translate(584.570312 0.015625)"/>
      <use xlink:href="#DejaVuSans-61" transform="translate(646.09375 0.015625)"/>
      <use xlink:href="#DejaVuSans-64" transform="translate(707.373047 0.015625)"/>
      <use xlink:href="#DejaVuSans-20" transform="translate(770.849609 0.015625)"/>
      <use xlink:href="#DejaVuSans-20" transform="translate(802.636719 0.015625)"/>
      <use xlink:href="#DejaVuSans-Oblique-3c3" transform="translate(834.423828 0.015625)"/>
      <use xlink:href="#DejaVuSans-Oblique-78" transform="translate(897.802734 -16.390625) scale(0.7)"/>
      <use xlink:href="#DejaVuSans-20" transform="translate(941.962891 0.015625)"/>
      <use xlink:href="#DejaVuSans-20" transform="translate(973.75 0.015625)"/>
      <use xlink:href="#DejaVuSans-28" transform="translate(1005.537109 0.015625)"/>
      <use xlink:href="#DejaVuSans-6e" transform="translate(1044.550781 0.015625)"/>
      <use xlink:href="#DejaVuSans-6d" transform="translate(1107.929688 0.015625)"/>
      <use xlink:href="#DejaVuSans-29" transform="translate(1205.341797 0.015625)"/>
     </g>
    </g>
   </g>
   <g id="matplotlib.axis_2">
    <g id="ytick_1">
     <g id="line2d_8">
      <defs>
       <path id="m0699a50105" d="M 0 0 
L -3.5 0 
" style="stroke: #000000; stroke-width: 0.8"/>
      </defs>
      <g>
       <use xlink:href="#m0699a50105" x="55.172" y="240.64" style="stroke: #000000; stroke-width: 0.8"/>
      </g>
     </g>
     <g id="text_9">
      <!-- 0.0 -->
      <g transform="translate(30.678563 244.819141) scale(0.11 -0.11)">
       <use xlink:href="#DejaVuSans-30"/>
       <use xlink:href="#DejaVuSans-2e" transform="translate(63.623047 0)"/>
       <use xlink:href="#DejaVuSans-30" transform="translate(95.410156 0)"/>
      </g>
     </g>
    </g>
    <g id="ytick_2">
     <g id="line2d_9">
      <g>
       <use xlink:href="#m0699a50105" x="55.172" y="214.055" style="stroke: #000000; stroke-width: 0.8"/>
      </g>
     </g>
     <g id="text_10">
      <!-- 0.5 -->
      <g transform="translate(30.678563 218.234141) scale(0.11 -0.11)">
       <use xlink:href="#DejaVuSans-30"/>
       <use xlink:href="#DejaVuSans-2e" transform="translate(63.623047 0)"/>
       <use xlink:href="#DejaVuSans-35" transform="translate(95.410156 0)"/>
      </g>
     </g>
    </g>
    <g id="ytick_3">
     <g id="line2d_10">
      <g>
       <use xlink:href="#m0699a50105" x="55.172" y="187.47" style="stroke: #000000; stroke-width: 0.8"/>
      </g>
     </g>
     <g id="text_11">
      <!-- 1.0 -->
      <g transform="translate(30.678563 191.649141) scale(0.11 -0.11)">
       <use xlink:href="#DejaVuSans-31"/>
       <use xlink:href="#DejaVuSans-2e" transform="translate(63.623047 0)"/>
       <use xlink:href="#DejaVuSans-30" transform="translate(95.410156 0)"/>
      </g>
     </g>
    </g>
    <g id="ytick_4">
     <g id="line2d_11">
      <g>
       <use xlink:href="#m0699a50105" x="55.172" y="160.885" style="stroke: #000000; stroke-width: 0.8"/>
      </g>
     </g>
     <g id="text_12">
      <!-- 1.5 -->
      <g transform="translate(30.678563 165.064141) scale(0.11 -0.11)">
       <use xlink:href="#DejaVuSans-31"/>
       <use xlink:href="#DejaVuSans-2e" transform="translate(63.623047 0)"/>
       <use xlink:href="#DejaVuSans-35" transform="translate(95.410156 0)"/>
      </g>
     </g>
    </g>
    <g id="ytick_5">
     <g id="line2d_12">
      <g>
       <use xlink:href="#m0699a50105" x="55.172" y="134.3" style="stroke: #000000; stroke-width: 0.8"/>
      </g>
     </g>
     <g id="text_13">
      <!-- 2.0 -->
      <g transform="translate(30.678563 138.479141) scale(0.11 -0.11)">
       <use xlink:href="#DejaVuSans-32"/>
       <use xlink:href="#DejaVuSans-2e" transform="translate(63.623047 0)"/>
       <use xlink:href="#DejaVuSans-30" transform="translate(95.410156 0)"/>
      </g>
     </g>
    </g>
    <g id="ytick_6">
     <g id="line2d_13">
      <g>
       <use xlink:href="#m0699a50105" x="55.172" y="107.715" style="stroke: #000000; stroke-width: 0.8"/>
      </g>
     </g>
     <g id="text_14">
      <!-- 2.5 -->
      <g transform="translate(30.678563 111.894141) scale(0.11 -0.11)">
       <use xlink:href="#DejaVuSans-32"/>
       <use xlink:href="#DejaVuSans-2e" transform="translate(63.623047 0)"/>
       <use xlink:href="#DejaVuSans-35" transform="translate(95.410156 0)"/>
      </g>
     </g>
    </g>
    <g id="ytick_7">
     <g id="line2d_14">
      <g>
       <use xlink:href="#m0699a50105" x="55.172" y="81.13" style="stroke: #000000; stroke-width: 0.8"/>
      </g>
     </g>
     <g id="text_15">
      <!-- 3.0 -->
      <g transform="translate(30.678563 85.309141) scale(0.11 -0.11)">
       <use xlink:href="#DejaVuSans-33"/>
       <use xlink:href="#DejaVuSans-2e" transform="translate(63.623047 0)"/>
       <use xlink:href="#DejaVuSans-30" transform="translate(95.410156 0)"/>
      </g>
     </g>
    </g>
    <g id="ytick_8">
     <g id="line2d_15">
      <g>
       <use xlink:href="#m0699a50105" x="55.172" y="54.545" style="stroke: #000000; stroke-width: 0.8"/>
      </g>
     </g>
     <g id="text_16">
      <!-- 3.5 -->
      <g transform="translate(30.678563 58.724141) scale(0.11 -0.11)">
       <use xlink:href="#DejaVuSans-33"/>
       <use xlink:href="#DejaVuSans-2e" transform="translate(63.623047 0)"/>
       <use xlink:href="#DejaVuSans-35" transform="translate(95.410156 0)"/>
      </g>
     </g>
    </g>
    <g id="ytick_9">
     <g id="line2d_16">
      <g>
       <use xlink:href="#m0699a50105" x="55.172" y="27.96" style="stroke: #000000; stroke-width: 0.8"/>
      </g>
     </g>
     <g id="text_17">
      <!-- 4.0 -->
      <g transform="translate(30.678563 32.139141) scale(0.11 -0.11)">
       <defs>
        <path id="DejaVuSans-34" d="M 2419 4116 
L 825 1625 
L 2419 1625 
L 2419 4116 
z
M 2253 4666 
L 3047 4666 
L 3047 1625 
L 3713 1625 
L 3713 1100 
L 3047 1100 
L 3047 0 
L 2419 0 
L 2419 1100 
L 313 1100 
L 313 1709 
L 2253 4666 
z
" transform="scale(0.015625)"/>
       </defs>
       <use xlink:href="#DejaVuSans-34"/>
       <use xlink:href="#DejaVuSans-2e" transform="translate(63.623047 0)"/>
       <use xlink:href="#DejaVuSans-30" transform="translate(95.410156 0)"/>
      </g>
     </g>
    </g>
    <g id="text_18">
     <!-- momentum spread  $\sigma_p$  ($\hbar\,$/nm) -->
     <g transform="translate(23.268563 219.66) rotate(-90) scale(0.11 -0.11)">
      <defs>
       <path id="DejaVuSans-75" d="M 544 1381 
L 544 3500 
L 1119 3500 
L 1119 1403 
Q 1119 906 1312 657 
Q 1506 409 1894 409 
Q 2359 409 2629 706 
Q 2900 1003 2900 1516 
L 2900 3500 
L 3475 3500 
L 3475 0 
L 2900 0 
L 2900 538 
Q 2691 219 2414 64 
Q 2138 -91 1772 -91 
Q 1169 -91 856 284 
Q 544 659 544 1381 
z
M 1991 3584 
L 1991 3584 
z
" transform="scale(0.015625)"/>
       <path id="DejaVuSans-Oblique-70" d="M 3175 2156 
Q 3175 2616 2975 2859 
Q 2775 3103 2400 3103 
Q 2144 3103 1911 2972 
Q 1678 2841 1497 2591 
Q 1319 2344 1212 1994 
Q 1106 1644 1106 1300 
Q 1106 863 1306 627 
Q 1506 391 1875 391 
Q 2147 391 2380 519 
Q 2613 647 2778 891 
Q 2956 1147 3065 1494 
Q 3175 1841 3175 2156 
z
M 1394 2969 
Q 1625 3272 1939 3428 
Q 2253 3584 2638 3584 
Q 3175 3584 3472 3232 
Q 3769 2881 3769 2247 
Q 3769 1728 3584 1258 
Q 3400 788 3053 416 
Q 2822 169 2531 39 
Q 2241 -91 1919 -91 
Q 1547 -91 1294 64 
Q 1041 219 916 525 
L 556 -1331 
L -19 -1331 
L 922 3500 
L 1497 3500 
L 1394 2969 
z
" transform="scale(0.015625)"/>
       <path id="DejaVuSans-Oblique-127" d="M 3634 2113 
L 3225 0 
L 2650 0 
L 3056 2094 
Q 3094 2291 3094 2450 
Q 3094 2688 3006 2838 
Q 2863 3084 2475 3084 
Q 2009 3084 1681 2788 
Q 1356 2491 1256 1978 
L 872 0 
L 294 0 
L 1066 3969 
L 675 3969 
L 775 4481 
L 1166 4481 
L 1238 4863 
L 1816 4863 
L 1744 4481 
L 2844 4481 
L 2744 3969 
L 1644 3969 
L 1447 2956 
Q 1713 3272 2025 3428 
Q 2331 3584 2700 3584 
Q 3300 3584 3538 3213 
Q 3688 2975 3688 2606 
Q 3688 2381 3634 2113 
z
" transform="scale(0.015625)"/>
       <path id="DejaVuSans-2f" d="M 1625 4666 
L 2156 4666 
L 531 -594 
L 0 -594 
L 1625 4666 
z
" transform="scale(0.015625)"/>
      </defs>
      <use xlink:href="#DejaVuSans-6d" transform="translate(0 0.015625)"/>
      <use xlink:href="#DejaVuSans-6f" transform="translate(97.412109 0.015625)"/>
      <use xlink:href="#DejaVuSans-6d" transform="translate(158.59375 0.015625)"/>
      <use xlink:href="#DejaVuSans-65" transform="translate(256.005859 0.015625)"/>
      <use xlink:href="#DejaVuSans-6e" transform="translate(317.529297 0.015625)"/>
      <use xlink:href="#DejaVuSans-74" transform="translate(380.908203 0.015625)"/>
      <use xlink:href="#DejaVuSans-75" transform="translate(420.117188 0.015625)"/>
      <use xlink:href="#DejaVuSans-6d" transform="translate(483.496094 0.015625)"/>
      <use xlink:href="#DejaVuSans-20" transform="translate(580.908203 0.015625)"/>
      <use xlink:href="#DejaVuSans-73" transform="translate(612.695312 0.015625)"/>
      <use xlink:href="#DejaVuSans-70" transform="translate(664.794922 0.015625)"/>
      <use xlink:href="#DejaVuSans-72" transform="translate(728.271484 0.015625)"/>
      <use xlink:href="#DejaVuSans-65" transform="translate(769.384766 0.015625)"/>
      <use xlink:href="#DejaVuSans-61" transform="translate(830.908203 0.015625)"/>
      <use xlink:href="#DejaVuSans-64" transform="translate(892.1875 0.015625)"/>
      <use xlink:href="#DejaVuSans-20" transform="translate(955.664062 0.015625)"/>
      <use xlink:href="#DejaVuSans-20" transform="translate(987.451172 0.015625)"/>
      <use xlink:href="#DejaVuSans-Oblique-3c3" transform="translate(1019.238281 0.015625)"/>
      <use xlink:href="#DejaVuSans-Oblique-70" transform="translate(1082.617188 -16.390625) scale(0.7)"/>
      <use xlink:href="#DejaVuSans-20" transform="translate(1129.785156 0.015625)"/>
      <use xlink:href="#DejaVuSans-20" transform="translate(1161.572266 0.015625)"/>
      <use xlink:href="#DejaVuSans-28" transform="translate(1193.359375 0.015625)"/>
      <use xlink:href="#DejaVuSans-Oblique-127" transform="translate(1232.373047 0.015625)"/>
      <use xlink:href="#DejaVuSans-2f" transform="translate(1318.091145 0.015625)"/>
      <use xlink:href="#DejaVuSans-6e" transform="translate(1351.782551 0.015625)"/>
      <use xlink:href="#DejaVuSans-6d" transform="translate(1415.161458 0.015625)"/>
      <use xlink:href="#DejaVuSans-29" transform="translate(1512.573567 0.015625)"/>
     </g>
    </g>
   </g>
   <g id="line2d_17">
    <path d="M 69.297035 -1 
L 70.693601 20.823679 
L 72.21104 40.399774 
L 73.728479 56.774234 
L 75.245918 70.67312 
L 76.763357 82.61838 
L 78.280796 92.994869 
L 79.798235 102.092585 
L 81.315674 110.134196 
L 82.833113 117.29351 
L 84.350552 123.70818 
L 86.62671 132.169722 
L 88.902869 139.489295 
L 91.179027 145.883464 
L 93.455186 151.517293 
L 95.731344 156.518789 
L 98.007503 160.988754 
L 100.283661 165.007645 
L 102.55982 168.640461 
L 104.835978 171.940285 
L 107.870857 175.896637 
L 110.905735 179.422118 
L 113.940613 182.583479 
L 116.975491 185.434361 
L 120.010369 188.018362 
L 123.803966 190.926996 
L 127.597564 193.530927 
L 131.391161 195.87565 
L 135.943478 198.398589 
L 140.495795 200.652313 
L 145.048112 202.677731 
L 150.359149 204.795863 
L 155.670185 206.690122 
L 161.739941 208.623794 
L 168.568417 210.551737 
L 176.155612 212.43865 
L 184.501527 214.258544 
L 193.606161 215.993618 
L 203.469514 217.632863 
L 214.091587 219.170644 
L 226.231099 220.694255 
L 239.888051 222.16894 
L 255.062441 223.571144 
L 271.75427 224.886627 
L 290.722257 226.155188 
L 312.725123 227.392631 
L 337.762867 228.566357 
L 366.594208 229.68413 
L 399.977866 230.744863 
L 438.672561 231.743269 
L 440.19 231.778333 
L 440.19 231.778333 
" clip-path="url(#pd8a7231523)" style="fill: none; stroke: #0072b2; stroke-width: 2.2; stroke-linecap: square"/>
   </g>
   <g id="patch_3">
    <path d="M 55.172 240.64 
L 55.172 27.96 
" style="fill: none; stroke: #000000; stroke-linejoin: miter; stroke-linecap: square"/>
   </g>
   <g id="patch_4">
    <path d="M 55.172 240.64 
L 440.19 240.64 
" style="fill: none; stroke: #000000; stroke-linejoin: miter; stroke-linecap: square"/>
   </g>
   <g id="text_19">
    <!-- The Gaussian sits exactly on the uncertainty bound -->
    <g transform="translate(93.014125 21.96) scale(0.12 -0.12)">
     <defs>
      <path id="DejaVuSans-54" d="M -19 4666 
L 3928 4666 
L 3928 4134 
L 2272 4134 
L 2272 0 
L 1638 0 
L 1638 4134 
L -19 4134 
L -19 4666 
z
" transform="scale(0.015625)"/>
      <path id="DejaVuSans-68" d="M 3513 2113 
L 3513 0 
L 2938 0 
L 2938 2094 
Q 2938 2591 2744 2837 
Q 2550 3084 2163 3084 
Q 1697 3084 1428 2787 
Q 1159 2491 1159 1978 
L 1159 0 
L 581 0 
L 581 4863 
L 1159 4863 
L 1159 2956 
Q 1366 3272 1645 3428 
Q 1925 3584 2291 3584 
Q 2894 3584 3203 3211 
Q 3513 2838 3513 2113 
z
" transform="scale(0.015625)"/>
      <path id="DejaVuSans-47" d="M 3809 666 
L 3809 1919 
L 2778 1919 
L 2778 2438 
L 4434 2438 
L 4434 434 
Q 4069 175 3628 42 
Q 3188 -91 2688 -91 
Q 1594 -91 976 548 
Q 359 1188 359 2328 
Q 359 3472 976 4111 
Q 1594 4750 2688 4750 
Q 3144 4750 3555 4637 
Q 3966 4525 4313 4306 
L 4313 3634 
Q 3963 3931 3569 4081 
Q 3175 4231 2741 4231 
Q 1884 4231 1454 3753 
Q 1025 3275 1025 2328 
Q 1025 1384 1454 906 
Q 1884 428 2741 428 
Q 3075 428 3337 486 
Q 3600 544 3809 666 
z
" transform="scale(0.015625)"/>
      <path id="DejaVuSans-78" d="M 3513 3500 
L 2247 1797 
L 3578 0 
L 2900 0 
L 1881 1375 
L 863 0 
L 184 0 
L 1544 1831 
L 300 3500 
L 978 3500 
L 1906 2253 
L 2834 3500 
L 3513 3500 
z
" transform="scale(0.015625)"/>
      <path id="DejaVuSans-63" d="M 3122 3366 
L 3122 2828 
Q 2878 2963 2633 3030 
Q 2388 3097 2138 3097 
Q 1578 3097 1268 2742 
Q 959 2388 959 1747 
Q 959 1106 1268 751 
Q 1578 397 2138 397 
Q 2388 397 2633 464 
Q 2878 531 3122 666 
L 3122 134 
Q 2881 22 2623 -34 
Q 2366 -91 2075 -91 
Q 1284 -91 818 406 
Q 353 903 353 1747 
Q 353 2603 823 3093 
Q 1294 3584 2113 3584 
Q 2378 3584 2631 3529 
Q 2884 3475 3122 3366 
z
" transform="scale(0.015625)"/>
      <path id="DejaVuSans-6c" d="M 603 4863 
L 1178 4863 
L 1178 0 
L 603 0 
L 603 4863 
z
" transform="scale(0.015625)"/>
      <path id="DejaVuSans-79" d="M 2059 -325 
Q 1816 -950 1584 -1140 
Q 1353 -1331 966 -1331 
L 506 -1331 
L 506 -850 
L 844 -850 
Q 1081 -850 1212 -737 
Q 1344 -625 1503 -206 
L 1606 56 
L 191 3500 
L 800 3500 
L 1894 763 
L 2988 3500 
L 3597 3500 
L 2059 -325 
z
" transform="scale(0.015625)"/>
      <path id="DejaVuSans-62" d="M 3116 1747 
Q 3116 2381 2855 2742 
Q 2594 3103 2138 3103 
Q 1681 3103 1420 2742 
Q 1159 2381 1159 1747 
Q 1159 1113 1420 752 
Q 1681 391 2138 391 
Q 2594 391 2855 752 
Q 3116 1113 3116 1747 
z
M 1159 2969 
Q 1341 3281 1617 3432 
Q 1894 3584 2278 3584 
Q 2916 3584 3314 3078 
Q 3713 2572 3713 1747 
Q 3713 922 3314 415 
Q 2916 -91 2278 -91 
Q 1894 -91 1617 61 
Q 1341 213 1159 525 
L 1159 0 
L 581 0 
L 581 4863 
L 1159 4863 
L 1159 2969 
z
" transform="scale(0.015625)"/>
     </defs>
     <use xlink:href="#DejaVuSans-54"/>
     <use xlink:href="#DejaVuSans-68" transform="translate(61.083984 0)"/>
     <use xlink:href="#DejaVuSans-65" transform="translate(124.462891 0)"/>
     <use xlink:href="#DejaVuSans-20" transform="translate(185.986328 0)"/>
     <use xlink:href="#DejaVuSans-47" transform="translate(217.773438 0)"/>
     <use xlink:href="#DejaVuSans-61" transform="translate(295.263672 0)"/>
     <use xlink:href="#DejaVuSans-75" transform="translate(356.542969 0)"/>
     <use xlink:href="#DejaVuSans-73" transform="translate(419.921875 0)"/>
     <use xlink:href="#DejaVuSans-73" transform="translate(472.021484 0)"/>
     <use xlink:href="#DejaVuSans-69" transform="translate(524.121094 0)"/>
     <use xlink:href="#DejaVuSans-61" transform="translate(551.904297 0)"/>
     <use xlink:href="#DejaVuSans-6e" transform="translate(613.183594 0)"/>
     <use xlink:href="#DejaVuSans-20" transform="translate(676.5625 0)"/>
     <use xlink:href="#DejaVuSans-73" transform="translate(708.349609 0)"/>
     <use xlink:href="#DejaVuSans-69" transform="translate(760.449219 0)"/>
     <use xlink:href="#DejaVuSans-74" transform="translate(788.232422 0)"/>
     <use xlink:href="#DejaVuSans-73" transform="translate(827.441406 0)"/>
     <use xlink:href="#DejaVuSans-20" transform="translate(879.541016 0)"/>
     <use xlink:href="#DejaVuSans-65" transform="translate(911.328125 0)"/>
     <use xlink:href="#DejaVuSans-78" transform="translate(971.101562 0)"/>
     <use xlink:href="#DejaVuSans-61" transform="translate(1030.28125 0)"/>
     <use xlink:href="#DejaVuSans-63" transform="translate(1091.560547 0)"/>
     <use xlink:href="#DejaVuSans-74" transform="translate(1146.541016 0)"/>
     <use xlink:href="#DejaVuSans-6c" transform="translate(1185.75 0)"/>
     <use xlink:href="#DejaVuSans-79" transform="translate(1213.533203 0)"/>
     <use xlink:href="#DejaVuSans-20" transform="translate(1272.712891 0)"/>
     <use xlink:href="#DejaVuSans-6f" transform="translate(1304.5 0)"/>
     <use xlink:href="#DejaVuSans-6e" transform="translate(1365.681641 0)"/>
     <use xlink:href="#DejaVuSans-20" transform="translate(1429.060547 0)"/>
     <use xlink:href="#DejaVuSans-74" transform="translate(1460.847656 0)"/>
     <use xlink:href="#DejaVuSans-68" transform="translate(1500.056641 0)"/>
     <use xlink:href="#DejaVuSans-65" transform="translate(1563.435547 0)"/>
     <use xlink:href="#DejaVuSans-20" transform="translate(1624.958984 0)"/>
     <use xlink:href="#DejaVuSans-75" transform="translate(1656.746094 0)"/>
     <use xlink:href="#DejaVuSans-6e" transform="translate(1720.125 0)"/>
     <use xlink:href="#DejaVuSans-63" transform="translate(1783.503906 0)"/>
     <use xlink:href="#DejaVuSans-65" transform="translate(1838.484375 0)"/>
     <use xlink:href="#DejaVuSans-72" transform="translate(1900.007812 0)"/>
     <use xlink:href="#DejaVuSans-74" transform="translate(1941.121094 0)"/>
     <use xlink:href="#DejaVuSans-61" transform="translate(1980.330078 0)"/>
     <use xlink:href="#DejaVuSans-69" transform="translate(2041.609375 0)"/>
     <use xlink:href="#DejaVuSans-6e" transform="translate(2069.392578 0)"/>
     <use xlink:href="#DejaVuSans-74" transform="translate(2132.771484 0)"/>
     <use xlink:href="#DejaVuSans-79" transform="translate(2171.980469 0)"/>
     <use xlink:href="#DejaVuSans-20" transform="translate(2231.160156 0)"/>
     <use xlink:href="#DejaVuSans-62" transform="translate(2262.947266 0)"/>
     <use xlink:href="#DejaVuSans-6f" transform="translate(2326.423828 0)"/>
     <use xlink:href="#DejaVuSans-75" transform="translate(2387.605469 0)"/>
     <use xlink:href="#DejaVuSans-6e" transform="translate(2450.984375 0)"/>
     <use xlink:href="#DejaVuSans-64" transform="translate(2514.363281 0)"/>
    </g>
   </g>
   <g id="line2d_18">
    <defs>
     <path id="m2997a7a684" d="M 0 4 
C 1.060812 4 2.078319 3.578535 2.828427 2.828427 
C 3.578535 2.078319 4 1.060812 4 0 
C 4 -1.060812 3.578535 -2.078319 2.828427 -2.828427 
C 2.078319 -3.578535 1.060812 -4 0 -4 
C -1.060812 -4 -2.078319 -3.578535 -2.828427 -2.828427 
C -3.578535 -2.078319 -4 -1.060812 -4 0 
C -4 1.060812 -3.578535 2.078319 -2.828427 2.828427 
C -2.078319 3.578535 -1.060812 4 0 4 
z
" style="stroke: #d55e00"/>
    </defs>
    <g clip-path="url(#pd8a7231523)">
     <use xlink:href="#m2997a7a684" x="73.321923" y="52.655662" style="fill: #d55e00; stroke: #d55e00"/>
     <use xlink:href="#m2997a7a684" x="100.546806" y="165.446265" style="fill: #d55e00; stroke: #d55e00"/>
     <use xlink:href="#m2997a7a684" x="145.921613" y="203.043132" style="fill: #d55e00; stroke: #d55e00"/>
     <use xlink:href="#m2997a7a684" x="236.671226" y="221.841566" style="fill: #d55e00; stroke: #d55e00"/>
     <use xlink:href="#m2997a7a684" x="418.170452" y="231.240783" style="fill: #d55e00; stroke: #d55e00"/>
    </g>
   </g>
   <g id="legend_1">
    <g id="line2d_19">
     <path d="M 252.9 39.75 
L 261.9 39.75 
L 270.9 39.75 
" style="fill: none; stroke: #0072b2; stroke-width: 2.2; stroke-linecap: square"/>
    </g>
    <g id="text_20">
     <!-- $\sigma_x\,\sigma_p = \hbar/2$  (Kennard bound) -->
     <g transform="translate(278.1 42.9) scale(0.09 -0.09)">
      <defs>
       <path id="DejaVuSans-3d" d="M 678 2906 
L 4684 2906 
L 4684 2381 
L 678 2381 
L 678 2906 
z
M 678 1631 
L 4684 1631 
L 4684 1100 
L 678 1100 
L 678 1631 
z
" transform="scale(0.015625)"/>
       <path id="DejaVuSans-4b" d="M 628 4666 
L 1259 4666 
L 1259 2694 
L 3353 4666 
L 4166 4666 
L 1850 2491 
L 4331 0 
L 3500 0 
L 1259 2247 
L 1259 0 
L 628 0 
L 628 4666 
z
" transform="scale(0.015625)"/>
      </defs>
      <use xlink:href="#DejaVuSans-Oblique-3c3" transform="translate(0 0.015625)"/>
      <use xlink:href="#DejaVuSans-Oblique-78" transform="translate(63.378906 -16.390625) scale(0.7)"/>
      <use xlink:href="#DejaVuSans-Oblique-3c3" transform="translate(123.774739 0.015625)"/>
      <use xlink:href="#DejaVuSans-Oblique-70" transform="translate(187.153645 -16.390625) scale(0.7)"/>
      <use xlink:href="#DejaVuSans-3d" transform="translate(253.804036 0.015625)"/>
      <use xlink:href="#DejaVuSans-Oblique-127" transform="translate(357.07552 0.015625)"/>
      <use xlink:href="#DejaVuSans-2f" transform="translate(426.557942 0.015625)"/>
      <use xlink:href="#DejaVuSans-32" transform="translate(456.624348 0.015625)"/>
      <use xlink:href="#DejaVuSans-20" transform="translate(520.247395 0.015625)"/>
      <use xlink:href="#DejaVuSans-20" transform="translate(552.034504 0.015625)"/>
      <use xlink:href="#DejaVuSans-28" transform="translate(583.821614 0.015625)"/>
      <use xlink:href="#DejaVuSans-4b" transform="translate(622.835286 0.015625)"/>
      <use xlink:href="#DejaVuSans-65" transform="translate(688.411458 0.015625)"/>
      <use xlink:href="#DejaVuSans-6e" transform="translate(749.934895 0.015625)"/>
      <use xlink:href="#DejaVuSans-6e" transform="translate(813.313801 0.015625)"/>
      <use xlink:href="#DejaVuSans-61" transform="translate(876.692708 0.015625)"/>
      <use xlink:href="#DejaVuSans-72" transform="translate(937.972004 0.015625)"/>
      <use xlink:href="#DejaVuSans-64" transform="translate(979.085286 0.015625)"/>
      <use xlink:href="#DejaVuSans-20" transform="translate(1042.561848 0.015625)"/>
      <use xlink:href="#DejaVuSans-62" transform="translate(1074.348958 0.015625)"/>
      <use xlink:href="#DejaVuSans-6f" transform="translate(1137.82552 0.015625)"/>
      <use xlink:href="#DejaVuSans-75" transform="translate(1199.007161 0.015625)"/>
      <use xlink:href="#DejaVuSans-6e" transform="translate(1262.386067 0.015625)"/>
      <use xlink:href="#DejaVuSans-64" transform="translate(1325.764973 0.015625)"/>
      <use xlink:href="#DejaVuSans-29" transform="translate(1389.241536 0.015625)"/>
     </g>
    </g>
    <g id="patch_5">
     <path d="M 252.9 57.03 
L 270.9 57.03 
L 270.9 50.73 
L 252.9 50.73 
z
" style="fill: #56b4e9; fill-opacity: 0.18; stroke: #56b4e9; stroke-opacity: 0.18; stroke-linejoin: miter"/>
    </g>
    <g id="text_21">
     <!-- allowed:  $\sigma_x\sigma_p \geq \hbar/2$ -->
     <g transform="translate(278.1 57.03) scale(0.09 -0.09)">
      <defs>
       <path id="DejaVuSans-77" d="M 269 3500 
L 844 3500 
L 1563 769 
L 2278 3500 
L 2956 3500 
L 3675 769 
L 4391 3500 
L 4966 3500 
L 4050 0 
L 3372 0 
L 2619 2869 
L 1863 0 
L 1184 0 
L 269 3500 
z
" transform="scale(0.015625)"/>
       <path id="DejaVuSans-3a" d="M 750 794 
L 1409 794 
L 1409 0 
L 750 0 
L 750 794 
z
M 750 3309 
L 1409 3309 
L 1409 2516 
L 750 2516 
L 750 3309 
z
" transform="scale(0.015625)"/>
       <path id="DejaVuSans-2265" d="M 678 3175 
L 678 3725 
L 4684 2578 
L 4684 2047 
L 678 897 
L 678 1453 
L 3681 2309 
L 678 3175 
z
M 4684 531 
L 4684 0 
L 678 0 
L 678 531 
L 4684 531 
z
" transform="scale(0.015625)"/>
      </defs>
      <use xlink:href="#DejaVuSans-61" transform="translate(0 0.015625)"/>
      <use xlink:href="#DejaVuSans-6c" transform="translate(61.279297 0.015625)"/>
      <use xlink:href="#DejaVuSans-6c" transform="translate(89.0625 0.015625)"/>
      <use xlink:href="#DejaVuSans-6f" transform="translate(116.845703 0.015625)"/>
      <use xlink:href="#DejaVuSans-77" transform="translate(178.027344 0.015625)"/>
      <use xlink:href="#DejaVuSans-65" transform="translate(259.814453 0.015625)"/>
      <use xlink:href="#DejaVuSans-64" transform="translate(321.337891 0.015625)"/>
      <use xlink:href="#DejaVuSans-3a" transform="translate(384.814453 0.015625)"/>
      <use xlink:href="#DejaVuSans-20" transform="translate(418.505859 0.015625)"/>
      <use xlink:href="#DejaVuSans-20" transform="translate(450.292969 0.015625)"/>
      <use xlink:href="#DejaVuSans-Oblique-3c3" transform="translate(482.080078 0.015625)"/>
      <use xlink:href="#DejaVuSans-Oblique-78" transform="translate(545.458984 -16.390625) scale(0.7)"/>
      <use xlink:href="#DejaVuSans-Oblique-3c3" transform="translate(589.619141 0.015625)"/>
      <use xlink:href="#DejaVuSans-Oblique-70" transform="translate(652.998047 -16.390625) scale(0.7)"/>
      <use xlink:href="#DejaVuSans-2265" transform="translate(719.648438 0.015625)"/>
      <use xlink:href="#DejaVuSans-Oblique-127" transform="translate(822.919922 0.015625)"/>
      <use xlink:href="#DejaVuSans-2f" transform="translate(892.402344 0.015625)"/>
      <use xlink:href="#DejaVuSans-32" transform="translate(922.46875 0.015625)"/>
     </g>
    </g>
    <g id="line2d_20">
     <g>
      <use xlink:href="#m2997a7a684" x="261.9" y="68.008594" style="fill: #d55e00; stroke: #d55e00"/>
     </g>
    </g>
    <g id="text_22">
     <!-- Gaussian packet (varying width a) -->
     <g transform="translate(278.1 71.158594) scale(0.09 -0.09)">
      <defs>
       <path id="DejaVuSans-6b" d="M 581 4863 
L 1159 4863 
L 1159 1991 
L 2875 3500 
L 3609 3500 
L 1753 1863 
L 3688 0 
L 2938 0 
L 1159 1709 
L 1159 0 
L 581 0 
L 581 4863 
z
" transform="scale(0.015625)"/>
       <path id="DejaVuSans-76" d="M 191 3500 
L 800 3500 
L 1894 563 
L 2988 3500 
L 3597 3500 
L 2284 0 
L 1503 0 
L 191 3500 
z
" transform="scale(0.015625)"/>
       <path id="DejaVuSans-67" d="M 2906 1791 
Q 2906 2416 2648 2759 
Q 2391 3103 1925 3103 
Q 1463 3103 1205 2759 
Q 947 2416 947 1791 
Q 947 1169 1205 825 
Q 1463 481 1925 481 
Q 2391 481 2648 825 
Q 2906 1169 2906 1791 
z
M 3481 434 
Q 3481 -459 3084 -895 
Q 2688 -1331 1869 -1331 
Q 1566 -1331 1297 -1286 
Q 1028 -1241 775 -1147 
L 775 -588 
Q 1028 -725 1275 -790 
Q 1522 -856 1778 -856 
Q 2344 -856 2625 -561 
Q 2906 -266 2906 331 
L 2906 616 
Q 2728 306 2450 153 
Q 2172 0 1784 0 
Q 1141 0 747 490 
Q 353 981 353 1791 
Q 353 2603 747 3093 
Q 1141 3584 1784 3584 
Q 2172 3584 2450 3431 
Q 2728 3278 2906 2969 
L 2906 3500 
L 3481 3500 
L 3481 434 
z
" transform="scale(0.015625)"/>
      </defs>
      <use xlink:href="#DejaVuSans-47"/>
      <use xlink:href="#DejaVuSans-61" transform="translate(77.490234 0)"/>
      <use xlink:href="#DejaVuSans-75" transform="translate(138.769531 0)"/>
      <use xlink:href="#DejaVuSans-73" transform="translate(202.148438 0)"/>
      <use xlink:href="#DejaVuSans-73" transform="translate(254.248047 0)"/>
      <use xlink:href="#DejaVuSans-69" transform="translate(306.347656 0)"/>
      <use xlink:href="#DejaVuSans-61" transform="translate(334.130859 0)"/>
      <use xlink:href="#DejaVuSans-6e" transform="translate(395.410156 0)"/>
      <use xlink:href="#DejaVuSans-20" transform="translate(458.789062 0)"/>
      <use xlink:href="#DejaVuSans-70" transform="translate(490.576172 0)"/>
      <use xlink:href="#DejaVuSans-61" transform="translate(554.052734 0)"/>
      <use xlink:href="#DejaVuSans-63" transform="translate(615.332031 0)"/>
      <use xlink:href="#DejaVuSans-6b" transform="translate(670.3125 0)"/>
      <use xlink:href="#DejaVuSans-65" transform="translate(724.597656 0)"/>
      <use xlink:href="#DejaVuSans-74" transform="translate(786.121094 0)"/>
      <use xlink:href="#DejaVuSans-20" transform="translate(825.330078 0)"/>
      <use xlink:href="#DejaVuSans-28" transform="translate(857.117188 0)"/>
      <use xlink:href="#DejaVuSans-76" transform="translate(896.130859 0)"/>
      <use xlink:href="#DejaVuSans-61" transform="translate(955.310547 0)"/>
      <use xlink:href="#DejaVuSans-72" transform="translate(1016.589844 0)"/>
      <use xlink:href="#DejaVuSans-79" transform="translate(1057.703125 0)"/>
      <use xlink:href="#DejaVuSans-69" transform="translate(1116.882812 0)"/>
      <use xlink:href="#DejaVuSans-6e" transform="translate(1144.666016 0)"/>
      <use xlink:href="#DejaVuSans-67" transform="translate(1208.044922 0)"/>
      <use xlink:href="#DejaVuSans-20" transform="translate(1271.521484 0)"/>
      <use xlink:href="#DejaVuSans-77" transform="translate(1303.308594 0)"/>
      <use xlink:href="#DejaVuSans-69" transform="translate(1385.095703 0)"/>
      <use xlink:href="#DejaVuSans-64" transform="translate(1412.878906 0)"/>
      <use xlink:href="#DejaVuSans-74" transform="translate(1476.355469 0)"/>
      <use xlink:href="#DejaVuSans-68" transform="translate(1515.564453 0)"/>
      <use xlink:href="#DejaVuSans-20" transform="translate(1578.943359 0)"/>
      <use xlink:href="#DejaVuSans-61" transform="translate(1610.730469 0)"/>
      <use xlink:href="#DejaVuSans-29" transform="translate(1672.009766 0)"/>
     </g>
    </g>
   </g>
  </g>
 </g>
 <defs>
  <clipPath id="pd8a7231523">
   <rect x="55.172" y="27.96" width="385.018" height="212.68"/>
  </clipPath>
 </defs>
</svg>
