<!-- CAJAL SVG Figure
     Book: Quantum Mechanics — Foundations: The Quantum World
     Book-slug: quantum-mechanics-vol1
     Chapter: 04-the-schrodinger-equation
     Figure: 02 — The Stationary State: A Complex Clock
     Type: three-panel comparison (VG)
     Priority: Important
     Author: Humanitarians AI Incorporated
     Date-generated: 2026-06-06
     Source: pantry/04-the-schrodinger-equation-cajal.md
-->
<svg viewBox="0 0 700 420" xmlns="http://www.w3.org/2000/svg"
     role="img" aria-labelledby="fig-title-ch4-02">
  <title id="fig-title-ch4-02">Stationary state as a complex clock: Re ψ, Im ψ, and |ψ|² at three time snapshots</title>
  <desc>Three vertically stacked panels share a common position axis. Top panel shows Re ψ oscillating between positive and negative at three time snapshots. Middle panel shows Im ψ shifted 90 degrees relative to Re ψ. Bottom panel shows |ψ|² as a single frozen Gaussian — unchanged across all three snapshots — demonstrating that the probability density is stationary.</desc>
  <metadata>
    <cajal:figure xmlns:cajal="https://bearbrown.ai/cajal/1.0"
      book="Quantum Mechanics — Foundations: The Quantum World"
      book-slug="quantum-mechanics-vol1"
      chapter="04-the-schrodinger-equation"
      figure-number="02"
      figure-title="The Stationary State — A Complex Clock"
      figure-slug="stationary-state-complex-clock"
      figure-type="three-panel-comparison"
      priority="Important"
      author="Humanitarians AI Incorporated"
      date-generated="2026-06-06"
      source-file="pantry/04-the-schrodinger-equation-cajal.md"/>
  </metadata>

  <defs>
    <marker id="arrow-ch4-02" markerWidth="8" markerHeight="6" refX="7" refY="3" orient="auto">
      <polygon points="0 0, 8 3, 0 6" fill="#2a1a0e"/>
    </marker>
    <clipPath id="clip-p1-ch4-02"><rect x="60" y="30" width="580" height="90"/></clipPath>
    <clipPath id="clip-p2-ch4-02"><rect x="60" y="135" width="580" height="90"/></clipPath>
    <clipPath id="clip-p3-ch4-02"><rect x="60" y="240" width="580" height="100"/></clipPath>
  </defs>

  <!-- Figure title -->
  <text x="350" y="17" font-family="'EB Garamond','Garamond',Georgia,serif" font-size="14" font-weight="400" fill="#2a1a0e" text-anchor="middle">Stationary state Ψ_n(x,t): a rotating complex clock</text>

  <!-- ===== PANEL 1: Re ψ ===== -->
  <rect x="60" y="30" width="580" height="90" fill="#F5F5F5" stroke="#D4D4D4" stroke-width="0.75"/>
  <!-- Panel label -->
  <text x="68" y="44" font-family="'Inter',-apple-system,'Helvetica Neue',sans-serif" font-size="11" fill="#0072B2" font-weight="600">Re ψ</text>
  <!-- Zero axis line -->
  <line x1="60" y1="75" x2="640" y2="75" stroke="#D4D4D4" stroke-width="0.75" stroke-dasharray="3 2"/>

  <!-- Re ψ at t=0: peak amplitude (cos=1 → full wave) -->
  <polyline points="60.0,75.2 65.8,75.3 71.6,75.5 77.4,75.6 83.2,75.8 89.0,76.0 94.8,76.2 100.6,76.3 106.4,76.3 112.2,76.3 118.0,76.1 123.8,75.8 129.6,75.4 135.4,74.7 141.2,73.9 147.0,73.0 152.8,71.9 158.6,70.7 164.4,69.5 170.2,68.4 176.0,67.4 181.8,66.7 187.6,66.4 193.4,66.6 199.2,67.3 205.0,68.6 210.8,70.6 216.6,73.3 222.4,76.5 228.2,80.2 234.0,84.1 239.8,88.2 245.6,92.1 251.4,95.7 257.2,98.6 263.0,100.5 268.8,101.3 274.6,100.9 280.4,99.0 286.2,95.7 292.0,91.1 297.8,85.4 303.6,78.7 309.4,71.5 315.2,64.0 321.0,56.8 326.8,50.2 332.6,44.6 338.4,40.3 344.2,37.7 350.0,36.8 355.8,37.7 361.6,40.3 367.4,44.6 373.2,50.2 379.0,56.8 384.8,64.0 390.6,71.5 396.4,78.7 402.2,85.4 408.0,91.1 413.8,95.7 419.6,99.0 425.4,100.9 431.2,101.3 437.0,100.5 442.8,98.6 448.6,95.7 454.4,92.1 460.2,88.2 466.0,84.1 471.8,80.2 477.6,76.5 483.4,73.3 489.2,70.6 495.0,68.6 500.8,67.3 506.6,66.6 512.4,66.4 518.2,66.7 524.0,67.4 529.8,68.4 535.6,69.5 541.4,70.7 547.2,71.9 553.0,73.0 558.8,73.9 564.6,74.7 570.4,75.4 576.2,75.8 582.0,76.1 587.8,76.3 593.6,76.3 599.4,76.3 605.2,76.2 611.0,76.0 616.8,75.8 622.6,75.6 628.4,75.5 634.2,75.3 640.0,75.2"
    fill="none" stroke="#0072B2" stroke-width="1.8" clip-path="url(#clip-p1-ch4-02)"/>

  <!-- Re ψ at t=T/4: zero (cos=0 → flat zero line) -->
  <line x1="60" y1="75" x2="640" y2="75" stroke="#0072B2" stroke-width="1" stroke-dasharray="5 3" opacity="0.4" clip-path="url(#clip-p1-ch4-02)"/>

  <!-- Re ψ at t=T/2: negative peak (cos=-1 → inverted) -->
  <polyline points="60.0,74.8 65.8,74.7 71.6,74.5 77.4,74.4 83.2,74.2 89.0,74.0 94.8,73.8 100.6,73.7 106.4,73.7 112.2,73.7 118.0,73.9 123.8,74.2 129.6,74.6 135.4,75.3 141.2,76.1 147.0,77.0 152.8,78.1 158.6,79.3 164.4,80.5 170.2,81.6 176.0,82.6 181.8,83.3 187.6,83.6 193.4,83.4 199.2,82.7 205.0,81.4 210.8,79.4 216.6,76.7 222.4,73.5 228.2,69.8 234.0,65.9 239.8,61.8 245.6,57.9 251.4,54.3 257.2,51.4 263.0,49.5 268.8,48.7 274.6,49.1 280.4,51.0 286.2,54.3 292.0,58.9 297.8,64.6 303.6,71.3 309.4,78.5 315.2,86.0 321.0,93.2 326.8,99.8 332.6,105.4 338.4,109.7 344.2,112.3 350.0,113.2 355.8,112.3 361.6,109.7 367.4,105.4 373.2,99.8 379.0,93.2 384.8,86.0 390.6,78.5 396.4,71.3 402.2,64.6 408.0,58.9 413.8,54.3 419.6,51.0 425.4,49.1 431.2,48.7 437.0,49.5 442.8,51.4 448.6,54.3 454.4,57.9 460.2,61.8 466.0,65.9 471.8,69.8 477.6,73.5 483.4,76.7 489.2,79.4 495.0,81.4 500.8,82.7 506.6,83.4 512.4,83.6 518.2,83.3 524.0,82.6 529.8,81.6 535.6,80.5 541.4,79.3 547.2,78.1 553.0,77.0 558.8,76.1 564.6,75.3 570.4,74.6 576.2,74.2 582.0,73.9 587.8,73.7 593.6,73.7 599.4,73.7 605.2,73.8 611.0,74.0 616.8,74.2 622.6,74.4 628.4,74.5 634.2,74.7 640.0,74.8"
    fill="none" stroke="#0072B2" stroke-width="1" stroke-dasharray="2 2" opacity="0.55" clip-path="url(#clip-p1-ch4-02)"/>

  <!-- Phase clock markers for panel 1 (right margin) -->
  <circle cx="658" cy="43" r="4" fill="#0072B2"/>
  <circle cx="658" cy="58" r="3" fill="#0072B2" opacity="0.4"/>
  <circle cx="658" cy="73" r="2.5" fill="#0072B2" opacity="0.25"/>
  <text x="668" y="46" font-family="'Inter',-apple-system,'Helvetica Neue',sans-serif" font-size="9" fill="#545454">t<tspan dy="0.3em" font-size="0.75em">0</tspan><tspan dy="-0.3em"></tspan></text>
  <text x="668" y="61" font-family="'Inter',-apple-system,'Helvetica Neue',sans-serif" font-size="9" fill="#545454">T/4</text>
  <text x="668" y="76" font-family="'Inter',-apple-system,'Helvetica Neue',sans-serif" font-size="9" fill="#545454">T/2</text>

  <!-- ===== PANEL 2: Im ψ ===== -->
  <rect x="60" y="135" width="580" height="90" fill="#F5F5F5" stroke="#D4D4D4" stroke-width="0.75"/>
  <text x="68" y="149" font-family="'Inter',-apple-system,'Helvetica Neue',sans-serif" font-size="11" fill="#C8860E" font-weight="600">Im ψ</text>
  <!-- Zero axis -->
  <line x1="60" y1="180" x2="640" y2="180" stroke="#D4D4D4" stroke-width="0.75" stroke-dasharray="3 2"/>

  <!-- Im ψ at t=0: sin wave (quarter phase ahead of Re at t=0) -->
  <polyline points="60.0,179.6 65.8,179.6 71.6,179.6 77.4,179.7 83.2,179.8 89.0,180.0 94.8,180.2 100.6,180.5 106.4,180.9 112.2,181.4 118.0,181.8 123.8,182.3 129.6,182.8 135.4,183.2 141.2,183.6 147.0,183.7 152.8,183.6 158.6,183.2 164.4,182.6 170.2,181.5 176.0,180.1 181.8,178.4 187.6,176.3 193.4,174.1 199.2,171.7 205.0,169.3 210.8,167.2 216.6,165.3 222.4,164.1 228.2,163.5 234.0,163.8 239.8,165.0 245.6,167.3 251.4,170.6 257.2,174.8 263.0,179.8 268.8,185.4 274.6,191.3 280.4,197.2 286.2,202.7 292.0,207.6 297.8,211.4 303.6,213.9 309.4,214.8 315.2,214.1 321.0,211.7 326.8,207.7 332.6,202.2 338.4,195.5 344.2,188.0 350.0,180.0 355.8,172.0 361.6,164.5 367.4,157.8 373.2,152.3 379.0,148.3 384.8,145.9 390.6,145.2 396.4,146.1 402.2,148.6 408.0,152.4 413.8,157.3 419.6,162.8 425.4,168.7 431.2,174.6 437.0,180.2 442.8,185.2 448.6,189.4 454.4,192.7 460.2,195.0 466.0,196.2 471.8,196.5 477.6,195.9 483.4,194.7 489.2,192.8 495.0,190.7 500.8,188.3 506.6,185.9 512.4,183.7 518.2,181.6 524.0,179.9 529.8,178.5 535.6,177.4 541.4,176.8 547.2,176.4 553.0,176.3 558.8,176.4 564.6,176.8 570.4,177.2 576.2,177.7 582.0,178.2 587.8,178.6 593.6,179.1 599.4,179.5 605.2,179.8 611.0,180.0 616.8,180.2 622.6,180.3 628.4,180.4 634.2,180.4 640.0,180.4"
    fill="none" stroke="#C8860E" stroke-width="1.8" clip-path="url(#clip-p2-ch4-02)"/>

  <!-- Im ψ at t=T/4: full peak (cos=1) — same as Re at t=0 but shifted, shown lighter -->
  <polyline points="60.0,180.2 65.8,180.3 71.6,180.5 77.4,180.6 83.2,180.8 89.0,181.0 94.8,181.2 100.6,181.3 106.4,181.3 112.2,181.3 118.0,181.1 123.8,180.8 129.6,180.4 135.4,179.7 141.2,178.9 147.0,178.0 152.8,176.9 158.6,175.7 164.4,174.5 170.2,173.4 176.0,172.4 181.8,171.7 187.6,171.4 193.4,171.6 199.2,172.3 205.0,173.6 210.8,175.6 216.6,178.3 222.4,181.5 228.2,185.2 234.0,189.1 239.8,193.2 245.6,197.1 251.4,200.7 257.2,203.6 263.0,205.5 268.8,206.3 274.6,205.9 280.4,204.0 286.2,200.7 292.0,196.1 297.8,190.4 303.6,183.7 309.4,176.5 315.2,169.0 321.0,161.8 326.8,155.2 332.6,149.6 338.4,145.3 344.2,142.7 350.0,141.8 355.8,142.7 361.6,145.3 367.4,149.6 373.2,155.2 379.0,161.8 384.8,169.0 390.6,176.5 396.4,183.7 402.2,190.4 408.0,196.1 413.8,200.7 419.6,204.0 425.4,205.9 431.2,206.3 437.0,205.5 442.8,203.6 448.6,200.7 454.4,197.1 460.2,193.2 466.0,189.1 471.8,185.2 477.6,181.5 483.4,178.3 489.2,175.6 495.0,173.6 500.8,172.3 506.6,171.6 512.4,171.4 518.2,171.7 524.0,172.4 529.8,173.4 535.6,174.5 541.4,175.7 547.2,176.9 553.0,178.0 558.8,178.9 564.6,179.7 570.4,180.4 576.2,180.8 582.0,181.1 587.8,181.3 593.6,181.3 599.4,181.3 605.2,181.2 611.0,181.0 616.8,180.8 622.6,180.6 628.4,180.5 634.2,180.3 640.0,180.2"
    fill="none" stroke="#C8860E" stroke-width="1" opacity="0.45" clip-path="url(#clip-p2-ch4-02)"/>

  <!-- Im ψ at t=T/2: negative sin wave (quarter cycle more) -->
  <polyline points="60.0,180.4 65.8,180.4 71.6,180.4 77.4,180.3 83.2,180.2 89.0,180.0 94.8,179.8 100.6,179.5 106.4,179.1 112.2,178.6 118.0,178.2 123.8,177.7 129.6,177.2 135.4,176.8 141.2,176.4 147.0,176.3 152.8,176.4 158.6,176.8 164.4,177.4 170.2,178.5 176.0,179.9 181.8,181.6 187.6,183.7 193.4,185.9 199.2,188.3 205.0,190.7 210.8,192.8 216.6,194.7 222.4,195.9 228.2,196.5 234.0,196.2 239.8,195.0 245.6,192.7 251.4,189.4 257.2,185.2 263.0,180.2 268.8,174.6 274.6,168.7 280.4,162.8 286.2,157.3 292.0,152.4 297.8,148.6 303.6,146.1 309.4,145.2 315.2,145.9 321.0,148.3 326.8,152.3 332.6,157.8 338.4,164.5 344.2,172.0 350.0,180.0 355.8,188.0 361.6,195.5 367.4,202.2 373.2,207.7 379.0,211.7 384.8,214.1 390.6,214.8 396.4,213.9 402.2,211.4 408.0,207.6 413.8,202.7 419.6,197.2 425.4,191.3 431.2,185.4 437.0,179.8 442.8,174.8 448.6,170.6 454.4,167.3 460.2,165.0 466.0,163.8 471.8,163.5 477.6,164.1 483.4,165.3 489.2,167.2 495.0,169.3 500.8,171.7 506.6,174.1 512.4,176.3 518.2,178.4 524.0,180.1 529.8,181.5 535.6,182.6 541.4,183.2 547.2,183.6 553.0,183.7 558.8,183.6 564.6,183.2 570.4,182.8 576.2,182.3 582.0,181.8 587.8,181.4 593.6,180.9 599.4,180.5 605.2,180.2 611.0,180.0 616.8,179.8 622.6,179.7 628.4,179.6 634.2,179.6 640.0,179.6"
    fill="none" stroke="#C8860E" stroke-width="1" stroke-dasharray="2 2" opacity="0.3" clip-path="url(#clip-p2-ch4-02)"/>

  <!-- Phase clock markers for panel 2 -->
  <circle cx="658" cy="148" r="4" fill="#C8860E"/>
  <circle cx="658" cy="163" r="3" fill="#C8860E" opacity="0.4"/>
  <circle cx="658" cy="178" r="2.5" fill="#C8860E" opacity="0.25"/>

  <!-- ===== PANEL 3: |ψ|² ===== -->
  <rect x="60" y="240" width="580" height="100" fill="#F5F5F5" stroke="#D4D4D4" stroke-width="0.75"/>
  <text x="68" y="254" font-family="'Inter',-apple-system,'Helvetica Neue',sans-serif" font-size="11" fill="#C8102E" font-weight="600">|ψ|<tspan dy="-0.5em" font-size="0.75em">2</tspan><tspan dy="0.5em"></tspan></text>
  <!-- Label: stationary -->
  <text x="560" y="254" font-family="'Inter',-apple-system,'Helvetica Neue',sans-serif" font-size="10" fill="#545454" text-anchor="end" font-style="italic">frozen — time-independent</text>

  <!-- |ψ|² filled Gaussian (same at all times) -->
  <polygon points="60.0,340.0 65.8,340.0 71.6,340.0 77.4,340.0 83.2,340.0 89.0,339.9 94.8,339.9 100.6,339.9 106.4,339.9 112.2,339.8 118.0,339.7 123.8,339.6 129.6,339.5 135.4,339.4 141.2,339.2 147.0,339.0 152.8,338.7 158.6,338.3 164.4,337.9 170.2,337.3 176.0,336.7 181.8,335.9 187.6,334.9 193.4,333.8 199.2,332.5 205.0,331.0 210.8,329.3 216.6,327.3 222.4,325.1 228.2,322.6 234.0,319.9 239.8,316.8 245.6,313.5 251.4,310.0 257.2,306.2 263.0,302.2 268.8,298.0 274.6,293.7 280.4,289.4 286.2,285.0 292.0,280.7 297.8,276.5 303.6,272.5 309.4,268.7 315.2,265.3 321.0,262.3 326.8,259.8 332.6,257.7 338.4,256.2 344.2,255.3 350.0,255.0 355.8,255.3 361.6,256.2 367.4,257.7 373.2,259.8 379.0,262.3 384.8,265.3 390.6,268.7 396.4,272.5 402.2,276.5 408.0,280.7 413.8,285.0 419.6,289.4 425.4,293.7 431.2,298.0 437.0,302.2 442.8,306.2 448.6,310.0 454.4,313.5 460.2,316.8 466.0,319.9 471.8,322.6 477.6,325.1 483.4,327.3 489.2,329.3 495.0,331.0 500.8,332.5 506.6,333.8 512.4,334.9 518.2,335.9 524.0,336.7 529.8,337.3 535.6,337.9 541.4,338.3 547.2,338.7 553.0,339.0 558.8,339.2 564.6,339.4 570.4,339.5 576.2,339.6 582.0,339.7 587.8,339.8 593.6,339.9 599.4,339.9 605.2,339.9 611.0,339.9 616.8,340.0 622.6,340.0 628.4,340.0 634.2,340.0 640.0,340.0
    640.0,340.0 60.0,340.0"
    fill="#C8102E" fill-opacity="0.20" stroke="none" clip-path="url(#clip-p3-ch4-02)"/>
  <polyline points="60.0,340.0 65.8,340.0 71.6,340.0 77.4,340.0 83.2,340.0 89.0,339.9 94.8,339.9 100.6,339.9 106.4,339.9 112.2,339.8 118.0,339.7 123.8,339.6 129.6,339.5 135.4,339.4 141.2,339.2 147.0,339.0 152.8,338.7 158.6,338.3 164.4,337.9 170.2,337.3 176.0,336.7 181.8,335.9 187.6,334.9 193.4,333.8 199.2,332.5 205.0,331.0 210.8,329.3 216.6,327.3 222.4,325.1 228.2,322.6 234.0,319.9 239.8,316.8 245.6,313.5 251.4,310.0 257.2,306.2 263.0,302.2 268.8,298.0 274.6,293.7 280.4,289.4 286.2,285.0 292.0,280.7 297.8,276.5 303.6,272.5 309.4,268.7 315.2,265.3 321.0,262.3 326.8,259.8 332.6,257.7 338.4,256.2 344.2,255.3 350.0,255.0 355.8,255.3 361.6,256.2 367.4,257.7 373.2,259.8 379.0,262.3 384.8,265.3 390.6,268.7 396.4,272.5 402.2,276.5 408.0,280.7 413.8,285.0 419.6,289.4 425.4,293.7 431.2,298.0 437.0,302.2 442.8,306.2 448.6,310.0 454.4,313.5 460.2,316.8 466.0,319.9 471.8,322.6 477.6,325.1 483.4,327.3 489.2,329.3 495.0,331.0 500.8,332.5 506.6,333.8 512.4,334.9 518.2,335.9 524.0,336.7 529.8,337.3 535.6,337.9 541.4,338.3 547.2,338.7 553.0,339.0 558.8,339.2 564.6,339.4 570.4,339.5 576.2,339.6 582.0,339.7 587.8,339.8 593.6,339.9 599.4,339.9 605.2,339.9 611.0,339.9 616.8,340.0 622.6,340.0 628.4,340.0 634.2,340.0 640.0,340.0"
    fill="none" stroke="#C8102E" stroke-width="2" clip-path="url(#clip-p3-ch4-02)"/>

  <!-- Vertical reference line through all panels at x=350 -->
  <line x1="350" y1="30" x2="350" y2="340" stroke="#545454" stroke-width="0.75" stroke-dasharray="4 3"/>

  <!-- Shared x-axis label at bottom -->
  <text x="350" y="360" font-family="'EB Garamond','Garamond',Georgia,serif" font-size="12" fill="#2a1a0e" text-anchor="middle">Position x</text>
  <!-- x=0 and x=L labels -->
  <text x="63" y="360" font-family="'JetBrains Mono','Fira Code','Courier New',monospace" font-size="11" fill="#545454">0</text>
  <text x="637" y="360" font-family="'JetBrains Mono','Fira Code','Courier New',monospace" font-size="11" fill="#545454" text-anchor="end">L</text>

  <!-- Panel separator lines -->
  <line x1="60" y1="130" x2="640" y2="130" stroke="#FFFFFF" stroke-width="3"/>
  <line x1="60" y1="235" x2="640" y2="235" stroke="#FFFFFF" stroke-width="3"/>

  <!-- Key observation label -->
  <text x="350" y="390" font-family="'Inter',-apple-system,'Helvetica Neue',sans-serif" font-size="11" fill="#545454" text-anchor="middle">Re ψ and Im ψ rotate; |ψ|<tspan dy="-0.5em" font-size="0.75em">2</tspan><tspan dy="0.5em"></tspan> stays frozen — the probability density is stationary</text>
</svg>
