<?xml version="1.0" encoding="utf-8" standalone="no"?>
<!DOCTYPE svg PUBLIC "-//W3C//DTD SVG 1.1//EN"
  "http://www.w3.org/Graphics/SVG/1.1/DTD/svg11.dtd">
<svg xmlns:xlink="http://www.w3.org/1999/xlink" width="475.2pt" height="302.4pt" viewBox="0 0 475.2 302.4" xmlns="http://www.w3.org/2000/svg" version="1.1">
 <metadata>
  <rdf:RDF xmlns:dc="http://purl.org/dc/elements/1.1/" xmlns:cc="http://creativecommons.org/ns#" xmlns:rdf="http://www.w3.org/1999/02/22-rdf-syntax-ns#">
   <cc:Work>
    <dc:type rdf:resource="http://purl.org/dc/dcmitype/StillImage"/>
    <dc:date>2026-06-04T06:14:07.137455</dc:date>
    <dc:format>image/svg+xml</dc:format>
    <dc:creator>
     <cc:Agent>
      <dc:title>Matplotlib v3.10.8, https://matplotlib.org/</dc:title>
     </cc:Agent>
    </dc:creator>
   </cc:Work>
  </rdf:RDF>
 </metadata>
 <defs>
  <style type="text/css">*{stroke-linejoin: round; stroke-linecap: butt}</style>
 </defs>
 <g id="figure_1">
  <g id="patch_1">
   <path d="M 0 302.4 
L 475.2 302.4 
L 475.2 0 
L 0 0 
z
" style="fill: #ffffff"/>
  </g>
  <g id="axes_1">
   <g id="patch_2">
    <path d="M 56.684 257.92 
L 463.32 257.92 
L 463.32 32.28 
L 56.684 32.28 
z
" style="fill: #ffffff"/>
   </g>
   <g id="matplotlib.axis_1">
    <g id="xtick_1">
     <g id="line2d_1">
      <defs>
       <path id="md32895f0f2" d="M 0 0 
L 0 3.5 
" style="stroke: #000000; stroke-width: 0.8"/>
      </defs>
      <g>
       <use xlink:href="#md32895f0f2" x="75.167455" y="257.92" style="stroke: #000000; stroke-width: 0.8"/>
      </g>
     </g>
     <g id="text_1">
      <!-- 0 -->
      <g transform="translate(71.66808 273.278281) scale(0.11 -0.11)">
       <defs>
        <path id="DejaVuSans-30" d="M 2034 4250 
Q 1547 4250 1301 3770 
Q 1056 3291 1056 2328 
Q 1056 1369 1301 889 
Q 1547 409 2034 409 
Q 2525 409 2770 889 
Q 3016 1369 3016 2328 
Q 3016 3291 2770 3770 
Q 2525 4250 2034 4250 
z
M 2034 4750 
Q 2819 4750 3233 4129 
Q 3647 3509 3647 2328 
Q 3647 1150 3233 529 
Q 2819 -91 2034 -91 
Q 1250 -91 836 529 
Q 422 1150 422 2328 
Q 422 3509 836 4129 
Q 1250 4750 2034 4750 
z
" transform="scale(0.015625)"/>
       </defs>
       <use xlink:href="#DejaVuSans-30"/>
      </g>
     </g>
    </g>
    <g id="xtick_2">
     <g id="line2d_2">
      <g>
       <use xlink:href="#md32895f0f2" x="167.584727" y="257.92" style="stroke: #000000; stroke-width: 0.8"/>
      </g>
     </g>
     <g id="text_2">
      <!-- L/4 -->
      <g transform="translate(159.168009 273.278281) scale(0.11 -0.11)">
       <defs>
        <path id="DejaVuSans-4c" d="M 628 4666 
L 1259 4666 
L 1259 531 
L 3531 531 
L 3531 0 
L 628 0 
L 628 4666 
z
" transform="scale(0.015625)"/>
        <path id="DejaVuSans-2f" d="M 1625 4666 
L 2156 4666 
L 531 -594 
L 0 -594 
L 1625 4666 
z
" transform="scale(0.015625)"/>
        <path id="DejaVuSans-34" d="M 2419 4116 
L 825 1625 
L 2419 1625 
L 2419 4116 
z
M 2253 4666 
L 3047 4666 
L 3047 1625 
L 3713 1625 
L 3713 1100 
L 3047 1100 
L 3047 0 
L 2419 0 
L 2419 1100 
L 313 1100 
L 313 1709 
L 2253 4666 
z
" transform="scale(0.015625)"/>
       </defs>
       <use xlink:href="#DejaVuSans-4c"/>
       <use xlink:href="#DejaVuSans-2f" transform="translate(55.712891 0)"/>
       <use xlink:href="#DejaVuSans-34" transform="translate(89.404297 0)"/>
      </g>
     </g>
    </g>
    <g id="xtick_3">
     <g id="line2d_3">
      <g>
       <use xlink:href="#md32895f0f2" x="260.002" y="257.92" style="stroke: #000000; stroke-width: 0.8"/>
      </g>
     </g>
     <g id="text_3">
      <!-- L/2 -->
      <g transform="translate(251.585281 273.278281) scale(0.11 -0.11)">
       <defs>
        <path id="DejaVuSans-32" d="M 1228 531 
L 3431 531 
L 3431 0 
L 469 0 
L 469 531 
Q 828 903 1448 1529 
Q 2069 2156 2228 2338 
Q 2531 2678 2651 2914 
Q 2772 3150 2772 3378 
Q 2772 3750 2511 3984 
Q 2250 4219 1831 4219 
Q 1534 4219 1204 4116 
Q 875 4013 500 3803 
L 500 4441 
Q 881 4594 1212 4672 
Q 1544 4750 1819 4750 
Q 2544 4750 2975 4387 
Q 3406 4025 3406 3419 
Q 3406 3131 3298 2873 
Q 3191 2616 2906 2266 
Q 2828 2175 2409 1742 
Q 1991 1309 1228 531 
z
" transform="scale(0.015625)"/>
       </defs>
       <use xlink:href="#DejaVuSans-4c"/>
       <use xlink:href="#DejaVuSans-2f" transform="translate(55.712891 0)"/>
       <use xlink:href="#DejaVuSans-32" transform="translate(89.404297 0)"/>
      </g>
     </g>
    </g>
    <g id="xtick_4">
     <g id="line2d_4">
      <g>
       <use xlink:href="#md32895f0f2" x="352.419273" y="257.92" style="stroke: #000000; stroke-width: 0.8"/>
      </g>
     </g>
     <g id="text_4">
      <!-- 3L/4 -->
      <g transform="translate(340.503179 273.278281) scale(0.11 -0.11)">
       <defs>
        <path id="DejaVuSans-33" d="M 2597 2516 
Q 3050 2419 3304 2112 
Q 3559 1806 3559 1356 
Q 3559 666 3084 287 
Q 2609 -91 1734 -91 
Q 1441 -91 1130 -33 
Q 819 25 488 141 
L 488 750 
Q 750 597 1062 519 
Q 1375 441 1716 441 
Q 2309 441 2620 675 
Q 2931 909 2931 1356 
Q 2931 1769 2642 2001 
Q 2353 2234 1838 2234 
L 1294 2234 
L 1294 2753 
L 1863 2753 
Q 2328 2753 2575 2939 
Q 2822 3125 2822 3475 
Q 2822 3834 2567 4026 
Q 2313 4219 1838 4219 
Q 1578 4219 1281 4162 
Q 984 4106 628 3988 
L 628 4550 
Q 988 4650 1302 4700 
Q 1616 4750 1894 4750 
Q 2613 4750 3031 4423 
Q 3450 4097 3450 3541 
Q 3450 3153 3228 2886 
Q 3006 2619 2597 2516 
z
" transform="scale(0.015625)"/>
       </defs>
       <use xlink:href="#DejaVuSans-33"/>
       <use xlink:href="#DejaVuSans-4c" transform="translate(63.623047 0)"/>
       <use xlink:href="#DejaVuSans-2f" transform="translate(119.335938 0)"/>
       <use xlink:href="#DejaVuSans-34" transform="translate(153.027344 0)"/>
      </g>
     </g>
    </g>
    <g id="xtick_5">
     <g id="line2d_5">
      <g>
       <use xlink:href="#md32895f0f2" x="444.836545" y="257.92" style="stroke: #000000; stroke-width: 0.8"/>
      </g>
     </g>
     <g id="text_5">
      <!-- L -->
      <g transform="translate(441.772014 273.278281) scale(0.11 -0.11)">
       <use xlink:href="#DejaVuSans-4c"/>
      </g>
     </g>
    </g>
    <g id="text_6">
     <!-- position  x / L -->
     <g transform="translate(223.052312 287.924219) scale(0.11 -0.11)">
      <defs>
       <path id="DejaVuSans-70" d="M 1159 525 
L 1159 -1331 
L 581 -1331 
L 581 3500 
L 1159 3500 
L 1159 2969 
Q 1341 3281 1617 3432 
Q 1894 3584 2278 3584 
Q 2916 3584 3314 3078 
Q 3713 2572 3713 1747 
Q 3713 922 3314 415 
Q 2916 -91 2278 -91 
Q 1894 -91 1617 61 
Q 1341 213 1159 525 
z
M 3116 1747 
Q 3116 2381 2855 2742 
Q 2594 3103 2138 3103 
Q 1681 3103 1420 2742 
Q 1159 2381 1159 1747 
Q 1159 1113 1420 752 
Q 1681 391 2138 391 
Q 2594 391 2855 752 
Q 3116 1113 3116 1747 
z
" transform="scale(0.015625)"/>
       <path id="DejaVuSans-6f" d="M 1959 3097 
Q 1497 3097 1228 2736 
Q 959 2375 959 1747 
Q 959 1119 1226 758 
Q 1494 397 1959 397 
Q 2419 397 2687 759 
Q 2956 1122 2956 1747 
Q 2956 2369 2687 2733 
Q 2419 3097 1959 3097 
z
M 1959 3584 
Q 2709 3584 3137 3096 
Q 3566 2609 3566 1747 
Q 3566 888 3137 398 
Q 2709 -91 1959 -91 
Q 1206 -91 779 398 
Q 353 888 353 1747 
Q 353 2609 779 3096 
Q 1206 3584 1959 3584 
z
" transform="scale(0.015625)"/>
       <path id="DejaVuSans-73" d="M 2834 3397 
L 2834 2853 
Q 2591 2978 2328 3040 
Q 2066 3103 1784 3103 
Q 1356 3103 1142 2972 
Q 928 2841 928 2578 
Q 928 2378 1081 2264 
Q 1234 2150 1697 2047 
L 1894 2003 
Q 2506 1872 2764 1633 
Q 3022 1394 3022 966 
Q 3022 478 2636 193 
Q 2250 -91 1575 -91 
Q 1294 -91 989 -36 
Q 684 19 347 128 
L 347 722 
Q 666 556 975 473 
Q 1284 391 1588 391 
Q 1994 391 2212 530 
Q 2431 669 2431 922 
Q 2431 1156 2273 1281 
Q 2116 1406 1581 1522 
L 1381 1569 
Q 847 1681 609 1914 
Q 372 2147 372 2553 
Q 372 3047 722 3315 
Q 1072 3584 1716 3584 
Q 2034 3584 2315 3537 
Q 2597 3491 2834 3397 
z
" transform="scale(0.015625)"/>
       <path id="DejaVuSans-69" d="M 603 3500 
L 1178 3500 
L 1178 0 
L 603 0 
L 603 3500 
z
M 603 4863 
L 1178 4863 
L 1178 4134 
L 603 4134 
L 603 4863 
z
" transform="scale(0.015625)"/>
       <path id="DejaVuSans-74" d="M 1172 4494 
L 1172 3500 
L 2356 3500 
L 2356 3053 
L 1172 3053 
L 1172 1153 
Q 1172 725 1289 603 
Q 1406 481 1766 481 
L 2356 481 
L 2356 0 
L 1766 0 
Q 1100 0 847 248 
Q 594 497 594 1153 
L 594 3053 
L 172 3053 
L 172 3500 
L 594 3500 
L 594 4494 
L 1172 4494 
z
" transform="scale(0.015625)"/>
       <path id="DejaVuSans-6e" d="M 3513 2113 
L 3513 0 
L 2938 0 
L 2938 2094 
Q 2938 2591 2744 2837 
Q 2550 3084 2163 3084 
Q 1697 3084 1428 2787 
Q 1159 2491 1159 1978 
L 1159 0 
L 581 0 
L 581 3500 
L 1159 3500 
L 1159 2956 
Q 1366 3272 1645 3428 
Q 1925 3584 2291 3584 
Q 2894 3584 3203 3211 
Q 3513 2838 3513 2113 
z
" transform="scale(0.015625)"/>
       <path id="DejaVuSans-20" transform="scale(0.015625)"/>
       <path id="DejaVuSans-78" d="M 3513 3500 
L 2247 1797 
L 3578 0 
L 2900 0 
L 1881 1375 
L 863 0 
L 184 0 
L 1544 1831 
L 300 3500 
L 978 3500 
L 1906 2253 
L 2834 3500 
L 3513 3500 
z
" transform="scale(0.015625)"/>
      </defs>
      <use xlink:href="#DejaVuSans-70"/>
      <use xlink:href="#DejaVuSans-6f" transform="translate(63.476562 0)"/>
      <use xlink:href="#DejaVuSans-73" transform="translate(124.658203 0)"/>
      <use xlink:href="#DejaVuSans-69" transform="translate(176.757812 0)"/>
      <use xlink:href="#DejaVuSans-74" transform="translate(204.541016 0)"/>
      <use xlink:href="#DejaVuSans-69" transform="translate(243.75 0)"/>
      <use xlink:href="#DejaVuSans-6f" transform="translate(271.533203 0)"/>
      <use xlink:href="#DejaVuSans-6e" transform="translate(332.714844 0)"/>
      <use xlink:href="#DejaVuSans-20" transform="translate(396.09375 0)"/>
      <use xlink:href="#DejaVuSans-20" transform="translate(427.880859 0)"/>
      <use xlink:href="#DejaVuSans-78" transform="translate(459.667969 0)"/>
      <use xlink:href="#DejaVuSans-20" transform="translate(518.847656 0)"/>
      <use xlink:href="#DejaVuSans-2f" transform="translate(550.634766 0)"/>
      <use xlink:href="#DejaVuSans-20" transform="translate(584.326172 0)"/>
      <use xlink:href="#DejaVuSans-4c" transform="translate(616.113281 0)"/>
     </g>
    </g>
   </g>
   <g id="matplotlib.axis_2">
    <g id="ytick_1">
     <g id="line2d_6">
      <defs>
       <path id="me50d9c150b" d="M 0 0 
L -3.5 0 
" style="stroke: #000000; stroke-width: 0.8"/>
      </defs>
      <g>
       <use xlink:href="#me50d9c150b" x="56.684" y="257.92" style="stroke: #000000; stroke-width: 0.8"/>
      </g>
     </g>
     <g id="text_7">
      <!-- 0.0 -->
      <g transform="translate(32.190563 262.099141) scale(0.11 -0.11)">
       <defs>
        <path id="DejaVuSans-2e" d="M 684 794 
L 1344 794 
L 1344 0 
L 684 0 
L 684 794 
z
" transform="scale(0.015625)"/>
       </defs>
       <use xlink:href="#DejaVuSans-30"/>
       <use xlink:href="#DejaVuSans-2e" transform="translate(63.623047 0)"/>
       <use xlink:href="#DejaVuSans-30" transform="translate(95.410156 0)"/>
      </g>
     </g>
    </g>
    <g id="ytick_2">
     <g id="line2d_7">
      <g>
       <use xlink:href="#me50d9c150b" x="56.684" y="223.239007" style="stroke: #000000; stroke-width: 0.8"/>
      </g>
     </g>
     <g id="text_8">
      <!-- 0.5 -->
      <g transform="translate(32.190563 227.418148) scale(0.11 -0.11)">
       <defs>
        <path id="DejaVuSans-35" d="M 691 4666 
L 3169 4666 
L 3169 4134 
L 1269 4134 
L 1269 2991 
Q 1406 3038 1543 3061 
Q 1681 3084 1819 3084 
Q 2600 3084 3056 2656 
Q 3513 2228 3513 1497 
Q 3513 744 3044 326 
Q 2575 -91 1722 -91 
Q 1428 -91 1123 -41 
Q 819 9 494 109 
L 494 744 
Q 775 591 1075 516 
Q 1375 441 1709 441 
Q 2250 441 2565 725 
Q 2881 1009 2881 1497 
Q 2881 1984 2565 2268 
Q 2250 2553 1709 2553 
Q 1456 2553 1204 2497 
Q 953 2441 691 2322 
L 691 4666 
z
" transform="scale(0.015625)"/>
       </defs>
       <use xlink:href="#DejaVuSans-30"/>
       <use xlink:href="#DejaVuSans-2e" transform="translate(63.623047 0)"/>
       <use xlink:href="#DejaVuSans-35" transform="translate(95.410156 0)"/>
      </g>
     </g>
    </g>
    <g id="ytick_3">
     <g id="line2d_8">
      <g>
       <use xlink:href="#me50d9c150b" x="56.684" y="188.558015" style="stroke: #000000; stroke-width: 0.8"/>
      </g>
     </g>
     <g id="text_9">
      <!-- 1.0 -->
      <g transform="translate(32.190563 192.737155) scale(0.11 -0.11)">
       <defs>
        <path id="DejaVuSans-31" d="M 794 531 
L 1825 531 
L 1825 4091 
L 703 3866 
L 703 4441 
L 1819 4666 
L 2450 4666 
L 2450 531 
L 3481 531 
L 3481 0 
L 794 0 
L 794 531 
z
" transform="scale(0.015625)"/>
       </defs>
       <use xlink:href="#DejaVuSans-31"/>
       <use xlink:href="#DejaVuSans-2e" transform="translate(63.623047 0)"/>
       <use xlink:href="#DejaVuSans-30" transform="translate(95.410156 0)"/>
      </g>
     </g>
    </g>
    <g id="ytick_4">
     <g id="line2d_9">
      <g>
       <use xlink:href="#me50d9c150b" x="56.684" y="153.877022" style="stroke: #000000; stroke-width: 0.8"/>
      </g>
     </g>
     <g id="text_10">
      <!-- 1.5 -->
      <g transform="translate(32.190563 158.056163) scale(0.11 -0.11)">
       <use xlink:href="#DejaVuSans-31"/>
       <use xlink:href="#DejaVuSans-2e" transform="translate(63.623047 0)"/>
       <use xlink:href="#DejaVuSans-35" transform="translate(95.410156 0)"/>
      </g>
     </g>
    </g>
    <g id="ytick_5">
     <g id="line2d_10">
      <g>
       <use xlink:href="#me50d9c150b" x="56.684" y="119.19603" style="stroke: #000000; stroke-width: 0.8"/>
      </g>
     </g>
     <g id="text_11">
      <!-- 2.0 -->
      <g transform="translate(32.190563 123.37517) scale(0.11 -0.11)">
       <use xlink:href="#DejaVuSans-32"/>
       <use xlink:href="#DejaVuSans-2e" transform="translate(63.623047 0)"/>
       <use xlink:href="#DejaVuSans-30" transform="translate(95.410156 0)"/>
      </g>
     </g>
    </g>
    <g id="ytick_6">
     <g id="line2d_11">
      <g>
       <use xlink:href="#me50d9c150b" x="56.684" y="84.515037" style="stroke: #000000; stroke-width: 0.8"/>
      </g>
     </g>
     <g id="text_12">
      <!-- 2.5 -->
      <g transform="translate(32.190563 88.694178) scale(0.11 -0.11)">
       <use xlink:href="#DejaVuSans-32"/>
       <use xlink:href="#DejaVuSans-2e" transform="translate(63.623047 0)"/>
       <use xlink:href="#DejaVuSans-35" transform="translate(95.410156 0)"/>
      </g>
     </g>
    </g>
    <g id="ytick_7">
     <g id="line2d_12">
      <g>
       <use xlink:href="#me50d9c150b" x="56.684" y="49.834045" style="stroke: #000000; stroke-width: 0.8"/>
      </g>
     </g>
     <g id="text_13">
      <!-- 3.0 -->
      <g transform="translate(32.190563 54.013185) scale(0.11 -0.11)">
       <use xlink:href="#DejaVuSans-33"/>
       <use xlink:href="#DejaVuSans-2e" transform="translate(63.623047 0)"/>
       <use xlink:href="#DejaVuSans-30" transform="translate(95.410156 0)"/>
      </g>
     </g>
    </g>
    <g id="text_14">
     <!-- $|\Psi(x,t)|^2$  (nm$^{-1}$) -->
     <g transform="translate(25.550563 190.86) rotate(-90) scale(0.11 -0.11)">
      <defs>
       <path id="DejaVuSans-7c" d="M 1344 4891 
L 1344 -1509 
L 813 -1509 
L 813 4891 
L 1344 4891 
z
" transform="scale(0.015625)"/>
       <path id="DejaVuSans-3a8" d="M 2206 0 
Q 2209 419 2206 969 
Q 1538 969 950 1625 
Q 375 2263 359 3388 
L 359 4666 
L 1025 4666 
L 1025 3388 
Q 1025 2506 1431 1994 
Q 1775 1556 2206 1513 
L 2206 4666 
L 2838 4666 
L 2838 1513 
Q 3269 1556 3613 1994 
Q 4019 2506 4019 3388 
L 4019 4666 
L 4684 4666 
L 4684 3388 
Q 4669 2263 4094 1625 
Q 3506 969 2838 969 
Q 2834 744 2838 0 
L 2206 0 
z
" transform="scale(0.015625)"/>
       <path id="DejaVuSans-28" d="M 1984 4856 
Q 1566 4138 1362 3434 
Q 1159 2731 1159 2009 
Q 1159 1288 1364 580 
Q 1569 -128 1984 -844 
L 1484 -844 
Q 1016 -109 783 600 
Q 550 1309 550 2009 
Q 550 2706 781 3412 
Q 1013 4119 1484 4856 
L 1984 4856 
z
" transform="scale(0.015625)"/>
       <path id="DejaVuSans-Oblique-78" d="M 3841 3500 
L 2234 1784 
L 3219 0 
L 2559 0 
L 1819 1388 
L 531 0 
L -166 0 
L 1556 1844 
L 641 3500 
L 1300 3500 
L 1972 2234 
L 3144 3500 
L 3841 3500 
z
" transform="scale(0.015625)"/>
       <path id="DejaVuSans-2c" d="M 750 794 
L 1409 794 
L 1409 256 
L 897 -744 
L 494 -744 
L 750 256 
L 750 794 
z
" transform="scale(0.015625)"/>
       <path id="DejaVuSans-Oblique-74" d="M 2706 3500 
L 2619 3053 
L 1472 3053 
L 1100 1153 
Q 1081 1047 1072 975 
Q 1063 903 1063 863 
Q 1063 663 1183 572 
Q 1303 481 1569 481 
L 2150 481 
L 2053 0 
L 1503 0 
Q 991 0 739 200 
Q 488 400 488 806 
Q 488 878 497 964 
Q 506 1050 525 1153 
L 897 3053 
L 409 3053 
L 500 3500 
L 978 3500 
L 1172 4494 
L 1747 4494 
L 1556 3500 
L 2706 3500 
z
" transform="scale(0.015625)"/>
       <path id="DejaVuSans-29" d="M 513 4856 
L 1013 4856 
Q 1481 4119 1714 3412 
Q 1947 2706 1947 2009 
Q 1947 1309 1714 600 
Q 1481 -109 1013 -844 
L 513 -844 
Q 928 -128 1133 580 
Q 1338 1288 1338 2009 
Q 1338 2731 1133 3434 
Q 928 4138 513 4856 
z
" transform="scale(0.015625)"/>
       <path id="DejaVuSans-6d" d="M 3328 2828 
Q 3544 3216 3844 3400 
Q 4144 3584 4550 3584 
Q 5097 3584 5394 3201 
Q 5691 2819 5691 2113 
L 5691 0 
L 5113 0 
L 5113 2094 
Q 5113 2597 4934 2840 
Q 4756 3084 4391 3084 
Q 3944 3084 3684 2787 
Q 3425 2491 3425 1978 
L 3425 0 
L 2847 0 
L 2847 2094 
Q 2847 2600 2669 2842 
Q 2491 3084 2119 3084 
Q 1678 3084 1418 2786 
Q 1159 2488 1159 1978 
L 1159 0 
L 581 0 
L 581 3500 
L 1159 3500 
L 1159 2956 
Q 1356 3278 1631 3431 
Q 1906 3584 2284 3584 
Q 2666 3584 2933 3390 
Q 3200 3197 3328 2828 
z
" transform="scale(0.015625)"/>
       <path id="DejaVuSans-2212" d="M 678 2272 
L 4684 2272 
L 4684 1741 
L 678 1741 
L 678 2272 
z
" transform="scale(0.015625)"/>
      </defs>
      <use xlink:href="#DejaVuSans-7c" transform="translate(0 0.765625)"/>
      <use xlink:href="#DejaVuSans-3a8" transform="translate(33.691406 0.765625)"/>
      <use xlink:href="#DejaVuSans-28" transform="translate(112.402344 0.765625)"/>
      <use xlink:href="#DejaVuSans-Oblique-78" transform="translate(151.416016 0.765625)"/>
      <use xlink:href="#DejaVuSans-2c" transform="translate(210.595703 0.765625)"/>
      <use xlink:href="#DejaVuSans-Oblique-74" transform="translate(261.865234 0.765625)"/>
      <use xlink:href="#DejaVuSans-29" transform="translate(301.074219 0.765625)"/>
      <use xlink:href="#DejaVuSans-7c" transform="translate(340.087891 0.765625)"/>
      <use xlink:href="#DejaVuSans-32" transform="translate(374.736328 39.046875) scale(0.7)"/>
      <use xlink:href="#DejaVuSans-20" transform="translate(422.006836 0.765625)"/>
      <use xlink:href="#DejaVuSans-20" transform="translate(453.793945 0.765625)"/>
      <use xlink:href="#DejaVuSans-28" transform="translate(485.581055 0.765625)"/>
      <use xlink:href="#DejaVuSans-6e" transform="translate(524.594727 0.765625)"/>
      <use xlink:href="#DejaVuSans-6d" transform="translate(587.973633 0.765625)"/>
      <use xlink:href="#DejaVuSans-2212" transform="translate(686.342773 39.046875) scale(0.7)"/>
      <use xlink:href="#DejaVuSans-31" transform="translate(744.995117 39.046875) scale(0.7)"/>
      <use xlink:href="#DejaVuSans-29" transform="translate(792.265625 0.765625)"/>
     </g>
    </g>
   </g>
   <g id="line2d_13">
    <path d="M 75.167455 257.92 
L 76.649094 257.821041 
L 78.130734 257.524354 
L 79.612373 257.030501 
L 81.094013 256.340423 
L 82.575653 255.455432 
L 84.057292 254.37721 
L 86.279752 252.402152 
L 88.502211 250.005462 
L 90.724671 247.197378 
L 92.94713 243.989884 
L 95.16959 240.396659 
L 97.392049 236.433013 
L 100.355328 230.601307 
L 103.318608 224.185271 
L 106.281887 217.233266 
L 109.985986 207.869546 
L 113.690085 197.860011 
L 118.135004 185.161009 
L 124.061563 167.412832 
L 141.100419 115.715737 
L 145.545338 103.158158 
L 149.249437 93.285395 
L 152.953536 84.065154 
L 155.916815 77.225116 
L 158.880094 70.911598 
L 161.843374 65.166118 
L 164.065833 61.252171 
L 166.288293 57.692405 
L 168.510752 54.499036 
L 170.733212 51.682657 
L 172.955671 49.25221 
L 175.17813 47.214961 
L 177.40059 45.576481 
L 178.88223 44.707683 
L 180.363869 44.018602 
L 181.845509 43.50963 
L 183.327148 43.180827 
L 184.808788 43.031925 
L 186.290428 43.062324 
L 187.772067 43.271104 
L 189.253707 43.657024 
L 190.735347 44.218527 
L 192.216986 44.953751 
L 194.439446 46.377493 
L 196.661905 48.178613 
L 198.884365 50.347125 
L 201.106824 52.87167 
L 203.329284 55.739585 
L 205.551743 58.936983 
L 207.774203 62.448828 
L 210.737482 67.592466 
L 213.700761 73.225594 
L 216.66404 79.304736 
L 220.36814 87.461001 
L 224.072239 96.149276 
L 228.517158 107.141488 
L 234.443716 122.479309 
L 254.445851 175.029211 
L 259.63159 187.682588 
L 264.076509 197.90271 
L 267.780608 205.902844 
L 271.484707 213.382828 
L 275.188806 220.304715 
L 278.152086 225.420702 
L 281.115365 230.150309 
L 284.078644 234.486683 
L 287.041923 238.426608 
L 290.005203 241.970407 
L 292.968482 245.121808 
L 295.931761 247.887777 
L 298.895041 250.278336 
L 301.85832 252.306341 
L 304.821599 253.987249 
L 307.784878 255.338858 
L 310.748158 256.38104 
L 313.711437 257.135451 
L 316.674716 257.625238 
L 319.637996 257.874736 
L 322.601275 257.909163 
L 326.305374 257.689087 
L 330.009473 257.224208 
L 334.454392 256.414532 
L 339.640131 255.230306 
L 359.642266 250.362993 
L 364.828005 249.4672 
L 369.272924 248.91486 
L 373.717843 248.58158 
L 378.162762 248.475271 
L 382.60768 248.59361 
L 387.052599 248.924797 
L 392.238338 249.552734 
L 398.164897 250.533384 
L 405.573095 252.030608 
L 424.09359 255.916981 
L 430.020149 256.860452 
L 435.205888 257.462594 
L 440.391627 257.821355 
L 444.836545 257.92 
L 444.836545 257.92 
" clip-path="url(#p5c2c907544)" style="fill: none; stroke: #0072b2; stroke-width: 2; stroke-linecap: square"/>
   </g>
   <g id="line2d_14">
    <path d="M 75.167455 257.92 
L 77.389914 257.796332 
L 79.612373 257.425928 
L 81.834833 256.810583 
L 84.057292 255.953281 
L 86.279752 254.858171 
L 88.502211 253.530555 
L 90.724671 251.976851 
L 92.94713 250.204559 
L 95.91041 247.516391 
L 98.873689 244.477912 
L 101.836968 241.115031 
L 104.800247 237.456329 
L 108.504347 232.514355 
L 112.949265 226.129828 
L 118.135004 218.20752 
L 125.543202 206.387911 
L 135.17386 191.03464 
L 140.359599 183.180707 
L 144.804518 176.86129 
L 148.508617 171.965573 
L 152.212716 167.46374 
L 155.175995 164.177342 
L 158.139275 161.193321 
L 161.102554 158.528881 
L 164.065833 156.197879 
L 167.029112 154.210719 
L 169.251572 152.950265 
L 171.474031 151.88875 
L 173.696491 151.026631 
L 175.91895 150.363243 
L 178.14141 149.896808 
L 180.363869 149.624454 
L 182.586329 149.542242 
L 184.808788 149.64519 
L 187.031248 149.927317 
L 189.994527 150.570072 
L 192.957806 151.499954 
L 195.921085 152.695335 
L 198.884365 154.132178 
L 201.847644 155.784307 
L 205.551743 158.109379 
L 209.996662 161.203686 
L 215.182401 165.099736 
L 229.998797 176.442994 
L 234.443716 179.492786 
L 238.147815 181.785066 
L 241.851914 183.800952 
L 244.815194 185.187186 
L 247.778473 186.352676 
L 250.741752 187.282543 
L 253.705032 187.964946 
L 256.668311 188.391219 
L 259.63159 188.555953 
L 262.594869 188.45706 
L 265.558149 188.095794 
L 268.521428 187.476737 
L 271.484707 186.607748 
L 274.447987 185.499885 
L 277.411266 184.167281 
L 281.115365 182.211742 
L 284.819464 179.971202 
L 289.264383 176.970571 
L 294.450122 173.152215 
L 304.080779 165.672115 
L 310.007338 161.203686 
L 314.452257 158.109379 
L 318.156356 155.784307 
L 321.860455 153.751728 
L 324.823734 152.372875 
L 327.787014 151.241705 
L 330.750293 150.381677 
L 333.713572 149.813775 
L 335.936032 149.59065 
L 338.158491 149.548805 
L 340.380951 149.693896 
L 342.60341 150.030557 
L 344.82587 150.562378 
L 347.048329 151.291867 
L 349.270788 152.220432 
L 351.493248 153.348367 
L 353.715707 154.674837 
L 356.678987 156.748741 
L 359.642266 159.164214 
L 362.605545 161.909981 
L 365.568825 164.971337 
L 368.532104 168.330263 
L 372.236203 172.914815 
L 375.940302 177.883127 
L 380.385221 184.27452 
L 385.57096 192.18922 
L 392.979158 203.998735 
L 403.350635 220.512485 
L 408.536374 228.306497 
L 412.240473 233.532787 
L 415.944572 238.397082 
L 418.907852 241.984644 
L 421.871131 245.269004 
L 424.83441 248.222224 
L 427.79769 250.819104 
L 430.020149 252.519432 
L 432.242608 253.998555 
L 434.465068 255.249327 
L 436.687527 256.2657 
L 438.909987 257.042754 
L 441.132446 257.576725 
L 443.354906 257.865024 
L 444.836545 257.92 
L 444.836545 257.92 
" clip-path="url(#p5c2c907544)" style="fill: none; stroke: #009e73; stroke-width: 2; stroke-linecap: square"/>
   </g>
   <g id="line2d_15">
    <path d="M 75.167455 257.92 
L 79.612373 257.821355 
L 84.798112 257.462594 
L 89.983851 256.860452 
L 95.91041 255.916981 
L 102.577788 254.612347 
L 124.802383 250.01245 
L 129.988121 249.254139 
L 135.17386 248.733679 
L 139.618779 248.506886 
L 144.063698 248.499967 
L 148.508617 248.720096 
L 152.953536 249.164557 
L 157.398455 249.82012 
L 162.584193 250.819001 
L 168.510752 252.197698 
L 187.031248 256.710146 
L 191.476167 257.436276 
L 195.180266 257.809349 
L 198.143545 257.919315 
L 201.106824 257.833521 
L 204.070103 257.526287 
L 207.033383 256.972584 
L 209.996662 256.148347 
L 212.959941 255.030773 
L 215.923221 253.598626 
L 218.14568 252.306341 
L 220.36814 250.818766 
L 223.331419 248.520156 
L 226.294698 245.849093 
L 229.257977 242.794827 
L 232.221257 239.349606 
L 235.184536 235.508878 
L 238.147815 231.271455 
L 241.111095 226.639658 
L 244.074374 221.619421 
L 247.037653 216.220375 
L 250.741752 208.959583 
L 254.445851 201.162378 
L 258.14995 192.872101 
L 262.594869 182.346897 
L 267.780608 169.407745 
L 273.707167 153.992065 
L 292.227662 105.273094 
L 296.672581 94.373655 
L 300.37668 85.784148 
L 304.080779 77.745604 
L 307.044059 71.773758 
L 310.007338 66.259025 
L 312.970617 61.244248 
L 315.193077 57.83548 
L 317.415536 54.746294 
L 319.637996 51.991351 
L 321.860455 49.58414 
L 324.082915 47.536897 
L 326.305374 45.860529 
L 328.527833 44.564553 
L 330.009473 43.915937 
L 331.491113 43.442011 
L 332.972752 43.144487 
L 334.454392 43.024762 
L 335.936032 43.083918 
L 337.417671 43.322716 
L 338.899311 43.74159 
L 340.380951 44.340646 
L 341.86259 45.119655 
L 343.34423 46.078059 
L 345.566689 47.849976 
L 347.789149 50.018995 
L 350.011608 52.578976 
L 352.234068 55.522094 
L 354.456527 58.838853 
L 356.678987 62.518115 
L 358.901446 66.547135 
L 361.864725 72.438269 
L 364.828005 78.887484 
L 367.791284 85.852151 
L 371.495383 95.211049 
L 375.199482 105.201745 
L 379.644401 117.871262 
L 384.83014 133.335601 
L 404.091455 191.592647 
L 408.536374 203.936832 
L 412.240473 213.572473 
L 415.203753 220.773084 
L 418.167032 227.463404 
L 421.130311 233.593059 
L 424.09359 239.1158 
L 426.31605 242.834278 
L 428.538509 246.171951 
L 430.760969 249.114588 
L 432.983428 251.649634 
L 435.205888 253.766264 
L 437.428347 255.455432 
L 438.909987 256.340423 
L 440.391627 257.030501 
L 441.873266 257.524354 
L 443.354906 257.821041 
L 444.836545 257.92 
L 444.836545 257.92 
" clip-path="url(#p5c2c907544)" style="fill: none; stroke: #d55e00; stroke-width: 2; stroke-linecap: square"/>
   </g>
   <g id="line2d_16">
    <path d="M 75.167455 257.92 
L 77.389914 257.796332 
L 79.612373 257.425928 
L 81.834833 256.810583 
L 84.057292 255.953281 
L 86.279752 254.858171 
L 88.502211 253.530555 
L 90.724671 251.976851 
L 92.94713 250.204559 
L 95.91041 247.516391 
L 98.873689 244.477912 
L 101.836968 241.115031 
L 104.800247 237.456329 
L 108.504347 232.514355 
L 112.949265 226.129828 
L 118.135004 218.20752 
L 125.543202 206.387911 
L 135.17386 191.03464 
L 140.359599 183.180707 
L 144.804518 176.86129 
L 148.508617 171.965573 
L 152.212716 167.46374 
L 155.175995 164.177342 
L 158.139275 161.193321 
L 161.102554 158.528881 
L 164.065833 156.197879 
L 167.029112 154.210719 
L 169.251572 152.950265 
L 171.474031 151.88875 
L 173.696491 151.026631 
L 175.91895 150.363243 
L 178.14141 149.896808 
L 180.363869 149.624454 
L 182.586329 149.542242 
L 184.808788 149.64519 
L 187.031248 149.927317 
L 189.994527 150.570072 
L 192.957806 151.499954 
L 195.921085 152.695335 
L 198.884365 154.132178 
L 201.847644 155.784307 
L 205.551743 158.109379 
L 209.996662 161.203686 
L 215.182401 165.099736 
L 229.998797 176.442994 
L 234.443716 179.492786 
L 238.147815 181.785066 
L 241.851914 183.800952 
L 244.815194 185.187186 
L 247.778473 186.352676 
L 250.741752 187.282543 
L 253.705032 187.964946 
L 256.668311 188.391219 
L 259.63159 188.555953 
L 262.594869 188.45706 
L 265.558149 188.095794 
L 268.521428 187.476737 
L 271.484707 186.607748 
L 274.447987 185.499885 
L 277.411266 184.167281 
L 281.115365 182.211742 
L 284.819464 179.971202 
L 289.264383 176.970571 
L 294.450122 173.152215 
L 304.080779 165.672115 
L 310.007338 161.203686 
L 314.452257 158.109379 
L 318.156356 155.784307 
L 321.860455 153.751728 
L 324.823734 152.372875 
L 327.787014 151.241705 
L 330.750293 150.381677 
L 333.713572 149.813775 
L 335.936032 149.59065 
L 338.158491 149.548805 
L 340.380951 149.693896 
L 342.60341 150.030557 
L 344.82587 150.562378 
L 347.048329 151.291867 
L 349.270788 152.220432 
L 351.493248 153.348367 
L 353.715707 154.674837 
L 356.678987 156.748741 
L 359.642266 159.164214 
L 362.605545 161.909981 
L 365.568825 164.971337 
L 368.532104 168.330263 
L 372.236203 172.914815 
L 375.940302 177.883127 
L 380.385221 184.27452 
L 385.57096 192.18922 
L 392.979158 203.998735 
L 403.350635 220.512485 
L 408.536374 228.306497 
L 412.240473 233.532787 
L 415.944572 238.397082 
L 418.907852 241.984644 
L 421.871131 245.269004 
L 424.83441 248.222224 
L 427.79769 250.819104 
L 430.020149 252.519432 
L 432.242608 253.998555 
L 434.465068 255.249327 
L 436.687527 256.2657 
L 438.909987 257.042754 
L 441.132446 257.576725 
L 443.354906 257.865024 
L 444.836545 257.92 
L 444.836545 257.92 
" clip-path="url(#p5c2c907544)" style="fill: none; stroke: #e69f00; stroke-width: 2; stroke-linecap: square"/>
   </g>
   <g id="patch_3">
    <path d="M 56.684 257.92 
L 56.684 32.28 
" style="fill: none; stroke: #000000; stroke-linejoin: miter; stroke-linecap: square"/>
   </g>
   <g id="patch_4">
    <path d="M 56.684 257.92 
L 463.32 257.92 
" style="fill: none; stroke: #000000; stroke-linejoin: miter; stroke-linecap: square"/>
   </g>
   <g id="text_15">
    <!-- Sloshing: $(\psi_1+\psi_2)/\sqrt{2}$ density over one period $T=2\pi\hbar/(E_2-E_1)$ -->
    <g transform="translate(68.962 26.28) scale(0.12 -0.12)">
     <defs>
      <path id="DejaVuSans-53" d="M 3425 4513 
L 3425 3897 
Q 3066 4069 2747 4153 
Q 2428 4238 2131 4238 
Q 1616 4238 1336 4038 
Q 1056 3838 1056 3469 
Q 1056 3159 1242 3001 
Q 1428 2844 1947 2747 
L 2328 2669 
Q 3034 2534 3370 2195 
Q 3706 1856 3706 1288 
Q 3706 609 3251 259 
Q 2797 -91 1919 -91 
Q 1588 -91 1214 -16 
Q 841 59 441 206 
L 441 856 
Q 825 641 1194 531 
Q 1563 422 1919 422 
Q 2459 422 2753 634 
Q 3047 847 3047 1241 
Q 3047 1584 2836 1778 
Q 2625 1972 2144 2069 
L 1759 2144 
Q 1053 2284 737 2584 
Q 422 2884 422 3419 
Q 422 4038 858 4394 
Q 1294 4750 2059 4750 
Q 2388 4750 2728 4690 
Q 3069 4631 3425 4513 
z
" transform="scale(0.015625)"/>
      <path id="DejaVuSans-6c" d="M 603 4863 
L 1178 4863 
L 1178 0 
L 603 0 
L 603 4863 
z
" transform="scale(0.015625)"/>
      <path id="DejaVuSans-68" d="M 3513 2113 
L 3513 0 
L 2938 0 
L 2938 2094 
Q 2938 2591 2744 2837 
Q 2550 3084 2163 3084 
Q 1697 3084 1428 2787 
Q 1159 2491 1159 1978 
L 1159 0 
L 581 0 
L 581 4863 
L 1159 4863 
L 1159 2956 
Q 1366 3272 1645 3428 
Q 1925 3584 2291 3584 
Q 2894 3584 3203 3211 
Q 3513 2838 3513 2113 
z
" transform="scale(0.015625)"/>
      <path id="DejaVuSans-67" d="M 2906 1791 
Q 2906 2416 2648 2759 
Q 2391 3103 1925 3103 
Q 1463 3103 1205 2759 
Q 947 2416 947 1791 
Q 947 1169 1205 825 
Q 1463 481 1925 481 
Q 2391 481 2648 825 
Q 2906 1169 2906 1791 
z
M 3481 434 
Q 3481 -459 3084 -895 
Q 2688 -1331 1869 -1331 
Q 1566 -1331 1297 -1286 
Q 1028 -1241 775 -1147 
L 775 -588 
Q 1028 -725 1275 -790 
Q 1522 -856 1778 -856 
Q 2344 -856 2625 -561 
Q 2906 -266 2906 331 
L 2906 616 
Q 2728 306 2450 153 
Q 2172 0 1784 0 
Q 1141 0 747 490 
Q 353 981 353 1791 
Q 353 2603 747 3093 
Q 1141 3584 1784 3584 
Q 2172 3584 2450 3431 
Q 2728 3278 2906 2969 
L 2906 3500 
L 3481 3500 
L 3481 434 
z
" transform="scale(0.015625)"/>
      <path id="DejaVuSans-3a" d="M 750 794 
L 1409 794 
L 1409 0 
L 750 0 
L 750 794 
z
M 750 3309 
L 1409 3309 
L 1409 2516 
L 750 2516 
L 750 3309 
z
" transform="scale(0.015625)"/>
      <path id="DejaVuSans-Oblique-3c8" d="M 1591 -78 
Q 891 38 616 341 
Q 278 713 425 1472 
L 819 3500 
L 1400 3500 
L 1009 1494 
Q 900 922 1119 684 
Q 1313 478 1691 434 
L 2284 3500 
L 2856 3500 
L 2263 438 
Q 2681 481 2928 688 
Q 3247 950 3353 1497 
L 3741 3500 
L 4322 3500 
L 3928 1475 
Q 3775 688 3300 344 
Q 2872 34 2163 -75 
L 1919 -1331 
L 1347 -1331 
L 1591 -78 
z
" transform="scale(0.015625)"/>
      <path id="DejaVuSans-2b" d="M 2944 4013 
L 2944 2272 
L 4684 2272 
L 4684 1741 
L 2944 1741 
L 2944 0 
L 2419 0 
L 2419 1741 
L 678 1741 
L 678 2272 
L 2419 2272 
L 2419 4013 
L 2944 4013 
z
" transform="scale(0.015625)"/>
      <path id="STIXSizeOneSym-Regular-221a" d="M 6970 9933 
L 3373 -1888 
L 3104 -1888 
L 1626 2918 
Q 1555 3149 1465 3251 
Q 1376 3354 1229 3354 
Q 1011 3354 794 3181 
L 717 3309 
L 1766 4115 
L 1926 4115 
L 3379 -602 
L 3405 -602 
L 6605 9933 
L 6970 9933 
z
" transform="scale(0.015625)"/>
      <path id="DejaVuSans-64" d="M 2906 2969 
L 2906 4863 
L 3481 4863 
L 3481 0 
L 2906 0 
L 2906 525 
Q 2725 213 2448 61 
Q 2172 -91 1784 -91 
Q 1150 -91 751 415 
Q 353 922 353 1747 
Q 353 2572 751 3078 
Q 1150 3584 1784 3584 
Q 2172 3584 2448 3432 
Q 2725 3281 2906 2969 
z
M 947 1747 
Q 947 1113 1208 752 
Q 1469 391 1925 391 
Q 2381 391 2643 752 
Q 2906 1113 2906 1747 
Q 2906 2381 2643 2742 
Q 2381 3103 1925 3103 
Q 1469 3103 1208 2742 
Q 947 2381 947 1747 
z
" transform="scale(0.015625)"/>
      <path id="DejaVuSans-65" d="M 3597 1894 
L 3597 1613 
L 953 1613 
Q 991 1019 1311 708 
Q 1631 397 2203 397 
Q 2534 397 2845 478 
Q 3156 559 3463 722 
L 3463 178 
Q 3153 47 2828 -22 
Q 2503 -91 2169 -91 
Q 1331 -91 842 396 
Q 353 884 353 1716 
Q 353 2575 817 3079 
Q 1281 3584 2069 3584 
Q 2775 3584 3186 3129 
Q 3597 2675 3597 1894 
z
M 3022 2063 
Q 3016 2534 2758 2815 
Q 2500 3097 2075 3097 
Q 1594 3097 1305 2825 
Q 1016 2553 972 2059 
L 3022 2063 
z
" transform="scale(0.015625)"/>
      <path id="DejaVuSans-79" d="M 2059 -325 
Q 1816 -950 1584 -1140 
Q 1353 -1331 966 -1331 
L 506 -1331 
L 506 -850 
L 844 -850 
Q 1081 -850 1212 -737 
Q 1344 -625 1503 -206 
L 1606 56 
L 191 3500 
L 800 3500 
L 1894 763 
L 2988 3500 
L 3597 3500 
L 2059 -325 
z
" transform="scale(0.015625)"/>
      <path id="DejaVuSans-76" d="M 191 3500 
L 800 3500 
L 1894 563 
L 2988 3500 
L 3597 3500 
L 2284 0 
L 1503 0 
L 191 3500 
z
" transform="scale(0.015625)"/>
      <path id="DejaVuSans-72" d="M 2631 2963 
Q 2534 3019 2420 3045 
Q 2306 3072 2169 3072 
Q 1681 3072 1420 2755 
Q 1159 2438 1159 1844 
L 1159 0 
L 581 0 
L 581 3500 
L 1159 3500 
L 1159 2956 
Q 1341 3275 1631 3429 
Q 1922 3584 2338 3584 
Q 2397 3584 2469 3576 
Q 2541 3569 2628 3553 
L 2631 2963 
z
" transform="scale(0.015625)"/>
      <path id="DejaVuSans-Oblique-54" d="M 378 4666 
L 4325 4666 
L 4225 4134 
L 2559 4134 
L 1759 0 
L 1125 0 
L 1925 4134 
L 275 4134 
L 378 4666 
z
" transform="scale(0.015625)"/>
      <path id="DejaVuSans-3d" d="M 678 2906 
L 4684 2906 
L 4684 2381 
L 678 2381 
L 678 2906 
z
M 678 1631 
L 4684 1631 
L 4684 1100 
L 678 1100 
L 678 1631 
z
" transform="scale(0.015625)"/>
      <path id="DejaVuSans-Oblique-3c0" d="M 584 3500 
L 3938 3500 
L 3825 2925 
L 3384 2925 
L 2966 775 
Q 2922 550 2981 450 
Q 3038 353 3209 353 
Q 3256 353 3325 363 
Q 3397 369 3419 372 
L 3338 -44 
Q 3222 -84 3103 -103 
Q 2981 -122 2866 -122 
Q 2491 -122 2388 81 
Q 2284 288 2391 838 
L 2797 2925 
L 1506 2925 
L 938 0 
L 350 0 
L 919 2925 
L 472 2925 
L 584 3500 
z
" transform="scale(0.015625)"/>
      <path id="DejaVuSans-Oblique-127" d="M 3634 2113 
L 3225 0 
L 2650 0 
L 3056 2094 
Q 3094 2291 3094 2450 
Q 3094 2688 3006 2838 
Q 2863 3084 2475 3084 
Q 2009 3084 1681 2788 
Q 1356 2491 1256 1978 
L 872 0 
L 294 0 
L 1066 3969 
L 675 3969 
L 775 4481 
L 1166 4481 
L 1238 4863 
L 1816 4863 
L 1744 4481 
L 2844 4481 
L 2744 3969 
L 1644 3969 
L 1447 2956 
Q 1713 3272 2025 3428 
Q 2331 3584 2700 3584 
Q 3300 3584 3538 3213 
Q 3688 2975 3688 2606 
Q 3688 2381 3634 2113 
z
" transform="scale(0.015625)"/>
      <path id="DejaVuSans-Oblique-45" d="M 1081 4666 
L 4031 4666 
L 3928 4134 
L 1606 4134 
L 1338 2753 
L 3566 2753 
L 3463 2222 
L 1234 2222 
L 909 531 
L 3284 531 
L 3181 0 
L 172 0 
L 1081 4666 
z
" transform="scale(0.015625)"/>
     </defs>
     <use xlink:href="#DejaVuSans-53" transform="translate(0 0.71875)"/>
     <use xlink:href="#DejaVuSans-6c" transform="translate(63.476562 0.71875)"/>
     <use xlink:href="#DejaVuSans-6f" transform="translate(91.259766 0.71875)"/>
     <use xlink:href="#DejaVuSans-73" transform="translate(152.441406 0.71875)"/>
     <use xlink:href="#DejaVuSans-68" transform="translate(204.541016 0.71875)"/>
     <use xlink:href="#DejaVuSans-69" transform="translate(267.919922 0.71875)"/>
     <use xlink:href="#DejaVuSans-6e" transform="translate(295.703125 0.71875)"/>
     <use xlink:href="#DejaVuSans-67" transform="translate(359.082031 0.71875)"/>
     <use xlink:href="#DejaVuSans-3a" transform="translate(422.558594 0.71875)"/>
     <use xlink:href="#DejaVuSans-20" transform="translate(456.25 0.71875)"/>
     <use xlink:href="#DejaVuSans-28" transform="translate(488.037109 0.71875)"/>
     <use xlink:href="#DejaVuSans-Oblique-3c8" transform="translate(527.050781 0.71875)"/>
     <use xlink:href="#DejaVuSans-31" transform="translate(593.017578 -15.6875) scale(0.7)"/>
     <use xlink:href="#DejaVuSans-2b" transform="translate(659.770508 0.71875)"/>
     <use xlink:href="#DejaVuSans-Oblique-3c8" transform="translate(763.041992 0.71875)"/>
     <use xlink:href="#DejaVuSans-32" transform="translate(829.008789 -15.6875) scale(0.7)"/>
     <use xlink:href="#DejaVuSans-29" transform="translate(876.279297 0.71875)"/>
     <use xlink:href="#DejaVuSans-2f" transform="translate(915.292969 0.71875)"/>
     <use xlink:href="#STIXSizeOneSym-Regular-221a" transform="translate(948.984375 17.53125) scale(0.571018)"/>
     <use xlink:href="#DejaVuSans-32" transform="translate(1021.865494 0.53125)"/>
     <use xlink:href="#DejaVuSans-20" transform="translate(1097.988541 0.71875)"/>
     <use xlink:href="#DejaVuSans-64" transform="translate(1129.77565 0.71875)"/>
     <use xlink:href="#DejaVuSans-65" transform="translate(1193.252213 0.71875)"/>
     <use xlink:href="#DejaVuSans-6e" transform="translate(1254.77565 0.71875)"/>
     <use xlink:href="#DejaVuSans-73" transform="translate(1318.154556 0.71875)"/>
     <use xlink:href="#DejaVuSans-69" transform="translate(1370.254166 0.71875)"/>
     <use xlink:href="#DejaVuSans-74" transform="translate(1398.037369 0.71875)"/>
     <use xlink:href="#DejaVuSans-79" transform="translate(1437.246353 0.71875)"/>
     <use xlink:href="#DejaVuSans-20" transform="translate(1496.426041 0.71875)"/>
     <use xlink:href="#DejaVuSans-6f" transform="translate(1528.21315 0.71875)"/>
     <use xlink:href="#DejaVuSans-76" transform="translate(1589.394791 0.71875)"/>
     <use xlink:href="#DejaVuSans-65" transform="translate(1648.574478 0.71875)"/>
     <use xlink:href="#DejaVuSans-72" transform="translate(1710.097916 0.71875)"/>
     <use xlink:href="#DejaVuSans-20" transform="translate(1751.211197 0.71875)"/>
     <use xlink:href="#DejaVuSans-6f" transform="translate(1782.998306 0.71875)"/>
     <use xlink:href="#DejaVuSans-6e" transform="translate(1844.179947 0.71875)"/>
     <use xlink:href="#DejaVuSans-65" transform="translate(1907.558853 0.71875)"/>
     <use xlink:href="#DejaVuSans-20" transform="translate(1969.082291 0.71875)"/>
     <use xlink:href="#DejaVuSans-70" transform="translate(2000.8694 0.71875)"/>
     <use xlink:href="#DejaVuSans-65" transform="translate(2064.345963 0.71875)"/>
     <use xlink:href="#DejaVuSans-72" transform="translate(2125.8694 0.71875)"/>
     <use xlink:href="#DejaVuSans-69" transform="translate(2166.982681 0.71875)"/>
     <use xlink:href="#DejaVuSans-6f" transform="translate(2194.765884 0.71875)"/>
     <use xlink:href="#DejaVuSans-64" transform="translate(2255.947525 0.71875)"/>
     <use xlink:href="#DejaVuSans-20" transform="translate(2319.424088 0.71875)"/>
     <use xlink:href="#DejaVuSans-Oblique-54" transform="translate(2351.211197 0.71875)"/>
     <use xlink:href="#DejaVuSans-3d" transform="translate(2431.777603 0.71875)"/>
     <use xlink:href="#DejaVuSans-32" transform="translate(2535.049088 0.71875)"/>
     <use xlink:href="#DejaVuSans-Oblique-3c0" transform="translate(2598.672134 0.71875)"/>
     <use xlink:href="#DejaVuSans-Oblique-127" transform="translate(2658.877213 0.71875)"/>
     <use xlink:href="#DejaVuSans-2f" transform="translate(2728.359634 0.71875)"/>
     <use xlink:href="#DejaVuSans-28" transform="translate(2762.051041 0.71875)"/>
     <use xlink:href="#DejaVuSans-Oblique-45" transform="translate(2801.064713 0.71875)"/>
     <use xlink:href="#DejaVuSans-32" transform="translate(2864.248306 -15.6875) scale(0.7)"/>
     <use xlink:href="#DejaVuSans-2212" transform="translate(2931.001236 0.71875)"/>
     <use xlink:href="#DejaVuSans-Oblique-45" transform="translate(3034.27272 0.71875)"/>
     <use xlink:href="#DejaVuSans-31" transform="translate(3097.456314 -15.6875) scale(0.7)"/>
     <use xlink:href="#DejaVuSans-29" transform="translate(3144.726822 0.71875)"/>
     <path d="M 1009.365494 99.5 
L 1009.365494 105.75 
L 1097.988541 105.75 
L 1097.988541 99.5 
L 1009.365494 99.5 
z
"/>
    </g>
   </g>
   <g id="legend_1">
    <g id="line2d_17">
     <path d="M 319.002188 44.068594 
L 328.002188 44.068594 
L 337.002188 44.068594 
" style="fill: none; stroke: #0072b2; stroke-width: 2; stroke-linecap: square"/>
    </g>
    <g id="text_16">
     <!-- t = 0 -->
     <g transform="translate(344.202188 47.218594) scale(0.09 -0.09)">
      <use xlink:href="#DejaVuSans-74"/>
      <use xlink:href="#DejaVuSans-20" transform="translate(39.208984 0)"/>
      <use xlink:href="#DejaVuSans-3d" transform="translate(70.996094 0)"/>
      <use xlink:href="#DejaVuSans-20" transform="translate(154.785156 0)"/>
      <use xlink:href="#DejaVuSans-30" transform="translate(186.572266 0)"/>
     </g>
    </g>
    <g id="line2d_18">
     <path d="M 319.002188 57.278906 
L 328.002188 57.278906 
L 337.002188 57.278906 
" style="fill: none; stroke: #009e73; stroke-width: 2; stroke-linecap: square"/>
    </g>
    <g id="text_17">
     <!-- t = T/4 -->
     <g transform="translate(344.202188 60.428906) scale(0.09 -0.09)">
      <defs>
       <path id="DejaVuSans-54" d="M -19 4666 
L 3928 4666 
L 3928 4134 
L 2272 4134 
L 2272 0 
L 1638 0 
L 1638 4134 
L -19 4134 
L -19 4666 
z
" transform="scale(0.015625)"/>
      </defs>
      <use xlink:href="#DejaVuSans-74"/>
      <use xlink:href="#DejaVuSans-20" transform="translate(39.208984 0)"/>
      <use xlink:href="#DejaVuSans-3d" transform="translate(70.996094 0)"/>
      <use xlink:href="#DejaVuSans-20" transform="translate(154.785156 0)"/>
      <use xlink:href="#DejaVuSans-54" transform="translate(186.572266 0)"/>
      <use xlink:href="#DejaVuSans-2f" transform="translate(247.65625 0)"/>
      <use xlink:href="#DejaVuSans-34" transform="translate(281.347656 0)"/>
     </g>
    </g>
    <g id="line2d_19">
     <path d="M 393.247969 44.068594 
L 402.247969 44.068594 
L 411.247969 44.068594 
" style="fill: none; stroke: #d55e00; stroke-width: 2; stroke-linecap: square"/>
    </g>
    <g id="text_18">
     <!-- t = T/2 -->
     <g transform="translate(418.447969 47.218594) scale(0.09 -0.09)">
      <use xlink:href="#DejaVuSans-74"/>
      <use xlink:href="#DejaVuSans-20" transform="translate(39.208984 0)"/>
      <use xlink:href="#DejaVuSans-3d" transform="translate(70.996094 0)"/>
      <use xlink:href="#DejaVuSans-20" transform="translate(154.785156 0)"/>
      <use xlink:href="#DejaVuSans-54" transform="translate(186.572266 0)"/>
      <use xlink:href="#DejaVuSans-2f" transform="translate(247.65625 0)"/>
      <use xlink:href="#DejaVuSans-32" transform="translate(281.347656 0)"/>
     </g>
    </g>
    <g id="line2d_20">
     <path d="M 393.247969 57.278906 
L 402.247969 57.278906 
L 411.247969 57.278906 
" style="fill: none; stroke: #e69f00; stroke-width: 2; stroke-linecap: square"/>
    </g>
    <g id="text_19">
     <!-- t = 3T/4 -->
     <g transform="translate(418.447969 60.428906) scale(0.09 -0.09)">
      <use xlink:href="#DejaVuSans-74"/>
      <use xlink:href="#DejaVuSans-20" transform="translate(39.208984 0)"/>
      <use xlink:href="#DejaVuSans-3d" transform="translate(70.996094 0)"/>
      <use xlink:href="#DejaVuSans-20" transform="translate(154.785156 0)"/>
      <use xlink:href="#DejaVuSans-33" transform="translate(186.572266 0)"/>
      <use xlink:href="#DejaVuSans-54" transform="translate(250.195312 0)"/>
      <use xlink:href="#DejaVuSans-2f" transform="translate(311.279297 0)"/>
      <use xlink:href="#DejaVuSans-34" transform="translate(344.970703 0)"/>
     </g>
    </g>
   </g>
  </g>
 </g>
 <defs>
  <clipPath id="p5c2c907544">
   <rect x="56.684" y="32.28" width="406.636" height="225.64"/>
  </clipPath>
 </defs>
</svg>
