<?xml version="1.0" encoding="utf-8" standalone="no"?>
<!DOCTYPE svg PUBLIC "-//W3C//DTD SVG 1.1//EN"
  "http://www.w3.org/Graphics/SVG/1.1/DTD/svg11.dtd">
<svg xmlns:xlink="http://www.w3.org/1999/xlink" width="590.4pt" height="273.6pt" viewBox="0 0 590.4 273.6" xmlns="http://www.w3.org/2000/svg" version="1.1">
 <metadata>
  <rdf:RDF xmlns:dc="http://purl.org/dc/elements/1.1/" xmlns:cc="http://creativecommons.org/ns#" xmlns:rdf="http://www.w3.org/1999/02/22-rdf-syntax-ns#">
   <cc:Work>
    <dc:type rdf:resource="http://purl.org/dc/dcmitype/StillImage"/>
    <dc:date>2026-06-04T06:14:06.975104</dc:date>
    <dc:format>image/svg+xml</dc:format>
    <dc:creator>
     <cc:Agent>
      <dc:title>Matplotlib v3.10.8, https://matplotlib.org/</dc:title>
     </cc:Agent>
    </dc:creator>
   </cc:Work>
  </rdf:RDF>
 </metadata>
 <defs>
  <style type="text/css">*{stroke-linejoin: round; stroke-linecap: butt}</style>
 </defs>
 <g id="figure_1">
  <g id="patch_1">
   <path d="M 0 273.6 
L 590.4 273.6 
L 590.4 0 
L 0 0 
z
" style="fill: #ffffff"/>
  </g>
  <g id="axes_1">
   <g id="patch_2">
    <path d="M 65.054 229.12 
L 290.025 229.12 
L 290.025 27.96 
L 65.054 27.96 
z
" style="fill: #ffffff"/>
   </g>
   <g id="matplotlib.axis_1">
    <g id="xtick_1">
     <g id="line2d_1">
      <defs>
       <path id="m8e766ef707" d="M 0 0 
L 0 3.5 
" style="stroke: #000000; stroke-width: 0.8"/>
      </defs>
      <g>
       <use xlink:href="#m8e766ef707" x="75.279955" y="229.12" style="stroke: #000000; stroke-width: 0.8"/>
      </g>
     </g>
     <g id="text_1">
      <!-- 0 -->
      <g transform="translate(71.78058 244.478281) scale(0.11 -0.11)">
       <defs>
        <path id="DejaVuSans-30" d="M 2034 4250 
Q 1547 4250 1301 3770 
Q 1056 3291 1056 2328 
Q 1056 1369 1301 889 
Q 1547 409 2034 409 
Q 2525 409 2770 889 
Q 3016 1369 3016 2328 
Q 3016 3291 2770 3770 
Q 2525 4250 2034 4250 
z
M 2034 4750 
Q 2819 4750 3233 4129 
Q 3647 3509 3647 2328 
Q 3647 1150 3233 529 
Q 2819 -91 2034 -91 
Q 1250 -91 836 529 
Q 422 1150 422 2328 
Q 422 3509 836 4129 
Q 1250 4750 2034 4750 
z
" transform="scale(0.015625)"/>
       </defs>
       <use xlink:href="#DejaVuSans-30"/>
      </g>
     </g>
    </g>
    <g id="xtick_2">
     <g id="line2d_2">
      <g>
       <use xlink:href="#m8e766ef707" x="177.5395" y="229.12" style="stroke: #000000; stroke-width: 0.8"/>
      </g>
     </g>
     <g id="text_2">
      <!-- L/2 -->
      <g transform="translate(169.122781 244.478281) scale(0.11 -0.11)">
       <defs>
        <path id="DejaVuSans-4c" d="M 628 4666 
L 1259 4666 
L 1259 531 
L 3531 531 
L 3531 0 
L 628 0 
L 628 4666 
z
" transform="scale(0.015625)"/>
        <path id="DejaVuSans-2f" d="M 1625 4666 
L 2156 4666 
L 531 -594 
L 0 -594 
L 1625 4666 
z
" transform="scale(0.015625)"/>
        <path id="DejaVuSans-32" d="M 1228 531 
L 3431 531 
L 3431 0 
L 469 0 
L 469 531 
Q 828 903 1448 1529 
Q 2069 2156 2228 2338 
Q 2531 2678 2651 2914 
Q 2772 3150 2772 3378 
Q 2772 3750 2511 3984 
Q 2250 4219 1831 4219 
Q 1534 4219 1204 4116 
Q 875 4013 500 3803 
L 500 4441 
Q 881 4594 1212 4672 
Q 1544 4750 1819 4750 
Q 2544 4750 2975 4387 
Q 3406 4025 3406 3419 
Q 3406 3131 3298 2873 
Q 3191 2616 2906 2266 
Q 2828 2175 2409 1742 
Q 1991 1309 1228 531 
z
" transform="scale(0.015625)"/>
       </defs>
       <use xlink:href="#DejaVuSans-4c"/>
       <use xlink:href="#DejaVuSans-2f" transform="translate(55.712891 0)"/>
       <use xlink:href="#DejaVuSans-32" transform="translate(89.404297 0)"/>
      </g>
     </g>
    </g>
    <g id="xtick_3">
     <g id="line2d_3">
      <g>
       <use xlink:href="#m8e766ef707" x="279.799045" y="229.12" style="stroke: #000000; stroke-width: 0.8"/>
      </g>
     </g>
     <g id="text_3">
      <!-- L -->
      <g transform="translate(276.734514 244.478281) scale(0.11 -0.11)">
       <use xlink:href="#DejaVuSans-4c"/>
      </g>
     </g>
    </g>
    <g id="text_4">
     <!-- x / L -->
     <g transform="translate(165.870906 259.124219) scale(0.11 -0.11)">
      <defs>
       <path id="DejaVuSans-78" d="M 3513 3500 
L 2247 1797 
L 3578 0 
L 2900 0 
L 1881 1375 
L 863 0 
L 184 0 
L 1544 1831 
L 300 3500 
L 978 3500 
L 1906 2253 
L 2834 3500 
L 3513 3500 
z
" transform="scale(0.015625)"/>
       <path id="DejaVuSans-20" transform="scale(0.015625)"/>
      </defs>
      <use xlink:href="#DejaVuSans-78"/>
      <use xlink:href="#DejaVuSans-20" transform="translate(59.179688 0)"/>
      <use xlink:href="#DejaVuSans-2f" transform="translate(90.966797 0)"/>
      <use xlink:href="#DejaVuSans-20" transform="translate(124.658203 0)"/>
      <use xlink:href="#DejaVuSans-4c" transform="translate(156.445312 0)"/>
     </g>
    </g>
   </g>
   <g id="matplotlib.axis_2">
    <g id="ytick_1">
     <g id="line2d_4">
      <defs>
       <path id="m5ce6b0617d" d="M 0 0 
L -3.5 0 
" style="stroke: #000000; stroke-width: 0.8"/>
      </defs>
      <g>
       <use xlink:href="#m5ce6b0617d" x="65.054" y="225.52339" style="stroke: #000000; stroke-width: 0.8"/>
      </g>
     </g>
     <g id="text_5">
      <!-- −1.5 -->
      <g transform="translate(31.342906 229.70253) scale(0.11 -0.11)">
       <defs>
        <path id="DejaVuSans-2212" d="M 678 2272 
L 4684 2272 
L 4684 1741 
L 678 1741 
L 678 2272 
z
" transform="scale(0.015625)"/>
        <path id="DejaVuSans-31" d="M 794 531 
L 1825 531 
L 1825 4091 
L 703 3866 
L 703 4441 
L 1819 4666 
L 2450 4666 
L 2450 531 
L 3481 531 
L 3481 0 
L 794 0 
L 794 531 
z
" transform="scale(0.015625)"/>
        <path id="DejaVuSans-2e" d="M 684 794 
L 1344 794 
L 1344 0 
L 684 0 
L 684 794 
z
" transform="scale(0.015625)"/>
        <path id="DejaVuSans-35" d="M 691 4666 
L 3169 4666 
L 3169 4134 
L 1269 4134 
L 1269 2991 
Q 1406 3038 1543 3061 
Q 1681 3084 1819 3084 
Q 2600 3084 3056 2656 
Q 3513 2228 3513 1497 
Q 3513 744 3044 326 
Q 2575 -91 1722 -91 
Q 1428 -91 1123 -41 
Q 819 9 494 109 
L 494 744 
Q 775 591 1075 516 
Q 1375 441 1709 441 
Q 2250 441 2565 725 
Q 2881 1009 2881 1497 
Q 2881 1984 2565 2268 
Q 2250 2553 1709 2553 
Q 1456 2553 1204 2497 
Q 953 2441 691 2322 
L 691 4666 
z
" transform="scale(0.015625)"/>
       </defs>
       <use xlink:href="#DejaVuSans-2212"/>
       <use xlink:href="#DejaVuSans-31" transform="translate(83.789062 0)"/>
       <use xlink:href="#DejaVuSans-2e" transform="translate(147.412109 0)"/>
       <use xlink:href="#DejaVuSans-35" transform="translate(179.199219 0)"/>
      </g>
     </g>
    </g>
    <g id="ytick_2">
     <g id="line2d_5">
      <g>
       <use xlink:href="#m5ce6b0617d" x="65.054" y="193.195593" style="stroke: #000000; stroke-width: 0.8"/>
      </g>
     </g>
     <g id="text_6">
      <!-- −1.0 -->
      <g transform="translate(31.342906 197.374734) scale(0.11 -0.11)">
       <use xlink:href="#DejaVuSans-2212"/>
       <use xlink:href="#DejaVuSans-31" transform="translate(83.789062 0)"/>
       <use xlink:href="#DejaVuSans-2e" transform="translate(147.412109 0)"/>
       <use xlink:href="#DejaVuSans-30" transform="translate(179.199219 0)"/>
      </g>
     </g>
    </g>
    <g id="ytick_3">
     <g id="line2d_6">
      <g>
       <use xlink:href="#m5ce6b0617d" x="65.054" y="160.867797" style="stroke: #000000; stroke-width: 0.8"/>
      </g>
     </g>
     <g id="text_7">
      <!-- −0.5 -->
      <g transform="translate(31.342906 165.046937) scale(0.11 -0.11)">
       <use xlink:href="#DejaVuSans-2212"/>
       <use xlink:href="#DejaVuSans-30" transform="translate(83.789062 0)"/>
       <use xlink:href="#DejaVuSans-2e" transform="translate(147.412109 0)"/>
       <use xlink:href="#DejaVuSans-35" transform="translate(179.199219 0)"/>
      </g>
     </g>
    </g>
    <g id="ytick_4">
     <g id="line2d_7">
      <g>
       <use xlink:href="#m5ce6b0617d" x="65.054" y="128.54" style="stroke: #000000; stroke-width: 0.8"/>
      </g>
     </g>
     <g id="text_8">
      <!-- 0.0 -->
      <g transform="translate(40.560563 132.719141) scale(0.11 -0.11)">
       <use xlink:href="#DejaVuSans-30"/>
       <use xlink:href="#DejaVuSans-2e" transform="translate(63.623047 0)"/>
       <use xlink:href="#DejaVuSans-30" transform="translate(95.410156 0)"/>
      </g>
     </g>
    </g>
    <g id="ytick_5">
     <g id="line2d_8">
      <g>
       <use xlink:href="#m5ce6b0617d" x="65.054" y="96.212203" style="stroke: #000000; stroke-width: 0.8"/>
      </g>
     </g>
     <g id="text_9">
      <!-- 0.5 -->
      <g transform="translate(40.560563 100.391344) scale(0.11 -0.11)">
       <use xlink:href="#DejaVuSans-30"/>
       <use xlink:href="#DejaVuSans-2e" transform="translate(63.623047 0)"/>
       <use xlink:href="#DejaVuSans-35" transform="translate(95.410156 0)"/>
      </g>
     </g>
    </g>
    <g id="ytick_6">
     <g id="line2d_9">
      <g>
       <use xlink:href="#m5ce6b0617d" x="65.054" y="63.884407" style="stroke: #000000; stroke-width: 0.8"/>
      </g>
     </g>
     <g id="text_10">
      <!-- 1.0 -->
      <g transform="translate(40.560563 68.063548) scale(0.11 -0.11)">
       <use xlink:href="#DejaVuSans-31"/>
       <use xlink:href="#DejaVuSans-2e" transform="translate(63.623047 0)"/>
       <use xlink:href="#DejaVuSans-30" transform="translate(95.410156 0)"/>
      </g>
     </g>
    </g>
    <g id="ytick_7">
     <g id="line2d_10">
      <g>
       <use xlink:href="#m5ce6b0617d" x="65.054" y="31.55661" style="stroke: #000000; stroke-width: 0.8"/>
      </g>
     </g>
     <g id="text_11">
      <!-- 1.5 -->
      <g transform="translate(40.560563 35.735751) scale(0.11 -0.11)">
       <use xlink:href="#DejaVuSans-31"/>
       <use xlink:href="#DejaVuSans-2e" transform="translate(63.623047 0)"/>
       <use xlink:href="#DejaVuSans-35" transform="translate(95.410156 0)"/>
      </g>
     </g>
    </g>
    <g id="text_12">
     <!-- $\psi_n(x)$  (nm$^{-1/2}$) -->
     <g transform="translate(25.032906 168.47) rotate(-90) scale(0.11 -0.11)">
      <defs>
       <path id="DejaVuSans-Oblique-3c8" d="M 1591 -78 
Q 891 38 616 341 
Q 278 713 425 1472 
L 819 3500 
L 1400 3500 
L 1009 1494 
Q 900 922 1119 684 
Q 1313 478 1691 434 
L 2284 3500 
L 2856 3500 
L 2263 438 
Q 2681 481 2928 688 
Q 3247 950 3353 1497 
L 3741 3500 
L 4322 3500 
L 3928 1475 
Q 3775 688 3300 344 
Q 2872 34 2163 -75 
L 1919 -1331 
L 1347 -1331 
L 1591 -78 
z
" transform="scale(0.015625)"/>
       <path id="DejaVuSans-Oblique-6e" d="M 3566 2113 
L 3156 0 
L 2578 0 
L 2988 2091 
Q 3016 2238 3031 2350 
Q 3047 2463 3047 2528 
Q 3047 2791 2881 2937 
Q 2716 3084 2419 3084 
Q 1956 3084 1622 2776 
Q 1288 2469 1184 1941 
L 800 0 
L 225 0 
L 903 3500 
L 1478 3500 
L 1363 2950 
Q 1603 3253 1940 3418 
Q 2278 3584 2650 3584 
Q 3113 3584 3367 3334 
Q 3622 3084 3622 2631 
Q 3622 2519 3608 2391 
Q 3594 2263 3566 2113 
z
" transform="scale(0.015625)"/>
       <path id="DejaVuSans-28" d="M 1984 4856 
Q 1566 4138 1362 3434 
Q 1159 2731 1159 2009 
Q 1159 1288 1364 580 
Q 1569 -128 1984 -844 
L 1484 -844 
Q 1016 -109 783 600 
Q 550 1309 550 2009 
Q 550 2706 781 3412 
Q 1013 4119 1484 4856 
L 1984 4856 
z
" transform="scale(0.015625)"/>
       <path id="DejaVuSans-Oblique-78" d="M 3841 3500 
L 2234 1784 
L 3219 0 
L 2559 0 
L 1819 1388 
L 531 0 
L -166 0 
L 1556 1844 
L 641 3500 
L 1300 3500 
L 1972 2234 
L 3144 3500 
L 3841 3500 
z
" transform="scale(0.015625)"/>
       <path id="DejaVuSans-29" d="M 513 4856 
L 1013 4856 
Q 1481 4119 1714 3412 
Q 1947 2706 1947 2009 
Q 1947 1309 1714 600 
Q 1481 -109 1013 -844 
L 513 -844 
Q 928 -128 1133 580 
Q 1338 1288 1338 2009 
Q 1338 2731 1133 3434 
Q 928 4138 513 4856 
z
" transform="scale(0.015625)"/>
       <path id="DejaVuSans-6e" d="M 3513 2113 
L 3513 0 
L 2938 0 
L 2938 2094 
Q 2938 2591 2744 2837 
Q 2550 3084 2163 3084 
Q 1697 3084 1428 2787 
Q 1159 2491 1159 1978 
L 1159 0 
L 581 0 
L 581 3500 
L 1159 3500 
L 1159 2956 
Q 1366 3272 1645 3428 
Q 1925 3584 2291 3584 
Q 2894 3584 3203 3211 
Q 3513 2838 3513 2113 
z
" transform="scale(0.015625)"/>
       <path id="DejaVuSans-6d" d="M 3328 2828 
Q 3544 3216 3844 3400 
Q 4144 3584 4550 3584 
Q 5097 3584 5394 3201 
Q 5691 2819 5691 2113 
L 5691 0 
L 5113 0 
L 5113 2094 
Q 5113 2597 4934 2840 
Q 4756 3084 4391 3084 
Q 3944 3084 3684 2787 
Q 3425 2491 3425 1978 
L 3425 0 
L 2847 0 
L 2847 2094 
Q 2847 2600 2669 2842 
Q 2491 3084 2119 3084 
Q 1678 3084 1418 2786 
Q 1159 2488 1159 1978 
L 1159 0 
L 581 0 
L 581 3500 
L 1159 3500 
L 1159 2956 
Q 1356 3278 1631 3431 
Q 1906 3584 2284 3584 
Q 2666 3584 2933 3390 
Q 3200 3197 3328 2828 
z
" transform="scale(0.015625)"/>
      </defs>
      <use xlink:href="#DejaVuSans-Oblique-3c8" transform="translate(0 0.765625)"/>
      <use xlink:href="#DejaVuSans-Oblique-6e" transform="translate(65.966797 -15.640625) scale(0.7)"/>
      <use xlink:href="#DejaVuSans-28" transform="translate(113.066406 0.765625)"/>
      <use xlink:href="#DejaVuSans-Oblique-78" transform="translate(152.080078 0.765625)"/>
      <use xlink:href="#DejaVuSans-29" transform="translate(211.259766 0.765625)"/>
      <use xlink:href="#DejaVuSans-20" transform="translate(250.273438 0.765625)"/>
      <use xlink:href="#DejaVuSans-20" transform="translate(282.060547 0.765625)"/>
      <use xlink:href="#DejaVuSans-28" transform="translate(313.847656 0.765625)"/>
      <use xlink:href="#DejaVuSans-6e" transform="translate(352.861328 0.765625)"/>
      <use xlink:href="#DejaVuSans-6d" transform="translate(416.240234 0.765625)"/>
      <use xlink:href="#DejaVuSans-2212" transform="translate(514.609375 39.046875) scale(0.7)"/>
      <use xlink:href="#DejaVuSans-31" transform="translate(573.261719 39.046875) scale(0.7)"/>
      <use xlink:href="#DejaVuSans-2f" transform="translate(617.797852 39.046875) scale(0.7)"/>
      <use xlink:href="#DejaVuSans-32" transform="translate(638.844336 39.046875) scale(0.7)"/>
      <use xlink:href="#DejaVuSans-29" transform="translate(686.114844 0.765625)"/>
     </g>
    </g>
   </g>
   <g id="line2d_11">
    <path d="M 75.279955 128.54 
L 90.034839 107.993006 
L 98.231997 96.966432 
L 104.789723 88.496985 
L 110.937592 80.924016 
L 116.265744 74.701686 
L 121.184039 69.277005 
L 126.102334 64.190419 
L 130.610771 59.849543 
L 134.70935 56.188541 
L 138.807929 52.814222 
L 142.906508 49.739957 
L 146.595229 47.239757 
L 150.28395 45.000508 
L 153.972671 43.029399 
L 157.661392 41.332754 
L 160.940255 40.059463 
L 164.219118 39.010579 
L 167.497982 38.18876 
L 170.776845 37.596093 
L 174.055708 37.234079 
L 177.334571 37.103636 
L 180.613434 37.205097 
L 183.892297 37.538203 
L 187.171161 38.102109 
L 190.450024 38.895386 
L 193.728887 39.916021 
L 197.00775 41.161426 
L 200.286613 42.628442 
L 203.975334 44.539075 
L 207.664055 46.719328 
L 211.352777 49.162203 
L 215.041498 51.859859 
L 219.140077 55.145513 
L 223.238656 58.721983 
L 227.747092 62.975046 
L 232.255529 67.542436 
L 237.173824 72.857765 
L 242.501977 78.973521 
L 248.239987 85.929608 
L 254.387856 93.748185 
L 261.35544 102.980193 
L 269.962456 114.776533 
L 279.799045 128.54 
L 279.799045 128.54 
" clip-path="url(#p874a204243)" style="fill: none; stroke: #0072b2; stroke-width: 2.2; stroke-linecap: square"/>
   </g>
   <g id="line2d_12">
    <path d="M 75.279955 128.54 
L 84.296828 103.533413 
L 89.215123 90.579577 
L 93.313702 80.433513 
L 96.592565 72.857765 
L 99.871428 65.846549 
L 102.740434 60.230862 
L 105.609439 55.145513 
L 108.068586 51.238793 
L 110.527734 47.773075 
L 112.577023 45.236197 
L 114.626313 43.029399 
L 116.675602 41.161426 
L 118.724892 39.639679 
L 120.364323 38.675663 
L 122.003755 37.939563 
L 123.643186 37.433246 
L 125.282618 37.157995 
L 126.92205 37.114509 
L 128.561481 37.302898 
L 130.200913 37.722685 
L 131.840344 38.372804 
L 133.479776 39.251607 
L 135.119208 40.356865 
L 137.168497 42.052565 
L 139.217787 44.09096 
L 141.267076 46.463974 
L 143.316366 49.162203 
L 145.775513 52.814222 
L 148.23466 56.898255 
L 150.693808 61.391003 
L 153.562813 67.114796 
L 156.431818 73.31548 
L 159.710681 80.924016 
L 163.399403 90.056621 
L 167.907839 101.876814 
L 173.64585 117.628416 
L 188.400734 158.487262 
L 192.909171 170.128366 
L 196.597892 179.070016 
L 199.876755 186.477344 
L 202.745761 192.479333 
L 205.614766 197.984912 
L 208.073913 202.276363 
L 210.533061 206.147151 
L 212.992208 209.57519 
L 215.041498 212.079492 
L 217.090787 214.252779 
L 219.140077 216.08644 
L 221.189366 217.573209 
L 222.828798 218.508857 
L 224.468229 219.216325 
L 226.107661 219.693817 
L 227.747092 219.940123 
L 229.386524 219.954619 
L 231.025956 219.737267 
L 232.665387 219.288619 
L 234.304819 218.609812 
L 235.94425 217.702568 
L 237.583682 216.569189 
L 239.632971 214.838894 
L 241.682261 212.766652 
L 243.73155 210.360672 
L 245.78084 207.630487 
L 248.239987 203.941637 
L 250.699135 199.822622 
L 253.158282 195.29694 
L 256.027287 189.537564 
L 258.896293 183.304616 
L 262.175156 175.663593 
L 265.863877 166.500423 
L 270.372314 154.652014 
L 276.110324 138.87982 
L 279.799045 128.54 
L 279.799045 128.54 
" clip-path="url(#p874a204243)" style="fill: none; stroke: #d55e00; stroke-width: 2.2; stroke-linecap: square"/>
   </g>
   <g id="line2d_13">
    <path d="M 65.054 128.54 
L 290.025 128.54 
" clip-path="url(#p874a204243)" style="fill: none; stroke: #999999; stroke-width: 0.6; stroke-linecap: square"/>
   </g>
   <g id="patch_3">
    <path d="M 65.054 229.12 
L 65.054 27.96 
" style="fill: none; stroke: #000000; stroke-linejoin: miter; stroke-linecap: square"/>
   </g>
   <g id="patch_4">
    <path d="M 65.054 229.12 
L 290.025 229.12 
" style="fill: none; stroke: #000000; stroke-linejoin: miter; stroke-linecap: square"/>
   </g>
   <g id="text_13">
    <!-- Eigenfunctions -->
    <g transform="translate(133.14325 21.96) scale(0.12 -0.12)">
     <defs>
      <path id="DejaVuSans-45" d="M 628 4666 
L 3578 4666 
L 3578 4134 
L 1259 4134 
L 1259 2753 
L 3481 2753 
L 3481 2222 
L 1259 2222 
L 1259 531 
L 3634 531 
L 3634 0 
L 628 0 
L 628 4666 
z
" transform="scale(0.015625)"/>
      <path id="DejaVuSans-69" d="M 603 3500 
L 1178 3500 
L 1178 0 
L 603 0 
L 603 3500 
z
M 603 4863 
L 1178 4863 
L 1178 4134 
L 603 4134 
L 603 4863 
z
" transform="scale(0.015625)"/>
      <path id="DejaVuSans-67" d="M 2906 1791 
Q 2906 2416 2648 2759 
Q 2391 3103 1925 3103 
Q 1463 3103 1205 2759 
Q 947 2416 947 1791 
Q 947 1169 1205 825 
Q 1463 481 1925 481 
Q 2391 481 2648 825 
Q 2906 1169 2906 1791 
z
M 3481 434 
Q 3481 -459 3084 -895 
Q 2688 -1331 1869 -1331 
Q 1566 -1331 1297 -1286 
Q 1028 -1241 775 -1147 
L 775 -588 
Q 1028 -725 1275 -790 
Q 1522 -856 1778 -856 
Q 2344 -856 2625 -561 
Q 2906 -266 2906 331 
L 2906 616 
Q 2728 306 2450 153 
Q 2172 0 1784 0 
Q 1141 0 747 490 
Q 353 981 353 1791 
Q 353 2603 747 3093 
Q 1141 3584 1784 3584 
Q 2172 3584 2450 3431 
Q 2728 3278 2906 2969 
L 2906 3500 
L 3481 3500 
L 3481 434 
z
" transform="scale(0.015625)"/>
      <path id="DejaVuSans-65" d="M 3597 1894 
L 3597 1613 
L 953 1613 
Q 991 1019 1311 708 
Q 1631 397 2203 397 
Q 2534 397 2845 478 
Q 3156 559 3463 722 
L 3463 178 
Q 3153 47 2828 -22 
Q 2503 -91 2169 -91 
Q 1331 -91 842 396 
Q 353 884 353 1716 
Q 353 2575 817 3079 
Q 1281 3584 2069 3584 
Q 2775 3584 3186 3129 
Q 3597 2675 3597 1894 
z
M 3022 2063 
Q 3016 2534 2758 2815 
Q 2500 3097 2075 3097 
Q 1594 3097 1305 2825 
Q 1016 2553 972 2059 
L 3022 2063 
z
" transform="scale(0.015625)"/>
      <path id="DejaVuSans-66" d="M 2375 4863 
L 2375 4384 
L 1825 4384 
Q 1516 4384 1395 4259 
Q 1275 4134 1275 3809 
L 1275 3500 
L 2222 3500 
L 2222 3053 
L 1275 3053 
L 1275 0 
L 697 0 
L 697 3053 
L 147 3053 
L 147 3500 
L 697 3500 
L 697 3744 
Q 697 4328 969 4595 
Q 1241 4863 1831 4863 
L 2375 4863 
z
" transform="scale(0.015625)"/>
      <path id="DejaVuSans-75" d="M 544 1381 
L 544 3500 
L 1119 3500 
L 1119 1403 
Q 1119 906 1312 657 
Q 1506 409 1894 409 
Q 2359 409 2629 706 
Q 2900 1003 2900 1516 
L 2900 3500 
L 3475 3500 
L 3475 0 
L 2900 0 
L 2900 538 
Q 2691 219 2414 64 
Q 2138 -91 1772 -91 
Q 1169 -91 856 284 
Q 544 659 544 1381 
z
M 1991 3584 
L 1991 3584 
z
" transform="scale(0.015625)"/>
      <path id="DejaVuSans-63" d="M 3122 3366 
L 3122 2828 
Q 2878 2963 2633 3030 
Q 2388 3097 2138 3097 
Q 1578 3097 1268 2742 
Q 959 2388 959 1747 
Q 959 1106 1268 751 
Q 1578 397 2138 397 
Q 2388 397 2633 464 
Q 2878 531 3122 666 
L 3122 134 
Q 2881 22 2623 -34 
Q 2366 -91 2075 -91 
Q 1284 -91 818 406 
Q 353 903 353 1747 
Q 353 2603 823 3093 
Q 1294 3584 2113 3584 
Q 2378 3584 2631 3529 
Q 2884 3475 3122 3366 
z
" transform="scale(0.015625)"/>
      <path id="DejaVuSans-74" d="M 1172 4494 
L 1172 3500 
L 2356 3500 
L 2356 3053 
L 1172 3053 
L 1172 1153 
Q 1172 725 1289 603 
Q 1406 481 1766 481 
L 2356 481 
L 2356 0 
L 1766 0 
Q 1100 0 847 248 
Q 594 497 594 1153 
L 594 3053 
L 172 3053 
L 172 3500 
L 594 3500 
L 594 4494 
L 1172 4494 
z
" transform="scale(0.015625)"/>
      <path id="DejaVuSans-6f" d="M 1959 3097 
Q 1497 3097 1228 2736 
Q 959 2375 959 1747 
Q 959 1119 1226 758 
Q 1494 397 1959 397 
Q 2419 397 2687 759 
Q 2956 1122 2956 1747 
Q 2956 2369 2687 2733 
Q 2419 3097 1959 3097 
z
M 1959 3584 
Q 2709 3584 3137 3096 
Q 3566 2609 3566 1747 
Q 3566 888 3137 398 
Q 2709 -91 1959 -91 
Q 1206 -91 779 398 
Q 353 888 353 1747 
Q 353 2609 779 3096 
Q 1206 3584 1959 3584 
z
" transform="scale(0.015625)"/>
      <path id="DejaVuSans-73" d="M 2834 3397 
L 2834 2853 
Q 2591 2978 2328 3040 
Q 2066 3103 1784 3103 
Q 1356 3103 1142 2972 
Q 928 2841 928 2578 
Q 928 2378 1081 2264 
Q 1234 2150 1697 2047 
L 1894 2003 
Q 2506 1872 2764 1633 
Q 3022 1394 3022 966 
Q 3022 478 2636 193 
Q 2250 -91 1575 -91 
Q 1294 -91 989 -36 
Q 684 19 347 128 
L 347 722 
Q 666 556 975 473 
Q 1284 391 1588 391 
Q 1994 391 2212 530 
Q 2431 669 2431 922 
Q 2431 1156 2273 1281 
Q 2116 1406 1581 1522 
L 1381 1569 
Q 847 1681 609 1914 
Q 372 2147 372 2553 
Q 372 3047 722 3315 
Q 1072 3584 1716 3584 
Q 2034 3584 2315 3537 
Q 2597 3491 2834 3397 
z
" transform="scale(0.015625)"/>
     </defs>
     <use xlink:href="#DejaVuSans-45"/>
     <use xlink:href="#DejaVuSans-69" transform="translate(63.183594 0)"/>
     <use xlink:href="#DejaVuSans-67" transform="translate(90.966797 0)"/>
     <use xlink:href="#DejaVuSans-65" transform="translate(154.443359 0)"/>
     <use xlink:href="#DejaVuSans-6e" transform="translate(215.966797 0)"/>
     <use xlink:href="#DejaVuSans-66" transform="translate(279.345703 0)"/>
     <use xlink:href="#DejaVuSans-75" transform="translate(314.550781 0)"/>
     <use xlink:href="#DejaVuSans-6e" transform="translate(377.929688 0)"/>
     <use xlink:href="#DejaVuSans-63" transform="translate(441.308594 0)"/>
     <use xlink:href="#DejaVuSans-74" transform="translate(496.289062 0)"/>
     <use xlink:href="#DejaVuSans-69" transform="translate(535.498047 0)"/>
     <use xlink:href="#DejaVuSans-6f" transform="translate(563.28125 0)"/>
     <use xlink:href="#DejaVuSans-6e" transform="translate(624.462891 0)"/>
     <use xlink:href="#DejaVuSans-73" transform="translate(687.841797 0)"/>
    </g>
   </g>
   <g id="legend_1">
    <g id="line2d_14">
     <path d="M 73.154 202.75 
L 82.154 202.75 
L 91.154 202.75 
" style="fill: none; stroke: #0072b2; stroke-width: 2.2; stroke-linecap: square"/>
    </g>
    <g id="text_14">
     <!-- $\psi_1$ (0 nodes) -->
     <g transform="translate(98.354 205.9) scale(0.09 -0.09)">
      <defs>
       <path id="DejaVuSans-64" d="M 2906 2969 
L 2906 4863 
L 3481 4863 
L 3481 0 
L 2906 0 
L 2906 525 
Q 2725 213 2448 61 
Q 2172 -91 1784 -91 
Q 1150 -91 751 415 
Q 353 922 353 1747 
Q 353 2572 751 3078 
Q 1150 3584 1784 3584 
Q 2172 3584 2448 3432 
Q 2725 3281 2906 2969 
z
M 947 1747 
Q 947 1113 1208 752 
Q 1469 391 1925 391 
Q 2381 391 2643 752 
Q 2906 1113 2906 1747 
Q 2906 2381 2643 2742 
Q 2381 3103 1925 3103 
Q 1469 3103 1208 2742 
Q 947 2381 947 1747 
z
" transform="scale(0.015625)"/>
      </defs>
      <use xlink:href="#DejaVuSans-Oblique-3c8" transform="translate(0 0.015625)"/>
      <use xlink:href="#DejaVuSans-31" transform="translate(65.966797 -16.390625) scale(0.7)"/>
      <use xlink:href="#DejaVuSans-20" transform="translate(113.237305 0.015625)"/>
      <use xlink:href="#DejaVuSans-28" transform="translate(145.024414 0.015625)"/>
      <use xlink:href="#DejaVuSans-30" transform="translate(184.038086 0.015625)"/>
      <use xlink:href="#DejaVuSans-20" transform="translate(247.661133 0.015625)"/>
      <use xlink:href="#DejaVuSans-6e" transform="translate(279.448242 0.015625)"/>
      <use xlink:href="#DejaVuSans-6f" transform="translate(342.827148 0.015625)"/>
      <use xlink:href="#DejaVuSans-64" transform="translate(404.008789 0.015625)"/>
      <use xlink:href="#DejaVuSans-65" transform="translate(467.485352 0.015625)"/>
      <use xlink:href="#DejaVuSans-73" transform="translate(529.008789 0.015625)"/>
      <use xlink:href="#DejaVuSans-29" transform="translate(581.108398 0.015625)"/>
     </g>
    </g>
    <g id="line2d_15">
     <path d="M 73.154 215.98 
L 82.154 215.98 
L 91.154 215.98 
" style="fill: none; stroke: #d55e00; stroke-width: 2.2; stroke-linecap: square"/>
    </g>
    <g id="text_15">
     <!-- $\psi_2$ (1 node) -->
     <g transform="translate(98.354 219.13) scale(0.09 -0.09)">
      <use xlink:href="#DejaVuSans-Oblique-3c8" transform="translate(0 0.015625)"/>
      <use xlink:href="#DejaVuSans-32" transform="translate(65.966797 -16.390625) scale(0.7)"/>
      <use xlink:href="#DejaVuSans-20" transform="translate(113.237305 0.015625)"/>
      <use xlink:href="#DejaVuSans-28" transform="translate(145.024414 0.015625)"/>
      <use xlink:href="#DejaVuSans-31" transform="translate(184.038086 0.015625)"/>
      <use xlink:href="#DejaVuSans-20" transform="translate(247.661133 0.015625)"/>
      <use xlink:href="#DejaVuSans-6e" transform="translate(279.448242 0.015625)"/>
      <use xlink:href="#DejaVuSans-6f" transform="translate(342.827148 0.015625)"/>
      <use xlink:href="#DejaVuSans-64" transform="translate(404.008789 0.015625)"/>
      <use xlink:href="#DejaVuSans-65" transform="translate(467.485352 0.015625)"/>
      <use xlink:href="#DejaVuSans-29" transform="translate(529.008789 0.015625)"/>
     </g>
    </g>
   </g>
  </g>
  <g id="axes_2">
   <g id="patch_5">
    <path d="M 353.549 229.12 
L 578.52 229.12 
L 578.52 27.96 
L 353.549 27.96 
z
" style="fill: #ffffff"/>
   </g>
   <g id="FillBetweenPolyCollection_1">
    <defs>
     <path id="m7287814cc9" d="M 363.774955 -44.48 
L 363.774955 -44.48 
L 364.184812 -44.487594 
L 364.59467 -44.510373 
L 365.004528 -44.548335 
L 365.414386 -44.601474 
L 365.824244 -44.669781 
L 366.234102 -44.753244 
L 366.64396 -44.851852 
L 367.053818 -44.965588 
L 367.463676 -45.094434 
L 367.873534 -45.23837 
L 368.283391 -45.397374 
L 368.693249 -45.571419 
L 369.103107 -45.760478 
L 369.512965 -45.964521 
L 369.922823 -46.183517 
L 370.332681 -46.417429 
L 370.742539 -46.666222 
L 371.152397 -46.929855 
L 371.562255 -47.208287 
L 371.972112 -47.501474 
L 372.38197 -47.809369 
L 372.791828 -48.131923 
L 373.201686 -48.469086 
L 373.611544 -48.820804 
L 374.021402 -49.18702 
L 374.43126 -49.567678 
L 374.841118 -49.962716 
L 375.250976 -50.372072 
L 375.660834 -50.795682 
L 376.070691 -51.233477 
L 376.480549 -51.685389 
L 376.890407 -52.151346 
L 377.300265 -52.631273 
L 377.710123 -53.125096 
L 378.119981 -53.632735 
L 378.529839 -54.154111 
L 378.939697 -54.689139 
L 379.349555 -55.237737 
L 379.759413 -55.799816 
L 380.16927 -56.375288 
L 380.579128 -56.964061 
L 380.988986 -57.566042 
L 381.398844 -58.181136 
L 381.808702 -58.809244 
L 382.21856 -59.450268 
L 382.628418 -60.104106 
L 383.038276 -60.770654 
L 383.448134 -61.449807 
L 383.857992 -62.141456 
L 384.267849 -62.845492 
L 384.677707 -63.561804 
L 385.087565 -64.290278 
L 385.497423 -65.030798 
L 385.907281 -65.783247 
L 386.317139 -66.547506 
L 386.726997 -67.323454 
L 387.136855 -68.110967 
L 387.546713 -68.909921 
L 387.956571 -69.720189 
L 388.366428 -70.541642 
L 388.776286 -71.374151 
L 389.186144 -72.217583 
L 389.596002 -73.071805 
L 390.00586 -73.93668 
L 390.415718 -74.812073 
L 390.825576 -75.697844 
L 391.235434 -76.593853 
L 391.645292 -77.499958 
L 392.055149 -78.416015 
L 392.465007 -79.341879 
L 392.874865 -80.277402 
L 393.284723 -81.222438 
L 393.694581 -82.176836 
L 394.104439 -83.140444 
L 394.514297 -84.11311 
L 394.924155 -85.094679 
L 395.334013 -86.084997 
L 395.743871 -87.083905 
L 396.153728 -88.091246 
L 396.563586 -89.106861 
L 396.973444 -90.130587 
L 397.383302 -91.162262 
L 397.79316 -92.201724 
L 398.203018 -93.248806 
L 398.612876 -94.303345 
L 399.022734 -95.365171 
L 399.432592 -96.434116 
L 399.84245 -97.510012 
L 400.252307 -98.592688 
L 400.662165 -99.681971 
L 401.072023 -100.77769 
L 401.481881 -101.87967 
L 401.891739 -102.987737 
L 402.301597 -104.101715 
L 402.711455 -105.221428 
L 403.121313 -106.346698 
L 403.531171 -107.477346 
L 403.941029 -108.613194 
L 404.350886 -109.754061 
L 404.760744 -110.899766 
L 405.170602 -112.050129 
L 405.58046 -113.204965 
L 405.990318 -114.364093 
L 406.400176 -115.527328 
L 406.810034 -116.694486 
L 407.219892 -117.865382 
L 407.62975 -119.039831 
L 408.039607 -120.217646 
L 408.449465 -121.39864 
L 408.859323 -122.582626 
L 409.269181 -123.769417 
L 409.679039 -124.958824 
L 410.088897 -126.150659 
L 410.498755 -127.344733 
L 410.908613 -128.540856 
L 411.318471 -129.738839 
L 411.728329 -130.938492 
L 412.138186 -132.139625 
L 412.548044 -133.342046 
L 412.957902 -134.545567 
L 413.36776 -135.749995 
L 413.777618 -136.95514 
L 414.187476 -138.160811 
L 414.597334 -139.366817 
L 415.007192 -140.572966 
L 415.41705 -141.779067 
L 415.826908 -142.984929 
L 416.236765 -144.190361 
L 416.646623 -145.395171 
L 417.056481 -146.59917 
L 417.466339 -147.802164 
L 417.876197 -149.003966 
L 418.286055 -150.204382 
L 418.695913 -151.403224 
L 419.105771 -152.600301 
L 419.515629 -153.795423 
L 419.925487 -154.988401 
L 420.335344 -156.179045 
L 420.745202 -157.367168 
L 421.15506 -158.55258 
L 421.564918 -159.735094 
L 421.974776 -160.914522 
L 422.384634 -162.090677 
L 422.794492 -163.263372 
L 423.20435 -164.432423 
L 423.614208 -165.597642 
L 424.024065 -166.758847 
L 424.433923 -167.915852 
L 424.843781 -169.068474 
L 425.253639 -170.21653 
L 425.663497 -171.359839 
L 426.073355 -172.498219 
L 426.483213 -173.63149 
L 426.893071 -174.759471 
L 427.302929 -175.881985 
L 427.712787 -176.998852 
L 428.122644 -178.109897 
L 428.532502 -179.214943 
L 428.94236 -180.313814 
L 429.352218 -181.406337 
L 429.762076 -182.492338 
L 430.171934 -183.571645 
L 430.581792 -184.644087 
L 430.99165 -185.709494 
L 431.401508 -186.767697 
L 431.811366 -187.818528 
L 432.221223 -188.861821 
L 432.631081 -189.89741 
L 433.040939 -190.925131 
L 433.450797 -191.944821 
L 433.860655 -192.956319 
L 434.270513 -193.959464 
L 434.680371 -194.954097 
L 435.090229 -195.94006 
L 435.500087 -196.917197 
L 435.909945 -197.885353 
L 436.319802 -198.844375 
L 436.72966 -199.79411 
L 437.139518 -200.734409 
L 437.549376 -201.665121 
L 437.959234 -202.586099 
L 438.369092 -203.497198 
L 438.77895 -204.398273 
L 439.188808 -205.28918 
L 439.598666 -206.16978 
L 440.008524 -207.039932 
L 440.418381 -207.899497 
L 440.828239 -208.748341 
L 441.238097 -209.586328 
L 441.647955 -210.413325 
L 442.057813 -211.229202 
L 442.467671 -212.033829 
L 442.877529 -212.827078 
L 443.287387 -213.608824 
L 443.697245 -214.378943 
L 444.107102 -215.137312 
L 444.51696 -215.883811 
L 444.926818 -216.618323 
L 445.336676 -217.34073 
L 445.746534 -218.050918 
L 446.156392 -218.748775 
L 446.56625 -219.434189 
L 446.976108 -220.107053 
L 447.385966 -220.767259 
L 447.795824 -221.414703 
L 448.205681 -222.049282 
L 448.615539 -222.670895 
L 449.025397 -223.279444 
L 449.435255 -223.874833 
L 449.845113 -224.456967 
L 450.254971 -225.025754 
L 450.664829 -225.581103 
L 451.074687 -226.122927 
L 451.484545 -226.65114 
L 451.894403 -227.165657 
L 452.30426 -227.666398 
L 452.714118 -228.153283 
L 453.123976 -228.626235 
L 453.533834 -229.085178 
L 453.943692 -229.53004 
L 454.35355 -229.960751 
L 454.763408 -230.377242 
L 455.173266 -230.779447 
L 455.583124 -231.167303 
L 455.992982 -231.540748 
L 456.402839 -231.899722 
L 456.812697 -232.244169 
L 457.222555 -232.574034 
L 457.632413 -232.889265 
L 458.042271 -233.189812 
L 458.452129 -233.475627 
L 458.861987 -233.746665 
L 459.271845 -234.002883 
L 459.681703 -234.24424 
L 460.09156 -234.470699 
L 460.501418 -234.682222 
L 460.911276 -234.878778 
L 461.321134 -235.060333 
L 461.730992 -235.226861 
L 462.14085 -235.378333 
L 462.550708 -235.514727 
L 462.960566 -235.636021 
L 463.370424 -235.742195 
L 463.780282 -235.833232 
L 464.190139 -235.909119 
L 464.599997 -235.969843 
L 465.009855 -236.015394 
L 465.419713 -236.045765 
L 465.829571 -236.060952 
L 466.239429 -236.060952 
L 466.649287 -236.045765 
L 467.059145 -236.015394 
L 467.469003 -235.969843 
L 467.878861 -235.909119 
L 468.288718 -235.833232 
L 468.698576 -235.742195 
L 469.108434 -235.636021 
L 469.518292 -235.514727 
L 469.92815 -235.378333 
L 470.338008 -235.226861 
L 470.747866 -235.060333 
L 471.157724 -234.878778 
L 471.567582 -234.682222 
L 471.97744 -234.470699 
L 472.387297 -234.24424 
L 472.797155 -234.002883 
L 473.207013 -233.746665 
L 473.616871 -233.475627 
L 474.026729 -233.189812 
L 474.436587 -232.889265 
L 474.846445 -232.574034 
L 475.256303 -232.244169 
L 475.666161 -231.899722 
L 476.076018 -231.540748 
L 476.485876 -231.167303 
L 476.895734 -230.779447 
L 477.305592 -230.377242 
L 477.71545 -229.960751 
L 478.125308 -229.53004 
L 478.535166 -229.085178 
L 478.945024 -228.626235 
L 479.354882 -228.153283 
L 479.76474 -227.666398 
L 480.174597 -227.165657 
L 480.584455 -226.65114 
L 480.994313 -226.122927 
L 481.404171 -225.581103 
L 481.814029 -225.025754 
L 482.223887 -224.456967 
L 482.633745 -223.874833 
L 483.043603 -223.279444 
L 483.453461 -222.670895 
L 483.863319 -222.049282 
L 484.273176 -221.414703 
L 484.683034 -220.767259 
L 485.092892 -220.107053 
L 485.50275 -219.434189 
L 485.912608 -218.748775 
L 486.322466 -218.050918 
L 486.732324 -217.34073 
L 487.142182 -216.618323 
L 487.55204 -215.883811 
L 487.961898 -215.137312 
L 488.371755 -214.378943 
L 488.781613 -213.608824 
L 489.191471 -212.827078 
L 489.601329 -212.033829 
L 490.011187 -211.229202 
L 490.421045 -210.413325 
L 490.830903 -209.586328 
L 491.240761 -208.748341 
L 491.650619 -207.899497 
L 492.060476 -207.039932 
L 492.470334 -206.16978 
L 492.880192 -205.28918 
L 493.29005 -204.398273 
L 493.699908 -203.497198 
L 494.109766 -202.586099 
L 494.519624 -201.665121 
L 494.929482 -200.734409 
L 495.33934 -199.79411 
L 495.749198 -198.844375 
L 496.159055 -197.885353 
L 496.568913 -196.917197 
L 496.978771 -195.94006 
L 497.388629 -194.954097 
L 497.798487 -193.959464 
L 498.208345 -192.956319 
L 498.618203 -191.944821 
L 499.028061 -190.925131 
L 499.437919 -189.89741 
L 499.847777 -188.861821 
L 500.257634 -187.818528 
L 500.667492 -186.767697 
L 501.07735 -185.709494 
L 501.487208 -184.644087 
L 501.897066 -183.571645 
L 502.306924 -182.492338 
L 502.716782 -181.406337 
L 503.12664 -180.313814 
L 503.536498 -179.214943 
L 503.946356 -178.109897 
L 504.356213 -176.998852 
L 504.766071 -175.881985 
L 505.175929 -174.759471 
L 505.585787 -173.63149 
L 505.995645 -172.498219 
L 506.405503 -171.359839 
L 506.815361 -170.21653 
L 507.225219 -169.068474 
L 507.635077 -167.915852 
L 508.044935 -166.758847 
L 508.454792 -165.597642 
L 508.86465 -164.432423 
L 509.274508 -163.263372 
L 509.684366 -162.090677 
L 510.094224 -160.914522 
L 510.504082 -159.735094 
L 510.91394 -158.55258 
L 511.323798 -157.367168 
L 511.733656 -156.179045 
L 512.143513 -154.988401 
L 512.553371 -153.795423 
L 512.963229 -152.600301 
L 513.373087 -151.403224 
L 513.782945 -150.204382 
L 514.192803 -149.003966 
L 514.602661 -147.802164 
L 515.012519 -146.59917 
L 515.422377 -145.395171 
L 515.832235 -144.190361 
L 516.242092 -142.984929 
L 516.65195 -141.779067 
L 517.061808 -140.572966 
L 517.471666 -139.366817 
L 517.881524 -138.160811 
L 518.291382 -136.95514 
L 518.70124 -135.749995 
L 519.111098 -134.545567 
L 519.520956 -133.342046 
L 519.930814 -132.139625 
L 520.340671 -130.938492 
L 520.750529 -129.738839 
L 521.160387 -128.540856 
L 521.570245 -127.344733 
L 521.980103 -126.150659 
L 522.389961 -124.958824 
L 522.799819 -123.769417 
L 523.209677 -122.582626 
L 523.619535 -121.39864 
L 524.029393 -120.217646 
L 524.43925 -119.039831 
L 524.849108 -117.865382 
L 525.258966 -116.694486 
L 525.668824 -115.527328 
L 526.078682 -114.364093 
L 526.48854 -113.204965 
L 526.898398 -112.050129 
L 527.308256 -110.899766 
L 527.718114 -109.754061 
L 528.127971 -108.613194 
L 528.537829 -107.477346 
L 528.947687 -106.346698 
L 529.357545 -105.221428 
L 529.767403 -104.101715 
L 530.177261 -102.987737 
L 530.587119 -101.87967 
L 530.996977 -100.77769 
L 531.406835 -99.681971 
L 531.816693 -98.592688 
L 532.22655 -97.510012 
L 532.636408 -96.434116 
L 533.046266 -95.365171 
L 533.456124 -94.303345 
L 533.865982 -93.248806 
L 534.27584 -92.201724 
L 534.685698 -91.162262 
L 535.095556 -90.130587 
L 535.505414 -89.106861 
L 535.915272 -88.091246 
L 536.325129 -87.083905 
L 536.734987 -86.084997 
L 537.144845 -85.094679 
L 537.554703 -84.11311 
L 537.964561 -83.140444 
L 538.374419 -82.176836 
L 538.784277 -81.222438 
L 539.194135 -80.277402 
L 539.603993 -79.341879 
L 540.013851 -78.416015 
L 540.423708 -77.499958 
L 540.833566 -76.593853 
L 541.243424 -75.697844 
L 541.653282 -74.812073 
L 542.06314 -73.93668 
L 542.472998 -73.071805 
L 542.882856 -72.217583 
L 543.292714 -71.374151 
L 543.702572 -70.541642 
L 544.112429 -69.720189 
L 544.522287 -68.909921 
L 544.932145 -68.110967 
L 545.342003 -67.323454 
L 545.751861 -66.547506 
L 546.161719 -65.783247 
L 546.571577 -65.030798 
L 546.981435 -64.290278 
L 547.391293 -63.561804 
L 547.801151 -62.845492 
L 548.211008 -62.141456 
L 548.620866 -61.449807 
L 549.030724 -60.770654 
L 549.440582 -60.104106 
L 549.85044 -59.450268 
L 550.260298 -58.809244 
L 550.670156 -58.181136 
L 551.080014 -57.566042 
L 551.489872 -56.964061 
L 551.89973 -56.375288 
L 552.309587 -55.799816 
L 552.719445 -55.237737 
L 553.129303 -54.689139 
L 553.539161 -54.154111 
L 553.949019 -53.632735 
L 554.358877 -53.125096 
L 554.768735 -52.631273 
L 555.178593 -52.151346 
L 555.588451 -51.685389 
L 555.998309 -51.233477 
L 556.408166 -50.795682 
L 556.818024 -50.372072 
L 557.227882 -49.962716 
L 557.63774 -49.567678 
L 558.047598 -49.18702 
L 558.457456 -48.820804 
L 558.867314 -48.469086 
L 559.277172 -48.131923 
L 559.68703 -47.809369 
L 560.096888 -47.501474 
L 560.506745 -47.208287 
L 560.916603 -46.929855 
L 561.326461 -46.666222 
L 561.736319 -46.417429 
L 562.146177 -46.183517 
L 562.556035 -45.964521 
L 562.965893 -45.760478 
L 563.375751 -45.571419 
L 563.785609 -45.397374 
L 564.195466 -45.23837 
L 564.605324 -45.094434 
L 565.015182 -44.965588 
L 565.42504 -44.851852 
L 565.834898 -44.753244 
L 566.244756 -44.669781 
L 566.654614 -44.601474 
L 567.064472 -44.548335 
L 567.47433 -44.510373 
L 567.884188 -44.487594 
L 568.294045 -44.48 
L 568.294045 -44.48 
L 568.294045 -44.48 
L 567.884188 -44.48 
L 567.47433 -44.48 
L 567.064472 -44.48 
L 566.654614 -44.48 
L 566.244756 -44.48 
L 565.834898 -44.48 
L 565.42504 -44.48 
L 565.015182 -44.48 
L 564.605324 -44.48 
L 564.195466 -44.48 
L 563.785609 -44.48 
L 563.375751 -44.48 
L 562.965893 -44.48 
L 562.556035 -44.48 
L 562.146177 -44.48 
L 561.736319 -44.48 
L 561.326461 -44.48 
L 560.916603 -44.48 
L 560.506745 -44.48 
L 560.096888 -44.48 
L 559.68703 -44.48 
L 559.277172 -44.48 
L 558.867314 -44.48 
L 558.457456 -44.48 
L 558.047598 -44.48 
L 557.63774 -44.48 
L 557.227882 -44.48 
L 556.818024 -44.48 
L 556.408166 -44.48 
L 555.998309 -44.48 
L 555.588451 -44.48 
L 555.178593 -44.48 
L 554.768735 -44.48 
L 554.358877 -44.48 
L 553.949019 -44.48 
L 553.539161 -44.48 
L 553.129303 -44.48 
L 552.719445 -44.48 
L 552.309587 -44.48 
L 551.89973 -44.48 
L 551.489872 -44.48 
L 551.080014 -44.48 
L 550.670156 -44.48 
L 550.260298 -44.48 
L 549.85044 -44.48 
L 549.440582 -44.48 
L 549.030724 -44.48 
L 548.620866 -44.48 
L 548.211008 -44.48 
L 547.801151 -44.48 
L 547.391293 -44.48 
L 546.981435 -44.48 
L 546.571577 -44.48 
L 546.161719 -44.48 
L 545.751861 -44.48 
L 545.342003 -44.48 
L 544.932145 -44.48 
L 544.522287 -44.48 
L 544.112429 -44.48 
L 543.702572 -44.48 
L 543.292714 -44.48 
L 542.882856 -44.48 
L 542.472998 -44.48 
L 542.06314 -44.48 
L 541.653282 -44.48 
L 541.243424 -44.48 
L 540.833566 -44.48 
L 540.423708 -44.48 
L 540.013851 -44.48 
L 539.603993 -44.48 
L 539.194135 -44.48 
L 538.784277 -44.48 
L 538.374419 -44.48 
L 537.964561 -44.48 
L 537.554703 -44.48 
L 537.144845 -44.48 
L 536.734987 -44.48 
L 536.325129 -44.48 
L 535.915272 -44.48 
L 535.505414 -44.48 
L 535.095556 -44.48 
L 534.685698 -44.48 
L 534.27584 -44.48 
L 533.865982 -44.48 
L 533.456124 -44.48 
L 533.046266 -44.48 
L 532.636408 -44.48 
L 532.22655 -44.48 
L 531.816693 -44.48 
L 531.406835 -44.48 
L 530.996977 -44.48 
L 530.587119 -44.48 
L 530.177261 -44.48 
L 529.767403 -44.48 
L 529.357545 -44.48 
L 528.947687 -44.48 
L 528.537829 -44.48 
L 528.127971 -44.48 
L 527.718114 -44.48 
L 527.308256 -44.48 
L 526.898398 -44.48 
L 526.48854 -44.48 
L 526.078682 -44.48 
L 525.668824 -44.48 
L 525.258966 -44.48 
L 524.849108 -44.48 
L 524.43925 -44.48 
L 524.029393 -44.48 
L 523.619535 -44.48 
L 523.209677 -44.48 
L 522.799819 -44.48 
L 522.389961 -44.48 
L 521.980103 -44.48 
L 521.570245 -44.48 
L 521.160387 -44.48 
L 520.750529 -44.48 
L 520.340671 -44.48 
L 519.930814 -44.48 
L 519.520956 -44.48 
L 519.111098 -44.48 
L 518.70124 -44.48 
L 518.291382 -44.48 
L 517.881524 -44.48 
L 517.471666 -44.48 
L 517.061808 -44.48 
L 516.65195 -44.48 
L 516.242092 -44.48 
L 515.832235 -44.48 
L 515.422377 -44.48 
L 515.012519 -44.48 
L 514.602661 -44.48 
L 514.192803 -44.48 
L 513.782945 -44.48 
L 513.373087 -44.48 
L 512.963229 -44.48 
L 512.553371 -44.48 
L 512.143513 -44.48 
L 511.733656 -44.48 
L 511.323798 -44.48 
L 510.91394 -44.48 
L 510.504082 -44.48 
L 510.094224 -44.48 
L 509.684366 -44.48 
L 509.274508 -44.48 
L 508.86465 -44.48 
L 508.454792 -44.48 
L 508.044935 -44.48 
L 507.635077 -44.48 
L 507.225219 -44.48 
L 506.815361 -44.48 
L 506.405503 -44.48 
L 505.995645 -44.48 
L 505.585787 -44.48 
L 505.175929 -44.48 
L 504.766071 -44.48 
L 504.356213 -44.48 
L 503.946356 -44.48 
L 503.536498 -44.48 
L 503.12664 -44.48 
L 502.716782 -44.48 
L 502.306924 -44.48 
L 501.897066 -44.48 
L 501.487208 -44.48 
L 501.07735 -44.48 
L 500.667492 -44.48 
L 500.257634 -44.48 
L 499.847777 -44.48 
L 499.437919 -44.48 
L 499.028061 -44.48 
L 498.618203 -44.48 
L 498.208345 -44.48 
L 497.798487 -44.48 
L 497.388629 -44.48 
L 496.978771 -44.48 
L 496.568913 -44.48 
L 496.159055 -44.48 
L 495.749198 -44.48 
L 495.33934 -44.48 
L 494.929482 -44.48 
L 494.519624 -44.48 
L 494.109766 -44.48 
L 493.699908 -44.48 
L 493.29005 -44.48 
L 492.880192 -44.48 
L 492.470334 -44.48 
L 492.060476 -44.48 
L 491.650619 -44.48 
L 491.240761 -44.48 
L 490.830903 -44.48 
L 490.421045 -44.48 
L 490.011187 -44.48 
L 489.601329 -44.48 
L 489.191471 -44.48 
L 488.781613 -44.48 
L 488.371755 -44.48 
L 487.961898 -44.48 
L 487.55204 -44.48 
L 487.142182 -44.48 
L 486.732324 -44.48 
L 486.322466 -44.48 
L 485.912608 -44.48 
L 485.50275 -44.48 
L 485.092892 -44.48 
L 484.683034 -44.48 
L 484.273176 -44.48 
L 483.863319 -44.48 
L 483.453461 -44.48 
L 483.043603 -44.48 
L 482.633745 -44.48 
L 482.223887 -44.48 
L 481.814029 -44.48 
L 481.404171 -44.48 
L 480.994313 -44.48 
L 480.584455 -44.48 
L 480.174597 -44.48 
L 479.76474 -44.48 
L 479.354882 -44.48 
L 478.945024 -44.48 
L 478.535166 -44.48 
L 478.125308 -44.48 
L 477.71545 -44.48 
L 477.305592 -44.48 
L 476.895734 -44.48 
L 476.485876 -44.48 
L 476.076018 -44.48 
L 475.666161 -44.48 
L 475.256303 -44.48 
L 474.846445 -44.48 
L 474.436587 -44.48 
L 474.026729 -44.48 
L 473.616871 -44.48 
L 473.207013 -44.48 
L 472.797155 -44.48 
L 472.387297 -44.48 
L 471.97744 -44.48 
L 471.567582 -44.48 
L 471.157724 -44.48 
L 470.747866 -44.48 
L 470.338008 -44.48 
L 469.92815 -44.48 
L 469.518292 -44.48 
L 469.108434 -44.48 
L 468.698576 -44.48 
L 468.288718 -44.48 
L 467.878861 -44.48 
L 467.469003 -44.48 
L 467.059145 -44.48 
L 466.649287 -44.48 
L 466.239429 -44.48 
L 465.829571 -44.48 
L 465.419713 -44.48 
L 465.009855 -44.48 
L 464.599997 -44.48 
L 464.190139 -44.48 
L 463.780282 -44.48 
L 463.370424 -44.48 
L 462.960566 -44.48 
L 462.550708 -44.48 
L 462.14085 -44.48 
L 461.730992 -44.48 
L 461.321134 -44.48 
L 460.911276 -44.48 
L 460.501418 -44.48 
L 460.09156 -44.48 
L 459.681703 -44.48 
L 459.271845 -44.48 
L 458.861987 -44.48 
L 458.452129 -44.48 
L 458.042271 -44.48 
L 457.632413 -44.48 
L 457.222555 -44.48 
L 456.812697 -44.48 
L 456.402839 -44.48 
L 455.992982 -44.48 
L 455.583124 -44.48 
L 455.173266 -44.48 
L 454.763408 -44.48 
L 454.35355 -44.48 
L 453.943692 -44.48 
L 453.533834 -44.48 
L 453.123976 -44.48 
L 452.714118 -44.48 
L 452.30426 -44.48 
L 451.894403 -44.48 
L 451.484545 -44.48 
L 451.074687 -44.48 
L 450.664829 -44.48 
L 450.254971 -44.48 
L 449.845113 -44.48 
L 449.435255 -44.48 
L 449.025397 -44.48 
L 448.615539 -44.48 
L 448.205681 -44.48 
L 447.795824 -44.48 
L 447.385966 -44.48 
L 446.976108 -44.48 
L 446.56625 -44.48 
L 446.156392 -44.48 
L 445.746534 -44.48 
L 445.336676 -44.48 
L 444.926818 -44.48 
L 444.51696 -44.48 
L 444.107102 -44.48 
L 443.697245 -44.48 
L 443.287387 -44.48 
L 442.877529 -44.48 
L 442.467671 -44.48 
L 442.057813 -44.48 
L 441.647955 -44.48 
L 441.238097 -44.48 
L 440.828239 -44.48 
L 440.418381 -44.48 
L 440.008524 -44.48 
L 439.598666 -44.48 
L 439.188808 -44.48 
L 438.77895 -44.48 
L 438.369092 -44.48 
L 437.959234 -44.48 
L 437.549376 -44.48 
L 437.139518 -44.48 
L 436.72966 -44.48 
L 436.319802 -44.48 
L 435.909945 -44.48 
L 435.500087 -44.48 
L 435.090229 -44.48 
L 434.680371 -44.48 
L 434.270513 -44.48 
L 433.860655 -44.48 
L 433.450797 -44.48 
L 433.040939 -44.48 
L 432.631081 -44.48 
L 432.221223 -44.48 
L 431.811366 -44.48 
L 431.401508 -44.48 
L 430.99165 -44.48 
L 430.581792 -44.48 
L 430.171934 -44.48 
L 429.762076 -44.48 
L 429.352218 -44.48 
L 428.94236 -44.48 
L 428.532502 -44.48 
L 428.122644 -44.48 
L 427.712787 -44.48 
L 427.302929 -44.48 
L 426.893071 -44.48 
L 426.483213 -44.48 
L 426.073355 -44.48 
L 425.663497 -44.48 
L 425.253639 -44.48 
L 424.843781 -44.48 
L 424.433923 -44.48 
L 424.024065 -44.48 
L 423.614208 -44.48 
L 423.20435 -44.48 
L 422.794492 -44.48 
L 422.384634 -44.48 
L 421.974776 -44.48 
L 421.564918 -44.48 
L 421.15506 -44.48 
L 420.745202 -44.48 
L 420.335344 -44.48 
L 419.925487 -44.48 
L 419.515629 -44.48 
L 419.105771 -44.48 
L 418.695913 -44.48 
L 418.286055 -44.48 
L 417.876197 -44.48 
L 417.466339 -44.48 
L 417.056481 -44.48 
L 416.646623 -44.48 
L 416.236765 -44.48 
L 415.826908 -44.48 
L 415.41705 -44.48 
L 415.007192 -44.48 
L 414.597334 -44.48 
L 414.187476 -44.48 
L 413.777618 -44.48 
L 413.36776 -44.48 
L 412.957902 -44.48 
L 412.548044 -44.48 
L 412.138186 -44.48 
L 411.728329 -44.48 
L 411.318471 -44.48 
L 410.908613 -44.48 
L 410.498755 -44.48 
L 410.088897 -44.48 
L 409.679039 -44.48 
L 409.269181 -44.48 
L 408.859323 -44.48 
L 408.449465 -44.48 
L 408.039607 -44.48 
L 407.62975 -44.48 
L 407.219892 -44.48 
L 406.810034 -44.48 
L 406.400176 -44.48 
L 405.990318 -44.48 
L 405.58046 -44.48 
L 405.170602 -44.48 
L 404.760744 -44.48 
L 404.350886 -44.48 
L 403.941029 -44.48 
L 403.531171 -44.48 
L 403.121313 -44.48 
L 402.711455 -44.48 
L 402.301597 -44.48 
L 401.891739 -44.48 
L 401.481881 -44.48 
L 401.072023 -44.48 
L 400.662165 -44.48 
L 400.252307 -44.48 
L 399.84245 -44.48 
L 399.432592 -44.48 
L 399.022734 -44.48 
L 398.612876 -44.48 
L 398.203018 -44.48 
L 397.79316 -44.48 
L 397.383302 -44.48 
L 396.973444 -44.48 
L 396.563586 -44.48 
L 396.153728 -44.48 
L 395.743871 -44.48 
L 395.334013 -44.48 
L 394.924155 -44.48 
L 394.514297 -44.48 
L 394.104439 -44.48 
L 393.694581 -44.48 
L 393.284723 -44.48 
L 392.874865 -44.48 
L 392.465007 -44.48 
L 392.055149 -44.48 
L 391.645292 -44.48 
L 391.235434 -44.48 
L 390.825576 -44.48 
L 390.415718 -44.48 
L 390.00586 -44.48 
L 389.596002 -44.48 
L 389.186144 -44.48 
L 388.776286 -44.48 
L 388.366428 -44.48 
L 387.956571 -44.48 
L 387.546713 -44.48 
L 387.136855 -44.48 
L 386.726997 -44.48 
L 386.317139 -44.48 
L 385.907281 -44.48 
L 385.497423 -44.48 
L 385.087565 -44.48 
L 384.677707 -44.48 
L 384.267849 -44.48 
L 383.857992 -44.48 
L 383.448134 -44.48 
L 383.038276 -44.48 
L 382.628418 -44.48 
L 382.21856 -44.48 
L 381.808702 -44.48 
L 381.398844 -44.48 
L 380.988986 -44.48 
L 380.579128 -44.48 
L 380.16927 -44.48 
L 379.759413 -44.48 
L 379.349555 -44.48 
L 378.939697 -44.48 
L 378.529839 -44.48 
L 378.119981 -44.48 
L 377.710123 -44.48 
L 377.300265 -44.48 
L 376.890407 -44.48 
L 376.480549 -44.48 
L 376.070691 -44.48 
L 375.660834 -44.48 
L 375.250976 -44.48 
L 374.841118 -44.48 
L 374.43126 -44.48 
L 374.021402 -44.48 
L 373.611544 -44.48 
L 373.201686 -44.48 
L 372.791828 -44.48 
L 372.38197 -44.48 
L 371.972112 -44.48 
L 371.562255 -44.48 
L 371.152397 -44.48 
L 370.742539 -44.48 
L 370.332681 -44.48 
L 369.922823 -44.48 
L 369.512965 -44.48 
L 369.103107 -44.48 
L 368.693249 -44.48 
L 368.283391 -44.48 
L 367.873534 -44.48 
L 367.463676 -44.48 
L 367.053818 -44.48 
L 366.64396 -44.48 
L 366.234102 -44.48 
L 365.824244 -44.48 
L 365.414386 -44.48 
L 365.004528 -44.48 
L 364.59467 -44.48 
L 364.184812 -44.48 
L 363.774955 -44.48 
z
" style="stroke: #0072b2; stroke-opacity: 0.45"/>
    </defs>
    <g clip-path="url(#p496092c708)">
     <use xlink:href="#m7287814cc9" x="0" y="273.6" style="fill: #0072b2; fill-opacity: 0.45; stroke: #0072b2; stroke-opacity: 0.45"/>
    </g>
   </g>
   <g id="matplotlib.axis_3">
    <g id="xtick_4">
     <g id="line2d_16">
      <g>
       <use xlink:href="#m8e766ef707" x="363.774955" y="229.12" style="stroke: #000000; stroke-width: 0.8"/>
      </g>
     </g>
     <g id="text_16">
      <!-- 0 -->
      <g transform="translate(360.27558 244.478281) scale(0.11 -0.11)">
       <use xlink:href="#DejaVuSans-30"/>
      </g>
     </g>
    </g>
    <g id="xtick_5">
     <g id="line2d_17">
      <g>
       <use xlink:href="#m8e766ef707" x="466.0345" y="229.12" style="stroke: #000000; stroke-width: 0.8"/>
      </g>
     </g>
     <g id="text_17">
      <!-- L/2 -->
      <g transform="translate(457.617781 244.478281) scale(0.11 -0.11)">
       <use xlink:href="#DejaVuSans-4c"/>
       <use xlink:href="#DejaVuSans-2f" transform="translate(55.712891 0)"/>
       <use xlink:href="#DejaVuSans-32" transform="translate(89.404297 0)"/>
      </g>
     </g>
    </g>
    <g id="xtick_6">
     <g id="line2d_18">
      <g>
       <use xlink:href="#m8e766ef707" x="568.294045" y="229.12" style="stroke: #000000; stroke-width: 0.8"/>
      </g>
     </g>
     <g id="text_18">
      <!-- L -->
      <g transform="translate(565.229514 244.478281) scale(0.11 -0.11)">
       <use xlink:href="#DejaVuSans-4c"/>
      </g>
     </g>
    </g>
    <g id="text_19">
     <!-- x / L -->
     <g transform="translate(454.365906 259.124219) scale(0.11 -0.11)">
      <use xlink:href="#DejaVuSans-78"/>
      <use xlink:href="#DejaVuSans-20" transform="translate(59.179688 0)"/>
      <use xlink:href="#DejaVuSans-2f" transform="translate(90.966797 0)"/>
      <use xlink:href="#DejaVuSans-20" transform="translate(124.658203 0)"/>
      <use xlink:href="#DejaVuSans-4c" transform="translate(156.445312 0)"/>
     </g>
    </g>
   </g>
   <g id="matplotlib.axis_4">
    <g id="ytick_8">
     <g id="line2d_19">
      <g>
       <use xlink:href="#m5ce6b0617d" x="353.549" y="229.12" style="stroke: #000000; stroke-width: 0.8"/>
      </g>
     </g>
     <g id="text_20">
      <!-- 0.00 -->
      <g transform="translate(322.056812 233.299141) scale(0.11 -0.11)">
       <use xlink:href="#DejaVuSans-30"/>
       <use xlink:href="#DejaVuSans-2e" transform="translate(63.623047 0)"/>
       <use xlink:href="#DejaVuSans-30" transform="translate(95.410156 0)"/>
       <use xlink:href="#DejaVuSans-30" transform="translate(159.033203 0)"/>
      </g>
     </g>
    </g>
    <g id="ytick_9">
     <g id="line2d_20">
      <g>
       <use xlink:href="#m5ce6b0617d" x="353.549" y="205.172144" style="stroke: #000000; stroke-width: 0.8"/>
      </g>
     </g>
     <g id="text_21">
      <!-- 0.25 -->
      <g transform="translate(322.056812 209.351284) scale(0.11 -0.11)">
       <use xlink:href="#DejaVuSans-30"/>
       <use xlink:href="#DejaVuSans-2e" transform="translate(63.623047 0)"/>
       <use xlink:href="#DejaVuSans-32" transform="translate(95.410156 0)"/>
       <use xlink:href="#DejaVuSans-35" transform="translate(159.033203 0)"/>
      </g>
     </g>
    </g>
    <g id="ytick_10">
     <g id="line2d_21">
      <g>
       <use xlink:href="#m5ce6b0617d" x="353.549" y="181.224287" style="stroke: #000000; stroke-width: 0.8"/>
      </g>
     </g>
     <g id="text_22">
      <!-- 0.50 -->
      <g transform="translate(322.056812 185.403428) scale(0.11 -0.11)">
       <use xlink:href="#DejaVuSans-30"/>
       <use xlink:href="#DejaVuSans-2e" transform="translate(63.623047 0)"/>
       <use xlink:href="#DejaVuSans-35" transform="translate(95.410156 0)"/>
       <use xlink:href="#DejaVuSans-30" transform="translate(159.033203 0)"/>
      </g>
     </g>
    </g>
    <g id="ytick_11">
     <g id="line2d_22">
      <g>
       <use xlink:href="#m5ce6b0617d" x="353.549" y="157.276431" style="stroke: #000000; stroke-width: 0.8"/>
      </g>
     </g>
     <g id="text_23">
      <!-- 0.75 -->
      <g transform="translate(322.056812 161.455572) scale(0.11 -0.11)">
       <defs>
        <path id="DejaVuSans-37" d="M 525 4666 
L 3525 4666 
L 3525 4397 
L 1831 0 
L 1172 0 
L 2766 4134 
L 525 4134 
L 525 4666 
z
" transform="scale(0.015625)"/>
       </defs>
       <use xlink:href="#DejaVuSans-30"/>
       <use xlink:href="#DejaVuSans-2e" transform="translate(63.623047 0)"/>
       <use xlink:href="#DejaVuSans-37" transform="translate(95.410156 0)"/>
       <use xlink:href="#DejaVuSans-35" transform="translate(159.033203 0)"/>
      </g>
     </g>
    </g>
    <g id="ytick_12">
     <g id="line2d_23">
      <g>
       <use xlink:href="#m5ce6b0617d" x="353.549" y="133.328575" style="stroke: #000000; stroke-width: 0.8"/>
      </g>
     </g>
     <g id="text_24">
      <!-- 1.00 -->
      <g transform="translate(322.056812 137.507715) scale(0.11 -0.11)">
       <use xlink:href="#DejaVuSans-31"/>
       <use xlink:href="#DejaVuSans-2e" transform="translate(63.623047 0)"/>
       <use xlink:href="#DejaVuSans-30" transform="translate(95.410156 0)"/>
       <use xlink:href="#DejaVuSans-30" transform="translate(159.033203 0)"/>
      </g>
     </g>
    </g>
    <g id="ytick_13">
     <g id="line2d_24">
      <g>
       <use xlink:href="#m5ce6b0617d" x="353.549" y="109.380718" style="stroke: #000000; stroke-width: 0.8"/>
      </g>
     </g>
     <g id="text_25">
      <!-- 1.25 -->
      <g transform="translate(322.056812 113.559859) scale(0.11 -0.11)">
       <use xlink:href="#DejaVuSans-31"/>
       <use xlink:href="#DejaVuSans-2e" transform="translate(63.623047 0)"/>
       <use xlink:href="#DejaVuSans-32" transform="translate(95.410156 0)"/>
       <use xlink:href="#DejaVuSans-35" transform="translate(159.033203 0)"/>
      </g>
     </g>
    </g>
    <g id="ytick_14">
     <g id="line2d_25">
      <g>
       <use xlink:href="#m5ce6b0617d" x="353.549" y="85.432862" style="stroke: #000000; stroke-width: 0.8"/>
      </g>
     </g>
     <g id="text_26">
      <!-- 1.50 -->
      <g transform="translate(322.056812 89.612003) scale(0.11 -0.11)">
       <use xlink:href="#DejaVuSans-31"/>
       <use xlink:href="#DejaVuSans-2e" transform="translate(63.623047 0)"/>
       <use xlink:href="#DejaVuSans-35" transform="translate(95.410156 0)"/>
       <use xlink:href="#DejaVuSans-30" transform="translate(159.033203 0)"/>
      </g>
     </g>
    </g>
    <g id="ytick_15">
     <g id="line2d_26">
      <g>
       <use xlink:href="#m5ce6b0617d" x="353.549" y="61.485006" style="stroke: #000000; stroke-width: 0.8"/>
      </g>
     </g>
     <g id="text_27">
      <!-- 1.75 -->
      <g transform="translate(322.056812 65.664146) scale(0.11 -0.11)">
       <use xlink:href="#DejaVuSans-31"/>
       <use xlink:href="#DejaVuSans-2e" transform="translate(63.623047 0)"/>
       <use xlink:href="#DejaVuSans-37" transform="translate(95.410156 0)"/>
       <use xlink:href="#DejaVuSans-35" transform="translate(159.033203 0)"/>
      </g>
     </g>
    </g>
    <g id="ytick_16">
     <g id="line2d_27">
      <g>
       <use xlink:href="#m5ce6b0617d" x="353.549" y="37.537149" style="stroke: #000000; stroke-width: 0.8"/>
      </g>
     </g>
     <g id="text_28">
      <!-- 2.00 -->
      <g transform="translate(322.056812 41.71629) scale(0.11 -0.11)">
       <use xlink:href="#DejaVuSans-32"/>
       <use xlink:href="#DejaVuSans-2e" transform="translate(63.623047 0)"/>
       <use xlink:href="#DejaVuSans-30" transform="translate(95.410156 0)"/>
       <use xlink:href="#DejaVuSans-30" transform="translate(159.033203 0)"/>
      </g>
     </g>
    </g>
    <g id="text_29">
     <!-- $|\psi_n|^2$  (nm$^{-1}$) -->
     <g transform="translate(315.416812 163.63) rotate(-90) scale(0.11 -0.11)">
      <defs>
       <path id="DejaVuSans-7c" d="M 1344 4891 
L 1344 -1509 
L 813 -1509 
L 813 4891 
L 1344 4891 
z
" transform="scale(0.015625)"/>
      </defs>
      <use xlink:href="#DejaVuSans-7c" transform="translate(0 0.765625)"/>
      <use xlink:href="#DejaVuSans-Oblique-3c8" transform="translate(33.691406 0.765625)"/>
      <use xlink:href="#DejaVuSans-Oblique-6e" transform="translate(99.658203 -15.640625) scale(0.7)"/>
      <use xlink:href="#DejaVuSans-7c" transform="translate(146.757812 0.765625)"/>
      <use xlink:href="#DejaVuSans-32" transform="translate(181.40625 39.046875) scale(0.7)"/>
      <use xlink:href="#DejaVuSans-20" transform="translate(228.676758 0.765625)"/>
      <use xlink:href="#DejaVuSans-20" transform="translate(260.463867 0.765625)"/>
      <use xlink:href="#DejaVuSans-28" transform="translate(292.250977 0.765625)"/>
      <use xlink:href="#DejaVuSans-6e" transform="translate(331.264648 0.765625)"/>
      <use xlink:href="#DejaVuSans-6d" transform="translate(394.643555 0.765625)"/>
      <use xlink:href="#DejaVuSans-2212" transform="translate(493.012695 39.046875) scale(0.7)"/>
      <use xlink:href="#DejaVuSans-31" transform="translate(551.665039 39.046875) scale(0.7)"/>
      <use xlink:href="#DejaVuSans-29" transform="translate(598.935547 0.765625)"/>
     </g>
    </g>
   </g>
   <g id="line2d_28">
    <path d="M 363.774955 229.12 
L 365.414386 228.998526 
L 367.053818 228.634412 
L 368.693249 228.028581 
L 370.332681 227.182571 
L 371.972112 226.098526 
L 373.611544 224.779196 
L 375.660834 222.804318 
L 377.710123 220.474904 
L 379.759413 217.800184 
L 381.808702 214.790756 
L 384.267849 210.754508 
L 386.726997 206.276546 
L 389.596002 200.528195 
L 392.465007 194.258121 
L 395.743871 186.516095 
L 399.432592 177.165884 
L 403.531171 166.122654 
L 408.449465 152.20136 
L 417.056481 127.00083 
L 424.433923 105.684148 
L 428.94236 93.286186 
L 433.040939 82.674869 
L 436.319802 74.755625 
L 439.598666 67.43022 
L 442.467671 61.566171 
L 444.926818 56.981677 
L 447.385966 52.832741 
L 449.845113 49.143033 
L 451.894403 46.434343 
L 453.943692 44.06996 
L 455.992982 42.059252 
L 458.042271 40.410188 
L 459.681703 39.35576 
L 461.321134 38.539667 
L 462.960566 37.963979 
L 464.599997 37.630157 
L 466.239429 37.539048 
L 467.878861 37.690881 
L 469.518292 38.085273 
L 471.157724 38.721222 
L 472.797155 39.597117 
L 474.436587 40.710735 
L 476.076018 42.059252 
L 478.125308 44.06996 
L 480.174597 46.434343 
L 482.223887 49.143033 
L 484.273176 52.185297 
L 486.732324 56.25927 
L 489.191471 60.772922 
L 492.060476 66.560068 
L 494.929482 72.865591 
L 498.208345 80.643681 
L 501.897066 90.028355 
L 505.995645 101.101781 
L 510.91394 115.04742 
L 519.930814 141.460375 
L 526.898398 161.549871 
L 531.406835 173.918029 
L 535.095556 183.469413 
L 538.374419 191.423164 
L 541.653282 198.787927 
L 544.522287 204.690079 
L 546.981435 209.309722 
L 549.440582 213.495894 
L 551.89973 217.224712 
L 553.949019 219.967265 
L 555.998309 222.366523 
L 558.047598 224.41298 
L 560.096888 226.098526 
L 561.736319 227.182571 
L 563.375751 228.028581 
L 565.015182 228.634412 
L 566.654614 228.998526 
L 568.294045 229.12 
L 568.294045 229.12 
" clip-path="url(#p496092c708)" style="fill: none; stroke: #0072b2; stroke-width: 1.4; stroke-linecap: square"/>
   </g>
   <g id="line2d_29">
    <path d="M 363.774955 229.12 
L 364.59467 228.998526 
L 365.414386 228.634412 
L 366.234102 228.028581 
L 367.053818 227.182571 
L 368.283391 225.468077 
L 369.512965 223.227928 
L 370.742539 220.474904 
L 371.972112 217.224712 
L 373.611544 212.150193 
L 375.250976 206.276546 
L 377.300265 197.902156 
L 379.349555 188.505321 
L 381.808702 176.089988 
L 384.677707 160.395035 
L 389.186144 134.233183 
L 394.924155 101.101781 
L 397.79316 85.781472 
L 400.252307 73.80589 
L 402.301597 64.851659 
L 404.350886 56.981677 
L 405.990318 51.550718 
L 407.62975 46.94886 
L 408.859323 44.06996 
L 410.088897 41.700278 
L 411.318471 39.853335 
L 412.138186 38.917778 
L 412.957902 38.221667 
L 413.777618 37.766768 
L 414.597334 37.554235 
L 415.41705 37.584606 
L 416.236765 37.857805 
L 417.056481 38.373139 
L 417.876197 39.129301 
L 418.695913 40.124373 
L 419.925487 42.059252 
L 421.15506 44.514822 
L 422.384634 47.477073 
L 423.614208 50.929105 
L 425.253639 56.25927 
L 426.893071 62.370798 
L 428.94236 71.013901 
L 430.99165 80.643681 
L 433.450797 93.286186 
L 436.72966 111.509323 
L 443.697245 152.20136 
L 447.385966 172.82231 
L 450.254971 187.515003 
L 452.30426 197.006147 
L 454.35355 205.489033 
L 455.992982 211.458544 
L 457.632413 216.635939 
L 459.271845 220.968727 
L 460.501418 223.637284 
L 461.730992 225.790631 
L 462.960566 227.416483 
L 463.780282 228.202626 
L 464.599997 228.748148 
L 465.419713 229.051665 
L 466.239429 229.112406 
L 467.059145 228.930219 
L 467.878861 228.505566 
L 468.698576 227.839522 
L 469.518292 226.933778 
L 470.747866 225.130914 
L 471.97744 222.804318 
L 473.207013 219.967265 
L 474.436587 216.635939 
L 476.076018 211.458544 
L 477.71545 205.489033 
L 479.76474 197.006147 
L 481.814029 187.515003 
L 484.273176 175.007312 
L 487.142182 159.235907 
L 491.650619 133.027034 
L 496.978771 102.240161 
L 499.847777 86.832303 
L 502.306924 74.755625 
L 504.356213 65.700503 
L 506.405503 57.716189 
L 508.044935 52.185297 
L 509.684366 47.477073 
L 510.91394 44.514822 
L 512.143513 42.059252 
L 513.373087 40.124373 
L 514.602661 38.721222 
L 515.422377 38.085273 
L 516.242092 37.690881 
L 517.061808 37.539048 
L 517.881524 37.630157 
L 518.70124 37.963979 
L 519.520956 38.539667 
L 520.340671 39.35576 
L 521.160387 40.410188 
L 522.389961 42.432697 
L 523.619535 44.973765 
L 524.849108 48.018897 
L 526.48854 52.832741 
L 528.127971 58.462688 
L 529.767403 64.851659 
L 531.816693 73.80589 
L 534.27584 85.781472 
L 537.144845 101.101781 
L 540.833566 122.196776 
L 548.620866 167.253302 
L 551.489872 182.437738 
L 553.949019 194.258121 
L 555.998309 203.058358 
L 557.63774 209.309722 
L 559.277172 214.790756 
L 560.916603 219.445889 
L 562.146177 222.366523 
L 563.375751 224.779196 
L 564.605324 226.670145 
L 565.42504 227.635479 
L 566.244756 228.36163 
L 567.064472 228.846756 
L 567.884188 229.089627 
L 568.294045 229.12 
L 568.294045 229.12 
" clip-path="url(#p496092c708)" style="fill: none; stroke: #d55e00; stroke-width: 2; stroke-linecap: square"/>
   </g>
   <g id="patch_6">
    <path d="M 353.549 229.12 
L 353.549 27.96 
" style="fill: none; stroke: #000000; stroke-linejoin: miter; stroke-linecap: square"/>
   </g>
   <g id="patch_7">
    <path d="M 353.549 229.12 
L 578.52 229.12 
" style="fill: none; stroke: #000000; stroke-linejoin: miter; stroke-linecap: square"/>
   </g>
   <g id="text_30">
    <!-- Probability densities -->
    <g transform="translate(405.480437 21.96) scale(0.12 -0.12)">
     <defs>
      <path id="DejaVuSans-50" d="M 1259 4147 
L 1259 2394 
L 2053 2394 
Q 2494 2394 2734 2622 
Q 2975 2850 2975 3272 
Q 2975 3691 2734 3919 
Q 2494 4147 2053 4147 
L 1259 4147 
z
M 628 4666 
L 2053 4666 
Q 2838 4666 3239 4311 
Q 3641 3956 3641 3272 
Q 3641 2581 3239 2228 
Q 2838 1875 2053 1875 
L 1259 1875 
L 1259 0 
L 628 0 
L 628 4666 
z
" transform="scale(0.015625)"/>
      <path id="DejaVuSans-72" d="M 2631 2963 
Q 2534 3019 2420 3045 
Q 2306 3072 2169 3072 
Q 1681 3072 1420 2755 
Q 1159 2438 1159 1844 
L 1159 0 
L 581 0 
L 581 3500 
L 1159 3500 
L 1159 2956 
Q 1341 3275 1631 3429 
Q 1922 3584 2338 3584 
Q 2397 3584 2469 3576 
Q 2541 3569 2628 3553 
L 2631 2963 
z
" transform="scale(0.015625)"/>
      <path id="DejaVuSans-62" d="M 3116 1747 
Q 3116 2381 2855 2742 
Q 2594 3103 2138 3103 
Q 1681 3103 1420 2742 
Q 1159 2381 1159 1747 
Q 1159 1113 1420 752 
Q 1681 391 2138 391 
Q 2594 391 2855 752 
Q 3116 1113 3116 1747 
z
M 1159 2969 
Q 1341 3281 1617 3432 
Q 1894 3584 2278 3584 
Q 2916 3584 3314 3078 
Q 3713 2572 3713 1747 
Q 3713 922 3314 415 
Q 2916 -91 2278 -91 
Q 1894 -91 1617 61 
Q 1341 213 1159 525 
L 1159 0 
L 581 0 
L 581 4863 
L 1159 4863 
L 1159 2969 
z
" transform="scale(0.015625)"/>
      <path id="DejaVuSans-61" d="M 2194 1759 
Q 1497 1759 1228 1600 
Q 959 1441 959 1056 
Q 959 750 1161 570 
Q 1363 391 1709 391 
Q 2188 391 2477 730 
Q 2766 1069 2766 1631 
L 2766 1759 
L 2194 1759 
z
M 3341 1997 
L 3341 0 
L 2766 0 
L 2766 531 
Q 2569 213 2275 61 
Q 1981 -91 1556 -91 
Q 1019 -91 701 211 
Q 384 513 384 1019 
Q 384 1609 779 1909 
Q 1175 2209 1959 2209 
L 2766 2209 
L 2766 2266 
Q 2766 2663 2505 2880 
Q 2244 3097 1772 3097 
Q 1472 3097 1187 3025 
Q 903 2953 641 2809 
L 641 3341 
Q 956 3463 1253 3523 
Q 1550 3584 1831 3584 
Q 2591 3584 2966 3190 
Q 3341 2797 3341 1997 
z
" transform="scale(0.015625)"/>
      <path id="DejaVuSans-6c" d="M 603 4863 
L 1178 4863 
L 1178 0 
L 603 0 
L 603 4863 
z
" transform="scale(0.015625)"/>
      <path id="DejaVuSans-79" d="M 2059 -325 
Q 1816 -950 1584 -1140 
Q 1353 -1331 966 -1331 
L 506 -1331 
L 506 -850 
L 844 -850 
Q 1081 -850 1212 -737 
Q 1344 -625 1503 -206 
L 1606 56 
L 191 3500 
L 800 3500 
L 1894 763 
L 2988 3500 
L 3597 3500 
L 2059 -325 
z
" transform="scale(0.015625)"/>
     </defs>
     <use xlink:href="#DejaVuSans-50"/>
     <use xlink:href="#DejaVuSans-72" transform="translate(58.552734 0)"/>
     <use xlink:href="#DejaVuSans-6f" transform="translate(97.416016 0)"/>
     <use xlink:href="#DejaVuSans-62" transform="translate(158.597656 0)"/>
     <use xlink:href="#DejaVuSans-61" transform="translate(222.074219 0)"/>
     <use xlink:href="#DejaVuSans-62" transform="translate(283.353516 0)"/>
     <use xlink:href="#DejaVuSans-69" transform="translate(346.830078 0)"/>
     <use xlink:href="#DejaVuSans-6c" transform="translate(374.613281 0)"/>
     <use xlink:href="#DejaVuSans-69" transform="translate(402.396484 0)"/>
     <use xlink:href="#DejaVuSans-74" transform="translate(430.179688 0)"/>
     <use xlink:href="#DejaVuSans-79" transform="translate(469.388672 0)"/>
     <use xlink:href="#DejaVuSans-20" transform="translate(528.568359 0)"/>
     <use xlink:href="#DejaVuSans-64" transform="translate(560.355469 0)"/>
     <use xlink:href="#DejaVuSans-65" transform="translate(623.832031 0)"/>
     <use xlink:href="#DejaVuSans-6e" transform="translate(685.355469 0)"/>
     <use xlink:href="#DejaVuSans-73" transform="translate(748.734375 0)"/>
     <use xlink:href="#DejaVuSans-69" transform="translate(800.833984 0)"/>
     <use xlink:href="#DejaVuSans-74" transform="translate(828.617188 0)"/>
     <use xlink:href="#DejaVuSans-69" transform="translate(867.826172 0)"/>
     <use xlink:href="#DejaVuSans-65" transform="translate(895.609375 0)"/>
     <use xlink:href="#DejaVuSans-73" transform="translate(957.132812 0)"/>
    </g>
   </g>
   <g id="legend_2">
    <g id="patch_8">
     <path d="M 420.5395 204.01 
L 438.5395 204.01 
L 438.5395 197.71 
L 420.5395 197.71 
z
" style="fill: #0072b2; fill-opacity: 0.45; stroke: #0072b2; stroke-opacity: 0.45; stroke-linejoin: miter"/>
    </g>
    <g id="text_31">
     <!-- $|\psi_1|^2$ (1 peak) -->
     <g transform="translate(445.7395 204.01) scale(0.09 -0.09)">
      <defs>
       <path id="DejaVuSans-70" d="M 1159 525 
L 1159 -1331 
L 581 -1331 
L 581 3500 
L 1159 3500 
L 1159 2969 
Q 1341 3281 1617 3432 
Q 1894 3584 2278 3584 
Q 2916 3584 3314 3078 
Q 3713 2572 3713 1747 
Q 3713 922 3314 415 
Q 2916 -91 2278 -91 
Q 1894 -91 1617 61 
Q 1341 213 1159 525 
z
M 3116 1747 
Q 3116 2381 2855 2742 
Q 2594 3103 2138 3103 
Q 1681 3103 1420 2742 
Q 1159 2381 1159 1747 
Q 1159 1113 1420 752 
Q 1681 391 2138 391 
Q 2594 391 2855 752 
Q 3116 1113 3116 1747 
z
" transform="scale(0.015625)"/>
       <path id="DejaVuSans-6b" d="M 581 4863 
L 1159 4863 
L 1159 1991 
L 2875 3500 
L 3609 3500 
L 1753 1863 
L 3688 0 
L 2938 0 
L 1159 1709 
L 1159 0 
L 581 0 
L 581 4863 
z
" transform="scale(0.015625)"/>
      </defs>
      <use xlink:href="#DejaVuSans-7c" transform="translate(0 0.765625)"/>
      <use xlink:href="#DejaVuSans-Oblique-3c8" transform="translate(33.691406 0.765625)"/>
      <use xlink:href="#DejaVuSans-31" transform="translate(99.658203 -15.640625) scale(0.7)"/>
      <use xlink:href="#DejaVuSans-7c" transform="translate(146.928711 0.765625)"/>
      <use xlink:href="#DejaVuSans-32" transform="translate(181.577148 39.046875) scale(0.7)"/>
      <use xlink:href="#DejaVuSans-20" transform="translate(228.847656 0.765625)"/>
      <use xlink:href="#DejaVuSans-28" transform="translate(260.634766 0.765625)"/>
      <use xlink:href="#DejaVuSans-31" transform="translate(299.648438 0.765625)"/>
      <use xlink:href="#DejaVuSans-20" transform="translate(363.271484 0.765625)"/>
      <use xlink:href="#DejaVuSans-70" transform="translate(395.058594 0.765625)"/>
      <use xlink:href="#DejaVuSans-65" transform="translate(458.535156 0.765625)"/>
      <use xlink:href="#DejaVuSans-61" transform="translate(520.058594 0.765625)"/>
      <use xlink:href="#DejaVuSans-6b" transform="translate(581.337891 0.765625)"/>
      <use xlink:href="#DejaVuSans-29" transform="translate(639.248047 0.765625)"/>
     </g>
    </g>
    <g id="line2d_30">
     <path d="M 420.5395 215.71 
L 429.5395 215.71 
L 438.5395 215.71 
" style="fill: none; stroke: #d55e00; stroke-width: 2; stroke-linecap: square"/>
    </g>
    <g id="text_32">
     <!-- $|\psi_2|^2$ (2 peaks) -->
     <g transform="translate(445.7395 218.86) scale(0.09 -0.09)">
      <use xlink:href="#DejaVuSans-7c" transform="translate(0 0.765625)"/>
      <use xlink:href="#DejaVuSans-Oblique-3c8" transform="translate(33.691406 0.765625)"/>
      <use xlink:href="#DejaVuSans-32" transform="translate(99.658203 -15.640625) scale(0.7)"/>
      <use xlink:href="#DejaVuSans-7c" transform="translate(146.928711 0.765625)"/>
      <use xlink:href="#DejaVuSans-32" transform="translate(181.577148 39.046875) scale(0.7)"/>
      <use xlink:href="#DejaVuSans-20" transform="translate(228.847656 0.765625)"/>
      <use xlink:href="#DejaVuSans-28" transform="translate(260.634766 0.765625)"/>
      <use xlink:href="#DejaVuSans-32" transform="translate(299.648438 0.765625)"/>
      <use xlink:href="#DejaVuSans-20" transform="translate(363.271484 0.765625)"/>
      <use xlink:href="#DejaVuSans-70" transform="translate(395.058594 0.765625)"/>
      <use xlink:href="#DejaVuSans-65" transform="translate(458.535156 0.765625)"/>
      <use xlink:href="#DejaVuSans-61" transform="translate(520.058594 0.765625)"/>
      <use xlink:href="#DejaVuSans-6b" transform="translate(581.337891 0.765625)"/>
      <use xlink:href="#DejaVuSans-73" transform="translate(639.248047 0.765625)"/>
      <use xlink:href="#DejaVuSans-29" transform="translate(691.347656 0.765625)"/>
     </g>
    </g>
   </g>
  </g>
 </g>
 <defs>
  <clipPath id="p874a204243">
   <rect x="65.054" y="27.96" width="224.971" height="201.16"/>
  </clipPath>
  <clipPath id="p496092c708">
   <rect x="353.549" y="27.96" width="224.971" height="201.16"/>
  </clipPath>
 </defs>
</svg>
