<?xml version="1.0" encoding="utf-8" standalone="no"?>
<!DOCTYPE svg PUBLIC "-//W3C//DTD SVG 1.1//EN"
  "http://www.w3.org/Graphics/SVG/1.1/DTD/svg11.dtd">
<svg xmlns:xlink="http://www.w3.org/1999/xlink" width="460.8pt" height="360pt" viewBox="0 0 460.8 360" xmlns="http://www.w3.org/2000/svg" version="1.1">
 <metadata>
  <rdf:RDF xmlns:dc="http://purl.org/dc/elements/1.1/" xmlns:cc="http://creativecommons.org/ns#" xmlns:rdf="http://www.w3.org/1999/02/22-rdf-syntax-ns#">
   <cc:Work>
    <dc:type rdf:resource="http://purl.org/dc/dcmitype/StillImage"/>
    <dc:date>2026-06-04T06:14:06.811425</dc:date>
    <dc:format>image/svg+xml</dc:format>
    <dc:creator>
     <cc:Agent>
      <dc:title>Matplotlib v3.10.8, https://matplotlib.org/</dc:title>
     </cc:Agent>
    </dc:creator>
   </cc:Work>
  </rdf:RDF>
 </metadata>
 <defs>
  <style type="text/css">*{stroke-linejoin: round; stroke-linecap: butt}</style>
 </defs>
 <g id="figure_1">
  <g id="patch_1">
   <path d="M 0 360 
L 460.8 360 
L 460.8 0 
L 0 0 
z
" style="fill: #ffffff"/>
  </g>
  <g id="axes_1">
   <g id="patch_2">
    <path d="M 50.42 315.52 
L 448.92 315.52 
L 448.92 30.912 
L 50.42 30.912 
z
" style="fill: #ffffff"/>
   </g>
   <g id="matplotlib.axis_1">
    <g id="xtick_1">
     <g id="line2d_1">
      <defs>
       <path id="m13c1565523" d="M 0 0 
L 0 3.5 
" style="stroke: #000000; stroke-width: 0.8"/>
      </defs>
      <g>
       <use xlink:href="#m13c1565523" x="84.096056" y="315.52" style="stroke: #000000; stroke-width: 0.8"/>
      </g>
     </g>
     <g id="text_1">
      <!-- 0 -->
      <g transform="translate(80.596681 330.878281) scale(0.11 -0.11)">
       <defs>
        <path id="DejaVuSans-30" d="M 2034 4250 
Q 1547 4250 1301 3770 
Q 1056 3291 1056 2328 
Q 1056 1369 1301 889 
Q 1547 409 2034 409 
Q 2525 409 2770 889 
Q 3016 1369 3016 2328 
Q 3016 3291 2770 3770 
Q 2525 4250 2034 4250 
z
M 2034 4750 
Q 2819 4750 3233 4129 
Q 3647 3509 3647 2328 
Q 3647 1150 3233 529 
Q 2819 -91 2034 -91 
Q 1250 -91 836 529 
Q 422 1150 422 2328 
Q 422 3509 836 4129 
Q 1250 4750 2034 4750 
z
" transform="scale(0.015625)"/>
       </defs>
       <use xlink:href="#DejaVuSans-30"/>
      </g>
     </g>
    </g>
    <g id="xtick_2">
     <g id="line2d_2">
      <g>
       <use xlink:href="#m13c1565523" x="224.412958" y="315.52" style="stroke: #000000; stroke-width: 0.8"/>
      </g>
     </g>
     <g id="text_2">
      <!-- L/2 -->
      <g transform="translate(215.996239 330.878281) scale(0.11 -0.11)">
       <defs>
        <path id="DejaVuSans-4c" d="M 628 4666 
L 1259 4666 
L 1259 531 
L 3531 531 
L 3531 0 
L 628 0 
L 628 4666 
z
" transform="scale(0.015625)"/>
        <path id="DejaVuSans-2f" d="M 1625 4666 
L 2156 4666 
L 531 -594 
L 0 -594 
L 1625 4666 
z
" transform="scale(0.015625)"/>
        <path id="DejaVuSans-32" d="M 1228 531 
L 3431 531 
L 3431 0 
L 469 0 
L 469 531 
Q 828 903 1448 1529 
Q 2069 2156 2228 2338 
Q 2531 2678 2651 2914 
Q 2772 3150 2772 3378 
Q 2772 3750 2511 3984 
Q 2250 4219 1831 4219 
Q 1534 4219 1204 4116 
Q 875 4013 500 3803 
L 500 4441 
Q 881 4594 1212 4672 
Q 1544 4750 1819 4750 
Q 2544 4750 2975 4387 
Q 3406 4025 3406 3419 
Q 3406 3131 3298 2873 
Q 3191 2616 2906 2266 
Q 2828 2175 2409 1742 
Q 1991 1309 1228 531 
z
" transform="scale(0.015625)"/>
       </defs>
       <use xlink:href="#DejaVuSans-4c"/>
       <use xlink:href="#DejaVuSans-2f" transform="translate(55.712891 0)"/>
       <use xlink:href="#DejaVuSans-32" transform="translate(89.404297 0)"/>
      </g>
     </g>
    </g>
    <g id="xtick_3">
     <g id="line2d_3">
      <g>
       <use xlink:href="#m13c1565523" x="364.729859" y="315.52" style="stroke: #000000; stroke-width: 0.8"/>
      </g>
     </g>
     <g id="text_3">
      <!-- L -->
      <g transform="translate(361.665328 330.878281) scale(0.11 -0.11)">
       <use xlink:href="#DejaVuSans-4c"/>
      </g>
     </g>
    </g>
    <g id="text_4">
     <!-- position  x / L -->
     <g transform="translate(212.720313 345.524219) scale(0.11 -0.11)">
      <defs>
       <path id="DejaVuSans-70" d="M 1159 525 
L 1159 -1331 
L 581 -1331 
L 581 3500 
L 1159 3500 
L 1159 2969 
Q 1341 3281 1617 3432 
Q 1894 3584 2278 3584 
Q 2916 3584 3314 3078 
Q 3713 2572 3713 1747 
Q 3713 922 3314 415 
Q 2916 -91 2278 -91 
Q 1894 -91 1617 61 
Q 1341 213 1159 525 
z
M 3116 1747 
Q 3116 2381 2855 2742 
Q 2594 3103 2138 3103 
Q 1681 3103 1420 2742 
Q 1159 2381 1159 1747 
Q 1159 1113 1420 752 
Q 1681 391 2138 391 
Q 2594 391 2855 752 
Q 3116 1113 3116 1747 
z
" transform="scale(0.015625)"/>
       <path id="DejaVuSans-6f" d="M 1959 3097 
Q 1497 3097 1228 2736 
Q 959 2375 959 1747 
Q 959 1119 1226 758 
Q 1494 397 1959 397 
Q 2419 397 2687 759 
Q 2956 1122 2956 1747 
Q 2956 2369 2687 2733 
Q 2419 3097 1959 3097 
z
M 1959 3584 
Q 2709 3584 3137 3096 
Q 3566 2609 3566 1747 
Q 3566 888 3137 398 
Q 2709 -91 1959 -91 
Q 1206 -91 779 398 
Q 353 888 353 1747 
Q 353 2609 779 3096 
Q 1206 3584 1959 3584 
z
" transform="scale(0.015625)"/>
       <path id="DejaVuSans-73" d="M 2834 3397 
L 2834 2853 
Q 2591 2978 2328 3040 
Q 2066 3103 1784 3103 
Q 1356 3103 1142 2972 
Q 928 2841 928 2578 
Q 928 2378 1081 2264 
Q 1234 2150 1697 2047 
L 1894 2003 
Q 2506 1872 2764 1633 
Q 3022 1394 3022 966 
Q 3022 478 2636 193 
Q 2250 -91 1575 -91 
Q 1294 -91 989 -36 
Q 684 19 347 128 
L 347 722 
Q 666 556 975 473 
Q 1284 391 1588 391 
Q 1994 391 2212 530 
Q 2431 669 2431 922 
Q 2431 1156 2273 1281 
Q 2116 1406 1581 1522 
L 1381 1569 
Q 847 1681 609 1914 
Q 372 2147 372 2553 
Q 372 3047 722 3315 
Q 1072 3584 1716 3584 
Q 2034 3584 2315 3537 
Q 2597 3491 2834 3397 
z
" transform="scale(0.015625)"/>
       <path id="DejaVuSans-69" d="M 603 3500 
L 1178 3500 
L 1178 0 
L 603 0 
L 603 3500 
z
M 603 4863 
L 1178 4863 
L 1178 4134 
L 603 4134 
L 603 4863 
z
" transform="scale(0.015625)"/>
       <path id="DejaVuSans-74" d="M 1172 4494 
L 1172 3500 
L 2356 3500 
L 2356 3053 
L 1172 3053 
L 1172 1153 
Q 1172 725 1289 603 
Q 1406 481 1766 481 
L 2356 481 
L 2356 0 
L 1766 0 
Q 1100 0 847 248 
Q 594 497 594 1153 
L 594 3053 
L 172 3053 
L 172 3500 
L 594 3500 
L 594 4494 
L 1172 4494 
z
" transform="scale(0.015625)"/>
       <path id="DejaVuSans-6e" d="M 3513 2113 
L 3513 0 
L 2938 0 
L 2938 2094 
Q 2938 2591 2744 2837 
Q 2550 3084 2163 3084 
Q 1697 3084 1428 2787 
Q 1159 2491 1159 1978 
L 1159 0 
L 581 0 
L 581 3500 
L 1159 3500 
L 1159 2956 
Q 1366 3272 1645 3428 
Q 1925 3584 2291 3584 
Q 2894 3584 3203 3211 
Q 3513 2838 3513 2113 
z
" transform="scale(0.015625)"/>
       <path id="DejaVuSans-20" transform="scale(0.015625)"/>
       <path id="DejaVuSans-78" d="M 3513 3500 
L 2247 1797 
L 3578 0 
L 2900 0 
L 1881 1375 
L 863 0 
L 184 0 
L 1544 1831 
L 300 3500 
L 978 3500 
L 1906 2253 
L 2834 3500 
L 3513 3500 
z
" transform="scale(0.015625)"/>
      </defs>
      <use xlink:href="#DejaVuSans-70"/>
      <use xlink:href="#DejaVuSans-6f" transform="translate(63.476562 0)"/>
      <use xlink:href="#DejaVuSans-73" transform="translate(124.658203 0)"/>
      <use xlink:href="#DejaVuSans-69" transform="translate(176.757812 0)"/>
      <use xlink:href="#DejaVuSans-74" transform="translate(204.541016 0)"/>
      <use xlink:href="#DejaVuSans-69" transform="translate(243.75 0)"/>
      <use xlink:href="#DejaVuSans-6f" transform="translate(271.533203 0)"/>
      <use xlink:href="#DejaVuSans-6e" transform="translate(332.714844 0)"/>
      <use xlink:href="#DejaVuSans-20" transform="translate(396.09375 0)"/>
      <use xlink:href="#DejaVuSans-20" transform="translate(427.880859 0)"/>
      <use xlink:href="#DejaVuSans-78" transform="translate(459.667969 0)"/>
      <use xlink:href="#DejaVuSans-20" transform="translate(518.847656 0)"/>
      <use xlink:href="#DejaVuSans-2f" transform="translate(550.634766 0)"/>
      <use xlink:href="#DejaVuSans-20" transform="translate(584.326172 0)"/>
      <use xlink:href="#DejaVuSans-4c" transform="translate(616.113281 0)"/>
     </g>
    </g>
   </g>
   <g id="matplotlib.axis_2">
    <g id="ytick_1">
     <g id="line2d_4">
      <defs>
       <path id="m8a6e32d660" d="M 0 0 
L -3.5 0 
" style="stroke: #000000; stroke-width: 0.8"/>
      </defs>
      <g>
       <use xlink:href="#m8a6e32d660" x="50.42" y="315.52" style="stroke: #000000; stroke-width: 0.8"/>
      </g>
     </g>
     <g id="text_5">
      <!-- 0 -->
      <g transform="translate(36.42125 319.699141) scale(0.11 -0.11)">
       <use xlink:href="#DejaVuSans-30"/>
      </g>
     </g>
    </g>
    <g id="ytick_2">
     <g id="line2d_5">
      <g>
       <use xlink:href="#m8a6e32d660" x="50.42" y="266.022957" style="stroke: #000000; stroke-width: 0.8"/>
      </g>
     </g>
     <g id="text_6">
      <!-- 2 -->
      <g transform="translate(36.42125 270.202097) scale(0.11 -0.11)">
       <use xlink:href="#DejaVuSans-32"/>
      </g>
     </g>
    </g>
    <g id="ytick_3">
     <g id="line2d_6">
      <g>
       <use xlink:href="#m8a6e32d660" x="50.42" y="216.525913" style="stroke: #000000; stroke-width: 0.8"/>
      </g>
     </g>
     <g id="text_7">
      <!-- 4 -->
      <g transform="translate(36.42125 220.705054) scale(0.11 -0.11)">
       <defs>
        <path id="DejaVuSans-34" d="M 2419 4116 
L 825 1625 
L 2419 1625 
L 2419 4116 
z
M 2253 4666 
L 3047 4666 
L 3047 1625 
L 3713 1625 
L 3713 1100 
L 3047 1100 
L 3047 0 
L 2419 0 
L 2419 1100 
L 313 1100 
L 313 1709 
L 2253 4666 
z
" transform="scale(0.015625)"/>
       </defs>
       <use xlink:href="#DejaVuSans-34"/>
      </g>
     </g>
    </g>
    <g id="ytick_4">
     <g id="line2d_7">
      <g>
       <use xlink:href="#m8a6e32d660" x="50.42" y="167.02887" style="stroke: #000000; stroke-width: 0.8"/>
      </g>
     </g>
     <g id="text_8">
      <!-- 6 -->
      <g transform="translate(36.42125 171.20801) scale(0.11 -0.11)">
       <defs>
        <path id="DejaVuSans-36" d="M 2113 2584 
Q 1688 2584 1439 2293 
Q 1191 2003 1191 1497 
Q 1191 994 1439 701 
Q 1688 409 2113 409 
Q 2538 409 2786 701 
Q 3034 994 3034 1497 
Q 3034 2003 2786 2293 
Q 2538 2584 2113 2584 
z
M 3366 4563 
L 3366 3988 
Q 3128 4100 2886 4159 
Q 2644 4219 2406 4219 
Q 1781 4219 1451 3797 
Q 1122 3375 1075 2522 
Q 1259 2794 1537 2939 
Q 1816 3084 2150 3084 
Q 2853 3084 3261 2657 
Q 3669 2231 3669 1497 
Q 3669 778 3244 343 
Q 2819 -91 2113 -91 
Q 1303 -91 875 529 
Q 447 1150 447 2328 
Q 447 3434 972 4092 
Q 1497 4750 2381 4750 
Q 2619 4750 2861 4703 
Q 3103 4656 3366 4563 
z
" transform="scale(0.015625)"/>
       </defs>
       <use xlink:href="#DejaVuSans-36"/>
      </g>
     </g>
    </g>
    <g id="ytick_5">
     <g id="line2d_8">
      <g>
       <use xlink:href="#m8a6e32d660" x="50.42" y="117.531826" style="stroke: #000000; stroke-width: 0.8"/>
      </g>
     </g>
     <g id="text_9">
      <!-- 8 -->
      <g transform="translate(36.42125 121.710967) scale(0.11 -0.11)">
       <defs>
        <path id="DejaVuSans-38" d="M 2034 2216 
Q 1584 2216 1326 1975 
Q 1069 1734 1069 1313 
Q 1069 891 1326 650 
Q 1584 409 2034 409 
Q 2484 409 2743 651 
Q 3003 894 3003 1313 
Q 3003 1734 2745 1975 
Q 2488 2216 2034 2216 
z
M 1403 2484 
Q 997 2584 770 2862 
Q 544 3141 544 3541 
Q 544 4100 942 4425 
Q 1341 4750 2034 4750 
Q 2731 4750 3128 4425 
Q 3525 4100 3525 3541 
Q 3525 3141 3298 2862 
Q 3072 2584 2669 2484 
Q 3125 2378 3379 2068 
Q 3634 1759 3634 1313 
Q 3634 634 3220 271 
Q 2806 -91 2034 -91 
Q 1263 -91 848 271 
Q 434 634 434 1313 
Q 434 1759 690 2068 
Q 947 2378 1403 2484 
z
M 1172 3481 
Q 1172 3119 1398 2916 
Q 1625 2713 2034 2713 
Q 2441 2713 2670 2916 
Q 2900 3119 2900 3481 
Q 2900 3844 2670 4047 
Q 2441 4250 2034 4250 
Q 1625 4250 1398 4047 
Q 1172 3844 1172 3481 
z
" transform="scale(0.015625)"/>
       </defs>
       <use xlink:href="#DejaVuSans-38"/>
      </g>
     </g>
    </g>
    <g id="ytick_6">
     <g id="line2d_9">
      <g>
       <use xlink:href="#m8a6e32d660" x="50.42" y="68.034783" style="stroke: #000000; stroke-width: 0.8"/>
      </g>
     </g>
     <g id="text_10">
      <!-- 10 -->
      <g transform="translate(29.4225 72.213923) scale(0.11 -0.11)">
       <defs>
        <path id="DejaVuSans-31" d="M 794 531 
L 1825 531 
L 1825 4091 
L 703 3866 
L 703 4441 
L 1819 4666 
L 2450 4666 
L 2450 531 
L 3481 531 
L 3481 0 
L 794 0 
L 794 531 
z
" transform="scale(0.015625)"/>
       </defs>
       <use xlink:href="#DejaVuSans-31"/>
       <use xlink:href="#DejaVuSans-30" transform="translate(63.623047 0)"/>
      </g>
     </g>
    </g>
    <g id="text_11">
     <!-- energy  $E_n / E_1$  (with $\psi_n$ overlaid) -->
     <g transform="translate(23.1125 261.326) rotate(-90) scale(0.11 -0.11)">
      <defs>
       <path id="DejaVuSans-65" d="M 3597 1894 
L 3597 1613 
L 953 1613 
Q 991 1019 1311 708 
Q 1631 397 2203 397 
Q 2534 397 2845 478 
Q 3156 559 3463 722 
L 3463 178 
Q 3153 47 2828 -22 
Q 2503 -91 2169 -91 
Q 1331 -91 842 396 
Q 353 884 353 1716 
Q 353 2575 817 3079 
Q 1281 3584 2069 3584 
Q 2775 3584 3186 3129 
Q 3597 2675 3597 1894 
z
M 3022 2063 
Q 3016 2534 2758 2815 
Q 2500 3097 2075 3097 
Q 1594 3097 1305 2825 
Q 1016 2553 972 2059 
L 3022 2063 
z
" transform="scale(0.015625)"/>
       <path id="DejaVuSans-72" d="M 2631 2963 
Q 2534 3019 2420 3045 
Q 2306 3072 2169 3072 
Q 1681 3072 1420 2755 
Q 1159 2438 1159 1844 
L 1159 0 
L 581 0 
L 581 3500 
L 1159 3500 
L 1159 2956 
Q 1341 3275 1631 3429 
Q 1922 3584 2338 3584 
Q 2397 3584 2469 3576 
Q 2541 3569 2628 3553 
L 2631 2963 
z
" transform="scale(0.015625)"/>
       <path id="DejaVuSans-67" d="M 2906 1791 
Q 2906 2416 2648 2759 
Q 2391 3103 1925 3103 
Q 1463 3103 1205 2759 
Q 947 2416 947 1791 
Q 947 1169 1205 825 
Q 1463 481 1925 481 
Q 2391 481 2648 825 
Q 2906 1169 2906 1791 
z
M 3481 434 
Q 3481 -459 3084 -895 
Q 2688 -1331 1869 -1331 
Q 1566 -1331 1297 -1286 
Q 1028 -1241 775 -1147 
L 775 -588 
Q 1028 -725 1275 -790 
Q 1522 -856 1778 -856 
Q 2344 -856 2625 -561 
Q 2906 -266 2906 331 
L 2906 616 
Q 2728 306 2450 153 
Q 2172 0 1784 0 
Q 1141 0 747 490 
Q 353 981 353 1791 
Q 353 2603 747 3093 
Q 1141 3584 1784 3584 
Q 2172 3584 2450 3431 
Q 2728 3278 2906 2969 
L 2906 3500 
L 3481 3500 
L 3481 434 
z
" transform="scale(0.015625)"/>
       <path id="DejaVuSans-79" d="M 2059 -325 
Q 1816 -950 1584 -1140 
Q 1353 -1331 966 -1331 
L 506 -1331 
L 506 -850 
L 844 -850 
Q 1081 -850 1212 -737 
Q 1344 -625 1503 -206 
L 1606 56 
L 191 3500 
L 800 3500 
L 1894 763 
L 2988 3500 
L 3597 3500 
L 2059 -325 
z
" transform="scale(0.015625)"/>
       <path id="DejaVuSans-Oblique-45" d="M 1081 4666 
L 4031 4666 
L 3928 4134 
L 1606 4134 
L 1338 2753 
L 3566 2753 
L 3463 2222 
L 1234 2222 
L 909 531 
L 3284 531 
L 3181 0 
L 172 0 
L 1081 4666 
z
" transform="scale(0.015625)"/>
       <path id="DejaVuSans-Oblique-6e" d="M 3566 2113 
L 3156 0 
L 2578 0 
L 2988 2091 
Q 3016 2238 3031 2350 
Q 3047 2463 3047 2528 
Q 3047 2791 2881 2937 
Q 2716 3084 2419 3084 
Q 1956 3084 1622 2776 
Q 1288 2469 1184 1941 
L 800 0 
L 225 0 
L 903 3500 
L 1478 3500 
L 1363 2950 
Q 1603 3253 1940 3418 
Q 2278 3584 2650 3584 
Q 3113 3584 3367 3334 
Q 3622 3084 3622 2631 
Q 3622 2519 3608 2391 
Q 3594 2263 3566 2113 
z
" transform="scale(0.015625)"/>
       <path id="DejaVuSans-28" d="M 1984 4856 
Q 1566 4138 1362 3434 
Q 1159 2731 1159 2009 
Q 1159 1288 1364 580 
Q 1569 -128 1984 -844 
L 1484 -844 
Q 1016 -109 783 600 
Q 550 1309 550 2009 
Q 550 2706 781 3412 
Q 1013 4119 1484 4856 
L 1984 4856 
z
" transform="scale(0.015625)"/>
       <path id="DejaVuSans-77" d="M 269 3500 
L 844 3500 
L 1563 769 
L 2278 3500 
L 2956 3500 
L 3675 769 
L 4391 3500 
L 4966 3500 
L 4050 0 
L 3372 0 
L 2619 2869 
L 1863 0 
L 1184 0 
L 269 3500 
z
" transform="scale(0.015625)"/>
       <path id="DejaVuSans-68" d="M 3513 2113 
L 3513 0 
L 2938 0 
L 2938 2094 
Q 2938 2591 2744 2837 
Q 2550 3084 2163 3084 
Q 1697 3084 1428 2787 
Q 1159 2491 1159 1978 
L 1159 0 
L 581 0 
L 581 4863 
L 1159 4863 
L 1159 2956 
Q 1366 3272 1645 3428 
Q 1925 3584 2291 3584 
Q 2894 3584 3203 3211 
Q 3513 2838 3513 2113 
z
" transform="scale(0.015625)"/>
       <path id="DejaVuSans-Oblique-3c8" d="M 1591 -78 
Q 891 38 616 341 
Q 278 713 425 1472 
L 819 3500 
L 1400 3500 
L 1009 1494 
Q 900 922 1119 684 
Q 1313 478 1691 434 
L 2284 3500 
L 2856 3500 
L 2263 438 
Q 2681 481 2928 688 
Q 3247 950 3353 1497 
L 3741 3500 
L 4322 3500 
L 3928 1475 
Q 3775 688 3300 344 
Q 2872 34 2163 -75 
L 1919 -1331 
L 1347 -1331 
L 1591 -78 
z
" transform="scale(0.015625)"/>
       <path id="DejaVuSans-76" d="M 191 3500 
L 800 3500 
L 1894 563 
L 2988 3500 
L 3597 3500 
L 2284 0 
L 1503 0 
L 191 3500 
z
" transform="scale(0.015625)"/>
       <path id="DejaVuSans-6c" d="M 603 4863 
L 1178 4863 
L 1178 0 
L 603 0 
L 603 4863 
z
" transform="scale(0.015625)"/>
       <path id="DejaVuSans-61" d="M 2194 1759 
Q 1497 1759 1228 1600 
Q 959 1441 959 1056 
Q 959 750 1161 570 
Q 1363 391 1709 391 
Q 2188 391 2477 730 
Q 2766 1069 2766 1631 
L 2766 1759 
L 2194 1759 
z
M 3341 1997 
L 3341 0 
L 2766 0 
L 2766 531 
Q 2569 213 2275 61 
Q 1981 -91 1556 -91 
Q 1019 -91 701 211 
Q 384 513 384 1019 
Q 384 1609 779 1909 
Q 1175 2209 1959 2209 
L 2766 2209 
L 2766 2266 
Q 2766 2663 2505 2880 
Q 2244 3097 1772 3097 
Q 1472 3097 1187 3025 
Q 903 2953 641 2809 
L 641 3341 
Q 956 3463 1253 3523 
Q 1550 3584 1831 3584 
Q 2591 3584 2966 3190 
Q 3341 2797 3341 1997 
z
" transform="scale(0.015625)"/>
       <path id="DejaVuSans-64" d="M 2906 2969 
L 2906 4863 
L 3481 4863 
L 3481 0 
L 2906 0 
L 2906 525 
Q 2725 213 2448 61 
Q 2172 -91 1784 -91 
Q 1150 -91 751 415 
Q 353 922 353 1747 
Q 353 2572 751 3078 
Q 1150 3584 1784 3584 
Q 2172 3584 2448 3432 
Q 2725 3281 2906 2969 
z
M 947 1747 
Q 947 1113 1208 752 
Q 1469 391 1925 391 
Q 2381 391 2643 752 
Q 2906 1113 2906 1747 
Q 2906 2381 2643 2742 
Q 2381 3103 1925 3103 
Q 1469 3103 1208 2742 
Q 947 2381 947 1747 
z
" transform="scale(0.015625)"/>
       <path id="DejaVuSans-29" d="M 513 4856 
L 1013 4856 
Q 1481 4119 1714 3412 
Q 1947 2706 1947 2009 
Q 1947 1309 1714 600 
Q 1481 -109 1013 -844 
L 513 -844 
Q 928 -128 1133 580 
Q 1338 1288 1338 2009 
Q 1338 2731 1133 3434 
Q 928 4138 513 4856 
z
" transform="scale(0.015625)"/>
      </defs>
      <use xlink:href="#DejaVuSans-65" transform="translate(0 0.015625)"/>
      <use xlink:href="#DejaVuSans-6e" transform="translate(61.523438 0.015625)"/>
      <use xlink:href="#DejaVuSans-65" transform="translate(124.902344 0.015625)"/>
      <use xlink:href="#DejaVuSans-72" transform="translate(186.425781 0.015625)"/>
      <use xlink:href="#DejaVuSans-67" transform="translate(227.539062 0.015625)"/>
      <use xlink:href="#DejaVuSans-79" transform="translate(291.015625 0.015625)"/>
      <use xlink:href="#DejaVuSans-20" transform="translate(350.195312 0.015625)"/>
      <use xlink:href="#DejaVuSans-20" transform="translate(381.982422 0.015625)"/>
      <use xlink:href="#DejaVuSans-Oblique-45" transform="translate(413.769531 0.015625)"/>
      <use xlink:href="#DejaVuSans-Oblique-6e" transform="translate(476.953125 -16.390625) scale(0.7)"/>
      <use xlink:href="#DejaVuSans-2f" transform="translate(524.052734 0.015625)"/>
      <use xlink:href="#DejaVuSans-Oblique-45" transform="translate(557.744141 0.015625)"/>
      <use xlink:href="#DejaVuSans-31" transform="translate(620.927734 -16.390625) scale(0.7)"/>
      <use xlink:href="#DejaVuSans-20" transform="translate(668.198242 0.015625)"/>
      <use xlink:href="#DejaVuSans-20" transform="translate(699.985352 0.015625)"/>
      <use xlink:href="#DejaVuSans-28" transform="translate(731.772461 0.015625)"/>
      <use xlink:href="#DejaVuSans-77" transform="translate(770.786133 0.015625)"/>
      <use xlink:href="#DejaVuSans-69" transform="translate(852.573242 0.015625)"/>
      <use xlink:href="#DejaVuSans-74" transform="translate(880.356445 0.015625)"/>
      <use xlink:href="#DejaVuSans-68" transform="translate(919.56543 0.015625)"/>
      <use xlink:href="#DejaVuSans-20" transform="translate(982.944336 0.015625)"/>
      <use xlink:href="#DejaVuSans-Oblique-3c8" transform="translate(1014.731445 0.015625)"/>
      <use xlink:href="#DejaVuSans-Oblique-6e" transform="translate(1080.698242 -16.390625) scale(0.7)"/>
      <use xlink:href="#DejaVuSans-20" transform="translate(1127.797852 0.015625)"/>
      <use xlink:href="#DejaVuSans-6f" transform="translate(1159.584961 0.015625)"/>
      <use xlink:href="#DejaVuSans-76" transform="translate(1220.766602 0.015625)"/>
      <use xlink:href="#DejaVuSans-65" transform="translate(1279.946289 0.015625)"/>
      <use xlink:href="#DejaVuSans-72" transform="translate(1341.469727 0.015625)"/>
      <use xlink:href="#DejaVuSans-6c" transform="translate(1382.583008 0.015625)"/>
      <use xlink:href="#DejaVuSans-61" transform="translate(1410.366211 0.015625)"/>
      <use xlink:href="#DejaVuSans-69" transform="translate(1471.645508 0.015625)"/>
      <use xlink:href="#DejaVuSans-64" transform="translate(1499.428711 0.015625)"/>
      <use xlink:href="#DejaVuSans-29" transform="translate(1562.905273 0.015625)"/>
     </g>
    </g>
   </g>
   <g id="line2d_10">
    <path d="M 50.42 290.771478 
L 448.92 290.771478 
" clip-path="url(#pcd801f4ba0)" style="fill: none; stroke-dasharray: 0.7,1.155; stroke-dashoffset: 0; stroke: #999999; stroke-width: 0.7"/>
   </g>
   <g id="line2d_11">
    <path d="M 84.096056 290.771478 
L 105.466967 277.869566 
L 117.277207 271.009067 
L 126.837878 265.702586 
L 135.273764 261.256741 
L 143.147257 257.343833 
L 150.458358 253.942181 
L 157.769459 250.787097 
L 164.518168 248.111856 
L 171.266877 245.679988 
L 177.453193 243.676446 
L 183.639509 241.898684 
L 189.825826 240.355225 
L 196.012142 239.053469 
L 201.636066 238.08507 
L 207.25999 237.325434 
L 212.883914 236.777571 
L 218.507838 236.443652 
L 224.131762 236.325 
L 229.755685 236.422085 
L 235.379609 236.734523 
L 241.003533 237.261075 
L 246.627457 237.999656 
L 252.251381 238.947338 
L 258.437697 240.226794 
L 264.624014 241.748569 
L 270.81033 243.505366 
L 276.996646 245.488763 
L 283.745355 247.899704 
L 290.494064 250.555229 
L 297.242772 253.440186 
L 304.553873 256.805347 
L 312.427367 260.682996 
L 320.863253 265.096012 
L 329.861531 270.054427 
L 340.546986 276.211125 
L 353.482011 283.933888 
L 364.729859 290.771478 
L 364.729859 290.771478 
" clip-path="url(#pcd801f4ba0)" style="fill: none; stroke: #0072b2; stroke-width: 2; stroke-linecap: square"/>
   </g>
   <g id="line2d_12">
    <path d="M 50.42 216.525913 
L 448.92 216.525913 
" clip-path="url(#pcd801f4ba0)" style="fill: none; stroke-dasharray: 0.7,1.155; stroke-dashoffset: 0; stroke: #999999; stroke-width: 0.7"/>
   </g>
   <g id="line2d_13">
    <path d="M 84.096056 216.525913 
L 95.906297 202.296146 
L 102.092613 195.17652 
L 107.154144 189.649607 
L 111.653283 185.024135 
L 116.152423 180.718042 
L 120.089169 177.24661 
L 124.025916 174.080134 
L 127.40027 171.627435 
L 130.774625 169.430881 
L 134.148979 167.503003 
L 137.523333 165.854801 
L 140.335295 164.701772 
L 143.147257 163.754091 
L 145.959219 163.01551 
L 148.771181 162.488958 
L 151.583143 162.17652 
L 154.395105 162.079435 
L 157.207067 162.198087 
L 160.019029 162.532006 
L 162.830991 163.079869 
L 165.642953 163.839505 
L 168.454915 164.807904 
L 171.266877 165.981229 
L 174.641231 167.653119 
L 178.015586 169.603828 
L 181.38994 171.822227 
L 184.764294 174.295659 
L 188.701041 177.484762 
L 192.637788 180.976973 
L 197.136927 185.304342 
L 201.636066 189.948249 
L 206.697597 195.492274 
L 212.883914 202.627297 
L 221.3198 212.758296 
L 237.066787 231.745695 
L 243.253103 238.817441 
L 248.314634 244.291705 
L 252.813773 248.860774 
L 257.312913 253.102018 
L 261.249659 256.510294 
L 265.186406 259.60814 
L 268.56076 261.998058 
L 271.935115 264.128559 
L 275.309469 265.987488 
L 278.683823 267.564239 
L 281.495785 268.656106 
L 284.307747 269.541415 
L 287.119709 270.216656 
L 289.931671 270.679154 
L 292.743633 270.927077 
L 295.555595 270.959443 
L 298.367557 270.776123 
L 301.179519 270.377843 
L 303.991481 269.766182 
L 306.803443 268.943563 
L 309.615405 267.913246 
L 312.427367 266.679313 
L 315.801721 264.936761 
L 319.176076 262.918026 
L 322.55043 260.634624 
L 325.924784 258.099582 
L 329.861531 254.84336 
L 333.798278 251.289649 
L 338.297417 246.899485 
L 342.796556 242.201379 
L 347.858087 236.607338 
L 354.044404 229.427825 
L 362.48029 219.26703 
L 364.729859 216.525913 
L 364.729859 216.525913 
" clip-path="url(#pcd801f4ba0)" style="fill: none; stroke: #d55e00; stroke-width: 2; stroke-linecap: square"/>
   </g>
   <g id="line2d_14">
    <path d="M 50.42 92.783304 
L 448.92 92.783304 
" clip-path="url(#pcd801f4ba0)" style="fill: none; stroke-dasharray: 0.7,1.155; stroke-dashoffset: 0; stroke: #999999; stroke-width: 0.7"/>
   </g>
   <g id="line2d_15">
    <path d="M 84.096056 92.783304 
L 92.531942 77.563523 
L 97.031081 69.868083 
L 100.967828 63.557201 
L 104.342182 58.549944 
L 107.154144 54.710142 
L 109.966106 51.209635 
L 112.778068 48.079618 
L 115.027638 45.861219 
L 117.277207 43.91051 
L 119.526777 42.23862 
L 121.776346 40.855087 
L 124.025916 39.767803 
L 126.275486 38.982972 
L 127.962663 38.595592 
L 129.64984 38.38214 
L 131.337017 38.3433 
L 133.024194 38.479198 
L 134.711371 38.789397 
L 136.398549 39.272902 
L 138.648118 40.184398 
L 140.897688 41.395971 
L 143.147257 42.900708 
L 145.396827 44.690025 
L 147.646396 46.753713 
L 149.895966 49.079999 
L 152.707928 52.33678 
L 155.51989 55.954007 
L 158.894244 60.724871 
L 162.268599 65.906999 
L 166.205345 72.383662 
L 170.704484 80.214667 
L 178.015586 93.468855 
L 186.451471 108.660101 
L 190.950611 116.318585 
L 194.887357 122.585504 
L 198.261712 127.547041 
L 201.073674 131.343518 
L 203.885635 134.796359 
L 206.697597 137.874795 
L 208.947167 140.049417 
L 211.196737 141.954387 
L 213.446306 143.578836 
L 215.695876 144.913498 
L 217.945445 145.950757 
L 220.195015 146.684697 
L 221.882192 147.033514 
L 223.569369 147.208203 
L 225.256546 147.208203 
L 226.943724 147.033514 
L 228.630901 146.684697 
L 230.88047 145.950757 
L 233.13004 144.913498 
L 235.379609 143.578836 
L 237.629179 141.954387 
L 239.878748 140.049417 
L 242.128318 137.874795 
L 244.94028 134.796359 
L 247.752242 131.343518 
L 250.564204 127.547041 
L 253.938558 122.585504 
L 257.312913 117.241648 
L 261.249659 110.61563 
L 266.311191 101.655956 
L 282.62057 72.383662 
L 286.557317 65.906999 
L 289.931671 60.724871 
L 293.306026 55.954007 
L 296.117988 52.33678 
L 298.929949 49.079999 
L 301.741911 46.212686 
L 303.991481 44.216547 
L 306.241051 42.497481 
L 308.49062 41.065295 
L 310.74019 39.928159 
L 312.989759 39.092562 
L 315.239329 38.563269 
L 316.926506 38.369194 
L 318.613683 38.349774 
L 320.30086 38.505071 
L 321.988037 38.834585 
L 324.237607 39.543035 
L 326.487177 40.555221 
L 328.736746 41.865367 
L 330.986316 43.465998 
L 333.235885 45.347985 
L 335.485455 47.500589 
L 338.297417 50.55305 
L 341.109379 53.981853 
L 343.921341 57.756442 
L 347.295695 62.694822 
L 350.670049 68.019196 
L 354.606796 74.627457 
L 359.668328 83.572628 
L 364.729859 92.783304 
L 364.729859 92.783304 
" clip-path="url(#pcd801f4ba0)" style="fill: none; stroke: #e69f00; stroke-width: 2; stroke-linecap: square"/>
   </g>
   <g id="line2d_16">
    <path d="M 84.096056 315.52 
L 84.096056 30.912 
" clip-path="url(#pcd801f4ba0)" style="fill: none; stroke: #000000; stroke-width: 3; stroke-linecap: square"/>
   </g>
   <g id="line2d_17">
    <path d="M 364.729859 315.52 
L 364.729859 30.912 
" clip-path="url(#pcd801f4ba0)" style="fill: none; stroke: #000000; stroke-width: 3; stroke-linecap: square"/>
   </g>
   <g id="patch_3">
    <path d="M 50.42 315.52 
L 50.42 30.912 
" style="fill: none; stroke: #000000; stroke-linejoin: miter; stroke-linecap: square"/>
   </g>
   <g id="patch_4">
    <path d="M 50.42 315.52 
L 448.92 315.52 
" style="fill: none; stroke: #000000; stroke-linejoin: miter; stroke-linecap: square"/>
   </g>
   <g id="text_12">
    <!-- $E_1=1E_1$ -->
    <g style="fill: #0072b2" transform="translate(370.342535 293.530853) scale(0.1 -0.1)">
     <defs>
      <path id="DejaVuSans-3d" d="M 678 2906 
L 4684 2906 
L 4684 2381 
L 678 2381 
L 678 2906 
z
M 678 1631 
L 4684 1631 
L 4684 1100 
L 678 1100 
L 678 1631 
z
" transform="scale(0.015625)"/>
     </defs>
     <use xlink:href="#DejaVuSans-Oblique-45" transform="translate(0 0.09375)"/>
     <use xlink:href="#DejaVuSans-31" transform="translate(63.183594 -16.3125) scale(0.7)"/>
     <use xlink:href="#DejaVuSans-3d" transform="translate(129.936523 0.09375)"/>
     <use xlink:href="#DejaVuSans-31" transform="translate(233.208008 0.09375)"/>
     <use xlink:href="#DejaVuSans-Oblique-45" transform="translate(296.831055 0.09375)"/>
     <use xlink:href="#DejaVuSans-31" transform="translate(360.014648 -16.3125) scale(0.7)"/>
    </g>
   </g>
   <g id="text_13">
    <!-- $E_2=4E_1$ -->
    <g style="fill: #d55e00" transform="translate(370.342535 219.285288) scale(0.1 -0.1)">
     <use xlink:href="#DejaVuSans-Oblique-45" transform="translate(0 0.09375)"/>
     <use xlink:href="#DejaVuSans-32" transform="translate(63.183594 -16.3125) scale(0.7)"/>
     <use xlink:href="#DejaVuSans-3d" transform="translate(129.936523 0.09375)"/>
     <use xlink:href="#DejaVuSans-34" transform="translate(233.208008 0.09375)"/>
     <use xlink:href="#DejaVuSans-Oblique-45" transform="translate(296.831055 0.09375)"/>
     <use xlink:href="#DejaVuSans-31" transform="translate(360.014648 -16.3125) scale(0.7)"/>
    </g>
   </g>
   <g id="text_14">
    <!-- $E_3=9E_1$ -->
    <g style="fill: #e69f00" transform="translate(370.342535 95.542679) scale(0.1 -0.1)">
     <defs>
      <path id="DejaVuSans-33" d="M 2597 2516 
Q 3050 2419 3304 2112 
Q 3559 1806 3559 1356 
Q 3559 666 3084 287 
Q 2609 -91 1734 -91 
Q 1441 -91 1130 -33 
Q 819 25 488 141 
L 488 750 
Q 750 597 1062 519 
Q 1375 441 1716 441 
Q 2309 441 2620 675 
Q 2931 909 2931 1356 
Q 2931 1769 2642 2001 
Q 2353 2234 1838 2234 
L 1294 2234 
L 1294 2753 
L 1863 2753 
Q 2328 2753 2575 2939 
Q 2822 3125 2822 3475 
Q 2822 3834 2567 4026 
Q 2313 4219 1838 4219 
Q 1578 4219 1281 4162 
Q 984 4106 628 3988 
L 628 4550 
Q 988 4650 1302 4700 
Q 1616 4750 1894 4750 
Q 2613 4750 3031 4423 
Q 3450 4097 3450 3541 
Q 3450 3153 3228 2886 
Q 3006 2619 2597 2516 
z
" transform="scale(0.015625)"/>
      <path id="DejaVuSans-39" d="M 703 97 
L 703 672 
Q 941 559 1184 500 
Q 1428 441 1663 441 
Q 2288 441 2617 861 
Q 2947 1281 2994 2138 
Q 2813 1869 2534 1725 
Q 2256 1581 1919 1581 
Q 1219 1581 811 2004 
Q 403 2428 403 3163 
Q 403 3881 828 4315 
Q 1253 4750 1959 4750 
Q 2769 4750 3195 4129 
Q 3622 3509 3622 2328 
Q 3622 1225 3098 567 
Q 2575 -91 1691 -91 
Q 1453 -91 1209 -44 
Q 966 3 703 97 
z
M 1959 2075 
Q 2384 2075 2632 2365 
Q 2881 2656 2881 3163 
Q 2881 3666 2632 3958 
Q 2384 4250 1959 4250 
Q 1534 4250 1286 3958 
Q 1038 3666 1038 3163 
Q 1038 2656 1286 2365 
Q 1534 2075 1959 2075 
z
" transform="scale(0.015625)"/>
     </defs>
     <use xlink:href="#DejaVuSans-Oblique-45" transform="translate(0 0.78125)"/>
     <use xlink:href="#DejaVuSans-33" transform="translate(63.183594 -15.625) scale(0.7)"/>
     <use xlink:href="#DejaVuSans-3d" transform="translate(129.936523 0.78125)"/>
     <use xlink:href="#DejaVuSans-39" transform="translate(233.208008 0.78125)"/>
     <use xlink:href="#DejaVuSans-Oblique-45" transform="translate(296.831055 0.78125)"/>
     <use xlink:href="#DejaVuSans-31" transform="translate(360.014648 -15.625) scale(0.7)"/>
    </g>
   </g>
   <g id="text_15">
    <!-- $V=\infty$ -->
    <g transform="translate(70.791017 205.527391) rotate(-90) scale(0.1 -0.1)">
     <defs>
      <path id="DejaVuSans-Oblique-56" d="M 1319 0 
L 500 4666 
L 1119 4666 
L 1797 653 
L 4063 4666 
L 4750 4666 
L 2053 0 
L 1319 0 
z
" transform="scale(0.015625)"/>
      <path id="DejaVuSans-221e" d="M 2916 1091 
Q 2819 1203 2666 1466 
Q 2456 1091 2272 925 
Q 2041 725 1681 725 
Q 1259 725 981 1041 
Q 688 1372 688 1919 
Q 688 2444 981 2800 
Q 1244 3116 1688 3116 
Q 1916 3116 2084 3022 
Q 2281 2919 2416 2741 
Q 2541 2581 2666 2366 
Q 2875 2741 3059 2906 
Q 3291 3106 3650 3106 
Q 4072 3106 4350 2791 
Q 4644 2459 4644 1913 
Q 4644 1388 4350 1031 
Q 4088 716 3644 716 
Q 3416 716 3247 809 
Q 3078 894 2916 1091 
z
M 1647 1134 
Q 2163 1134 2472 1884 
Q 2075 2703 1647 2703 
Q 1334 2703 1175 2478 
Q 1003 2238 1003 1919 
Q 1003 1569 1175 1353 
Q 1350 1134 1647 1134 
z
M 3684 2697 
Q 3219 2697 2859 1947 
Q 3253 1128 3684 1128 
Q 3997 1128 4156 1353 
Q 4328 1594 4328 1913 
Q 4328 2263 4156 2478 
Q 3981 2697 3684 2697 
z
" transform="scale(0.015625)"/>
     </defs>
     <use xlink:href="#DejaVuSans-Oblique-56" transform="translate(0 0.09375)"/>
     <use xlink:href="#DejaVuSans-3d" transform="translate(87.890625 0.09375)"/>
     <use xlink:href="#DejaVuSans-221e" transform="translate(191.162109 0.09375)"/>
    </g>
   </g>
   <g id="text_16">
    <!-- $V=\infty$ -->
    <g transform="translate(383.553649 205.527391) rotate(-90) scale(0.1 -0.1)">
     <use xlink:href="#DejaVuSans-Oblique-56" transform="translate(0 0.09375)"/>
     <use xlink:href="#DejaVuSans-3d" transform="translate(87.890625 0.09375)"/>
     <use xlink:href="#DejaVuSans-221e" transform="translate(191.162109 0.09375)"/>
    </g>
   </g>
   <g id="text_17">
    <!-- Infinite square well: $E_n=n^2E_1$, ladder spacing 1:4:9 -->
    <g transform="translate(95.59 24.912) scale(0.12 -0.12)">
     <defs>
      <path id="DejaVuSans-49" d="M 628 4666 
L 1259 4666 
L 1259 0 
L 628 0 
L 628 4666 
z
" transform="scale(0.015625)"/>
      <path id="DejaVuSans-66" d="M 2375 4863 
L 2375 4384 
L 1825 4384 
Q 1516 4384 1395 4259 
Q 1275 4134 1275 3809 
L 1275 3500 
L 2222 3500 
L 2222 3053 
L 1275 3053 
L 1275 0 
L 697 0 
L 697 3053 
L 147 3053 
L 147 3500 
L 697 3500 
L 697 3744 
Q 697 4328 969 4595 
Q 1241 4863 1831 4863 
L 2375 4863 
z
" transform="scale(0.015625)"/>
      <path id="DejaVuSans-71" d="M 947 1747 
Q 947 1113 1208 752 
Q 1469 391 1925 391 
Q 2381 391 2643 752 
Q 2906 1113 2906 1747 
Q 2906 2381 2643 2742 
Q 2381 3103 1925 3103 
Q 1469 3103 1208 2742 
Q 947 2381 947 1747 
z
M 2906 525 
Q 2725 213 2448 61 
Q 2172 -91 1784 -91 
Q 1150 -91 751 415 
Q 353 922 353 1747 
Q 353 2572 751 3078 
Q 1150 3584 1784 3584 
Q 2172 3584 2448 3432 
Q 2725 3281 2906 2969 
L 2906 3500 
L 3481 3500 
L 3481 -1331 
L 2906 -1331 
L 2906 525 
z
" transform="scale(0.015625)"/>
      <path id="DejaVuSans-75" d="M 544 1381 
L 544 3500 
L 1119 3500 
L 1119 1403 
Q 1119 906 1312 657 
Q 1506 409 1894 409 
Q 2359 409 2629 706 
Q 2900 1003 2900 1516 
L 2900 3500 
L 3475 3500 
L 3475 0 
L 2900 0 
L 2900 538 
Q 2691 219 2414 64 
Q 2138 -91 1772 -91 
Q 1169 -91 856 284 
Q 544 659 544 1381 
z
M 1991 3584 
L 1991 3584 
z
" transform="scale(0.015625)"/>
      <path id="DejaVuSans-3a" d="M 750 794 
L 1409 794 
L 1409 0 
L 750 0 
L 750 794 
z
M 750 3309 
L 1409 3309 
L 1409 2516 
L 750 2516 
L 750 3309 
z
" transform="scale(0.015625)"/>
      <path id="DejaVuSans-2c" d="M 750 794 
L 1409 794 
L 1409 256 
L 897 -744 
L 494 -744 
L 750 256 
L 750 794 
z
" transform="scale(0.015625)"/>
      <path id="DejaVuSans-63" d="M 3122 3366 
L 3122 2828 
Q 2878 2963 2633 3030 
Q 2388 3097 2138 3097 
Q 1578 3097 1268 2742 
Q 959 2388 959 1747 
Q 959 1106 1268 751 
Q 1578 397 2138 397 
Q 2388 397 2633 464 
Q 2878 531 3122 666 
L 3122 134 
Q 2881 22 2623 -34 
Q 2366 -91 2075 -91 
Q 1284 -91 818 406 
Q 353 903 353 1747 
Q 353 2603 823 3093 
Q 1294 3584 2113 3584 
Q 2378 3584 2631 3529 
Q 2884 3475 3122 3366 
z
" transform="scale(0.015625)"/>
     </defs>
     <use xlink:href="#DejaVuSans-49" transform="translate(0 0.765625)"/>
     <use xlink:href="#DejaVuSans-6e" transform="translate(29.492188 0.765625)"/>
     <use xlink:href="#DejaVuSans-66" transform="translate(92.871094 0.765625)"/>
     <use xlink:href="#DejaVuSans-69" transform="translate(128.076172 0.765625)"/>
     <use xlink:href="#DejaVuSans-6e" transform="translate(155.859375 0.765625)"/>
     <use xlink:href="#DejaVuSans-69" transform="translate(219.238281 0.765625)"/>
     <use xlink:href="#DejaVuSans-74" transform="translate(247.021484 0.765625)"/>
     <use xlink:href="#DejaVuSans-65" transform="translate(286.230469 0.765625)"/>
     <use xlink:href="#DejaVuSans-20" transform="translate(347.753906 0.765625)"/>
     <use xlink:href="#DejaVuSans-73" transform="translate(379.541016 0.765625)"/>
     <use xlink:href="#DejaVuSans-71" transform="translate(431.640625 0.765625)"/>
     <use xlink:href="#DejaVuSans-75" transform="translate(495.117188 0.765625)"/>
     <use xlink:href="#DejaVuSans-61" transform="translate(558.496094 0.765625)"/>
     <use xlink:href="#DejaVuSans-72" transform="translate(619.775391 0.765625)"/>
     <use xlink:href="#DejaVuSans-65" transform="translate(660.888672 0.765625)"/>
     <use xlink:href="#DejaVuSans-20" transform="translate(722.412109 0.765625)"/>
     <use xlink:href="#DejaVuSans-77" transform="translate(754.199219 0.765625)"/>
     <use xlink:href="#DejaVuSans-65" transform="translate(835.986328 0.765625)"/>
     <use xlink:href="#DejaVuSans-6c" transform="translate(897.509766 0.765625)"/>
     <use xlink:href="#DejaVuSans-6c" transform="translate(925.292969 0.765625)"/>
     <use xlink:href="#DejaVuSans-3a" transform="translate(953.076172 0.765625)"/>
     <use xlink:href="#DejaVuSans-20" transform="translate(986.767578 0.765625)"/>
     <use xlink:href="#DejaVuSans-Oblique-45" transform="translate(1018.554688 0.765625)"/>
     <use xlink:href="#DejaVuSans-Oblique-6e" transform="translate(1081.738281 -15.640625) scale(0.7)"/>
     <use xlink:href="#DejaVuSans-3d" transform="translate(1148.320312 0.765625)"/>
     <use xlink:href="#DejaVuSans-Oblique-6e" transform="translate(1251.591797 0.765625)"/>
     <use xlink:href="#DejaVuSans-32" transform="translate(1319.620599 39.046875) scale(0.7)"/>
     <use xlink:href="#DejaVuSans-Oblique-45" transform="translate(1366.891107 0.765625)"/>
     <use xlink:href="#DejaVuSans-31" transform="translate(1430.074701 -15.640625) scale(0.7)"/>
     <use xlink:href="#DejaVuSans-2c" transform="translate(1477.345208 0.765625)"/>
     <use xlink:href="#DejaVuSans-20" transform="translate(1509.132318 0.765625)"/>
     <use xlink:href="#DejaVuSans-6c" transform="translate(1540.919427 0.765625)"/>
     <use xlink:href="#DejaVuSans-61" transform="translate(1568.70263 0.765625)"/>
     <use xlink:href="#DejaVuSans-64" transform="translate(1629.981927 0.765625)"/>
     <use xlink:href="#DejaVuSans-64" transform="translate(1693.45849 0.765625)"/>
     <use xlink:href="#DejaVuSans-65" transform="translate(1756.935052 0.765625)"/>
     <use xlink:href="#DejaVuSans-72" transform="translate(1818.45849 0.765625)"/>
     <use xlink:href="#DejaVuSans-20" transform="translate(1859.571771 0.765625)"/>
     <use xlink:href="#DejaVuSans-73" transform="translate(1891.35888 0.765625)"/>
     <use xlink:href="#DejaVuSans-70" transform="translate(1943.45849 0.765625)"/>
     <use xlink:href="#DejaVuSans-61" transform="translate(2006.935052 0.765625)"/>
     <use xlink:href="#DejaVuSans-63" transform="translate(2068.214349 0.765625)"/>
     <use xlink:href="#DejaVuSans-69" transform="translate(2123.194818 0.765625)"/>
     <use xlink:href="#DejaVuSans-6e" transform="translate(2150.978021 0.765625)"/>
     <use xlink:href="#DejaVuSans-67" transform="translate(2214.356927 0.765625)"/>
     <use xlink:href="#DejaVuSans-20" transform="translate(2277.83349 0.765625)"/>
     <use xlink:href="#DejaVuSans-31" transform="translate(2309.620599 0.765625)"/>
     <use xlink:href="#DejaVuSans-3a" transform="translate(2373.243646 0.765625)"/>
     <use xlink:href="#DejaVuSans-34" transform="translate(2406.935052 0.765625)"/>
     <use xlink:href="#DejaVuSans-3a" transform="translate(2470.558099 0.765625)"/>
     <use xlink:href="#DejaVuSans-39" transform="translate(2504.249505 0.765625)"/>
    </g>
   </g>
  </g>
 </g>
 <defs>
  <clipPath id="pcd801f4ba0">
   <rect x="50.42" y="30.912" width="398.5" height="284.608"/>
  </clipPath>
 </defs>
</svg>
