<?xml version="1.0" encoding="utf-8" standalone="no"?>
<!DOCTYPE svg PUBLIC "-//W3C//DTD SVG 1.1//EN"
  "http://www.w3.org/Graphics/SVG/1.1/DTD/svg11.dtd">
<svg xmlns:xlink="http://www.w3.org/1999/xlink" width="475.2pt" height="388.8pt" viewBox="0 0 475.2 388.8" xmlns="http://www.w3.org/2000/svg" version="1.1">
 <metadata>
  <rdf:RDF xmlns:dc="http://purl.org/dc/elements/1.1/" xmlns:cc="http://creativecommons.org/ns#" xmlns:rdf="http://www.w3.org/1999/02/22-rdf-syntax-ns#">
   <cc:Work>
    <dc:type rdf:resource="http://purl.org/dc/dcmitype/StillImage"/>
    <dc:date>2026-06-04T06:14:45.524992</dc:date>
    <dc:format>image/svg+xml</dc:format>
    <dc:creator>
     <cc:Agent>
      <dc:title>Matplotlib v3.10.8, https://matplotlib.org/</dc:title>
     </cc:Agent>
    </dc:creator>
   </cc:Work>
  </rdf:RDF>
 </metadata>
 <defs>
  <style type="text/css">*{stroke-linejoin: round; stroke-linecap: butt}</style>
 </defs>
 <g id="figure_1">
  <g id="patch_1">
   <path d="M 0 388.8 
L 475.2 388.8 
L 475.2 0 
L 0 0 
z
" style="fill: #ffffff"/>
  </g>
  <g id="axes_1">
   <g id="patch_2">
    <path d="M 70.04 182.83 
L 463.32 182.83 
L 463.32 52.08 
L 70.04 52.08 
z
" style="fill: #ffffff"/>
   </g>
   <g id="patch_3">
    <path d="M 236.886061 182.83 
L 296.473939 182.83 
L 296.473939 52.08 
L 236.886061 52.08 
z
" clip-path="url(#p891a5b345d)" style="fill: #999999; opacity: 0.12; stroke: #999999; stroke-linejoin: miter"/>
   </g>
   <g id="matplotlib.axis_1">
    <g id="xtick_1">
     <g id="line2d_1">
      <defs>
       <path id="mf3270d99b4" d="M 0 0 
L 0 3.5 
" style="stroke: #000000; stroke-width: 0.8"/>
      </defs>
      <g>
       <use xlink:href="#mf3270d99b4" x="117.710303" y="182.83" style="stroke: #000000; stroke-width: 0.8"/>
      </g>
     </g>
    </g>
    <g id="xtick_2">
     <g id="line2d_2">
      <g>
       <use xlink:href="#mf3270d99b4" x="192.195152" y="182.83" style="stroke: #000000; stroke-width: 0.8"/>
      </g>
     </g>
    </g>
    <g id="xtick_3">
     <g id="line2d_3">
      <g>
       <use xlink:href="#mf3270d99b4" x="266.68" y="182.83" style="stroke: #000000; stroke-width: 0.8"/>
      </g>
     </g>
    </g>
    <g id="xtick_4">
     <g id="line2d_4">
      <g>
       <use xlink:href="#mf3270d99b4" x="341.164848" y="182.83" style="stroke: #000000; stroke-width: 0.8"/>
      </g>
     </g>
    </g>
    <g id="xtick_5">
     <g id="line2d_5">
      <g>
       <use xlink:href="#mf3270d99b4" x="415.649697" y="182.83" style="stroke: #000000; stroke-width: 0.8"/>
      </g>
     </g>
    </g>
   </g>
   <g id="matplotlib.axis_2">
    <g id="ytick_1">
     <g id="line2d_6">
      <defs>
       <path id="m4b3526e18a" d="M 0 0 
L -3.5 0 
" style="stroke: #000000; stroke-width: 0.8"/>
      </defs>
      <g>
       <use xlink:href="#m4b3526e18a" x="70.04" y="176.886818" style="stroke: #000000; stroke-width: 0.8"/>
      </g>
     </g>
     <g id="text_1">
      <!-- 0.0 -->
      <g transform="translate(45.546563 181.065959) scale(0.11 -0.11)">
       <defs>
        <path id="DejaVuSans-30" d="M 2034 4250 
Q 1547 4250 1301 3770 
Q 1056 3291 1056 2328 
Q 1056 1369 1301 889 
Q 1547 409 2034 409 
Q 2525 409 2770 889 
Q 3016 1369 3016 2328 
Q 3016 3291 2770 3770 
Q 2525 4250 2034 4250 
z
M 2034 4750 
Q 2819 4750 3233 4129 
Q 3647 3509 3647 2328 
Q 3647 1150 3233 529 
Q 2819 -91 2034 -91 
Q 1250 -91 836 529 
Q 422 1150 422 2328 
Q 422 3509 836 4129 
Q 1250 4750 2034 4750 
z
" transform="scale(0.015625)"/>
        <path id="DejaVuSans-2e" d="M 684 794 
L 1344 794 
L 1344 0 
L 684 0 
L 684 794 
z
" transform="scale(0.015625)"/>
       </defs>
       <use xlink:href="#DejaVuSans-30"/>
       <use xlink:href="#DejaVuSans-2e" transform="translate(63.623047 0)"/>
       <use xlink:href="#DejaVuSans-30" transform="translate(95.410156 0)"/>
      </g>
     </g>
    </g>
    <g id="ytick_2">
     <g id="line2d_7">
      <g>
       <use xlink:href="#m4b3526e18a" x="70.04" y="141.913268" style="stroke: #000000; stroke-width: 0.8"/>
      </g>
     </g>
     <g id="text_2">
      <!-- 0.2 -->
      <g transform="translate(45.546563 146.092408) scale(0.11 -0.11)">
       <defs>
        <path id="DejaVuSans-32" d="M 1228 531 
L 3431 531 
L 3431 0 
L 469 0 
L 469 531 
Q 828 903 1448 1529 
Q 2069 2156 2228 2338 
Q 2531 2678 2651 2914 
Q 2772 3150 2772 3378 
Q 2772 3750 2511 3984 
Q 2250 4219 1831 4219 
Q 1534 4219 1204 4116 
Q 875 4013 500 3803 
L 500 4441 
Q 881 4594 1212 4672 
Q 1544 4750 1819 4750 
Q 2544 4750 2975 4387 
Q 3406 4025 3406 3419 
Q 3406 3131 3298 2873 
Q 3191 2616 2906 2266 
Q 2828 2175 2409 1742 
Q 1991 1309 1228 531 
z
" transform="scale(0.015625)"/>
       </defs>
       <use xlink:href="#DejaVuSans-30"/>
       <use xlink:href="#DejaVuSans-2e" transform="translate(63.623047 0)"/>
       <use xlink:href="#DejaVuSans-32" transform="translate(95.410156 0)"/>
      </g>
     </g>
    </g>
    <g id="ytick_3">
     <g id="line2d_8">
      <g>
       <use xlink:href="#m4b3526e18a" x="70.04" y="106.939717" style="stroke: #000000; stroke-width: 0.8"/>
      </g>
     </g>
     <g id="text_3">
      <!-- 0.4 -->
      <g transform="translate(45.546563 111.118857) scale(0.11 -0.11)">
       <defs>
        <path id="DejaVuSans-34" d="M 2419 4116 
L 825 1625 
L 2419 1625 
L 2419 4116 
z
M 2253 4666 
L 3047 4666 
L 3047 1625 
L 3713 1625 
L 3713 1100 
L 3047 1100 
L 3047 0 
L 2419 0 
L 2419 1100 
L 313 1100 
L 313 1709 
L 2253 4666 
z
" transform="scale(0.015625)"/>
       </defs>
       <use xlink:href="#DejaVuSans-30"/>
       <use xlink:href="#DejaVuSans-2e" transform="translate(63.623047 0)"/>
       <use xlink:href="#DejaVuSans-34" transform="translate(95.410156 0)"/>
      </g>
     </g>
    </g>
    <g id="ytick_4">
     <g id="line2d_9">
      <g>
       <use xlink:href="#m4b3526e18a" x="70.04" y="71.966166" style="stroke: #000000; stroke-width: 0.8"/>
      </g>
     </g>
     <g id="text_4">
      <!-- 0.6 -->
      <g transform="translate(45.546563 76.145307) scale(0.11 -0.11)">
       <defs>
        <path id="DejaVuSans-36" d="M 2113 2584 
Q 1688 2584 1439 2293 
Q 1191 2003 1191 1497 
Q 1191 994 1439 701 
Q 1688 409 2113 409 
Q 2538 409 2786 701 
Q 3034 994 3034 1497 
Q 3034 2003 2786 2293 
Q 2538 2584 2113 2584 
z
M 3366 4563 
L 3366 3988 
Q 3128 4100 2886 4159 
Q 2644 4219 2406 4219 
Q 1781 4219 1451 3797 
Q 1122 3375 1075 2522 
Q 1259 2794 1537 2939 
Q 1816 3084 2150 3084 
Q 2853 3084 3261 2657 
Q 3669 2231 3669 1497 
Q 3669 778 3244 343 
Q 2819 -91 2113 -91 
Q 1303 -91 875 529 
Q 447 1150 447 2328 
Q 447 3434 972 4092 
Q 1497 4750 2381 4750 
Q 2619 4750 2861 4703 
Q 3103 4656 3366 4563 
z
" transform="scale(0.015625)"/>
       </defs>
       <use xlink:href="#DejaVuSans-30"/>
       <use xlink:href="#DejaVuSans-2e" transform="translate(63.623047 0)"/>
       <use xlink:href="#DejaVuSans-36" transform="translate(95.410156 0)"/>
      </g>
     </g>
    </g>
    <g id="text_5">
     <!-- $\psi(x)$ -->
     <g transform="translate(39.236563 128.675) rotate(-90) scale(0.11 -0.11)">
      <defs>
       <path id="DejaVuSans-Oblique-3c8" d="M 1591 -78 
Q 891 38 616 341 
Q 278 713 425 1472 
L 819 3500 
L 1400 3500 
L 1009 1494 
Q 900 922 1119 684 
Q 1313 478 1691 434 
L 2284 3500 
L 2856 3500 
L 2263 438 
Q 2681 481 2928 688 
Q 3247 950 3353 1497 
L 3741 3500 
L 4322 3500 
L 3928 1475 
Q 3775 688 3300 344 
Q 2872 34 2163 -75 
L 1919 -1331 
L 1347 -1331 
L 1591 -78 
z
" transform="scale(0.015625)"/>
       <path id="DejaVuSans-28" d="M 1984 4856 
Q 1566 4138 1362 3434 
Q 1159 2731 1159 2009 
Q 1159 1288 1364 580 
Q 1569 -128 1984 -844 
L 1484 -844 
Q 1016 -109 783 600 
Q 550 1309 550 2009 
Q 550 2706 781 3412 
Q 1013 4119 1484 4856 
L 1984 4856 
z
" transform="scale(0.015625)"/>
       <path id="DejaVuSans-Oblique-78" d="M 3841 3500 
L 2234 1784 
L 3219 0 
L 2559 0 
L 1819 1388 
L 531 0 
L -166 0 
L 1556 1844 
L 641 3500 
L 1300 3500 
L 1972 2234 
L 3144 3500 
L 3841 3500 
z
" transform="scale(0.015625)"/>
       <path id="DejaVuSans-29" d="M 513 4856 
L 1013 4856 
Q 1481 4119 1714 3412 
Q 1947 2706 1947 2009 
Q 1947 1309 1714 600 
Q 1481 -109 1013 -844 
L 513 -844 
Q 928 -128 1133 580 
Q 1338 1288 1338 2009 
Q 1338 2731 1133 3434 
Q 928 4138 513 4856 
z
" transform="scale(0.015625)"/>
      </defs>
      <use xlink:href="#DejaVuSans-Oblique-3c8" transform="translate(0 0.125)"/>
      <use xlink:href="#DejaVuSans-28" transform="translate(65.966797 0.125)"/>
      <use xlink:href="#DejaVuSans-Oblique-78" transform="translate(104.980469 0.125)"/>
      <use xlink:href="#DejaVuSans-29" transform="translate(164.160156 0.125)"/>
     </g>
    </g>
   </g>
   <g id="line2d_10">
    <path d="M 236.886061 182.83 
L 236.886061 52.08 
" clip-path="url(#p891a5b345d)" style="fill: none; stroke-dasharray: 0.8,1.32; stroke-dashoffset: 0; stroke: #999999; stroke-width: 0.8"/>
   </g>
   <g id="line2d_11">
    <path d="M 296.473939 182.83 
L 296.473939 52.08 
" clip-path="url(#p891a5b345d)" style="fill: none; stroke-dasharray: 0.8,1.32; stroke-dashoffset: 0; stroke: #999999; stroke-width: 0.8"/>
   </g>
   <g id="line2d_12">
    <path d="M 70.04 176.886818 
L 463.32 176.886818 
" clip-path="url(#p891a5b345d)" style="fill: none; stroke: #999999; stroke-width: 0.6; stroke-linecap: square"/>
   </g>
   <g id="line2d_13">
    <path d="M 87.916364 176.886818 
L 225.275516 176.7815 
L 227.958312 176.560401 
L 229.746843 176.192935 
L 230.998814 175.710444 
L 232.071932 175.037321 
L 232.966198 174.190255 
L 233.68161 173.240823 
L 234.397022 171.957107 
L 235.112434 170.221407 
L 235.827847 167.874586 
L 236.543259 164.701473 
L 238.152936 155.547668 
L 242.44541 131.728696 
L 245.664765 115.102704 
L 248.347561 102.390882 
L 250.672651 92.395378 
L 252.818888 84.127969 
L 254.786271 77.438219 
L 256.574802 72.147939 
L 258.18448 68.065637 
L 259.615304 64.998176 
L 261.046129 62.474569 
L 262.2981 60.72225 
L 263.371218 59.564168 
L 264.444337 58.726916 
L 265.338602 58.275964 
L 266.232867 58.050274 
L 267.127133 58.050274 
L 268.021398 58.275964 
L 268.915663 58.726916 
L 269.809929 59.402273 
L 270.883047 60.50708 
L 271.956165 61.93014 
L 273.208137 63.987374 
L 274.460108 66.464796 
L 275.890933 69.798754 
L 277.50061 74.170734 
L 279.289141 79.768209 
L 281.077672 86.103112 
L 283.045055 93.865665 
L 285.370145 104.016846 
L 287.874088 115.990171 
L 290.735737 130.772014 
L 294.312798 150.473243 
L 297.3533 167.168665 
L 298.068713 169.699311 
L 298.784125 171.570967 
L 299.67839 173.240823 
L 300.572655 174.386132 
L 301.466921 175.171667 
L 302.540039 175.795895 
L 303.792011 176.243339 
L 305.401688 176.560401 
L 307.726778 176.764355 
L 312.019251 176.866775 
L 328.116027 176.886796 
L 445.443636 176.886818 
L 445.443636 176.886818 
" clip-path="url(#p891a5b345d)" style="fill: none; stroke: #0072b2; stroke-width: 2; stroke-linecap: square"/>
   </g>
   <g id="patch_4">
    <path d="M 70.04 182.83 
L 70.04 52.08 
" style="fill: none; stroke: #000000; stroke-linejoin: miter; stroke-linecap: square"/>
   </g>
   <g id="patch_5">
    <path d="M 70.04 182.83 
L 463.32 182.83 
" style="fill: none; stroke: #000000; stroke-linejoin: miter; stroke-linecap: square"/>
   </g>
   <g id="text_6">
    <!-- Tightly bound ground state (short evanescent tail)   (E = -19.74, depth $V_0$=20) -->
    <g transform="translate(69.78 46.08) scale(0.1 -0.1)">
     <defs>
      <path id="DejaVuSans-54" d="M -19 4666 
L 3928 4666 
L 3928 4134 
L 2272 4134 
L 2272 0 
L 1638 0 
L 1638 4134 
L -19 4134 
L -19 4666 
z
" transform="scale(0.015625)"/>
      <path id="DejaVuSans-69" d="M 603 3500 
L 1178 3500 
L 1178 0 
L 603 0 
L 603 3500 
z
M 603 4863 
L 1178 4863 
L 1178 4134 
L 603 4134 
L 603 4863 
z
" transform="scale(0.015625)"/>
      <path id="DejaVuSans-67" d="M 2906 1791 
Q 2906 2416 2648 2759 
Q 2391 3103 1925 3103 
Q 1463 3103 1205 2759 
Q 947 2416 947 1791 
Q 947 1169 1205 825 
Q 1463 481 1925 481 
Q 2391 481 2648 825 
Q 2906 1169 2906 1791 
z
M 3481 434 
Q 3481 -459 3084 -895 
Q 2688 -1331 1869 -1331 
Q 1566 -1331 1297 -1286 
Q 1028 -1241 775 -1147 
L 775 -588 
Q 1028 -725 1275 -790 
Q 1522 -856 1778 -856 
Q 2344 -856 2625 -561 
Q 2906 -266 2906 331 
L 2906 616 
Q 2728 306 2450 153 
Q 2172 0 1784 0 
Q 1141 0 747 490 
Q 353 981 353 1791 
Q 353 2603 747 3093 
Q 1141 3584 1784 3584 
Q 2172 3584 2450 3431 
Q 2728 3278 2906 2969 
L 2906 3500 
L 3481 3500 
L 3481 434 
z
" transform="scale(0.015625)"/>
      <path id="DejaVuSans-68" d="M 3513 2113 
L 3513 0 
L 2938 0 
L 2938 2094 
Q 2938 2591 2744 2837 
Q 2550 3084 2163 3084 
Q 1697 3084 1428 2787 
Q 1159 2491 1159 1978 
L 1159 0 
L 581 0 
L 581 4863 
L 1159 4863 
L 1159 2956 
Q 1366 3272 1645 3428 
Q 1925 3584 2291 3584 
Q 2894 3584 3203 3211 
Q 3513 2838 3513 2113 
z
" transform="scale(0.015625)"/>
      <path id="DejaVuSans-74" d="M 1172 4494 
L 1172 3500 
L 2356 3500 
L 2356 3053 
L 1172 3053 
L 1172 1153 
Q 1172 725 1289 603 
Q 1406 481 1766 481 
L 2356 481 
L 2356 0 
L 1766 0 
Q 1100 0 847 248 
Q 594 497 594 1153 
L 594 3053 
L 172 3053 
L 172 3500 
L 594 3500 
L 594 4494 
L 1172 4494 
z
" transform="scale(0.015625)"/>
      <path id="DejaVuSans-6c" d="M 603 4863 
L 1178 4863 
L 1178 0 
L 603 0 
L 603 4863 
z
" transform="scale(0.015625)"/>
      <path id="DejaVuSans-79" d="M 2059 -325 
Q 1816 -950 1584 -1140 
Q 1353 -1331 966 -1331 
L 506 -1331 
L 506 -850 
L 844 -850 
Q 1081 -850 1212 -737 
Q 1344 -625 1503 -206 
L 1606 56 
L 191 3500 
L 800 3500 
L 1894 763 
L 2988 3500 
L 3597 3500 
L 2059 -325 
z
" transform="scale(0.015625)"/>
      <path id="DejaVuSans-20" transform="scale(0.015625)"/>
      <path id="DejaVuSans-62" d="M 3116 1747 
Q 3116 2381 2855 2742 
Q 2594 3103 2138 3103 
Q 1681 3103 1420 2742 
Q 1159 2381 1159 1747 
Q 1159 1113 1420 752 
Q 1681 391 2138 391 
Q 2594 391 2855 752 
Q 3116 1113 3116 1747 
z
M 1159 2969 
Q 1341 3281 1617 3432 
Q 1894 3584 2278 3584 
Q 2916 3584 3314 3078 
Q 3713 2572 3713 1747 
Q 3713 922 3314 415 
Q 2916 -91 2278 -91 
Q 1894 -91 1617 61 
Q 1341 213 1159 525 
L 1159 0 
L 581 0 
L 581 4863 
L 1159 4863 
L 1159 2969 
z
" transform="scale(0.015625)"/>
      <path id="DejaVuSans-6f" d="M 1959 3097 
Q 1497 3097 1228 2736 
Q 959 2375 959 1747 
Q 959 1119 1226 758 
Q 1494 397 1959 397 
Q 2419 397 2687 759 
Q 2956 1122 2956 1747 
Q 2956 2369 2687 2733 
Q 2419 3097 1959 3097 
z
M 1959 3584 
Q 2709 3584 3137 3096 
Q 3566 2609 3566 1747 
Q 3566 888 3137 398 
Q 2709 -91 1959 -91 
Q 1206 -91 779 398 
Q 353 888 353 1747 
Q 353 2609 779 3096 
Q 1206 3584 1959 3584 
z
" transform="scale(0.015625)"/>
      <path id="DejaVuSans-75" d="M 544 1381 
L 544 3500 
L 1119 3500 
L 1119 1403 
Q 1119 906 1312 657 
Q 1506 409 1894 409 
Q 2359 409 2629 706 
Q 2900 1003 2900 1516 
L 2900 3500 
L 3475 3500 
L 3475 0 
L 2900 0 
L 2900 538 
Q 2691 219 2414 64 
Q 2138 -91 1772 -91 
Q 1169 -91 856 284 
Q 544 659 544 1381 
z
M 1991 3584 
L 1991 3584 
z
" transform="scale(0.015625)"/>
      <path id="DejaVuSans-6e" d="M 3513 2113 
L 3513 0 
L 2938 0 
L 2938 2094 
Q 2938 2591 2744 2837 
Q 2550 3084 2163 3084 
Q 1697 3084 1428 2787 
Q 1159 2491 1159 1978 
L 1159 0 
L 581 0 
L 581 3500 
L 1159 3500 
L 1159 2956 
Q 1366 3272 1645 3428 
Q 1925 3584 2291 3584 
Q 2894 3584 3203 3211 
Q 3513 2838 3513 2113 
z
" transform="scale(0.015625)"/>
      <path id="DejaVuSans-64" d="M 2906 2969 
L 2906 4863 
L 3481 4863 
L 3481 0 
L 2906 0 
L 2906 525 
Q 2725 213 2448 61 
Q 2172 -91 1784 -91 
Q 1150 -91 751 415 
Q 353 922 353 1747 
Q 353 2572 751 3078 
Q 1150 3584 1784 3584 
Q 2172 3584 2448 3432 
Q 2725 3281 2906 2969 
z
M 947 1747 
Q 947 1113 1208 752 
Q 1469 391 1925 391 
Q 2381 391 2643 752 
Q 2906 1113 2906 1747 
Q 2906 2381 2643 2742 
Q 2381 3103 1925 3103 
Q 1469 3103 1208 2742 
Q 947 2381 947 1747 
z
" transform="scale(0.015625)"/>
      <path id="DejaVuSans-72" d="M 2631 2963 
Q 2534 3019 2420 3045 
Q 2306 3072 2169 3072 
Q 1681 3072 1420 2755 
Q 1159 2438 1159 1844 
L 1159 0 
L 581 0 
L 581 3500 
L 1159 3500 
L 1159 2956 
Q 1341 3275 1631 3429 
Q 1922 3584 2338 3584 
Q 2397 3584 2469 3576 
Q 2541 3569 2628 3553 
L 2631 2963 
z
" transform="scale(0.015625)"/>
      <path id="DejaVuSans-73" d="M 2834 3397 
L 2834 2853 
Q 2591 2978 2328 3040 
Q 2066 3103 1784 3103 
Q 1356 3103 1142 2972 
Q 928 2841 928 2578 
Q 928 2378 1081 2264 
Q 1234 2150 1697 2047 
L 1894 2003 
Q 2506 1872 2764 1633 
Q 3022 1394 3022 966 
Q 3022 478 2636 193 
Q 2250 -91 1575 -91 
Q 1294 -91 989 -36 
Q 684 19 347 128 
L 347 722 
Q 666 556 975 473 
Q 1284 391 1588 391 
Q 1994 391 2212 530 
Q 2431 669 2431 922 
Q 2431 1156 2273 1281 
Q 2116 1406 1581 1522 
L 1381 1569 
Q 847 1681 609 1914 
Q 372 2147 372 2553 
Q 372 3047 722 3315 
Q 1072 3584 1716 3584 
Q 2034 3584 2315 3537 
Q 2597 3491 2834 3397 
z
" transform="scale(0.015625)"/>
      <path id="DejaVuSans-61" d="M 2194 1759 
Q 1497 1759 1228 1600 
Q 959 1441 959 1056 
Q 959 750 1161 570 
Q 1363 391 1709 391 
Q 2188 391 2477 730 
Q 2766 1069 2766 1631 
L 2766 1759 
L 2194 1759 
z
M 3341 1997 
L 3341 0 
L 2766 0 
L 2766 531 
Q 2569 213 2275 61 
Q 1981 -91 1556 -91 
Q 1019 -91 701 211 
Q 384 513 384 1019 
Q 384 1609 779 1909 
Q 1175 2209 1959 2209 
L 2766 2209 
L 2766 2266 
Q 2766 2663 2505 2880 
Q 2244 3097 1772 3097 
Q 1472 3097 1187 3025 
Q 903 2953 641 2809 
L 641 3341 
Q 956 3463 1253 3523 
Q 1550 3584 1831 3584 
Q 2591 3584 2966 3190 
Q 3341 2797 3341 1997 
z
" transform="scale(0.015625)"/>
      <path id="DejaVuSans-65" d="M 3597 1894 
L 3597 1613 
L 953 1613 
Q 991 1019 1311 708 
Q 1631 397 2203 397 
Q 2534 397 2845 478 
Q 3156 559 3463 722 
L 3463 178 
Q 3153 47 2828 -22 
Q 2503 -91 2169 -91 
Q 1331 -91 842 396 
Q 353 884 353 1716 
Q 353 2575 817 3079 
Q 1281 3584 2069 3584 
Q 2775 3584 3186 3129 
Q 3597 2675 3597 1894 
z
M 3022 2063 
Q 3016 2534 2758 2815 
Q 2500 3097 2075 3097 
Q 1594 3097 1305 2825 
Q 1016 2553 972 2059 
L 3022 2063 
z
" transform="scale(0.015625)"/>
      <path id="DejaVuSans-76" d="M 191 3500 
L 800 3500 
L 1894 563 
L 2988 3500 
L 3597 3500 
L 2284 0 
L 1503 0 
L 191 3500 
z
" transform="scale(0.015625)"/>
      <path id="DejaVuSans-63" d="M 3122 3366 
L 3122 2828 
Q 2878 2963 2633 3030 
Q 2388 3097 2138 3097 
Q 1578 3097 1268 2742 
Q 959 2388 959 1747 
Q 959 1106 1268 751 
Q 1578 397 2138 397 
Q 2388 397 2633 464 
Q 2878 531 3122 666 
L 3122 134 
Q 2881 22 2623 -34 
Q 2366 -91 2075 -91 
Q 1284 -91 818 406 
Q 353 903 353 1747 
Q 353 2603 823 3093 
Q 1294 3584 2113 3584 
Q 2378 3584 2631 3529 
Q 2884 3475 3122 3366 
z
" transform="scale(0.015625)"/>
      <path id="DejaVuSans-45" d="M 628 4666 
L 3578 4666 
L 3578 4134 
L 1259 4134 
L 1259 2753 
L 3481 2753 
L 3481 2222 
L 1259 2222 
L 1259 531 
L 3634 531 
L 3634 0 
L 628 0 
L 628 4666 
z
" transform="scale(0.015625)"/>
      <path id="DejaVuSans-3d" d="M 678 2906 
L 4684 2906 
L 4684 2381 
L 678 2381 
L 678 2906 
z
M 678 1631 
L 4684 1631 
L 4684 1100 
L 678 1100 
L 678 1631 
z
" transform="scale(0.015625)"/>
      <path id="DejaVuSans-2d" d="M 313 2009 
L 1997 2009 
L 1997 1497 
L 313 1497 
L 313 2009 
z
" transform="scale(0.015625)"/>
      <path id="DejaVuSans-31" d="M 794 531 
L 1825 531 
L 1825 4091 
L 703 3866 
L 703 4441 
L 1819 4666 
L 2450 4666 
L 2450 531 
L 3481 531 
L 3481 0 
L 794 0 
L 794 531 
z
" transform="scale(0.015625)"/>
      <path id="DejaVuSans-39" d="M 703 97 
L 703 672 
Q 941 559 1184 500 
Q 1428 441 1663 441 
Q 2288 441 2617 861 
Q 2947 1281 2994 2138 
Q 2813 1869 2534 1725 
Q 2256 1581 1919 1581 
Q 1219 1581 811 2004 
Q 403 2428 403 3163 
Q 403 3881 828 4315 
Q 1253 4750 1959 4750 
Q 2769 4750 3195 4129 
Q 3622 3509 3622 2328 
Q 3622 1225 3098 567 
Q 2575 -91 1691 -91 
Q 1453 -91 1209 -44 
Q 966 3 703 97 
z
M 1959 2075 
Q 2384 2075 2632 2365 
Q 2881 2656 2881 3163 
Q 2881 3666 2632 3958 
Q 2384 4250 1959 4250 
Q 1534 4250 1286 3958 
Q 1038 3666 1038 3163 
Q 1038 2656 1286 2365 
Q 1534 2075 1959 2075 
z
" transform="scale(0.015625)"/>
      <path id="DejaVuSans-37" d="M 525 4666 
L 3525 4666 
L 3525 4397 
L 1831 0 
L 1172 0 
L 2766 4134 
L 525 4134 
L 525 4666 
z
" transform="scale(0.015625)"/>
      <path id="DejaVuSans-2c" d="M 750 794 
L 1409 794 
L 1409 256 
L 897 -744 
L 494 -744 
L 750 256 
L 750 794 
z
" transform="scale(0.015625)"/>
      <path id="DejaVuSans-70" d="M 1159 525 
L 1159 -1331 
L 581 -1331 
L 581 3500 
L 1159 3500 
L 1159 2969 
Q 1341 3281 1617 3432 
Q 1894 3584 2278 3584 
Q 2916 3584 3314 3078 
Q 3713 2572 3713 1747 
Q 3713 922 3314 415 
Q 2916 -91 2278 -91 
Q 1894 -91 1617 61 
Q 1341 213 1159 525 
z
M 3116 1747 
Q 3116 2381 2855 2742 
Q 2594 3103 2138 3103 
Q 1681 3103 1420 2742 
Q 1159 2381 1159 1747 
Q 1159 1113 1420 752 
Q 1681 391 2138 391 
Q 2594 391 2855 752 
Q 3116 1113 3116 1747 
z
" transform="scale(0.015625)"/>
      <path id="DejaVuSans-Oblique-56" d="M 1319 0 
L 500 4666 
L 1119 4666 
L 1797 653 
L 4063 4666 
L 4750 4666 
L 2053 0 
L 1319 0 
z
" transform="scale(0.015625)"/>
     </defs>
     <use xlink:href="#DejaVuSans-54" transform="translate(0 0.015625)"/>
     <use xlink:href="#DejaVuSans-69" transform="translate(61.083984 0.015625)"/>
     <use xlink:href="#DejaVuSans-67" transform="translate(88.867188 0.015625)"/>
     <use xlink:href="#DejaVuSans-68" transform="translate(152.34375 0.015625)"/>
     <use xlink:href="#DejaVuSans-74" transform="translate(215.722656 0.015625)"/>
     <use xlink:href="#DejaVuSans-6c" transform="translate(254.931641 0.015625)"/>
     <use xlink:href="#DejaVuSans-79" transform="translate(282.714844 0.015625)"/>
     <use xlink:href="#DejaVuSans-20" transform="translate(341.894531 0.015625)"/>
     <use xlink:href="#DejaVuSans-62" transform="translate(373.681641 0.015625)"/>
     <use xlink:href="#DejaVuSans-6f" transform="translate(437.158203 0.015625)"/>
     <use xlink:href="#DejaVuSans-75" transform="translate(498.339844 0.015625)"/>
     <use xlink:href="#DejaVuSans-6e" transform="translate(561.71875 0.015625)"/>
     <use xlink:href="#DejaVuSans-64" transform="translate(625.097656 0.015625)"/>
     <use xlink:href="#DejaVuSans-20" transform="translate(688.574219 0.015625)"/>
     <use xlink:href="#DejaVuSans-67" transform="translate(720.361328 0.015625)"/>
     <use xlink:href="#DejaVuSans-72" transform="translate(783.837891 0.015625)"/>
     <use xlink:href="#DejaVuSans-6f" transform="translate(824.951172 0.015625)"/>
     <use xlink:href="#DejaVuSans-75" transform="translate(886.132812 0.015625)"/>
     <use xlink:href="#DejaVuSans-6e" transform="translate(949.511719 0.015625)"/>
     <use xlink:href="#DejaVuSans-64" transform="translate(1012.890625 0.015625)"/>
     <use xlink:href="#DejaVuSans-20" transform="translate(1076.367188 0.015625)"/>
     <use xlink:href="#DejaVuSans-73" transform="translate(1108.154297 0.015625)"/>
     <use xlink:href="#DejaVuSans-74" transform="translate(1160.253906 0.015625)"/>
     <use xlink:href="#DejaVuSans-61" transform="translate(1199.462891 0.015625)"/>
     <use xlink:href="#DejaVuSans-74" transform="translate(1260.742188 0.015625)"/>
     <use xlink:href="#DejaVuSans-65" transform="translate(1299.951172 0.015625)"/>
     <use xlink:href="#DejaVuSans-20" transform="translate(1361.474609 0.015625)"/>
     <use xlink:href="#DejaVuSans-28" transform="translate(1393.261719 0.015625)"/>
     <use xlink:href="#DejaVuSans-73" transform="translate(1432.275391 0.015625)"/>
     <use xlink:href="#DejaVuSans-68" transform="translate(1484.375 0.015625)"/>
     <use xlink:href="#DejaVuSans-6f" transform="translate(1547.753906 0.015625)"/>
     <use xlink:href="#DejaVuSans-72" transform="translate(1608.935547 0.015625)"/>
     <use xlink:href="#DejaVuSans-74" transform="translate(1650.048828 0.015625)"/>
     <use xlink:href="#DejaVuSans-20" transform="translate(1689.257812 0.015625)"/>
     <use xlink:href="#DejaVuSans-65" transform="translate(1721.044922 0.015625)"/>
     <use xlink:href="#DejaVuSans-76" transform="translate(1782.568359 0.015625)"/>
     <use xlink:href="#DejaVuSans-61" transform="translate(1841.748047 0.015625)"/>
     <use xlink:href="#DejaVuSans-6e" transform="translate(1903.027344 0.015625)"/>
     <use xlink:href="#DejaVuSans-65" transform="translate(1966.40625 0.015625)"/>
     <use xlink:href="#DejaVuSans-73" transform="translate(2027.929688 0.015625)"/>
     <use xlink:href="#DejaVuSans-63" transform="translate(2080.029297 0.015625)"/>
     <use xlink:href="#DejaVuSans-65" transform="translate(2135.009766 0.015625)"/>
     <use xlink:href="#DejaVuSans-6e" transform="translate(2196.533203 0.015625)"/>
     <use xlink:href="#DejaVuSans-74" transform="translate(2259.912109 0.015625)"/>
     <use xlink:href="#DejaVuSans-20" transform="translate(2299.121094 0.015625)"/>
     <use xlink:href="#DejaVuSans-74" transform="translate(2330.908203 0.015625)"/>
     <use xlink:href="#DejaVuSans-61" transform="translate(2370.117188 0.015625)"/>
     <use xlink:href="#DejaVuSans-69" transform="translate(2431.396484 0.015625)"/>
     <use xlink:href="#DejaVuSans-6c" transform="translate(2459.179688 0.015625)"/>
     <use xlink:href="#DejaVuSans-29" transform="translate(2486.962891 0.015625)"/>
     <use xlink:href="#DejaVuSans-20" transform="translate(2525.976562 0.015625)"/>
     <use xlink:href="#DejaVuSans-20" transform="translate(2557.763672 0.015625)"/>
     <use xlink:href="#DejaVuSans-20" transform="translate(2589.550781 0.015625)"/>
     <use xlink:href="#DejaVuSans-28" transform="translate(2621.337891 0.015625)"/>
     <use xlink:href="#DejaVuSans-45" transform="translate(2660.351562 0.015625)"/>
     <use xlink:href="#DejaVuSans-20" transform="translate(2723.535156 0.015625)"/>
     <use xlink:href="#DejaVuSans-3d" transform="translate(2755.322266 0.015625)"/>
     <use xlink:href="#DejaVuSans-20" transform="translate(2839.111328 0.015625)"/>
     <use xlink:href="#DejaVuSans-2d" transform="translate(2870.898438 0.015625)"/>
     <use xlink:href="#DejaVuSans-31" transform="translate(2906.982422 0.015625)"/>
     <use xlink:href="#DejaVuSans-39" transform="translate(2970.605469 0.015625)"/>
     <use xlink:href="#DejaVuSans-2e" transform="translate(3034.228516 0.015625)"/>
     <use xlink:href="#DejaVuSans-37" transform="translate(3058.265625 0.015625)"/>
     <use xlink:href="#DejaVuSans-34" transform="translate(3121.888672 0.015625)"/>
     <use xlink:href="#DejaVuSans-2c" transform="translate(3185.511719 0.015625)"/>
     <use xlink:href="#DejaVuSans-20" transform="translate(3217.298828 0.015625)"/>
     <use xlink:href="#DejaVuSans-64" transform="translate(3249.085938 0.015625)"/>
     <use xlink:href="#DejaVuSans-65" transform="translate(3312.5625 0.015625)"/>
     <use xlink:href="#DejaVuSans-70" transform="translate(3374.085938 0.015625)"/>
     <use xlink:href="#DejaVuSans-74" transform="translate(3437.5625 0.015625)"/>
     <use xlink:href="#DejaVuSans-68" transform="translate(3476.771484 0.015625)"/>
     <use xlink:href="#DejaVuSans-20" transform="translate(3540.150391 0.015625)"/>
     <use xlink:href="#DejaVuSans-Oblique-56" transform="translate(3571.9375 0.015625)"/>
     <use xlink:href="#DejaVuSans-30" transform="translate(3640.345703 -16.390625) scale(0.7)"/>
     <use xlink:href="#DejaVuSans-3d" transform="translate(3687.616211 0.015625)"/>
     <use xlink:href="#DejaVuSans-32" transform="translate(3771.405273 0.015625)"/>
     <use xlink:href="#DejaVuSans-30" transform="translate(3835.02832 0.015625)"/>
     <use xlink:href="#DejaVuSans-29" transform="translate(3898.651367 0.015625)"/>
    </g>
   </g>
  </g>
  <g id="axes_2">
   <g id="patch_6">
    <path d="M 70.04 344.32 
L 463.32 344.32 
L 463.32 213.57 
L 70.04 213.57 
z
" style="fill: #ffffff"/>
   </g>
   <g id="patch_7">
    <path d="M 236.886061 344.32 
L 296.473939 344.32 
L 296.473939 213.57 
L 236.886061 213.57 
z
" clip-path="url(#pebbd2201be)" style="fill: #999999; opacity: 0.12; stroke: #999999; stroke-linejoin: miter"/>
   </g>
   <g id="matplotlib.axis_3">
    <g id="xtick_6">
     <g id="line2d_14">
      <g>
       <use xlink:href="#mf3270d99b4" x="117.710303" y="344.32" style="stroke: #000000; stroke-width: 0.8"/>
      </g>
     </g>
     <g id="text_7">
      <!-- −10 -->
      <g transform="translate(106.102725 359.678281) scale(0.11 -0.11)">
       <defs>
        <path id="DejaVuSans-2212" d="M 678 2272 
L 4684 2272 
L 4684 1741 
L 678 1741 
L 678 2272 
z
" transform="scale(0.015625)"/>
       </defs>
       <use xlink:href="#DejaVuSans-2212"/>
       <use xlink:href="#DejaVuSans-31" transform="translate(83.789062 0)"/>
       <use xlink:href="#DejaVuSans-30" transform="translate(147.412109 0)"/>
      </g>
     </g>
    </g>
    <g id="xtick_7">
     <g id="line2d_15">
      <g>
       <use xlink:href="#mf3270d99b4" x="192.195152" y="344.32" style="stroke: #000000; stroke-width: 0.8"/>
      </g>
     </g>
     <g id="text_8">
      <!-- −5 -->
      <g transform="translate(184.086948 359.678281) scale(0.11 -0.11)">
       <defs>
        <path id="DejaVuSans-35" d="M 691 4666 
L 3169 4666 
L 3169 4134 
L 1269 4134 
L 1269 2991 
Q 1406 3038 1543 3061 
Q 1681 3084 1819 3084 
Q 2600 3084 3056 2656 
Q 3513 2228 3513 1497 
Q 3513 744 3044 326 
Q 2575 -91 1722 -91 
Q 1428 -91 1123 -41 
Q 819 9 494 109 
L 494 744 
Q 775 591 1075 516 
Q 1375 441 1709 441 
Q 2250 441 2565 725 
Q 2881 1009 2881 1497 
Q 2881 1984 2565 2268 
Q 2250 2553 1709 2553 
Q 1456 2553 1204 2497 
Q 953 2441 691 2322 
L 691 4666 
z
" transform="scale(0.015625)"/>
       </defs>
       <use xlink:href="#DejaVuSans-2212"/>
       <use xlink:href="#DejaVuSans-35" transform="translate(83.789062 0)"/>
      </g>
     </g>
    </g>
    <g id="xtick_8">
     <g id="line2d_16">
      <g>
       <use xlink:href="#mf3270d99b4" x="266.68" y="344.32" style="stroke: #000000; stroke-width: 0.8"/>
      </g>
     </g>
     <g id="text_9">
      <!-- 0 -->
      <g transform="translate(263.180625 359.678281) scale(0.11 -0.11)">
       <use xlink:href="#DejaVuSans-30"/>
      </g>
     </g>
    </g>
    <g id="xtick_9">
     <g id="line2d_17">
      <g>
       <use xlink:href="#mf3270d99b4" x="341.164848" y="344.32" style="stroke: #000000; stroke-width: 0.8"/>
      </g>
     </g>
     <g id="text_10">
      <!-- 5 -->
      <g transform="translate(337.665473 359.678281) scale(0.11 -0.11)">
       <use xlink:href="#DejaVuSans-35"/>
      </g>
     </g>
    </g>
    <g id="xtick_10">
     <g id="line2d_18">
      <g>
       <use xlink:href="#mf3270d99b4" x="415.649697" y="344.32" style="stroke: #000000; stroke-width: 0.8"/>
      </g>
     </g>
     <g id="text_11">
      <!-- 10 -->
      <g transform="translate(408.650947 359.678281) scale(0.11 -0.11)">
       <use xlink:href="#DejaVuSans-31"/>
       <use xlink:href="#DejaVuSans-30" transform="translate(63.623047 0)"/>
      </g>
     </g>
    </g>
    <g id="text_12">
     <!-- position  x  (well units) -->
     <g transform="translate(204.149297 374.324219) scale(0.11 -0.11)">
      <defs>
       <path id="DejaVuSans-78" d="M 3513 3500 
L 2247 1797 
L 3578 0 
L 2900 0 
L 1881 1375 
L 863 0 
L 184 0 
L 1544 1831 
L 300 3500 
L 978 3500 
L 1906 2253 
L 2834 3500 
L 3513 3500 
z
" transform="scale(0.015625)"/>
       <path id="DejaVuSans-77" d="M 269 3500 
L 844 3500 
L 1563 769 
L 2278 3500 
L 2956 3500 
L 3675 769 
L 4391 3500 
L 4966 3500 
L 4050 0 
L 3372 0 
L 2619 2869 
L 1863 0 
L 1184 0 
L 269 3500 
z
" transform="scale(0.015625)"/>
      </defs>
      <use xlink:href="#DejaVuSans-70"/>
      <use xlink:href="#DejaVuSans-6f" transform="translate(63.476562 0)"/>
      <use xlink:href="#DejaVuSans-73" transform="translate(124.658203 0)"/>
      <use xlink:href="#DejaVuSans-69" transform="translate(176.757812 0)"/>
      <use xlink:href="#DejaVuSans-74" transform="translate(204.541016 0)"/>
      <use xlink:href="#DejaVuSans-69" transform="translate(243.75 0)"/>
      <use xlink:href="#DejaVuSans-6f" transform="translate(271.533203 0)"/>
      <use xlink:href="#DejaVuSans-6e" transform="translate(332.714844 0)"/>
      <use xlink:href="#DejaVuSans-20" transform="translate(396.09375 0)"/>
      <use xlink:href="#DejaVuSans-20" transform="translate(427.880859 0)"/>
      <use xlink:href="#DejaVuSans-78" transform="translate(459.667969 0)"/>
      <use xlink:href="#DejaVuSans-20" transform="translate(518.847656 0)"/>
      <use xlink:href="#DejaVuSans-20" transform="translate(550.634766 0)"/>
      <use xlink:href="#DejaVuSans-28" transform="translate(582.421875 0)"/>
      <use xlink:href="#DejaVuSans-77" transform="translate(621.435547 0)"/>
      <use xlink:href="#DejaVuSans-65" transform="translate(703.222656 0)"/>
      <use xlink:href="#DejaVuSans-6c" transform="translate(764.746094 0)"/>
      <use xlink:href="#DejaVuSans-6c" transform="translate(792.529297 0)"/>
      <use xlink:href="#DejaVuSans-20" transform="translate(820.3125 0)"/>
      <use xlink:href="#DejaVuSans-75" transform="translate(852.099609 0)"/>
      <use xlink:href="#DejaVuSans-6e" transform="translate(915.478516 0)"/>
      <use xlink:href="#DejaVuSans-69" transform="translate(978.857422 0)"/>
      <use xlink:href="#DejaVuSans-74" transform="translate(1006.640625 0)"/>
      <use xlink:href="#DejaVuSans-73" transform="translate(1045.849609 0)"/>
      <use xlink:href="#DejaVuSans-29" transform="translate(1097.949219 0)"/>
     </g>
    </g>
   </g>
   <g id="matplotlib.axis_4">
    <g id="ytick_5">
     <g id="line2d_19">
      <g>
       <use xlink:href="#m4b3526e18a" x="70.04" y="338.546843" style="stroke: #000000; stroke-width: 0.8"/>
      </g>
     </g>
     <g id="text_13">
      <!-- −0.50 -->
      <g transform="translate(29.330156 342.725984) scale(0.11 -0.11)">
       <use xlink:href="#DejaVuSans-2212"/>
       <use xlink:href="#DejaVuSans-30" transform="translate(83.789062 0)"/>
       <use xlink:href="#DejaVuSans-2e" transform="translate(147.412109 0)"/>
       <use xlink:href="#DejaVuSans-35" transform="translate(179.199219 0)"/>
       <use xlink:href="#DejaVuSans-30" transform="translate(242.822266 0)"/>
      </g>
     </g>
    </g>
    <g id="ytick_6">
     <g id="line2d_20">
      <g>
       <use xlink:href="#m4b3526e18a" x="70.04" y="308.755113" style="stroke: #000000; stroke-width: 0.8"/>
      </g>
     </g>
     <g id="text_14">
      <!-- −0.25 -->
      <g transform="translate(29.330156 312.934253) scale(0.11 -0.11)">
       <use xlink:href="#DejaVuSans-2212"/>
       <use xlink:href="#DejaVuSans-30" transform="translate(83.789062 0)"/>
       <use xlink:href="#DejaVuSans-2e" transform="translate(147.412109 0)"/>
       <use xlink:href="#DejaVuSans-32" transform="translate(179.199219 0)"/>
       <use xlink:href="#DejaVuSans-35" transform="translate(242.822266 0)"/>
      </g>
     </g>
    </g>
    <g id="ytick_7">
     <g id="line2d_21">
      <g>
       <use xlink:href="#m4b3526e18a" x="70.04" y="278.963382" style="stroke: #000000; stroke-width: 0.8"/>
      </g>
     </g>
     <g id="text_15">
      <!-- 0.00 -->
      <g transform="translate(38.547813 283.142522) scale(0.11 -0.11)">
       <use xlink:href="#DejaVuSans-30"/>
       <use xlink:href="#DejaVuSans-2e" transform="translate(63.623047 0)"/>
       <use xlink:href="#DejaVuSans-30" transform="translate(95.410156 0)"/>
       <use xlink:href="#DejaVuSans-30" transform="translate(159.033203 0)"/>
      </g>
     </g>
    </g>
    <g id="ytick_8">
     <g id="line2d_22">
      <g>
       <use xlink:href="#m4b3526e18a" x="70.04" y="249.171651" style="stroke: #000000; stroke-width: 0.8"/>
      </g>
     </g>
     <g id="text_16">
      <!-- 0.25 -->
      <g transform="translate(38.547813 253.350792) scale(0.11 -0.11)">
       <use xlink:href="#DejaVuSans-30"/>
       <use xlink:href="#DejaVuSans-2e" transform="translate(63.623047 0)"/>
       <use xlink:href="#DejaVuSans-32" transform="translate(95.410156 0)"/>
       <use xlink:href="#DejaVuSans-35" transform="translate(159.033203 0)"/>
      </g>
     </g>
    </g>
    <g id="ytick_9">
     <g id="line2d_23">
      <g>
       <use xlink:href="#m4b3526e18a" x="70.04" y="219.37992" style="stroke: #000000; stroke-width: 0.8"/>
      </g>
     </g>
     <g id="text_17">
      <!-- 0.50 -->
      <g transform="translate(38.547813 223.559061) scale(0.11 -0.11)">
       <use xlink:href="#DejaVuSans-30"/>
       <use xlink:href="#DejaVuSans-2e" transform="translate(63.623047 0)"/>
       <use xlink:href="#DejaVuSans-35" transform="translate(95.410156 0)"/>
       <use xlink:href="#DejaVuSans-30" transform="translate(159.033203 0)"/>
      </g>
     </g>
    </g>
    <g id="text_18">
     <!-- $\psi(x)$ -->
     <g transform="translate(23.020156 290.165) rotate(-90) scale(0.11 -0.11)">
      <use xlink:href="#DejaVuSans-Oblique-3c8" transform="translate(0 0.125)"/>
      <use xlink:href="#DejaVuSans-28" transform="translate(65.966797 0.125)"/>
      <use xlink:href="#DejaVuSans-Oblique-78" transform="translate(104.980469 0.125)"/>
      <use xlink:href="#DejaVuSans-29" transform="translate(164.160156 0.125)"/>
     </g>
    </g>
   </g>
   <g id="line2d_24">
    <path d="M 236.886061 344.32 
L 236.886061 213.57 
" clip-path="url(#pebbd2201be)" style="fill: none; stroke-dasharray: 0.8,1.32; stroke-dashoffset: 0; stroke: #999999; stroke-width: 0.8"/>
   </g>
   <g id="line2d_25">
    <path d="M 296.473939 344.32 
L 296.473939 213.57 
" clip-path="url(#pebbd2201be)" style="fill: none; stroke-dasharray: 0.8,1.32; stroke-dashoffset: 0; stroke: #999999; stroke-width: 0.8"/>
   </g>
   <g id="line2d_26">
    <path d="M 70.04 278.963382 
L 463.32 278.963382 
" clip-path="url(#pebbd2201be)" style="fill: none; stroke: #999999; stroke-width: 0.6; stroke-linecap: square"/>
   </g>
   <g id="line2d_27">
    <path d="M 87.916364 278.968326 
L 115.280882 279.83588 
L 128.873715 280.490269 
L 139.604899 281.222538 
L 148.547552 282.050075 
L 156.238234 282.97856 
L 163.03465 284.016739 
L 169.115654 285.163737 
L 174.660099 286.430095 
L 179.846838 287.844472 
L 184.497018 289.336549 
L 188.968344 291.005386 
L 193.081965 292.775561 
L 197.016732 294.710753 
L 200.772646 296.809591 
L 204.349708 299.067386 
L 207.747916 301.47582 
L 210.967271 304.022694 
L 214.186626 306.857348 
L 217.227128 309.828054 
L 220.26763 313.114887 
L 223.129279 316.52726 
L 225.990928 320.280409 
L 228.852577 324.408381 
L 231.714226 328.948627 
L 234.397022 333.616107 
L 237.079818 338.376818 
L 237.258671 338.04843 
L 237.616377 336.37974 
L 237.974083 333.396871 
L 238.510643 326.615686 
L 239.226055 313.844561 
L 240.299173 289.180103 
L 242.266557 242.50508 
L 242.981969 230.158602 
L 243.518528 223.767261 
L 243.876234 221.067388 
L 244.233941 219.692671 
L 244.412794 219.513289 
L 244.591647 219.674577 
L 244.7705 220.17561 
L 245.128206 222.1835 
L 245.485912 225.491001 
L 246.022471 232.7157 
L 246.737883 245.962495 
L 247.811002 271.010176 
L 249.599532 313.650578 
L 250.314945 326.472275 
L 250.851504 333.300259 
L 251.388063 337.336611 
L 251.745769 338.367925 
L 251.924622 338.373961 
L 252.103475 338.039553 
L 252.461181 336.359011 
L 252.818888 333.364765 
L 253.355447 326.567968 
L 254.070859 313.779963 
L 255.143977 289.101546 
L 257.111361 242.442133 
L 257.826773 230.113117 
L 258.363333 223.737692 
L 258.721039 221.049327 
L 259.078745 219.686533 
L 259.257598 219.513182 
L 259.436451 219.680501 
L 259.615304 220.187533 
L 259.97301 222.20718 
L 260.330716 225.525895 
L 260.867275 232.765843 
L 261.582688 246.028845 
L 262.655806 271.0892 
L 264.444337 313.715302 
L 265.159749 326.520164 
L 265.696308 333.332561 
L 266.232867 337.351667 
L 266.590573 338.370996 
L 266.769427 338.370996 
L 266.94828 338.030569 
L 267.305986 336.338179 
L 267.663692 333.332561 
L 268.200251 326.520164 
L 268.915663 313.715302 
L 269.988782 289.022971 
L 271.956165 242.379251 
L 272.671578 230.067719 
L 273.208137 223.708222 
L 273.565843 221.031371 
L 273.923549 219.680501 
L 274.102402 219.513182 
L 274.281255 219.686533 
L 274.638961 221.049327 
L 274.996667 223.737692 
L 275.533227 230.113117 
L 276.248639 242.442133 
L 277.142904 262.366442 
L 279.467994 317.325421 
L 280.183406 329.125349 
L 280.719965 335.022507 
L 281.077672 337.366617 
L 281.435378 338.373961 
L 281.614231 338.367925 
L 281.793084 338.02148 
L 282.15079 336.317244 
L 282.508496 333.300259 
L 283.045055 326.472275 
L 283.760468 313.650578 
L 284.833586 288.944378 
L 286.80097 242.316435 
L 287.516382 230.022409 
L 288.052941 223.678851 
L 288.410647 221.013519 
L 288.768353 219.674577 
L 288.947206 219.513289 
L 289.126059 219.692671 
L 289.483766 221.067388 
L 289.841472 223.767261 
L 290.378031 230.158602 
L 291.093443 242.50508 
L 291.987708 262.44302 
L 294.312798 317.386299 
L 295.02821 329.168098 
L 295.56477 335.049001 
L 295.922476 337.381463 
L 296.280182 338.376818 
L 296.459035 338.364747 
L 299.320684 332.969447 
L 302.182333 328.064086 
L 305.043982 323.604161 
L 307.905631 319.549213 
L 310.76728 315.862456 
L 313.807782 312.311349 
L 316.848284 309.101802 
L 319.888786 306.200943 
L 323.108141 303.432931 
L 326.50635 300.815411 
L 329.904558 298.477526 
L 333.481619 296.285853 
L 337.237533 294.248466 
L 341.172301 292.369913 
L 345.285921 290.651523 
L 349.757248 289.031471 
L 354.407427 287.582969 
L 359.415313 286.253369 
L 364.959758 285.016576 
L 371.040762 283.896261 
L 377.658326 282.905998 
L 385.170154 282.01225 
L 393.755101 281.222538 
L 403.770873 280.532081 
L 415.932881 279.92421 
L 432.387363 279.341173 
L 445.443636 278.968326 
L 445.443636 278.968326 
" clip-path="url(#pebbd2201be)" style="fill: none; stroke: #d55e00; stroke-width: 2; stroke-linecap: square"/>
   </g>
   <g id="patch_8">
    <path d="M 70.04 344.32 
L 70.04 213.57 
" style="fill: none; stroke: #000000; stroke-linejoin: miter; stroke-linecap: square"/>
   </g>
   <g id="patch_9">
    <path d="M 70.04 344.32 
L 463.32 344.32 
" style="fill: none; stroke: #000000; stroke-linejoin: miter; stroke-linecap: square"/>
   </g>
   <g id="text_19">
    <!-- Loosely bound top state (long evanescent tail)   (E = -0.12, depth $V_0$=20) -->
    <g transform="translate(82.38 207.57) scale(0.1 -0.1)">
     <defs>
      <path id="DejaVuSans-4c" d="M 628 4666 
L 1259 4666 
L 1259 531 
L 3531 531 
L 3531 0 
L 628 0 
L 628 4666 
z
" transform="scale(0.015625)"/>
     </defs>
     <use xlink:href="#DejaVuSans-4c" transform="translate(0 0.015625)"/>
     <use xlink:href="#DejaVuSans-6f" transform="translate(55.712891 0.015625)"/>
     <use xlink:href="#DejaVuSans-6f" transform="translate(116.894531 0.015625)"/>
     <use xlink:href="#DejaVuSans-73" transform="translate(178.076172 0.015625)"/>
     <use xlink:href="#DejaVuSans-65" transform="translate(230.175781 0.015625)"/>
     <use xlink:href="#DejaVuSans-6c" transform="translate(291.699219 0.015625)"/>
     <use xlink:href="#DejaVuSans-79" transform="translate(319.482422 0.015625)"/>
     <use xlink:href="#DejaVuSans-20" transform="translate(378.662109 0.015625)"/>
     <use xlink:href="#DejaVuSans-62" transform="translate(410.449219 0.015625)"/>
     <use xlink:href="#DejaVuSans-6f" transform="translate(473.925781 0.015625)"/>
     <use xlink:href="#DejaVuSans-75" transform="translate(535.107422 0.015625)"/>
     <use xlink:href="#DejaVuSans-6e" transform="translate(598.486328 0.015625)"/>
     <use xlink:href="#DejaVuSans-64" transform="translate(661.865234 0.015625)"/>
     <use xlink:href="#DejaVuSans-20" transform="translate(725.341797 0.015625)"/>
     <use xlink:href="#DejaVuSans-74" transform="translate(757.128906 0.015625)"/>
     <use xlink:href="#DejaVuSans-6f" transform="translate(796.337891 0.015625)"/>
     <use xlink:href="#DejaVuSans-70" transform="translate(857.519531 0.015625)"/>
     <use xlink:href="#DejaVuSans-20" transform="translate(920.996094 0.015625)"/>
     <use xlink:href="#DejaVuSans-73" transform="translate(952.783203 0.015625)"/>
     <use xlink:href="#DejaVuSans-74" transform="translate(1004.882812 0.015625)"/>
     <use xlink:href="#DejaVuSans-61" transform="translate(1044.091797 0.015625)"/>
     <use xlink:href="#DejaVuSans-74" transform="translate(1105.371094 0.015625)"/>
     <use xlink:href="#DejaVuSans-65" transform="translate(1144.580078 0.015625)"/>
     <use xlink:href="#DejaVuSans-20" transform="translate(1206.103516 0.015625)"/>
     <use xlink:href="#DejaVuSans-28" transform="translate(1237.890625 0.015625)"/>
     <use xlink:href="#DejaVuSans-6c" transform="translate(1276.904297 0.015625)"/>
     <use xlink:href="#DejaVuSans-6f" transform="translate(1304.6875 0.015625)"/>
     <use xlink:href="#DejaVuSans-6e" transform="translate(1365.869141 0.015625)"/>
     <use xlink:href="#DejaVuSans-67" transform="translate(1429.248047 0.015625)"/>
     <use xlink:href="#DejaVuSans-20" transform="translate(1492.724609 0.015625)"/>
     <use xlink:href="#DejaVuSans-65" transform="translate(1524.511719 0.015625)"/>
     <use xlink:href="#DejaVuSans-76" transform="translate(1586.035156 0.015625)"/>
     <use xlink:href="#DejaVuSans-61" transform="translate(1645.214844 0.015625)"/>
     <use xlink:href="#DejaVuSans-6e" transform="translate(1706.494141 0.015625)"/>
     <use xlink:href="#DejaVuSans-65" transform="translate(1769.873047 0.015625)"/>
     <use xlink:href="#DejaVuSans-73" transform="translate(1831.396484 0.015625)"/>
     <use xlink:href="#DejaVuSans-63" transform="translate(1883.496094 0.015625)"/>
     <use xlink:href="#DejaVuSans-65" transform="translate(1938.476562 0.015625)"/>
     <use xlink:href="#DejaVuSans-6e" transform="translate(2000 0.015625)"/>
     <use xlink:href="#DejaVuSans-74" transform="translate(2063.378906 0.015625)"/>
     <use xlink:href="#DejaVuSans-20" transform="translate(2102.587891 0.015625)"/>
     <use xlink:href="#DejaVuSans-74" transform="translate(2134.375 0.015625)"/>
     <use xlink:href="#DejaVuSans-61" transform="translate(2173.583984 0.015625)"/>
     <use xlink:href="#DejaVuSans-69" transform="translate(2234.863281 0.015625)"/>
     <use xlink:href="#DejaVuSans-6c" transform="translate(2262.646484 0.015625)"/>
     <use xlink:href="#DejaVuSans-29" transform="translate(2290.429688 0.015625)"/>
     <use xlink:href="#DejaVuSans-20" transform="translate(2329.443359 0.015625)"/>
     <use xlink:href="#DejaVuSans-20" transform="translate(2361.230469 0.015625)"/>
     <use xlink:href="#DejaVuSans-20" transform="translate(2393.017578 0.015625)"/>
     <use xlink:href="#DejaVuSans-28" transform="translate(2424.804688 0.015625)"/>
     <use xlink:href="#DejaVuSans-45" transform="translate(2463.818359 0.015625)"/>
     <use xlink:href="#DejaVuSans-20" transform="translate(2527.001953 0.015625)"/>
     <use xlink:href="#DejaVuSans-3d" transform="translate(2558.789062 0.015625)"/>
     <use xlink:href="#DejaVuSans-20" transform="translate(2642.578125 0.015625)"/>
     <use xlink:href="#DejaVuSans-2d" transform="translate(2674.365234 0.015625)"/>
     <use xlink:href="#DejaVuSans-30" transform="translate(2710.449219 0.015625)"/>
     <use xlink:href="#DejaVuSans-2e" transform="translate(2774.072266 0.015625)"/>
     <use xlink:href="#DejaVuSans-31" transform="translate(2805.859375 0.015625)"/>
     <use xlink:href="#DejaVuSans-32" transform="translate(2869.482422 0.015625)"/>
     <use xlink:href="#DejaVuSans-2c" transform="translate(2933.105469 0.015625)"/>
     <use xlink:href="#DejaVuSans-20" transform="translate(2964.892578 0.015625)"/>
     <use xlink:href="#DejaVuSans-64" transform="translate(2996.679688 0.015625)"/>
     <use xlink:href="#DejaVuSans-65" transform="translate(3060.15625 0.015625)"/>
     <use xlink:href="#DejaVuSans-70" transform="translate(3121.679688 0.015625)"/>
     <use xlink:href="#DejaVuSans-74" transform="translate(3185.15625 0.015625)"/>
     <use xlink:href="#DejaVuSans-68" transform="translate(3224.365234 0.015625)"/>
     <use xlink:href="#DejaVuSans-20" transform="translate(3287.744141 0.015625)"/>
     <use xlink:href="#DejaVuSans-Oblique-56" transform="translate(3319.53125 0.015625)"/>
     <use xlink:href="#DejaVuSans-30" transform="translate(3387.939453 -16.390625) scale(0.7)"/>
     <use xlink:href="#DejaVuSans-3d" transform="translate(3435.209961 0.015625)"/>
     <use xlink:href="#DejaVuSans-32" transform="translate(3518.999023 0.015625)"/>
     <use xlink:href="#DejaVuSans-30" transform="translate(3582.62207 0.015625)"/>
     <use xlink:href="#DejaVuSans-29" transform="translate(3646.245117 0.015625)"/>
    </g>
   </g>
  </g>
  <g id="text_20">
   <!-- Penetration depth grows as binding weakens -->
   <g transform="translate(102.860625 16.894125) scale(0.12 -0.12)">
    <defs>
     <path id="DejaVuSans-50" d="M 1259 4147 
L 1259 2394 
L 2053 2394 
Q 2494 2394 2734 2622 
Q 2975 2850 2975 3272 
Q 2975 3691 2734 3919 
Q 2494 4147 2053 4147 
L 1259 4147 
z
M 628 4666 
L 2053 4666 
Q 2838 4666 3239 4311 
Q 3641 3956 3641 3272 
Q 3641 2581 3239 2228 
Q 2838 1875 2053 1875 
L 1259 1875 
L 1259 0 
L 628 0 
L 628 4666 
z
" transform="scale(0.015625)"/>
     <path id="DejaVuSans-6b" d="M 581 4863 
L 1159 4863 
L 1159 1991 
L 2875 3500 
L 3609 3500 
L 1753 1863 
L 3688 0 
L 2938 0 
L 1159 1709 
L 1159 0 
L 581 0 
L 581 4863 
z
" transform="scale(0.015625)"/>
    </defs>
    <use xlink:href="#DejaVuSans-50"/>
    <use xlink:href="#DejaVuSans-65" transform="translate(56.677734 0)"/>
    <use xlink:href="#DejaVuSans-6e" transform="translate(118.201172 0)"/>
    <use xlink:href="#DejaVuSans-65" transform="translate(181.580078 0)"/>
    <use xlink:href="#DejaVuSans-74" transform="translate(243.103516 0)"/>
    <use xlink:href="#DejaVuSans-72" transform="translate(282.3125 0)"/>
    <use xlink:href="#DejaVuSans-61" transform="translate(323.425781 0)"/>
    <use xlink:href="#DejaVuSans-74" transform="translate(384.705078 0)"/>
    <use xlink:href="#DejaVuSans-69" transform="translate(423.914062 0)"/>
    <use xlink:href="#DejaVuSans-6f" transform="translate(451.697266 0)"/>
    <use xlink:href="#DejaVuSans-6e" transform="translate(512.878906 0)"/>
    <use xlink:href="#DejaVuSans-20" transform="translate(576.257812 0)"/>
    <use xlink:href="#DejaVuSans-64" transform="translate(608.044922 0)"/>
    <use xlink:href="#DejaVuSans-65" transform="translate(671.521484 0)"/>
    <use xlink:href="#DejaVuSans-70" transform="translate(733.044922 0)"/>
    <use xlink:href="#DejaVuSans-74" transform="translate(796.521484 0)"/>
    <use xlink:href="#DejaVuSans-68" transform="translate(835.730469 0)"/>
    <use xlink:href="#DejaVuSans-20" transform="translate(899.109375 0)"/>
    <use xlink:href="#DejaVuSans-67" transform="translate(930.896484 0)"/>
    <use xlink:href="#DejaVuSans-72" transform="translate(994.373047 0)"/>
    <use xlink:href="#DejaVuSans-6f" transform="translate(1033.236328 0)"/>
    <use xlink:href="#DejaVuSans-77" transform="translate(1094.417969 0)"/>
    <use xlink:href="#DejaVuSans-73" transform="translate(1176.205078 0)"/>
    <use xlink:href="#DejaVuSans-20" transform="translate(1228.304688 0)"/>
    <use xlink:href="#DejaVuSans-61" transform="translate(1260.091797 0)"/>
    <use xlink:href="#DejaVuSans-73" transform="translate(1321.371094 0)"/>
    <use xlink:href="#DejaVuSans-20" transform="translate(1373.470703 0)"/>
    <use xlink:href="#DejaVuSans-62" transform="translate(1405.257812 0)"/>
    <use xlink:href="#DejaVuSans-69" transform="translate(1468.734375 0)"/>
    <use xlink:href="#DejaVuSans-6e" transform="translate(1496.517578 0)"/>
    <use xlink:href="#DejaVuSans-64" transform="translate(1559.896484 0)"/>
    <use xlink:href="#DejaVuSans-69" transform="translate(1623.373047 0)"/>
    <use xlink:href="#DejaVuSans-6e" transform="translate(1651.15625 0)"/>
    <use xlink:href="#DejaVuSans-67" transform="translate(1714.535156 0)"/>
    <use xlink:href="#DejaVuSans-20" transform="translate(1778.011719 0)"/>
    <use xlink:href="#DejaVuSans-77" transform="translate(1809.798828 0)"/>
    <use xlink:href="#DejaVuSans-65" transform="translate(1891.585938 0)"/>
    <use xlink:href="#DejaVuSans-61" transform="translate(1953.109375 0)"/>
    <use xlink:href="#DejaVuSans-6b" transform="translate(2014.388672 0)"/>
    <use xlink:href="#DejaVuSans-65" transform="translate(2068.673828 0)"/>
    <use xlink:href="#DejaVuSans-6e" transform="translate(2130.197266 0)"/>
    <use xlink:href="#DejaVuSans-73" transform="translate(2193.576172 0)"/>
   </g>
  </g>
 </g>
 <defs>
  <clipPath id="p891a5b345d">
   <rect x="70.04" y="52.08" width="393.28" height="130.75"/>
  </clipPath>
  <clipPath id="pebbd2201be">
   <rect x="70.04" y="213.57" width="393.28" height="130.75"/>
  </clipPath>
 </defs>
</svg>
