<?xml version="1.0" encoding="utf-8" standalone="no"?>
<!DOCTYPE svg PUBLIC "-//W3C//DTD SVG 1.1//EN"
  "http://www.w3.org/Graphics/SVG/1.1/DTD/svg11.dtd">
<svg xmlns:xlink="http://www.w3.org/1999/xlink" width="604.8pt" height="302.4pt" viewBox="0 0 604.8 302.4" xmlns="http://www.w3.org/2000/svg" version="1.1">
 <metadata>
  <rdf:RDF xmlns:dc="http://purl.org/dc/elements/1.1/" xmlns:cc="http://creativecommons.org/ns#" xmlns:rdf="http://www.w3.org/1999/02/22-rdf-syntax-ns#">
   <cc:Work>
    <dc:type rdf:resource="http://purl.org/dc/dcmitype/StillImage"/>
    <dc:date>2026-06-04T06:14:45.071623</dc:date>
    <dc:format>image/svg+xml</dc:format>
    <dc:creator>
     <cc:Agent>
      <dc:title>Matplotlib v3.10.8, https://matplotlib.org/</dc:title>
     </cc:Agent>
    </dc:creator>
   </cc:Work>
  </rdf:RDF>
 </metadata>
 <defs>
  <style type="text/css">*{stroke-linejoin: round; stroke-linecap: butt}</style>
 </defs>
 <g id="figure_1">
  <g id="patch_1">
   <path d="M 0 302.4 
L 604.8 302.4 
L 604.8 0 
L 0 0 
z
" style="fill: #ffffff"/>
  </g>
  <g id="axes_1">
   <g id="patch_2">
    <path d="M 36.25 257.92 
L 301.635 257.92 
L 301.635 54.24 
L 36.25 54.24 
z
" style="fill: #ffffff"/>
   </g>
   <g id="matplotlib.axis_1">
    <g id="xtick_1">
     <g id="line2d_1">
      <defs>
       <path id="me3839d5a8c" d="M 0 0 
L 0 3.5 
" style="stroke: #000000; stroke-width: 0.8"/>
      </defs>
      <g>
       <use xlink:href="#me3839d5a8c" x="36.25" y="257.92" style="stroke: #000000; stroke-width: 0.8"/>
      </g>
     </g>
     <g id="text_1">
      <!-- 0.0 -->
      <g transform="translate(27.503281 273.278281) scale(0.11 -0.11)">
       <defs>
        <path id="DejaVuSans-30" d="M 2034 4250 
Q 1547 4250 1301 3770 
Q 1056 3291 1056 2328 
Q 1056 1369 1301 889 
Q 1547 409 2034 409 
Q 2525 409 2770 889 
Q 3016 1369 3016 2328 
Q 3016 3291 2770 3770 
Q 2525 4250 2034 4250 
z
M 2034 4750 
Q 2819 4750 3233 4129 
Q 3647 3509 3647 2328 
Q 3647 1150 3233 529 
Q 2819 -91 2034 -91 
Q 1250 -91 836 529 
Q 422 1150 422 2328 
Q 422 3509 836 4129 
Q 1250 4750 2034 4750 
z
" transform="scale(0.015625)"/>
        <path id="DejaVuSans-2e" d="M 684 794 
L 1344 794 
L 1344 0 
L 684 0 
L 684 794 
z
" transform="scale(0.015625)"/>
       </defs>
       <use xlink:href="#DejaVuSans-30"/>
       <use xlink:href="#DejaVuSans-2e" transform="translate(63.623047 0)"/>
       <use xlink:href="#DejaVuSans-30" transform="translate(95.410156 0)"/>
      </g>
     </g>
    </g>
    <g id="xtick_2">
     <g id="line2d_2">
      <g>
       <use xlink:href="#me3839d5a8c" x="87.446769" y="257.92" style="stroke: #000000; stroke-width: 0.8"/>
      </g>
     </g>
     <g id="text_2">
      <!-- 0.5 -->
      <g transform="translate(78.70005 273.278281) scale(0.11 -0.11)">
       <defs>
        <path id="DejaVuSans-35" d="M 691 4666 
L 3169 4666 
L 3169 4134 
L 1269 4134 
L 1269 2991 
Q 1406 3038 1543 3061 
Q 1681 3084 1819 3084 
Q 2600 3084 3056 2656 
Q 3513 2228 3513 1497 
Q 3513 744 3044 326 
Q 2575 -91 1722 -91 
Q 1428 -91 1123 -41 
Q 819 9 494 109 
L 494 744 
Q 775 591 1075 516 
Q 1375 441 1709 441 
Q 2250 441 2565 725 
Q 2881 1009 2881 1497 
Q 2881 1984 2565 2268 
Q 2250 2553 1709 2553 
Q 1456 2553 1204 2497 
Q 953 2441 691 2322 
L 691 4666 
z
" transform="scale(0.015625)"/>
       </defs>
       <use xlink:href="#DejaVuSans-30"/>
       <use xlink:href="#DejaVuSans-2e" transform="translate(63.623047 0)"/>
       <use xlink:href="#DejaVuSans-35" transform="translate(95.410156 0)"/>
      </g>
     </g>
    </g>
    <g id="xtick_3">
     <g id="line2d_3">
      <g>
       <use xlink:href="#me3839d5a8c" x="138.643538" y="257.92" style="stroke: #000000; stroke-width: 0.8"/>
      </g>
     </g>
     <g id="text_3">
      <!-- 1.0 -->
      <g transform="translate(129.89682 273.278281) scale(0.11 -0.11)">
       <defs>
        <path id="DejaVuSans-31" d="M 794 531 
L 1825 531 
L 1825 4091 
L 703 3866 
L 703 4441 
L 1819 4666 
L 2450 4666 
L 2450 531 
L 3481 531 
L 3481 0 
L 794 0 
L 794 531 
z
" transform="scale(0.015625)"/>
       </defs>
       <use xlink:href="#DejaVuSans-31"/>
       <use xlink:href="#DejaVuSans-2e" transform="translate(63.623047 0)"/>
       <use xlink:href="#DejaVuSans-30" transform="translate(95.410156 0)"/>
      </g>
     </g>
    </g>
    <g id="xtick_4">
     <g id="line2d_4">
      <g>
       <use xlink:href="#me3839d5a8c" x="189.840308" y="257.92" style="stroke: #000000; stroke-width: 0.8"/>
      </g>
     </g>
     <g id="text_4">
      <!-- 1.5 -->
      <g transform="translate(181.093589 273.278281) scale(0.11 -0.11)">
       <use xlink:href="#DejaVuSans-31"/>
       <use xlink:href="#DejaVuSans-2e" transform="translate(63.623047 0)"/>
       <use xlink:href="#DejaVuSans-35" transform="translate(95.410156 0)"/>
      </g>
     </g>
    </g>
    <g id="xtick_5">
     <g id="line2d_5">
      <g>
       <use xlink:href="#me3839d5a8c" x="241.037077" y="257.92" style="stroke: #000000; stroke-width: 0.8"/>
      </g>
     </g>
     <g id="text_5">
      <!-- 2.0 -->
      <g transform="translate(232.290358 273.278281) scale(0.11 -0.11)">
       <defs>
        <path id="DejaVuSans-32" d="M 1228 531 
L 3431 531 
L 3431 0 
L 469 0 
L 469 531 
Q 828 903 1448 1529 
Q 2069 2156 2228 2338 
Q 2531 2678 2651 2914 
Q 2772 3150 2772 3378 
Q 2772 3750 2511 3984 
Q 2250 4219 1831 4219 
Q 1534 4219 1204 4116 
Q 875 4013 500 3803 
L 500 4441 
Q 881 4594 1212 4672 
Q 1544 4750 1819 4750 
Q 2544 4750 2975 4387 
Q 3406 4025 3406 3419 
Q 3406 3131 3298 2873 
Q 3191 2616 2906 2266 
Q 2828 2175 2409 1742 
Q 1991 1309 1228 531 
z
" transform="scale(0.015625)"/>
       </defs>
       <use xlink:href="#DejaVuSans-32"/>
       <use xlink:href="#DejaVuSans-2e" transform="translate(63.623047 0)"/>
       <use xlink:href="#DejaVuSans-30" transform="translate(95.410156 0)"/>
      </g>
     </g>
    </g>
    <g id="xtick_6">
     <g id="line2d_6">
      <g>
       <use xlink:href="#me3839d5a8c" x="292.233846" y="257.92" style="stroke: #000000; stroke-width: 0.8"/>
      </g>
     </g>
     <g id="text_6">
      <!-- 2.5 -->
      <g transform="translate(283.487127 273.278281) scale(0.11 -0.11)">
       <use xlink:href="#DejaVuSans-32"/>
       <use xlink:href="#DejaVuSans-2e" transform="translate(63.623047 0)"/>
       <use xlink:href="#DejaVuSans-35" transform="translate(95.410156 0)"/>
      </g>
     </g>
    </g>
    <g id="text_7">
     <!-- z -->
     <g transform="translate(166.055859 287.924219) scale(0.11 -0.11)">
      <defs>
       <path id="DejaVuSans-7a" d="M 353 3500 
L 3084 3500 
L 3084 2975 
L 922 459 
L 3084 459 
L 3084 0 
L 275 0 
L 275 525 
L 2438 3041 
L 353 3041 
L 353 3500 
z
" transform="scale(0.015625)"/>
      </defs>
      <use xlink:href="#DejaVuSans-7a"/>
     </g>
    </g>
   </g>
   <g id="matplotlib.axis_2">
    <g id="ytick_1">
     <g id="line2d_7">
      <defs>
       <path id="m084d8e474d" d="M 0 0 
L -3.5 0 
" style="stroke: #000000; stroke-width: 0.8"/>
      </defs>
      <g>
       <use xlink:href="#m084d8e474d" x="36.25" y="257.92" style="stroke: #000000; stroke-width: 0.8"/>
      </g>
     </g>
     <g id="text_8">
      <!-- 0.0 -->
      <g transform="translate(11.756563 262.099141) scale(0.11 -0.11)">
       <use xlink:href="#DejaVuSans-30"/>
       <use xlink:href="#DejaVuSans-2e" transform="translate(63.623047 0)"/>
       <use xlink:href="#DejaVuSans-30" transform="translate(95.410156 0)"/>
      </g>
     </g>
    </g>
    <g id="ytick_2">
     <g id="line2d_8">
      <g>
       <use xlink:href="#m084d8e474d" x="36.25" y="214.697762" style="stroke: #000000; stroke-width: 0.8"/>
      </g>
     </g>
     <g id="text_9">
      <!-- 0.5 -->
      <g transform="translate(11.756563 218.876902) scale(0.11 -0.11)">
       <use xlink:href="#DejaVuSans-30"/>
       <use xlink:href="#DejaVuSans-2e" transform="translate(63.623047 0)"/>
       <use xlink:href="#DejaVuSans-35" transform="translate(95.410156 0)"/>
      </g>
     </g>
    </g>
    <g id="ytick_3">
     <g id="line2d_9">
      <g>
       <use xlink:href="#m084d8e474d" x="36.25" y="171.475523" style="stroke: #000000; stroke-width: 0.8"/>
      </g>
     </g>
     <g id="text_10">
      <!-- 1.0 -->
      <g transform="translate(11.756563 175.654664) scale(0.11 -0.11)">
       <use xlink:href="#DejaVuSans-31"/>
       <use xlink:href="#DejaVuSans-2e" transform="translate(63.623047 0)"/>
       <use xlink:href="#DejaVuSans-30" transform="translate(95.410156 0)"/>
      </g>
     </g>
    </g>
    <g id="ytick_4">
     <g id="line2d_10">
      <g>
       <use xlink:href="#m084d8e474d" x="36.25" y="128.253285" style="stroke: #000000; stroke-width: 0.8"/>
      </g>
     </g>
     <g id="text_11">
      <!-- 1.5 -->
      <g transform="translate(11.756563 132.432425) scale(0.11 -0.11)">
       <use xlink:href="#DejaVuSans-31"/>
       <use xlink:href="#DejaVuSans-2e" transform="translate(63.623047 0)"/>
       <use xlink:href="#DejaVuSans-35" transform="translate(95.410156 0)"/>
      </g>
     </g>
    </g>
    <g id="ytick_5">
     <g id="line2d_11">
      <g>
       <use xlink:href="#m084d8e474d" x="36.25" y="85.031046" style="stroke: #000000; stroke-width: 0.8"/>
      </g>
     </g>
     <g id="text_12">
      <!-- 2.0 -->
      <g transform="translate(11.756563 89.210187) scale(0.11 -0.11)">
       <use xlink:href="#DejaVuSans-32"/>
       <use xlink:href="#DejaVuSans-2e" transform="translate(63.623047 0)"/>
       <use xlink:href="#DejaVuSans-30" transform="translate(95.410156 0)"/>
      </g>
     </g>
    </g>
   </g>
   <g id="line2d_12">
    <path d="M 36.352394 54.240018 
L 44.314853 54.353832 
L 52.277312 54.689938 
L 60.239772 55.249441 
L 68.202231 56.034198 
L 76.031983 57.028088 
L 83.861735 58.245628 
L 91.558779 59.664518 
L 99.255823 61.308287 
L 106.820159 63.148323 
L 114.384496 65.217425 
L 121.816125 67.480526 
L 129.115046 69.933414 
L 136.281259 72.57245 
L 143.447473 75.450092 
L 150.480979 78.517555 
L 157.381777 81.773424 
L 164.01716 85.14702 
L 170.519835 88.698134 
L 176.889802 92.427041 
L 183.127062 96.334866 
L 189.231614 100.423689 
L 195.070751 104.598644 
L 200.777181 108.949121 
L 206.350902 113.479771 
L 211.659209 118.078063 
L 216.834807 122.854972 
L 221.74499 127.684047 
L 226.522466 132.692673 
L 231.034526 137.73858 
L 235.413879 142.968133 
L 239.527816 148.220821 
L 243.509046 153.665587 
L 247.224861 159.120544 
L 250.807967 164.782462 
L 254.125659 170.444001 
L 257.177935 176.082075 
L 260.097503 181.94685 
L 262.751656 187.777375 
L 265.140394 193.540937 
L 267.396424 199.568098 
L 269.387039 205.515553 
L 271.112239 211.328502 
L 272.704731 217.474856 
L 274.031807 223.463509 
L 275.093469 229.169445 
L 276.022422 235.343399 
L 276.68596 241.109326 
L 277.216791 247.89685 
L 277.747622 257.92 
L 301.635 257.92 
L 301.635 257.92 
" clip-path="url(#pf92a55e6db)" style="fill: none; stroke: #0072b2; stroke-width: 2; stroke-linecap: square"/>
   </g>
   <g id="line2d_13">
    <path d="M 36.352394 257.919914 
L 40.068208 257.799742 
L 43.784022 257.451153 
L 47.499837 256.8723 
L 51.082943 256.093163 
L 54.66605 255.093144 
L 58.249157 253.86716 
L 61.832264 252.408872 
L 65.41537 250.710591 
L 68.998477 248.763143 
L 72.581584 246.555725 
L 76.031983 244.17259 
L 79.482382 241.523626 
L 82.932781 238.593786 
L 86.38318 235.365761 
L 89.700872 231.96219 
L 93.018563 228.244268 
L 96.336255 224.188763 
L 99.653946 219.76902 
L 102.83893 215.154973 
L 106.023913 210.145814 
L 109.208897 204.705631 
L 112.261173 199.049328 
L 115.313449 192.91687 
L 118.233018 186.560454 
L 121.152586 179.674029 
L 124.072155 172.1999 
L 126.859016 164.455455 
L 129.645876 156.045566 
L 132.30003 147.343962 
L 134.954183 137.884071 
L 137.608336 127.56946 
L 140.129781 116.874854 
L 142.651227 105.188847 
L 145.039965 93.077212 
L 147.428702 79.808578 
L 149.684733 66.061136 
L 151.940763 50.955957 
L 154.196793 34.28294 
L 156.320116 16.929264 
L 158.306509 -1 
L 158.306509 -1 
" clip-path="url(#pf92a55e6db)" style="fill: none; stroke: #d55e00; stroke-width: 1.6; stroke-linecap: square"/>
   </g>
   <g id="line2d_14">
    <path d="M 197.194074 257.781091 
L 201.838842 251.430997 
L 206.48361 244.697337 
L 210.99567 237.759971 
L 215.375023 230.623325 
L 219.754376 223.056647 
L 224.001021 215.273958 
L 228.114958 207.28034 
L 232.228895 198.800456 
L 236.210125 190.08954 
L 240.191355 180.836329 
L 244.039877 171.327376 
L 247.888399 161.209769 
L 251.604213 150.806191 
L 255.18732 140.123808 
L 258.770427 128.737258 
L 262.220826 117.037363 
L 265.671225 104.538666 
L 268.988916 91.685025 
L 272.306608 77.919864 
L 275.491592 63.749697 
L 278.676575 48.533162 
L 281.728851 32.851367 
L 284.781128 15.961121 
L 287.625251 -1 
L 287.625251 -1 
" clip-path="url(#pf92a55e6db)" style="fill: none; stroke-dasharray: 5.92,2.56; stroke-dashoffset: 0; stroke: #e69f00; stroke-width: 1.6"/>
   </g>
   <g id="patch_3">
    <path d="M 36.25 257.92 
L 36.25 54.24 
" style="fill: none; stroke: #000000; stroke-linejoin: miter; stroke-linecap: square"/>
   </g>
   <g id="patch_4">
    <path d="M 36.25 257.92 
L 301.635 257.92 
" style="fill: none; stroke: #000000; stroke-linejoin: miter; stroke-linecap: square"/>
   </g>
   <g id="text_13">
    <!-- $z_0=3\pi/4$: 2 bound states -->
    <g transform="translate(93.5225 48.24) scale(0.12 -0.12)">
     <defs>
      <path id="DejaVuSans-Oblique-7a" d="M 744 3500 
L 3475 3500 
L 3372 2975 
L 738 459 
L 2913 459 
L 2822 0 
L -19 0 
L 84 525 
L 2719 3041 
L 653 3041 
L 744 3500 
z
" transform="scale(0.015625)"/>
      <path id="DejaVuSans-3d" d="M 678 2906 
L 4684 2906 
L 4684 2381 
L 678 2381 
L 678 2906 
z
M 678 1631 
L 4684 1631 
L 4684 1100 
L 678 1100 
L 678 1631 
z
" transform="scale(0.015625)"/>
      <path id="DejaVuSans-33" d="M 2597 2516 
Q 3050 2419 3304 2112 
Q 3559 1806 3559 1356 
Q 3559 666 3084 287 
Q 2609 -91 1734 -91 
Q 1441 -91 1130 -33 
Q 819 25 488 141 
L 488 750 
Q 750 597 1062 519 
Q 1375 441 1716 441 
Q 2309 441 2620 675 
Q 2931 909 2931 1356 
Q 2931 1769 2642 2001 
Q 2353 2234 1838 2234 
L 1294 2234 
L 1294 2753 
L 1863 2753 
Q 2328 2753 2575 2939 
Q 2822 3125 2822 3475 
Q 2822 3834 2567 4026 
Q 2313 4219 1838 4219 
Q 1578 4219 1281 4162 
Q 984 4106 628 3988 
L 628 4550 
Q 988 4650 1302 4700 
Q 1616 4750 1894 4750 
Q 2613 4750 3031 4423 
Q 3450 4097 3450 3541 
Q 3450 3153 3228 2886 
Q 3006 2619 2597 2516 
z
" transform="scale(0.015625)"/>
      <path id="DejaVuSans-Oblique-3c0" d="M 584 3500 
L 3938 3500 
L 3825 2925 
L 3384 2925 
L 2966 775 
Q 2922 550 2981 450 
Q 3038 353 3209 353 
Q 3256 353 3325 363 
Q 3397 369 3419 372 
L 3338 -44 
Q 3222 -84 3103 -103 
Q 2981 -122 2866 -122 
Q 2491 -122 2388 81 
Q 2284 288 2391 838 
L 2797 2925 
L 1506 2925 
L 938 0 
L 350 0 
L 919 2925 
L 472 2925 
L 584 3500 
z
" transform="scale(0.015625)"/>
      <path id="DejaVuSans-2f" d="M 1625 4666 
L 2156 4666 
L 531 -594 
L 0 -594 
L 1625 4666 
z
" transform="scale(0.015625)"/>
      <path id="DejaVuSans-34" d="M 2419 4116 
L 825 1625 
L 2419 1625 
L 2419 4116 
z
M 2253 4666 
L 3047 4666 
L 3047 1625 
L 3713 1625 
L 3713 1100 
L 3047 1100 
L 3047 0 
L 2419 0 
L 2419 1100 
L 313 1100 
L 313 1709 
L 2253 4666 
z
" transform="scale(0.015625)"/>
      <path id="DejaVuSans-3a" d="M 750 794 
L 1409 794 
L 1409 0 
L 750 0 
L 750 794 
z
M 750 3309 
L 1409 3309 
L 1409 2516 
L 750 2516 
L 750 3309 
z
" transform="scale(0.015625)"/>
      <path id="DejaVuSans-20" transform="scale(0.015625)"/>
      <path id="DejaVuSans-62" d="M 3116 1747 
Q 3116 2381 2855 2742 
Q 2594 3103 2138 3103 
Q 1681 3103 1420 2742 
Q 1159 2381 1159 1747 
Q 1159 1113 1420 752 
Q 1681 391 2138 391 
Q 2594 391 2855 752 
Q 3116 1113 3116 1747 
z
M 1159 2969 
Q 1341 3281 1617 3432 
Q 1894 3584 2278 3584 
Q 2916 3584 3314 3078 
Q 3713 2572 3713 1747 
Q 3713 922 3314 415 
Q 2916 -91 2278 -91 
Q 1894 -91 1617 61 
Q 1341 213 1159 525 
L 1159 0 
L 581 0 
L 581 4863 
L 1159 4863 
L 1159 2969 
z
" transform="scale(0.015625)"/>
      <path id="DejaVuSans-6f" d="M 1959 3097 
Q 1497 3097 1228 2736 
Q 959 2375 959 1747 
Q 959 1119 1226 758 
Q 1494 397 1959 397 
Q 2419 397 2687 759 
Q 2956 1122 2956 1747 
Q 2956 2369 2687 2733 
Q 2419 3097 1959 3097 
z
M 1959 3584 
Q 2709 3584 3137 3096 
Q 3566 2609 3566 1747 
Q 3566 888 3137 398 
Q 2709 -91 1959 -91 
Q 1206 -91 779 398 
Q 353 888 353 1747 
Q 353 2609 779 3096 
Q 1206 3584 1959 3584 
z
" transform="scale(0.015625)"/>
      <path id="DejaVuSans-75" d="M 544 1381 
L 544 3500 
L 1119 3500 
L 1119 1403 
Q 1119 906 1312 657 
Q 1506 409 1894 409 
Q 2359 409 2629 706 
Q 2900 1003 2900 1516 
L 2900 3500 
L 3475 3500 
L 3475 0 
L 2900 0 
L 2900 538 
Q 2691 219 2414 64 
Q 2138 -91 1772 -91 
Q 1169 -91 856 284 
Q 544 659 544 1381 
z
M 1991 3584 
L 1991 3584 
z
" transform="scale(0.015625)"/>
      <path id="DejaVuSans-6e" d="M 3513 2113 
L 3513 0 
L 2938 0 
L 2938 2094 
Q 2938 2591 2744 2837 
Q 2550 3084 2163 3084 
Q 1697 3084 1428 2787 
Q 1159 2491 1159 1978 
L 1159 0 
L 581 0 
L 581 3500 
L 1159 3500 
L 1159 2956 
Q 1366 3272 1645 3428 
Q 1925 3584 2291 3584 
Q 2894 3584 3203 3211 
Q 3513 2838 3513 2113 
z
" transform="scale(0.015625)"/>
      <path id="DejaVuSans-64" d="M 2906 2969 
L 2906 4863 
L 3481 4863 
L 3481 0 
L 2906 0 
L 2906 525 
Q 2725 213 2448 61 
Q 2172 -91 1784 -91 
Q 1150 -91 751 415 
Q 353 922 353 1747 
Q 353 2572 751 3078 
Q 1150 3584 1784 3584 
Q 2172 3584 2448 3432 
Q 2725 3281 2906 2969 
z
M 947 1747 
Q 947 1113 1208 752 
Q 1469 391 1925 391 
Q 2381 391 2643 752 
Q 2906 1113 2906 1747 
Q 2906 2381 2643 2742 
Q 2381 3103 1925 3103 
Q 1469 3103 1208 2742 
Q 947 2381 947 1747 
z
" transform="scale(0.015625)"/>
      <path id="DejaVuSans-73" d="M 2834 3397 
L 2834 2853 
Q 2591 2978 2328 3040 
Q 2066 3103 1784 3103 
Q 1356 3103 1142 2972 
Q 928 2841 928 2578 
Q 928 2378 1081 2264 
Q 1234 2150 1697 2047 
L 1894 2003 
Q 2506 1872 2764 1633 
Q 3022 1394 3022 966 
Q 3022 478 2636 193 
Q 2250 -91 1575 -91 
Q 1294 -91 989 -36 
Q 684 19 347 128 
L 347 722 
Q 666 556 975 473 
Q 1284 391 1588 391 
Q 1994 391 2212 530 
Q 2431 669 2431 922 
Q 2431 1156 2273 1281 
Q 2116 1406 1581 1522 
L 1381 1569 
Q 847 1681 609 1914 
Q 372 2147 372 2553 
Q 372 3047 722 3315 
Q 1072 3584 1716 3584 
Q 2034 3584 2315 3537 
Q 2597 3491 2834 3397 
z
" transform="scale(0.015625)"/>
      <path id="DejaVuSans-74" d="M 1172 4494 
L 1172 3500 
L 2356 3500 
L 2356 3053 
L 1172 3053 
L 1172 1153 
Q 1172 725 1289 603 
Q 1406 481 1766 481 
L 2356 481 
L 2356 0 
L 1766 0 
Q 1100 0 847 248 
Q 594 497 594 1153 
L 594 3053 
L 172 3053 
L 172 3500 
L 594 3500 
L 594 4494 
L 1172 4494 
z
" transform="scale(0.015625)"/>
      <path id="DejaVuSans-61" d="M 2194 1759 
Q 1497 1759 1228 1600 
Q 959 1441 959 1056 
Q 959 750 1161 570 
Q 1363 391 1709 391 
Q 2188 391 2477 730 
Q 2766 1069 2766 1631 
L 2766 1759 
L 2194 1759 
z
M 3341 1997 
L 3341 0 
L 2766 0 
L 2766 531 
Q 2569 213 2275 61 
Q 1981 -91 1556 -91 
Q 1019 -91 701 211 
Q 384 513 384 1019 
Q 384 1609 779 1909 
Q 1175 2209 1959 2209 
L 2766 2209 
L 2766 2266 
Q 2766 2663 2505 2880 
Q 2244 3097 1772 3097 
Q 1472 3097 1187 3025 
Q 903 2953 641 2809 
L 641 3341 
Q 956 3463 1253 3523 
Q 1550 3584 1831 3584 
Q 2591 3584 2966 3190 
Q 3341 2797 3341 1997 
z
" transform="scale(0.015625)"/>
      <path id="DejaVuSans-65" d="M 3597 1894 
L 3597 1613 
L 953 1613 
Q 991 1019 1311 708 
Q 1631 397 2203 397 
Q 2534 397 2845 478 
Q 3156 559 3463 722 
L 3463 178 
Q 3153 47 2828 -22 
Q 2503 -91 2169 -91 
Q 1331 -91 842 396 
Q 353 884 353 1716 
Q 353 2575 817 3079 
Q 1281 3584 2069 3584 
Q 2775 3584 3186 3129 
Q 3597 2675 3597 1894 
z
M 3022 2063 
Q 3016 2534 2758 2815 
Q 2500 3097 2075 3097 
Q 1594 3097 1305 2825 
Q 1016 2553 972 2059 
L 3022 2063 
z
" transform="scale(0.015625)"/>
     </defs>
     <use xlink:href="#DejaVuSans-Oblique-7a" transform="translate(0 0.015625)"/>
     <use xlink:href="#DejaVuSans-30" transform="translate(52.490234 -16.390625) scale(0.7)"/>
     <use xlink:href="#DejaVuSans-3d" transform="translate(119.243164 0.015625)"/>
     <use xlink:href="#DejaVuSans-33" transform="translate(222.514648 0.015625)"/>
     <use xlink:href="#DejaVuSans-Oblique-3c0" transform="translate(286.137695 0.015625)"/>
     <use xlink:href="#DejaVuSans-2f" transform="translate(346.342773 0.015625)"/>
     <use xlink:href="#DejaVuSans-34" transform="translate(380.03418 0.015625)"/>
     <use xlink:href="#DejaVuSans-3a" transform="translate(443.657227 0.015625)"/>
     <use xlink:href="#DejaVuSans-20" transform="translate(477.348633 0.015625)"/>
     <use xlink:href="#DejaVuSans-32" transform="translate(509.135742 0.015625)"/>
     <use xlink:href="#DejaVuSans-20" transform="translate(572.758789 0.015625)"/>
     <use xlink:href="#DejaVuSans-62" transform="translate(604.545898 0.015625)"/>
     <use xlink:href="#DejaVuSans-6f" transform="translate(668.022461 0.015625)"/>
     <use xlink:href="#DejaVuSans-75" transform="translate(729.204102 0.015625)"/>
     <use xlink:href="#DejaVuSans-6e" transform="translate(792.583008 0.015625)"/>
     <use xlink:href="#DejaVuSans-64" transform="translate(855.961914 0.015625)"/>
     <use xlink:href="#DejaVuSans-20" transform="translate(919.438477 0.015625)"/>
     <use xlink:href="#DejaVuSans-73" transform="translate(951.225586 0.015625)"/>
     <use xlink:href="#DejaVuSans-74" transform="translate(1003.325195 0.015625)"/>
     <use xlink:href="#DejaVuSans-61" transform="translate(1042.53418 0.015625)"/>
     <use xlink:href="#DejaVuSans-74" transform="translate(1103.813477 0.015625)"/>
     <use xlink:href="#DejaVuSans-65" transform="translate(1143.022461 0.015625)"/>
     <use xlink:href="#DejaVuSans-73" transform="translate(1204.545898 0.015625)"/>
    </g>
   </g>
   <g id="legend_1">
    <g id="line2d_15">
     <path d="M 219.315 68.88 
L 227.315 68.88 
L 235.315 68.88 
" style="fill: none; stroke: #0072b2; stroke-width: 2; stroke-linecap: square"/>
    </g>
    <g id="text_14">
     <!-- $\sqrt{z_0^2-z^2}$ -->
     <g transform="translate(241.715 71.68) scale(0.08 -0.08)">
      <defs>
       <path id="STIXSizeOneSym-Regular-221a" d="M 6970 9933 
L 3373 -1888 
L 3104 -1888 
L 1626 2918 
Q 1555 3149 1465 3251 
Q 1376 3354 1229 3354 
Q 1011 3354 794 3181 
L 717 3309 
L 1766 4115 
L 1926 4115 
L 3379 -602 
L 3405 -602 
L 6605 9933 
L 6970 9933 
z
" transform="scale(0.015625)"/>
       <path id="DejaVuSans-2212" d="M 678 2272 
L 4684 2272 
L 4684 1741 
L 678 1741 
L 678 2272 
z
" transform="scale(0.015625)"/>
      </defs>
      <use xlink:href="#STIXSizeOneSym-Regular-221a" transform="translate(0 -3.71875) scale(0.811158)"/>
      <use xlink:href="#DejaVuSans-Oblique-7a" transform="translate(98.249115 0.515625)"/>
      <use xlink:href="#DejaVuSans-32" transform="translate(155.205495 38.796875) scale(0.7)"/>
      <use xlink:href="#DejaVuSans-30" transform="translate(150.739349 -26.828125) scale(0.7)"/>
      <use xlink:href="#DejaVuSans-2212" transform="translate(221.958425 0.515625)"/>
      <use xlink:href="#DejaVuSans-Oblique-7a" transform="translate(325.229909 0.515625)"/>
      <use xlink:href="#DejaVuSans-32" transform="translate(382.186289 38.796875) scale(0.7)"/>
      <path d="M 85.749115 115.5 
L 85.749115 121.75 
L 441.956797 121.75 
L 441.956797 115.5 
L 85.749115 115.5 
z
"/>
     </g>
    </g>
    <g id="line2d_16">
     <path d="M 219.315 81.27875 
L 227.315 81.27875 
L 235.315 81.27875 
" style="fill: none; stroke: #d55e00; stroke-width: 1.6; stroke-linecap: square"/>
    </g>
    <g id="text_15">
     <!-- $z\tan z$ (even) -->
     <g transform="translate(241.715 84.07875) scale(0.08 -0.08)">
      <defs>
       <path id="DejaVuSans-28" d="M 1984 4856 
Q 1566 4138 1362 3434 
Q 1159 2731 1159 2009 
Q 1159 1288 1364 580 
Q 1569 -128 1984 -844 
L 1484 -844 
Q 1016 -109 783 600 
Q 550 1309 550 2009 
Q 550 2706 781 3412 
Q 1013 4119 1484 4856 
L 1984 4856 
z
" transform="scale(0.015625)"/>
       <path id="DejaVuSans-76" d="M 191 3500 
L 800 3500 
L 1894 563 
L 2988 3500 
L 3597 3500 
L 2284 0 
L 1503 0 
L 191 3500 
z
" transform="scale(0.015625)"/>
       <path id="DejaVuSans-29" d="M 513 4856 
L 1013 4856 
Q 1481 4119 1714 3412 
Q 1947 2706 1947 2009 
Q 1947 1309 1714 600 
Q 1481 -109 1013 -844 
L 513 -844 
Q 928 -128 1133 580 
Q 1338 1288 1338 2009 
Q 1338 2731 1133 3434 
Q 928 4138 513 4856 
z
" transform="scale(0.015625)"/>
      </defs>
      <use xlink:href="#DejaVuSans-Oblique-7a" transform="translate(0 0.125)"/>
      <use xlink:href="#DejaVuSans-74" transform="translate(52.490234 0.125)"/>
      <use xlink:href="#DejaVuSans-61" transform="translate(91.699219 0.125)"/>
      <use xlink:href="#DejaVuSans-6e" transform="translate(152.978516 0.125)"/>
      <use xlink:href="#DejaVuSans-Oblique-7a" transform="translate(232.593098 0.125)"/>
      <use xlink:href="#DejaVuSans-20" transform="translate(285.083333 0.125)"/>
      <use xlink:href="#DejaVuSans-28" transform="translate(316.870442 0.125)"/>
      <use xlink:href="#DejaVuSans-65" transform="translate(355.884114 0.125)"/>
      <use xlink:href="#DejaVuSans-76" transform="translate(417.407551 0.125)"/>
      <use xlink:href="#DejaVuSans-65" transform="translate(476.587239 0.125)"/>
      <use xlink:href="#DejaVuSans-6e" transform="translate(538.110676 0.125)"/>
      <use xlink:href="#DejaVuSans-29" transform="translate(601.489583 0.125)"/>
     </g>
    </g>
    <g id="line2d_17">
     <path d="M 219.315 93.02125 
L 227.315 93.02125 
L 235.315 93.02125 
" style="fill: none; stroke-dasharray: 5.92,2.56; stroke-dashoffset: 0; stroke: #e69f00; stroke-width: 1.6"/>
    </g>
    <g id="text_16">
     <!-- $-z\cot z$ (odd) -->
     <g transform="translate(241.715 95.82125) scale(0.08 -0.08)">
      <defs>
       <path id="DejaVuSans-63" d="M 3122 3366 
L 3122 2828 
Q 2878 2963 2633 3030 
Q 2388 3097 2138 3097 
Q 1578 3097 1268 2742 
Q 959 2388 959 1747 
Q 959 1106 1268 751 
Q 1578 397 2138 397 
Q 2388 397 2633 464 
Q 2878 531 3122 666 
L 3122 134 
Q 2881 22 2623 -34 
Q 2366 -91 2075 -91 
Q 1284 -91 818 406 
Q 353 903 353 1747 
Q 353 2603 823 3093 
Q 1294 3584 2113 3584 
Q 2378 3584 2631 3529 
Q 2884 3475 3122 3366 
z
" transform="scale(0.015625)"/>
      </defs>
      <use xlink:href="#DejaVuSans-2212" transform="translate(0 0.015625)"/>
      <use xlink:href="#DejaVuSans-Oblique-7a" transform="translate(83.789062 0.015625)"/>
      <use xlink:href="#DejaVuSans-63" transform="translate(136.279297 0.015625)"/>
      <use xlink:href="#DejaVuSans-6f" transform="translate(191.259766 0.015625)"/>
      <use xlink:href="#DejaVuSans-74" transform="translate(252.441406 0.015625)"/>
      <use xlink:href="#DejaVuSans-Oblique-7a" transform="translate(307.886067 0.015625)"/>
      <use xlink:href="#DejaVuSans-20" transform="translate(360.376301 0.015625)"/>
      <use xlink:href="#DejaVuSans-28" transform="translate(392.163411 0.015625)"/>
      <use xlink:href="#DejaVuSans-6f" transform="translate(431.177083 0.015625)"/>
      <use xlink:href="#DejaVuSans-64" transform="translate(492.358723 0.015625)"/>
      <use xlink:href="#DejaVuSans-64" transform="translate(555.835286 0.015625)"/>
      <use xlink:href="#DejaVuSans-29" transform="translate(619.311848 0.015625)"/>
     </g>
    </g>
   </g>
  </g>
  <g id="axes_2">
   <g id="patch_5">
    <path d="M 327.535 257.92 
L 592.92 257.92 
L 592.92 54.24 
L 327.535 54.24 
z
" style="fill: #ffffff"/>
   </g>
   <g id="matplotlib.axis_3">
    <g id="xtick_7">
     <g id="line2d_18">
      <g>
       <use xlink:href="#me3839d5a8c" x="327.535" y="257.92" style="stroke: #000000; stroke-width: 0.8"/>
      </g>
     </g>
     <g id="text_17">
      <!-- 0 -->
      <g transform="translate(324.035625 273.278281) scale(0.11 -0.11)">
       <use xlink:href="#DejaVuSans-30"/>
      </g>
     </g>
    </g>
    <g id="xtick_8">
     <g id="line2d_19">
      <g>
       <use xlink:href="#me3839d5a8c" x="378.731769" y="257.92" style="stroke: #000000; stroke-width: 0.8"/>
      </g>
     </g>
     <g id="text_18">
      <!-- 1 -->
      <g transform="translate(375.232394 273.278281) scale(0.11 -0.11)">
       <use xlink:href="#DejaVuSans-31"/>
      </g>
     </g>
    </g>
    <g id="xtick_9">
     <g id="line2d_20">
      <g>
       <use xlink:href="#me3839d5a8c" x="429.928538" y="257.92" style="stroke: #000000; stroke-width: 0.8"/>
      </g>
     </g>
     <g id="text_19">
      <!-- 2 -->
      <g transform="translate(426.429163 273.278281) scale(0.11 -0.11)">
       <use xlink:href="#DejaVuSans-32"/>
      </g>
     </g>
    </g>
    <g id="xtick_10">
     <g id="line2d_21">
      <g>
       <use xlink:href="#me3839d5a8c" x="481.125308" y="257.92" style="stroke: #000000; stroke-width: 0.8"/>
      </g>
     </g>
     <g id="text_20">
      <!-- 3 -->
      <g transform="translate(477.625933 273.278281) scale(0.11 -0.11)">
       <use xlink:href="#DejaVuSans-33"/>
      </g>
     </g>
    </g>
    <g id="xtick_11">
     <g id="line2d_22">
      <g>
       <use xlink:href="#me3839d5a8c" x="532.322077" y="257.92" style="stroke: #000000; stroke-width: 0.8"/>
      </g>
     </g>
     <g id="text_21">
      <!-- 4 -->
      <g transform="translate(528.822702 273.278281) scale(0.11 -0.11)">
       <use xlink:href="#DejaVuSans-34"/>
      </g>
     </g>
    </g>
    <g id="xtick_12">
     <g id="line2d_23">
      <g>
       <use xlink:href="#me3839d5a8c" x="583.518846" y="257.92" style="stroke: #000000; stroke-width: 0.8"/>
      </g>
     </g>
     <g id="text_22">
      <!-- 5 -->
      <g transform="translate(580.019471 273.278281) scale(0.11 -0.11)">
       <use xlink:href="#DejaVuSans-35"/>
      </g>
     </g>
    </g>
    <g id="text_23">
     <!-- z -->
     <g transform="translate(457.340859 287.924219) scale(0.11 -0.11)">
      <use xlink:href="#DejaVuSans-7a"/>
     </g>
    </g>
   </g>
   <g id="matplotlib.axis_4">
    <g id="ytick_6">
     <g id="line2d_24">
      <g>
       <use xlink:href="#m084d8e474d" x="327.535" y="257.92" style="stroke: #000000; stroke-width: 0.8"/>
      </g>
     </g>
     <g id="text_24">
      <!-- 0 -->
      <g transform="translate(313.53625 262.099141) scale(0.11 -0.11)">
       <use xlink:href="#DejaVuSans-30"/>
      </g>
     </g>
    </g>
    <g id="ytick_7">
     <g id="line2d_25">
      <g>
       <use xlink:href="#m084d8e474d" x="327.535" y="214.697762" style="stroke: #000000; stroke-width: 0.8"/>
      </g>
     </g>
     <g id="text_25">
      <!-- 1 -->
      <g transform="translate(313.53625 218.876902) scale(0.11 -0.11)">
       <use xlink:href="#DejaVuSans-31"/>
      </g>
     </g>
    </g>
    <g id="ytick_8">
     <g id="line2d_26">
      <g>
       <use xlink:href="#m084d8e474d" x="327.535" y="171.475523" style="stroke: #000000; stroke-width: 0.8"/>
      </g>
     </g>
     <g id="text_26">
      <!-- 2 -->
      <g transform="translate(313.53625 175.654664) scale(0.11 -0.11)">
       <use xlink:href="#DejaVuSans-32"/>
      </g>
     </g>
    </g>
    <g id="ytick_9">
     <g id="line2d_27">
      <g>
       <use xlink:href="#m084d8e474d" x="327.535" y="128.253285" style="stroke: #000000; stroke-width: 0.8"/>
      </g>
     </g>
     <g id="text_27">
      <!-- 3 -->
      <g transform="translate(313.53625 132.432425) scale(0.11 -0.11)">
       <use xlink:href="#DejaVuSans-33"/>
      </g>
     </g>
    </g>
    <g id="ytick_10">
     <g id="line2d_28">
      <g>
       <use xlink:href="#m084d8e474d" x="327.535" y="85.031046" style="stroke: #000000; stroke-width: 0.8"/>
      </g>
     </g>
     <g id="text_28">
      <!-- 4 -->
      <g transform="translate(313.53625 89.210187) scale(0.11 -0.11)">
       <use xlink:href="#DejaVuSans-34"/>
      </g>
     </g>
    </g>
   </g>
   <g id="line2d_29">
    <path d="M 327.586197 54.240005 
L 335.550193 54.352434 
L 343.514189 54.687237 
L 351.478185 55.245514 
L 359.442181 56.02912 
L 367.273444 57.021947 
L 375.104707 58.238489 
L 382.803236 59.65646 
L 390.501766 61.299369 
L 398.067562 63.138616 
L 405.633358 65.206984 
L 413.066422 67.469415 
L 420.366751 69.921694 
L 427.534348 72.560177 
L 434.701944 75.437312 
L 441.736807 78.504318 
L 448.638937 81.759781 
L 455.275601 85.133024 
L 461.779531 88.683826 
L 468.150728 92.412461 
L 474.389191 96.320051 
L 480.494922 100.408673 
L 486.335186 104.583462 
L 492.042716 108.933801 
L 497.617513 113.464338 
L 502.926844 118.062541 
L 508.103442 122.839378 
L 513.014573 127.668397 
L 517.79297 132.676976 
L 522.305901 137.722842 
L 526.686099 142.952353 
L 530.80083 148.204992 
L 534.782829 153.649694 
L 538.49936 159.104565 
L 542.083158 164.766358 
L 545.40149 170.427727 
L 548.454355 176.065568 
L 551.374487 181.930018 
L 554.029152 187.760106 
L 556.418351 193.523093 
L 558.674817 199.549445 
L 560.665816 205.495824 
L 562.391348 211.307344 
L 563.984148 217.451599 
L 565.31148 223.437317 
L 566.373346 229.139133 
L 567.302479 235.306014 
L 567.966146 241.060315 
L 568.497079 247.816426 
L 568.762545 254.626349 
L 568.895278 257.92 
L 592.92 257.92 
L 592.92 257.92 
" clip-path="url(#pa56f6bd320)" style="fill: none; stroke: #0072b2; stroke-width: 2; stroke-linecap: square"/>
   </g>
   <g id="line2d_30">
    <path d="M 327.586197 257.919957 
L 330.240862 257.799152 
L 332.895527 257.444415 
L 335.41746 256.887247 
L 337.939392 256.109942 
L 340.461324 255.104598 
L 342.983256 253.860719 
L 345.505188 252.364873 
L 348.02712 250.600242 
L 350.416319 248.661754 
L 352.805518 246.441793 
L 355.194717 243.914148 
L 357.583915 241.046996 
L 359.840381 237.992567 
L 362.096847 234.561106 
L 364.353312 230.704288 
L 366.477044 226.632889 
L 368.600777 222.071675 
L 370.591776 217.284445 
L 372.582775 211.92508 
L 374.573774 205.899161 
L 376.432039 199.569469 
L 378.290305 192.434741 
L 380.015838 184.954828 
L 381.74137 176.491415 
L 383.466903 166.843179 
L 385.059702 156.659867 
L 386.652501 144.973749 
L 388.112567 132.63757 
L 389.572633 118.372105 
L 390.899966 103.31709 
L 392.227298 85.759856 
L 393.554631 65.013455 
L 394.749231 42.824633 
L 395.94383 16.277377 
L 396.612586 -1 
M 488.458918 257.695703 
L 492.573649 246.466043 
L 496.422914 235.318604 
L 500.006712 224.255598 
L 503.325044 213.305772 
L 506.510642 202.036763 
L 509.563508 190.418551 
L 512.483639 178.426395 
L 515.271038 166.041351 
L 517.925703 153.251182 
L 520.580369 139.325499 
L 523.102301 124.863275 
L 525.4915 109.860661 
L 527.747965 94.326386 
L 530.004431 77.231289 
L 532.128163 59.459584 
L 534.251895 39.751653 
L 536.242894 19.182337 
L 538.002228 -1 
L 538.002228 -1 
" clip-path="url(#pa56f6bd320)" style="fill: none; stroke: #d55e00; stroke-width: 1.6; stroke-linecap: square"/>
   </g>
   <g id="line2d_31">
    <path d="M 408.022557 257.829933 
L 411.340889 253.233569 
L 414.526487 248.440681 
L 417.712086 243.23225 
L 420.764951 237.804373 
L 423.685083 232.163494 
L 426.605215 226.027717 
L 429.392614 219.648645 
L 432.047279 213.035264 
L 434.701944 205.824276 
L 437.223876 198.341774 
L 439.745808 190.152262 
L 442.135007 181.642794 
L 444.524206 172.287157 
L 446.780672 162.548746 
L 449.037137 151.785736 
L 451.16087 140.558603 
L 453.284602 128.076055 
L 455.275601 115.024036 
L 457.2666 100.415146 
L 459.124866 85.10029 
L 460.983131 67.830852 
L 462.708664 49.678669 
L 464.434196 29.04173 
L 466.026996 7.293767 
L 466.581875 -1 
M 568.895278 257.517269 
L 573.806409 237.499542 
L 578.053874 219.244535 
L 581.903139 201.699447 
L 585.354204 184.952758 
L 588.672535 167.742102 
L 591.725401 150.75526 
L 592.92 143.761842 
L 592.92 143.761842 
" clip-path="url(#pa56f6bd320)" style="fill: none; stroke-dasharray: 5.92,2.56; stroke-dashoffset: 0; stroke: #e69f00; stroke-width: 1.6"/>
   </g>
   <g id="patch_6">
    <path d="M 327.535 257.92 
L 327.535 54.24 
" style="fill: none; stroke: #000000; stroke-linejoin: miter; stroke-linecap: square"/>
   </g>
   <g id="patch_7">
    <path d="M 327.535 257.92 
L 592.92 257.92 
" style="fill: none; stroke: #000000; stroke-linejoin: miter; stroke-linecap: square"/>
   </g>
   <g id="text_29">
    <!-- $z_0=3\pi/2$: 4 bound states -->
    <g transform="translate(384.9875 48.24) scale(0.12 -0.12)">
     <use xlink:href="#DejaVuSans-Oblique-7a" transform="translate(0 0.015625)"/>
     <use xlink:href="#DejaVuSans-30" transform="translate(52.490234 -16.390625) scale(0.7)"/>
     <use xlink:href="#DejaVuSans-3d" transform="translate(119.243164 0.015625)"/>
     <use xlink:href="#DejaVuSans-33" transform="translate(222.514648 0.015625)"/>
     <use xlink:href="#DejaVuSans-Oblique-3c0" transform="translate(286.137695 0.015625)"/>
     <use xlink:href="#DejaVuSans-2f" transform="translate(346.342773 0.015625)"/>
     <use xlink:href="#DejaVuSans-32" transform="translate(376.40918 0.015625)"/>
     <use xlink:href="#DejaVuSans-3a" transform="translate(440.032227 0.015625)"/>
     <use xlink:href="#DejaVuSans-20" transform="translate(473.723633 0.015625)"/>
     <use xlink:href="#DejaVuSans-34" transform="translate(505.510742 0.015625)"/>
     <use xlink:href="#DejaVuSans-20" transform="translate(569.133789 0.015625)"/>
     <use xlink:href="#DejaVuSans-62" transform="translate(600.920898 0.015625)"/>
     <use xlink:href="#DejaVuSans-6f" transform="translate(664.397461 0.015625)"/>
     <use xlink:href="#DejaVuSans-75" transform="translate(725.579102 0.015625)"/>
     <use xlink:href="#DejaVuSans-6e" transform="translate(788.958008 0.015625)"/>
     <use xlink:href="#DejaVuSans-64" transform="translate(852.336914 0.015625)"/>
     <use xlink:href="#DejaVuSans-20" transform="translate(915.813477 0.015625)"/>
     <use xlink:href="#DejaVuSans-73" transform="translate(947.600586 0.015625)"/>
     <use xlink:href="#DejaVuSans-74" transform="translate(999.700195 0.015625)"/>
     <use xlink:href="#DejaVuSans-61" transform="translate(1038.90918 0.015625)"/>
     <use xlink:href="#DejaVuSans-74" transform="translate(1100.188477 0.015625)"/>
     <use xlink:href="#DejaVuSans-65" transform="translate(1139.397461 0.015625)"/>
     <use xlink:href="#DejaVuSans-73" transform="translate(1200.920898 0.015625)"/>
    </g>
   </g>
   <g id="legend_2">
    <g id="line2d_32">
     <path d="M 510.6 68.88 
L 518.6 68.88 
L 526.6 68.88 
" style="fill: none; stroke: #0072b2; stroke-width: 2; stroke-linecap: square"/>
    </g>
    <g id="text_30">
     <!-- $\sqrt{z_0^2-z^2}$ -->
     <g transform="translate(533 71.68) scale(0.08 -0.08)">
      <use xlink:href="#STIXSizeOneSym-Regular-221a" transform="translate(0 -3.71875) scale(0.811158)"/>
      <use xlink:href="#DejaVuSans-Oblique-7a" transform="translate(98.249115 0.515625)"/>
      <use xlink:href="#DejaVuSans-32" transform="translate(155.205495 38.796875) scale(0.7)"/>
      <use xlink:href="#DejaVuSans-30" transform="translate(150.739349 -26.828125) scale(0.7)"/>
      <use xlink:href="#DejaVuSans-2212" transform="translate(221.958425 0.515625)"/>
      <use xlink:href="#DejaVuSans-Oblique-7a" transform="translate(325.229909 0.515625)"/>
      <use xlink:href="#DejaVuSans-32" transform="translate(382.186289 38.796875) scale(0.7)"/>
      <path d="M 85.749115 115.5 
L 85.749115 121.75 
L 441.956797 121.75 
L 441.956797 115.5 
L 85.749115 115.5 
z
"/>
     </g>
    </g>
    <g id="line2d_33">
     <path d="M 510.6 81.27875 
L 518.6 81.27875 
L 526.6 81.27875 
" style="fill: none; stroke: #d55e00; stroke-width: 1.6; stroke-linecap: square"/>
    </g>
    <g id="text_31">
     <!-- $z\tan z$ (even) -->
     <g transform="translate(533 84.07875) scale(0.08 -0.08)">
      <use xlink:href="#DejaVuSans-Oblique-7a" transform="translate(0 0.125)"/>
      <use xlink:href="#DejaVuSans-74" transform="translate(52.490234 0.125)"/>
      <use xlink:href="#DejaVuSans-61" transform="translate(91.699219 0.125)"/>
      <use xlink:href="#DejaVuSans-6e" transform="translate(152.978516 0.125)"/>
      <use xlink:href="#DejaVuSans-Oblique-7a" transform="translate(232.593098 0.125)"/>
      <use xlink:href="#DejaVuSans-20" transform="translate(285.083333 0.125)"/>
      <use xlink:href="#DejaVuSans-28" transform="translate(316.870442 0.125)"/>
      <use xlink:href="#DejaVuSans-65" transform="translate(355.884114 0.125)"/>
      <use xlink:href="#DejaVuSans-76" transform="translate(417.407551 0.125)"/>
      <use xlink:href="#DejaVuSans-65" transform="translate(476.587239 0.125)"/>
      <use xlink:href="#DejaVuSans-6e" transform="translate(538.110676 0.125)"/>
      <use xlink:href="#DejaVuSans-29" transform="translate(601.489583 0.125)"/>
     </g>
    </g>
    <g id="line2d_34">
     <path d="M 510.6 93.02125 
L 518.6 93.02125 
L 526.6 93.02125 
" style="fill: none; stroke-dasharray: 5.92,2.56; stroke-dashoffset: 0; stroke: #e69f00; stroke-width: 1.6"/>
    </g>
    <g id="text_32">
     <!-- $-z\cot z$ (odd) -->
     <g transform="translate(533 95.82125) scale(0.08 -0.08)">
      <use xlink:href="#DejaVuSans-2212" transform="translate(0 0.015625)"/>
      <use xlink:href="#DejaVuSans-Oblique-7a" transform="translate(83.789062 0.015625)"/>
      <use xlink:href="#DejaVuSans-63" transform="translate(136.279297 0.015625)"/>
      <use xlink:href="#DejaVuSans-6f" transform="translate(191.259766 0.015625)"/>
      <use xlink:href="#DejaVuSans-74" transform="translate(252.441406 0.015625)"/>
      <use xlink:href="#DejaVuSans-Oblique-7a" transform="translate(307.886067 0.015625)"/>
      <use xlink:href="#DejaVuSans-20" transform="translate(360.376301 0.015625)"/>
      <use xlink:href="#DejaVuSans-28" transform="translate(392.163411 0.015625)"/>
      <use xlink:href="#DejaVuSans-6f" transform="translate(431.177083 0.015625)"/>
      <use xlink:href="#DejaVuSans-64" transform="translate(492.358723 0.015625)"/>
      <use xlink:href="#DejaVuSans-64" transform="translate(555.835286 0.015625)"/>
      <use xlink:href="#DejaVuSans-29" transform="translate(619.311848 0.015625)"/>
     </g>
    </g>
   </g>
  </g>
  <g id="text_33">
   <!-- Graphical solution for finite-well bound states -->
   <g transform="translate(165.534375 15.166125) scale(0.12 -0.12)">
    <defs>
     <path id="DejaVuSans-47" d="M 3809 666 
L 3809 1919 
L 2778 1919 
L 2778 2438 
L 4434 2438 
L 4434 434 
Q 4069 175 3628 42 
Q 3188 -91 2688 -91 
Q 1594 -91 976 548 
Q 359 1188 359 2328 
Q 359 3472 976 4111 
Q 1594 4750 2688 4750 
Q 3144 4750 3555 4637 
Q 3966 4525 4313 4306 
L 4313 3634 
Q 3963 3931 3569 4081 
Q 3175 4231 2741 4231 
Q 1884 4231 1454 3753 
Q 1025 3275 1025 2328 
Q 1025 1384 1454 906 
Q 1884 428 2741 428 
Q 3075 428 3337 486 
Q 3600 544 3809 666 
z
" transform="scale(0.015625)"/>
     <path id="DejaVuSans-72" d="M 2631 2963 
Q 2534 3019 2420 3045 
Q 2306 3072 2169 3072 
Q 1681 3072 1420 2755 
Q 1159 2438 1159 1844 
L 1159 0 
L 581 0 
L 581 3500 
L 1159 3500 
L 1159 2956 
Q 1341 3275 1631 3429 
Q 1922 3584 2338 3584 
Q 2397 3584 2469 3576 
Q 2541 3569 2628 3553 
L 2631 2963 
z
" transform="scale(0.015625)"/>
     <path id="DejaVuSans-70" d="M 1159 525 
L 1159 -1331 
L 581 -1331 
L 581 3500 
L 1159 3500 
L 1159 2969 
Q 1341 3281 1617 3432 
Q 1894 3584 2278 3584 
Q 2916 3584 3314 3078 
Q 3713 2572 3713 1747 
Q 3713 922 3314 415 
Q 2916 -91 2278 -91 
Q 1894 -91 1617 61 
Q 1341 213 1159 525 
z
M 3116 1747 
Q 3116 2381 2855 2742 
Q 2594 3103 2138 3103 
Q 1681 3103 1420 2742 
Q 1159 2381 1159 1747 
Q 1159 1113 1420 752 
Q 1681 391 2138 391 
Q 2594 391 2855 752 
Q 3116 1113 3116 1747 
z
" transform="scale(0.015625)"/>
     <path id="DejaVuSans-68" d="M 3513 2113 
L 3513 0 
L 2938 0 
L 2938 2094 
Q 2938 2591 2744 2837 
Q 2550 3084 2163 3084 
Q 1697 3084 1428 2787 
Q 1159 2491 1159 1978 
L 1159 0 
L 581 0 
L 581 4863 
L 1159 4863 
L 1159 2956 
Q 1366 3272 1645 3428 
Q 1925 3584 2291 3584 
Q 2894 3584 3203 3211 
Q 3513 2838 3513 2113 
z
" transform="scale(0.015625)"/>
     <path id="DejaVuSans-69" d="M 603 3500 
L 1178 3500 
L 1178 0 
L 603 0 
L 603 3500 
z
M 603 4863 
L 1178 4863 
L 1178 4134 
L 603 4134 
L 603 4863 
z
" transform="scale(0.015625)"/>
     <path id="DejaVuSans-6c" d="M 603 4863 
L 1178 4863 
L 1178 0 
L 603 0 
L 603 4863 
z
" transform="scale(0.015625)"/>
     <path id="DejaVuSans-66" d="M 2375 4863 
L 2375 4384 
L 1825 4384 
Q 1516 4384 1395 4259 
Q 1275 4134 1275 3809 
L 1275 3500 
L 2222 3500 
L 2222 3053 
L 1275 3053 
L 1275 0 
L 697 0 
L 697 3053 
L 147 3053 
L 147 3500 
L 697 3500 
L 697 3744 
Q 697 4328 969 4595 
Q 1241 4863 1831 4863 
L 2375 4863 
z
" transform="scale(0.015625)"/>
     <path id="DejaVuSans-2d" d="M 313 2009 
L 1997 2009 
L 1997 1497 
L 313 1497 
L 313 2009 
z
" transform="scale(0.015625)"/>
     <path id="DejaVuSans-77" d="M 269 3500 
L 844 3500 
L 1563 769 
L 2278 3500 
L 2956 3500 
L 3675 769 
L 4391 3500 
L 4966 3500 
L 4050 0 
L 3372 0 
L 2619 2869 
L 1863 0 
L 1184 0 
L 269 3500 
z
" transform="scale(0.015625)"/>
    </defs>
    <use xlink:href="#DejaVuSans-47"/>
    <use xlink:href="#DejaVuSans-72" transform="translate(77.490234 0)"/>
    <use xlink:href="#DejaVuSans-61" transform="translate(118.603516 0)"/>
    <use xlink:href="#DejaVuSans-70" transform="translate(179.882812 0)"/>
    <use xlink:href="#DejaVuSans-68" transform="translate(243.359375 0)"/>
    <use xlink:href="#DejaVuSans-69" transform="translate(306.738281 0)"/>
    <use xlink:href="#DejaVuSans-63" transform="translate(334.521484 0)"/>
    <use xlink:href="#DejaVuSans-61" transform="translate(389.501953 0)"/>
    <use xlink:href="#DejaVuSans-6c" transform="translate(450.78125 0)"/>
    <use xlink:href="#DejaVuSans-20" transform="translate(478.564453 0)"/>
    <use xlink:href="#DejaVuSans-73" transform="translate(510.351562 0)"/>
    <use xlink:href="#DejaVuSans-6f" transform="translate(562.451172 0)"/>
    <use xlink:href="#DejaVuSans-6c" transform="translate(623.632812 0)"/>
    <use xlink:href="#DejaVuSans-75" transform="translate(651.416016 0)"/>
    <use xlink:href="#DejaVuSans-74" transform="translate(714.794922 0)"/>
    <use xlink:href="#DejaVuSans-69" transform="translate(754.003906 0)"/>
    <use xlink:href="#DejaVuSans-6f" transform="translate(781.787109 0)"/>
    <use xlink:href="#DejaVuSans-6e" transform="translate(842.96875 0)"/>
    <use xlink:href="#DejaVuSans-20" transform="translate(906.347656 0)"/>
    <use xlink:href="#DejaVuSans-66" transform="translate(938.134766 0)"/>
    <use xlink:href="#DejaVuSans-6f" transform="translate(973.339844 0)"/>
    <use xlink:href="#DejaVuSans-72" transform="translate(1034.521484 0)"/>
    <use xlink:href="#DejaVuSans-20" transform="translate(1075.634766 0)"/>
    <use xlink:href="#DejaVuSans-66" transform="translate(1107.421875 0)"/>
    <use xlink:href="#DejaVuSans-69" transform="translate(1142.626953 0)"/>
    <use xlink:href="#DejaVuSans-6e" transform="translate(1170.410156 0)"/>
    <use xlink:href="#DejaVuSans-69" transform="translate(1233.789062 0)"/>
    <use xlink:href="#DejaVuSans-74" transform="translate(1261.572266 0)"/>
    <use xlink:href="#DejaVuSans-65" transform="translate(1300.78125 0)"/>
    <use xlink:href="#DejaVuSans-2d" transform="translate(1362.304688 0)"/>
    <use xlink:href="#DejaVuSans-77" transform="translate(1398.388672 0)"/>
    <use xlink:href="#DejaVuSans-65" transform="translate(1480.175781 0)"/>
    <use xlink:href="#DejaVuSans-6c" transform="translate(1541.699219 0)"/>
    <use xlink:href="#DejaVuSans-6c" transform="translate(1569.482422 0)"/>
    <use xlink:href="#DejaVuSans-20" transform="translate(1597.265625 0)"/>
    <use xlink:href="#DejaVuSans-62" transform="translate(1629.052734 0)"/>
    <use xlink:href="#DejaVuSans-6f" transform="translate(1692.529297 0)"/>
    <use xlink:href="#DejaVuSans-75" transform="translate(1753.710938 0)"/>
    <use xlink:href="#DejaVuSans-6e" transform="translate(1817.089844 0)"/>
    <use xlink:href="#DejaVuSans-64" transform="translate(1880.46875 0)"/>
    <use xlink:href="#DejaVuSans-20" transform="translate(1943.945312 0)"/>
    <use xlink:href="#DejaVuSans-73" transform="translate(1975.732422 0)"/>
    <use xlink:href="#DejaVuSans-74" transform="translate(2027.832031 0)"/>
    <use xlink:href="#DejaVuSans-61" transform="translate(2067.041016 0)"/>
    <use xlink:href="#DejaVuSans-74" transform="translate(2128.320312 0)"/>
    <use xlink:href="#DejaVuSans-65" transform="translate(2167.529297 0)"/>
    <use xlink:href="#DejaVuSans-73" transform="translate(2229.052734 0)"/>
   </g>
  </g>
 </g>
 <defs>
  <clipPath id="pf92a55e6db">
   <rect x="36.25" y="54.24" width="265.385" height="203.68"/>
  </clipPath>
  <clipPath id="pa56f6bd320">
   <rect x="327.535" y="54.24" width="265.385" height="203.68"/>
  </clipPath>
 </defs>
</svg>
