<?xml version="1.0" encoding="UTF-8"?>
<!-- 
  CAJAL Figure: 07-the-harmonic-oscillator-fig-01.svg
  Book: Quantum Mechanics (quantum-mechanics-vol1)
  Chapter: 07-the-harmonic-oscillator
  Figure: 01 — Equally Spaced Energy Spectrum on the Parabolic Potential
  Generated: 2026-06-06
  Source: pantry/07-the-harmonic-oscillator-cajal.md
-->
<svg viewBox="0 0 700 420" xmlns="http://www.w3.org/2000/svg"
     xmlns:cajal="https://bearbrown.ai/cajal/1.0"
     role="img" aria-labelledby="fig-title-07-01">
  <title id="fig-title-07-01">Equally spaced energy spectrum of the quantum harmonic oscillator</title>
  <desc>Six energy levels n=0 through n=5 at uniformly spaced heights E_n=(n+1/2)ℏω drawn as horizontal segments inside the parabolic potential V(x)=½mω²x², with brackets marking the uniform spacing ΔE=ℏω and the zero-point energy E₀=ℏω/2 above the classical minimum.</desc>
  <metadata>
    <cajal:figure book="Quantum Mechanics" book-slug="quantum-mechanics-vol1"
      chapter="07-the-harmonic-oscillator" figure-number="01"
      figure-title="Equally Spaced Energy Spectrum on the Parabolic Potential"
      figure-slug="harmonic-oscillator-energy-spectrum" figure-type="diagram"
      priority="Critical" author="Humanitarians AI Incorporated"
      date-generated="2026-06-06"
      source-file="pantry/07-the-harmonic-oscillator-cajal.md"/>
  </metadata>
  <defs>
    <marker id="arrow-07-01" markerWidth="8" markerHeight="6" refX="7" refY="3" orient="auto">
      <polygon points="0 0, 8 3, 0 6" fill="#2a1a0e"/>
    </marker>
  </defs>

  <!-- Background -->
  <rect width="700" height="420" fill="#FFFFFF"/>

  <!-- Plot area -->
  <rect x="70" y="50" width="560" height="330" fill="#F5F5F5" stroke="#D4D4D4" stroke-width="0.75"/>

  <!-- Parabola fill (light interior) -->
  <polyline points="76.7,53.7 78.5,58.0 80.3,62.4 82.2,66.7 84.0,70.9 85.8,75.2 87.6,79.4 89.5,83.5 91.3,87.7 93.1,91.8 94.9,95.9 96.8,99.9 98.6,104.0 100.4,108.0 102.3,111.9 104.1,115.9 105.9,119.8 107.7,123.7 109.6,127.5 111.4,131.4 113.2,135.2 115.1,138.9 116.9,142.7 118.7,146.4 120.5,150.0 122.4,153.7 124.2,157.3 126.0,160.9 127.9,164.5 129.7,168.0 131.5,171.5 133.3,175.0 135.2,178.4 137.0,181.8 138.8,185.2 140.7,188.6 142.5,191.9 144.3,195.2 146.1,198.5 148.0,201.7 149.8,204.9 151.6,208.1 153.5,211.3 155.3,214.4 157.1,217.5 158.9,220.6 160.8,223.6 162.6,226.6 164.4,229.6 166.3,232.5 168.1,235.5 169.9,238.3 171.7,241.2 173.6,244.0 175.4,246.8 177.2,249.6 179.1,252.4 180.9,255.1 182.7,257.8 184.5,260.4 186.4,263.1 188.2,265.6 190.0,268.2 191.9,270.8 193.7,273.3 195.5,275.8 197.3,278.2 199.2,280.6 201.0,283.0 202.8,285.4 204.6,287.7 206.5,290.0 208.3,292.3 210.1,294.6 212.0,296.8 213.8,299.0 215.6,301.1 217.4,303.3 219.3,305.4 221.1,307.4 222.9,309.5 224.8,311.5 226.6,313.5 228.4,315.4 230.2,317.4 232.1,319.3 233.9,321.1 235.7,323.0 237.6,324.8 239.4,326.6 241.2,328.3 243.0,330.0 244.9,331.7 246.7,333.4 248.5,335.0 250.4,336.6 252.2,338.2 254.0,339.8 255.8,341.3 257.7,342.8 259.5,344.2 261.3,345.7 263.2,347.1 265.0,348.4 266.8,349.8 268.6,351.1 270.5,352.4 272.3,353.6 274.1,354.9 276.0,356.1 277.8,357.2 279.6,358.4 281.4,359.5 283.3,360.5 285.1,361.6 286.9,362.6 288.8,363.6 290.6,364.6 292.4,365.5 294.2,366.4 296.1,367.3 297.9,368.1 299.7,369.0 301.5,369.7 303.4,370.5 305.2,371.2 307.0,371.9 308.9,372.6 310.7,373.3 312.5,373.9 314.3,374.4 316.2,375.0 318.0,375.5 319.8,376.0 321.7,376.5 323.5,376.9 325.3,377.3 327.1,377.7 329.0,378.1 330.8,378.4 332.6,378.7 334.5,378.9 336.3,379.2 338.1,379.4 339.9,379.6 341.8,379.7 343.6,379.8 345.4,379.9 347.3,380.0 349.1,380.0 350.9,380.0 352.7,380.0 354.6,379.9 356.4,379.8 358.2,379.7 360.1,379.6 361.9,379.4 363.7,379.2 365.5,378.9 367.4,378.7 369.2,378.4 371.0,378.1 372.9,377.7 374.7,377.3 376.5,376.9 378.3,376.5 380.2,376.0 382.0,375.5 383.8,375.0 385.7,374.4 387.5,373.9 389.3,373.3 391.1,372.6 393.0,371.9 394.8,371.2 396.6,370.5 398.5,369.7 400.3,369.0 402.1,368.1 403.9,367.3 405.8,366.4 407.6,365.5 409.4,364.6 411.2,363.6 413.1,362.6 414.9,361.6 416.7,360.5 418.6,359.5 420.4,358.4 422.2,357.2 424.0,356.1 425.9,354.9 427.7,353.6 429.5,352.4 431.4,351.1 433.2,349.8 435.0,348.4 436.8,347.1 438.7,345.7 440.5,344.2 442.3,342.8 444.2,341.3 446.0,339.8 447.8,338.2 449.6,336.6 451.5,335.0 453.3,333.4 455.1,331.7 457.0,330.0 458.8,328.3 460.6,326.6 462.4,324.8 464.3,323.0 466.1,321.1 467.9,319.3 469.8,317.4 471.6,315.4 473.4,313.5 475.2,311.5 477.1,309.5 478.9,307.4 480.7,305.4 482.6,303.3 484.4,301.1 486.2,299.0 488.0,296.8 489.9,294.6 491.7,292.3 493.5,290.0 495.4,287.7 497.2,285.4 499.0,283.0 500.8,280.6 502.7,278.2 504.5,275.8 506.3,273.3 508.1,270.8 510.0,268.2 511.8,265.6 513.6,263.1 515.5,260.4 517.3,257.8 519.1,255.1 520.9,252.4 522.8,249.6 524.6,246.8 526.4,244.0 528.3,241.2 530.1,238.3 531.9,235.5 533.7,232.5 535.6,229.6 537.4,226.6 539.2,223.6 541.1,220.6 542.9,217.5 544.7,214.4 546.5,211.3 548.4,208.1 550.2,204.9 552.0,201.7 553.9,198.5 555.7,195.2 557.5,191.9 559.3,188.6 561.2,185.2 563.0,181.8 564.8,178.4 566.7,175.0 568.5,171.5 570.3,168.0 572.1,164.5 574.0,160.9 575.8,157.3 577.6,153.7 579.5,150.0 581.3,146.4 583.1,142.7 584.9,138.9 586.8,135.2 588.6,131.4 590.4,127.5 592.3,123.7 594.1,119.8 595.9,115.9 597.7,111.9 599.6,108.0 601.4,104.0 603.2,99.9 605.1,95.9 606.9,91.8 608.7,87.7 610.5,83.5 612.4,79.4 614.2,75.2 616.0,70.9 617.8,66.7 619.7,62.4 621.5,58.0 623.3,53.7 623.3,380 76.7,380" fill="#AAAAAA" fill-opacity="0.08" stroke="none"/>

  <!-- Parabola curve -->
  <polyline points="76.7,53.7 78.5,58.0 80.3,62.4 82.2,66.7 84.0,70.9 85.8,75.2 87.6,79.4 89.5,83.5 91.3,87.7 93.1,91.8 94.9,95.9 96.8,99.9 98.6,104.0 100.4,108.0 102.3,111.9 104.1,115.9 105.9,119.8 107.7,123.7 109.6,127.5 111.4,131.4 113.2,135.2 115.1,138.9 116.9,142.7 118.7,146.4 120.5,150.0 122.4,153.7 124.2,157.3 126.0,160.9 127.9,164.5 129.7,168.0 131.5,171.5 133.3,175.0 135.2,178.4 137.0,181.8 138.8,185.2 140.7,188.6 142.5,191.9 144.3,195.2 146.1,198.5 148.0,201.7 149.8,204.9 151.6,208.1 153.5,211.3 155.3,214.4 157.1,217.5 158.9,220.6 160.8,223.6 162.6,226.6 164.4,229.6 166.3,232.5 168.1,235.5 169.9,238.3 171.7,241.2 173.6,244.0 175.4,246.8 177.2,249.6 179.1,252.4 180.9,255.1 182.7,257.8 184.5,260.4 186.4,263.1 188.2,265.6 190.0,268.2 191.9,270.8 193.7,273.3 195.5,275.8 197.3,278.2 199.2,280.6 201.0,283.0 202.8,285.4 204.6,287.7 206.5,290.0 208.3,292.3 210.1,294.6 212.0,296.8 213.8,299.0 215.6,301.1 217.4,303.3 219.3,305.4 221.1,307.4 222.9,309.5 224.8,311.5 226.6,313.5 228.4,315.4 230.2,317.4 232.1,319.3 233.9,321.1 235.7,323.0 237.6,324.8 239.4,326.6 241.2,328.3 243.0,330.0 244.9,331.7 246.7,333.4 248.5,335.0 250.4,336.6 252.2,338.2 254.0,339.8 255.8,341.3 257.7,342.8 259.5,344.2 261.3,345.7 263.2,347.1 265.0,348.4 266.8,349.8 268.6,351.1 270.5,352.4 272.3,353.6 274.1,354.9 276.0,356.1 277.8,357.2 279.6,358.4 281.4,359.5 283.3,360.5 285.1,361.6 286.9,362.6 288.8,363.6 290.6,364.6 292.4,365.5 294.2,366.4 296.1,367.3 297.9,368.1 299.7,369.0 301.5,369.7 303.4,370.5 305.2,371.2 307.0,371.9 308.9,372.6 310.7,373.3 312.5,373.9 314.3,374.4 316.2,375.0 318.0,375.5 319.8,376.0 321.7,376.5 323.5,376.9 325.3,377.3 327.1,377.7 329.0,378.1 330.8,378.4 332.6,378.7 334.5,378.9 336.3,379.2 338.1,379.4 339.9,379.6 341.8,379.7 343.6,379.8 345.4,379.9 347.3,380.0 349.1,380.0 350.9,380.0 352.7,380.0 354.6,379.9 356.4,379.8 358.2,379.7 360.1,379.6 361.9,379.4 363.7,379.2 365.5,378.9 367.4,378.7 369.2,378.4 371.0,378.1 372.9,377.7 374.7,377.3 376.5,376.9 378.3,376.5 380.2,376.0 382.0,375.5 383.8,375.0 385.7,374.4 387.5,373.9 389.3,373.3 391.1,372.6 393.0,371.9 394.8,371.2 396.6,370.5 398.5,369.7 400.3,369.0 402.1,368.1 403.9,367.3 405.8,366.4 407.6,365.5 409.4,364.6 411.2,363.6 413.1,362.6 414.9,361.6 416.7,360.5 418.6,359.5 420.4,358.4 422.2,357.2 424.0,356.1 425.9,354.9 427.7,353.6 429.5,352.4 431.4,351.1 433.2,349.8 435.0,348.4 436.8,347.1 438.7,345.7 440.5,344.2 442.3,342.8 444.2,341.3 446.0,339.8 447.8,338.2 449.6,336.6 451.5,335.0 453.3,333.4 455.1,331.7 457.0,330.0 458.8,328.3 460.6,326.6 462.4,324.8 464.3,323.0 466.1,321.1 467.9,319.3 469.8,317.4 471.6,315.4 473.4,313.5 475.2,311.5 477.1,309.5 478.9,307.4 480.7,305.4 482.6,303.3 484.4,301.1 486.2,299.0 488.0,296.8 489.9,294.6 491.7,292.3 493.5,290.0 495.4,287.7 497.2,285.4 499.0,283.0 500.8,280.6 502.7,278.2 504.5,275.8 506.3,273.3 508.1,270.8 510.0,268.2 511.8,265.6 513.6,263.1 515.5,260.4 517.3,257.8 519.1,255.1 520.9,252.4 522.8,249.6 524.6,246.8 526.4,244.0 528.3,241.2 530.1,238.3 531.9,235.5 533.7,232.5 535.6,229.6 537.4,226.6 539.2,223.6 541.1,220.6 542.9,217.5 544.7,214.4 546.5,211.3 548.4,208.1 550.2,204.9 552.0,201.7 553.9,198.5 555.7,195.2 557.5,191.9 559.3,188.6 561.2,185.2 563.0,181.8 564.8,178.4 566.7,175.0 568.5,171.5 570.3,168.0 572.1,164.5 574.0,160.9 575.8,157.3 577.6,153.7 579.5,150.0 581.3,146.4 583.1,142.7 584.9,138.9 586.8,135.2 588.6,131.4 590.4,127.5 592.3,123.7 594.1,119.8 595.9,115.9 597.7,111.9 599.6,108.0 601.4,104.0 603.2,99.9 605.1,95.9 606.9,91.8 608.7,87.7 610.5,83.5 612.4,79.4 614.2,75.2 616.0,70.9 617.8,66.7 619.7,62.4 621.5,58.0 623.3,53.7" fill="none" stroke="#AAAAAA" stroke-width="1.25"/>

  <!-- Energy level lines (n=0..5) -->
  <!-- n=0 (E=½ℏω) -->
  <line x1="283.3" y1="360.6" x2="416.7" y2="360.6" stroke="#0072B2" stroke-width="1.75"/>
  <!-- n=1 (E=3/2ℏω) -->
  <line x1="234.5" y1="321.8" x2="465.5" y2="321.8" stroke="#0072B2" stroke-width="1.75"/>
  <!-- n=2 (E=5/2ℏω) -->
  <line x1="200.9" y1="282.9" x2="499.1" y2="282.9" stroke="#0072B2" stroke-width="1.75"/>
  <!-- n=3 (E=7/2ℏω) -->
  <line x1="173.6" y1="244.1" x2="526.4" y2="244.1" stroke="#0072B2" stroke-width="1.75"/>
  <!-- n=4 (E=9/2ℏω) -->
  <line x1="150.0" y1="205.3" x2="550.0" y2="205.3" stroke="#0072B2" stroke-width="1.75"/>
  <!-- n=5 (E=11/2ℏω) -->
  <line x1="128.9" y1="166.5" x2="571.1" y2="166.5" stroke="#0072B2" stroke-width="1.75"/>

  <!-- ΔE bracket (between n=1 and n=2, right side) -->
  <line x1="655" y1="282.9" x2="655" y2="321.8" stroke="#E69F00" stroke-width="1.25"/>
  <line x1="650" y1="282.9" x2="660" y2="282.9" stroke="#E69F00" stroke-width="1.25"/>
  <line x1="650" y1="321.8" x2="660" y2="321.8" stroke="#E69F00" stroke-width="1.25"/>
  <text x="665" y="306.4" font-family="Lato, sans-serif" font-size="11" fill="#E69F00">ΔE = ℏω</text>

  <!-- E₀ bracket (between V=0 and n=0) -->
  <line x1="655" y1="360.6" x2="655" y2="380.0" stroke="#009E73" stroke-width="1.25"/>
  <line x1="650" y1="360.6" x2="660" y2="360.6" stroke="#009E73" stroke-width="1.25"/>
  <line x1="650" y1="380.0" x2="660" y2="380.0" stroke="#009E73" stroke-width="1.25"/>
  <text x="665" y="374.3" font-family="Lato, sans-serif" font-size="11" fill="#009E73">E<tspan dy="0.3em" font-size="0.75em">0</tspan><tspan dy="-0.3em"></tspan> = ℏω/2</text>

  <!-- n labels on left -->
  <text x="265.3" y="364.6" font-family="'JetBrains Mono','Courier New',monospace" font-size="11" fill="#545454" text-anchor="end">n=0</text>
  <text x="216.5" y="325.8" font-family="'JetBrains Mono','Courier New',monospace" font-size="11" fill="#545454" text-anchor="end">n=1</text>
  <text x="182.9" y="286.9" font-family="'JetBrains Mono','Courier New',monospace" font-size="11" fill="#545454" text-anchor="end">n=2</text>
  <text x="155.6" y="248.1" font-family="'JetBrains Mono','Courier New',monospace" font-size="11" fill="#545454" text-anchor="end">n=3</text>
  <text x="132.0" y="209.3" font-family="'JetBrains Mono','Courier New',monospace" font-size="11" fill="#545454" text-anchor="end">n=4</text>
  <text x="110.9" y="170.5" font-family="'JetBrains Mono','Courier New',monospace" font-size="11" fill="#545454" text-anchor="end">n=5</text>

  <!-- Vertical energy axis -->
  <line x1="350.0" y1="380" x2="350.0" y2="50" stroke="#D4D4D4" stroke-width="0.75" stroke-dasharray="3 3"/>

  <!-- Position axis label -->
  <text x="350.0" y="410" font-family="Lato, sans-serif" font-size="12" fill="#545454" text-anchor="middle">Position x</text>

  <!-- Energy axis label -->
  <text x="20" y="215.0" font-family="Lato, sans-serif" font-size="12" fill="#545454" text-anchor="middle" transform="rotate(-90,20,215.0)">Energy E</text>

  <!-- Figure title -->
  <text x="350" y="26" font-family="'EB Garamond','Garamond',Georgia,serif" font-size="14" fill="#2a1a0e" text-anchor="middle">Equally spaced energy spectrum: quantum harmonic oscillator</text>

</svg>