<?xml version="1.0" encoding="UTF-8"?>
<!-- 
  CAJAL Figure: 07-the-harmonic-oscillator-fig-02.svg
  Book: Quantum Mechanics (quantum-mechanics-vol1)
  Chapter: 07-the-harmonic-oscillator
  Figure: 02 — Hermite-Gauss Eigenfunctions as Stacked Comparison Panels
  Generated: 2026-06-06
  Source: pantry/07-the-harmonic-oscillator-cajal.md
-->
<svg viewBox="0 0 700 420" xmlns="http://www.w3.org/2000/svg"
     xmlns:cajal="https://bearbrown.ai/cajal/1.0"
     role="img" aria-labelledby="fig-title-07-02">
  <title id="fig-title-07-02">Hermite-Gauss eigenfunctions ψ₀ through ψ₃ of the quantum harmonic oscillator</title>
  <desc>Four stacked panels showing the signed wave functions ψ₀ (Gaussian, 0 nodes), ψ₁ (1 node), ψ₂ (2 nodes), ψ₃ (3 nodes), each with classical turning-point markers showing the widening spread with increasing quantum number n.</desc>
  <metadata>
    <cajal:figure book="Quantum Mechanics" book-slug="quantum-mechanics-vol1"
      chapter="07-the-harmonic-oscillator" figure-number="02"
      figure-title="Hermite-Gauss Eigenfunctions as Stacked Comparison Panels"
      figure-slug="harmonic-oscillator-eigenfunctions" figure-type="comparison-panels"
      priority="Critical" author="Humanitarians AI Incorporated"
      date-generated="2026-06-06"
      source-file="pantry/07-the-harmonic-oscillator-cajal.md"/>
  </metadata>
  <defs>
    <marker id="arrow-07-02" markerWidth="8" markerHeight="6" refX="7" refY="3" orient="auto">
      <polygon points="0 0, 8 3, 0 6" fill="#2a1a0e"/>
    </marker>
  </defs>
  <!-- Background -->
  <rect width="700" height="420" fill="#FFFFFF"/>

  <!-- Panel n=0 -->
  <rect x="60" y="25" width="580" height="82" fill="#F5F5F5" stroke="#D4D4D4" stroke-width="0.5"/>
  <!-- Zero line -->
  <line x1="60" y1="66.0" x2="640" y2="66.0" stroke="#CCCCCC" stroke-width="0.5"/>
  <!-- Wave function -->
  <polyline points="60.0,66.0 61.7,66.0 63.3,66.0 65.0,66.0 66.6,66.0 68.3,66.0 70.0,66.0 71.6,66.0 73.3,66.0 75.0,66.0 76.6,66.0 78.3,66.0 79.9,66.0 81.6,66.0 83.3,66.0 84.9,66.0 86.6,66.0 88.3,66.0 89.9,66.0 91.6,66.0 93.2,66.0 94.9,66.0 96.6,66.0 98.2,66.0 99.9,66.0 101.5,66.0 103.2,66.0 104.9,66.0 106.5,66.0 108.2,65.9 109.9,65.9 111.5,65.9 113.2,65.9 114.8,65.9 116.5,65.9 118.2,65.9 119.8,65.9 121.5,65.9 123.2,65.9 124.8,65.9 126.5,65.9 128.1,65.9 129.8,65.8 131.5,65.8 133.1,65.8 134.8,65.8 136.4,65.8 138.1,65.8 139.8,65.8 141.4,65.7 143.1,65.7 144.8,65.7 146.4,65.7 148.1,65.6 149.7,65.6 151.4,65.6 153.1,65.5 154.7,65.5 156.4,65.5 158.1,65.4 159.7,65.4 161.4,65.4 163.0,65.3 164.7,65.3 166.4,65.2 168.0,65.2 169.7,65.1 171.3,65.0 173.0,65.0 174.7,64.9 176.3,64.8 178.0,64.8 179.7,64.7 181.3,64.6 183.0,64.5 184.6,64.4 186.3,64.3 188.0,64.2 189.6,64.1 191.3,64.0 193.0,63.9 194.6,63.7 196.3,63.6 197.9,63.5 199.6,63.3 201.3,63.2 202.9,63.0 204.6,62.9 206.2,62.7 207.9,62.5 209.6,62.3 211.2,62.1 212.9,61.9 214.6,61.7 216.2,61.5 217.9,61.3 219.5,61.1 221.2,60.8 222.9,60.6 224.5,60.3 226.2,60.1 227.9,59.8 229.5,59.5 231.2,59.2 232.8,58.9 234.5,58.6 236.2,58.3 237.8,58.0 239.5,57.6 241.1,57.3 242.8,57.0 244.5,56.6 246.1,56.2 247.8,55.8 249.5,55.5 251.1,55.1 252.8,54.7 254.4,54.3 256.1,53.9 257.8,53.4 259.4,53.0 261.1,52.6 262.8,52.1 264.4,51.7 266.1,51.2 267.7,50.8 269.4,50.3 271.1,49.9 272.7,49.4 274.4,48.9 276.0,48.5 277.7,48.0 279.4,47.5 281.0,47.0 282.7,46.6 284.4,46.1 286.0,45.6 287.7,45.1 289.3,44.6 291.0,44.2 292.7,43.7 294.3,43.2 296.0,42.8 297.7,42.3 299.3,41.9 301.0,41.4 302.6,41.0 304.3,40.6 306.0,40.1 307.6,39.7 309.3,39.3 310.9,38.9 312.6,38.6 314.3,38.2 315.9,37.8 317.6,37.5 319.3,37.2 320.9,36.8 322.6,36.5 324.2,36.2 325.9,36.0 327.6,35.7 329.2,35.5 330.9,35.3 332.6,35.1 334.2,34.9 335.9,34.7 337.5,34.5 339.2,34.4 340.9,34.3 342.5,34.2 344.2,34.1 345.8,34.1 347.5,34.0 349.2,34.0 350.8,34.0 352.5,34.0 354.2,34.1 355.8,34.1 357.5,34.2 359.1,34.3 360.8,34.4 362.5,34.5 364.1,34.7 365.8,34.9 367.4,35.1 369.1,35.3 370.8,35.5 372.4,35.7 374.1,36.0 375.8,36.2 377.4,36.5 379.1,36.8 380.7,37.2 382.4,37.5 384.1,37.8 385.7,38.2 387.4,38.6 389.1,38.9 390.7,39.3 392.4,39.7 394.0,40.1 395.7,40.6 397.4,41.0 399.0,41.4 400.7,41.9 402.3,42.3 404.0,42.8 405.7,43.2 407.3,43.7 409.0,44.2 410.7,44.6 412.3,45.1 414.0,45.6 415.6,46.1 417.3,46.6 419.0,47.0 420.6,47.5 422.3,48.0 424.0,48.5 425.6,48.9 427.3,49.4 428.9,49.9 430.6,50.3 432.3,50.8 433.9,51.2 435.6,51.7 437.2,52.1 438.9,52.6 440.6,53.0 442.2,53.4 443.9,53.9 445.6,54.3 447.2,54.7 448.9,55.1 450.5,55.5 452.2,55.8 453.9,56.2 455.5,56.6 457.2,57.0 458.9,57.3 460.5,57.6 462.2,58.0 463.8,58.3 465.5,58.6 467.2,58.9 468.8,59.2 470.5,59.5 472.1,59.8 473.8,60.1 475.5,60.3 477.1,60.6 478.8,60.8 480.5,61.1 482.1,61.3 483.8,61.5 485.4,61.7 487.1,61.9 488.8,62.1 490.4,62.3 492.1,62.5 493.8,62.7 495.4,62.9 497.1,63.0 498.7,63.2 500.4,63.3 502.1,63.5 503.7,63.6 505.4,63.7 507.0,63.9 508.7,64.0 510.4,64.1 512.0,64.2 513.7,64.3 515.4,64.4 517.0,64.5 518.7,64.6 520.3,64.7 522.0,64.8 523.7,64.8 525.3,64.9 527.0,65.0 528.7,65.0 530.3,65.1 532.0,65.2 533.6,65.2 535.3,65.3 537.0,65.3 538.6,65.4 540.3,65.4 541.9,65.4 543.6,65.5 545.3,65.5 546.9,65.5 548.6,65.6 550.3,65.6 551.9,65.6 553.6,65.7 555.2,65.7 556.9,65.7 558.6,65.7 560.2,65.8 561.9,65.8 563.6,65.8 565.2,65.8 566.9,65.8 568.5,65.8 570.2,65.8 571.9,65.9 573.5,65.9 575.2,65.9 576.8,65.9 578.5,65.9 580.2,65.9 581.8,65.9 583.5,65.9 585.2,65.9 586.8,65.9 588.5,65.9 590.1,65.9 591.8,65.9 593.5,66.0 595.1,66.0 596.8,66.0 598.5,66.0 600.1,66.0 601.8,66.0 603.4,66.0 605.1,66.0 606.8,66.0 608.4,66.0 610.1,66.0 611.7,66.0 613.4,66.0 615.1,66.0 616.7,66.0 618.4,66.0 620.1,66.0 621.7,66.0 623.4,66.0 625.0,66.0 626.7,66.0 628.4,66.0 630.0,66.0 631.7,66.0 633.4,66.0 635.0,66.0 636.7,66.0 638.3,66.0 640.0,66.0" fill="none" stroke="#009E73" stroke-width="1.5"/>
  <!-- Classical turning point ticks -->
  <line x1="282.6" y1="58.0" x2="282.6" y2="74.0" stroke="#D55E00" stroke-width="1.25"/>
  <line x1="417.4" y1="58.0" x2="417.4" y2="74.0" stroke="#D55E00" stroke-width="1.25"/>
  <!-- n label -->
  <text x="52" y="70.0" font-family="'JetBrains Mono','Courier New',monospace" font-size="11" fill="#545454" text-anchor="end">ψ0</text>
  <!-- Panel n=1 -->
  <rect x="60" y="121" width="580" height="82" fill="#F5F5F5" stroke="#D4D4D4" stroke-width="0.5"/>
  <!-- Zero line -->
  <line x1="60" y1="162.0" x2="640" y2="162.0" stroke="#CCCCCC" stroke-width="0.5"/>
  <!-- Wave function -->
  <polyline points="60.0,162.0 61.7,162.0 63.3,162.0 65.0,162.0 66.6,162.0 68.3,162.0 70.0,162.0 71.6,162.0 73.3,162.0 75.0,162.1 76.6,162.1 78.3,162.1 79.9,162.1 81.6,162.1 83.3,162.1 84.9,162.1 86.6,162.1 88.3,162.1 89.9,162.1 91.6,162.1 93.2,162.1 94.9,162.2 96.6,162.2 98.2,162.2 99.9,162.2 101.5,162.2 103.2,162.2 104.9,162.3 106.5,162.3 108.2,162.3 109.9,162.3 111.5,162.4 113.2,162.4 114.8,162.4 116.5,162.5 118.2,162.5 119.8,162.5 121.5,162.6 123.2,162.6 124.8,162.7 126.5,162.7 128.1,162.8 129.8,162.8 131.5,162.9 133.1,163.0 134.8,163.0 136.4,163.1 138.1,163.2 139.8,163.3 141.4,163.4 143.1,163.5 144.8,163.6 146.4,163.7 148.1,163.8 149.7,163.9 151.4,164.0 153.1,164.2 154.7,164.3 156.4,164.5 158.1,164.6 159.7,164.8 161.4,165.0 163.0,165.1 164.7,165.3 166.4,165.5 168.0,165.7 169.7,166.0 171.3,166.2 173.0,166.4 174.7,166.7 176.3,166.9 178.0,167.2 179.7,167.5 181.3,167.8 183.0,168.1 184.6,168.4 186.3,168.7 188.0,169.1 189.6,169.4 191.3,169.8 193.0,170.2 194.6,170.6 196.3,171.0 197.9,171.4 199.6,171.8 201.3,172.2 202.9,172.7 204.6,173.1 206.2,173.6 207.9,174.1 209.6,174.6 211.2,175.1 212.9,175.6 214.6,176.1 216.2,176.6 217.9,177.2 219.5,177.7 221.2,178.3 222.9,178.8 224.5,179.4 226.2,180.0 227.9,180.5 229.5,181.1 231.2,181.7 232.8,182.3 234.5,182.8 236.2,183.4 237.8,184.0 239.5,184.6 241.1,185.1 242.8,185.7 244.5,186.3 246.1,186.8 247.8,187.4 249.5,187.9 251.1,188.4 252.8,188.9 254.4,189.4 256.1,189.9 257.8,190.3 259.4,190.8 261.1,191.2 262.8,191.6 264.4,191.9 266.1,192.3 267.7,192.6 269.4,192.9 271.1,193.1 272.7,193.4 274.4,193.6 276.0,193.7 277.7,193.8 279.4,193.9 281.0,194.0 282.7,194.0 284.4,194.0 286.0,193.9 287.7,193.8 289.3,193.7 291.0,193.5 292.7,193.2 294.3,193.0 296.0,192.7 297.7,192.3 299.3,191.9 301.0,191.4 302.6,191.0 304.3,190.4 306.0,189.8 307.6,189.2 309.3,188.5 310.9,187.8 312.6,187.1 314.3,186.3 315.9,185.5 317.6,184.6 319.3,183.7 320.9,182.7 322.6,181.7 324.2,180.7 325.9,179.7 327.6,178.6 329.2,177.5 330.9,176.4 332.6,175.2 334.2,174.0 335.9,172.8 337.5,171.6 339.2,170.3 340.9,169.1 342.5,167.8 344.2,166.5 345.8,165.2 347.5,163.9 349.2,162.6 350.8,161.4 352.5,160.1 354.2,158.8 355.8,157.5 357.5,156.2 359.1,154.9 360.8,153.7 362.5,152.4 364.1,151.2 365.8,150.0 367.4,148.8 369.1,147.6 370.8,146.5 372.4,145.4 374.1,144.3 375.8,143.3 377.4,142.3 379.1,141.3 380.7,140.3 382.4,139.4 384.1,138.5 385.7,137.7 387.4,136.9 389.1,136.2 390.7,135.5 392.4,134.8 394.0,134.2 395.7,133.6 397.4,133.0 399.0,132.6 400.7,132.1 402.3,131.7 404.0,131.3 405.7,131.0 407.3,130.8 409.0,130.5 410.7,130.3 412.3,130.2 414.0,130.1 415.6,130.0 417.3,130.0 419.0,130.0 420.6,130.1 422.3,130.2 424.0,130.3 425.6,130.4 427.3,130.6 428.9,130.9 430.6,131.1 432.3,131.4 433.9,131.7 435.6,132.1 437.2,132.4 438.9,132.8 440.6,133.2 442.2,133.7 443.9,134.1 445.6,134.6 447.2,135.1 448.9,135.6 450.5,136.1 452.2,136.6 453.9,137.2 455.5,137.7 457.2,138.3 458.9,138.9 460.5,139.4 462.2,140.0 463.8,140.6 465.5,141.2 467.2,141.7 468.8,142.3 470.5,142.9 472.1,143.5 473.8,144.0 475.5,144.6 477.1,145.2 478.8,145.7 480.5,146.3 482.1,146.8 483.8,147.4 485.4,147.9 487.1,148.4 488.8,148.9 490.4,149.4 492.1,149.9 493.8,150.4 495.4,150.9 497.1,151.3 498.7,151.8 500.4,152.2 502.1,152.6 503.7,153.0 505.4,153.4 507.0,153.8 508.7,154.2 510.4,154.6 512.0,154.9 513.7,155.3 515.4,155.6 517.0,155.9 518.7,156.2 520.3,156.5 522.0,156.8 523.7,157.1 525.3,157.3 527.0,157.6 528.7,157.8 530.3,158.0 532.0,158.3 533.6,158.5 535.3,158.7 537.0,158.9 538.6,159.0 540.3,159.2 541.9,159.4 543.6,159.5 545.3,159.7 546.9,159.8 548.6,160.0 550.3,160.1 551.9,160.2 553.6,160.3 555.2,160.4 556.9,160.5 558.6,160.6 560.2,160.7 561.9,160.8 563.6,160.9 565.2,161.0 566.9,161.0 568.5,161.1 570.2,161.2 571.9,161.2 573.5,161.3 575.2,161.3 576.8,161.4 578.5,161.4 580.2,161.5 581.8,161.5 583.5,161.5 585.2,161.6 586.8,161.6 588.5,161.6 590.1,161.7 591.8,161.7 593.5,161.7 595.1,161.7 596.8,161.8 598.5,161.8 600.1,161.8 601.8,161.8 603.4,161.8 605.1,161.8 606.8,161.9 608.4,161.9 610.1,161.9 611.7,161.9 613.4,161.9 615.1,161.9 616.7,161.9 618.4,161.9 620.1,161.9 621.7,161.9 623.4,161.9 625.0,161.9 626.7,162.0 628.4,162.0 630.0,162.0 631.7,162.0 633.4,162.0 635.0,162.0 636.7,162.0 638.3,162.0 640.0,162.0" fill="none" stroke="#0072B2" stroke-width="1.5"/>
  <!-- Classical turning point ticks -->
  <line x1="233.2" y1="154.0" x2="233.2" y2="170.0" stroke="#D55E00" stroke-width="1.25"/>
  <line x1="466.8" y1="154.0" x2="466.8" y2="170.0" stroke="#D55E00" stroke-width="1.25"/>
  <!-- n label -->
  <text x="52" y="166.0" font-family="'JetBrains Mono','Courier New',monospace" font-size="11" fill="#545454" text-anchor="end">ψ1</text>
  <!-- Panel n=2 -->
  <rect x="60" y="217" width="580" height="82" fill="#F5F5F5" stroke="#D4D4D4" stroke-width="0.5"/>
  <!-- Zero line -->
  <line x1="60" y1="258.0" x2="640" y2="258.0" stroke="#CCCCCC" stroke-width="0.5"/>
  <!-- Wave function -->
  <polyline points="60.0,257.9 61.7,257.9 63.3,257.9 65.0,257.9 66.6,257.9 68.3,257.8 70.0,257.8 71.6,257.8 73.3,257.8 75.0,257.8 76.6,257.8 78.3,257.7 79.9,257.7 81.6,257.7 83.3,257.7 84.9,257.6 86.6,257.6 88.3,257.6 89.9,257.5 91.6,257.5 93.2,257.4 94.9,257.4 96.6,257.3 98.2,257.3 99.9,257.2 101.5,257.2 103.2,257.1 104.9,257.0 106.5,257.0 108.2,256.9 109.9,256.8 111.5,256.7 113.2,256.6 114.8,256.5 116.5,256.4 118.2,256.3 119.8,256.2 121.5,256.0 123.2,255.9 124.8,255.7 126.5,255.6 128.1,255.4 129.8,255.3 131.5,255.1 133.1,254.9 134.8,254.7 136.4,254.5 138.1,254.2 139.8,254.0 141.4,253.8 143.1,253.5 144.8,253.2 146.4,252.9 148.1,252.7 149.7,252.3 151.4,252.0 153.1,251.7 154.7,251.3 156.4,251.0 158.1,250.6 159.7,250.2 161.4,249.8 163.0,249.4 164.7,249.0 166.4,248.5 168.0,248.1 169.7,247.6 171.3,247.1 173.0,246.6 174.7,246.1 176.3,245.6 178.0,245.0 179.7,244.5 181.3,243.9 183.0,243.3 184.6,242.8 186.3,242.2 188.0,241.6 189.6,241.0 191.3,240.4 193.0,239.7 194.6,239.1 196.3,238.5 197.9,237.8 199.6,237.2 201.3,236.6 202.9,236.0 204.6,235.3 206.2,234.7 207.9,234.1 209.6,233.5 211.2,232.9 212.9,232.3 214.6,231.7 216.2,231.2 217.9,230.6 219.5,230.1 221.2,229.6 222.9,229.1 224.5,228.7 226.2,228.3 227.9,227.9 229.5,227.5 231.2,227.2 232.8,226.9 234.5,226.6 236.2,226.4 237.8,226.3 239.5,226.1 241.1,226.0 242.8,226.0 244.5,226.0 246.1,226.1 247.8,226.2 249.5,226.3 251.1,226.5 252.8,226.8 254.4,227.1 256.1,227.5 257.8,228.0 259.4,228.5 261.1,229.0 262.8,229.6 264.4,230.3 266.1,231.0 267.7,231.8 269.4,232.6 271.1,233.5 272.7,234.5 274.4,235.4 276.0,236.5 277.7,237.6 279.4,238.7 281.0,239.9 282.7,241.2 284.4,242.4 286.0,243.8 287.7,245.1 289.3,246.5 291.0,247.9 292.7,249.3 294.3,250.8 296.0,252.3 297.7,253.8 299.3,255.3 301.0,256.8 302.6,258.3 304.3,259.8 306.0,261.3 307.6,262.8 309.3,264.3 310.9,265.8 312.6,267.2 314.3,268.6 315.9,270.0 317.6,271.4 319.3,272.7 320.9,274.0 322.6,275.2 324.2,276.4 325.9,277.5 327.6,278.6 329.2,279.6 330.9,280.5 332.6,281.4 334.2,282.2 335.9,282.9 337.5,283.6 339.2,284.2 340.9,284.7 342.5,285.1 344.2,285.4 345.8,285.7 347.5,285.8 349.2,285.9 350.8,285.9 352.5,285.8 354.2,285.7 355.8,285.4 357.5,285.1 359.1,284.7 360.8,284.2 362.5,283.6 364.1,282.9 365.8,282.2 367.4,281.4 369.1,280.5 370.8,279.6 372.4,278.6 374.1,277.5 375.8,276.4 377.4,275.2 379.1,274.0 380.7,272.7 382.4,271.4 384.1,270.0 385.7,268.6 387.4,267.2 389.1,265.8 390.7,264.3 392.4,262.8 394.0,261.3 395.7,259.8 397.4,258.3 399.0,256.8 400.7,255.3 402.3,253.8 404.0,252.3 405.7,250.8 407.3,249.3 409.0,247.9 410.7,246.5 412.3,245.1 414.0,243.8 415.6,242.4 417.3,241.2 419.0,239.9 420.6,238.7 422.3,237.6 424.0,236.5 425.6,235.4 427.3,234.5 428.9,233.5 430.6,232.6 432.3,231.8 433.9,231.0 435.6,230.3 437.2,229.6 438.9,229.0 440.6,228.5 442.2,228.0 443.9,227.5 445.6,227.1 447.2,226.8 448.9,226.5 450.5,226.3 452.2,226.2 453.9,226.1 455.5,226.0 457.2,226.0 458.9,226.0 460.5,226.1 462.2,226.3 463.8,226.4 465.5,226.6 467.2,226.9 468.8,227.2 470.5,227.5 472.1,227.9 473.8,228.3 475.5,228.7 477.1,229.1 478.8,229.6 480.5,230.1 482.1,230.6 483.8,231.2 485.4,231.7 487.1,232.3 488.8,232.9 490.4,233.5 492.1,234.1 493.8,234.7 495.4,235.3 497.1,236.0 498.7,236.6 500.4,237.2 502.1,237.8 503.7,238.5 505.4,239.1 507.0,239.7 508.7,240.4 510.4,241.0 512.0,241.6 513.7,242.2 515.4,242.8 517.0,243.3 518.7,243.9 520.3,244.5 522.0,245.0 523.7,245.6 525.3,246.1 527.0,246.6 528.7,247.1 530.3,247.6 532.0,248.1 533.6,248.5 535.3,249.0 537.0,249.4 538.6,249.8 540.3,250.2 541.9,250.6 543.6,251.0 545.3,251.3 546.9,251.7 548.6,252.0 550.3,252.3 551.9,252.7 553.6,252.9 555.2,253.2 556.9,253.5 558.6,253.8 560.2,254.0 561.9,254.2 563.6,254.5 565.2,254.7 566.9,254.9 568.5,255.1 570.2,255.3 571.9,255.4 573.5,255.6 575.2,255.7 576.8,255.9 578.5,256.0 580.2,256.2 581.8,256.3 583.5,256.4 585.2,256.5 586.8,256.6 588.5,256.7 590.1,256.8 591.8,256.9 593.5,257.0 595.1,257.0 596.8,257.1 598.5,257.2 600.1,257.2 601.8,257.3 603.4,257.3 605.1,257.4 606.8,257.4 608.4,257.5 610.1,257.5 611.7,257.6 613.4,257.6 615.1,257.6 616.7,257.7 618.4,257.7 620.1,257.7 621.7,257.7 623.4,257.8 625.0,257.8 626.7,257.8 628.4,257.8 630.0,257.8 631.7,257.8 633.4,257.9 635.0,257.9 636.7,257.9 638.3,257.9 640.0,257.9" fill="none" stroke="#56B4E9" stroke-width="1.5"/>
  <!-- Classical turning point ticks -->
  <line x1="199.2" y1="250.0" x2="199.2" y2="266.0" stroke="#D55E00" stroke-width="1.25"/>
  <line x1="500.8" y1="250.0" x2="500.8" y2="266.0" stroke="#D55E00" stroke-width="1.25"/>
  <!-- n label -->
  <text x="52" y="262.0" font-family="'JetBrains Mono','Courier New',monospace" font-size="11" fill="#545454" text-anchor="end">ψ2</text>
  <!-- Panel n=3 -->
  <rect x="60" y="313" width="580" height="82" fill="#F5F5F5" stroke="#D4D4D4" stroke-width="0.5"/>
  <!-- Zero line -->
  <line x1="60" y1="354.0" x2="640" y2="354.0" stroke="#CCCCCC" stroke-width="0.5"/>
  <!-- Wave function -->
  <polyline points="60.0,354.3 61.7,354.4 63.3,354.4 65.0,354.4 66.6,354.5 68.3,354.5 70.0,354.6 71.6,354.6 73.3,354.7 75.0,354.7 76.6,354.8 78.3,354.8 79.9,354.9 81.6,355.0 83.3,355.1 84.9,355.1 86.6,355.2 88.3,355.3 89.9,355.4 91.6,355.5 93.2,355.7 94.9,355.8 96.6,355.9 98.2,356.1 99.9,356.2 101.5,356.4 103.2,356.5 104.9,356.7 106.5,356.9 108.2,357.1 109.9,357.3 111.5,357.5 113.2,357.8 114.8,358.0 116.5,358.3 118.2,358.5 119.8,358.8 121.5,359.1 123.2,359.4 124.8,359.8 126.5,360.1 128.1,360.5 129.8,360.8 131.5,361.2 133.1,361.6 134.8,362.0 136.4,362.5 138.1,362.9 139.8,363.4 141.4,363.9 143.1,364.4 144.8,364.9 146.4,365.4 148.1,365.9 149.7,366.5 151.4,367.1 153.1,367.6 154.7,368.2 156.4,368.8 158.1,369.4 159.7,370.1 161.4,370.7 163.0,371.4 164.7,372.0 166.4,372.7 168.0,373.3 169.7,374.0 171.3,374.7 173.0,375.3 174.7,376.0 176.3,376.7 178.0,377.3 179.7,378.0 181.3,378.6 183.0,379.2 184.6,379.8 186.3,380.5 188.0,381.0 189.6,381.6 191.3,382.1 193.0,382.7 194.6,383.1 196.3,383.6 197.9,384.0 199.6,384.4 201.3,384.8 202.9,385.1 204.6,385.4 206.2,385.6 207.9,385.8 209.6,385.9 211.2,386.0 212.9,386.0 214.6,386.0 216.2,385.9 217.9,385.7 219.5,385.5 221.2,385.3 222.9,384.9 224.5,384.5 226.2,384.1 227.9,383.5 229.5,382.9 231.2,382.3 232.8,381.5 234.5,380.7 236.2,379.9 237.8,378.9 239.5,377.9 241.1,376.9 242.8,375.8 244.5,374.6 246.1,373.4 247.8,372.1 249.5,370.7 251.1,369.4 252.8,367.9 254.4,366.4 256.1,364.9 257.8,363.4 259.4,361.8 261.1,360.2 262.8,358.6 264.4,357.0 266.1,355.3 267.7,353.7 269.4,352.0 271.1,350.4 272.7,348.8 274.4,347.1 276.0,345.6 277.7,344.0 279.4,342.5 281.0,341.0 282.7,339.6 284.4,338.2 286.0,336.9 287.7,335.6 289.3,334.4 291.0,333.3 292.7,332.3 294.3,331.3 296.0,330.4 297.7,329.7 299.3,329.0 301.0,328.4 302.6,327.9 304.3,327.5 306.0,327.3 307.6,327.1 309.3,327.0 310.9,327.1 312.6,327.2 314.3,327.5 315.9,327.9 317.6,328.3 319.3,328.9 320.9,329.6 322.6,330.4 324.2,331.3 325.9,332.3 327.6,333.4 329.2,334.5 330.9,335.8 332.6,337.1 334.2,338.5 335.9,339.9 337.5,341.4 339.2,343.0 340.9,344.6 342.5,346.3 344.2,347.9 345.8,349.7 347.5,351.4 349.2,353.1 350.8,354.9 352.5,356.6 354.2,358.3 355.8,360.1 357.5,361.7 359.1,363.4 360.8,365.0 362.5,366.6 364.1,368.1 365.8,369.5 367.4,370.9 369.1,372.2 370.8,373.5 372.4,374.6 374.1,375.7 375.8,376.7 377.4,377.6 379.1,378.4 380.7,379.1 382.4,379.7 384.1,380.1 385.7,380.5 387.4,380.8 389.1,380.9 390.7,381.0 392.4,380.9 394.0,380.7 395.7,380.5 397.4,380.1 399.0,379.6 400.7,379.0 402.3,378.3 404.0,377.6 405.7,376.7 407.3,375.7 409.0,374.7 410.7,373.6 412.3,372.4 414.0,371.1 415.6,369.8 417.3,368.4 419.0,367.0 420.6,365.5 422.3,364.0 424.0,362.4 425.6,360.9 427.3,359.2 428.9,357.6 430.6,356.0 432.3,354.3 433.9,352.7 435.6,351.0 437.2,349.4 438.9,347.8 440.6,346.2 442.2,344.6 443.9,343.1 445.6,341.6 447.2,340.1 448.9,338.6 450.5,337.3 452.2,335.9 453.9,334.6 455.5,333.4 457.2,332.2 458.9,331.1 460.5,330.1 462.2,329.1 463.8,328.1 465.5,327.3 467.2,326.5 468.8,325.7 470.5,325.1 472.1,324.5 473.8,323.9 475.5,323.5 477.1,323.1 478.8,322.7 480.5,322.5 482.1,322.3 483.8,322.1 485.4,322.0 487.1,322.0 488.8,322.0 490.4,322.1 492.1,322.2 493.8,322.4 495.4,322.6 497.1,322.9 498.7,323.2 500.4,323.6 502.1,324.0 503.7,324.4 505.4,324.9 507.0,325.3 508.7,325.9 510.4,326.4 512.0,327.0 513.7,327.5 515.4,328.2 517.0,328.8 518.7,329.4 520.3,330.0 522.0,330.7 523.7,331.3 525.3,332.0 527.0,332.7 528.7,333.3 530.3,334.0 532.0,334.7 533.6,335.3 535.3,336.0 537.0,336.6 538.6,337.3 540.3,337.9 541.9,338.6 543.6,339.2 545.3,339.8 546.9,340.4 548.6,340.9 550.3,341.5 551.9,342.1 553.6,342.6 555.2,343.1 556.9,343.6 558.6,344.1 560.2,344.6 561.9,345.1 563.6,345.5 565.2,346.0 566.9,346.4 568.5,346.8 570.2,347.2 571.9,347.5 573.5,347.9 575.2,348.2 576.8,348.6 578.5,348.9 580.2,349.2 581.8,349.5 583.5,349.7 585.2,350.0 586.8,350.2 588.5,350.5 590.1,350.7 591.8,350.9 593.5,351.1 595.1,351.3 596.8,351.5 598.5,351.6 600.1,351.8 601.8,351.9 603.4,352.1 605.1,352.2 606.8,352.3 608.4,352.5 610.1,352.6 611.7,352.7 613.4,352.8 615.1,352.9 616.7,352.9 618.4,353.0 620.1,353.1 621.7,353.2 623.4,353.2 625.0,353.3 626.7,353.3 628.4,353.4 630.0,353.4 631.7,353.5 633.4,353.5 635.0,353.6 636.7,353.6 638.3,353.6 640.0,353.7" fill="none" stroke="#E69F00" stroke-width="1.5"/>
  <!-- Classical turning point ticks -->
  <line x1="171.6" y1="346.0" x2="171.6" y2="362.0" stroke="#D55E00" stroke-width="1.25"/>
  <line x1="528.4" y1="346.0" x2="528.4" y2="362.0" stroke="#D55E00" stroke-width="1.25"/>
  <!-- n label -->
  <text x="52" y="358.0" font-family="'JetBrains Mono','Courier New',monospace" font-size="11" fill="#545454" text-anchor="end">ψ3</text>

  <!-- Shared x-axis label -->
  <text x="350.0" y="413" font-family="Lato, sans-serif" font-size="12" fill="#545454" text-anchor="middle">Position ξ (dimensionless)</text>

  <!-- x-axis ticks at -4,-2,0,2,4 -->
  <text x="80.2" y="408" font-family="'JetBrains Mono','Courier New',monospace" font-size="10" fill="#545454" text-anchor="middle">-4</text>
  <text x="215.1" y="408" font-family="'JetBrains Mono','Courier New',monospace" font-size="10" fill="#545454" text-anchor="middle">-2</text>
  <text x="350.0" y="408" font-family="'JetBrains Mono','Courier New',monospace" font-size="10" fill="#545454" text-anchor="middle">0</text>
  <text x="484.9" y="408" font-family="'JetBrains Mono','Courier New',monospace" font-size="10" fill="#545454" text-anchor="middle">2</text>
  <text x="619.8" y="408" font-family="'JetBrains Mono','Courier New',monospace" font-size="10" fill="#545454" text-anchor="middle">4</text>

  <!-- Figure title -->
  <text x="350" y="16" font-family="'EB Garamond','Garamond',Georgia,serif" font-size="13" fill="#2a1a0e" text-anchor="middle">Harmonic oscillator eigenfunctions ψ<tspan dy="0.3em" font-size="0.75em">0</tspan><tspan dy="-0.3em"></tspan> – ψ<tspan dy="0.3em" font-size="0.75em">3</tspan><tspan dy="-0.3em"></tspan></text>

</svg>