<?xml version="1.0" encoding="utf-8" standalone="no"?>
<!DOCTYPE svg PUBLIC "-//W3C//DTD SVG 1.1//EN"
  "http://www.w3.org/Graphics/SVG/1.1/DTD/svg11.dtd">
<svg xmlns:xlink="http://www.w3.org/1999/xlink" width="475.2pt" height="388.8pt" viewBox="0 0 475.2 388.8" xmlns="http://www.w3.org/2000/svg" version="1.1">
 <metadata>
  <rdf:RDF xmlns:dc="http://purl.org/dc/elements/1.1/" xmlns:cc="http://creativecommons.org/ns#" xmlns:rdf="http://www.w3.org/1999/02/22-rdf-syntax-ns#">
   <cc:Work>
    <dc:type rdf:resource="http://purl.org/dc/dcmitype/StillImage"/>
    <dc:date>2026-06-04T06:15:16.765748</dc:date>
    <dc:format>image/svg+xml</dc:format>
    <dc:creator>
     <cc:Agent>
      <dc:title>Matplotlib v3.10.8, https://matplotlib.org/</dc:title>
     </cc:Agent>
    </dc:creator>
   </cc:Work>
  </rdf:RDF>
 </metadata>
 <defs>
  <style type="text/css">*{stroke-linejoin: round; stroke-linecap: butt}</style>
 </defs>
 <g id="figure_1">
  <g id="patch_1">
   <path d="M 0 388.8 
L 475.2 388.8 
L 475.2 0 
L 0 0 
z
" style="fill: #ffffff"/>
  </g>
  <g id="axes_1">
   <g id="patch_2">
    <path d="M 26.68 124.216 
L 463.32 124.216 
L 463.32 29.544 
L 26.68 29.544 
z
" style="fill: #ffffff"/>
   </g>
   <g id="matplotlib.axis_1">
    <g id="xtick_1">
     <g id="line2d_1">
      <defs>
       <path id="mdcf5c39ccc" d="M 0 0 
L 0 3.5 
" style="stroke: #000000; stroke-width: 0.8"/>
      </defs>
      <g>
       <use xlink:href="#mdcf5c39ccc" x="36.603636" y="124.216" style="stroke: #000000; stroke-width: 0.8"/>
      </g>
     </g>
    </g>
    <g id="xtick_2">
     <g id="line2d_2">
      <g>
       <use xlink:href="#mdcf5c39ccc" x="86.221818" y="124.216" style="stroke: #000000; stroke-width: 0.8"/>
      </g>
     </g>
    </g>
    <g id="xtick_3">
     <g id="line2d_3">
      <g>
       <use xlink:href="#mdcf5c39ccc" x="135.84" y="124.216" style="stroke: #000000; stroke-width: 0.8"/>
      </g>
     </g>
    </g>
    <g id="xtick_4">
     <g id="line2d_4">
      <g>
       <use xlink:href="#mdcf5c39ccc" x="185.458182" y="124.216" style="stroke: #000000; stroke-width: 0.8"/>
      </g>
     </g>
    </g>
    <g id="xtick_5">
     <g id="line2d_5">
      <g>
       <use xlink:href="#mdcf5c39ccc" x="235.076364" y="124.216" style="stroke: #000000; stroke-width: 0.8"/>
      </g>
     </g>
    </g>
    <g id="xtick_6">
     <g id="line2d_6">
      <g>
       <use xlink:href="#mdcf5c39ccc" x="284.694545" y="124.216" style="stroke: #000000; stroke-width: 0.8"/>
      </g>
     </g>
    </g>
    <g id="xtick_7">
     <g id="line2d_7">
      <g>
       <use xlink:href="#mdcf5c39ccc" x="334.312727" y="124.216" style="stroke: #000000; stroke-width: 0.8"/>
      </g>
     </g>
    </g>
    <g id="xtick_8">
     <g id="line2d_8">
      <g>
       <use xlink:href="#mdcf5c39ccc" x="383.930909" y="124.216" style="stroke: #000000; stroke-width: 0.8"/>
      </g>
     </g>
    </g>
    <g id="xtick_9">
     <g id="line2d_9">
      <g>
       <use xlink:href="#mdcf5c39ccc" x="433.549091" y="124.216" style="stroke: #000000; stroke-width: 0.8"/>
      </g>
     </g>
    </g>
   </g>
   <g id="matplotlib.axis_2">
    <g id="text_1">
     <!-- t = 0 -->
     <g transform="translate(20.392344 90.640312) rotate(-90) scale(0.11 -0.11)">
      <defs>
       <path id="DejaVuSans-74" d="M 1172 4494 
L 1172 3500 
L 2356 3500 
L 2356 3053 
L 1172 3053 
L 1172 1153 
Q 1172 725 1289 603 
Q 1406 481 1766 481 
L 2356 481 
L 2356 0 
L 1766 0 
Q 1100 0 847 248 
Q 594 497 594 1153 
L 594 3053 
L 172 3053 
L 172 3500 
L 594 3500 
L 594 4494 
L 1172 4494 
z
" transform="scale(0.015625)"/>
       <path id="DejaVuSans-20" transform="scale(0.015625)"/>
       <path id="DejaVuSans-3d" d="M 678 2906 
L 4684 2906 
L 4684 2381 
L 678 2381 
L 678 2906 
z
M 678 1631 
L 4684 1631 
L 4684 1100 
L 678 1100 
L 678 1631 
z
" transform="scale(0.015625)"/>
       <path id="DejaVuSans-30" d="M 2034 4250 
Q 1547 4250 1301 3770 
Q 1056 3291 1056 2328 
Q 1056 1369 1301 889 
Q 1547 409 2034 409 
Q 2525 409 2770 889 
Q 3016 1369 3016 2328 
Q 3016 3291 2770 3770 
Q 2525 4250 2034 4250 
z
M 2034 4750 
Q 2819 4750 3233 4129 
Q 3647 3509 3647 2328 
Q 3647 1150 3233 529 
Q 2819 -91 2034 -91 
Q 1250 -91 836 529 
Q 422 1150 422 2328 
Q 422 3509 836 4129 
Q 1250 4750 2034 4750 
z
" transform="scale(0.015625)"/>
      </defs>
      <use xlink:href="#DejaVuSans-74"/>
      <use xlink:href="#DejaVuSans-20" transform="translate(39.208984 0)"/>
      <use xlink:href="#DejaVuSans-3d" transform="translate(70.996094 0)"/>
      <use xlink:href="#DejaVuSans-20" transform="translate(154.785156 0)"/>
      <use xlink:href="#DejaVuSans-30" transform="translate(186.572266 0)"/>
     </g>
    </g>
   </g>
   <g id="line2d_10">
    <path d="M 46.527273 75.334688 
L 47.718705 76.57495 
L 49.704425 79.086303 
L 51.293001 80.973806 
L 52.285861 81.841425 
L 53.080149 82.262895 
L 53.675865 82.386012 
L 54.271581 82.325486 
L 54.867297 82.070813 
L 55.661585 81.422883 
L 56.455873 80.432066 
L 57.448733 78.762103 
L 58.640166 76.280178 
L 61.618746 69.792218 
L 62.413034 68.546537 
L 63.207322 67.713563 
L 63.803038 67.412088 
L 64.398754 67.418722 
L 64.99447 67.751378 
L 65.590186 68.417446 
L 66.185902 69.412919 
L 66.98019 71.223407 
L 67.97305 74.157099 
L 69.363054 79.107472 
L 71.547346 86.967896 
L 72.540206 89.703028 
L 73.334495 91.190886 
L 73.930211 91.806939 
L 74.327355 91.954579 
L 74.724499 91.880667 
L 75.121643 91.579191 
L 75.717359 90.695383 
L 76.313075 89.300088 
L 77.107363 86.68804 
L 78.100223 82.374846 
L 79.490227 74.993916 
L 81.873091 62.130496 
L 82.865951 58.116255 
L 83.461667 56.399269 
L 84.057383 55.302492 
L 84.454527 54.947428 
L 84.851671 54.909373 
L 85.248815 55.197078 
L 85.645959 55.814515 
L 86.241675 57.35537 
L 86.837391 59.60995 
L 87.631679 63.635555 
L 88.62454 70.029542 
L 90.213116 82.124301 
L 92.000264 95.419285 
L 92.993124 101.187947 
L 93.787412 104.415472 
L 94.383128 105.859015 
L 94.780272 106.31227 
L 95.177416 106.340093 
L 95.57456 105.933866 
L 95.971704 105.091423 
L 96.56742 103.021384 
L 97.163136 100.02442 
L 97.957424 94.722552 
L 98.950284 86.385631 
L 100.737432 68.829722 
L 102.326008 54.000458 
L 103.318869 46.812689 
L 104.113157 42.841618 
L 104.708873 41.094382 
L 105.106017 40.56362 
L 105.304589 40.494633 
L 105.503161 40.558204 
L 105.900305 41.084939 
L 106.297449 42.142658 
L 106.893165 44.702469 
L 107.488881 48.369645 
L 108.283169 54.797442 
L 109.276029 64.803631 
L 111.460321 90.185127 
L 112.651753 102.829072 
L 113.644613 111.071685 
L 114.240329 114.639689 
L 114.836045 117.007276 
L 115.233189 117.871741 
L 115.630333 118.144344 
L 115.828905 118.055884 
L 116.226049 117.428721 
L 116.623193 116.206857 
L 117.218909 113.293381 
L 117.814625 109.162973 
L 118.608914 101.989714 
L 119.601774 90.934844 
L 123.374642 46.016176 
L 124.16893 39.757763 
L 124.764646 36.450345 
L 125.360362 34.45884 
L 125.757506 33.897285 
L 125.956078 33.850374 
L 126.15465 33.959805 
L 126.551794 34.645462 
L 126.948938 35.943966 
L 127.544654 38.995743 
L 128.14037 43.277692 
L 128.934658 50.646155 
L 130.12609 64.326079 
L 133.303243 102.783221 
L 134.097531 109.779806 
L 134.891819 114.810702 
L 135.487535 117.124113 
L 135.884679 117.930688 
L 136.083251 118.109299 
L 136.281823 118.137679 
L 136.480395 118.016198 
L 136.877539 117.327935 
L 137.274683 116.058587 
L 137.870399 113.1169 
L 138.466115 109.031323 
L 139.260403 102.064612 
L 140.451835 89.273319 
L 143.430415 55.8953 
L 144.423275 47.82005 
L 145.217563 43.365216 
L 145.813279 41.346765 
L 146.210423 40.660246 
L 146.607567 40.506372 
L 146.806139 40.628101 
L 147.203283 41.262427 
L 147.600427 42.403702 
L 148.196144 45.012907 
L 148.990432 49.990674 
L 149.983292 58.132188 
L 151.571868 73.62313 
L 153.359016 90.589048 
L 154.351876 98.071996 
L 155.146164 102.494179 
L 155.74188 104.754118 
L 156.139024 105.726863 
L 156.536168 106.264025 
L 156.933312 106.365802 
L 157.330456 106.038897 
L 157.7276 105.296299 
L 158.323316 103.445985 
L 158.919032 100.791291 
L 159.71332 96.195777 
L 160.904752 87.700551 
L 163.883333 65.535679 
L 164.876193 60.142522 
L 165.670481 57.107882 
L 166.266197 55.664624 
L 166.663341 55.113215 
L 167.060485 54.891136 
L 167.457629 54.993442 
L 167.854773 55.410453 
L 168.251917 56.128022 
L 168.847633 57.72687 
L 169.641921 60.709577 
L 170.634781 65.482883 
L 174.606221 86.227518 
L 175.400509 88.961435 
L 175.996225 90.456741 
L 176.591941 91.443883 
L 176.989085 91.814306 
L 177.386229 91.956005 
L 177.783374 91.874008 
L 178.180518 91.576548 
L 178.776234 90.751636 
L 179.37195 89.51676 
L 180.166238 87.338196 
L 181.35767 83.275167 
L 184.33625 72.66638 
L 185.32911 70.073523 
L 186.123398 68.590524 
L 186.719114 67.857879 
L 187.31483 67.458777 
L 187.910546 67.38805 
L 188.506262 67.629804 
L 189.101978 68.158544 
L 189.896266 69.250736 
L 190.889126 71.098505 
L 192.477702 74.650602 
L 194.264851 78.533927 
L 195.257711 80.255536 
L 196.051999 81.295602 
L 196.846287 81.99609 
L 197.442003 82.290314 
L 198.037719 82.389019 
L 198.633435 82.301514 
L 199.427723 81.921774 
L 200.222011 81.286477 
L 201.413443 79.98583 
L 205.384883 75.263932 
L 206.377743 74.527744 
L 207.370603 74.086039 
L 208.164892 73.949068 
L 209.157752 74.031254 
L 210.150612 74.355378 
L 211.342044 74.980654 
L 216.306344 77.901373 
L 217.497776 78.219099 
L 218.689208 78.318849 
L 220.079212 78.18972 
L 221.667788 77.807628 
L 226.632089 76.421803 
L 228.419237 76.241708 
L 230.404957 76.291452 
L 233.184965 76.628649 
L 236.957833 77.06884 
L 239.737842 77.145937 
L 243.51071 76.984437 
L 248.872154 76.780487 
L 254.432171 76.852921 
L 262.176479 76.908014 
L 284.019401 76.881881 
L 443.472727 76.88 
L 443.472727 76.88 
" clip-path="url(#p9a4a4a4a7e)" style="fill: none; stroke: #0072b2; stroke-width: 1.4; stroke-linecap: square"/>
   </g>
   <g id="line2d_11">
    <path d="M 46.527273 73.236934 
L 50.895857 72.135007 
L 55.065869 70.858159 
L 59.03731 69.419061 
L 63.00875 67.749581 
L 66.98019 65.843766 
L 71.150202 63.59103 
L 75.518787 60.970495 
L 80.284515 57.846376 
L 86.241675 53.653473 
L 100.737432 43.311362 
L 104.907445 40.680427 
L 108.481741 38.678342 
L 111.658893 37.141291 
L 114.637473 35.939325 
L 117.417481 35.047895 
L 120.19749 34.395099 
L 122.778926 34.012875 
L 125.360362 33.852457 
L 127.941798 33.916351 
L 130.523234 34.203558 
L 133.104671 34.709604 
L 135.884679 35.490256 
L 138.664687 36.501707 
L 141.643267 37.821338 
L 144.820419 39.469184 
L 148.394716 41.575408 
L 152.564728 44.298102 
L 158.124744 48.218504 
L 172.421929 58.437286 
L 177.386229 61.636945 
L 181.754814 64.194353 
L 185.924826 66.381659 
L 189.896266 68.223519 
L 193.867707 69.829903 
L 198.037719 71.271907 
L 202.207731 72.479336 
L 206.576315 73.515965 
L 211.342044 74.412875 
L 216.504916 75.151864 
L 222.263504 75.746493 
L 229.014953 76.211161 
L 237.354977 76.548183 
L 248.673582 76.762539 
L 267.537924 76.863353 
L 337.2367 76.879999 
L 443.472727 76.88 
L 443.472727 76.88 
" clip-path="url(#p9a4a4a4a7e)" style="fill: none; stroke-dasharray: 3.7,1.6; stroke-dashoffset: 0; stroke: #999999"/>
   </g>
   <g id="line2d_12">
    <path d="M 46.527273 80.523066 
L 50.895857 81.624993 
L 55.065869 82.901841 
L 59.03731 84.340939 
L 63.00875 86.010419 
L 66.98019 87.916234 
L 71.150202 90.16897 
L 75.518787 92.789505 
L 80.284515 95.913624 
L 86.241675 100.106527 
L 100.737432 110.448638 
L 104.907445 113.079573 
L 108.481741 115.081658 
L 111.658893 116.618709 
L 114.637473 117.820675 
L 117.417481 118.712105 
L 120.19749 119.364901 
L 122.778926 119.747125 
L 125.360362 119.907543 
L 127.941798 119.843649 
L 130.523234 119.556442 
L 133.104671 119.050396 
L 135.884679 118.269744 
L 138.664687 117.258293 
L 141.643267 115.938662 
L 144.820419 114.290816 
L 148.394716 112.184592 
L 152.564728 109.461898 
L 158.124744 105.541496 
L 172.421929 95.322714 
L 177.386229 92.123055 
L 181.754814 89.565647 
L 185.924826 87.378341 
L 189.896266 85.536481 
L 193.867707 83.930097 
L 198.037719 82.488093 
L 202.207731 81.280664 
L 206.576315 80.244035 
L 211.342044 79.347125 
L 216.504916 78.608136 
L 222.263504 78.013507 
L 229.014953 77.548839 
L 237.354977 77.211817 
L 248.673582 76.997461 
L 267.537924 76.896647 
L 337.2367 76.880001 
L 443.472727 76.88 
L 443.472727 76.88 
" clip-path="url(#p9a4a4a4a7e)" style="fill: none; stroke-dasharray: 3.7,1.6; stroke-dashoffset: 0; stroke: #999999"/>
   </g>
   <g id="line2d_13">
    <path d="M 125.916364 124.216 
L 125.916364 29.544 
" clip-path="url(#p9a4a4a4a7e)" style="fill: none; stroke-dasharray: 1.2,1.98; stroke-dashoffset: 0; stroke: #e69f00; stroke-width: 1.2"/>
   </g>
   <g id="line2d_14">
    <path d="M 125.916364 124.216 
L 125.916364 29.544 
" clip-path="url(#p9a4a4a4a7e)" style="fill: none; stroke-dasharray: 7.68,1.92,1.2,1.92; stroke-dashoffset: 0; stroke: #cc79a7; stroke-width: 1.2"/>
   </g>
   <g id="patch_3">
    <path d="M 26.68 124.216 
L 26.68 29.544 
" style="fill: none; stroke: #000000; stroke-linejoin: miter; stroke-linecap: square"/>
   </g>
   <g id="patch_4">
    <path d="M 26.68 124.216 
L 463.32 124.216 
" style="fill: none; stroke: #000000; stroke-linejoin: miter; stroke-linecap: square"/>
   </g>
   <g id="text_2">
    <!-- Envelope at $v_g$ (orange) outruns crest at $v_{ph}=v_g/2$ (purple) -->
    <g transform="translate(67.52 23.544) scale(0.12 -0.12)">
     <defs>
      <path id="DejaVuSans-45" d="M 628 4666 
L 3578 4666 
L 3578 4134 
L 1259 4134 
L 1259 2753 
L 3481 2753 
L 3481 2222 
L 1259 2222 
L 1259 531 
L 3634 531 
L 3634 0 
L 628 0 
L 628 4666 
z
" transform="scale(0.015625)"/>
      <path id="DejaVuSans-6e" d="M 3513 2113 
L 3513 0 
L 2938 0 
L 2938 2094 
Q 2938 2591 2744 2837 
Q 2550 3084 2163 3084 
Q 1697 3084 1428 2787 
Q 1159 2491 1159 1978 
L 1159 0 
L 581 0 
L 581 3500 
L 1159 3500 
L 1159 2956 
Q 1366 3272 1645 3428 
Q 1925 3584 2291 3584 
Q 2894 3584 3203 3211 
Q 3513 2838 3513 2113 
z
" transform="scale(0.015625)"/>
      <path id="DejaVuSans-76" d="M 191 3500 
L 800 3500 
L 1894 563 
L 2988 3500 
L 3597 3500 
L 2284 0 
L 1503 0 
L 191 3500 
z
" transform="scale(0.015625)"/>
      <path id="DejaVuSans-65" d="M 3597 1894 
L 3597 1613 
L 953 1613 
Q 991 1019 1311 708 
Q 1631 397 2203 397 
Q 2534 397 2845 478 
Q 3156 559 3463 722 
L 3463 178 
Q 3153 47 2828 -22 
Q 2503 -91 2169 -91 
Q 1331 -91 842 396 
Q 353 884 353 1716 
Q 353 2575 817 3079 
Q 1281 3584 2069 3584 
Q 2775 3584 3186 3129 
Q 3597 2675 3597 1894 
z
M 3022 2063 
Q 3016 2534 2758 2815 
Q 2500 3097 2075 3097 
Q 1594 3097 1305 2825 
Q 1016 2553 972 2059 
L 3022 2063 
z
" transform="scale(0.015625)"/>
      <path id="DejaVuSans-6c" d="M 603 4863 
L 1178 4863 
L 1178 0 
L 603 0 
L 603 4863 
z
" transform="scale(0.015625)"/>
      <path id="DejaVuSans-6f" d="M 1959 3097 
Q 1497 3097 1228 2736 
Q 959 2375 959 1747 
Q 959 1119 1226 758 
Q 1494 397 1959 397 
Q 2419 397 2687 759 
Q 2956 1122 2956 1747 
Q 2956 2369 2687 2733 
Q 2419 3097 1959 3097 
z
M 1959 3584 
Q 2709 3584 3137 3096 
Q 3566 2609 3566 1747 
Q 3566 888 3137 398 
Q 2709 -91 1959 -91 
Q 1206 -91 779 398 
Q 353 888 353 1747 
Q 353 2609 779 3096 
Q 1206 3584 1959 3584 
z
" transform="scale(0.015625)"/>
      <path id="DejaVuSans-70" d="M 1159 525 
L 1159 -1331 
L 581 -1331 
L 581 3500 
L 1159 3500 
L 1159 2969 
Q 1341 3281 1617 3432 
Q 1894 3584 2278 3584 
Q 2916 3584 3314 3078 
Q 3713 2572 3713 1747 
Q 3713 922 3314 415 
Q 2916 -91 2278 -91 
Q 1894 -91 1617 61 
Q 1341 213 1159 525 
z
M 3116 1747 
Q 3116 2381 2855 2742 
Q 2594 3103 2138 3103 
Q 1681 3103 1420 2742 
Q 1159 2381 1159 1747 
Q 1159 1113 1420 752 
Q 1681 391 2138 391 
Q 2594 391 2855 752 
Q 3116 1113 3116 1747 
z
" transform="scale(0.015625)"/>
      <path id="DejaVuSans-61" d="M 2194 1759 
Q 1497 1759 1228 1600 
Q 959 1441 959 1056 
Q 959 750 1161 570 
Q 1363 391 1709 391 
Q 2188 391 2477 730 
Q 2766 1069 2766 1631 
L 2766 1759 
L 2194 1759 
z
M 3341 1997 
L 3341 0 
L 2766 0 
L 2766 531 
Q 2569 213 2275 61 
Q 1981 -91 1556 -91 
Q 1019 -91 701 211 
Q 384 513 384 1019 
Q 384 1609 779 1909 
Q 1175 2209 1959 2209 
L 2766 2209 
L 2766 2266 
Q 2766 2663 2505 2880 
Q 2244 3097 1772 3097 
Q 1472 3097 1187 3025 
Q 903 2953 641 2809 
L 641 3341 
Q 956 3463 1253 3523 
Q 1550 3584 1831 3584 
Q 2591 3584 2966 3190 
Q 3341 2797 3341 1997 
z
" transform="scale(0.015625)"/>
      <path id="DejaVuSans-Oblique-76" d="M 459 3500 
L 1069 3500 
L 1581 525 
L 3256 3500 
L 3866 3500 
L 1875 0 
L 1100 0 
L 459 3500 
z
" transform="scale(0.015625)"/>
      <path id="DejaVuSans-Oblique-67" d="M 3816 3500 
L 3219 434 
Q 3047 -456 2561 -893 
Q 2075 -1331 1253 -1331 
Q 950 -1331 690 -1286 
Q 431 -1241 206 -1147 
L 313 -588 
Q 525 -725 762 -790 
Q 1000 -856 1269 -856 
Q 1816 -856 2167 -557 
Q 2519 -259 2631 300 
L 2681 563 
Q 2441 288 2122 144 
Q 1803 0 1434 0 
Q 903 0 598 351 
Q 294 703 294 1319 
Q 294 1803 478 2267 
Q 663 2731 997 3091 
Q 1219 3328 1514 3456 
Q 1809 3584 2131 3584 
Q 2484 3584 2746 3420 
Q 3009 3256 3138 2956 
L 3238 3500 
L 3816 3500 
z
M 2950 2216 
Q 2950 2641 2750 2872 
Q 2550 3103 2181 3103 
Q 1953 3103 1747 3012 
Q 1541 2922 1394 2759 
Q 1156 2491 1023 2127 
Q 891 1763 891 1375 
Q 891 944 1092 712 
Q 1294 481 1672 481 
Q 2219 481 2584 976 
Q 2950 1472 2950 2216 
z
" transform="scale(0.015625)"/>
      <path id="DejaVuSans-28" d="M 1984 4856 
Q 1566 4138 1362 3434 
Q 1159 2731 1159 2009 
Q 1159 1288 1364 580 
Q 1569 -128 1984 -844 
L 1484 -844 
Q 1016 -109 783 600 
Q 550 1309 550 2009 
Q 550 2706 781 3412 
Q 1013 4119 1484 4856 
L 1984 4856 
z
" transform="scale(0.015625)"/>
      <path id="DejaVuSans-72" d="M 2631 2963 
Q 2534 3019 2420 3045 
Q 2306 3072 2169 3072 
Q 1681 3072 1420 2755 
Q 1159 2438 1159 1844 
L 1159 0 
L 581 0 
L 581 3500 
L 1159 3500 
L 1159 2956 
Q 1341 3275 1631 3429 
Q 1922 3584 2338 3584 
Q 2397 3584 2469 3576 
Q 2541 3569 2628 3553 
L 2631 2963 
z
" transform="scale(0.015625)"/>
      <path id="DejaVuSans-67" d="M 2906 1791 
Q 2906 2416 2648 2759 
Q 2391 3103 1925 3103 
Q 1463 3103 1205 2759 
Q 947 2416 947 1791 
Q 947 1169 1205 825 
Q 1463 481 1925 481 
Q 2391 481 2648 825 
Q 2906 1169 2906 1791 
z
M 3481 434 
Q 3481 -459 3084 -895 
Q 2688 -1331 1869 -1331 
Q 1566 -1331 1297 -1286 
Q 1028 -1241 775 -1147 
L 775 -588 
Q 1028 -725 1275 -790 
Q 1522 -856 1778 -856 
Q 2344 -856 2625 -561 
Q 2906 -266 2906 331 
L 2906 616 
Q 2728 306 2450 153 
Q 2172 0 1784 0 
Q 1141 0 747 490 
Q 353 981 353 1791 
Q 353 2603 747 3093 
Q 1141 3584 1784 3584 
Q 2172 3584 2450 3431 
Q 2728 3278 2906 2969 
L 2906 3500 
L 3481 3500 
L 3481 434 
z
" transform="scale(0.015625)"/>
      <path id="DejaVuSans-29" d="M 513 4856 
L 1013 4856 
Q 1481 4119 1714 3412 
Q 1947 2706 1947 2009 
Q 1947 1309 1714 600 
Q 1481 -109 1013 -844 
L 513 -844 
Q 928 -128 1133 580 
Q 1338 1288 1338 2009 
Q 1338 2731 1133 3434 
Q 928 4138 513 4856 
z
" transform="scale(0.015625)"/>
      <path id="DejaVuSans-75" d="M 544 1381 
L 544 3500 
L 1119 3500 
L 1119 1403 
Q 1119 906 1312 657 
Q 1506 409 1894 409 
Q 2359 409 2629 706 
Q 2900 1003 2900 1516 
L 2900 3500 
L 3475 3500 
L 3475 0 
L 2900 0 
L 2900 538 
Q 2691 219 2414 64 
Q 2138 -91 1772 -91 
Q 1169 -91 856 284 
Q 544 659 544 1381 
z
M 1991 3584 
L 1991 3584 
z
" transform="scale(0.015625)"/>
      <path id="DejaVuSans-73" d="M 2834 3397 
L 2834 2853 
Q 2591 2978 2328 3040 
Q 2066 3103 1784 3103 
Q 1356 3103 1142 2972 
Q 928 2841 928 2578 
Q 928 2378 1081 2264 
Q 1234 2150 1697 2047 
L 1894 2003 
Q 2506 1872 2764 1633 
Q 3022 1394 3022 966 
Q 3022 478 2636 193 
Q 2250 -91 1575 -91 
Q 1294 -91 989 -36 
Q 684 19 347 128 
L 347 722 
Q 666 556 975 473 
Q 1284 391 1588 391 
Q 1994 391 2212 530 
Q 2431 669 2431 922 
Q 2431 1156 2273 1281 
Q 2116 1406 1581 1522 
L 1381 1569 
Q 847 1681 609 1914 
Q 372 2147 372 2553 
Q 372 3047 722 3315 
Q 1072 3584 1716 3584 
Q 2034 3584 2315 3537 
Q 2597 3491 2834 3397 
z
" transform="scale(0.015625)"/>
      <path id="DejaVuSans-63" d="M 3122 3366 
L 3122 2828 
Q 2878 2963 2633 3030 
Q 2388 3097 2138 3097 
Q 1578 3097 1268 2742 
Q 959 2388 959 1747 
Q 959 1106 1268 751 
Q 1578 397 2138 397 
Q 2388 397 2633 464 
Q 2878 531 3122 666 
L 3122 134 
Q 2881 22 2623 -34 
Q 2366 -91 2075 -91 
Q 1284 -91 818 406 
Q 353 903 353 1747 
Q 353 2603 823 3093 
Q 1294 3584 2113 3584 
Q 2378 3584 2631 3529 
Q 2884 3475 3122 3366 
z
" transform="scale(0.015625)"/>
      <path id="DejaVuSans-Oblique-70" d="M 3175 2156 
Q 3175 2616 2975 2859 
Q 2775 3103 2400 3103 
Q 2144 3103 1911 2972 
Q 1678 2841 1497 2591 
Q 1319 2344 1212 1994 
Q 1106 1644 1106 1300 
Q 1106 863 1306 627 
Q 1506 391 1875 391 
Q 2147 391 2380 519 
Q 2613 647 2778 891 
Q 2956 1147 3065 1494 
Q 3175 1841 3175 2156 
z
M 1394 2969 
Q 1625 3272 1939 3428 
Q 2253 3584 2638 3584 
Q 3175 3584 3472 3232 
Q 3769 2881 3769 2247 
Q 3769 1728 3584 1258 
Q 3400 788 3053 416 
Q 2822 169 2531 39 
Q 2241 -91 1919 -91 
Q 1547 -91 1294 64 
Q 1041 219 916 525 
L 556 -1331 
L -19 -1331 
L 922 3500 
L 1497 3500 
L 1394 2969 
z
" transform="scale(0.015625)"/>
      <path id="DejaVuSans-Oblique-68" d="M 3566 2113 
L 3156 0 
L 2578 0 
L 2988 2091 
Q 3016 2238 3031 2350 
Q 3047 2463 3047 2528 
Q 3047 2791 2881 2937 
Q 2716 3084 2419 3084 
Q 1956 3084 1617 2771 
Q 1278 2459 1178 1941 
L 800 0 
L 225 0 
L 1172 4863 
L 1747 4863 
L 1375 2950 
Q 1594 3244 1934 3414 
Q 2275 3584 2650 3584 
Q 3113 3584 3367 3334 
Q 3622 3084 3622 2631 
Q 3622 2519 3608 2391 
Q 3594 2263 3566 2113 
z
" transform="scale(0.015625)"/>
      <path id="DejaVuSans-2f" d="M 1625 4666 
L 2156 4666 
L 531 -594 
L 0 -594 
L 1625 4666 
z
" transform="scale(0.015625)"/>
      <path id="DejaVuSans-32" d="M 1228 531 
L 3431 531 
L 3431 0 
L 469 0 
L 469 531 
Q 828 903 1448 1529 
Q 2069 2156 2228 2338 
Q 2531 2678 2651 2914 
Q 2772 3150 2772 3378 
Q 2772 3750 2511 3984 
Q 2250 4219 1831 4219 
Q 1534 4219 1204 4116 
Q 875 4013 500 3803 
L 500 4441 
Q 881 4594 1212 4672 
Q 1544 4750 1819 4750 
Q 2544 4750 2975 4387 
Q 3406 4025 3406 3419 
Q 3406 3131 3298 2873 
Q 3191 2616 2906 2266 
Q 2828 2175 2409 1742 
Q 1991 1309 1228 531 
z
" transform="scale(0.015625)"/>
     </defs>
     <use xlink:href="#DejaVuSans-45" transform="translate(0 0.015625)"/>
     <use xlink:href="#DejaVuSans-6e" transform="translate(63.183594 0.015625)"/>
     <use xlink:href="#DejaVuSans-76" transform="translate(126.5625 0.015625)"/>
     <use xlink:href="#DejaVuSans-65" transform="translate(185.742188 0.015625)"/>
     <use xlink:href="#DejaVuSans-6c" transform="translate(247.265625 0.015625)"/>
     <use xlink:href="#DejaVuSans-6f" transform="translate(275.048828 0.015625)"/>
     <use xlink:href="#DejaVuSans-70" transform="translate(336.230469 0.015625)"/>
     <use xlink:href="#DejaVuSans-65" transform="translate(399.707031 0.015625)"/>
     <use xlink:href="#DejaVuSans-20" transform="translate(461.230469 0.015625)"/>
     <use xlink:href="#DejaVuSans-61" transform="translate(493.017578 0.015625)"/>
     <use xlink:href="#DejaVuSans-74" transform="translate(554.296875 0.015625)"/>
     <use xlink:href="#DejaVuSans-20" transform="translate(593.505859 0.015625)"/>
     <use xlink:href="#DejaVuSans-Oblique-76" transform="translate(625.292969 0.015625)"/>
     <use xlink:href="#DejaVuSans-Oblique-67" transform="translate(684.472656 -16.390625) scale(0.7)"/>
     <use xlink:href="#DejaVuSans-20" transform="translate(731.640625 0.015625)"/>
     <use xlink:href="#DejaVuSans-28" transform="translate(763.427734 0.015625)"/>
     <use xlink:href="#DejaVuSans-6f" transform="translate(802.441406 0.015625)"/>
     <use xlink:href="#DejaVuSans-72" transform="translate(863.623047 0.015625)"/>
     <use xlink:href="#DejaVuSans-61" transform="translate(904.736328 0.015625)"/>
     <use xlink:href="#DejaVuSans-6e" transform="translate(966.015625 0.015625)"/>
     <use xlink:href="#DejaVuSans-67" transform="translate(1029.394531 0.015625)"/>
     <use xlink:href="#DejaVuSans-65" transform="translate(1092.871094 0.015625)"/>
     <use xlink:href="#DejaVuSans-29" transform="translate(1154.394531 0.015625)"/>
     <use xlink:href="#DejaVuSans-20" transform="translate(1193.408203 0.015625)"/>
     <use xlink:href="#DejaVuSans-6f" transform="translate(1225.195312 0.015625)"/>
     <use xlink:href="#DejaVuSans-75" transform="translate(1286.376953 0.015625)"/>
     <use xlink:href="#DejaVuSans-74" transform="translate(1349.755859 0.015625)"/>
     <use xlink:href="#DejaVuSans-72" transform="translate(1388.964844 0.015625)"/>
     <use xlink:href="#DejaVuSans-75" transform="translate(1430.078125 0.015625)"/>
     <use xlink:href="#DejaVuSans-6e" transform="translate(1493.457031 0.015625)"/>
     <use xlink:href="#DejaVuSans-73" transform="translate(1556.835938 0.015625)"/>
     <use xlink:href="#DejaVuSans-20" transform="translate(1608.935547 0.015625)"/>
     <use xlink:href="#DejaVuSans-63" transform="translate(1640.722656 0.015625)"/>
     <use xlink:href="#DejaVuSans-72" transform="translate(1695.703125 0.015625)"/>
     <use xlink:href="#DejaVuSans-65" transform="translate(1736.816406 0.015625)"/>
     <use xlink:href="#DejaVuSans-73" transform="translate(1798.339844 0.015625)"/>
     <use xlink:href="#DejaVuSans-74" transform="translate(1850.439453 0.015625)"/>
     <use xlink:href="#DejaVuSans-20" transform="translate(1889.648438 0.015625)"/>
     <use xlink:href="#DejaVuSans-61" transform="translate(1921.435547 0.015625)"/>
     <use xlink:href="#DejaVuSans-74" transform="translate(1982.714844 0.015625)"/>
     <use xlink:href="#DejaVuSans-20" transform="translate(2021.923828 0.015625)"/>
     <use xlink:href="#DejaVuSans-Oblique-76" transform="translate(2053.710938 0.015625)"/>
     <use xlink:href="#DejaVuSans-Oblique-70" transform="translate(2112.890625 -16.390625) scale(0.7)"/>
     <use xlink:href="#DejaVuSans-Oblique-68" transform="translate(2157.324219 -16.390625) scale(0.7)"/>
     <use xlink:href="#DejaVuSans-3d" transform="translate(2223.90625 0.015625)"/>
     <use xlink:href="#DejaVuSans-Oblique-76" transform="translate(2327.177734 0.015625)"/>
     <use xlink:href="#DejaVuSans-Oblique-67" transform="translate(2386.357422 -16.390625) scale(0.7)"/>
     <use xlink:href="#DejaVuSans-2f" transform="translate(2433.525391 0.015625)"/>
     <use xlink:href="#DejaVuSans-32" transform="translate(2463.591797 0.015625)"/>
     <use xlink:href="#DejaVuSans-20" transform="translate(2527.214844 0.015625)"/>
     <use xlink:href="#DejaVuSans-28" transform="translate(2559.001953 0.015625)"/>
     <use xlink:href="#DejaVuSans-70" transform="translate(2598.015625 0.015625)"/>
     <use xlink:href="#DejaVuSans-75" transform="translate(2661.492188 0.015625)"/>
     <use xlink:href="#DejaVuSans-72" transform="translate(2724.871094 0.015625)"/>
     <use xlink:href="#DejaVuSans-70" transform="translate(2765.984375 0.015625)"/>
     <use xlink:href="#DejaVuSans-6c" transform="translate(2829.460938 0.015625)"/>
     <use xlink:href="#DejaVuSans-65" transform="translate(2857.244141 0.015625)"/>
     <use xlink:href="#DejaVuSans-29" transform="translate(2918.767578 0.015625)"/>
    </g>
   </g>
  </g>
  <g id="axes_2">
   <g id="patch_5">
    <path d="M 26.68 234.268 
L 463.32 234.268 
L 463.32 139.596 
L 26.68 139.596 
z
" style="fill: #ffffff"/>
   </g>
   <g id="matplotlib.axis_3">
    <g id="xtick_10">
     <g id="line2d_15">
      <g>
       <use xlink:href="#mdcf5c39ccc" x="36.603636" y="234.268" style="stroke: #000000; stroke-width: 0.8"/>
      </g>
     </g>
    </g>
    <g id="xtick_11">
     <g id="line2d_16">
      <g>
       <use xlink:href="#mdcf5c39ccc" x="86.221818" y="234.268" style="stroke: #000000; stroke-width: 0.8"/>
      </g>
     </g>
    </g>
    <g id="xtick_12">
     <g id="line2d_17">
      <g>
       <use xlink:href="#mdcf5c39ccc" x="135.84" y="234.268" style="stroke: #000000; stroke-width: 0.8"/>
      </g>
     </g>
    </g>
    <g id="xtick_13">
     <g id="line2d_18">
      <g>
       <use xlink:href="#mdcf5c39ccc" x="185.458182" y="234.268" style="stroke: #000000; stroke-width: 0.8"/>
      </g>
     </g>
    </g>
    <g id="xtick_14">
     <g id="line2d_19">
      <g>
       <use xlink:href="#mdcf5c39ccc" x="235.076364" y="234.268" style="stroke: #000000; stroke-width: 0.8"/>
      </g>
     </g>
    </g>
    <g id="xtick_15">
     <g id="line2d_20">
      <g>
       <use xlink:href="#mdcf5c39ccc" x="284.694545" y="234.268" style="stroke: #000000; stroke-width: 0.8"/>
      </g>
     </g>
    </g>
    <g id="xtick_16">
     <g id="line2d_21">
      <g>
       <use xlink:href="#mdcf5c39ccc" x="334.312727" y="234.268" style="stroke: #000000; stroke-width: 0.8"/>
      </g>
     </g>
    </g>
    <g id="xtick_17">
     <g id="line2d_22">
      <g>
       <use xlink:href="#mdcf5c39ccc" x="383.930909" y="234.268" style="stroke: #000000; stroke-width: 0.8"/>
      </g>
     </g>
    </g>
    <g id="xtick_18">
     <g id="line2d_23">
      <g>
       <use xlink:href="#mdcf5c39ccc" x="433.549091" y="234.268" style="stroke: #000000; stroke-width: 0.8"/>
      </g>
     </g>
    </g>
   </g>
   <g id="matplotlib.axis_4">
    <g id="text_3">
     <!-- t = 2 -->
     <g transform="translate(20.392344 200.692313) rotate(-90) scale(0.11 -0.11)">
      <use xlink:href="#DejaVuSans-74"/>
      <use xlink:href="#DejaVuSans-20" transform="translate(39.208984 0)"/>
      <use xlink:href="#DejaVuSans-3d" transform="translate(70.996094 0)"/>
      <use xlink:href="#DejaVuSans-20" transform="translate(154.785156 0)"/>
      <use xlink:href="#DejaVuSans-32" transform="translate(186.572266 0)"/>
     </g>
    </g>
   </g>
   <g id="line2d_24">
    <path d="M 46.527273 186.932283 
L 80.681659 186.84803 
L 85.645959 186.841418 
L 90.014544 187.085349 
L 93.985984 187.248279 
L 96.56742 187.114974 
L 99.347428 186.731621 
L 103.120297 186.212808 
L 104.907445 186.203388 
L 106.496021 186.407879 
L 108.283169 186.876123 
L 113.644613 188.532768 
L 114.836045 188.564134 
L 116.027477 188.358835 
L 117.218909 187.90488 
L 118.608914 187.094763 
L 120.793206 185.476828 
L 122.580354 184.267931 
L 123.573214 183.821414 
L 124.566074 183.626592 
L 125.360362 183.688623 
L 126.15465 183.962823 
L 126.948938 184.453457 
L 127.941798 185.355414 
L 129.13323 186.790465 
L 133.303243 192.250776 
L 134.097531 192.804575 
L 134.693247 193.0153 
L 135.288963 193.028478 
L 135.884679 192.830353 
L 136.480395 192.413836 
L 137.274683 191.520336 
L 138.068971 190.262332 
L 139.061831 188.252231 
L 140.650407 184.393874 
L 142.636127 179.646948 
L 143.628987 177.864964 
L 144.423275 176.934083 
L 145.018991 176.587753 
L 145.416135 176.541778 
L 145.813279 176.651436 
L 146.408995 177.116183 
L 147.004711 177.943923 
L 147.600427 179.126065 
L 148.394716 181.214362 
L 149.387576 184.518907 
L 150.976152 190.779975 
L 152.7633 197.684144 
L 153.75616 200.664799 
L 154.550448 202.298594 
L 155.146164 202.987701 
L 155.543308 203.164826 
L 155.940452 203.104194 
L 156.337596 202.799344 
L 156.73474 202.247391 
L 157.330456 200.959048 
L 157.926172 199.1366 
L 158.72046 195.945299 
L 159.71332 190.944439 
L 161.500468 180.391617 
L 163.089045 171.450045 
L 164.081905 167.138687 
L 164.677621 165.282767 
L 165.273337 164.082723 
L 165.670481 163.680523 
L 166.067625 163.613655 
L 166.464769 163.89139 
L 166.861913 164.517939 
L 167.457629 166.108068 
L 168.053345 168.453347 
L 168.847633 172.659394 
L 169.840493 179.359769 
L 171.429069 192.064528 
L 173.216217 206.067663 
L 174.209077 212.167856 
L 175.003365 215.602645 
L 175.599081 217.160169 
L 175.996225 217.667702 
L 176.393369 217.731633 
L 176.790513 217.342963 
L 177.187657 216.499423 
L 177.783374 214.393211 
L 178.37909 211.320273 
L 179.173378 205.860553 
L 180.166238 197.250448 
L 181.953386 179.073553 
L 183.541962 163.677863 
L 184.534822 156.186779 
L 185.32911 152.021176 
L 185.924826 150.162035 
L 186.32197 149.574282 
L 186.520542 149.482265 
L 186.719114 149.526496 
L 187.116258 150.025682 
L 187.513402 151.070653 
L 188.109118 153.638526 
L 188.704834 157.344847 
L 189.499122 163.868633 
L 190.491982 174.053278 
L 192.477702 197.61891 
L 193.867707 212.901522 
L 194.860567 221.367992 
L 195.456283 225.053163 
L 196.051999 227.522382 
L 196.449143 228.445255 
L 196.846287 228.768486 
L 197.044859 228.70238 
L 197.442003 228.11399 
L 197.839147 226.923048 
L 198.434863 224.041618 
L 199.030579 219.926921 
L 199.824867 212.751501 
L 200.817727 201.662206 
L 204.590595 156.420594 
L 205.384883 150.074742 
L 205.980599 146.699386 
L 206.576315 144.638071 
L 206.973459 144.028954 
L 207.172031 143.957957 
L 207.370603 144.0431 
L 207.767748 144.679584 
L 208.164892 145.928145 
L 208.760608 148.903701 
L 209.356324 153.108199 
L 210.150612 160.372564 
L 211.342044 173.89949 
L 214.519196 212.064165 
L 215.313484 219.041741 
L 216.107772 224.085327 
L 216.703488 226.431221 
L 217.100632 227.270931 
L 217.497776 227.520392 
L 217.696348 227.423644 
L 218.093492 226.791765 
L 218.490636 225.58781 
L 219.086352 222.760209 
L 219.682068 218.806113 
L 220.476356 212.036954 
L 221.667788 199.571787 
L 224.646369 166.933084 
L 225.639229 158.999182 
L 226.433517 154.596936 
L 227.029233 152.578556 
L 227.426377 151.872539 
L 227.823521 151.683389 
L 228.022093 151.781599 
L 228.419237 152.357324 
L 228.816381 153.425021 
L 229.412097 155.897444 
L 230.206385 160.649148 
L 231.199245 168.453921 
L 232.787821 183.34798 
L 234.574969 199.702588 
L 235.567829 206.937985 
L 236.362117 211.231434 
L 236.957833 213.441033 
L 237.55355 214.728596 
L 237.950694 215.065761 
L 238.347838 214.988903 
L 238.744982 214.507461 
L 239.142126 213.636734 
L 239.737842 211.647668 
L 240.53213 207.868587 
L 241.52499 201.7294 
L 243.312138 188.69475 
L 244.900714 177.692677 
L 245.893574 172.251798 
L 246.687862 169.058052 
L 247.283578 167.432535 
L 247.879294 166.500526 
L 248.276438 166.267448 
L 248.673582 166.340225 
L 249.070726 166.709744 
L 249.46787 167.362686 
L 250.063586 168.834884 
L 250.857874 171.600675 
L 251.850734 176.045072 
L 254.035027 187.404299 
L 255.425031 193.899846 
L 256.417891 197.452087 
L 257.212179 199.438213 
L 257.807895 200.379864 
L 258.403611 200.840565 
L 258.800755 200.883689 
L 259.197899 200.722367 
L 259.595043 200.365649 
L 260.190759 199.490436 
L 260.985047 197.767845 
L 261.977907 194.926244 
L 263.765055 188.866013 
L 265.353631 183.755862 
L 266.346491 181.220844 
L 267.140779 179.71478 
L 267.736496 178.927314 
L 268.332212 178.444634 
L 268.927928 178.265485 
L 269.523644 178.378503 
L 270.11936 178.763166 
L 270.913648 179.64845 
L 271.906508 181.231402 
L 273.296512 183.983594 
L 275.480804 188.344144 
L 276.473664 189.912868 
L 277.466524 191.054253 
L 278.260812 191.619325 
L 279.0551 191.866933 
L 279.849388 191.810162 
L 280.643676 191.478935 
L 281.636536 190.746244 
L 282.827969 189.541078 
L 286.402265 185.694181 
L 287.395125 184.981751 
L 288.387985 184.527149 
L 289.380845 184.340329 
L 290.373705 184.40566 
L 291.366565 184.686425 
L 292.756569 185.340896 
L 297.323725 187.744796 
L 298.71373 188.093894 
L 300.103734 188.183795 
L 301.493738 188.04688 
L 303.479458 187.591618 
L 307.450898 186.606291 
L 309.436618 186.392992 
L 311.422338 186.412237 
L 314.202347 186.687674 
L 318.570931 187.111407 
L 321.549511 187.148112 
L 327.3081 186.90843 
L 332.073828 186.852771 
L 350.342453 186.923344 
L 442.082723 186.932 
L 443.472727 186.932 
L 443.472727 186.932 
" clip-path="url(#p713b1ce40f)" style="fill: none; stroke: #009e73; stroke-width: 1.4; stroke-linecap: square"/>
   </g>
   <g id="line2d_25">
    <path d="M 46.527273 186.92979 
L 83.064523 186.808571 
L 95.375988 186.553784 
L 103.914585 186.165102 
L 110.666033 185.643998 
L 116.424621 184.983395 
L 121.587494 184.16928 
L 126.353222 183.188852 
L 130.721806 182.063939 
L 134.891819 180.762786 
L 138.863259 179.298851 
L 142.834699 177.603527 
L 146.806139 175.67169 
L 150.976152 173.392554 
L 155.344736 170.746846 
L 160.309036 167.464045 
L 166.464769 163.10188 
L 179.37195 153.866695 
L 183.740534 151.066505 
L 187.31483 149.023915 
L 190.491982 147.444058 
L 193.470563 146.196854 
L 196.250571 145.25946 
L 199.030579 144.557867 
L 201.612015 144.12853 
L 204.193451 143.920008 
L 206.774887 143.935553 
L 209.356324 144.174922 
L 211.93776 144.634384 
L 214.717768 145.367083 
L 217.497776 146.333676 
L 220.476356 147.609506 
L 223.653509 149.216318 
L 227.227805 151.284241 
L 231.397817 153.973581 
L 236.759261 157.725949 
L 252.843595 169.17769 
L 257.609323 172.197087 
L 261.977907 174.704198 
L 266.147919 176.840098 
L 270.11936 178.632219 
L 274.0908 180.18993 
L 278.260812 181.583525 
L 282.430825 182.746479 
L 286.997981 183.781795 
L 291.763709 184.630585 
L 297.125153 185.349404 
L 303.082314 185.915275 
L 310.032334 186.346203 
L 318.769503 186.654415 
L 330.882396 186.842719 
L 352.923889 186.923562 
L 443.472727 186.932 
L 443.472727 186.932 
" clip-path="url(#p713b1ce40f)" style="fill: none; stroke-dasharray: 3.7,1.6; stroke-dashoffset: 0; stroke: #999999"/>
   </g>
   <g id="line2d_26">
    <path d="M 46.527273 186.93421 
L 83.064523 187.055429 
L 95.375988 187.310216 
L 103.914585 187.698898 
L 110.666033 188.220002 
L 116.424621 188.880605 
L 121.587494 189.69472 
L 126.353222 190.675148 
L 130.721806 191.800061 
L 134.891819 193.101214 
L 138.863259 194.565149 
L 142.834699 196.260473 
L 146.806139 198.19231 
L 150.976152 200.471446 
L 155.344736 203.117154 
L 160.309036 206.399955 
L 166.464769 210.76212 
L 179.37195 219.997305 
L 183.740534 222.797495 
L 187.31483 224.840085 
L 190.491982 226.419942 
L 193.470563 227.667146 
L 196.250571 228.60454 
L 199.030579 229.306133 
L 201.612015 229.73547 
L 204.193451 229.943992 
L 206.774887 229.928447 
L 209.356324 229.689078 
L 211.93776 229.229616 
L 214.717768 228.496917 
L 217.497776 227.530324 
L 220.476356 226.254494 
L 223.653509 224.647682 
L 227.227805 222.579759 
L 231.397817 219.890419 
L 236.759261 216.138051 
L 252.843595 204.68631 
L 257.609323 201.666913 
L 261.977907 199.159802 
L 266.147919 197.023902 
L 270.11936 195.231781 
L 274.0908 193.67407 
L 278.260812 192.280475 
L 282.430825 191.117521 
L 286.997981 190.082205 
L 291.763709 189.233415 
L 297.125153 188.514596 
L 303.082314 187.948725 
L 310.032334 187.517797 
L 318.769503 187.209585 
L 330.882396 187.021281 
L 352.923889 186.940438 
L 443.472727 186.932 
L 443.472727 186.932 
" clip-path="url(#p713b1ce40f)" style="fill: none; stroke-dasharray: 3.7,1.6; stroke-dashoffset: 0; stroke: #999999"/>
   </g>
   <g id="line2d_27">
    <path d="M 205.305455 234.268 
L 205.305455 139.596 
" clip-path="url(#p713b1ce40f)" style="fill: none; stroke-dasharray: 1.2,1.98; stroke-dashoffset: 0; stroke: #e69f00; stroke-width: 1.2"/>
   </g>
   <g id="line2d_28">
    <path d="M 165.610909 234.268 
L 165.610909 139.596 
" clip-path="url(#p713b1ce40f)" style="fill: none; stroke-dasharray: 7.68,1.92,1.2,1.92; stroke-dashoffset: 0; stroke: #cc79a7; stroke-width: 1.2"/>
   </g>
   <g id="patch_6">
    <path d="M 26.68 234.268 
L 26.68 139.596 
" style="fill: none; stroke: #000000; stroke-linejoin: miter; stroke-linecap: square"/>
   </g>
   <g id="patch_7">
    <path d="M 26.68 234.268 
L 463.32 234.268 
" style="fill: none; stroke: #000000; stroke-linejoin: miter; stroke-linecap: square"/>
   </g>
  </g>
  <g id="axes_3">
   <g id="patch_8">
    <path d="M 26.68 344.32 
L 463.32 344.32 
L 463.32 249.648 
L 26.68 249.648 
z
" style="fill: #ffffff"/>
   </g>
   <g id="matplotlib.axis_5">
    <g id="xtick_19">
     <g id="line2d_29">
      <g>
       <use xlink:href="#mdcf5c39ccc" x="36.603636" y="344.32" style="stroke: #000000; stroke-width: 0.8"/>
      </g>
     </g>
     <g id="text_4">
      <!-- −2.5 -->
      <g transform="translate(23.248089 359.678281) scale(0.11 -0.11)">
       <defs>
        <path id="DejaVuSans-2212" d="M 678 2272 
L 4684 2272 
L 4684 1741 
L 678 1741 
L 678 2272 
z
" transform="scale(0.015625)"/>
        <path id="DejaVuSans-2e" d="M 684 794 
L 1344 794 
L 1344 0 
L 684 0 
L 684 794 
z
" transform="scale(0.015625)"/>
        <path id="DejaVuSans-35" d="M 691 4666 
L 3169 4666 
L 3169 4134 
L 1269 4134 
L 1269 2991 
Q 1406 3038 1543 3061 
Q 1681 3084 1819 3084 
Q 2600 3084 3056 2656 
Q 3513 2228 3513 1497 
Q 3513 744 3044 326 
Q 2575 -91 1722 -91 
Q 1428 -91 1123 -41 
Q 819 9 494 109 
L 494 744 
Q 775 591 1075 516 
Q 1375 441 1709 441 
Q 2250 441 2565 725 
Q 2881 1009 2881 1497 
Q 2881 1984 2565 2268 
Q 2250 2553 1709 2553 
Q 1456 2553 1204 2497 
Q 953 2441 691 2322 
L 691 4666 
z
" transform="scale(0.015625)"/>
       </defs>
       <use xlink:href="#DejaVuSans-2212"/>
       <use xlink:href="#DejaVuSans-32" transform="translate(83.789062 0)"/>
       <use xlink:href="#DejaVuSans-2e" transform="translate(147.412109 0)"/>
       <use xlink:href="#DejaVuSans-35" transform="translate(179.199219 0)"/>
      </g>
     </g>
    </g>
    <g id="xtick_20">
     <g id="line2d_30">
      <g>
       <use xlink:href="#mdcf5c39ccc" x="86.221818" y="344.32" style="stroke: #000000; stroke-width: 0.8"/>
      </g>
     </g>
     <g id="text_5">
      <!-- 0.0 -->
      <g transform="translate(77.475099 359.678281) scale(0.11 -0.11)">
       <use xlink:href="#DejaVuSans-30"/>
       <use xlink:href="#DejaVuSans-2e" transform="translate(63.623047 0)"/>
       <use xlink:href="#DejaVuSans-30" transform="translate(95.410156 0)"/>
      </g>
     </g>
    </g>
    <g id="xtick_21">
     <g id="line2d_31">
      <g>
       <use xlink:href="#mdcf5c39ccc" x="135.84" y="344.32" style="stroke: #000000; stroke-width: 0.8"/>
      </g>
     </g>
     <g id="text_6">
      <!-- 2.5 -->
      <g transform="translate(127.093281 359.678281) scale(0.11 -0.11)">
       <use xlink:href="#DejaVuSans-32"/>
       <use xlink:href="#DejaVuSans-2e" transform="translate(63.623047 0)"/>
       <use xlink:href="#DejaVuSans-35" transform="translate(95.410156 0)"/>
      </g>
     </g>
    </g>
    <g id="xtick_22">
     <g id="line2d_32">
      <g>
       <use xlink:href="#mdcf5c39ccc" x="185.458182" y="344.32" style="stroke: #000000; stroke-width: 0.8"/>
      </g>
     </g>
     <g id="text_7">
      <!-- 5.0 -->
      <g transform="translate(176.711463 359.678281) scale(0.11 -0.11)">
       <use xlink:href="#DejaVuSans-35"/>
       <use xlink:href="#DejaVuSans-2e" transform="translate(63.623047 0)"/>
       <use xlink:href="#DejaVuSans-30" transform="translate(95.410156 0)"/>
      </g>
     </g>
    </g>
    <g id="xtick_23">
     <g id="line2d_33">
      <g>
       <use xlink:href="#mdcf5c39ccc" x="235.076364" y="344.32" style="stroke: #000000; stroke-width: 0.8"/>
      </g>
     </g>
     <g id="text_8">
      <!-- 7.5 -->
      <g transform="translate(226.329645 359.678281) scale(0.11 -0.11)">
       <defs>
        <path id="DejaVuSans-37" d="M 525 4666 
L 3525 4666 
L 3525 4397 
L 1831 0 
L 1172 0 
L 2766 4134 
L 525 4134 
L 525 4666 
z
" transform="scale(0.015625)"/>
       </defs>
       <use xlink:href="#DejaVuSans-37"/>
       <use xlink:href="#DejaVuSans-2e" transform="translate(63.623047 0)"/>
       <use xlink:href="#DejaVuSans-35" transform="translate(95.410156 0)"/>
      </g>
     </g>
    </g>
    <g id="xtick_24">
     <g id="line2d_34">
      <g>
       <use xlink:href="#mdcf5c39ccc" x="284.694545" y="344.32" style="stroke: #000000; stroke-width: 0.8"/>
      </g>
     </g>
     <g id="text_9">
      <!-- 10.0 -->
      <g transform="translate(272.448452 359.678281) scale(0.11 -0.11)">
       <defs>
        <path id="DejaVuSans-31" d="M 794 531 
L 1825 531 
L 1825 4091 
L 703 3866 
L 703 4441 
L 1819 4666 
L 2450 4666 
L 2450 531 
L 3481 531 
L 3481 0 
L 794 0 
L 794 531 
z
" transform="scale(0.015625)"/>
       </defs>
       <use xlink:href="#DejaVuSans-31"/>
       <use xlink:href="#DejaVuSans-30" transform="translate(63.623047 0)"/>
       <use xlink:href="#DejaVuSans-2e" transform="translate(127.246094 0)"/>
       <use xlink:href="#DejaVuSans-30" transform="translate(159.033203 0)"/>
      </g>
     </g>
    </g>
    <g id="xtick_25">
     <g id="line2d_35">
      <g>
       <use xlink:href="#mdcf5c39ccc" x="334.312727" y="344.32" style="stroke: #000000; stroke-width: 0.8"/>
      </g>
     </g>
     <g id="text_10">
      <!-- 12.5 -->
      <g transform="translate(322.066634 359.678281) scale(0.11 -0.11)">
       <use xlink:href="#DejaVuSans-31"/>
       <use xlink:href="#DejaVuSans-32" transform="translate(63.623047 0)"/>
       <use xlink:href="#DejaVuSans-2e" transform="translate(127.246094 0)"/>
       <use xlink:href="#DejaVuSans-35" transform="translate(159.033203 0)"/>
      </g>
     </g>
    </g>
    <g id="xtick_26">
     <g id="line2d_36">
      <g>
       <use xlink:href="#mdcf5c39ccc" x="383.930909" y="344.32" style="stroke: #000000; stroke-width: 0.8"/>
      </g>
     </g>
     <g id="text_11">
      <!-- 15.0 -->
      <g transform="translate(371.684815 359.678281) scale(0.11 -0.11)">
       <use xlink:href="#DejaVuSans-31"/>
       <use xlink:href="#DejaVuSans-35" transform="translate(63.623047 0)"/>
       <use xlink:href="#DejaVuSans-2e" transform="translate(127.246094 0)"/>
       <use xlink:href="#DejaVuSans-30" transform="translate(159.033203 0)"/>
      </g>
     </g>
    </g>
    <g id="xtick_27">
     <g id="line2d_37">
      <g>
       <use xlink:href="#mdcf5c39ccc" x="433.549091" y="344.32" style="stroke: #000000; stroke-width: 0.8"/>
      </g>
     </g>
     <g id="text_12">
      <!-- 17.5 -->
      <g transform="translate(421.302997 359.678281) scale(0.11 -0.11)">
       <use xlink:href="#DejaVuSans-31"/>
       <use xlink:href="#DejaVuSans-37" transform="translate(63.623047 0)"/>
       <use xlink:href="#DejaVuSans-2e" transform="translate(127.246094 0)"/>
       <use xlink:href="#DejaVuSans-35" transform="translate(159.033203 0)"/>
      </g>
     </g>
    </g>
    <g id="text_13">
     <!-- position (arb. units) -->
     <g transform="translate(191.035547 374.324219) scale(0.11 -0.11)">
      <defs>
       <path id="DejaVuSans-69" d="M 603 3500 
L 1178 3500 
L 1178 0 
L 603 0 
L 603 3500 
z
M 603 4863 
L 1178 4863 
L 1178 4134 
L 603 4134 
L 603 4863 
z
" transform="scale(0.015625)"/>
       <path id="DejaVuSans-62" d="M 3116 1747 
Q 3116 2381 2855 2742 
Q 2594 3103 2138 3103 
Q 1681 3103 1420 2742 
Q 1159 2381 1159 1747 
Q 1159 1113 1420 752 
Q 1681 391 2138 391 
Q 2594 391 2855 752 
Q 3116 1113 3116 1747 
z
M 1159 2969 
Q 1341 3281 1617 3432 
Q 1894 3584 2278 3584 
Q 2916 3584 3314 3078 
Q 3713 2572 3713 1747 
Q 3713 922 3314 415 
Q 2916 -91 2278 -91 
Q 1894 -91 1617 61 
Q 1341 213 1159 525 
L 1159 0 
L 581 0 
L 581 4863 
L 1159 4863 
L 1159 2969 
z
" transform="scale(0.015625)"/>
      </defs>
      <use xlink:href="#DejaVuSans-70"/>
      <use xlink:href="#DejaVuSans-6f" transform="translate(63.476562 0)"/>
      <use xlink:href="#DejaVuSans-73" transform="translate(124.658203 0)"/>
      <use xlink:href="#DejaVuSans-69" transform="translate(176.757812 0)"/>
      <use xlink:href="#DejaVuSans-74" transform="translate(204.541016 0)"/>
      <use xlink:href="#DejaVuSans-69" transform="translate(243.75 0)"/>
      <use xlink:href="#DejaVuSans-6f" transform="translate(271.533203 0)"/>
      <use xlink:href="#DejaVuSans-6e" transform="translate(332.714844 0)"/>
      <use xlink:href="#DejaVuSans-20" transform="translate(396.09375 0)"/>
      <use xlink:href="#DejaVuSans-28" transform="translate(427.880859 0)"/>
      <use xlink:href="#DejaVuSans-61" transform="translate(466.894531 0)"/>
      <use xlink:href="#DejaVuSans-72" transform="translate(528.173828 0)"/>
      <use xlink:href="#DejaVuSans-62" transform="translate(569.287109 0)"/>
      <use xlink:href="#DejaVuSans-2e" transform="translate(632.763672 0)"/>
      <use xlink:href="#DejaVuSans-20" transform="translate(664.550781 0)"/>
      <use xlink:href="#DejaVuSans-75" transform="translate(696.337891 0)"/>
      <use xlink:href="#DejaVuSans-6e" transform="translate(759.716797 0)"/>
      <use xlink:href="#DejaVuSans-69" transform="translate(823.095703 0)"/>
      <use xlink:href="#DejaVuSans-74" transform="translate(850.878906 0)"/>
      <use xlink:href="#DejaVuSans-73" transform="translate(890.087891 0)"/>
      <use xlink:href="#DejaVuSans-29" transform="translate(942.1875 0)"/>
     </g>
    </g>
   </g>
   <g id="matplotlib.axis_6">
    <g id="text_14">
     <!-- t = 4 -->
     <g transform="translate(20.392344 310.744313) rotate(-90) scale(0.11 -0.11)">
      <defs>
       <path id="DejaVuSans-34" d="M 2419 4116 
L 825 1625 
L 2419 1625 
L 2419 4116 
z
M 2253 4666 
L 3047 4666 
L 3047 1625 
L 3713 1625 
L 3713 1100 
L 3047 1100 
L 3047 0 
L 2419 0 
L 2419 1100 
L 313 1100 
L 313 1709 
L 2253 4666 
z
" transform="scale(0.015625)"/>
      </defs>
      <use xlink:href="#DejaVuSans-74"/>
      <use xlink:href="#DejaVuSans-20" transform="translate(39.208984 0)"/>
      <use xlink:href="#DejaVuSans-3d" transform="translate(70.996094 0)"/>
      <use xlink:href="#DejaVuSans-20" transform="translate(154.785156 0)"/>
      <use xlink:href="#DejaVuSans-34" transform="translate(186.572266 0)"/>
     </g>
    </g>
   </g>
   <g id="line2d_38">
    <path d="M 46.527273 296.984 
L 162.294756 296.873815 
L 166.663341 296.867758 
L 170.634781 297.113497 
L 175.003365 297.356655 
L 177.386229 297.245533 
L 179.769094 296.906934 
L 184.534822 296.138814 
L 186.123398 296.137521 
L 187.711974 296.368468 
L 189.30055 296.830946 
L 191.683414 297.796933 
L 193.867707 298.598916 
L 195.059139 298.830647 
L 196.250571 298.830767 
L 197.243431 298.623011 
L 198.434863 298.115038 
L 199.626295 297.35175 
L 201.413443 295.892138 
L 203.597735 294.138268 
L 204.590595 293.581109 
L 205.583455 293.290575 
L 206.377743 293.294135 
L 207.172031 293.531429 
L 207.96632 294.01084 
L 208.760608 294.725851 
L 209.753468 295.915186 
L 211.143472 297.980885 
L 213.724908 301.933655 
L 214.717768 303.028107 
L 215.512056 303.572525 
L 216.107772 303.74615 
L 216.703488 303.696353 
L 217.299204 303.410307 
L 217.89492 302.882809 
L 218.689208 301.810479 
L 219.483496 300.346867 
L 220.476356 298.059707 
L 222.263504 293.222601 
L 223.852081 289.113905 
L 224.844941 287.146835 
L 225.639229 286.109872 
L 226.234945 285.714088 
L 226.632089 285.651009 
L 227.029233 285.756928 
L 227.426377 286.036364 
L 228.022093 286.784461 
L 228.617809 287.922141 
L 229.412097 290.010808 
L 230.404957 293.416352 
L 231.794961 299.189718 
L 233.979253 308.409999 
L 234.972113 311.649114 
L 235.766401 313.437654 
L 236.362117 314.205263 
L 236.759261 314.414887 
L 237.156405 314.370026 
L 237.55355 314.063754 
L 237.950694 313.492974 
L 238.54641 312.143931 
L 239.142126 310.223053 
L 239.936414 306.846441 
L 240.929274 301.54097 
L 242.716422 290.318053 
L 244.304998 280.781845 
L 245.297858 276.164357 
L 245.893574 274.164319 
L 246.48929 272.856075 
L 246.886434 272.40361 
L 247.283578 272.304941 
L 247.680722 272.569862 
L 248.077866 273.202827 
L 248.673582 274.838461 
L 249.269298 277.270996 
L 250.063586 281.653389 
L 251.056446 288.655814 
L 252.645023 301.965544 
L 254.432171 316.674776 
L 255.425031 323.107641 
L 256.219319 326.75211 
L 256.815035 328.426423 
L 257.212179 328.990616 
L 257.609323 329.09346 
L 258.006467 328.725584 
L 258.403611 327.884614 
L 258.999327 325.748532 
L 259.595043 322.60683 
L 260.389331 317.000134 
L 261.382191 308.131973 
L 263.169339 289.362588 
L 264.757915 273.421966 
L 265.750775 265.636447 
L 266.545063 261.279832 
L 267.140779 259.308989 
L 267.537924 258.663133 
L 267.736496 258.547143 
L 267.935068 258.570831 
L 268.332212 259.03928 
L 268.729356 260.067273 
L 269.325072 262.634951 
L 269.920788 266.369993 
L 270.715076 272.972872 
L 271.707936 283.311092 
L 273.693656 307.295888 
L 275.08366 322.893305 
L 276.07652 331.565556 
L 276.870808 336.358031 
L 277.466524 338.49193 
L 277.863668 339.170675 
L 278.06224 339.281303 
L 278.260812 339.238275 
L 278.657956 338.691224 
L 279.0551 337.535248 
L 279.650816 334.694622 
L 280.246532 330.60742 
L 281.04082 323.449696 
L 282.03368 312.355979 
L 286.005121 265.126933 
L 286.799409 259.2112 
L 287.395125 256.203031 
L 287.792269 254.935758 
L 288.189413 254.280907 
L 288.387985 254.186135 
L 288.586557 254.246896 
L 288.983701 254.832813 
L 289.380845 256.028453 
L 289.976561 258.920467 
L 290.572277 263.037002 
L 291.366565 270.178934 
L 292.557997 283.518416 
L 295.735149 321.291083 
L 296.529437 328.230439 
L 297.323725 333.271951 
L 297.919442 335.642565 
L 298.316586 336.511907 
L 298.71373 336.801694 
L 298.912302 336.729119 
L 299.309446 336.153514 
L 299.70659 335.016161 
L 300.302306 332.306826 
L 300.898022 328.491007 
L 301.69231 321.931982 
L 302.883742 309.817465 
L 305.862322 277.98741 
L 306.855182 270.213897 
L 307.64947 265.876375 
L 308.245186 263.865107 
L 308.64233 263.143255 
L 309.039474 262.921659 
L 309.238046 262.997454 
L 309.63519 263.516173 
L 310.032334 264.511093 
L 310.62805 266.846518 
L 311.223766 270.101655 
L 312.018054 275.645728 
L 313.209487 285.772412 
L 315.989495 310.367428 
L 316.982355 316.981516 
L 317.776643 320.782652 
L 318.372359 322.646718 
L 318.769503 323.397033 
L 319.166647 323.749199 
L 319.563791 323.706365 
L 319.960935 323.277522 
L 320.358079 322.477247 
L 320.953795 320.625095 
L 321.748083 317.079734 
L 322.740943 311.295499 
L 324.528091 298.975958 
L 326.116667 288.550292 
L 327.109527 283.379518 
L 327.903816 280.331913 
L 328.499532 278.769947 
L 329.095248 277.860115 
L 329.492392 277.618679 
L 329.889536 277.664881 
L 330.28668 277.990161 
L 330.683824 278.582012 
L 331.27954 279.933349 
L 332.073828 282.490683 
L 333.066688 286.617497 
L 335.052408 296.246554 
L 336.442412 302.489473 
L 337.435272 306.017168 
L 338.22956 308.074174 
L 338.825276 309.117031 
L 339.420992 309.715061 
L 339.818136 309.867065 
L 340.21528 309.826339 
L 340.612424 309.599955 
L 341.20814 308.933967 
L 341.803856 307.914464 
L 342.598145 306.095737 
L 343.789577 302.678206 
L 346.768157 293.688043 
L 347.761017 291.472502 
L 348.555305 290.194323 
L 349.151021 289.553292 
L 349.746737 289.191418 
L 350.342453 289.104414 
L 350.938169 289.279022 
L 351.533885 289.693973 
L 352.328173 290.571762 
L 353.321033 292.07427 
L 354.909609 294.9837 
L 356.696757 298.181875 
L 357.88819 299.848711 
L 358.682478 300.648456 
L 359.476766 301.167931 
L 360.271054 301.401504 
L 361.065342 301.360924 
L 361.85963 301.073094 
L 362.85249 300.426085 
L 364.043922 299.355376 
L 367.618218 295.921355 
L 368.80965 295.181047 
L 369.80251 294.818156 
L 370.79537 294.69191 
L 371.78823 294.784366 
L 372.979663 295.132854 
L 374.568239 295.859936 
L 377.943963 297.478345 
L 379.333967 297.884339 
L 380.723971 298.063634 
L 382.113975 298.027903 
L 383.901123 297.743649 
L 389.858284 296.573121 
L 391.844004 296.510764 
L 394.42544 296.671751 
L 400.581172 297.16084 
L 403.956897 297.136902 
L 413.686925 296.921341 
L 430.565546 296.978575 
L 443.472727 296.986138 
L 443.472727 296.986138 
" clip-path="url(#pccb808c16e)" style="fill: none; stroke: #d55e00; stroke-width: 1.4; stroke-linecap: square"/>
   </g>
   <g id="line2d_39">
    <path d="M 46.527273 296.984 
L 161.301896 296.87352 
L 174.209077 296.623514 
L 182.946246 296.238609 
L 189.697694 295.72975 
L 195.456283 295.083395 
L 200.619155 294.285435 
L 205.384883 293.322892 
L 209.753468 292.216805 
L 213.92348 290.935552 
L 217.89492 289.491947 
L 221.86636 287.817771 
L 225.837801 285.90722 
L 230.007813 283.649668 
L 234.376397 281.024527 
L 239.142126 277.896258 
L 245.099286 273.700067 
L 259.396471 263.494296 
L 263.566483 260.855487 
L 267.140779 258.844608 
L 270.317932 257.298293 
L 273.296512 256.086561 
L 276.07652 255.185225 
L 278.856528 254.521932 
L 281.437964 254.129587 
L 284.019401 253.95885 
L 286.600837 254.012386 
L 289.182273 254.289359 
L 291.763709 254.785453 
L 294.543717 255.555876 
L 297.323725 256.557775 
L 300.302306 257.868098 
L 303.479458 259.507245 
L 307.053754 261.605379 
L 311.223766 264.321069 
L 316.783783 268.236304 
L 331.478112 278.727684 
L 336.442412 281.911312 
L 340.810996 284.452067 
L 344.981009 286.622286 
L 348.952449 288.447563 
L 352.923889 290.037682 
L 357.093901 291.463476 
L 361.263914 292.655985 
L 365.632498 293.678647 
L 370.398226 294.562427 
L 375.561099 295.289678 
L 381.319687 295.874065 
L 388.071136 296.330032 
L 396.41116 296.66015 
L 407.729765 296.869641 
L 426.792678 296.968211 
L 443.472727 296.98179 
L 443.472727 296.98179 
" clip-path="url(#pccb808c16e)" style="fill: none; stroke-dasharray: 3.7,1.6; stroke-dashoffset: 0; stroke: #999999"/>
   </g>
   <g id="line2d_40">
    <path d="M 46.527273 296.984 
L 161.301896 297.09448 
L 174.209077 297.344486 
L 182.946246 297.729391 
L 189.697694 298.23825 
L 195.456283 298.884605 
L 200.619155 299.682565 
L 205.384883 300.645108 
L 209.753468 301.751195 
L 213.92348 303.032448 
L 217.89492 304.476053 
L 221.86636 306.150229 
L 225.837801 308.06078 
L 230.007813 310.318332 
L 234.376397 312.943473 
L 239.142126 316.071742 
L 245.099286 320.267933 
L 259.396471 330.473704 
L 263.566483 333.112513 
L 267.140779 335.123392 
L 270.317932 336.669707 
L 273.296512 337.881439 
L 276.07652 338.782775 
L 278.856528 339.446068 
L 281.437964 339.838413 
L 284.019401 340.00915 
L 286.600837 339.955614 
L 289.182273 339.678641 
L 291.763709 339.182547 
L 294.543717 338.412124 
L 297.323725 337.410225 
L 300.302306 336.099902 
L 303.479458 334.460755 
L 307.053754 332.362621 
L 311.223766 329.646931 
L 316.783783 325.731696 
L 331.478112 315.240316 
L 336.442412 312.056688 
L 340.810996 309.515933 
L 344.981009 307.345714 
L 348.952449 305.520437 
L 352.923889 303.930318 
L 357.093901 302.504524 
L 361.263914 301.312015 
L 365.632498 300.289353 
L 370.398226 299.405573 
L 375.561099 298.678322 
L 381.319687 298.093935 
L 388.071136 297.637968 
L 396.41116 297.30785 
L 407.729765 297.098359 
L 426.792678 296.999789 
L 443.472727 296.98621 
L 443.472727 296.98621 
" clip-path="url(#pccb808c16e)" style="fill: none; stroke-dasharray: 3.7,1.6; stroke-dashoffset: 0; stroke: #999999"/>
   </g>
   <g id="line2d_41">
    <path d="M 284.694545 344.32 
L 284.694545 249.648 
" clip-path="url(#pccb808c16e)" style="fill: none; stroke-dasharray: 1.2,1.98; stroke-dashoffset: 0; stroke: #e69f00; stroke-width: 1.2"/>
   </g>
   <g id="line2d_42">
    <path d="M 205.305455 344.32 
L 205.305455 249.648 
" clip-path="url(#pccb808c16e)" style="fill: none; stroke-dasharray: 7.68,1.92,1.2,1.92; stroke-dashoffset: 0; stroke: #cc79a7; stroke-width: 1.2"/>
   </g>
   <g id="patch_9">
    <path d="M 26.68 344.32 
L 26.68 249.648 
" style="fill: none; stroke: #000000; stroke-linejoin: miter; stroke-linecap: square"/>
   </g>
   <g id="patch_10">
    <path d="M 26.68 344.32 
L 463.32 344.32 
" style="fill: none; stroke: #000000; stroke-linejoin: miter; stroke-linecap: square"/>
   </g>
  </g>
 </g>
 <defs>
  <clipPath id="p9a4a4a4a7e">
   <rect x="26.68" y="29.544" width="436.64" height="94.672"/>
  </clipPath>
  <clipPath id="p713b1ce40f">
   <rect x="26.68" y="139.596" width="436.64" height="94.672"/>
  </clipPath>
  <clipPath id="pccb808c16e">
   <rect x="26.68" y="249.648" width="436.64" height="94.672"/>
  </clipPath>
 </defs>
</svg>
