<?xml version="1.0" encoding="utf-8" standalone="no"?>
<!DOCTYPE svg PUBLIC "-//W3C//DTD SVG 1.1//EN"
  "http://www.w3.org/Graphics/SVG/1.1/DTD/svg11.dtd">
<svg xmlns:xlink="http://www.w3.org/1999/xlink" width="460.8pt" height="288pt" viewBox="0 0 460.8 288" xmlns="http://www.w3.org/2000/svg" version="1.1">
 <metadata>
  <rdf:RDF xmlns:dc="http://purl.org/dc/elements/1.1/" xmlns:cc="http://creativecommons.org/ns#" xmlns:rdf="http://www.w3.org/1999/02/22-rdf-syntax-ns#">
   <cc:Work>
    <dc:type rdf:resource="http://purl.org/dc/dcmitype/StillImage"/>
    <dc:date>2026-06-04T06:15:34.029521</dc:date>
    <dc:format>image/svg+xml</dc:format>
    <dc:creator>
     <cc:Agent>
      <dc:title>Matplotlib v3.10.8, https://matplotlib.org/</dc:title>
     </cc:Agent>
    </dc:creator>
   </cc:Work>
  </rdf:RDF>
 </metadata>
 <defs>
  <style type="text/css">*{stroke-linejoin: round; stroke-linecap: butt}</style>
 </defs>
 <g id="figure_1">
  <g id="patch_1">
   <path d="M 0 288 
L 460.8 288 
L 460.8 0 
L 0 0 
z
" style="fill: #ffffff"/>
  </g>
  <g id="axes_1">
   <g id="patch_2">
    <path d="M 63.794548 237.976 
L 439.098739 237.976 
L 439.098739 27.96 
L 63.794548 27.96 
z
" style="fill: #ffffff"/>
   </g>
   <g id="FillBetweenPolyCollection_1">
    <defs>
     <path id="ma83e1d58f2" d="M 63.794548 -238.966295 
L 63.794548 19.981333 
L 64.73516 19.981333 
L 65.675772 19.981333 
L 66.616384 19.981333 
L 67.556996 19.981333 
L 68.497608 19.981333 
L 69.43822 19.981333 
L 70.378832 19.981333 
L 71.319444 19.981333 
L 72.260057 19.981333 
L 73.200669 19.981333 
L 74.141281 19.981333 
L 75.081893 19.981333 
L 76.022505 19.981333 
L 76.963117 19.981333 
L 77.903729 19.981333 
L 78.844341 19.981333 
L 79.784953 19.981333 
L 80.725565 19.981333 
L 81.666177 19.981333 
L 82.606789 19.981333 
L 83.547401 19.981333 
L 84.488013 19.981333 
L 85.428625 19.981333 
L 86.369237 19.981333 
L 87.309849 19.981333 
L 88.250461 19.981333 
L 89.191073 19.981333 
L 90.131685 19.981333 
L 91.072297 19.981333 
L 92.012909 19.981333 
L 92.953521 19.981333 
L 93.894133 19.981333 
L 94.834745 19.981333 
L 95.775357 19.981333 
L 96.715969 19.981333 
L 97.656581 19.981333 
L 98.597193 19.981333 
L 99.537805 19.981333 
L 100.478417 19.981333 
L 101.419029 19.981333 
L 102.359641 19.981333 
L 103.300253 19.981333 
L 104.240865 19.981333 
L 105.181477 19.981333 
L 106.122089 19.981333 
L 107.062701 19.981333 
L 108.003313 19.981333 
L 108.943925 19.981333 
L 109.884537 19.981333 
L 110.825149 19.981333 
L 111.765761 19.981333 
L 112.706373 19.981333 
L 113.646985 19.981333 
L 114.587597 19.981333 
L 115.528209 19.981333 
L 116.468821 19.981333 
L 117.409433 19.981333 
L 118.350045 19.981333 
L 119.290657 19.981333 
L 120.231269 19.981333 
L 121.171881 19.981333 
L 122.112493 19.981333 
L 123.053105 19.981333 
L 123.993717 19.981333 
L 124.934329 19.981333 
L 125.874941 19.981333 
L 126.815553 19.981333 
L 127.756165 19.981333 
L 128.696777 19.981333 
L 129.637389 19.981333 
L 130.578001 19.981333 
L 131.518613 19.981333 
L 132.459225 19.981333 
L 133.399837 19.981333 
L 134.340449 19.981333 
L 135.281061 19.981333 
L 136.221673 19.981333 
L 137.162285 19.981333 
L 138.102897 19.981333 
L 139.043509 19.981333 
L 139.984121 19.981333 
L 140.924733 19.981333 
L 141.865345 19.981333 
L 142.805957 19.981333 
L 143.746569 19.981333 
L 144.687181 19.981333 
L 145.627793 19.981333 
L 146.568405 19.981333 
L 147.509017 19.981333 
L 148.449629 19.981333 
L 149.390241 19.981333 
L 150.330853 19.981333 
L 151.271465 19.981333 
L 152.212077 19.981333 
L 153.152689 19.981333 
L 154.093301 19.981333 
L 155.033913 19.981333 
L 155.974525 19.981333 
L 156.915137 19.981333 
L 157.855749 19.981333 
L 158.796361 19.981333 
L 159.736973 19.981333 
L 160.677585 19.981333 
L 161.618197 19.981333 
L 162.558809 19.981333 
L 163.499421 19.981333 
L 164.440033 19.981333 
L 165.380645 19.981333 
L 166.321257 19.981333 
L 167.261869 19.981333 
L 168.202481 19.981333 
L 169.143093 19.981333 
L 170.083705 19.981333 
L 171.024317 19.981333 
L 171.964929 19.981333 
L 172.905541 19.981333 
L 173.846153 19.981333 
L 174.786765 19.981333 
L 175.727377 19.981333 
L 176.667989 19.981333 
L 177.608601 19.981333 
L 178.549213 19.981333 
L 179.489825 19.981333 
L 180.430437 19.981333 
L 181.371049 19.981333 
L 182.311661 19.981333 
L 183.252273 19.981333 
L 184.192885 19.981333 
L 185.133497 19.981333 
L 186.074109 19.981333 
L 187.014721 19.981333 
L 187.955333 19.981333 
L 188.895945 19.981333 
L 189.836557 19.981333 
L 190.777169 19.981333 
L 191.717781 19.981333 
L 192.658393 19.981333 
L 193.599005 19.981333 
L 194.539617 19.981333 
L 195.480229 19.981333 
L 196.420842 19.981333 
L 197.361454 19.981333 
L 198.302066 19.981333 
L 199.242678 19.981333 
L 200.18329 19.981333 
L 201.123902 19.981333 
L 202.064514 19.981333 
L 203.005126 19.981333 
L 203.945738 19.981333 
L 204.88635 19.981333 
L 205.826962 19.981333 
L 206.767574 19.981333 
L 207.708186 19.981333 
L 208.648798 19.981333 
L 209.58941 19.981333 
L 210.530022 19.981333 
L 211.470634 19.981333 
L 212.411246 19.981333 
L 213.351858 19.981333 
L 214.29247 19.981333 
L 215.233082 19.981333 
L 216.173694 19.981333 
L 217.114306 19.981333 
L 218.054918 19.981333 
L 218.99553 19.981333 
L 219.936142 19.981333 
L 220.876754 19.981333 
L 221.817366 19.981333 
L 222.757978 19.981333 
L 223.69859 19.981333 
L 224.639202 19.981333 
L 225.579814 19.981333 
L 226.520426 19.981333 
L 227.461038 19.981333 
L 228.40165 19.981333 
L 229.342262 19.981333 
L 230.282874 19.981333 
L 231.223486 19.981333 
L 232.164098 19.981333 
L 233.10471 19.981333 
L 234.045322 19.981333 
L 234.985934 19.981333 
L 235.926546 19.981333 
L 236.867158 19.981333 
L 237.80777 19.981333 
L 238.748382 19.981333 
L 239.688994 19.981333 
L 240.629606 19.981333 
L 241.570218 19.981333 
L 242.51083 19.981333 
L 243.451442 19.981333 
L 244.392054 19.981333 
L 245.332666 19.981333 
L 246.273278 19.981333 
L 247.21389 19.981333 
L 248.154502 19.981333 
L 249.095114 19.981333 
L 250.035726 19.981333 
L 250.976338 19.981333 
L 251.91695 19.981333 
L 252.857562 19.981333 
L 253.798174 19.981333 
L 254.738786 19.981333 
L 255.679398 19.981333 
L 256.62001 19.981333 
L 257.560622 19.981333 
L 258.501234 19.981333 
L 259.441846 19.981333 
L 260.382458 19.981333 
L 261.32307 19.981333 
L 262.263682 19.981333 
L 263.204294 19.981333 
L 264.144906 19.981333 
L 265.085518 19.981333 
L 266.02613 19.981333 
L 266.966742 19.981333 
L 267.907354 19.981333 
L 268.847966 19.981333 
L 269.788578 19.981333 
L 270.72919 19.981333 
L 271.669802 19.981333 
L 272.610414 19.981333 
L 273.551026 19.981333 
L 274.491638 19.981333 
L 275.43225 19.981333 
L 276.372862 19.981333 
L 277.313474 19.981333 
L 278.254086 19.981333 
L 279.194698 19.981333 
L 280.13531 19.981333 
L 281.075922 19.981333 
L 282.016534 19.981333 
L 282.957146 19.981333 
L 283.897758 19.981333 
L 284.83837 19.981333 
L 285.778982 19.981333 
L 286.719594 19.981333 
L 287.660206 19.981333 
L 288.600818 19.981333 
L 289.54143 19.981333 
L 290.482042 19.981333 
L 291.422654 19.981333 
L 292.363266 19.981333 
L 293.303878 19.981333 
L 294.24449 19.981333 
L 295.185102 19.981333 
L 296.125714 19.981333 
L 297.066326 19.981333 
L 298.006938 19.981333 
L 298.94755 19.981333 
L 299.888162 19.981333 
L 300.828774 19.981333 
L 301.769386 19.981333 
L 302.709998 19.981333 
L 303.65061 19.981333 
L 304.591222 19.981333 
L 305.531834 19.981333 
L 306.472446 19.981333 
L 307.413058 19.981333 
L 308.35367 19.981333 
L 309.294282 19.981333 
L 310.234894 19.981333 
L 311.175506 19.981333 
L 312.116118 19.981333 
L 313.05673 19.981333 
L 313.997342 19.981333 
L 314.937954 19.981333 
L 315.878566 19.981333 
L 316.819178 19.981333 
L 317.75979 19.981333 
L 318.700402 19.981333 
L 319.641014 19.981333 
L 320.581627 19.981333 
L 321.522239 19.981333 
L 322.462851 19.981333 
L 323.403463 19.981333 
L 324.344075 19.981333 
L 325.284687 19.981333 
L 326.225299 19.981333 
L 327.165911 19.981333 
L 328.106523 19.981333 
L 329.047135 19.981333 
L 329.987747 19.981333 
L 330.928359 19.981333 
L 331.868971 19.981333 
L 332.809583 19.981333 
L 333.750195 19.981333 
L 334.690807 19.981333 
L 335.631419 19.981333 
L 336.572031 19.981333 
L 337.512643 19.981333 
L 338.453255 19.981333 
L 339.393867 19.981333 
L 340.334479 19.981333 
L 341.275091 19.981333 
L 342.215703 19.981333 
L 343.156315 19.981333 
L 344.096927 19.981333 
L 345.037539 19.981333 
L 345.978151 19.981333 
L 346.918763 19.981333 
L 347.859375 19.981333 
L 348.799987 19.981333 
L 349.740599 19.981333 
L 350.681211 19.981333 
L 351.621823 19.981333 
L 352.562435 19.981333 
L 353.503047 19.981333 
L 354.443659 19.981333 
L 355.384271 19.981333 
L 356.324883 19.981333 
L 357.265495 19.981333 
L 358.206107 19.981333 
L 359.146719 19.981333 
L 360.087331 19.981333 
L 361.027943 19.981333 
L 361.968555 19.981333 
L 362.909167 19.981333 
L 363.849779 19.981333 
L 364.790391 19.981333 
L 365.731003 19.981333 
L 366.671615 19.981333 
L 367.612227 19.981333 
L 368.552839 19.981333 
L 369.493451 19.981333 
L 370.434063 19.981333 
L 371.374675 19.981333 
L 372.315287 19.981333 
L 373.255899 19.981333 
L 374.196511 19.981333 
L 375.137123 19.981333 
L 376.077735 19.981333 
L 377.018347 19.981333 
L 377.958959 19.981333 
L 378.899571 19.981333 
L 379.840183 19.981333 
L 380.780795 19.981333 
L 381.721407 19.981333 
L 382.662019 19.981333 
L 383.602631 19.981333 
L 384.543243 19.981333 
L 385.483855 19.981333 
L 386.424467 19.981333 
L 387.365079 19.981333 
L 388.305691 19.981333 
L 389.246303 19.981333 
L 390.186915 19.981333 
L 391.127527 19.981333 
L 392.068139 19.981333 
L 393.008751 19.981333 
L 393.949363 19.981333 
L 394.889975 19.981333 
L 395.830587 19.981333 
L 396.771199 19.981333 
L 397.711811 19.981333 
L 398.652423 19.981333 
L 399.593035 19.981333 
L 400.533647 19.981333 
L 401.474259 19.981333 
L 402.414871 19.981333 
L 403.355483 19.981333 
L 404.296095 19.981333 
L 405.236707 19.981333 
L 406.177319 19.981333 
L 407.117931 19.981333 
L 408.058543 19.981333 
L 408.999155 19.981333 
L 409.939767 19.981333 
L 410.880379 19.981333 
L 411.820991 19.981333 
L 412.761603 19.981333 
L 413.702215 19.981333 
L 414.642827 19.981333 
L 415.583439 19.981333 
L 416.524051 19.981333 
L 417.464663 19.981333 
L 418.405275 19.981333 
L 419.345887 19.981333 
L 420.286499 19.981333 
L 421.227111 19.981333 
L 422.167723 19.981333 
L 423.108335 19.981333 
L 424.048947 19.981333 
L 424.989559 19.981333 
L 425.930171 19.981333 
L 426.870783 19.981333 
L 427.811395 19.981333 
L 428.752007 19.981333 
L 429.692619 19.981333 
L 430.633231 19.981333 
L 431.573843 19.981333 
L 432.514455 19.981333 
L 433.455067 19.981333 
L 434.395679 19.981333 
L 435.336291 19.981333 
L 436.276903 19.981333 
L 437.217515 19.981333 
L 438.158127 19.981333 
L 439.098739 19.981333 
L 439.098739 -98.955628 
L 439.098739 -98.955628 
L 438.158127 -99.306532 
L 437.217515 -99.657436 
L 436.276903 -100.00834 
L 435.336291 -100.359244 
L 434.395679 -100.710148 
L 433.455067 -101.061052 
L 432.514455 -101.411956 
L 431.573843 -101.76286 
L 430.633231 -102.113763 
L 429.692619 -102.464667 
L 428.752007 -102.815571 
L 427.811395 -103.166475 
L 426.870783 -103.517379 
L 425.930171 -103.868283 
L 424.989559 -104.219187 
L 424.048947 -104.570091 
L 423.108335 -104.920995 
L 422.167723 -105.271899 
L 421.227111 -105.622803 
L 420.286499 -105.973707 
L 419.345887 -106.324611 
L 418.405275 -106.675515 
L 417.464663 -107.026418 
L 416.524051 -107.377322 
L 415.583439 -107.728226 
L 414.642827 -108.07913 
L 413.702215 -108.430034 
L 412.761603 -108.780938 
L 411.820991 -109.131842 
L 410.880379 -109.482746 
L 409.939767 -109.83365 
L 408.999155 -110.184554 
L 408.058543 -110.535458 
L 407.117931 -110.886362 
L 406.177319 -111.237266 
L 405.236707 -111.588169 
L 404.296095 -111.939073 
L 403.355483 -112.289977 
L 402.414871 -112.640881 
L 401.474259 -112.991785 
L 400.533647 -113.342689 
L 399.593035 -113.693593 
L 398.652423 -114.044497 
L 397.711811 -114.395401 
L 396.771199 -114.746305 
L 395.830587 -115.097209 
L 394.889975 -115.448113 
L 393.949363 -115.799017 
L 393.008751 -116.149921 
L 392.068139 -116.500824 
L 391.127527 -116.851728 
L 390.186915 -117.202632 
L 389.246303 -117.553536 
L 388.305691 -117.90444 
L 387.365079 -118.255344 
L 386.424467 -118.606248 
L 385.483855 -118.957152 
L 384.543243 -119.308056 
L 383.602631 -119.65896 
L 382.662019 -120.009864 
L 381.721407 -120.360768 
L 380.780795 -120.711672 
L 379.840183 -121.062576 
L 378.899571 -121.413479 
L 377.958959 -121.764383 
L 377.018347 -122.115287 
L 376.077735 -122.466191 
L 375.137123 -122.817095 
L 374.196511 -123.167999 
L 373.255899 -123.518903 
L 372.315287 -123.869807 
L 371.374675 -124.220711 
L 370.434063 -124.571615 
L 369.493451 -124.922519 
L 368.552839 -125.273423 
L 367.612227 -125.624327 
L 366.671615 -125.97523 
L 365.731003 -126.326134 
L 364.790391 -126.677038 
L 363.849779 -127.027942 
L 362.909167 -127.378846 
L 361.968555 -127.72975 
L 361.027943 -128.080654 
L 360.087331 -128.431558 
L 359.146719 -128.782462 
L 358.206107 -129.133366 
L 357.265495 -129.48427 
L 356.324883 -129.835174 
L 355.384271 -130.186078 
L 354.443659 -130.536982 
L 353.503047 -130.887885 
L 352.562435 -131.238789 
L 351.621823 -131.589693 
L 350.681211 -131.940597 
L 349.740599 -132.291501 
L 348.799987 -132.642405 
L 347.859375 -132.993309 
L 346.918763 -133.344213 
L 345.978151 -133.695117 
L 345.037539 -134.046021 
L 344.096927 -134.396925 
L 343.156315 -134.747829 
L 342.215703 -135.098733 
L 341.275091 -135.449636 
L 340.334479 -135.80054 
L 339.393867 -136.151444 
L 338.453255 -136.502348 
L 337.512643 -136.853252 
L 336.572031 -137.204156 
L 335.631419 -137.55506 
L 334.690807 -137.905964 
L 333.750195 -138.256868 
L 332.809583 -138.607772 
L 331.868971 -138.958676 
L 330.928359 -139.30958 
L 329.987747 -139.660484 
L 329.047135 -140.011388 
L 328.106523 -140.362291 
L 327.165911 -140.713195 
L 326.225299 -141.064099 
L 325.284687 -141.415003 
L 324.344075 -141.765907 
L 323.403463 -142.116811 
L 322.462851 -142.467715 
L 321.522239 -142.818619 
L 320.581627 -143.169523 
L 319.641014 -143.520427 
L 318.700402 -143.871331 
L 317.75979 -144.222235 
L 316.819178 -144.573139 
L 315.878566 -144.924043 
L 314.937954 -145.274946 
L 313.997342 -145.62585 
L 313.05673 -145.976754 
L 312.116118 -146.327658 
L 311.175506 -146.678562 
L 310.234894 -147.029466 
L 309.294282 -147.38037 
L 308.35367 -147.731274 
L 307.413058 -148.082178 
L 306.472446 -148.433082 
L 305.531834 -148.783986 
L 304.591222 -149.13489 
L 303.65061 -149.485794 
L 302.709998 -149.836697 
L 301.769386 -150.187601 
L 300.828774 -150.538505 
L 299.888162 -150.889409 
L 298.94755 -151.240313 
L 298.006938 -151.591217 
L 297.066326 -151.942121 
L 296.125714 -152.293025 
L 295.185102 -152.643929 
L 294.24449 -152.994833 
L 293.303878 -153.345737 
L 292.363266 -153.696641 
L 291.422654 -154.047545 
L 290.482042 -154.398449 
L 289.54143 -154.749352 
L 288.600818 -155.100256 
L 287.660206 -155.45116 
L 286.719594 -155.802064 
L 285.778982 -156.152968 
L 284.83837 -156.503872 
L 283.897758 -156.854776 
L 282.957146 -157.20568 
L 282.016534 -157.556584 
L 281.075922 -157.907488 
L 280.13531 -158.258392 
L 279.194698 -158.609296 
L 278.254086 -158.9602 
L 277.313474 -159.311103 
L 276.372862 -159.662007 
L 275.43225 -160.012911 
L 274.491638 -160.363815 
L 273.551026 -160.714719 
L 272.610414 -161.065623 
L 271.669802 -161.416527 
L 270.72919 -161.767431 
L 269.788578 -162.118335 
L 268.847966 -162.469239 
L 267.907354 -162.820143 
L 266.966742 -163.171047 
L 266.02613 -163.521951 
L 265.085518 -163.872855 
L 264.144906 -164.223758 
L 263.204294 -164.574662 
L 262.263682 -164.925566 
L 261.32307 -165.27647 
L 260.382458 -165.627374 
L 259.441846 -165.978278 
L 258.501234 -166.329182 
L 257.560622 -166.680086 
L 256.62001 -167.03099 
L 255.679398 -167.381894 
L 254.738786 -167.732798 
L 253.798174 -168.083702 
L 252.857562 -168.434606 
L 251.91695 -168.78551 
L 250.976338 -169.136413 
L 250.035726 -169.487317 
L 249.095114 -169.838221 
L 248.154502 -170.189125 
L 247.21389 -170.540029 
L 246.273278 -170.890933 
L 245.332666 -171.241837 
L 244.392054 -171.592741 
L 243.451442 -171.943645 
L 242.51083 -172.294549 
L 241.570218 -172.645453 
L 240.629606 -172.996357 
L 239.688994 -173.347261 
L 238.748382 -173.698164 
L 237.80777 -174.049068 
L 236.867158 -174.399972 
L 235.926546 -174.750876 
L 234.985934 -175.10178 
L 234.045322 -175.452684 
L 233.10471 -175.803588 
L 232.164098 -176.154492 
L 231.223486 -176.505396 
L 230.282874 -176.8563 
L 229.342262 -177.207204 
L 228.40165 -177.558108 
L 227.461038 -177.909012 
L 226.520426 -178.259916 
L 225.579814 -178.610819 
L 224.639202 -178.961723 
L 223.69859 -179.312627 
L 222.757978 -179.663531 
L 221.817366 -180.014435 
L 220.876754 -180.365339 
L 219.936142 -180.716243 
L 218.99553 -181.067147 
L 218.054918 -181.418051 
L 217.114306 -181.768955 
L 216.173694 -182.119859 
L 215.233082 -182.470763 
L 214.29247 -182.821667 
L 213.351858 -183.17257 
L 212.411246 -183.523474 
L 211.470634 -183.874378 
L 210.530022 -184.225282 
L 209.58941 -184.576186 
L 208.648798 -184.92709 
L 207.708186 -185.277994 
L 206.767574 -185.628898 
L 205.826962 -185.979802 
L 204.88635 -186.330706 
L 203.945738 -186.68161 
L 203.005126 -187.032514 
L 202.064514 -187.383418 
L 201.123902 -187.734322 
L 200.18329 -188.085225 
L 199.242678 -188.436129 
L 198.302066 -188.787033 
L 197.361454 -189.137937 
L 196.420842 -189.488841 
L 195.480229 -189.839745 
L 194.539617 -190.190649 
L 193.599005 -190.541553 
L 192.658393 -190.892457 
L 191.717781 -191.243361 
L 190.777169 -191.594265 
L 189.836557 -191.945169 
L 188.895945 -192.296073 
L 187.955333 -192.646977 
L 187.014721 -192.99788 
L 186.074109 -193.348784 
L 185.133497 -193.699688 
L 184.192885 -194.050592 
L 183.252273 -194.401496 
L 182.311661 -194.7524 
L 181.371049 -195.103304 
L 180.430437 -195.454208 
L 179.489825 -195.805112 
L 178.549213 -196.156016 
L 177.608601 -196.50692 
L 176.667989 -196.857824 
L 175.727377 -197.208728 
L 174.786765 -197.559631 
L 173.846153 -197.910535 
L 172.905541 -198.261439 
L 171.964929 -198.612343 
L 171.024317 -198.963247 
L 170.083705 -199.314151 
L 169.143093 -199.665055 
L 168.202481 -200.015959 
L 167.261869 -200.366863 
L 166.321257 -200.717767 
L 165.380645 -201.068671 
L 164.440033 -201.419575 
L 163.499421 -201.770479 
L 162.558809 -202.121383 
L 161.618197 -202.472286 
L 160.677585 -202.82319 
L 159.736973 -203.174094 
L 158.796361 -203.524998 
L 157.855749 -203.875902 
L 156.915137 -204.226806 
L 155.974525 -204.57771 
L 155.033913 -204.928614 
L 154.093301 -205.279518 
L 153.152689 -205.630422 
L 152.212077 -205.981326 
L 151.271465 -206.33223 
L 150.330853 -206.683134 
L 149.390241 -207.034038 
L 148.449629 -207.384941 
L 147.509017 -207.735845 
L 146.568405 -208.086749 
L 145.627793 -208.437653 
L 144.687181 -208.788557 
L 143.746569 -209.139461 
L 142.805957 -209.490365 
L 141.865345 -209.841269 
L 140.924733 -210.192173 
L 139.984121 -210.543077 
L 139.043509 -210.893981 
L 138.102897 -211.244885 
L 137.162285 -211.595789 
L 136.221673 -211.946692 
L 135.281061 -212.297596 
L 134.340449 -212.6485 
L 133.399837 -212.999404 
L 132.459225 -213.350308 
L 131.518613 -213.701212 
L 130.578001 -214.052116 
L 129.637389 -214.40302 
L 128.696777 -214.753924 
L 127.756165 -215.104828 
L 126.815553 -215.455732 
L 125.874941 -215.806636 
L 124.934329 -216.15754 
L 123.993717 -216.508444 
L 123.053105 -216.859347 
L 122.112493 -217.210251 
L 121.171881 -217.561155 
L 120.231269 -217.912059 
L 119.290657 -218.262963 
L 118.350045 -218.613867 
L 117.409433 -218.964771 
L 116.468821 -219.315675 
L 115.528209 -219.666579 
L 114.587597 -220.017483 
L 113.646985 -220.368387 
L 112.706373 -220.719291 
L 111.765761 -221.070195 
L 110.825149 -221.421098 
L 109.884537 -221.772002 
L 108.943925 -222.122906 
L 108.003313 -222.47381 
L 107.062701 -222.824714 
L 106.122089 -223.175618 
L 105.181477 -223.526522 
L 104.240865 -223.877426 
L 103.300253 -224.22833 
L 102.359641 -224.579234 
L 101.419029 -224.930138 
L 100.478417 -225.281042 
L 99.537805 -225.631946 
L 98.597193 -225.98285 
L 97.656581 -226.333753 
L 96.715969 -226.684657 
L 95.775357 -227.035561 
L 94.834745 -227.386465 
L 93.894133 -227.737369 
L 92.953521 -228.088273 
L 92.012909 -228.439177 
L 91.072297 -228.790081 
L 90.131685 -229.140985 
L 89.191073 -229.491889 
L 88.250461 -229.842793 
L 87.309849 -230.193697 
L 86.369237 -230.544601 
L 85.428625 -230.895505 
L 84.488013 -231.246408 
L 83.547401 -231.597312 
L 82.606789 -231.948216 
L 81.666177 -232.29912 
L 80.725565 -232.650024 
L 79.784953 -233.000928 
L 78.844341 -233.351832 
L 77.903729 -233.702736 
L 76.963117 -234.05364 
L 76.022505 -234.404544 
L 75.081893 -234.755448 
L 74.141281 -235.106352 
L 73.200669 -235.457256 
L 72.260057 -235.808159 
L 71.319444 -236.159063 
L 70.378832 -236.509967 
L 69.43822 -236.860871 
L 68.497608 -237.211775 
L 67.556996 -237.562679 
L 66.616384 -237.913583 
L 65.675772 -238.264487 
L 64.73516 -238.615391 
L 63.794548 -238.966295 
z
" style="stroke: #d55e00; stroke-opacity: 0.12"/>
    </defs>
    <g clip-path="url(#p5b68d6c95c)">
     <use xlink:href="#ma83e1d58f2" x="0" y="288" style="fill: #d55e00; fill-opacity: 0.12; stroke: #d55e00; stroke-opacity: 0.12"/>
    </g>
   </g>
   <g id="matplotlib.axis_1">
    <g id="xtick_1">
     <g id="line2d_1">
      <defs>
       <path id="m7dcb69f6b1" d="M 0 0 
L 0 3.5 
" style="stroke: #000000; stroke-width: 0.8"/>
      </defs>
      <g>
       <use xlink:href="#m7dcb69f6b1" x="63.794548" y="237.976" style="stroke: #000000; stroke-width: 0.8"/>
      </g>
     </g>
     <g id="text_1">
      <!-- $\mathdefault{10^{-1}}$ -->
      <g transform="translate(50.869548 253.334281) scale(0.11 -0.11)">
       <defs>
        <path id="DejaVuSans-31" d="M 794 531 
L 1825 531 
L 1825 4091 
L 703 3866 
L 703 4441 
L 1819 4666 
L 2450 4666 
L 2450 531 
L 3481 531 
L 3481 0 
L 794 0 
L 794 531 
z
" transform="scale(0.015625)"/>
        <path id="DejaVuSans-30" d="M 2034 4250 
Q 1547 4250 1301 3770 
Q 1056 3291 1056 2328 
Q 1056 1369 1301 889 
Q 1547 409 2034 409 
Q 2525 409 2770 889 
Q 3016 1369 3016 2328 
Q 3016 3291 2770 3770 
Q 2525 4250 2034 4250 
z
M 2034 4750 
Q 2819 4750 3233 4129 
Q 3647 3509 3647 2328 
Q 3647 1150 3233 529 
Q 2819 -91 2034 -91 
Q 1250 -91 836 529 
Q 422 1150 422 2328 
Q 422 3509 836 4129 
Q 1250 4750 2034 4750 
z
" transform="scale(0.015625)"/>
        <path id="DejaVuSans-2212" d="M 678 2272 
L 4684 2272 
L 4684 1741 
L 678 1741 
L 678 2272 
z
" transform="scale(0.015625)"/>
       </defs>
       <use xlink:href="#DejaVuSans-31" transform="translate(0 0.684375)"/>
       <use xlink:href="#DejaVuSans-30" transform="translate(63.623047 0.684375)"/>
       <use xlink:href="#DejaVuSans-2212" transform="translate(128.203125 38.965625) scale(0.7)"/>
       <use xlink:href="#DejaVuSans-31" transform="translate(186.855469 38.965625) scale(0.7)"/>
      </g>
     </g>
    </g>
    <g id="xtick_2">
     <g id="line2d_2">
      <g>
       <use xlink:href="#m7dcb69f6b1" x="251.446644" y="237.976" style="stroke: #000000; stroke-width: 0.8"/>
      </g>
     </g>
     <g id="text_2">
      <!-- $\mathdefault{10^{0}}$ -->
      <g transform="translate(241.766644 253.334281) scale(0.11 -0.11)">
       <use xlink:href="#DejaVuSans-31" transform="translate(0 0.765625)"/>
       <use xlink:href="#DejaVuSans-30" transform="translate(63.623047 0.765625)"/>
       <use xlink:href="#DejaVuSans-30" transform="translate(128.203125 39.046875) scale(0.7)"/>
      </g>
     </g>
    </g>
    <g id="xtick_3">
     <g id="line2d_3">
      <g>
       <use xlink:href="#m7dcb69f6b1" x="439.098739" y="237.976" style="stroke: #000000; stroke-width: 0.8"/>
      </g>
     </g>
     <g id="text_3">
      <!-- $\mathdefault{10^{1}}$ -->
      <g transform="translate(429.418739 253.334281) scale(0.11 -0.11)">
       <use xlink:href="#DejaVuSans-31" transform="translate(0 0.684375)"/>
       <use xlink:href="#DejaVuSans-30" transform="translate(63.623047 0.684375)"/>
       <use xlink:href="#DejaVuSans-31" transform="translate(128.203125 38.965625) scale(0.7)"/>
      </g>
     </g>
    </g>
    <g id="xtick_4">
     <g id="line2d_4">
      <defs>
       <path id="ma1ba19402e" d="M 0 0 
L 0 2 
" style="stroke: #000000; stroke-width: 0.6"/>
      </defs>
      <g>
       <use xlink:href="#ma1ba19402e" x="120.283458" y="237.976" style="stroke: #000000; stroke-width: 0.6"/>
      </g>
     </g>
    </g>
    <g id="xtick_5">
     <g id="line2d_5">
      <g>
       <use xlink:href="#ma1ba19402e" x="153.327352" y="237.976" style="stroke: #000000; stroke-width: 0.6"/>
      </g>
     </g>
    </g>
    <g id="xtick_6">
     <g id="line2d_6">
      <g>
       <use xlink:href="#ma1ba19402e" x="176.772367" y="237.976" style="stroke: #000000; stroke-width: 0.6"/>
      </g>
     </g>
    </g>
    <g id="xtick_7">
     <g id="line2d_7">
      <g>
       <use xlink:href="#ma1ba19402e" x="194.957734" y="237.976" style="stroke: #000000; stroke-width: 0.6"/>
      </g>
     </g>
    </g>
    <g id="xtick_8">
     <g id="line2d_8">
      <g>
       <use xlink:href="#ma1ba19402e" x="209.816261" y="237.976" style="stroke: #000000; stroke-width: 0.6"/>
      </g>
     </g>
    </g>
    <g id="xtick_9">
     <g id="line2d_9">
      <g>
       <use xlink:href="#ma1ba19402e" x="222.378967" y="237.976" style="stroke: #000000; stroke-width: 0.6"/>
      </g>
     </g>
    </g>
    <g id="xtick_10">
     <g id="line2d_10">
      <g>
       <use xlink:href="#ma1ba19402e" x="233.261277" y="237.976" style="stroke: #000000; stroke-width: 0.6"/>
      </g>
     </g>
    </g>
    <g id="xtick_11">
     <g id="line2d_11">
      <g>
       <use xlink:href="#ma1ba19402e" x="242.860155" y="237.976" style="stroke: #000000; stroke-width: 0.6"/>
      </g>
     </g>
    </g>
    <g id="xtick_12">
     <g id="line2d_12">
      <g>
       <use xlink:href="#ma1ba19402e" x="307.935553" y="237.976" style="stroke: #000000; stroke-width: 0.6"/>
      </g>
     </g>
    </g>
    <g id="xtick_13">
     <g id="line2d_13">
      <g>
       <use xlink:href="#ma1ba19402e" x="340.979447" y="237.976" style="stroke: #000000; stroke-width: 0.6"/>
      </g>
     </g>
    </g>
    <g id="xtick_14">
     <g id="line2d_14">
      <g>
       <use xlink:href="#ma1ba19402e" x="364.424463" y="237.976" style="stroke: #000000; stroke-width: 0.6"/>
      </g>
     </g>
    </g>
    <g id="xtick_15">
     <g id="line2d_15">
      <g>
       <use xlink:href="#ma1ba19402e" x="382.60983" y="237.976" style="stroke: #000000; stroke-width: 0.6"/>
      </g>
     </g>
    </g>
    <g id="xtick_16">
     <g id="line2d_16">
      <g>
       <use xlink:href="#ma1ba19402e" x="397.468357" y="237.976" style="stroke: #000000; stroke-width: 0.6"/>
      </g>
     </g>
    </g>
    <g id="xtick_17">
     <g id="line2d_17">
      <g>
       <use xlink:href="#ma1ba19402e" x="410.031062" y="237.976" style="stroke: #000000; stroke-width: 0.6"/>
      </g>
     </g>
    </g>
    <g id="xtick_18">
     <g id="line2d_18">
      <g>
       <use xlink:href="#ma1ba19402e" x="420.913372" y="237.976" style="stroke: #000000; stroke-width: 0.6"/>
      </g>
     </g>
    </g>
    <g id="xtick_19">
     <g id="line2d_19">
      <g>
       <use xlink:href="#ma1ba19402e" x="430.51225" y="237.976" style="stroke: #000000; stroke-width: 0.6"/>
      </g>
     </g>
    </g>
    <g id="text_4">
     <!-- position spread  $\sigma_x$  (nm) -->
     <g transform="translate(182.971644 267.981937) scale(0.11 -0.11)">
      <defs>
       <path id="DejaVuSans-70" d="M 1159 525 
L 1159 -1331 
L 581 -1331 
L 581 3500 
L 1159 3500 
L 1159 2969 
Q 1341 3281 1617 3432 
Q 1894 3584 2278 3584 
Q 2916 3584 3314 3078 
Q 3713 2572 3713 1747 
Q 3713 922 3314 415 
Q 2916 -91 2278 -91 
Q 1894 -91 1617 61 
Q 1341 213 1159 525 
z
M 3116 1747 
Q 3116 2381 2855 2742 
Q 2594 3103 2138 3103 
Q 1681 3103 1420 2742 
Q 1159 2381 1159 1747 
Q 1159 1113 1420 752 
Q 1681 391 2138 391 
Q 2594 391 2855 752 
Q 3116 1113 3116 1747 
z
" transform="scale(0.015625)"/>
       <path id="DejaVuSans-6f" d="M 1959 3097 
Q 1497 3097 1228 2736 
Q 959 2375 959 1747 
Q 959 1119 1226 758 
Q 1494 397 1959 397 
Q 2419 397 2687 759 
Q 2956 1122 2956 1747 
Q 2956 2369 2687 2733 
Q 2419 3097 1959 3097 
z
M 1959 3584 
Q 2709 3584 3137 3096 
Q 3566 2609 3566 1747 
Q 3566 888 3137 398 
Q 2709 -91 1959 -91 
Q 1206 -91 779 398 
Q 353 888 353 1747 
Q 353 2609 779 3096 
Q 1206 3584 1959 3584 
z
" transform="scale(0.015625)"/>
       <path id="DejaVuSans-73" d="M 2834 3397 
L 2834 2853 
Q 2591 2978 2328 3040 
Q 2066 3103 1784 3103 
Q 1356 3103 1142 2972 
Q 928 2841 928 2578 
Q 928 2378 1081 2264 
Q 1234 2150 1697 2047 
L 1894 2003 
Q 2506 1872 2764 1633 
Q 3022 1394 3022 966 
Q 3022 478 2636 193 
Q 2250 -91 1575 -91 
Q 1294 -91 989 -36 
Q 684 19 347 128 
L 347 722 
Q 666 556 975 473 
Q 1284 391 1588 391 
Q 1994 391 2212 530 
Q 2431 669 2431 922 
Q 2431 1156 2273 1281 
Q 2116 1406 1581 1522 
L 1381 1569 
Q 847 1681 609 1914 
Q 372 2147 372 2553 
Q 372 3047 722 3315 
Q 1072 3584 1716 3584 
Q 2034 3584 2315 3537 
Q 2597 3491 2834 3397 
z
" transform="scale(0.015625)"/>
       <path id="DejaVuSans-69" d="M 603 3500 
L 1178 3500 
L 1178 0 
L 603 0 
L 603 3500 
z
M 603 4863 
L 1178 4863 
L 1178 4134 
L 603 4134 
L 603 4863 
z
" transform="scale(0.015625)"/>
       <path id="DejaVuSans-74" d="M 1172 4494 
L 1172 3500 
L 2356 3500 
L 2356 3053 
L 1172 3053 
L 1172 1153 
Q 1172 725 1289 603 
Q 1406 481 1766 481 
L 2356 481 
L 2356 0 
L 1766 0 
Q 1100 0 847 248 
Q 594 497 594 1153 
L 594 3053 
L 172 3053 
L 172 3500 
L 594 3500 
L 594 4494 
L 1172 4494 
z
" transform="scale(0.015625)"/>
       <path id="DejaVuSans-6e" d="M 3513 2113 
L 3513 0 
L 2938 0 
L 2938 2094 
Q 2938 2591 2744 2837 
Q 2550 3084 2163 3084 
Q 1697 3084 1428 2787 
Q 1159 2491 1159 1978 
L 1159 0 
L 581 0 
L 581 3500 
L 1159 3500 
L 1159 2956 
Q 1366 3272 1645 3428 
Q 1925 3584 2291 3584 
Q 2894 3584 3203 3211 
Q 3513 2838 3513 2113 
z
" transform="scale(0.015625)"/>
       <path id="DejaVuSans-20" transform="scale(0.015625)"/>
       <path id="DejaVuSans-72" d="M 2631 2963 
Q 2534 3019 2420 3045 
Q 2306 3072 2169 3072 
Q 1681 3072 1420 2755 
Q 1159 2438 1159 1844 
L 1159 0 
L 581 0 
L 581 3500 
L 1159 3500 
L 1159 2956 
Q 1341 3275 1631 3429 
Q 1922 3584 2338 3584 
Q 2397 3584 2469 3576 
Q 2541 3569 2628 3553 
L 2631 2963 
z
" transform="scale(0.015625)"/>
       <path id="DejaVuSans-65" d="M 3597 1894 
L 3597 1613 
L 953 1613 
Q 991 1019 1311 708 
Q 1631 397 2203 397 
Q 2534 397 2845 478 
Q 3156 559 3463 722 
L 3463 178 
Q 3153 47 2828 -22 
Q 2503 -91 2169 -91 
Q 1331 -91 842 396 
Q 353 884 353 1716 
Q 353 2575 817 3079 
Q 1281 3584 2069 3584 
Q 2775 3584 3186 3129 
Q 3597 2675 3597 1894 
z
M 3022 2063 
Q 3016 2534 2758 2815 
Q 2500 3097 2075 3097 
Q 1594 3097 1305 2825 
Q 1016 2553 972 2059 
L 3022 2063 
z
" transform="scale(0.015625)"/>
       <path id="DejaVuSans-61" d="M 2194 1759 
Q 1497 1759 1228 1600 
Q 959 1441 959 1056 
Q 959 750 1161 570 
Q 1363 391 1709 391 
Q 2188 391 2477 730 
Q 2766 1069 2766 1631 
L 2766 1759 
L 2194 1759 
z
M 3341 1997 
L 3341 0 
L 2766 0 
L 2766 531 
Q 2569 213 2275 61 
Q 1981 -91 1556 -91 
Q 1019 -91 701 211 
Q 384 513 384 1019 
Q 384 1609 779 1909 
Q 1175 2209 1959 2209 
L 2766 2209 
L 2766 2266 
Q 2766 2663 2505 2880 
Q 2244 3097 1772 3097 
Q 1472 3097 1187 3025 
Q 903 2953 641 2809 
L 641 3341 
Q 956 3463 1253 3523 
Q 1550 3584 1831 3584 
Q 2591 3584 2966 3190 
Q 3341 2797 3341 1997 
z
" transform="scale(0.015625)"/>
       <path id="DejaVuSans-64" d="M 2906 2969 
L 2906 4863 
L 3481 4863 
L 3481 0 
L 2906 0 
L 2906 525 
Q 2725 213 2448 61 
Q 2172 -91 1784 -91 
Q 1150 -91 751 415 
Q 353 922 353 1747 
Q 353 2572 751 3078 
Q 1150 3584 1784 3584 
Q 2172 3584 2448 3432 
Q 2725 3281 2906 2969 
z
M 947 1747 
Q 947 1113 1208 752 
Q 1469 391 1925 391 
Q 2381 391 2643 752 
Q 2906 1113 2906 1747 
Q 2906 2381 2643 2742 
Q 2381 3103 1925 3103 
Q 1469 3103 1208 2742 
Q 947 2381 947 1747 
z
" transform="scale(0.015625)"/>
       <path id="DejaVuSans-Oblique-3c3" d="M 2219 3044 
Q 1744 3044 1422 2700 
Q 1081 2341 969 1747 
Q 844 1119 1044 756 
Q 1241 397 1706 397 
Q 2166 397 2503 759 
Q 2844 1122 2966 1747 
Q 3075 2319 2881 2700 
Q 2700 3044 2219 3044 
z
M 2309 3503 
L 4219 3500 
L 4106 2925 
L 3463 2925 
Q 3706 2438 3575 1747 
Q 3406 888 2884 400 
Q 2359 -91 1609 -91 
Q 856 -91 525 400 
Q 194 888 363 1747 
Q 528 2609 1050 3097 
Q 1484 3503 2309 3503 
z
" transform="scale(0.015625)"/>
       <path id="DejaVuSans-Oblique-78" d="M 3841 3500 
L 2234 1784 
L 3219 0 
L 2559 0 
L 1819 1388 
L 531 0 
L -166 0 
L 1556 1844 
L 641 3500 
L 1300 3500 
L 1972 2234 
L 3144 3500 
L 3841 3500 
z
" transform="scale(0.015625)"/>
       <path id="DejaVuSans-28" d="M 1984 4856 
Q 1566 4138 1362 3434 
Q 1159 2731 1159 2009 
Q 1159 1288 1364 580 
Q 1569 -128 1984 -844 
L 1484 -844 
Q 1016 -109 783 600 
Q 550 1309 550 2009 
Q 550 2706 781 3412 
Q 1013 4119 1484 4856 
L 1984 4856 
z
" transform="scale(0.015625)"/>
       <path id="DejaVuSans-6d" d="M 3328 2828 
Q 3544 3216 3844 3400 
Q 4144 3584 4550 3584 
Q 5097 3584 5394 3201 
Q 5691 2819 5691 2113 
L 5691 0 
L 5113 0 
L 5113 2094 
Q 5113 2597 4934 2840 
Q 4756 3084 4391 3084 
Q 3944 3084 3684 2787 
Q 3425 2491 3425 1978 
L 3425 0 
L 2847 0 
L 2847 2094 
Q 2847 2600 2669 2842 
Q 2491 3084 2119 3084 
Q 1678 3084 1418 2786 
Q 1159 2488 1159 1978 
L 1159 0 
L 581 0 
L 581 3500 
L 1159 3500 
L 1159 2956 
Q 1356 3278 1631 3431 
Q 1906 3584 2284 3584 
Q 2666 3584 2933 3390 
Q 3200 3197 3328 2828 
z
" transform="scale(0.015625)"/>
       <path id="DejaVuSans-29" d="M 513 4856 
L 1013 4856 
Q 1481 4119 1714 3412 
Q 1947 2706 1947 2009 
Q 1947 1309 1714 600 
Q 1481 -109 1013 -844 
L 513 -844 
Q 928 -128 1133 580 
Q 1338 1288 1338 2009 
Q 1338 2731 1133 3434 
Q 928 4138 513 4856 
z
" transform="scale(0.015625)"/>
      </defs>
      <use xlink:href="#DejaVuSans-70" transform="translate(0 0.015625)"/>
      <use xlink:href="#DejaVuSans-6f" transform="translate(63.476562 0.015625)"/>
      <use xlink:href="#DejaVuSans-73" transform="translate(124.658203 0.015625)"/>
      <use xlink:href="#DejaVuSans-69" transform="translate(176.757812 0.015625)"/>
      <use xlink:href="#DejaVuSans-74" transform="translate(204.541016 0.015625)"/>
      <use xlink:href="#DejaVuSans-69" transform="translate(243.75 0.015625)"/>
      <use xlink:href="#DejaVuSans-6f" transform="translate(271.533203 0.015625)"/>
      <use xlink:href="#DejaVuSans-6e" transform="translate(332.714844 0.015625)"/>
      <use xlink:href="#DejaVuSans-20" transform="translate(396.09375 0.015625)"/>
      <use xlink:href="#DejaVuSans-73" transform="translate(427.880859 0.015625)"/>
      <use xlink:href="#DejaVuSans-70" transform="translate(479.980469 0.015625)"/>
      <use xlink:href="#DejaVuSans-72" transform="translate(543.457031 0.015625)"/>
      <use xlink:href="#DejaVuSans-65" transform="translate(584.570312 0.015625)"/>
      <use xlink:href="#DejaVuSans-61" transform="translate(646.09375 0.015625)"/>
      <use xlink:href="#DejaVuSans-64" transform="translate(707.373047 0.015625)"/>
      <use xlink:href="#DejaVuSans-20" transform="translate(770.849609 0.015625)"/>
      <use xlink:href="#DejaVuSans-20" transform="translate(802.636719 0.015625)"/>
      <use xlink:href="#DejaVuSans-Oblique-3c3" transform="translate(834.423828 0.015625)"/>
      <use xlink:href="#DejaVuSans-Oblique-78" transform="translate(897.802734 -16.390625) scale(0.7)"/>
      <use xlink:href="#DejaVuSans-20" transform="translate(941.962891 0.015625)"/>
      <use xlink:href="#DejaVuSans-20" transform="translate(973.75 0.015625)"/>
      <use xlink:href="#DejaVuSans-28" transform="translate(1005.537109 0.015625)"/>
      <use xlink:href="#DejaVuSans-6e" transform="translate(1044.550781 0.015625)"/>
      <use xlink:href="#DejaVuSans-6d" transform="translate(1107.929688 0.015625)"/>
      <use xlink:href="#DejaVuSans-29" transform="translate(1205.341797 0.015625)"/>
     </g>
    </g>
   </g>
   <g id="matplotlib.axis_2">
    <g id="ytick_1">
     <g id="line2d_20">
      <defs>
       <path id="mc963443da8" d="M 0 0 
L -3.5 0 
" style="stroke: #000000; stroke-width: 0.8"/>
      </defs>
      <g>
       <use xlink:href="#mc963443da8" x="63.794548" y="237.976" style="stroke: #000000; stroke-width: 0.8"/>
      </g>
     </g>
     <g id="text_5">
      <!-- $\mathdefault{10^{-2}}$ -->
      <g transform="translate(30.944548 242.155141) scale(0.11 -0.11)">
       <defs>
        <path id="DejaVuSans-32" d="M 1228 531 
L 3431 531 
L 3431 0 
L 469 0 
L 469 531 
Q 828 903 1448 1529 
Q 2069 2156 2228 2338 
Q 2531 2678 2651 2914 
Q 2772 3150 2772 3378 
Q 2772 3750 2511 3984 
Q 2250 4219 1831 4219 
Q 1534 4219 1204 4116 
Q 875 4013 500 3803 
L 500 4441 
Q 881 4594 1212 4672 
Q 1544 4750 1819 4750 
Q 2544 4750 2975 4387 
Q 3406 4025 3406 3419 
Q 3406 3131 3298 2873 
Q 3191 2616 2906 2266 
Q 2828 2175 2409 1742 
Q 1991 1309 1228 531 
z
" transform="scale(0.015625)"/>
       </defs>
       <use xlink:href="#DejaVuSans-31" transform="translate(0 0.765625)"/>
       <use xlink:href="#DejaVuSans-30" transform="translate(63.623047 0.765625)"/>
       <use xlink:href="#DejaVuSans-2212" transform="translate(128.203125 39.046875) scale(0.7)"/>
       <use xlink:href="#DejaVuSans-32" transform="translate(186.855469 39.046875) scale(0.7)"/>
      </g>
     </g>
    </g>
    <g id="ytick_2">
     <g id="line2d_21">
      <g>
       <use xlink:href="#mc963443da8" x="63.794548" y="167.970667" style="stroke: #000000; stroke-width: 0.8"/>
      </g>
     </g>
     <g id="text_6">
      <!-- $\mathdefault{10^{-1}}$ -->
      <g transform="translate(30.944548 172.149807) scale(0.11 -0.11)">
       <use xlink:href="#DejaVuSans-31" transform="translate(0 0.684375)"/>
       <use xlink:href="#DejaVuSans-30" transform="translate(63.623047 0.684375)"/>
       <use xlink:href="#DejaVuSans-2212" transform="translate(128.203125 38.965625) scale(0.7)"/>
       <use xlink:href="#DejaVuSans-31" transform="translate(186.855469 38.965625) scale(0.7)"/>
      </g>
     </g>
    </g>
    <g id="ytick_3">
     <g id="line2d_22">
      <g>
       <use xlink:href="#mc963443da8" x="63.794548" y="97.965333" style="stroke: #000000; stroke-width: 0.8"/>
      </g>
     </g>
     <g id="text_7">
      <!-- $\mathdefault{10^{0}}$ -->
      <g transform="translate(37.434548 102.144474) scale(0.11 -0.11)">
       <use xlink:href="#DejaVuSans-31" transform="translate(0 0.765625)"/>
       <use xlink:href="#DejaVuSans-30" transform="translate(63.623047 0.765625)"/>
       <use xlink:href="#DejaVuSans-30" transform="translate(128.203125 39.046875) scale(0.7)"/>
      </g>
     </g>
    </g>
    <g id="ytick_4">
     <g id="line2d_23">
      <g>
       <use xlink:href="#mc963443da8" x="63.794548" y="27.96" style="stroke: #000000; stroke-width: 0.8"/>
      </g>
     </g>
     <g id="text_8">
      <!-- $\mathdefault{10^{1}}$ -->
      <g transform="translate(37.434548 32.139141) scale(0.11 -0.11)">
       <use xlink:href="#DejaVuSans-31" transform="translate(0 0.684375)"/>
       <use xlink:href="#DejaVuSans-30" transform="translate(63.623047 0.684375)"/>
       <use xlink:href="#DejaVuSans-31" transform="translate(128.203125 38.965625) scale(0.7)"/>
      </g>
     </g>
    </g>
    <g id="ytick_5">
     <g id="line2d_24">
      <defs>
       <path id="md93a2c90e6" d="M 0 0 
L -2 0 
" style="stroke: #000000; stroke-width: 0.6"/>
      </defs>
      <g>
       <use xlink:href="#md93a2c90e6" x="63.794548" y="216.902295" style="stroke: #000000; stroke-width: 0.6"/>
      </g>
     </g>
    </g>
    <g id="ytick_6">
     <g id="line2d_25">
      <g>
       <use xlink:href="#md93a2c90e6" x="63.794548" y="204.574968" style="stroke: #000000; stroke-width: 0.6"/>
      </g>
     </g>
    </g>
    <g id="ytick_7">
     <g id="line2d_26">
      <g>
       <use xlink:href="#md93a2c90e6" x="63.794548" y="195.82859" style="stroke: #000000; stroke-width: 0.6"/>
      </g>
     </g>
    </g>
    <g id="ytick_8">
     <g id="line2d_27">
      <g>
       <use xlink:href="#md93a2c90e6" x="63.794548" y="189.044372" style="stroke: #000000; stroke-width: 0.6"/>
      </g>
     </g>
    </g>
    <g id="ytick_9">
     <g id="line2d_28">
      <g>
       <use xlink:href="#md93a2c90e6" x="63.794548" y="183.501262" style="stroke: #000000; stroke-width: 0.6"/>
      </g>
     </g>
    </g>
    <g id="ytick_10">
     <g id="line2d_29">
      <g>
       <use xlink:href="#md93a2c90e6" x="63.794548" y="178.81463" style="stroke: #000000; stroke-width: 0.6"/>
      </g>
     </g>
    </g>
    <g id="ytick_11">
     <g id="line2d_30">
      <g>
       <use xlink:href="#md93a2c90e6" x="63.794548" y="174.754884" style="stroke: #000000; stroke-width: 0.6"/>
      </g>
     </g>
    </g>
    <g id="ytick_12">
     <g id="line2d_31">
      <g>
       <use xlink:href="#md93a2c90e6" x="63.794548" y="171.173935" style="stroke: #000000; stroke-width: 0.6"/>
      </g>
     </g>
    </g>
    <g id="ytick_13">
     <g id="line2d_32">
      <g>
       <use xlink:href="#md93a2c90e6" x="63.794548" y="146.896961" style="stroke: #000000; stroke-width: 0.6"/>
      </g>
     </g>
    </g>
    <g id="ytick_14">
     <g id="line2d_33">
      <g>
       <use xlink:href="#md93a2c90e6" x="63.794548" y="134.569634" style="stroke: #000000; stroke-width: 0.6"/>
      </g>
     </g>
    </g>
    <g id="ytick_15">
     <g id="line2d_34">
      <g>
       <use xlink:href="#md93a2c90e6" x="63.794548" y="125.823256" style="stroke: #000000; stroke-width: 0.6"/>
      </g>
     </g>
    </g>
    <g id="ytick_16">
     <g id="line2d_35">
      <g>
       <use xlink:href="#md93a2c90e6" x="63.794548" y="119.039039" style="stroke: #000000; stroke-width: 0.6"/>
      </g>
     </g>
    </g>
    <g id="ytick_17">
     <g id="line2d_36">
      <g>
       <use xlink:href="#md93a2c90e6" x="63.794548" y="113.495929" style="stroke: #000000; stroke-width: 0.6"/>
      </g>
     </g>
    </g>
    <g id="ytick_18">
     <g id="line2d_37">
      <g>
       <use xlink:href="#md93a2c90e6" x="63.794548" y="108.809297" style="stroke: #000000; stroke-width: 0.6"/>
      </g>
     </g>
    </g>
    <g id="ytick_19">
     <g id="line2d_38">
      <g>
       <use xlink:href="#md93a2c90e6" x="63.794548" y="104.749551" style="stroke: #000000; stroke-width: 0.6"/>
      </g>
     </g>
    </g>
    <g id="ytick_20">
     <g id="line2d_39">
      <g>
       <use xlink:href="#md93a2c90e6" x="63.794548" y="101.168602" style="stroke: #000000; stroke-width: 0.6"/>
      </g>
     </g>
    </g>
    <g id="ytick_21">
     <g id="line2d_40">
      <g>
       <use xlink:href="#md93a2c90e6" x="63.794548" y="76.891628" style="stroke: #000000; stroke-width: 0.6"/>
      </g>
     </g>
    </g>
    <g id="ytick_22">
     <g id="line2d_41">
      <g>
       <use xlink:href="#md93a2c90e6" x="63.794548" y="64.564301" style="stroke: #000000; stroke-width: 0.6"/>
      </g>
     </g>
    </g>
    <g id="ytick_23">
     <g id="line2d_42">
      <g>
       <use xlink:href="#md93a2c90e6" x="63.794548" y="55.817923" style="stroke: #000000; stroke-width: 0.6"/>
      </g>
     </g>
    </g>
    <g id="ytick_24">
     <g id="line2d_43">
      <g>
       <use xlink:href="#md93a2c90e6" x="63.794548" y="49.033705" style="stroke: #000000; stroke-width: 0.6"/>
      </g>
     </g>
    </g>
    <g id="ytick_25">
     <g id="line2d_44">
      <g>
       <use xlink:href="#md93a2c90e6" x="63.794548" y="43.490596" style="stroke: #000000; stroke-width: 0.6"/>
      </g>
     </g>
    </g>
    <g id="ytick_26">
     <g id="line2d_45">
      <g>
       <use xlink:href="#md93a2c90e6" x="63.794548" y="38.803963" style="stroke: #000000; stroke-width: 0.6"/>
      </g>
     </g>
    </g>
    <g id="ytick_27">
     <g id="line2d_46">
      <g>
       <use xlink:href="#md93a2c90e6" x="63.794548" y="34.744218" style="stroke: #000000; stroke-width: 0.6"/>
      </g>
     </g>
    </g>
    <g id="ytick_28">
     <g id="line2d_47">
      <g>
       <use xlink:href="#md93a2c90e6" x="63.794548" y="31.163268" style="stroke: #000000; stroke-width: 0.6"/>
      </g>
     </g>
    </g>
    <g id="text_9">
     <!-- momentum spread  $\sigma_p$  ($\hbar$/nm) -->
     <g transform="translate(23.534548 217.448) rotate(-90) scale(0.11 -0.11)">
      <defs>
       <path id="DejaVuSans-75" d="M 544 1381 
L 544 3500 
L 1119 3500 
L 1119 1403 
Q 1119 906 1312 657 
Q 1506 409 1894 409 
Q 2359 409 2629 706 
Q 2900 1003 2900 1516 
L 2900 3500 
L 3475 3500 
L 3475 0 
L 2900 0 
L 2900 538 
Q 2691 219 2414 64 
Q 2138 -91 1772 -91 
Q 1169 -91 856 284 
Q 544 659 544 1381 
z
M 1991 3584 
L 1991 3584 
z
" transform="scale(0.015625)"/>
       <path id="DejaVuSans-Oblique-70" d="M 3175 2156 
Q 3175 2616 2975 2859 
Q 2775 3103 2400 3103 
Q 2144 3103 1911 2972 
Q 1678 2841 1497 2591 
Q 1319 2344 1212 1994 
Q 1106 1644 1106 1300 
Q 1106 863 1306 627 
Q 1506 391 1875 391 
Q 2147 391 2380 519 
Q 2613 647 2778 891 
Q 2956 1147 3065 1494 
Q 3175 1841 3175 2156 
z
M 1394 2969 
Q 1625 3272 1939 3428 
Q 2253 3584 2638 3584 
Q 3175 3584 3472 3232 
Q 3769 2881 3769 2247 
Q 3769 1728 3584 1258 
Q 3400 788 3053 416 
Q 2822 169 2531 39 
Q 2241 -91 1919 -91 
Q 1547 -91 1294 64 
Q 1041 219 916 525 
L 556 -1331 
L -19 -1331 
L 922 3500 
L 1497 3500 
L 1394 2969 
z
" transform="scale(0.015625)"/>
       <path id="DejaVuSans-Oblique-127" d="M 3634 2113 
L 3225 0 
L 2650 0 
L 3056 2094 
Q 3094 2291 3094 2450 
Q 3094 2688 3006 2838 
Q 2863 3084 2475 3084 
Q 2009 3084 1681 2788 
Q 1356 2491 1256 1978 
L 872 0 
L 294 0 
L 1066 3969 
L 675 3969 
L 775 4481 
L 1166 4481 
L 1238 4863 
L 1816 4863 
L 1744 4481 
L 2844 4481 
L 2744 3969 
L 1644 3969 
L 1447 2956 
Q 1713 3272 2025 3428 
Q 2331 3584 2700 3584 
Q 3300 3584 3538 3213 
Q 3688 2975 3688 2606 
Q 3688 2381 3634 2113 
z
" transform="scale(0.015625)"/>
       <path id="DejaVuSans-2f" d="M 1625 4666 
L 2156 4666 
L 531 -594 
L 0 -594 
L 1625 4666 
z
" transform="scale(0.015625)"/>
      </defs>
      <use xlink:href="#DejaVuSans-6d" transform="translate(0 0.015625)"/>
      <use xlink:href="#DejaVuSans-6f" transform="translate(97.412109 0.015625)"/>
      <use xlink:href="#DejaVuSans-6d" transform="translate(158.59375 0.015625)"/>
      <use xlink:href="#DejaVuSans-65" transform="translate(256.005859 0.015625)"/>
      <use xlink:href="#DejaVuSans-6e" transform="translate(317.529297 0.015625)"/>
      <use xlink:href="#DejaVuSans-74" transform="translate(380.908203 0.015625)"/>
      <use xlink:href="#DejaVuSans-75" transform="translate(420.117188 0.015625)"/>
      <use xlink:href="#DejaVuSans-6d" transform="translate(483.496094 0.015625)"/>
      <use xlink:href="#DejaVuSans-20" transform="translate(580.908203 0.015625)"/>
      <use xlink:href="#DejaVuSans-73" transform="translate(612.695312 0.015625)"/>
      <use xlink:href="#DejaVuSans-70" transform="translate(664.794922 0.015625)"/>
      <use xlink:href="#DejaVuSans-72" transform="translate(728.271484 0.015625)"/>
      <use xlink:href="#DejaVuSans-65" transform="translate(769.384766 0.015625)"/>
      <use xlink:href="#DejaVuSans-61" transform="translate(830.908203 0.015625)"/>
      <use xlink:href="#DejaVuSans-64" transform="translate(892.1875 0.015625)"/>
      <use xlink:href="#DejaVuSans-20" transform="translate(955.664062 0.015625)"/>
      <use xlink:href="#DejaVuSans-20" transform="translate(987.451172 0.015625)"/>
      <use xlink:href="#DejaVuSans-Oblique-3c3" transform="translate(1019.238281 0.015625)"/>
      <use xlink:href="#DejaVuSans-Oblique-70" transform="translate(1082.617188 -16.390625) scale(0.7)"/>
      <use xlink:href="#DejaVuSans-20" transform="translate(1129.785156 0.015625)"/>
      <use xlink:href="#DejaVuSans-20" transform="translate(1161.572266 0.015625)"/>
      <use xlink:href="#DejaVuSans-28" transform="translate(1193.359375 0.015625)"/>
      <use xlink:href="#DejaVuSans-Oblique-127" transform="translate(1232.373047 0.015625)"/>
      <use xlink:href="#DejaVuSans-2f" transform="translate(1301.855469 0.015625)"/>
      <use xlink:href="#DejaVuSans-6e" transform="translate(1335.546875 0.015625)"/>
      <use xlink:href="#DejaVuSans-6d" transform="translate(1398.925781 0.015625)"/>
      <use xlink:href="#DejaVuSans-29" transform="translate(1496.337891 0.015625)"/>
     </g>
    </g>
   </g>
   <g id="line2d_48">
    <path d="M 63.794548 49.033705 
L 439.098739 189.044372 
L 439.098739 189.044372 
" clip-path="url(#p5b68d6c95c)" style="fill: none; stroke: #0072b2; stroke-width: 2.2; stroke-linecap: square"/>
   </g>
   <g id="patch_3">
    <path d="M 63.794548 237.976 
L 63.794548 27.96 
" style="fill: none; stroke: #000000; stroke-linejoin: miter; stroke-linecap: square"/>
   </g>
   <g id="patch_4">
    <path d="M 63.794548 237.976 
L 439.098739 237.976 
" style="fill: none; stroke: #000000; stroke-linejoin: miter; stroke-linecap: square"/>
   </g>
   <g id="text_10">
    <!-- forbidden -->
    <g style="fill: #d55e00" transform="translate(286.306725 173.421544) scale(0.09 -0.09)">
     <defs>
      <path id="DejaVuSans-66" d="M 2375 4863 
L 2375 4384 
L 1825 4384 
Q 1516 4384 1395 4259 
Q 1275 4134 1275 3809 
L 1275 3500 
L 2222 3500 
L 2222 3053 
L 1275 3053 
L 1275 0 
L 697 0 
L 697 3053 
L 147 3053 
L 147 3500 
L 697 3500 
L 697 3744 
Q 697 4328 969 4595 
Q 1241 4863 1831 4863 
L 2375 4863 
z
" transform="scale(0.015625)"/>
      <path id="DejaVuSans-62" d="M 3116 1747 
Q 3116 2381 2855 2742 
Q 2594 3103 2138 3103 
Q 1681 3103 1420 2742 
Q 1159 2381 1159 1747 
Q 1159 1113 1420 752 
Q 1681 391 2138 391 
Q 2594 391 2855 752 
Q 3116 1113 3116 1747 
z
M 1159 2969 
Q 1341 3281 1617 3432 
Q 1894 3584 2278 3584 
Q 2916 3584 3314 3078 
Q 3713 2572 3713 1747 
Q 3713 922 3314 415 
Q 2916 -91 2278 -91 
Q 1894 -91 1617 61 
Q 1341 213 1159 525 
L 1159 0 
L 581 0 
L 581 4863 
L 1159 4863 
L 1159 2969 
z
" transform="scale(0.015625)"/>
     </defs>
     <use xlink:href="#DejaVuSans-66"/>
     <use xlink:href="#DejaVuSans-6f" transform="translate(35.205078 0)"/>
     <use xlink:href="#DejaVuSans-72" transform="translate(96.386719 0)"/>
     <use xlink:href="#DejaVuSans-62" transform="translate(137.5 0)"/>
     <use xlink:href="#DejaVuSans-69" transform="translate(200.976562 0)"/>
     <use xlink:href="#DejaVuSans-64" transform="translate(228.759766 0)"/>
     <use xlink:href="#DejaVuSans-64" transform="translate(292.236328 0)"/>
     <use xlink:href="#DejaVuSans-65" transform="translate(355.712891 0)"/>
     <use xlink:href="#DejaVuSans-6e" transform="translate(417.236328 0)"/>
    </g>
    <!-- $\sigma_x\sigma_p&lt;\hbar/2$ -->
    <g style="fill: #d55e00" transform="translate(285.210553 183.501262) scale(0.09 -0.09)">
     <defs>
      <path id="DejaVuSans-3c" d="M 4684 3150 
L 1459 2003 
L 4684 863 
L 4684 294 
L 678 1747 
L 678 2266 
L 4684 3719 
L 4684 3150 
z
" transform="scale(0.015625)"/>
     </defs>
     <use xlink:href="#DejaVuSans-Oblique-3c3" transform="translate(0 0.015625)"/>
     <use xlink:href="#DejaVuSans-Oblique-78" transform="translate(63.378906 -16.390625) scale(0.7)"/>
     <use xlink:href="#DejaVuSans-Oblique-3c3" transform="translate(107.539062 0.015625)"/>
     <use xlink:href="#DejaVuSans-Oblique-70" transform="translate(170.917969 -16.390625) scale(0.7)"/>
     <use xlink:href="#DejaVuSans-3c" transform="translate(237.568359 0.015625)"/>
     <use xlink:href="#DejaVuSans-Oblique-127" transform="translate(340.839844 0.015625)"/>
     <use xlink:href="#DejaVuSans-2f" transform="translate(410.322266 0.015625)"/>
     <use xlink:href="#DejaVuSans-32" transform="translate(440.388672 0.015625)"/>
    </g>
   </g>
   <g id="patch_5">
    <path d="M 251.446644 113.161673 
Q 251.446644 108.499239 251.446644 105.625659 
" style="fill: none; stroke: #e69f00; stroke-width: 1.6; stroke-linecap: round"/>
    <path d="M 249.246644 110.025659 
L 251.446644 105.625659 
L 253.646644 110.025659 
" style="fill: none; stroke: #e69f00; stroke-width: 1.6; stroke-linecap: round"/>
   </g>
   <g id="text_11">
    <!-- $n\!\uparrow$ moves away -->
    <g style="fill: #e69f00" transform="translate(259.214068 102.347826) scale(0.08 -0.08)">
     <defs>
      <path id="DejaVuSans-Oblique-6e" d="M 3566 2113 
L 3156 0 
L 2578 0 
L 2988 2091 
Q 3016 2238 3031 2350 
Q 3047 2463 3047 2528 
Q 3047 2791 2881 2937 
Q 2716 3084 2419 3084 
Q 1956 3084 1622 2776 
Q 1288 2469 1184 1941 
L 800 0 
L 225 0 
L 903 3500 
L 1478 3500 
L 1363 2950 
Q 1603 3253 1940 3418 
Q 2278 3584 2650 3584 
Q 3113 3584 3367 3334 
Q 3622 3084 3622 2631 
Q 3622 2519 3608 2391 
Q 3594 2263 3566 2113 
z
" transform="scale(0.015625)"/>
      <path id="DejaVuSans-2191" d="M 2541 4688 
L 2822 4688 
L 4047 3456 
L 3672 3081 
L 2947 3813 
L 2947 0 
L 2416 0 
L 2416 3813 
L 1684 3081 
L 1309 3456 
L 2541 4688 
z
" transform="scale(0.015625)"/>
      <path id="DejaVuSans-76" d="M 191 3500 
L 800 3500 
L 1894 563 
L 2988 3500 
L 3597 3500 
L 2284 0 
L 1503 0 
L 191 3500 
z
" transform="scale(0.015625)"/>
      <path id="DejaVuSans-77" d="M 269 3500 
L 844 3500 
L 1563 769 
L 2278 3500 
L 2956 3500 
L 3675 769 
L 4391 3500 
L 4966 3500 
L 4050 0 
L 3372 0 
L 2619 2869 
L 1863 0 
L 1184 0 
L 269 3500 
z
" transform="scale(0.015625)"/>
      <path id="DejaVuSans-79" d="M 2059 -325 
Q 1816 -950 1584 -1140 
Q 1353 -1331 966 -1331 
L 506 -1331 
L 506 -850 
L 844 -850 
Q 1081 -850 1212 -737 
Q 1344 -625 1503 -206 
L 1606 56 
L 191 3500 
L 800 3500 
L 1894 763 
L 2988 3500 
L 3597 3500 
L 2059 -325 
z
" transform="scale(0.015625)"/>
     </defs>
     <use xlink:href="#DejaVuSans-Oblique-6e" transform="translate(0 0.75)"/>
     <use xlink:href="#DejaVuSans-2191" transform="translate(66.625652 0.75)"/>
     <use xlink:href="#DejaVuSans-20" transform="translate(169.897136 0.75)"/>
     <use xlink:href="#DejaVuSans-6d" transform="translate(201.684246 0.75)"/>
     <use xlink:href="#DejaVuSans-6f" transform="translate(299.096355 0.75)"/>
     <use xlink:href="#DejaVuSans-76" transform="translate(360.277996 0.75)"/>
     <use xlink:href="#DejaVuSans-65" transform="translate(419.457683 0.75)"/>
     <use xlink:href="#DejaVuSans-73" transform="translate(480.981121 0.75)"/>
     <use xlink:href="#DejaVuSans-20" transform="translate(533.08073 0.75)"/>
     <use xlink:href="#DejaVuSans-61" transform="translate(564.867839 0.75)"/>
     <use xlink:href="#DejaVuSans-77" transform="translate(626.147136 0.75)"/>
     <use xlink:href="#DejaVuSans-61" transform="translate(707.934246 0.75)"/>
     <use xlink:href="#DejaVuSans-79" transform="translate(769.213542 0.75)"/>
    </g>
    <!-- (→ $\pi/\sqrt{3}\approx1.81$) -->
    <g style="fill: #e69f00" transform="translate(259.214068 114.127326) scale(0.08 -0.08)">
     <defs>
      <path id="DejaVuSans-2192" d="M 5050 2147 
L 5050 1866 
L 3822 638 
L 3447 1013 
L 4175 1741 
L 366 1741 
L 366 2272 
L 4175 2272 
L 3447 3000 
L 3822 3375 
L 5050 2147 
z
" transform="scale(0.015625)"/>
      <path id="DejaVuSans-Oblique-3c0" d="M 584 3500 
L 3938 3500 
L 3825 2925 
L 3384 2925 
L 2966 775 
Q 2922 550 2981 450 
Q 3038 353 3209 353 
Q 3256 353 3325 363 
Q 3397 369 3419 372 
L 3338 -44 
Q 3222 -84 3103 -103 
Q 2981 -122 2866 -122 
Q 2491 -122 2388 81 
Q 2284 288 2391 838 
L 2797 2925 
L 1506 2925 
L 938 0 
L 350 0 
L 919 2925 
L 472 2925 
L 584 3500 
z
" transform="scale(0.015625)"/>
      <path id="STIXSizeOneSym-Regular-221a" d="M 6970 9933 
L 3373 -1888 
L 3104 -1888 
L 1626 2918 
Q 1555 3149 1465 3251 
Q 1376 3354 1229 3354 
Q 1011 3354 794 3181 
L 717 3309 
L 1766 4115 
L 1926 4115 
L 3379 -602 
L 3405 -602 
L 6605 9933 
L 6970 9933 
z
" transform="scale(0.015625)"/>
      <path id="DejaVuSans-33" d="M 2597 2516 
Q 3050 2419 3304 2112 
Q 3559 1806 3559 1356 
Q 3559 666 3084 287 
Q 2609 -91 1734 -91 
Q 1441 -91 1130 -33 
Q 819 25 488 141 
L 488 750 
Q 750 597 1062 519 
Q 1375 441 1716 441 
Q 2309 441 2620 675 
Q 2931 909 2931 1356 
Q 2931 1769 2642 2001 
Q 2353 2234 1838 2234 
L 1294 2234 
L 1294 2753 
L 1863 2753 
Q 2328 2753 2575 2939 
Q 2822 3125 2822 3475 
Q 2822 3834 2567 4026 
Q 2313 4219 1838 4219 
Q 1578 4219 1281 4162 
Q 984 4106 628 3988 
L 628 4550 
Q 988 4650 1302 4700 
Q 1616 4750 1894 4750 
Q 2613 4750 3031 4423 
Q 3450 4097 3450 3541 
Q 3450 3153 3228 2886 
Q 3006 2619 2597 2516 
z
" transform="scale(0.015625)"/>
      <path id="DejaVuSans-2248" d="M 4684 1947 
L 4684 1388 
Q 4356 1144 4076 1036 
Q 3797 928 3494 928 
Q 3150 928 2694 1113 
Q 2663 1125 2641 1134 
Q 2622 1141 2575 1159 
Q 2091 1350 1797 1350 
Q 1522 1350 1253 1231 
Q 984 1113 678 850 
L 678 1409 
Q 1006 1653 1286 1761 
Q 1566 1869 1869 1869 
Q 2213 1869 2672 1684 
Q 2706 1669 2722 1663 
Q 2741 1656 2788 1638 
Q 3272 1447 3566 1447 
Q 3834 1447 4098 1564 
Q 4363 1681 4684 1947 
z
M 4684 3163 
L 4684 2606 
Q 4356 2359 4076 2251 
Q 3797 2144 3494 2144 
Q 3150 2144 2694 2328 
Q 2663 2341 2641 2350 
Q 2622 2356 2575 2375 
Q 2091 2566 1797 2566 
Q 1522 2566 1253 2447 
Q 984 2328 678 2069 
L 678 2625 
Q 1006 2869 1286 2976 
Q 1566 3084 1869 3084 
Q 2213 3084 2672 2900 
Q 2703 2888 2719 2881 
Q 2741 2872 2788 2853 
Q 3272 2663 3566 2663 
Q 3834 2663 4098 2780 
Q 4363 2897 4684 3163 
z
" transform="scale(0.015625)"/>
      <path id="DejaVuSans-2e" d="M 684 794 
L 1344 794 
L 1344 0 
L 684 0 
L 684 794 
z
" transform="scale(0.015625)"/>
      <path id="DejaVuSans-38" d="M 2034 2216 
Q 1584 2216 1326 1975 
Q 1069 1734 1069 1313 
Q 1069 891 1326 650 
Q 1584 409 2034 409 
Q 2484 409 2743 651 
Q 3003 894 3003 1313 
Q 3003 1734 2745 1975 
Q 2488 2216 2034 2216 
z
M 1403 2484 
Q 997 2584 770 2862 
Q 544 3141 544 3541 
Q 544 4100 942 4425 
Q 1341 4750 2034 4750 
Q 2731 4750 3128 4425 
Q 3525 4100 3525 3541 
Q 3525 3141 3298 2862 
Q 3072 2584 2669 2484 
Q 3125 2378 3379 2068 
Q 3634 1759 3634 1313 
Q 3634 634 3220 271 
Q 2806 -91 2034 -91 
Q 1263 -91 848 271 
Q 434 634 434 1313 
Q 434 1759 690 2068 
Q 947 2378 1403 2484 
z
M 1172 3481 
Q 1172 3119 1398 2916 
Q 1625 2713 2034 2713 
Q 2441 2713 2670 2916 
Q 2900 3119 2900 3481 
Q 2900 3844 2670 4047 
Q 2441 4250 2034 4250 
Q 1625 4250 1398 4047 
Q 1172 3844 1172 3481 
z
" transform="scale(0.015625)"/>
     </defs>
     <use xlink:href="#DejaVuSans-28" transform="translate(0 0.296875)"/>
     <use xlink:href="#DejaVuSans-2192" transform="translate(39.013672 0.296875)"/>
     <use xlink:href="#DejaVuSans-20" transform="translate(122.802734 0.296875)"/>
     <use xlink:href="#DejaVuSans-Oblique-3c0" transform="translate(154.589844 0.296875)"/>
     <use xlink:href="#DejaVuSans-2f" transform="translate(214.794922 0.296875)"/>
     <use xlink:href="#STIXSizeOneSym-Regular-221a" transform="translate(248.486328 15.984375) scale(0.578716)"/>
     <use xlink:href="#DejaVuSans-33" transform="translate(322.160202 0.53125)"/>
     <use xlink:href="#DejaVuSans-2248" transform="translate(417.765671 0.296875)"/>
     <use xlink:href="#DejaVuSans-31" transform="translate(521.037155 0.296875)"/>
     <use xlink:href="#DejaVuSans-2e" transform="translate(584.660202 0.296875)"/>
     <use xlink:href="#DejaVuSans-38" transform="translate(613.822311 0.296875)"/>
     <use xlink:href="#DejaVuSans-31" transform="translate(677.445358 0.296875)"/>
     <use xlink:href="#DejaVuSans-29" transform="translate(741.068405 0.296875)"/>
     <path d="M 309.660202 99.5 
L 309.660202 105.75 
L 398.283249 105.75 
L 398.283249 99.5 
L 309.660202 99.5 
z
"/>
    </g>
   </g>
   <g id="text_12">
    <!-- Robertson boundary: every state sits on or above the line -->
    <g transform="translate(78.511644 21.96) scale(0.12 -0.12)">
     <defs>
      <path id="DejaVuSans-52" d="M 2841 2188 
Q 3044 2119 3236 1894 
Q 3428 1669 3622 1275 
L 4263 0 
L 3584 0 
L 2988 1197 
Q 2756 1666 2539 1819 
Q 2322 1972 1947 1972 
L 1259 1972 
L 1259 0 
L 628 0 
L 628 4666 
L 2053 4666 
Q 2853 4666 3247 4331 
Q 3641 3997 3641 3322 
Q 3641 2881 3436 2590 
Q 3231 2300 2841 2188 
z
M 1259 4147 
L 1259 2491 
L 2053 2491 
Q 2509 2491 2742 2702 
Q 2975 2913 2975 3322 
Q 2975 3731 2742 3939 
Q 2509 4147 2053 4147 
L 1259 4147 
z
" transform="scale(0.015625)"/>
      <path id="DejaVuSans-3a" d="M 750 794 
L 1409 794 
L 1409 0 
L 750 0 
L 750 794 
z
M 750 3309 
L 1409 3309 
L 1409 2516 
L 750 2516 
L 750 3309 
z
" transform="scale(0.015625)"/>
      <path id="DejaVuSans-68" d="M 3513 2113 
L 3513 0 
L 2938 0 
L 2938 2094 
Q 2938 2591 2744 2837 
Q 2550 3084 2163 3084 
Q 1697 3084 1428 2787 
Q 1159 2491 1159 1978 
L 1159 0 
L 581 0 
L 581 4863 
L 1159 4863 
L 1159 2956 
Q 1366 3272 1645 3428 
Q 1925 3584 2291 3584 
Q 2894 3584 3203 3211 
Q 3513 2838 3513 2113 
z
" transform="scale(0.015625)"/>
      <path id="DejaVuSans-6c" d="M 603 4863 
L 1178 4863 
L 1178 0 
L 603 0 
L 603 4863 
z
" transform="scale(0.015625)"/>
     </defs>
     <use xlink:href="#DejaVuSans-52"/>
     <use xlink:href="#DejaVuSans-6f" transform="translate(64.982422 0)"/>
     <use xlink:href="#DejaVuSans-62" transform="translate(126.164062 0)"/>
     <use xlink:href="#DejaVuSans-65" transform="translate(189.640625 0)"/>
     <use xlink:href="#DejaVuSans-72" transform="translate(251.164062 0)"/>
     <use xlink:href="#DejaVuSans-74" transform="translate(292.277344 0)"/>
     <use xlink:href="#DejaVuSans-73" transform="translate(331.486328 0)"/>
     <use xlink:href="#DejaVuSans-6f" transform="translate(383.585938 0)"/>
     <use xlink:href="#DejaVuSans-6e" transform="translate(444.767578 0)"/>
     <use xlink:href="#DejaVuSans-20" transform="translate(508.146484 0)"/>
     <use xlink:href="#DejaVuSans-62" transform="translate(539.933594 0)"/>
     <use xlink:href="#DejaVuSans-6f" transform="translate(603.410156 0)"/>
     <use xlink:href="#DejaVuSans-75" transform="translate(664.591797 0)"/>
     <use xlink:href="#DejaVuSans-6e" transform="translate(727.970703 0)"/>
     <use xlink:href="#DejaVuSans-64" transform="translate(791.349609 0)"/>
     <use xlink:href="#DejaVuSans-61" transform="translate(854.826172 0)"/>
     <use xlink:href="#DejaVuSans-72" transform="translate(916.105469 0)"/>
     <use xlink:href="#DejaVuSans-79" transform="translate(957.21875 0)"/>
     <use xlink:href="#DejaVuSans-3a" transform="translate(1009.148438 0)"/>
     <use xlink:href="#DejaVuSans-20" transform="translate(1042.839844 0)"/>
     <use xlink:href="#DejaVuSans-65" transform="translate(1074.626953 0)"/>
     <use xlink:href="#DejaVuSans-76" transform="translate(1136.150391 0)"/>
     <use xlink:href="#DejaVuSans-65" transform="translate(1195.330078 0)"/>
     <use xlink:href="#DejaVuSans-72" transform="translate(1256.853516 0)"/>
     <use xlink:href="#DejaVuSans-79" transform="translate(1297.966797 0)"/>
     <use xlink:href="#DejaVuSans-20" transform="translate(1357.146484 0)"/>
     <use xlink:href="#DejaVuSans-73" transform="translate(1388.933594 0)"/>
     <use xlink:href="#DejaVuSans-74" transform="translate(1441.033203 0)"/>
     <use xlink:href="#DejaVuSans-61" transform="translate(1480.242188 0)"/>
     <use xlink:href="#DejaVuSans-74" transform="translate(1541.521484 0)"/>
     <use xlink:href="#DejaVuSans-65" transform="translate(1580.730469 0)"/>
     <use xlink:href="#DejaVuSans-20" transform="translate(1642.253906 0)"/>
     <use xlink:href="#DejaVuSans-73" transform="translate(1674.041016 0)"/>
     <use xlink:href="#DejaVuSans-69" transform="translate(1726.140625 0)"/>
     <use xlink:href="#DejaVuSans-74" transform="translate(1753.923828 0)"/>
     <use xlink:href="#DejaVuSans-73" transform="translate(1793.132812 0)"/>
     <use xlink:href="#DejaVuSans-20" transform="translate(1845.232422 0)"/>
     <use xlink:href="#DejaVuSans-6f" transform="translate(1877.019531 0)"/>
     <use xlink:href="#DejaVuSans-6e" transform="translate(1938.201172 0)"/>
     <use xlink:href="#DejaVuSans-20" transform="translate(2001.580078 0)"/>
     <use xlink:href="#DejaVuSans-6f" transform="translate(2033.367188 0)"/>
     <use xlink:href="#DejaVuSans-72" transform="translate(2094.548828 0)"/>
     <use xlink:href="#DejaVuSans-20" transform="translate(2135.662109 0)"/>
     <use xlink:href="#DejaVuSans-61" transform="translate(2167.449219 0)"/>
     <use xlink:href="#DejaVuSans-62" transform="translate(2228.728516 0)"/>
     <use xlink:href="#DejaVuSans-6f" transform="translate(2292.205078 0)"/>
     <use xlink:href="#DejaVuSans-76" transform="translate(2353.386719 0)"/>
     <use xlink:href="#DejaVuSans-65" transform="translate(2412.566406 0)"/>
     <use xlink:href="#DejaVuSans-20" transform="translate(2474.089844 0)"/>
     <use xlink:href="#DejaVuSans-74" transform="translate(2505.876953 0)"/>
     <use xlink:href="#DejaVuSans-68" transform="translate(2545.085938 0)"/>
     <use xlink:href="#DejaVuSans-65" transform="translate(2608.464844 0)"/>
     <use xlink:href="#DejaVuSans-20" transform="translate(2669.988281 0)"/>
     <use xlink:href="#DejaVuSans-6c" transform="translate(2701.775391 0)"/>
     <use xlink:href="#DejaVuSans-69" transform="translate(2729.558594 0)"/>
     <use xlink:href="#DejaVuSans-6e" transform="translate(2757.341797 0)"/>
     <use xlink:href="#DejaVuSans-65" transform="translate(2820.720703 0)"/>
    </g>
   </g>
   <g id="line2d_49">
    <defs>
     <path id="m4f823c7723" d="M 0 4.5 
C 1.193414 4.5 2.338109 4.025852 3.181981 3.181981 
C 4.025852 2.338109 4.5 1.193414 4.5 0 
C 4.5 -1.193414 4.025852 -2.338109 3.181981 -3.181981 
C 2.338109 -4.025852 1.193414 -4.5 0 -4.5 
C -1.193414 -4.5 -2.338109 -4.025852 -3.181981 -3.181981 
C -4.025852 -2.338109 -4.5 -1.193414 -4.5 0 
C -4.5 1.193414 -4.025852 2.338109 -3.181981 3.181981 
C -2.338109 4.025852 -1.193414 4.5 0 4.5 
z
" style="stroke: #009e73"/>
    </defs>
    <g clip-path="url(#p5b68d6c95c)">
     <use xlink:href="#m4f823c7723" x="251.446644" y="119.039039" style="fill: #009e73; stroke: #009e73"/>
    </g>
   </g>
   <g id="line2d_50">
    <defs>
     <path id="mbcdfd782a3" d="M -4.5 4.5 
L 4.5 4.5 
L 4.5 -4.5 
L -4.5 -4.5 
z
" style="stroke: #e69f00; stroke-linejoin: miter"/>
    </defs>
    <g clip-path="url(#p5b68d6c95c)">
     <use xlink:href="#mbcdfd782a3" x="251.446644" y="115.16226" style="fill: #e69f00; stroke: #e69f00; stroke-linejoin: miter"/>
    </g>
   </g>
   <g id="legend_1">
    <g id="line2d_51">
     <path d="M 305.250458 39.75 
L 314.250458 39.75 
L 323.250458 39.75 
" style="fill: none; stroke: #0072b2; stroke-width: 2.2; stroke-linecap: square"/>
    </g>
    <g id="text_13">
     <!-- $\sigma_x\sigma_p=\hbar/2$ (boundary) -->
     <g transform="translate(330.450458 42.9) scale(0.09 -0.09)">
      <defs>
       <path id="DejaVuSans-3d" d="M 678 2906 
L 4684 2906 
L 4684 2381 
L 678 2381 
L 678 2906 
z
M 678 1631 
L 4684 1631 
L 4684 1100 
L 678 1100 
L 678 1631 
z
" transform="scale(0.015625)"/>
      </defs>
      <use xlink:href="#DejaVuSans-Oblique-3c3" transform="translate(0 0.015625)"/>
      <use xlink:href="#DejaVuSans-Oblique-78" transform="translate(63.378906 -16.390625) scale(0.7)"/>
      <use xlink:href="#DejaVuSans-Oblique-3c3" transform="translate(107.539062 0.015625)"/>
      <use xlink:href="#DejaVuSans-Oblique-70" transform="translate(170.917969 -16.390625) scale(0.7)"/>
      <use xlink:href="#DejaVuSans-3d" transform="translate(237.568359 0.015625)"/>
      <use xlink:href="#DejaVuSans-Oblique-127" transform="translate(340.839844 0.015625)"/>
      <use xlink:href="#DejaVuSans-2f" transform="translate(410.322266 0.015625)"/>
      <use xlink:href="#DejaVuSans-32" transform="translate(440.388672 0.015625)"/>
      <use xlink:href="#DejaVuSans-20" transform="translate(504.011719 0.015625)"/>
      <use xlink:href="#DejaVuSans-28" transform="translate(535.798828 0.015625)"/>
      <use xlink:href="#DejaVuSans-62" transform="translate(574.8125 0.015625)"/>
      <use xlink:href="#DejaVuSans-6f" transform="translate(638.289062 0.015625)"/>
      <use xlink:href="#DejaVuSans-75" transform="translate(699.470703 0.015625)"/>
      <use xlink:href="#DejaVuSans-6e" transform="translate(762.849609 0.015625)"/>
      <use xlink:href="#DejaVuSans-64" transform="translate(826.228516 0.015625)"/>
      <use xlink:href="#DejaVuSans-61" transform="translate(889.705078 0.015625)"/>
      <use xlink:href="#DejaVuSans-72" transform="translate(950.984375 0.015625)"/>
      <use xlink:href="#DejaVuSans-79" transform="translate(992.097656 0.015625)"/>
      <use xlink:href="#DejaVuSans-29" transform="translate(1051.277344 0.015625)"/>
     </g>
    </g>
    <g id="line2d_52">
     <g>
      <use xlink:href="#m4f823c7723" x="314.250458" y="53.878594" style="fill: #009e73; stroke: #009e73"/>
     </g>
    </g>
    <g id="text_14">
     <!-- Gaussian (ratio 1.000) -->
     <g transform="translate(330.450458 57.028594) scale(0.09 -0.09)">
      <defs>
       <path id="DejaVuSans-47" d="M 3809 666 
L 3809 1919 
L 2778 1919 
L 2778 2438 
L 4434 2438 
L 4434 434 
Q 4069 175 3628 42 
Q 3188 -91 2688 -91 
Q 1594 -91 976 548 
Q 359 1188 359 2328 
Q 359 3472 976 4111 
Q 1594 4750 2688 4750 
Q 3144 4750 3555 4637 
Q 3966 4525 4313 4306 
L 4313 3634 
Q 3963 3931 3569 4081 
Q 3175 4231 2741 4231 
Q 1884 4231 1454 3753 
Q 1025 3275 1025 2328 
Q 1025 1384 1454 906 
Q 1884 428 2741 428 
Q 3075 428 3337 486 
Q 3600 544 3809 666 
z
" transform="scale(0.015625)"/>
      </defs>
      <use xlink:href="#DejaVuSans-47"/>
      <use xlink:href="#DejaVuSans-61" transform="translate(77.490234 0)"/>
      <use xlink:href="#DejaVuSans-75" transform="translate(138.769531 0)"/>
      <use xlink:href="#DejaVuSans-73" transform="translate(202.148438 0)"/>
      <use xlink:href="#DejaVuSans-73" transform="translate(254.248047 0)"/>
      <use xlink:href="#DejaVuSans-69" transform="translate(306.347656 0)"/>
      <use xlink:href="#DejaVuSans-61" transform="translate(334.130859 0)"/>
      <use xlink:href="#DejaVuSans-6e" transform="translate(395.410156 0)"/>
      <use xlink:href="#DejaVuSans-20" transform="translate(458.789062 0)"/>
      <use xlink:href="#DejaVuSans-28" transform="translate(490.576172 0)"/>
      <use xlink:href="#DejaVuSans-72" transform="translate(529.589844 0)"/>
      <use xlink:href="#DejaVuSans-61" transform="translate(570.703125 0)"/>
      <use xlink:href="#DejaVuSans-74" transform="translate(631.982422 0)"/>
      <use xlink:href="#DejaVuSans-69" transform="translate(671.191406 0)"/>
      <use xlink:href="#DejaVuSans-6f" transform="translate(698.974609 0)"/>
      <use xlink:href="#DejaVuSans-20" transform="translate(760.15625 0)"/>
      <use xlink:href="#DejaVuSans-31" transform="translate(791.943359 0)"/>
      <use xlink:href="#DejaVuSans-2e" transform="translate(855.566406 0)"/>
      <use xlink:href="#DejaVuSans-30" transform="translate(887.353516 0)"/>
      <use xlink:href="#DejaVuSans-30" transform="translate(950.976562 0)"/>
      <use xlink:href="#DejaVuSans-30" transform="translate(1014.599609 0)"/>
      <use xlink:href="#DejaVuSans-29" transform="translate(1078.222656 0)"/>
     </g>
    </g>
    <g id="line2d_53">
     <g>
      <use xlink:href="#mbcdfd782a3" x="314.250458" y="67.088906" style="fill: #e69f00; stroke: #e69f00; stroke-linejoin: miter"/>
     </g>
    </g>
    <g id="text_15">
     <!-- Well n=1 (ratio 1.136) -->
     <g transform="translate(330.450458 70.238906) scale(0.09 -0.09)">
      <defs>
       <path id="DejaVuSans-57" d="M 213 4666 
L 850 4666 
L 1831 722 
L 2809 4666 
L 3519 4666 
L 4500 722 
L 5478 4666 
L 6119 4666 
L 4947 0 
L 4153 0 
L 3169 4050 
L 2175 0 
L 1381 0 
L 213 4666 
z
" transform="scale(0.015625)"/>
       <path id="DejaVuSans-36" d="M 2113 2584 
Q 1688 2584 1439 2293 
Q 1191 2003 1191 1497 
Q 1191 994 1439 701 
Q 1688 409 2113 409 
Q 2538 409 2786 701 
Q 3034 994 3034 1497 
Q 3034 2003 2786 2293 
Q 2538 2584 2113 2584 
z
M 3366 4563 
L 3366 3988 
Q 3128 4100 2886 4159 
Q 2644 4219 2406 4219 
Q 1781 4219 1451 3797 
Q 1122 3375 1075 2522 
Q 1259 2794 1537 2939 
Q 1816 3084 2150 3084 
Q 2853 3084 3261 2657 
Q 3669 2231 3669 1497 
Q 3669 778 3244 343 
Q 2819 -91 2113 -91 
Q 1303 -91 875 529 
Q 447 1150 447 2328 
Q 447 3434 972 4092 
Q 1497 4750 2381 4750 
Q 2619 4750 2861 4703 
Q 3103 4656 3366 4563 
z
" transform="scale(0.015625)"/>
      </defs>
      <use xlink:href="#DejaVuSans-57"/>
      <use xlink:href="#DejaVuSans-65" transform="translate(93.001953 0)"/>
      <use xlink:href="#DejaVuSans-6c" transform="translate(154.525391 0)"/>
      <use xlink:href="#DejaVuSans-6c" transform="translate(182.308594 0)"/>
      <use xlink:href="#DejaVuSans-20" transform="translate(210.091797 0)"/>
      <use xlink:href="#DejaVuSans-6e" transform="translate(241.878906 0)"/>
      <use xlink:href="#DejaVuSans-3d" transform="translate(305.257812 0)"/>
      <use xlink:href="#DejaVuSans-31" transform="translate(389.046875 0)"/>
      <use xlink:href="#DejaVuSans-20" transform="translate(452.669922 0)"/>
      <use xlink:href="#DejaVuSans-28" transform="translate(484.457031 0)"/>
      <use xlink:href="#DejaVuSans-72" transform="translate(523.470703 0)"/>
      <use xlink:href="#DejaVuSans-61" transform="translate(564.583984 0)"/>
      <use xlink:href="#DejaVuSans-74" transform="translate(625.863281 0)"/>
      <use xlink:href="#DejaVuSans-69" transform="translate(665.072266 0)"/>
      <use xlink:href="#DejaVuSans-6f" transform="translate(692.855469 0)"/>
      <use xlink:href="#DejaVuSans-20" transform="translate(754.037109 0)"/>
      <use xlink:href="#DejaVuSans-31" transform="translate(785.824219 0)"/>
      <use xlink:href="#DejaVuSans-2e" transform="translate(849.447266 0)"/>
      <use xlink:href="#DejaVuSans-31" transform="translate(881.234375 0)"/>
      <use xlink:href="#DejaVuSans-33" transform="translate(944.857422 0)"/>
      <use xlink:href="#DejaVuSans-36" transform="translate(1008.480469 0)"/>
      <use xlink:href="#DejaVuSans-29" transform="translate(1072.103516 0)"/>
     </g>
    </g>
   </g>
  </g>
 </g>
 <defs>
  <clipPath id="p5b68d6c95c">
   <rect x="63.794548" y="27.96" width="375.304191" height="210.016"/>
  </clipPath>
 </defs>
</svg>
