<?xml version="1.0" encoding="UTF-8"?>
<!-- 
  CAJAL Figure: 10-measurement-and-the-qubit-fig-03.svg
  Book: Quantum Mechanics (quantum-mechanics-vol1)
  Chapter: 10-measurement-and-the-qubit
  Figure: 03 — The Bloch Sphere with θ/2 Mapping
  Generated: 2026-06-06
  Source: pantry/10-measurement-and-the-qubit-cajal.md
-->
<svg viewBox="0 0 700 420" xmlns="http://www.w3.org/2000/svg"
     xmlns:cajal="https://bearbrown.ai/cajal/1.0"
     role="img" aria-labelledby="fig-title-10-03">
  <title id="fig-title-10-03">Bloch sphere representation of a qubit state with polar angle θ and azimuthal angle φ</title>
  <desc>Unit sphere in orthographic projection showing the vertical z-axis (σz), equatorial x and y axes, north pole |0⟩ (green), south pole |1⟩ (red), four equatorial eigenstates (orange diamonds), and a representative state vector arrow with polar and azimuthal angle arcs.</desc>
  <metadata>
    <cajal:figure book="Quantum Mechanics" book-slug="quantum-mechanics-vol1"
      chapter="10-measurement-and-the-qubit" figure-number="03"
      figure-title="The Bloch Sphere with θ/2 Mapping"
      figure-slug="bloch-sphere" figure-type="diagram"
      priority="Critical" author="Humanitarians AI Incorporated"
      date-generated="2026-06-06"
      source-file="pantry/10-measurement-and-the-qubit-cajal.md"/>
  </metadata>
  <defs>
    <marker id="arr-10-03" markerWidth="8" markerHeight="6" refX="7" refY="3" orient="auto">
      <polygon points="0 0, 8 3, 0 6" fill="#0072B2"/>
    </marker>
  </defs>

  <!-- Background -->
  <rect width="700" height="420" fill="#FFFFFF"/>

  <circle cx="350" cy="220" r="160" fill="#F5F5F5" stroke="#888888" stroke-width="0.75"/>
<polyline points="495.0,156.5 490.5,148.0 485.4,139.9 479.8,132.1 473.6,124.6 467.0,117.5 459.9,110.8 452.4,104.5 444.5,98.7 436.2,93.3 427.6,88.5 418.6,84.2 409.4,80.4 400.0,77.2 390.3,74.5 380.5,72.4 370.6,70.9 360.6,70.0 350.6,69.7 340.5,69.9 330.5,70.8 320.6,72.2 310.8,74.2 301.1,76.8 291.6,80.0 282.4,83.7 273.4,88.0 264.7,92.8 256.4,98.1 248.4,103.8 240.9,110.0 233.7,116.7 227.1,123.8 220.9,131.2 215.2,139.0 210.1,147.1 205.5,155.5 201.4,164.2 198.0,173.0 195.2,182.1 192.9,191.3 191.3,200.6 190.4,210.0 190.0,219.5" fill="none" stroke="#888888" stroke-width="0.75"/>
<polyline points="509.7,211.1 508.8,201.7 507.3,192.3 505.1,183.1 502.3,174.0 499.0,165.1 495.0,156.5" fill="none" stroke="#888888" stroke-width="0.75"/>
<polyline points="190.3,228.9 191.2,238.3 192.7,247.7 194.9,256.9 197.7,266.0 201.0,274.9 205.0,283.5 209.5,292.0 214.6,300.1 220.2,307.9 226.4,315.4 233.0,322.5 240.1,329.2 247.6,335.5 255.5,341.3 263.8,346.7 272.4,351.5 281.4,355.8 290.6,359.6 300.0,362.8 309.7,365.5 319.5,367.6 329.4,369.1 339.4,370.0 349.4,370.3 359.5,370.1 369.5,369.2 379.4,367.8 389.2,365.8 398.9,363.2 408.4,360.0 417.6,356.3 426.6,352.0 435.3,347.2 443.6,341.9 451.6,336.2 459.1,330.0 466.3,323.3 472.9,316.2 479.1,308.8 484.8,301.0 489.9,292.9 494.5,284.5 498.6,275.8 502.0,267.0 504.8,257.9 507.1,248.7 508.7,239.4 509.6,230.0 510.0,220.5" fill="none" stroke="#CCCCCC" stroke-width="0.5" stroke-dasharray="3 3"/>
<polyline points="452.5,213.8 448.5,206.3 443.8,199.2 438.5,192.5 432.7,186.2 426.4,180.3 419.7,174.9 412.4,170.0 404.8,165.7 396.9,162.0 388.7,158.8 380.2,156.2 371.6,154.3 362.8,153.1 353.9,152.4 345.1,152.5 336.2,153.2 327.4,154.5 318.8,156.5 310.4,159.1 302.2,162.3 294.3,166.2 286.7,170.6 279.6,175.5 272.8,180.9 266.6,186.9 260.8,193.2 255.7,200.0 251.0,207.2 247.0,214.6 243.7,222.3 241.0,230.3 238.9,238.4 237.6,246.7 236.9,255.0 237.0,263.3 237.7,271.7 239.1,279.9 241.2,288.0 244.0,295.9 247.5,303.6 251.5,311.0 256.2,318.1 261.5,324.9 267.3,331.2 273.6,337.1 280.3,342.5 287.6,347.3 295.2,351.7 303.1,355.4 311.3,358.6 319.8,361.1 328.4,363.1 337.2,364.3 346.1,364.9 354.9,364.9 363.8,364.2 372.6,362.9 381.2,360.9 389.6,358.3 397.8,355.0 405.7,351.2 413.3,346.8 420.4,341.9 427.2,336.4 433.4,330.5 439.2,324.1 444.3,317.4 449.0,310.2 453.0,302.8 456.3,295.1 459.0,287.1 461.1,279.0 462.4,270.7 463.1,262.4 463.0,254.1 462.3,245.7 460.9,237.5 458.8,229.4 456.0,221.5 452.5,213.8" fill="none" stroke="#AAAAAA" stroke-width="0.5"/>
<polyline points="452.5,136.4 448.5,129.0 443.8,121.9 438.5,115.1 432.7,108.8 426.4,102.9 419.7,97.5 412.4,92.7 404.8,88.3 396.9,84.6 388.7,81.4 380.2,78.9 371.6,76.9 362.8,75.7 353.9,75.1 345.1,75.1 336.2,75.8 327.4,77.1 318.8,79.1 310.4,81.7 302.2,85.0 294.3,88.8 286.7,93.2 279.6,98.1 272.8,103.6 266.6,109.5 260.8,115.9 255.7,122.6 251.0,129.8 247.0,137.2 243.7,144.9 241.0,152.9 238.9,161.0 237.6,169.3 236.9,177.6 237.0,185.9 237.7,194.3 239.1,202.5 241.2,210.6 244.0,218.5 247.5,226.2 251.5,233.7 256.2,240.8 261.5,247.5 267.3,253.8 273.6,259.7 280.3,265.1 287.6,270.0 295.2,274.3 303.1,278.0 311.3,281.2 319.8,283.8 328.4,285.7 337.2,286.9 346.1,287.6 354.9,287.5 363.8,286.8 372.6,285.5 381.2,283.5 389.6,280.9 397.8,277.7 405.7,273.8 413.3,269.4 420.4,264.5 427.2,259.1 433.4,253.1 439.2,246.8 444.3,240.0 449.0,232.8 453.0,225.4 456.3,217.7 459.0,209.7 461.1,201.6 462.4,193.3 463.1,185.0 463.0,176.7 462.3,168.3 460.9,160.1 458.8,152.0 456.0,144.1 452.5,136.4" fill="none" stroke="#CCCCCC" stroke-width="0.4" stroke-dasharray="2 2"/>
<polyline points="350.0,274.7 355.7,272.2 361.4,269.6 367.0,266.9 372.7,264.1 378.3,261.3 383.9,258.4 389.4,255.4 394.8,252.4 400.2,249.3 405.5,246.2 410.7,243.1 415.8,239.9 420.9,236.7 425.8,233.5 430.6,230.2 435.2,226.9 439.8,223.6 444.2,220.3 448.4,217.1 452.5,213.8 456.5,210.5 460.3,207.2 463.9,204.0 467.3,200.8 470.6,197.6 473.6,194.4 476.5,191.3 479.2,188.2 481.7,185.2 484.0,182.2 486.0,179.3 487.9,176.5 489.6,173.7 491.0,171.0 492.2,168.4 493.2,165.8 494.0,163.3 494.6,160.9 494.9,158.7 495.0,156.5 494.9,154.4 494.6,152.4 494.0,150.5" fill="none" stroke="#AAAAAA" stroke-width="0.5"/>
<polyline points="493.2,148.7 492.2,147.0 491.0,145.4 489.6,144.0 487.9,142.7 486.0,141.4 484.0,140.4 481.7,139.4 479.2,138.5 476.5,137.8 473.6,137.2 470.6,136.8 467.3,136.4 463.9,136.2 460.3,136.1 456.5,136.2 452.5,136.4 448.4,136.7 444.2,137.1 439.8,137.7 435.2,138.4 430.6,139.2 425.8,140.1 420.9,141.2 415.8,142.4 410.7,143.7 405.5,145.1 400.2,146.7 394.8,148.3 389.4,150.1 383.9,152.0 378.3,153.9 372.7,156.0 367.0,158.2 361.4,160.5 355.7,162.8 350.0,165.3" fill="none" stroke="#CCCCCC" stroke-width="0.4" stroke-dasharray="2 2"/>
<polyline points="350.0,274.7 347.3,269.3 344.7,263.9 342.1,258.3 339.4,252.7 336.8,247.1 334.2,241.4 331.6,235.7 329.1,229.9 326.6,224.2 324.1,218.4 321.7,212.6 319.3,206.9 317.0,201.2 314.7,195.5 312.4,189.8 310.3,184.2 308.1,178.6 306.1,173.1 304.1,167.7 302.2,162.3 300.3,157.1 298.6,151.9 296.9,146.9 295.3,141.9 293.8,137.1 292.3,132.4 291.0,127.8 289.8,123.4 288.6,119.2 287.5,115.1 286.6,111.1 285.7,107.3 284.9,103.7 284.2,100.3 283.7,97.0 283.2,94.0 282.8,91.1 282.6,88.4 282.4,86.0 282.4,83.7 282.4,81.7 282.6,79.9 282.8,78.2 283.2,76.9 283.7,75.7 284.2,74.7 284.9,74.0 285.7,73.5" fill="none" stroke="#AAAAAA" stroke-width="0.5"/>
<polyline points="286.6,73.2 287.5,73.2 288.6,73.3 289.8,73.7 291.0,74.4 292.3,75.2 293.8,76.3 295.3,77.6 296.9,79.1 298.6,80.8 300.3,82.8 302.2,85.0 304.1,87.3 306.1,89.9 308.1,92.7 310.3,95.6 312.4,98.8 314.7,102.1 317.0,105.7 319.3,109.4 321.7,113.3 324.1,117.3 326.6,121.5 329.1,125.8 331.6,130.3 334.2,135.0 336.8,139.7 339.4,144.6 342.1,149.6 344.7,154.8 347.3,160.0 350.0,165.3" fill="none" stroke="#CCCCCC" stroke-width="0.4" stroke-dasharray="2 2"/>
<polyline points="350.0,274.7 344.3,277.2 338.6,279.5 333.0,281.8 327.3,284.0 321.7,286.1 316.1,288.0 310.6,289.9 305.2,291.7 299.8,293.3 294.5,294.9 289.3,296.3 284.2,297.6 279.1,298.8 274.2,299.9 269.4,300.8 264.8,301.6 260.2,302.3 255.8,302.9 251.6,303.3 247.5,303.6 243.5,303.8 239.7,303.9 236.1,303.8 232.7,303.6 229.4,303.2 226.4,302.8 223.5,302.2 220.8,301.5 218.3,300.6 216.0,299.6 214.0,298.6 212.1,297.3 210.4,296.0 209.0,294.6 207.8,293.0 206.8,291.3" fill="none" stroke="#AAAAAA" stroke-width="0.5"/>
<polyline points="206.0,289.5 205.4,287.6 205.1,285.6 205.0,283.5 205.1,281.3 205.4,279.1 206.0,276.7 206.8,274.2 207.8,271.6 209.0,269.0 210.4,266.3 212.1,263.5 214.0,260.7 216.0,257.8 218.3,254.8 220.8,251.8 223.5,248.7 226.4,245.6 229.4,242.4 232.7,239.2 236.1,236.0 239.7,232.8 243.5,229.5 247.5,226.2 251.6,222.9 255.8,219.7 260.2,216.4 264.8,213.1 269.4,209.8 274.2,206.5 279.1,203.3 284.2,200.1 289.3,196.9 294.5,193.8 299.8,190.7 305.2,187.6 310.6,184.6 316.1,181.6 321.7,178.7 327.3,175.9 333.0,173.1 338.6,170.4 344.3,167.8 350.0,165.3" fill="none" stroke="#CCCCCC" stroke-width="0.4" stroke-dasharray="2 2"/>
<polyline points="350.0,274.7 352.7,280.0 355.3,285.2 357.9,290.4 360.6,295.4 363.2,300.3 365.8,305.0 368.4,309.7 370.9,314.2 373.4,318.5 375.9,322.7 378.3,326.7 380.7,330.6 383.0,334.3 385.3,337.9 387.6,341.2 389.7,344.4 391.9,347.3 393.9,350.1 395.9,352.7 397.8,355.0 399.7,357.2 401.4,359.2 403.1,360.9 404.7,362.4 406.2,363.7 407.7,364.8 409.0,365.6 410.2,366.3 411.4,366.7 412.5,366.8 413.4,366.8" fill="none" stroke="#AAAAAA" stroke-width="0.5"/>
<polyline points="414.3,366.5 415.1,366.0 415.8,365.3 416.3,364.3 416.8,363.1 417.2,361.8 417.4,360.1 417.6,358.3 417.6,356.3 417.6,354.0 417.4,351.6 417.2,348.9 416.8,346.0 416.3,343.0 415.8,339.7 415.1,336.3 414.3,332.7 413.4,328.9 412.5,324.9 411.4,320.8 410.2,316.6 409.0,312.2 407.7,307.6 406.2,302.9 404.7,298.1 403.1,293.1 401.4,288.1 399.7,282.9 397.8,277.7 395.9,272.3 393.9,266.9 391.9,261.4 389.7,255.8 387.6,250.2 385.3,244.5 383.0,238.8 380.7,233.1 378.3,227.4 375.9,221.6 373.4,215.8 370.9,210.1 368.4,204.3 365.8,198.6 363.2,192.9 360.6,187.3 357.9,181.7 355.3,176.1 352.7,170.7 350.0,165.3" fill="none" stroke="#CCCCCC" stroke-width="0.4" stroke-dasharray="2 2"/>
<line x1="350.0" y1="154.3" x2="350.0" y2="285.7" stroke="#0072B2" stroke-width="1"/>
<line x1="350" y1="220" x2="524.0" y2="143.8" stroke="#56B4E9" stroke-width="1"/>
<line x1="350" y1="220" x2="176.0" y2="296.2" stroke="#56B4E9" stroke-width="0.5" stroke-dasharray="3 2"/>
<line x1="350" y1="220" x2="268.9" y2="56.5" stroke="#CC79A7" stroke-width="1"/>
<line x1="350" y1="220" x2="431.1" y2="383.5" stroke="#CC79A7" stroke-width="0.5" stroke-dasharray="3 2"/>
<line x1="350" y1="220" x2="397.4" y2="125.0" stroke="#0072B2" stroke-width="2" marker-end="url(#arr-10-03)"/>
<circle cx="397.4" cy="125.0" r="4" fill="#0072B2"/>
<polyline points="350.0,247.4 351.4,243.6 352.9,239.8 354.3,236.0 355.7,232.1 357.1,228.1 358.5,224.2 359.8,220.2 361.1,216.3 362.4,212.3 363.7,208.4 364.9,204.5 366.1,200.6 367.2,196.8 368.3,193.1 369.3,189.4 370.3,185.8 371.3,182.3 372.1,178.9 372.9,175.7 373.7,172.5" fill="none" stroke="#0072B2" stroke-width="0.75" stroke-dasharray="3 2"/>
<polyline points="415.3,191.4 413.6,188.2 411.7,185.2 409.7,182.2 407.5,179.3 405.2,176.5 402.7,173.9 400.0,171.3 397.2,168.9 394.3,166.7 391.3,164.6 388.2,162.6 384.9,160.8 381.6,159.2 378.1,157.7 374.6,156.4" fill="none" stroke="#CC79A7" stroke-width="0.75" stroke-dasharray="3 2"/>
<circle cx="350.0" cy="274.7" r="5" fill="#009E73"/>
<circle cx="350.0" cy="165.3" r="5" fill="#D55E00"/>
<polygon points="495.0,151.5 500.0,156.5 495.0,161.5 490.0,156.5" fill="none" stroke="#E69F00" stroke-width="1.25"/>
<polygon points="282.4,78.7 287.4,83.7 282.4,88.7 277.4,83.7" fill="none" stroke="#E69F00" stroke-width="1.25"/>
<polygon points="205.0,278.5 210.0,283.5 205.0,288.5 200.0,283.5" fill="none" stroke="#E69F00" stroke-width="1.25"/>
<polygon points="417.6,351.3 422.6,356.3 417.6,361.3 412.6,356.3" fill="none" stroke="#E69F00" stroke-width="1.25"/>

  <!-- Axis labels -->
  <text x="358.0" y="288.4" font-family="Lato, sans-serif" font-size="12" fill="#009E73" font-weight="600">|0⟩</text>
  <text x="358.0" y="150.0" font-family="Lato, sans-serif" font-size="12" fill="#D55E00" font-weight="600">|1⟩</text>
  <text x="540.6" y="142.7" font-family="Lato, sans-serif" font-size="11" fill="#56B4E9">|+x⟩</text>
  <text x="268.4" y="49.6" font-family="Lato, sans-serif" font-size="11" fill="#CC79A7">|+y⟩</text>

  <!-- Angle labels -->
  <text x="365.7" y="213.5" font-family="Lato, sans-serif" font-size="11" fill="#0072B2">θ</text>
  <text x="391.8" y="187.9" font-family="Lato, sans-serif" font-size="11" fill="#CC79A7">φ</text>

  <!-- z-axis label -->
  <text x="356.0" y="285.7" font-family="Lato, sans-serif" font-size="12" fill="#0072B2" font-weight="600">σz</text>

  <!-- Figure title -->
  <text x="350" y="22" font-family="'EB Garamond','Garamond',Georgia,serif" font-size="14" fill="#2a1a0e" text-anchor="middle">Bloch sphere: qubit state |ψ⟩ = cos(θ/2)|0⟩ + e^(iφ)sin(θ/2)|1⟩</text>

  <!-- Caption -->
  <text x="350" y="400" font-family="Lato, sans-serif" font-size="11" fill="#545454" text-anchor="middle">North pole |0⟩ (σz=+1), south pole |1⟩ (σz=−1), equatorial diamonds: |±x⟩, |±y⟩ eigenstates</text>

</svg>