<?xml version="1.0" encoding="UTF-8"?>
<svg xmlns="http://www.w3.org/2000/svg" xmlns:xlink="http://www.w3.org/1999/xlink" width="1920" height="1080" viewBox="0 0 1920 1080">
<defs>
<g>
<g id="glyph-0-0">
<path d="M 0.464844 0 L 0.464844 -3.109375 L 2.664062 -3.109375 L 2.664062 -2.722656 L 0.910156 -2.722656 L 0.910156 -0.386719 L 2.722656 -0.386719 L 2.722656 0 Z M 0.871094 -1.390625 L 0.871094 -1.769531 L 2.472656 -1.769531 L 2.472656 -1.390625 Z "/>
</g>
<g id="glyph-0-1">
<path d="M 0.957031 0.464844 C 0.710938 0.464844 0.507812 0.382812 0.355469 0.214844 C 0.203125 0.046875 0.125 -0.1875 0.125 -0.480469 C 0.125 -0.769531 0.203125 -1 0.355469 -1.167969 C 0.507812 -1.335938 0.710938 -1.421875 0.957031 -1.421875 C 1.203125 -1.421875 1.402344 -1.335938 1.554688 -1.167969 C 1.710938 -1 1.785156 -0.769531 1.785156 -0.480469 C 1.785156 -0.1875 1.710938 0.0429688 1.554688 0.214844 C 1.402344 0.382812 1.203125 0.464844 0.957031 0.464844 Z M 0.957031 0.199219 C 1.105469 0.199219 1.230469 0.140625 1.328125 0.0273438 C 1.425781 -0.0898438 1.476562 -0.257812 1.476562 -0.480469 C 1.476562 -0.703125 1.425781 -0.871094 1.328125 -0.984375 C 1.230469 -1.097656 1.105469 -1.15625 0.957031 -1.15625 C 0.804688 -1.15625 0.679688 -1.097656 0.582031 -0.984375 C 0.484375 -0.871094 0.433594 -0.703125 0.433594 -0.480469 C 0.433594 -0.257812 0.484375 -0.0898438 0.582031 0.0273438 C 0.679688 0.140625 0.804688 0.199219 0.957031 0.199219 Z "/>
</g>
<g id="glyph-0-2">
<rect x="0" y="0" width="0" height="0" mask="url(#mask-0)"/>
</g>
<g id="glyph-0-3">
<path d="M 0.296875 -0.578125 L 0.296875 -0.945312 L 2.148438 -1.65625 L 2.148438 -1.453125 L 0.296875 -2.164062 L 0.296875 -2.535156 L 2.289062 -1.746094 L 2.289062 -1.363281 Z "/>
</g>
<g id="glyph-0-4">
<path d="M 1.484375 0.0351562 C 1.242188 0.0351562 1.023438 -0.0273438 0.832031 -0.152344 C 0.640625 -0.277344 0.492188 -0.457031 0.378906 -0.691406 C 0.269531 -0.929688 0.214844 -1.21875 0.214844 -1.554688 C 0.214844 -1.894531 0.269531 -2.179688 0.378906 -2.417969 C 0.492188 -2.65625 0.640625 -2.835938 0.832031 -2.960938 C 1.023438 -3.085938 1.242188 -3.148438 1.484375 -3.148438 C 1.722656 -3.148438 1.941406 -3.085938 2.132812 -2.960938 C 2.324219 -2.835938 2.476562 -2.65625 2.585938 -2.417969 C 2.695312 -2.179688 2.75 -1.894531 2.75 -1.554688 C 2.75 -1.21875 2.695312 -0.929688 2.585938 -0.691406 C 2.476562 -0.457031 2.324219 -0.277344 2.132812 -0.152344 C 1.941406 -0.0273438 1.722656 0.0351562 1.484375 0.0351562 Z M 1.484375 -0.359375 C 1.648438 -0.359375 1.789062 -0.40625 1.914062 -0.492188 C 2.035156 -0.582031 2.132812 -0.714844 2.203125 -0.894531 C 2.273438 -1.070312 2.304688 -1.292969 2.304688 -1.554688 C 2.304688 -1.820312 2.273438 -2.039062 2.203125 -2.21875 C 2.132812 -2.394531 2.035156 -2.527344 1.914062 -2.617188 C 1.789062 -2.707031 1.648438 -2.75 1.484375 -2.75 C 1.320312 -2.75 1.179688 -2.707031 1.054688 -2.617188 C 0.929688 -2.527344 0.832031 -2.394531 0.761719 -2.21875 C 0.691406 -2.039062 0.65625 -1.820312 0.65625 -1.554688 C 0.65625 -1.292969 0.691406 -1.070312 0.761719 -0.894531 C 0.832031 -0.714844 0.929688 -0.582031 1.054688 -0.492188 C 1.179688 -0.402344 1.320312 -0.359375 1.484375 -0.359375 Z "/>
</g>
</g>
<image id="source-7" x="0" y="0" width="0" height="0"/>
<mask id="mask-0">
<use xlink:href="#source-7"/>
</mask>
</defs>
<g fill="rgb(100%, 100%, 100%)" fill-opacity="1">
<use xlink:href="#glyph-0-0" x="30" y="24.301758"/>
<use xlink:href="#glyph-0-1" x="33" y="24.301758"/>
<use xlink:href="#glyph-0-2" x="35" y="24.301758"/>
<use xlink:href="#glyph-0-3" x="36" y="24.301758"/>
<use xlink:href="#glyph-0-2" x="39" y="24.301758"/>
<use xlink:href="#glyph-0-4" x="40" y="24.301758"/>
</g>
</svg>
