<?xml version="1.0" encoding="UTF-8"?>
<svg xmlns="http://www.w3.org/2000/svg" xmlns:xlink="http://www.w3.org/1999/xlink" width="1920" height="1080" viewBox="0 0 1920 1080">
<defs>
<g>
<g id="glyph-0-0">
<path d="M 0.4375 0 L 0.4375 -2.917969 L 1.574219 -2.917969 C 1.953125 -2.917969 2.25 -2.828125 2.46875 -2.648438 C 2.683594 -2.46875 2.792969 -2.21875 2.792969 -1.898438 C 2.792969 -1.6875 2.742188 -1.507812 2.644531 -1.355469 C 2.546875 -1.203125 2.410156 -1.089844 2.230469 -1.007812 C 2.050781 -0.925781 1.832031 -0.886719 1.574219 -0.886719 L 0.667969 -0.886719 L 0.855469 -1.078125 L 0.855469 0 Z M 2.386719 0 L 1.644531 -1.058594 L 2.09375 -1.058594 L 2.84375 0 Z M 0.855469 -1.039062 L 0.667969 -1.242188 L 1.5625 -1.242188 C 1.828125 -1.242188 2.03125 -1.300781 2.167969 -1.414062 C 2.304688 -1.53125 2.375 -1.691406 2.375 -1.898438 C 2.375 -2.109375 2.304688 -2.269531 2.167969 -2.382812 C 2.03125 -2.496094 1.828125 -2.554688 1.5625 -2.554688 L 0.667969 -2.554688 L 0.855469 -2.761719 Z "/>
</g>
<g id="glyph-0-1">
<path d="M -0.00390625 0 L 1.316406 -2.917969 L 1.730469 -2.917969 L 3.054688 0 L 2.617188 0 L 1.4375 -2.683594 L 1.605469 -2.683594 L 0.425781 0 Z M 0.558594 -0.730469 L 0.671875 -1.0625 L 2.3125 -1.0625 L 2.433594 -0.730469 Z "/>
</g>
<g id="glyph-0-2">
<path d="M 1.140625 0 L 1.140625 -1.117188 L 1.238281 -0.859375 L -0.015625 -2.917969 L 0.429688 -2.917969 L 1.484375 -1.179688 L 1.242188 -1.179688 L 2.300781 -2.917969 L 2.710938 -2.917969 L 1.460938 -0.859375 L 1.554688 -1.117188 L 1.554688 0 Z "/>
</g>
<g id="glyph-0-3">
<path d="M 0.4375 0 L 0.4375 -2.917969 L 0.855469 -2.917969 L 0.855469 -0.363281 L 2.433594 -0.363281 L 2.433594 0 Z "/>
</g>
<g id="glyph-0-4">
<path d="M 0.4375 0 L 0.4375 -2.917969 L 2.496094 -2.917969 L 2.496094 -2.554688 L 0.855469 -2.554688 L 0.855469 -0.363281 L 2.554688 -0.363281 L 2.554688 0 Z M 0.816406 -1.304688 L 0.816406 -1.660156 L 2.316406 -1.660156 L 2.316406 -1.304688 Z "/>
</g>
<g id="glyph-0-5">
<path d="M 0.4375 0 L 0.4375 -2.917969 L 0.855469 -2.917969 L 0.855469 0 Z "/>
</g>
<g id="glyph-0-6">
<path d="M 1.753906 0.0351562 C 1.527344 0.0351562 1.324219 -0.00390625 1.132812 -0.078125 C 0.945312 -0.152344 0.78125 -0.253906 0.640625 -0.390625 C 0.503906 -0.523438 0.394531 -0.683594 0.316406 -0.863281 C 0.238281 -1.042969 0.199219 -1.242188 0.199219 -1.457031 C 0.199219 -1.675781 0.238281 -1.875 0.316406 -2.054688 C 0.394531 -2.234375 0.503906 -2.390625 0.644531 -2.527344 C 0.785156 -2.660156 0.949219 -2.765625 1.136719 -2.839844 C 1.328125 -2.914062 1.535156 -2.949219 1.761719 -2.949219 C 1.992188 -2.949219 2.203125 -2.914062 2.394531 -2.835938 C 2.585938 -2.761719 2.75 -2.648438 2.882812 -2.5 L 2.625 -2.242188 C 2.503906 -2.359375 2.375 -2.445312 2.234375 -2.5 C 2.09375 -2.554688 1.941406 -2.578125 1.78125 -2.578125 C 1.613281 -2.578125 1.457031 -2.550781 1.316406 -2.496094 C 1.171875 -2.441406 1.046875 -2.363281 0.945312 -2.261719 C 0.839844 -2.164062 0.757812 -2.042969 0.703125 -1.90625 C 0.644531 -1.769531 0.617188 -1.621094 0.617188 -1.457031 C 0.617188 -1.300781 0.644531 -1.152344 0.703125 -1.015625 C 0.757812 -0.878906 0.839844 -0.757812 0.945312 -0.65625 C 1.046875 -0.554688 1.171875 -0.476562 1.3125 -0.421875 C 1.453125 -0.367188 1.609375 -0.335938 1.773438 -0.335938 C 1.929688 -0.335938 2.078125 -0.363281 2.222656 -0.410156 C 2.367188 -0.457031 2.5 -0.539062 2.621094 -0.652344 L 2.859375 -0.335938 C 2.714844 -0.214844 2.546875 -0.121094 2.351562 -0.0585938 C 2.160156 0.00390625 1.960938 0.0351562 1.753906 0.0351562 Z M 2.859375 -0.335938 L 2.457031 -0.390625 L 2.457031 -1.476562 L 2.859375 -1.476562 Z "/>
</g>
<g id="glyph-0-7">
<path d="M 2.53125 0 L 2.53125 -2.917969 L 2.945312 -2.917969 L 2.945312 0 Z M 0.4375 0 L 0.4375 -2.917969 L 0.855469 -2.917969 L 0.855469 0 Z M 0.8125 -1.300781 L 0.8125 -1.664062 L 2.566406 -1.664062 L 2.566406 -1.300781 Z "/>
</g>
<g id="glyph-0-8">
<path d="M 0.238281 -0.972656 L 0.238281 -1.316406 L 1.359375 -1.316406 L 1.359375 -0.972656 Z "/>
</g>
<g id="glyph-0-9">
<path d="M 0.8125 0.0351562 C 0.640625 0.0351562 0.480469 -0.00390625 0.328125 -0.0742188 C 0.179688 -0.148438 0.0585938 -0.25 -0.0390625 -0.386719 L 0.203125 -0.671875 C 0.285156 -0.558594 0.375 -0.472656 0.476562 -0.414062 C 0.578125 -0.355469 0.691406 -0.324219 0.8125 -0.324219 C 1.144531 -0.324219 1.3125 -0.523438 1.3125 -0.917969 L 1.3125 -2.554688 L 0.257812 -2.554688 L 0.257812 -2.917969 L 1.726562 -2.917969 L 1.726562 -0.9375 C 1.726562 -0.613281 1.648438 -0.371094 1.492188 -0.207031 C 1.339844 -0.046875 1.113281 0.0351562 0.8125 0.0351562 Z "/>
</g>
<g id="glyph-0-10">
<path d="M 0.4375 0 L 0.4375 -2.917969 L 0.777344 -2.917969 L 2.707031 -0.519531 L 2.53125 -0.519531 L 2.53125 -2.917969 L 2.945312 -2.917969 L 2.945312 0 L 2.605469 0 L 0.675781 -2.394531 L 0.855469 -2.394531 L 0.855469 0 Z "/>
</g>
<g id="glyph-0-11">
<path d="M 1.289062 0.0351562 C 1.066406 0.0351562 0.851562 0 0.648438 -0.0703125 C 0.445312 -0.136719 0.289062 -0.226562 0.171875 -0.332031 L 0.324219 -0.660156 C 0.4375 -0.5625 0.578125 -0.480469 0.75 -0.417969 C 0.921875 -0.351562 1.101562 -0.320312 1.289062 -0.320312 C 1.457031 -0.320312 1.59375 -0.339844 1.699219 -0.378906 C 1.804688 -0.417969 1.882812 -0.472656 1.933594 -0.539062 C 1.984375 -0.609375 2.007812 -0.683594 2.007812 -0.769531 C 2.007812 -0.871094 1.976562 -0.953125 1.910156 -1.011719 C 1.84375 -1.074219 1.761719 -1.121094 1.65625 -1.160156 C 1.550781 -1.199219 1.4375 -1.230469 1.3125 -1.257812 C 1.1875 -1.285156 1.0625 -1.320312 0.933594 -1.355469 C 0.808594 -1.394531 0.695312 -1.441406 0.589844 -1.5 C 0.484375 -1.558594 0.402344 -1.636719 0.335938 -1.734375 C 0.273438 -1.832031 0.242188 -1.960938 0.242188 -2.117188 C 0.242188 -2.265625 0.28125 -2.40625 0.359375 -2.53125 C 0.4375 -2.65625 0.5625 -2.757812 0.726562 -2.835938 C 0.890625 -2.914062 1.101562 -2.949219 1.359375 -2.949219 C 1.527344 -2.949219 1.695312 -2.929688 1.863281 -2.882812 C 2.03125 -2.839844 2.171875 -2.773438 2.296875 -2.691406 L 2.160156 -2.359375 C 2.035156 -2.441406 1.902344 -2.503906 1.761719 -2.539062 C 1.625 -2.578125 1.488281 -2.597656 1.359375 -2.597656 C 1.195312 -2.597656 1.058594 -2.574219 0.953125 -2.535156 C 0.847656 -2.492188 0.773438 -2.4375 0.722656 -2.367188 C 0.675781 -2.296875 0.648438 -2.21875 0.648438 -2.132812 C 0.648438 -2.03125 0.683594 -1.949219 0.746094 -1.886719 C 0.8125 -1.828125 0.898438 -1.777344 1.003906 -1.742188 C 1.105469 -1.707031 1.222656 -1.671875 1.347656 -1.644531 C 1.472656 -1.613281 1.597656 -1.582031 1.722656 -1.546875 C 1.847656 -1.511719 1.964844 -1.460938 2.070312 -1.402344 C 2.171875 -1.34375 2.257812 -1.269531 2.320312 -1.171875 C 2.382812 -1.074219 2.417969 -0.949219 2.417969 -0.796875 C 2.417969 -0.648438 2.375 -0.511719 2.296875 -0.386719 C 2.214844 -0.257812 2.089844 -0.15625 1.921875 -0.0820312 C 1.753906 -0.00390625 1.542969 0.0351562 1.289062 0.0351562 Z "/>
</g>
</g>
</defs>
<g fill="rgb(100%, 100%, 100%)" fill-opacity="1">
<use xlink:href="#glyph-0-0" x="30" y="24.033203"/>
<use xlink:href="#glyph-0-1" x="33" y="24.033203"/>
<use xlink:href="#glyph-0-2" x="36" y="24.033203"/>
<use xlink:href="#glyph-0-3" x="39" y="24.033203"/>
<use xlink:href="#glyph-0-4" x="41" y="24.033203"/>
<use xlink:href="#glyph-0-5" x="44" y="24.033203"/>
<use xlink:href="#glyph-0-6" x="45" y="24.033203"/>
<use xlink:href="#glyph-0-7" x="48" y="24.033203"/>
<use xlink:href="#glyph-0-8" x="51" y="24.033203"/>
<use xlink:href="#glyph-0-9" x="53" y="24.033203"/>
<use xlink:href="#glyph-0-4" x="55" y="24.033203"/>
<use xlink:href="#glyph-0-1" x="58" y="24.033203"/>
<use xlink:href="#glyph-0-10" x="61" y="24.033203"/>
<use xlink:href="#glyph-0-11" x="64" y="24.033203"/>
</g>
</svg>
