<?xml version="1.0" encoding="UTF-8"?>
<svg xmlns="http://www.w3.org/2000/svg" xmlns:xlink="http://www.w3.org/1999/xlink" width="1920" height="1080" viewBox="0 0 1920 1080">
<defs>
<g>
<g id="glyph-0-0">
<path d="M 0.433594 0 L 0.433594 -2.296875 C 0.433594 -2.480469 0.484375 -2.625 0.589844 -2.738281 C 0.695312 -2.851562 0.851562 -2.90625 1.050781 -2.90625 C 1.128906 -2.90625 1.203125 -2.894531 1.277344 -2.875 C 1.347656 -2.855469 1.410156 -2.820312 1.457031 -2.777344 L 1.367188 -2.570312 C 1.328125 -2.605469 1.28125 -2.628906 1.230469 -2.648438 C 1.175781 -2.664062 1.121094 -2.671875 1.0625 -2.671875 C 0.945312 -2.671875 0.855469 -2.640625 0.792969 -2.574219 C 0.730469 -2.511719 0.699219 -2.414062 0.699219 -2.289062 L 0.699219 -1.976562 L 0.707031 -1.847656 L 0.707031 0 Z M 0.0664062 -1.8125 L 0.0664062 -2.042969 L 1.332031 -2.042969 L 1.332031 -1.8125 Z "/>
</g>
<g id="glyph-0-1">
<path d="M 0.386719 0 L 0.386719 -2.042969 L 0.648438 -2.042969 L 0.648438 -1.484375 L 0.621094 -1.582031 C 0.679688 -1.738281 0.773438 -1.855469 0.910156 -1.9375 C 1.046875 -2.019531 1.210938 -2.0625 1.410156 -2.0625 L 1.410156 -1.792969 C 1.402344 -1.792969 1.390625 -1.792969 1.378906 -1.796875 C 1.371094 -1.796875 1.359375 -1.796875 1.351562 -1.796875 C 1.136719 -1.796875 0.964844 -1.730469 0.84375 -1.601562 C 0.722656 -1.46875 0.660156 -1.285156 0.660156 -1.042969 L 0.660156 0 Z "/>
</g>
<g id="glyph-0-2">
<path d="M 1.21875 0.0195312 C 1.019531 0.0195312 0.84375 -0.0234375 0.6875 -0.113281 C 0.53125 -0.203125 0.40625 -0.328125 0.316406 -0.484375 C 0.226562 -0.640625 0.179688 -0.820312 0.179688 -1.023438 C 0.179688 -1.226562 0.222656 -1.40625 0.316406 -1.5625 C 0.40625 -1.71875 0.527344 -1.839844 0.683594 -1.929688 C 0.839844 -2.015625 1.019531 -2.0625 1.21875 -2.0625 C 1.421875 -2.0625 1.597656 -2.015625 1.757812 -1.929688 C 1.914062 -1.839844 2.035156 -1.71875 2.125 -1.5625 C 2.214844 -1.40625 2.261719 -1.226562 2.261719 -1.023438 C 2.261719 -0.820312 2.214844 -0.640625 2.125 -0.484375 C 2.035156 -0.328125 1.914062 -0.203125 1.753906 -0.113281 C 1.597656 -0.0234375 1.417969 0.0195312 1.21875 0.0195312 Z M 1.21875 -0.226562 C 1.367188 -0.226562 1.496094 -0.257812 1.609375 -0.324219 C 1.722656 -0.390625 1.816406 -0.484375 1.878906 -0.605469 C 1.945312 -0.726562 1.980469 -0.863281 1.980469 -1.023438 C 1.980469 -1.183594 1.945312 -1.324219 1.878906 -1.441406 C 1.8125 -1.5625 1.722656 -1.65625 1.609375 -1.722656 C 1.496094 -1.789062 1.367188 -1.820312 1.222656 -1.820312 C 1.078125 -1.820312 0.945312 -1.789062 0.832031 -1.722656 C 0.71875 -1.65625 0.628906 -1.5625 0.558594 -1.441406 C 0.492188 -1.324219 0.457031 -1.183594 0.457031 -1.023438 C 0.457031 -0.863281 0.492188 -0.726562 0.558594 -0.605469 C 0.628906 -0.484375 0.71875 -0.390625 0.832031 -0.324219 C 0.945312 -0.257812 1.074219 -0.226562 1.21875 -0.226562 Z "/>
</g>
<g id="glyph-0-3">
<path d="M 0.386719 0 L 0.386719 -2.042969 L 0.648438 -2.042969 L 0.648438 -1.480469 L 0.605469 -1.585938 C 0.671875 -1.734375 0.773438 -1.851562 0.917969 -1.933594 C 1.0625 -2.019531 1.230469 -2.0625 1.425781 -2.0625 C 1.59375 -2.0625 1.738281 -2.03125 1.863281 -1.964844 C 1.992188 -1.902344 2.089844 -1.804688 2.160156 -1.675781 C 2.230469 -1.546875 2.269531 -1.382812 2.269531 -1.1875 L 2.269531 0 L 1.992188 0 L 1.992188 -1.160156 C 1.992188 -1.375 1.9375 -1.535156 1.832031 -1.648438 C 1.722656 -1.757812 1.570312 -1.8125 1.375 -1.8125 C 1.230469 -1.8125 1.105469 -1.785156 0.996094 -1.726562 C 0.890625 -1.667969 0.808594 -1.582031 0.75 -1.472656 C 0.691406 -1.363281 0.660156 -1.230469 0.660156 -1.074219 L 0.660156 0 Z "/>
</g>
<g id="glyph-0-4">
<path d="M 1.03125 0.0195312 C 0.839844 0.0195312 0.691406 -0.03125 0.585938 -0.136719 C 0.484375 -0.238281 0.433594 -0.386719 0.433594 -0.574219 L 0.433594 -2.492188 L 0.707031 -2.492188 L 0.707031 -0.589844 C 0.707031 -0.472656 0.738281 -0.378906 0.800781 -0.316406 C 0.859375 -0.25 0.949219 -0.21875 1.0625 -0.21875 C 1.183594 -0.21875 1.285156 -0.253906 1.367188 -0.324219 L 1.460938 -0.125 C 1.40625 -0.0742188 1.34375 -0.0390625 1.265625 -0.015625 C 1.1875 0.0078125 1.109375 0.0195312 1.03125 0.0195312 Z M 0.0664062 -1.8125 L 0.0664062 -2.042969 L 1.332031 -2.042969 L 1.332031 -1.8125 Z "/>
</g>
<g id="glyph-0-5">
<rect x="0" y="0" width="0" height="0" mask="url(#mask-0)"/>
</g>
<g id="glyph-0-6">
<path d="M 1.664062 0 L 1.664062 -0.453125 L 1.652344 -0.523438 L 1.652344 -1.28125 C 1.652344 -1.453125 1.605469 -1.585938 1.507812 -1.679688 C 1.410156 -1.773438 1.265625 -1.820312 1.074219 -1.820312 C 0.941406 -1.820312 0.816406 -1.796875 0.695312 -1.753906 C 0.578125 -1.710938 0.476562 -1.652344 0.394531 -1.578125 L 0.269531 -1.785156 C 0.371094 -1.875 0.496094 -1.941406 0.640625 -1.988281 C 0.785156 -2.035156 0.941406 -2.0625 1.101562 -2.0625 C 1.367188 -2.0625 1.570312 -1.996094 1.714844 -1.863281 C 1.859375 -1.734375 1.929688 -1.535156 1.929688 -1.269531 L 1.929688 0 Z M 0.960938 0.0195312 C 0.808594 0.0195312 0.675781 -0.00390625 0.5625 -0.0546875 C 0.449219 -0.105469 0.363281 -0.175781 0.304688 -0.265625 C 0.246094 -0.355469 0.214844 -0.457031 0.214844 -0.574219 C 0.214844 -0.679688 0.238281 -0.777344 0.289062 -0.867188 C 0.339844 -0.953125 0.421875 -1.023438 0.539062 -1.074219 C 0.652344 -1.128906 0.808594 -1.15625 1.003906 -1.15625 L 1.707031 -1.15625 L 1.707031 -0.949219 L 1.011719 -0.949219 C 0.8125 -0.949219 0.675781 -0.914062 0.601562 -0.84375 C 0.523438 -0.773438 0.484375 -0.6875 0.484375 -0.582031 C 0.484375 -0.464844 0.53125 -0.375 0.621094 -0.304688 C 0.710938 -0.234375 0.839844 -0.199219 1.003906 -0.199219 C 1.160156 -0.199219 1.292969 -0.234375 1.40625 -0.304688 C 1.519531 -0.375 1.601562 -0.480469 1.652344 -0.613281 L 1.714844 -0.425781 C 1.664062 -0.289062 1.574219 -0.179688 1.445312 -0.101562 C 1.316406 -0.0195312 1.15625 0.0195312 0.960938 0.0195312 Z "/>
</g>
<g id="glyph-0-7">
<path d="M 0.386719 0 L 0.386719 -2.042969 L 0.648438 -2.042969 L 0.648438 -1.488281 L 0.605469 -1.585938 C 0.667969 -1.734375 0.769531 -1.851562 0.910156 -1.933594 C 1.046875 -2.019531 1.210938 -2.0625 1.398438 -2.0625 C 1.597656 -2.0625 1.769531 -2.011719 1.910156 -1.910156 C 2.050781 -1.8125 2.140625 -1.664062 2.183594 -1.460938 L 2.074219 -1.503906 C 2.132812 -1.671875 2.238281 -1.804688 2.390625 -1.90625 C 2.542969 -2.007812 2.722656 -2.0625 2.9375 -2.0625 C 3.101562 -2.0625 3.246094 -2.03125 3.371094 -1.964844 C 3.492188 -1.902344 3.589844 -1.804688 3.660156 -1.675781 C 3.726562 -1.546875 3.761719 -1.382812 3.761719 -1.1875 L 3.761719 0 L 3.484375 0 L 3.484375 -1.160156 C 3.484375 -1.375 3.433594 -1.535156 3.332031 -1.648438 C 3.230469 -1.757812 3.085938 -1.8125 2.898438 -1.8125 C 2.757812 -1.8125 2.636719 -1.785156 2.535156 -1.726562 C 2.433594 -1.667969 2.351562 -1.582031 2.296875 -1.472656 C 2.242188 -1.363281 2.214844 -1.230469 2.214844 -1.074219 L 2.214844 0 L 1.9375 0 L 1.9375 -1.160156 C 1.9375 -1.375 1.886719 -1.535156 1.78125 -1.648438 C 1.675781 -1.757812 1.53125 -1.8125 1.347656 -1.8125 C 1.210938 -1.8125 1.085938 -1.785156 0.984375 -1.726562 C 0.878906 -1.667969 0.800781 -1.582031 0.746094 -1.472656 C 0.691406 -1.363281 0.660156 -1.230469 0.660156 -1.074219 L 0.660156 0 Z "/>
</g>
</g>
<image id="source-10" x="0" y="0" width="0" height="0"/>
<mask id="mask-0">
<use xlink:href="#source-10"/>
</mask>
</defs>
<g fill="rgb(12.156863%, 43.529412%, 36.078431%)" fill-opacity="1">
<use xlink:href="#glyph-0-0" x="30" y="23.765625"/>
<use xlink:href="#glyph-0-1" x="31" y="23.765625"/>
<use xlink:href="#glyph-0-2" x="33" y="23.765625"/>
<use xlink:href="#glyph-0-3" x="35" y="23.765625"/>
<use xlink:href="#glyph-0-4" x="38" y="23.765625"/>
<use xlink:href="#glyph-0-5" x="40" y="23.765625"/>
<use xlink:href="#glyph-0-6" x="41" y="23.765625"/>
<use xlink:href="#glyph-0-4" x="43" y="23.765625"/>
<use xlink:href="#glyph-0-2" x="45" y="23.765625"/>
<use xlink:href="#glyph-0-7" x="47" y="23.765625"/>
</g>
</svg>
